<?xml version="1.0" encoding="UTF-8" standalone="no"?>
<!DOCTYPE svg PUBLIC "-//W3C//DTD SVG 1.1//EN"
 "http://www.w3.org/Graphics/SVG/1.1/DTD/svg11.dtd">
<!-- Generated by graphviz version 2.43.0 (0)
 -->
<!-- Title: Dependencies Pages: 1 -->
<svg width="1607pt" height="718pt"
 viewBox="0.00 0.00 1606.81 717.81" xmlns="http://www.w3.org/2000/svg" xmlns:xlink="http://www.w3.org/1999/xlink">
<g id="graph0" class="graph" transform="scale(1 1) rotate(0) translate(4 713.81)">
<title>Dependencies</title>
<polygon fill="white" stroke="transparent" points="-4,4 -4,-713.81 1602.81,-713.81 1602.81,4 -4,4"/>
<text text-anchor="middle" x="799.41" y="-694.61" font-family="Helvetica,sans-Serif" font-size="14.00">co&#45;issue</text>
<!-- skill_co_issue -->
<g id="node1" class="node">
<title>skill_co_issue</title>
<ellipse fill="#c8e6c9" stroke="black" cx="50.91" cy="-303.81" rx="50.82" ry="21.43"/>
<text text-anchor="middle" x="50.91" y="-306.81" font-family="Helvetica,sans-Serif" font-size="10.00">dev:co&#45;issue</text>
<text text-anchor="middle" x="50.91" y="-295.81" font-family="Helvetica,sans-Serif" font-size="10.00">(7,684 tok)</text>
</g>
<!-- cmd_issue_structure -->
<g id="node2" class="node">
<title>cmd_issue_structure</title>
<polygon fill="#e3f2fd" stroke="black" points="258.32,-628.81 177.32,-628.81 177.32,-592.81 258.32,-592.81 258.32,-628.81"/>
<text text-anchor="middle" x="217.82" y="-613.81" font-family="Helvetica,sans-Serif" font-size="10.00">issue&#45;structure</text>
<text text-anchor="middle" x="217.82" y="-602.81" font-family="Helvetica,sans-Serif" font-size="10.00">(1,332 tok)</text>
</g>
<!-- skill_co_issue&#45;&gt;cmd_issue_structure -->
<g id="edge2" class="edge">
<title>skill_co_issue&#45;&gt;cmd_issue_structure</title>
<path fill="none" stroke="black" d="M54.87,-324.97C62.91,-375.36 89.5,-504.05 159.82,-581.81 162.47,-584.73 165.48,-587.41 168.7,-589.84"/>
<polygon fill="black" stroke="black" points="166.8,-592.78 177.07,-595.4 170.68,-586.95 166.8,-592.78"/>
</g>
<!-- cmd_issue_create -->
<g id="node3" class="node">
<title>cmd_issue_create</title>
<polygon fill="#e3f2fd" stroke="black" points="252.82,-512.81 182.82,-512.81 182.82,-476.81 252.82,-476.81 252.82,-512.81"/>
<text text-anchor="middle" x="217.82" y="-497.81" font-family="Helvetica,sans-Serif" font-size="10.00">issue&#45;create</text>
<text text-anchor="middle" x="217.82" y="-486.81" font-family="Helvetica,sans-Serif" font-size="10.00">(985 tok)</text>
</g>
<!-- skill_co_issue&#45;&gt;cmd_issue_create -->
<g id="edge4" class="edge">
<title>skill_co_issue&#45;&gt;cmd_issue_create</title>
<path fill="none" stroke="black" d="M61.43,-324.69C77.56,-358.16 113.11,-424.26 159.82,-465.81 164.02,-469.54 168.79,-472.93 173.74,-475.97"/>
<polygon fill="black" stroke="black" points="172.32,-479.19 182.75,-481.06 175.76,-473.1 172.32,-479.19"/>
</g>
<!-- cmd_issue_bulk_create -->
<g id="node4" class="node">
<title>cmd_issue_bulk_create</title>
<polygon fill="#e3f2fd" stroke="black" points="263.32,-454.81 172.32,-454.81 172.32,-418.81 263.32,-418.81 263.32,-454.81"/>
<text text-anchor="middle" x="217.82" y="-439.81" font-family="Helvetica,sans-Serif" font-size="10.00">issue&#45;bulk&#45;create</text>
<text text-anchor="middle" x="217.82" y="-428.81" font-family="Helvetica,sans-Serif" font-size="10.00">(1,667 tok)</text>
</g>
<!-- skill_co_issue&#45;&gt;cmd_issue_bulk_create -->
<g id="edge5" class="edge">
<title>skill_co_issue&#45;&gt;cmd_issue_bulk_create</title>
<path fill="none" stroke="black" d="M69.14,-323.64C89.29,-346.02 124.43,-382.6 159.82,-407.81 162.67,-409.83 165.67,-411.8 168.76,-413.69"/>
<polygon fill="black" stroke="black" points="167.18,-416.82 177.59,-418.8 170.69,-410.76 167.18,-416.82"/>
</g>
<!-- cmd_issue_tech_debt_absorb -->
<g id="node5" class="node">
<title>cmd_issue_tech_debt_absorb</title>
<polygon fill="#e3f2fd" stroke="black" points="275.82,-570.81 159.82,-570.81 159.82,-534.81 275.82,-534.81 275.82,-570.81"/>
<text text-anchor="middle" x="217.82" y="-555.81" font-family="Helvetica,sans-Serif" font-size="10.00">issue&#45;tech&#45;debt&#45;absorb</text>
<text text-anchor="middle" x="217.82" y="-544.81" font-family="Helvetica,sans-Serif" font-size="10.00">(709 tok)</text>
</g>
<!-- skill_co_issue&#45;&gt;cmd_issue_tech_debt_absorb -->
<g id="edge3" class="edge">
<title>skill_co_issue&#45;&gt;cmd_issue_tech_debt_absorb</title>
<path fill="none" stroke="black" d="M57.36,-324.94C69.3,-367.5 101.45,-464.57 159.82,-523.81 161.47,-525.48 163.23,-527.07 165.08,-528.59"/>
<polygon fill="black" stroke="black" points="163.48,-531.75 173.64,-534.74 167.57,-526.06 163.48,-531.75"/>
</g>
<!-- cmd_project_board_sync -->
<g id="node6" class="node">
<title>cmd_project_board_sync</title>
<polygon fill="#e3f2fd" stroke="black" points="266.32,-396.81 169.32,-396.81 169.32,-360.81 266.32,-360.81 266.32,-396.81"/>
<text text-anchor="middle" x="217.82" y="-381.81" font-family="Helvetica,sans-Serif" font-size="10.00">project&#45;board&#45;sync</text>
<text text-anchor="middle" x="217.82" y="-370.81" font-family="Helvetica,sans-Serif" font-size="10.00">(3,120 tok)</text>
</g>
<!-- skill_co_issue&#45;&gt;cmd_project_board_sync -->
<g id="edge6" class="edge">
<title>skill_co_issue&#45;&gt;cmd_project_board_sync</title>
<path fill="none" stroke="black" d="M86.08,-319.35C109.69,-330.08 141.46,-344.53 167.77,-356.5"/>
<polygon fill="black" stroke="black" points="166.64,-359.83 177.19,-360.78 169.53,-353.45 166.64,-359.83"/>
</g>
<!-- cmd_explore -->
<g id="node7" class="node">
<title>cmd_explore</title>
<polygon fill="#e3f2fd" stroke="black" points="249.32,-686.81 186.32,-686.81 186.32,-650.81 249.32,-650.81 249.32,-686.81"/>
<text text-anchor="middle" x="217.82" y="-671.81" font-family="Helvetica,sans-Serif" font-size="10.00">explore</text>
<text text-anchor="middle" x="217.82" y="-660.81" font-family="Helvetica,sans-Serif" font-size="10.00">(1,490 tok)</text>
</g>
<!-- skill_co_issue&#45;&gt;cmd_explore -->
<g id="edge1" class="edge">
<title>skill_co_issue&#45;&gt;cmd_explore</title>
<path fill="none" stroke="black" d="M53.22,-325.41C57.79,-383.16 77.59,-543.25 159.82,-639.81 164.62,-645.44 170.79,-650.11 177.29,-653.93"/>
<polygon fill="black" stroke="black" points="175.77,-657.09 186.25,-658.63 179.02,-650.89 175.77,-657.09"/>
</g>
<!-- agent_issue_critic -->
<g id="node8" class="node">
<title>agent_issue_critic</title>
<ellipse fill="#ede7f6" stroke="black" cx="415.14" cy="-378.81" rx="45.01" ry="21.43"/>
<text text-anchor="middle" x="415.14" y="-381.81" font-family="Helvetica,sans-Serif" font-size="10.00">issue&#45;critic</text>
<text text-anchor="middle" x="415.14" y="-370.81" font-family="Helvetica,sans-Serif" font-size="10.00">(1,268 tok)</text>
</g>
<!-- skill_co_issue&#45;&gt;agent_issue_critic -->
<g id="edge7" class="edge">
<title>skill_co_issue&#45;&gt;agent_issue_critic</title>
<path fill="none" stroke="black" stroke-dasharray="5,2" d="M96.95,-313C142.18,-322.25 213.85,-336.94 275.82,-349.81 304.88,-355.84 337.35,-362.64 363.53,-368.14"/>
<polygon fill="black" stroke="black" points="363.09,-371.63 373.6,-370.26 364.53,-364.78 363.09,-371.63"/>
</g>
<!-- agent_issue_feasibility -->
<g id="node9" class="node">
<title>agent_issue_feasibility</title>
<ellipse fill="#ede7f6" stroke="black" cx="415.14" cy="-314.81" rx="59.29" ry="21.43"/>
<text text-anchor="middle" x="415.14" y="-317.81" font-family="Helvetica,sans-Serif" font-size="10.00">issue&#45;feasibility</text>
<text text-anchor="middle" x="415.14" y="-306.81" font-family="Helvetica,sans-Serif" font-size="10.00">(1,175 tok)</text>
</g>
<!-- skill_co_issue&#45;&gt;agent_issue_feasibility -->
<g id="edge8" class="edge">
<title>skill_co_issue&#45;&gt;agent_issue_feasibility</title>
<path fill="none" stroke="black" stroke-dasharray="5,2" d="M102.16,-305.02C147.54,-306.15 216.16,-307.93 275.82,-309.81 298.63,-310.52 323.55,-311.4 345.87,-312.21"/>
<polygon fill="black" stroke="black" points="345.81,-315.71 355.93,-312.58 346.07,-308.72 345.81,-315.71"/>
</g>
<!-- agent_worker_codex_reviewer -->
<g id="node10" class="node">
<title>agent_worker_codex_reviewer</title>
<ellipse fill="#ede7f6" stroke="black" cx="415.14" cy="-250.81" rx="81.13" ry="21.43"/>
<text text-anchor="middle" x="415.14" y="-253.81" font-family="Helvetica,sans-Serif" font-size="10.00">worker&#45;codex&#45;reviewer</text>
<text text-anchor="middle" x="415.14" y="-242.81" font-family="Helvetica,sans-Serif" font-size="10.00">(1,421 tok)</text>
</g>
<!-- skill_co_issue&#45;&gt;agent_worker_codex_reviewer -->
<g id="edge9" class="edge">
<title>skill_co_issue&#45;&gt;agent_worker_codex_reviewer</title>
<path fill="none" stroke="black" stroke-dasharray="5,2" d="M99.27,-296.88C158.79,-288.17 261.87,-273.09 333.82,-262.56"/>
<polygon fill="black" stroke="black" points="334.37,-266.02 343.76,-261.11 333.35,-259.09 334.37,-266.02"/>
</g>
<!-- skill_ref_issue_template_bug -->
<g id="node11" class="node">
<title>skill_ref_issue_template_bug</title>
<ellipse fill="none" stroke="black" cx="638.64" cy="-250.81" rx="84.36" ry="18"/>
<text text-anchor="middle" x="638.64" y="-248.31" font-family="Helvetica,sans-Serif" font-size="10.00">skill_ref_issue_template_bug</text>
</g>
<!-- skill_co_issue&#45;&gt;skill_ref_issue_template_bug -->
<g id="edge10" class="edge">
<title>skill_co_issue&#45;&gt;skill_ref_issue_template_bug</title>
<path fill="none" stroke="black" d="M89.93,-290.14C110.52,-282.89 136.45,-274.03 159.82,-266.81 304.21,-222.18 346.27,-202 496.46,-218.81 523.24,-221.8 552.35,-227.9 577.15,-233.98"/>
<polygon fill="black" stroke="black" points="576.58,-237.45 587.13,-236.49 578.28,-230.66 576.58,-237.45"/>
</g>
<!-- skill_ref_issue_template_feature -->
<g id="node12" class="node">
<title>skill_ref_issue_template_feature</title>
<ellipse fill="none" stroke="black" cx="873.24" cy="-250.81" rx="92.34" ry="18"/>
<text text-anchor="middle" x="873.24" y="-248.31" font-family="Helvetica,sans-Serif" font-size="10.00">skill_ref_issue_template_feature</text>
</g>
<!-- skill_co_issue&#45;&gt;skill_ref_issue_template_feature -->
<g id="edge11" class="edge">
<title>skill_co_issue&#45;&gt;skill_ref_issue_template_feature</title>
<path fill="none" stroke="black" d="M72.31,-284.29C92.7,-266.06 125.85,-239.76 159.82,-226.81 386.68,-140.31 684.23,-200.48 810.89,-233.32"/>
<polygon fill="black" stroke="black" points="810.24,-236.77 820.8,-235.93 812.02,-230 810.24,-236.77"/>
</g>
<!-- skill_ref_project_model -->
<g id="node13" class="node">
<title>skill_ref_project_model</title>
<ellipse fill="none" stroke="black" cx="1091.94" cy="-250.81" rx="68.07" ry="18"/>
<text text-anchor="middle" x="1091.94" y="-248.31" font-family="Helvetica,sans-Serif" font-size="10.00">skill_ref_project_model</text>
</g>
<!-- skill_co_issue&#45;&gt;skill_ref_project_model -->
<g id="edge12" class="edge">
<title>skill_co_issue&#45;&gt;skill_ref_project_model</title>
<path fill="none" stroke="black" d="M66.55,-283.57C85.52,-258.63 120.83,-216.42 159.82,-190.81 260.54,-124.64 293.64,-96.81 414.14,-96.81 414.14,-96.81 414.14,-96.81 639.64,-96.81 801.6,-96.81 979.58,-186.74 1054.51,-229.16"/>
<polygon fill="black" stroke="black" points="1053.13,-232.4 1063.55,-234.33 1056.61,-226.32 1053.13,-232.4"/>
</g>
<!-- skill_ref_issue_quality_criteria -->
<g id="node14" class="node">
<title>skill_ref_issue_quality_criteria</title>
<ellipse fill="none" stroke="black" cx="1304.76" cy="-250.81" rx="86.57" ry="18"/>
<text text-anchor="middle" x="1304.76" y="-248.31" font-family="Helvetica,sans-Serif" font-size="10.00">skill_ref_issue_quality_criteria</text>
</g>
<!-- skill_co_issue&#45;&gt;skill_ref_issue_quality_criteria -->
<g id="edge13" class="edge">
<title>skill_co_issue&#45;&gt;skill_ref_issue_quality_criteria</title>
<path fill="none" stroke="black" d="M57.99,-282.63C70.36,-243.42 102.3,-159.53 159.82,-115.81 252.7,-45.21 297.48,-50.81 414.14,-50.81 414.14,-50.81 414.14,-50.81 874.24,-50.81 1039.1,-50.81 1209.1,-173.4 1275.13,-226.62"/>
<polygon fill="black" stroke="black" points="1273.06,-229.45 1283.03,-233.06 1277.49,-224.03 1273.06,-229.45"/>
</g>
<!-- skill_ref_glossary_criteria -->
<g id="node15" class="node">
<title>skill_ref_glossary_criteria</title>
<ellipse fill="none" stroke="black" cx="1524.05" cy="-250.81" rx="74.52" ry="18"/>
<text text-anchor="middle" x="1524.05" y="-248.31" font-family="Helvetica,sans-Serif" font-size="10.00">skill_ref_glossary_criteria</text>
</g>
<!-- skill_co_issue&#45;&gt;skill_ref_glossary_criteria -->
<g id="edge14" class="edge">
<title>skill_co_issue&#45;&gt;skill_ref_glossary_criteria</title>
<path fill="none" stroke="black" d="M54.32,-282.55C61.08,-233.43 84.92,-111.69 159.82,-51.81 249.6,19.97 299.2,-4.81 414.14,-4.81 414.14,-4.81 414.14,-4.81 1092.94,-4.81 1269.48,-4.81 1439.38,-162.9 1499.84,-225.61"/>
<polygon fill="black" stroke="black" points="1497.55,-228.29 1506.99,-233.11 1502.62,-223.46 1497.55,-228.29"/>
</g>
<!-- cmd_issue_structure&#45;&gt;cmd_issue_tech_debt_absorb -->
<!-- cmd_issue_create&#45;&gt;cmd_issue_bulk_create -->
<!-- cmd_issue_bulk_create&#45;&gt;cmd_project_board_sync -->
<!-- cmd_issue_tech_debt_absorb&#45;&gt;cmd_issue_create -->
<!-- cmd_project_board_sync&#45;&gt;agent_issue_critic -->
<!-- cmd_explore&#45;&gt;cmd_issue_structure -->
<!-- agent_issue_critic&#45;&gt;agent_issue_feasibility -->
<!-- agent_issue_critic&#45;&gt;skill_ref_issue_quality_criteria -->
<g id="edge15" class="edge">
<title>agent_issue_critic&#45;&gt;skill_ref_issue_quality_criteria</title>
<path fill="none" stroke="black" stroke-dasharray="1,5" d="M459.8,-382.93C576.6,-392.48 904.74,-409.62 1160.23,-329.81 1200.65,-317.18 1242.6,-292.52 1270.63,-274.09"/>
<polygon fill="black" stroke="black" points="1272.85,-276.82 1279.22,-268.35 1268.97,-271 1272.85,-276.82"/>
</g>
<!-- agent_issue_feasibility&#45;&gt;agent_worker_codex_reviewer -->
<!-- agent_issue_feasibility&#45;&gt;skill_ref_issue_quality_criteria -->
<g id="edge16" class="edge">
<title>agent_issue_feasibility&#45;&gt;skill_ref_issue_quality_criteria</title>
<path fill="none" stroke="black" stroke-dasharray="1,5" d="M472,-320.96C596.94,-333.21 907.85,-355.17 1160.23,-302.81 1194,-295.8 1230.53,-282.47 1258.29,-271.07"/>
<polygon fill="black" stroke="black" points="1259.85,-274.21 1267.72,-267.13 1257.15,-267.75 1259.85,-274.21"/>
</g>
<!-- agent_worker_codex_reviewer&#45;&gt;skill_ref_issue_template_bug -->
<!-- agent_worker_codex_reviewer&#45;&gt;skill_ref_issue_quality_criteria -->
<g id="edge17" class="edge">
<title>agent_worker_codex_reviewer&#45;&gt;skill_ref_issue_quality_criteria</title>
<path fill="none" stroke="black" stroke-dasharray="1,5" d="M473.6,-265.63C498.3,-271.28 527.61,-277.02 554.46,-279.81 822.25,-307.58 892.33,-306.6 1160.23,-279.81 1186.13,-277.22 1214.27,-272.06 1238.72,-266.8"/>
<polygon fill="black" stroke="black" points="1239.58,-270.2 1248.6,-264.63 1238.08,-263.36 1239.58,-270.2"/>
</g>
<!-- skill_ref_issue_template_bug&#45;&gt;skill_ref_issue_template_feature -->
<!-- skill_ref_issue_template_feature&#45;&gt;skill_ref_project_model -->
<!-- skill_ref_project_model&#45;&gt;skill_ref_issue_quality_criteria -->
<!-- skill_ref_issue_quality_criteria&#45;&gt;skill_ref_glossary_criteria -->
</g>
</svg>
