<?xml version="1.0" encoding="UTF-8" standalone="no"?>
<!DOCTYPE svg PUBLIC "-//W3C//DTD SVG 1.1//EN"
 "http://www.w3.org/Graphics/SVG/1.1/DTD/svg11.dtd">
<!-- Generated by graphviz version 2.43.0 (0)
 -->
<!-- Title: Dependencies Pages: 1 -->
<svg width="733pt" height="419pt"
 viewBox="0.00 0.00 733.18 419.41" xmlns="http://www.w3.org/2000/svg" xmlns:xlink="http://www.w3.org/1999/xlink">
<g id="graph0" class="graph" transform="scale(1 1) rotate(0) translate(4 415.41)">
<title>Dependencies</title>
<polygon fill="white" stroke="transparent" points="-4,4 -4,-415.41 729.18,-415.41 729.18,4 -4,4"/>
<text text-anchor="middle" x="362.59" y="-396.21" font-family="Helvetica,sans-Serif" font-size="14.00">co&#45;architect</text>
<!-- skill_co_architect -->
<g id="node1" class="node">
<title>skill_co_architect</title>
<ellipse fill="#c8e6c9" stroke="black" cx="60.81" cy="-167.41" rx="60.62" ry="21.43"/>
<text text-anchor="middle" x="60.81" y="-170.41" font-family="Helvetica,sans-Serif" font-size="10.00">dev:co&#45;architect</text>
<text text-anchor="middle" x="60.81" y="-159.41" font-family="Helvetica,sans-Serif" font-size="10.00">(1,276 tok)</text>
</g>
<!-- cmd_architect_completeness_check -->
<g id="node2" class="node">
<title>cmd_architect_completeness_check</title>
<polygon fill="#e3f2fd" stroke="black" points="326.62,-330.41 179.62,-330.41 179.62,-294.41 326.62,-294.41 326.62,-330.41"/>
<text text-anchor="middle" x="253.12" y="-315.41" font-family="Helvetica,sans-Serif" font-size="10.00">architect&#45;completeness&#45;check</text>
<text text-anchor="middle" x="253.12" y="-304.41" font-family="Helvetica,sans-Serif" font-size="10.00">(645 tok)</text>
</g>
<!-- skill_co_architect&#45;&gt;cmd_architect_completeness_check -->
<g id="edge2" class="edge">
<title>skill_co_architect&#45;&gt;cmd_architect_completeness_check</title>
<path fill="none" stroke="black" d="M78.19,-187.96C99.32,-213.32 138.3,-256.39 179.62,-283.41 183.13,-285.71 186.85,-287.87 190.68,-289.9"/>
<polygon fill="black" stroke="black" points="189.25,-293.1 199.76,-294.4 192.36,-286.83 189.25,-293.1"/>
</g>
<!-- cmd_architect_decompose -->
<g id="node3" class="node">
<title>cmd_architect_decompose</title>
<polygon fill="#e3f2fd" stroke="black" points="306.62,-272.41 199.62,-272.41 199.62,-236.41 306.62,-236.41 306.62,-272.41"/>
<text text-anchor="middle" x="253.12" y="-257.41" font-family="Helvetica,sans-Serif" font-size="10.00">architect&#45;decompose</text>
<text text-anchor="middle" x="253.12" y="-246.41" font-family="Helvetica,sans-Serif" font-size="10.00">(1,056 tok)</text>
</g>
<!-- skill_co_architect&#45;&gt;cmd_architect_decompose -->
<g id="edge3" class="edge">
<title>skill_co_architect&#45;&gt;cmd_architect_decompose</title>
<path fill="none" stroke="black" d="M95.51,-184.86C118.89,-196.76 150.88,-212.61 179.62,-225.41 184.94,-227.78 190.51,-230.17 196.1,-232.5"/>
<polygon fill="black" stroke="black" points="194.91,-235.8 205.49,-236.37 197.58,-229.33 194.91,-235.8"/>
</g>
<!-- cmd_architect_group_refine -->
<g id="node4" class="node">
<title>cmd_architect_group_refine</title>
<polygon fill="#e3f2fd" stroke="black" points="307.12,-214.41 199.12,-214.41 199.12,-178.41 307.12,-178.41 307.12,-214.41"/>
<text text-anchor="middle" x="253.12" y="-199.41" font-family="Helvetica,sans-Serif" font-size="10.00">architect&#45;group&#45;refine</text>
<text text-anchor="middle" x="253.12" y="-188.41" font-family="Helvetica,sans-Serif" font-size="10.00">(1,084 tok)</text>
</g>
<!-- skill_co_architect&#45;&gt;cmd_architect_group_refine -->
<g id="edge4" class="edge">
<title>skill_co_architect&#45;&gt;cmd_architect_group_refine</title>
<path fill="none" stroke="black" d="M116.86,-175.8C139.33,-179.23 165.45,-183.21 188.72,-186.75"/>
<polygon fill="black" stroke="black" points="188.43,-190.25 198.84,-188.29 189.48,-183.33 188.43,-190.25"/>
</g>
<!-- cmd_architect_issue_create -->
<g id="node5" class="node">
<title>cmd_architect_issue_create</title>
<polygon fill="#e3f2fd" stroke="black" points="308.12,-156.41 198.12,-156.41 198.12,-120.41 308.12,-120.41 308.12,-156.41"/>
<text text-anchor="middle" x="253.12" y="-141.41" font-family="Helvetica,sans-Serif" font-size="10.00">architect&#45;issue&#45;create</text>
<text text-anchor="middle" x="253.12" y="-130.41" font-family="Helvetica,sans-Serif" font-size="10.00">(2,352 tok)</text>
</g>
<!-- skill_co_architect&#45;&gt;cmd_architect_issue_create -->
<g id="edge5" class="edge">
<title>skill_co_architect&#45;&gt;cmd_architect_issue_create</title>
<path fill="none" stroke="black" d="M116.86,-159.02C139.04,-155.64 164.79,-151.72 187.83,-148.21"/>
<polygon fill="black" stroke="black" points="188.5,-151.65 197.86,-146.68 187.44,-144.73 188.5,-151.65"/>
</g>
<!-- cmd_evaluate_architecture -->
<g id="node6" class="node">
<title>cmd_evaluate_architecture</title>
<polygon fill="#e3f2fd" stroke="black" points="306.62,-98.41 199.62,-98.41 199.62,-62.41 306.62,-62.41 306.62,-98.41"/>
<text text-anchor="middle" x="253.12" y="-83.41" font-family="Helvetica,sans-Serif" font-size="10.00">evaluate&#45;architecture</text>
<text text-anchor="middle" x="253.12" y="-72.41" font-family="Helvetica,sans-Serif" font-size="10.00">(796 tok)</text>
</g>
<!-- skill_co_architect&#45;&gt;cmd_evaluate_architecture -->
<g id="edge6" class="edge">
<title>skill_co_architect&#45;&gt;cmd_evaluate_architecture</title>
<path fill="none" stroke="black" d="M95.51,-149.96C118.89,-138.07 150.88,-122.21 179.62,-109.41 184.94,-107.05 190.51,-104.66 196.1,-102.32"/>
<polygon fill="black" stroke="black" points="197.58,-105.5 205.49,-98.45 194.91,-99.03 197.58,-105.5"/>
</g>
<!-- cmd_explore -->
<g id="node7" class="node">
<title>cmd_explore</title>
<polygon fill="#e3f2fd" stroke="black" points="284.62,-388.41 221.62,-388.41 221.62,-352.41 284.62,-352.41 284.62,-388.41"/>
<text text-anchor="middle" x="253.12" y="-373.41" font-family="Helvetica,sans-Serif" font-size="10.00">explore</text>
<text text-anchor="middle" x="253.12" y="-362.41" font-family="Helvetica,sans-Serif" font-size="10.00">(1,490 tok)</text>
</g>
<!-- skill_co_architect&#45;&gt;cmd_explore -->
<g id="edge1" class="edge">
<title>skill_co_architect&#45;&gt;cmd_explore</title>
<path fill="none" stroke="black" d="M71.03,-188.61C87.71,-224.72 126.21,-298.39 179.62,-341.41 189.01,-348.98 200.63,-354.78 211.79,-359.14"/>
<polygon fill="black" stroke="black" points="210.82,-362.52 221.42,-362.61 213.2,-355.93 210.82,-362.52"/>
</g>
<!-- skill_ref_architecture_spec -->
<g id="node8" class="node">
<title>skill_ref_architecture_spec</title>
<ellipse fill="none" stroke="black" cx="462.91" cy="-80.41" rx="78.08" ry="18"/>
<text text-anchor="middle" x="462.91" y="-77.91" font-family="Helvetica,sans-Serif" font-size="10.00">skill_ref_architecture_spec</text>
</g>
<!-- skill_co_architect&#45;&gt;skill_ref_architecture_spec -->
<g id="edge7" class="edge">
<title>skill_co_architect&#45;&gt;skill_ref_architecture_spec</title>
<path fill="none" stroke="black" d="M75.11,-146.59C94.29,-118.75 132.61,-70.67 179.62,-51.41 256.55,-19.9 354.71,-42.53 412.69,-61.62"/>
<polygon fill="black" stroke="black" points="411.74,-64.99 422.34,-64.88 413.99,-58.36 411.74,-64.99"/>
</g>
<!-- skill_ref_architecture -->
<g id="node9" class="node">
<title>skill_ref_architecture</title>
<ellipse fill="none" stroke="black" cx="662.19" cy="-80.41" rx="62.97" ry="18"/>
<text text-anchor="middle" x="662.19" y="-77.91" font-family="Helvetica,sans-Serif" font-size="10.00">skill_ref_architecture</text>
</g>
<!-- skill_co_architect&#45;&gt;skill_ref_architecture -->
<g id="edge8" class="edge">
<title>skill_co_architect&#45;&gt;skill_ref_architecture</title>
<path fill="none" stroke="black" d="M72.22,-146.45C89.46,-114.4 127.31,-54.42 179.62,-30.41 328.55,37.94 529.91,-26.8 617.49,-61.57"/>
<polygon fill="black" stroke="black" points="616.27,-64.85 626.85,-65.35 618.89,-58.36 616.27,-64.85"/>
</g>
<!-- cmd_architect_completeness_check&#45;&gt;cmd_architect_decompose -->
<!-- cmd_architect_decompose&#45;&gt;cmd_architect_group_refine -->
<!-- cmd_architect_group_refine&#45;&gt;cmd_architect_issue_create -->
<!-- cmd_architect_issue_create&#45;&gt;cmd_evaluate_architecture -->
<!-- cmd_evaluate_architecture&#45;&gt;skill_ref_architecture_spec -->
<!-- cmd_explore&#45;&gt;cmd_architect_completeness_check -->
<!-- skill_ref_architecture_spec&#45;&gt;skill_ref_architecture -->
</g>
</svg>
