<?xml version="1.0" encoding="UTF-8" standalone="no"?>
<!DOCTYPE svg PUBLIC "-//W3C//DTD SVG 1.1//EN"
 "http://www.w3.org/Graphics/SVG/1.1/DTD/svg11.dtd">
<!-- Generated by graphviz version 2.43.0 (0)
 -->
<!-- Title: Dependencies Pages: 1 -->
<svg width="376pt" height="1053pt"
 viewBox="0.00 0.00 376.45 1053.00" xmlns="http://www.w3.org/2000/svg" xmlns:xlink="http://www.w3.org/1999/xlink">
<g id="graph0" class="graph" transform="scale(1 1) rotate(0) translate(4 1049)">
<title>Dependencies</title>
<polygon fill="white" stroke="transparent" points="-4,4 -4,-1049 372.45,-1049 372.45,4 -4,4"/>
<text text-anchor="middle" x="184.23" y="-1029.8" font-family="Helvetica,sans-Serif" font-size="14.00">co&#45;project</text>
<!-- skill_co_project -->
<g id="node1" class="node">
<title>skill_co_project</title>
<ellipse fill="#c8e6c9" stroke="black" cx="55.15" cy="-511" rx="55.31" ry="21.43"/>
<text text-anchor="middle" x="55.15" y="-514" font-family="Helvetica,sans-Serif" font-size="10.00">dev:co&#45;project</text>
<text text-anchor="middle" x="55.15" y="-503" font-family="Helvetica,sans-Serif" font-size="10.00">(1,309 tok)</text>
</g>
<!-- cmd_plugin_phase_diagnose -->
<g id="node2" class="node">
<title>cmd_plugin_phase_diagnose</title>
<polygon fill="#bbdefb" stroke="black" points="324.88,-1022 211.88,-1022 211.88,-986 324.88,-986 324.88,-1022"/>
<text text-anchor="middle" x="268.38" y="-1007" font-family="Helvetica,sans-Serif" font-size="10.00">plugin&#45;phase&#45;diagnose</text>
<text text-anchor="middle" x="268.38" y="-996" font-family="Helvetica,sans-Serif" font-size="10.00">(631 tok)</text>
</g>
<!-- skill_co_project&#45;&gt;cmd_plugin_phase_diagnose -->
<g id="edge17" class="edge">
<title>skill_co_project&#45;&gt;cmd_plugin_phase_diagnose</title>
<path fill="none" stroke="black" d="M58.48,-532.31C67.87,-614.44 105.47,-909.1 168.31,-975 177.42,-984.56 189.51,-991.02 202.09,-995.37"/>
<polygon fill="black" stroke="black" points="201.18,-998.75 211.76,-998.3 203.21,-992.05 201.18,-998.75"/>
</g>
<!-- cmd_plugin_phase_verify -->
<g id="node3" class="node">
<title>cmd_plugin_phase_verify</title>
<polygon fill="#bbdefb" stroke="black" points="317.38,-964 219.38,-964 219.38,-928 317.38,-928 317.38,-964"/>
<text text-anchor="middle" x="268.38" y="-949" font-family="Helvetica,sans-Serif" font-size="10.00">plugin&#45;phase&#45;verify</text>
<text text-anchor="middle" x="268.38" y="-938" font-family="Helvetica,sans-Serif" font-size="10.00">(635 tok)</text>
</g>
<!-- skill_co_project&#45;&gt;cmd_plugin_phase_verify -->
<g id="edge18" class="edge">
<title>skill_co_project&#45;&gt;cmd_plugin_phase_verify</title>
<path fill="none" stroke="black" d="M55.32,-532.59C53.97,-599.63 59.27,-806.29 168.31,-917 179.3,-928.16 194.32,-935.07 209.35,-939.35"/>
<polygon fill="black" stroke="black" points="208.64,-942.78 219.18,-941.79 210.32,-935.98 208.64,-942.78"/>
</g>
<!-- cmd_project_create -->
<g id="node4" class="node">
<title>cmd_project_create</title>
<ellipse fill="none" stroke="black" cx="268.38" cy="-888" rx="60.09" ry="18"/>
<text text-anchor="middle" x="268.38" y="-885.5" font-family="Helvetica,sans-Serif" font-size="10.00">cmd_project_create</text>
</g>
<!-- skill_co_project&#45;&gt;cmd_project_create -->
<g id="edge1" class="edge">
<title>skill_co_project&#45;&gt;cmd_project_create</title>
<path fill="none" stroke="black" d="M56.49,-532.53C58.65,-593.07 73.24,-766.47 168.31,-859 177.72,-868.16 189.87,-874.46 202.41,-878.77"/>
<polygon fill="black" stroke="black" points="201.46,-882.14 212.04,-881.7 203.5,-875.44 201.46,-882.14"/>
</g>
<!-- cmd_project_governance -->
<g id="node5" class="node">
<title>cmd_project_governance</title>
<ellipse fill="none" stroke="black" cx="268.38" cy="-830" rx="73.67" ry="18"/>
<text text-anchor="middle" x="268.38" y="-827.5" font-family="Helvetica,sans-Serif" font-size="10.00">cmd_project_governance</text>
</g>
<!-- skill_co_project&#45;&gt;cmd_project_governance -->
<g id="edge2" class="edge">
<title>skill_co_project&#45;&gt;cmd_project_governance</title>
<path fill="none" stroke="black" d="M58.08,-532.42C64.04,-585.89 87.03,-726.3 168.31,-801 175.96,-808.03 185.22,-813.36 194.98,-817.41"/>
<polygon fill="black" stroke="black" points="193.86,-820.72 204.45,-820.91 196.28,-814.16 193.86,-820.72"/>
</g>
<!-- cmd_project_migrate -->
<g id="node6" class="node">
<title>cmd_project_migrate</title>
<ellipse fill="none" stroke="black" cx="268.38" cy="-772" rx="62.97" ry="18"/>
<text text-anchor="middle" x="268.38" y="-769.5" font-family="Helvetica,sans-Serif" font-size="10.00">cmd_project_migrate</text>
</g>
<!-- skill_co_project&#45;&gt;cmd_project_migrate -->
<g id="edge3" class="edge">
<title>skill_co_project&#45;&gt;cmd_project_migrate</title>
<path fill="none" stroke="black" d="M60.33,-532.17C70.43,-577.74 100.54,-685.61 168.31,-743 177.91,-751.13 189.7,-756.99 201.76,-761.2"/>
<polygon fill="black" stroke="black" points="200.86,-764.58 211.45,-764.24 202.95,-757.9 200.86,-764.58"/>
</g>
<!-- cmd_container_dependency_check -->
<g id="node7" class="node">
<title>cmd_container_dependency_check</title>
<ellipse fill="none" stroke="black" cx="268.38" cy="-714" rx="100.15" ry="18"/>
<text text-anchor="middle" x="268.38" y="-711.5" font-family="Helvetica,sans-Serif" font-size="10.00">cmd_container_dependency_check</text>
</g>
<!-- skill_co_project&#45;&gt;cmd_container_dependency_check -->
<g id="edge4" class="edge">
<title>skill_co_project&#45;&gt;cmd_container_dependency_check</title>
<path fill="none" stroke="black" d="M64,-532.16C78.69,-568.88 113.89,-644.35 168.31,-685 174.79,-689.84 182.07,-693.88 189.66,-697.24"/>
<polygon fill="black" stroke="black" points="188.45,-700.53 199.04,-701.02 191.07,-694.04 188.45,-700.53"/>
</g>
<!-- cmd_setup_crg -->
<g id="node8" class="node">
<title>cmd_setup_crg</title>
<ellipse fill="none" stroke="black" cx="268.38" cy="-656" rx="48.72" ry="18"/>
<text text-anchor="middle" x="268.38" y="-653.5" font-family="Helvetica,sans-Serif" font-size="10.00">cmd_setup_crg</text>
</g>
<!-- skill_co_project&#45;&gt;cmd_setup_crg -->
<g id="edge5" class="edge">
<title>skill_co_project&#45;&gt;cmd_setup_crg</title>
<path fill="none" stroke="black" d="M70.8,-531.77C90.19,-557.77 126.83,-601.94 168.31,-627 182.15,-635.36 198.54,-641.43 213.97,-645.79"/>
<polygon fill="black" stroke="black" points="213.37,-649.25 223.93,-648.41 215.15,-642.48 213.37,-649.25"/>
</g>
<!-- cmd_snapshot_analyze -->
<g id="node9" class="node">
<title>cmd_snapshot_analyze</title>
<ellipse fill="none" stroke="black" cx="268.38" cy="-598" rx="70.1" ry="18"/>
<text text-anchor="middle" x="268.38" y="-595.5" font-family="Helvetica,sans-Serif" font-size="10.00">cmd_snapshot_analyze</text>
</g>
<!-- skill_co_project&#45;&gt;cmd_snapshot_analyze -->
<g id="edge6" class="edge">
<title>skill_co_project&#45;&gt;cmd_snapshot_analyze</title>
<path fill="none" stroke="black" d="M86.35,-528.64C108.51,-541.08 139.62,-557.51 168.31,-569 180.9,-574.05 194.71,-578.64 207.92,-582.62"/>
<polygon fill="black" stroke="black" points="207.29,-586.08 217.87,-585.53 209.25,-579.36 207.29,-586.08"/>
</g>
<!-- cmd_snapshot_classify -->
<g id="node10" class="node">
<title>cmd_snapshot_classify</title>
<ellipse fill="none" stroke="black" cx="268.38" cy="-540" rx="70.1" ry="18"/>
<text text-anchor="middle" x="268.38" y="-537.5" font-family="Helvetica,sans-Serif" font-size="10.00">cmd_snapshot_classify</text>
</g>
<!-- skill_co_project&#45;&gt;cmd_snapshot_classify -->
<g id="edge7" class="edge">
<title>skill_co_project&#45;&gt;cmd_snapshot_classify</title>
<path fill="none" stroke="black" d="M107.29,-518.02C133.94,-521.68 166.96,-526.21 196.08,-530.21"/>
<polygon fill="black" stroke="black" points="195.81,-533.71 206.2,-531.6 196.77,-526.77 195.81,-533.71"/>
</g>
<!-- cmd_snapshot_generate -->
<g id="node11" class="node">
<title>cmd_snapshot_generate</title>
<ellipse fill="none" stroke="black" cx="268.38" cy="-482" rx="72.31" ry="18"/>
<text text-anchor="middle" x="268.38" y="-479.5" font-family="Helvetica,sans-Serif" font-size="10.00">cmd_snapshot_generate</text>
</g>
<!-- skill_co_project&#45;&gt;cmd_snapshot_generate -->
<g id="edge8" class="edge">
<title>skill_co_project&#45;&gt;cmd_snapshot_generate</title>
<path fill="none" stroke="black" d="M107.29,-503.98C133.5,-500.38 165.88,-495.94 194.64,-491.99"/>
<polygon fill="black" stroke="black" points="195.22,-495.44 204.65,-490.61 194.27,-488.51 195.22,-495.44"/>
</g>
<!-- cmd_plugin_interview -->
<g id="node12" class="node">
<title>cmd_plugin_interview</title>
<ellipse fill="none" stroke="black" cx="268.38" cy="-424" rx="64.51" ry="18"/>
<text text-anchor="middle" x="268.38" y="-421.5" font-family="Helvetica,sans-Serif" font-size="10.00">cmd_plugin_interview</text>
</g>
<!-- skill_co_project&#45;&gt;cmd_plugin_interview -->
<g id="edge9" class="edge">
<title>skill_co_project&#45;&gt;cmd_plugin_interview</title>
<path fill="none" stroke="black" d="M86.35,-493.36C108.51,-480.92 139.62,-464.49 168.31,-453 181.5,-447.72 196.01,-442.93 209.77,-438.83"/>
<polygon fill="black" stroke="black" points="211,-442.12 219.63,-435.97 209.05,-435.39 211,-442.12"/>
</g>
<!-- cmd_plugin_research -->
<g id="node13" class="node">
<title>cmd_plugin_research</title>
<ellipse fill="none" stroke="black" cx="268.38" cy="-366" rx="64.33" ry="18"/>
<text text-anchor="middle" x="268.38" y="-363.5" font-family="Helvetica,sans-Serif" font-size="10.00">cmd_plugin_research</text>
</g>
<!-- skill_co_project&#45;&gt;cmd_plugin_research -->
<g id="edge10" class="edge">
<title>skill_co_project&#45;&gt;cmd_plugin_research</title>
<path fill="none" stroke="black" d="M70.8,-490.23C90.19,-464.23 126.83,-420.06 168.31,-395 179.55,-388.21 192.48,-382.92 205.21,-378.85"/>
<polygon fill="black" stroke="black" points="206.29,-382.18 214.87,-375.96 204.29,-375.47 206.29,-382.18"/>
</g>
<!-- cmd_plugin_design -->
<g id="node14" class="node">
<title>cmd_plugin_design</title>
<ellipse fill="none" stroke="black" cx="268.38" cy="-308" rx="58.73" ry="18"/>
<text text-anchor="middle" x="268.38" y="-305.5" font-family="Helvetica,sans-Serif" font-size="10.00">cmd_plugin_design</text>
</g>
<!-- skill_co_project&#45;&gt;cmd_plugin_design -->
<g id="edge11" class="edge">
<title>skill_co_project&#45;&gt;cmd_plugin_design</title>
<path fill="none" stroke="black" d="M64,-489.84C78.69,-453.12 113.89,-377.65 168.31,-337 179.18,-328.88 192.28,-323.03 205.35,-318.81"/>
<polygon fill="black" stroke="black" points="206.69,-322.07 215.3,-315.89 204.72,-315.35 206.69,-322.07"/>
</g>
<!-- cmd_plugin_generate -->
<g id="node15" class="node">
<title>cmd_plugin_generate</title>
<ellipse fill="none" stroke="black" cx="268.38" cy="-250" rx="64.33" ry="18"/>
<text text-anchor="middle" x="268.38" y="-247.5" font-family="Helvetica,sans-Serif" font-size="10.00">cmd_plugin_generate</text>
</g>
<!-- skill_co_project&#45;&gt;cmd_plugin_generate -->
<g id="edge12" class="edge">
<title>skill_co_project&#45;&gt;cmd_plugin_generate</title>
<path fill="none" stroke="black" d="M60.33,-489.83C70.43,-444.26 100.54,-336.39 168.31,-279 177.66,-271.08 189.08,-265.33 200.8,-261.14"/>
<polygon fill="black" stroke="black" points="202.22,-264.36 210.67,-257.98 200.08,-257.69 202.22,-264.36"/>
</g>
<!-- cmd_plugin_migrate_analyze -->
<g id="node16" class="node">
<title>cmd_plugin_migrate_analyze</title>
<ellipse fill="none" stroke="black" cx="268.38" cy="-192" rx="84.36" ry="18"/>
<text text-anchor="middle" x="268.38" y="-189.5" font-family="Helvetica,sans-Serif" font-size="10.00">cmd_plugin_migrate_analyze</text>
</g>
<!-- skill_co_project&#45;&gt;cmd_plugin_migrate_analyze -->
<g id="edge13" class="edge">
<title>skill_co_project&#45;&gt;cmd_plugin_migrate_analyze</title>
<path fill="none" stroke="black" d="M58.08,-489.58C64.04,-436.11 87.03,-295.7 168.31,-221 174.83,-215.01 182.52,-210.25 190.69,-206.47"/>
<polygon fill="black" stroke="black" points="192.17,-209.65 200.08,-202.61 189.5,-203.17 192.17,-209.65"/>
</g>
<!-- cmd_plugin_diagnose -->
<g id="node17" class="node">
<title>cmd_plugin_diagnose</title>
<ellipse fill="none" stroke="black" cx="268.38" cy="-134" rx="64.51" ry="18"/>
<text text-anchor="middle" x="268.38" y="-131.5" font-family="Helvetica,sans-Serif" font-size="10.00">cmd_plugin_diagnose</text>
</g>
<!-- skill_co_project&#45;&gt;cmd_plugin_diagnose -->
<g id="edge14" class="edge">
<title>skill_co_project&#45;&gt;cmd_plugin_diagnose</title>
<path fill="none" stroke="black" d="M56.49,-489.47C58.65,-428.93 73.24,-255.53 168.31,-163 176.94,-154.6 187.86,-148.61 199.28,-144.35"/>
<polygon fill="black" stroke="black" points="200.55,-147.62 208.95,-141.16 198.36,-140.97 200.55,-147.62"/>
</g>
<!-- cmd_plugin_fix -->
<g id="node18" class="node">
<title>cmd_plugin_fix</title>
<ellipse fill="none" stroke="black" cx="268.38" cy="-76" rx="48.04" ry="18"/>
<text text-anchor="middle" x="268.38" y="-73.5" font-family="Helvetica,sans-Serif" font-size="10.00">cmd_plugin_fix</text>
</g>
<!-- skill_co_project&#45;&gt;cmd_plugin_fix -->
<g id="edge15" class="edge">
<title>skill_co_project&#45;&gt;cmd_plugin_fix</title>
<path fill="none" stroke="black" d="M55.32,-489.41C53.97,-422.37 59.27,-215.71 168.31,-105 179.66,-93.48 195.31,-86.48 210.83,-82.24"/>
<polygon fill="black" stroke="black" points="212.04,-85.55 220.96,-79.83 210.42,-78.74 212.04,-85.55"/>
</g>
<!-- cmd_plugin_verify -->
<g id="node19" class="node">
<title>cmd_plugin_verify</title>
<ellipse fill="none" stroke="black" cx="268.38" cy="-18" rx="55.85" ry="18"/>
<text text-anchor="middle" x="268.38" y="-15.5" font-family="Helvetica,sans-Serif" font-size="10.00">cmd_plugin_verify</text>
</g>
<!-- skill_co_project&#45;&gt;cmd_plugin_verify -->
<g id="edge16" class="edge">
<title>skill_co_project&#45;&gt;cmd_plugin_verify</title>
<path fill="none" stroke="black" d="M58.48,-489.69C67.87,-407.56 105.47,-112.9 168.31,-47 178.06,-36.77 191.21,-30.09 204.73,-25.75"/>
<polygon fill="black" stroke="black" points="205.92,-29.05 214.6,-22.98 204.03,-22.31 205.92,-29.05"/>
</g>
<!-- cmd_plugin_phase_diagnose&#45;&gt;cmd_plugin_phase_verify -->
</g>
</svg>
