<?xml version="1.0" encoding="UTF-8" standalone="no"?>
<!DOCTYPE svg PUBLIC "-//W3C//DTD SVG 1.1//EN"
 "http://www.w3.org/Graphics/SVG/1.1/DTD/svg11.dtd">
<!-- Generated by graphviz version 2.43.0 (0)
 -->
<!-- Title: Dependencies Pages: 1 -->
<svg width="961pt" height="1221pt"
 viewBox="0.00 0.00 961.20 1221.26" xmlns="http://www.w3.org/2000/svg" xmlns:xlink="http://www.w3.org/1999/xlink">
<g id="graph0" class="graph" transform="scale(1 1) rotate(0) translate(4 1217.26)">
<title>Dependencies</title>
<polygon fill="white" stroke="transparent" points="-4,4 -4,-1217.26 957.2,-1217.26 957.2,4 -4,4"/>
<text text-anchor="middle" x="476.6" y="-1198.06" font-family="Helvetica,sans-Serif" font-size="14.00">co&#45;project</text>
<!-- skill_co_project -->
<g id="node1" class="node">
<title>skill_co_project</title>
<ellipse fill="#c8e6c9" stroke="black" cx="55.15" cy="-585.77" rx="55.31" ry="21.43"/>
<text text-anchor="middle" x="55.15" y="-588.77" font-family="Helvetica,sans-Serif" font-size="10.00">dev:co&#45;project</text>
<text text-anchor="middle" x="55.15" y="-577.77" font-family="Helvetica,sans-Serif" font-size="10.00">(1,309 tok)</text>
</g>
<!-- cmd_project_create -->
<g id="node2" class="node">
<title>cmd_project_create</title>
<polygon fill="#e3f2fd" stroke="black" points="276.81,-1183.77 200.81,-1183.77 200.81,-1147.77 276.81,-1147.77 276.81,-1183.77"/>
<text text-anchor="middle" x="238.81" y="-1168.77" font-family="Helvetica,sans-Serif" font-size="10.00">project&#45;create</text>
<text text-anchor="middle" x="238.81" y="-1157.77" font-family="Helvetica,sans-Serif" font-size="10.00">(453 tok)</text>
</g>
<!-- skill_co_project&#45;&gt;cmd_project_create -->
<g id="edge1" class="edge">
<title>skill_co_project&#45;&gt;cmd_project_create</title>
<path fill="none" stroke="black" d="M57.84,-606.99C65.46,-697.79 99.26,-1052.79 168.31,-1136.77 174.35,-1144.11 182.56,-1149.62 191.23,-1153.75"/>
<polygon fill="black" stroke="black" points="190.15,-1157.09 200.73,-1157.71 192.84,-1150.63 190.15,-1157.09"/>
</g>
<!-- cmd_project_governance -->
<g id="node3" class="node">
<title>cmd_project_governance</title>
<polygon fill="#e3f2fd" stroke="black" points="288.31,-1125.77 189.31,-1125.77 189.31,-1089.77 288.31,-1089.77 288.31,-1125.77"/>
<text text-anchor="middle" x="238.81" y="-1110.77" font-family="Helvetica,sans-Serif" font-size="10.00">project&#45;governance</text>
<text text-anchor="middle" x="238.81" y="-1099.77" font-family="Helvetica,sans-Serif" font-size="10.00">(974 tok)</text>
</g>
<!-- skill_co_project&#45;&gt;cmd_project_governance -->
<g id="edge2" class="edge">
<title>skill_co_project&#45;&gt;cmd_project_governance</title>
<path fill="none" stroke="black" d="M58.4,-607.02C67.73,-691.77 105.92,-1004.64 168.31,-1078.77 171.69,-1082.79 175.73,-1086.27 180.13,-1089.27"/>
<polygon fill="black" stroke="black" points="178.57,-1092.41 188.97,-1094.47 182.13,-1086.38 178.57,-1092.41"/>
</g>
<!-- cmd_project_migrate -->
<g id="node4" class="node">
<title>cmd_project_migrate</title>
<polygon fill="#e3f2fd" stroke="black" points="279.31,-1067.77 198.31,-1067.77 198.31,-1031.77 279.31,-1031.77 279.31,-1067.77"/>
<text text-anchor="middle" x="238.81" y="-1052.77" font-family="Helvetica,sans-Serif" font-size="10.00">project&#45;migrate</text>
<text text-anchor="middle" x="238.81" y="-1041.77" font-family="Helvetica,sans-Serif" font-size="10.00">(475 tok)</text>
</g>
<!-- skill_co_project&#45;&gt;cmd_project_migrate -->
<g id="edge3" class="edge">
<title>skill_co_project&#45;&gt;cmd_project_migrate</title>
<path fill="none" stroke="black" d="M55.39,-607.35C54.1,-676.43 59.28,-894.92 168.31,-1020.77 173.91,-1027.23 181.18,-1032.28 188.91,-1036.23"/>
<polygon fill="black" stroke="black" points="187.56,-1039.46 198.12,-1040.36 190.43,-1033.07 187.56,-1039.46"/>
</g>
<!-- cmd_container_dependency_check -->
<g id="node5" class="node">
<title>cmd_container_dependency_check</title>
<polygon fill="#e3f2fd" stroke="black" points="309.31,-1009.77 168.31,-1009.77 168.31,-973.77 309.31,-973.77 309.31,-1009.77"/>
<text text-anchor="middle" x="238.81" y="-994.77" font-family="Helvetica,sans-Serif" font-size="10.00">container&#45;dependency&#45;check</text>
<text text-anchor="middle" x="238.81" y="-983.77" font-family="Helvetica,sans-Serif" font-size="10.00">(493 tok)</text>
</g>
<!-- skill_co_project&#45;&gt;cmd_container_dependency_check -->
<g id="edge4" class="edge">
<title>skill_co_project&#45;&gt;cmd_container_dependency_check</title>
<path fill="none" stroke="black" d="M56.42,-607.13C58.32,-669.87 72.2,-855.88 168.31,-962.77 169.84,-964.47 171.48,-966.07 173.21,-967.58"/>
<polygon fill="black" stroke="black" points="171.23,-970.46 181.34,-973.63 175.41,-964.85 171.23,-970.46"/>
</g>
<!-- cmd_setup_crg -->
<g id="node6" class="node">
<title>cmd_setup_crg</title>
<polygon fill="#e3f2fd" stroke="black" points="267.31,-951.77 210.31,-951.77 210.31,-915.77 267.31,-915.77 267.31,-951.77"/>
<text text-anchor="middle" x="238.81" y="-936.77" font-family="Helvetica,sans-Serif" font-size="10.00">setup&#45;crg</text>
<text text-anchor="middle" x="238.81" y="-925.77" font-family="Helvetica,sans-Serif" font-size="10.00">(754 tok)</text>
</g>
<!-- skill_co_project&#45;&gt;cmd_setup_crg -->
<g id="edge5" class="edge">
<title>skill_co_project&#45;&gt;cmd_setup_crg</title>
<path fill="none" stroke="black" d="M57.78,-607.05C63.15,-663.12 85.08,-816.63 168.31,-904.77 177,-913.98 189.07,-920.37 200.71,-924.76"/>
<polygon fill="black" stroke="black" points="199.71,-928.11 210.31,-927.99 201.95,-921.48 199.71,-928.11"/>
</g>
<!-- cmd_snapshot_analyze -->
<g id="node7" class="node">
<title>cmd_snapshot_analyze</title>
<polygon fill="#e3f2fd" stroke="black" points="285.31,-893.77 192.31,-893.77 192.31,-857.77 285.31,-857.77 285.31,-893.77"/>
<text text-anchor="middle" x="238.81" y="-878.77" font-family="Helvetica,sans-Serif" font-size="10.00">snapshot&#45;analyze</text>
<text text-anchor="middle" x="238.81" y="-867.77" font-family="Helvetica,sans-Serif" font-size="10.00">(600 tok)</text>
</g>
<!-- skill_co_project&#45;&gt;cmd_snapshot_analyze -->
<g id="edge6" class="edge">
<title>skill_co_project&#45;&gt;cmd_snapshot_analyze</title>
<path fill="none" stroke="black" d="M59.7,-607.08C68.89,-655.91 97.84,-777.04 168.31,-846.77 172.6,-851.01 177.59,-854.66 182.91,-857.81"/>
<polygon fill="black" stroke="black" points="181.6,-861.07 192.08,-862.62 184.85,-854.87 181.6,-861.07"/>
</g>
<!-- cmd_snapshot_classify -->
<g id="node8" class="node">
<title>cmd_snapshot_classify</title>
<polygon fill="#e3f2fd" stroke="black" points="285.31,-835.77 192.31,-835.77 192.31,-799.77 285.31,-799.77 285.31,-835.77"/>
<text text-anchor="middle" x="238.81" y="-820.77" font-family="Helvetica,sans-Serif" font-size="10.00">snapshot&#45;classify</text>
<text text-anchor="middle" x="238.81" y="-809.77" font-family="Helvetica,sans-Serif" font-size="10.00">(870 tok)</text>
</g>
<!-- skill_co_project&#45;&gt;cmd_snapshot_classify -->
<g id="edge7" class="edge">
<title>skill_co_project&#45;&gt;cmd_snapshot_classify</title>
<path fill="none" stroke="black" d="M62.57,-606.86C75.9,-647.4 110.29,-736.77 168.31,-788.77 172.74,-792.74 177.79,-796.21 183.1,-799.24"/>
<polygon fill="black" stroke="black" points="181.72,-802.47 192.21,-803.93 184.92,-796.24 181.72,-802.47"/>
</g>
<!-- cmd_snapshot_generate -->
<g id="node9" class="node">
<title>cmd_snapshot_generate</title>
<polygon fill="#e3f2fd" stroke="black" points="287.31,-777.77 190.31,-777.77 190.31,-741.77 287.31,-741.77 287.31,-777.77"/>
<text text-anchor="middle" x="238.81" y="-762.77" font-family="Helvetica,sans-Serif" font-size="10.00">snapshot&#45;generate</text>
<text text-anchor="middle" x="238.81" y="-751.77" font-family="Helvetica,sans-Serif" font-size="10.00">(735 tok)</text>
</g>
<!-- skill_co_project&#45;&gt;cmd_snapshot_generate -->
<g id="edge8" class="edge">
<title>skill_co_project&#45;&gt;cmd_snapshot_generate</title>
<path fill="none" stroke="black" d="M67.47,-606.53C85.25,-637.43 122.46,-695.63 168.31,-730.77 172.19,-733.74 176.42,-736.47 180.82,-738.95"/>
<polygon fill="black" stroke="black" points="179.52,-742.22 190.01,-743.72 182.74,-736.01 179.52,-742.22"/>
</g>
<!-- cmd_plugin_interview -->
<g id="node10" class="node">
<title>cmd_plugin_interview</title>
<polygon fill="#e3f2fd" stroke="black" points="280.81,-719.77 196.81,-719.77 196.81,-683.77 280.81,-683.77 280.81,-719.77"/>
<text text-anchor="middle" x="238.81" y="-704.77" font-family="Helvetica,sans-Serif" font-size="10.00">plugin&#45;interview</text>
<text text-anchor="middle" x="238.81" y="-693.77" font-family="Helvetica,sans-Serif" font-size="10.00">(1,086 tok)</text>
</g>
<!-- skill_co_project&#45;&gt;cmd_plugin_interview -->
<g id="edge9" class="edge">
<title>skill_co_project&#45;&gt;cmd_plugin_interview</title>
<path fill="none" stroke="black" d="M77.68,-605.28C99.39,-624.26 134.45,-653.04 168.31,-672.77 174.23,-676.22 180.64,-679.47 187.09,-682.46"/>
<polygon fill="black" stroke="black" points="185.95,-685.79 196.51,-686.65 188.8,-679.39 185.95,-685.79"/>
</g>
<!-- cmd_plugin_research -->
<g id="node11" class="node">
<title>cmd_plugin_research</title>
<polygon fill="#e3f2fd" stroke="black" points="280.31,-661.77 197.31,-661.77 197.31,-625.77 280.31,-625.77 280.31,-661.77"/>
<text text-anchor="middle" x="238.81" y="-646.77" font-family="Helvetica,sans-Serif" font-size="10.00">plugin&#45;research</text>
<text text-anchor="middle" x="238.81" y="-635.77" font-family="Helvetica,sans-Serif" font-size="10.00">(643 tok)</text>
</g>
<!-- skill_co_project&#45;&gt;cmd_plugin_research -->
<g id="edge10" class="edge">
<title>skill_co_project&#45;&gt;cmd_plugin_research</title>
<path fill="none" stroke="black" d="M98.29,-599.22C124.91,-607.72 159.47,-618.75 187.52,-627.71"/>
<polygon fill="black" stroke="black" points="186.56,-631.08 197.15,-630.79 188.69,-624.41 186.56,-631.08"/>
</g>
<!-- cmd_plugin_design -->
<g id="node12" class="node">
<title>cmd_plugin_design</title>
<polygon fill="#e3f2fd" stroke="black" points="275.81,-603.77 201.81,-603.77 201.81,-567.77 275.81,-567.77 275.81,-603.77"/>
<text text-anchor="middle" x="238.81" y="-588.77" font-family="Helvetica,sans-Serif" font-size="10.00">plugin&#45;design</text>
<text text-anchor="middle" x="238.81" y="-577.77" font-family="Helvetica,sans-Serif" font-size="10.00">(1,192 tok)</text>
</g>
<!-- skill_co_project&#45;&gt;cmd_plugin_design -->
<g id="edge11" class="edge">
<title>skill_co_project&#45;&gt;cmd_plugin_design</title>
<path fill="none" stroke="black" d="M110.66,-585.77C136.44,-585.77 166.91,-585.77 191.55,-585.77"/>
<polygon fill="black" stroke="black" points="191.73,-589.27 201.73,-585.77 191.73,-582.27 191.73,-589.27"/>
</g>
<!-- cmd_plugin_generate -->
<g id="node13" class="node">
<title>cmd_plugin_generate</title>
<polygon fill="#e3f2fd" stroke="black" points="280.31,-545.77 197.31,-545.77 197.31,-509.77 280.31,-509.77 280.31,-545.77"/>
<text text-anchor="middle" x="238.81" y="-530.77" font-family="Helvetica,sans-Serif" font-size="10.00">plugin&#45;generate</text>
<text text-anchor="middle" x="238.81" y="-519.77" font-family="Helvetica,sans-Serif" font-size="10.00">(2,083 tok)</text>
</g>
<!-- skill_co_project&#45;&gt;cmd_plugin_generate -->
<g id="edge12" class="edge">
<title>skill_co_project&#45;&gt;cmd_plugin_generate</title>
<path fill="none" stroke="black" d="M98.29,-572.32C124.91,-563.81 159.47,-552.78 187.52,-543.82"/>
<polygon fill="black" stroke="black" points="188.69,-547.12 197.15,-540.75 186.56,-540.46 188.69,-547.12"/>
</g>
<!-- cmd_plugin_migrate_analyze -->
<g id="node14" class="node">
<title>cmd_plugin_migrate_analyze</title>
<polygon fill="#e3f2fd" stroke="black" points="295.81,-487.77 181.81,-487.77 181.81,-451.77 295.81,-451.77 295.81,-487.77"/>
<text text-anchor="middle" x="238.81" y="-472.77" font-family="Helvetica,sans-Serif" font-size="10.00">plugin&#45;migrate&#45;analyze</text>
<text text-anchor="middle" x="238.81" y="-461.77" font-family="Helvetica,sans-Serif" font-size="10.00">(458 tok)</text>
</g>
<!-- skill_co_project&#45;&gt;cmd_plugin_migrate_analyze -->
<g id="edge13" class="edge">
<title>skill_co_project&#45;&gt;cmd_plugin_migrate_analyze</title>
<path fill="none" stroke="black" d="M77.68,-566.26C99.39,-547.28 134.45,-518.49 168.31,-498.77 172.23,-496.48 176.36,-494.29 180.58,-492.2"/>
<polygon fill="black" stroke="black" points="182.35,-495.23 189.89,-487.79 179.36,-488.9 182.35,-495.23"/>
</g>
<!-- cmd_plugin_diagnose -->
<g id="node15" class="node">
<title>cmd_plugin_diagnose</title>
<polygon fill="#e3f2fd" stroke="black" points="280.81,-429.77 196.81,-429.77 196.81,-393.77 280.81,-393.77 280.81,-429.77"/>
<text text-anchor="middle" x="238.81" y="-414.77" font-family="Helvetica,sans-Serif" font-size="10.00">plugin&#45;diagnose</text>
<text text-anchor="middle" x="238.81" y="-403.77" font-family="Helvetica,sans-Serif" font-size="10.00">(945 tok)</text>
</g>
<!-- skill_co_project&#45;&gt;cmd_plugin_diagnose -->
<g id="edge14" class="edge">
<title>skill_co_project&#45;&gt;cmd_plugin_diagnose</title>
<path fill="none" stroke="black" d="M67.47,-565C85.25,-534.1 122.46,-475.9 168.31,-440.77 174.09,-436.34 180.64,-432.46 187.36,-429.11"/>
<polygon fill="black" stroke="black" points="188.95,-432.23 196.56,-424.86 186.02,-425.88 188.95,-432.23"/>
</g>
<!-- cmd_plugin_fix -->
<g id="node16" class="node">
<title>cmd_plugin_fix</title>
<polygon fill="#e3f2fd" stroke="black" points="270.31,-371.77 207.31,-371.77 207.31,-335.77 270.31,-335.77 270.31,-371.77"/>
<text text-anchor="middle" x="238.81" y="-356.77" font-family="Helvetica,sans-Serif" font-size="10.00">plugin&#45;fix</text>
<text text-anchor="middle" x="238.81" y="-345.77" font-family="Helvetica,sans-Serif" font-size="10.00">(1,074 tok)</text>
</g>
<!-- skill_co_project&#45;&gt;cmd_plugin_fix -->
<g id="edge15" class="edge">
<title>skill_co_project&#45;&gt;cmd_plugin_fix</title>
<path fill="none" stroke="black" d="M62.57,-564.67C75.9,-524.13 110.29,-434.76 168.31,-382.77 176.73,-375.22 187.4,-369.46 197.83,-365.14"/>
<polygon fill="black" stroke="black" points="199.16,-368.38 207.28,-361.58 196.69,-361.84 199.16,-368.38"/>
</g>
<!-- cmd_plugin_verify -->
<g id="node17" class="node">
<title>cmd_plugin_verify</title>
<polygon fill="#e3f2fd" stroke="black" points="273.31,-313.77 204.31,-313.77 204.31,-277.77 273.31,-277.77 273.31,-313.77"/>
<text text-anchor="middle" x="238.81" y="-298.77" font-family="Helvetica,sans-Serif" font-size="10.00">plugin&#45;verify</text>
<text text-anchor="middle" x="238.81" y="-287.77" font-family="Helvetica,sans-Serif" font-size="10.00">(518 tok)</text>
</g>
<!-- skill_co_project&#45;&gt;cmd_plugin_verify -->
<g id="edge16" class="edge">
<title>skill_co_project&#45;&gt;cmd_plugin_verify</title>
<path fill="none" stroke="black" d="M59.7,-564.46C68.89,-515.63 97.84,-394.49 168.31,-324.77 175.63,-317.53 185.02,-312 194.52,-307.81"/>
<polygon fill="black" stroke="black" points="195.97,-311 203.98,-304.06 193.39,-304.49 195.97,-311"/>
</g>
<!-- cmd_plugin_phase_diagnose -->
<g id="node18" class="node">
<title>cmd_plugin_phase_diagnose</title>
<polygon fill="#bbdefb" stroke="black" points="295.31,-255.77 182.31,-255.77 182.31,-219.77 295.31,-219.77 295.31,-255.77"/>
<text text-anchor="middle" x="238.81" y="-240.77" font-family="Helvetica,sans-Serif" font-size="10.00">plugin&#45;phase&#45;diagnose</text>
<text text-anchor="middle" x="238.81" y="-229.77" font-family="Helvetica,sans-Serif" font-size="10.00">(631 tok)</text>
</g>
<!-- skill_co_project&#45;&gt;cmd_plugin_phase_diagnose -->
<g id="edge17" class="edge">
<title>skill_co_project&#45;&gt;cmd_plugin_phase_diagnose</title>
<path fill="none" stroke="black" d="M57.78,-564.49C63.15,-508.42 85.08,-354.9 168.31,-266.77 170.08,-264.9 171.98,-263.14 174,-261.5"/>
<polygon fill="black" stroke="black" points="176.08,-264.31 182.23,-255.68 172.04,-258.59 176.08,-264.31"/>
</g>
<!-- cmd_plugin_phase_verify -->
<g id="node19" class="node">
<title>cmd_plugin_phase_verify</title>
<polygon fill="#bbdefb" stroke="black" points="287.81,-197.77 189.81,-197.77 189.81,-161.77 287.81,-161.77 287.81,-197.77"/>
<text text-anchor="middle" x="238.81" y="-182.77" font-family="Helvetica,sans-Serif" font-size="10.00">plugin&#45;phase&#45;verify</text>
<text text-anchor="middle" x="238.81" y="-171.77" font-family="Helvetica,sans-Serif" font-size="10.00">(635 tok)</text>
</g>
<!-- skill_co_project&#45;&gt;cmd_plugin_phase_verify -->
<g id="edge18" class="edge">
<title>skill_co_project&#45;&gt;cmd_plugin_phase_verify</title>
<path fill="none" stroke="black" d="M56.42,-564.4C58.32,-501.66 72.2,-315.66 168.31,-208.77 171.97,-204.7 176.29,-201.18 180.96,-198.15"/>
<polygon fill="black" stroke="black" points="182.71,-201.18 189.68,-193.2 179.25,-195.09 182.71,-201.18"/>
</g>
<!-- skill_ref_types -->
<g id="node25" class="node">
<title>skill_ref_types</title>
<ellipse fill="none" stroke="black" cx="438.02" cy="-133.77" rx="47.19" ry="18"/>
<text text-anchor="middle" x="438.02" y="-131.27" font-family="Helvetica,sans-Serif" font-size="10.00">skill_ref_types</text>
</g>
<!-- skill_co_project&#45;&gt;skill_ref_types -->
<g id="edge19" class="edge">
<title>skill_co_project&#45;&gt;skill_ref_types</title>
<path fill="none" stroke="black" d="M58.38,-564.54C67.21,-484.84 102.49,-205.18 168.31,-150.77 230.29,-99.52 330.33,-109.48 389.28,-121.52"/>
<polygon fill="black" stroke="black" points="388.57,-124.95 399.08,-123.62 390.03,-118.1 388.57,-124.95"/>
</g>
<!-- skill_ref_practices -->
<g id="node26" class="node">
<title>skill_ref_practices</title>
<ellipse fill="none" stroke="black" cx="666.21" cy="-133.77" rx="55.85" ry="18"/>
<text text-anchor="middle" x="666.21" y="-131.27" font-family="Helvetica,sans-Serif" font-size="10.00">skill_ref_practices</text>
</g>
<!-- skill_co_project&#45;&gt;skill_ref_practices -->
<g id="edge20" class="edge">
<title>skill_co_project&#45;&gt;skill_ref_practices</title>
<path fill="none" stroke="black" d="M57.76,-564.38C64.65,-479.17 94.74,-165.71 168.31,-106.77 234.82,-53.48 493.95,-98.37 609.3,-121.75"/>
<polygon fill="black" stroke="black" points="608.84,-125.23 619.34,-123.81 610.25,-118.37 608.84,-125.23"/>
</g>
<!-- skill_ref_deps_format -->
<g id="node27" class="node">
<title>skill_ref_deps_format</title>
<ellipse fill="none" stroke="black" cx="888.45" cy="-133.77" rx="64.51" ry="18"/>
<text text-anchor="middle" x="888.45" y="-131.27" font-family="Helvetica,sans-Serif" font-size="10.00">skill_ref_deps_format</text>
</g>
<!-- skill_co_project&#45;&gt;skill_ref_deps_format -->
<g id="edge21" class="edge">
<title>skill_co_project&#45;&gt;skill_ref_deps_format</title>
<path fill="none" stroke="black" d="M57.42,-564.55C63.17,-476.26 90.02,-139.69 168.31,-76.77 374.09,88.61 728.56,-57 847.34,-113.59"/>
<polygon fill="black" stroke="black" points="845.94,-116.8 856.47,-117.98 848.98,-110.49 845.94,-116.8"/>
</g>
<!-- cmd_project_create&#45;&gt;cmd_project_governance -->
<!-- script_project_create -->
<g id="node23" class="node">
<title>script_project_create</title>
<polygon fill="#ff9800" stroke="black" points="500.13,-1165.77 469.07,-1190.26 406.97,-1190.26 375.91,-1165.77 406.97,-1141.28 469.07,-1141.28 500.13,-1165.77"/>
<text text-anchor="middle" x="438.02" y="-1168.77" font-family="Helvetica,sans-Serif" font-size="10.00">project&#45;create</text>
<text text-anchor="middle" x="438.02" y="-1157.77" font-family="Helvetica,sans-Serif" font-size="10.00">(4,494 tok)</text>
</g>
<!-- cmd_project_create&#45;&gt;script_project_create -->
<g id="edge22" class="edge">
<title>cmd_project_create&#45;&gt;script_project_create</title>
<path fill="none" stroke="black" d="M276.9,-1165.77C301.86,-1165.77 335.58,-1165.77 365.64,-1165.77"/>
<polygon fill="black" stroke="black" points="365.67,-1169.27 375.67,-1165.77 365.67,-1162.27 365.67,-1169.27"/>
</g>
<!-- cmd_project_governance&#45;&gt;cmd_project_migrate -->
<!-- cmd_project_migrate&#45;&gt;cmd_container_dependency_check -->
<!-- script_project_migrate -->
<g id="node24" class="node">
<title>script_project_migrate</title>
<polygon fill="#ff9800" stroke="black" points="504.29,-1049.77 471.16,-1074.26 404.88,-1074.26 371.75,-1049.77 404.88,-1025.28 471.16,-1025.28 504.29,-1049.77"/>
<text text-anchor="middle" x="438.02" y="-1052.77" font-family="Helvetica,sans-Serif" font-size="10.00">project&#45;migrate</text>
<text text-anchor="middle" x="438.02" y="-1041.77" font-family="Helvetica,sans-Serif" font-size="10.00">(2,333 tok)</text>
</g>
<!-- cmd_project_migrate&#45;&gt;script_project_migrate -->
<g id="edge23" class="edge">
<title>cmd_project_migrate&#45;&gt;script_project_migrate</title>
<path fill="none" stroke="black" d="M279.72,-1049.77C303.17,-1049.77 333.6,-1049.77 361.43,-1049.77"/>
<polygon fill="black" stroke="black" points="361.55,-1053.27 371.55,-1049.77 361.55,-1046.27 361.55,-1053.27"/>
</g>
<!-- cmd_container_dependency_check&#45;&gt;cmd_setup_crg -->
<!-- cmd_setup_crg&#45;&gt;cmd_snapshot_analyze -->
<!-- cmd_snapshot_analyze&#45;&gt;cmd_snapshot_classify -->
<!-- cmd_snapshot_classify&#45;&gt;cmd_snapshot_generate -->
<!-- cmd_snapshot_generate&#45;&gt;cmd_plugin_interview -->
<!-- cmd_plugin_interview&#45;&gt;cmd_plugin_research -->
<!-- cmd_plugin_research&#45;&gt;cmd_plugin_design -->
<!-- cmd_plugin_design&#45;&gt;cmd_plugin_generate -->
<!-- cmd_plugin_generate&#45;&gt;cmd_plugin_migrate_analyze -->
<!-- cmd_plugin_migrate_analyze&#45;&gt;cmd_plugin_diagnose -->
<!-- cmd_plugin_diagnose&#45;&gt;cmd_plugin_fix -->
<!-- cmd_plugin_fix&#45;&gt;cmd_plugin_verify -->
<!-- cmd_plugin_verify&#45;&gt;cmd_plugin_phase_diagnose -->
<!-- cmd_plugin_phase_diagnose&#45;&gt;cmd_plugin_phase_verify -->
<!-- agent_worker_structure -->
<g id="node20" class="node">
<title>agent_worker_structure</title>
<ellipse fill="#ede7f6" stroke="black" cx="438.02" cy="-414.77" rx="61.54" ry="21.43"/>
<text text-anchor="middle" x="438.02" y="-417.77" font-family="Helvetica,sans-Serif" font-size="10.00">worker&#45;structure</text>
<text text-anchor="middle" x="438.02" y="-406.77" font-family="Helvetica,sans-Serif" font-size="10.00">(1,237 tok)</text>
</g>
<!-- cmd_plugin_phase_diagnose&#45;&gt;agent_worker_structure -->
<g id="edge24" class="edge">
<title>cmd_plugin_phase_diagnose&#45;&gt;agent_worker_structure</title>
<path fill="none" stroke="black" stroke-dasharray="5,2" d="M294.16,-255.81C299.63,-258.94 304.82,-262.57 309.31,-266.77 351.44,-306.11 325.88,-342.69 367.31,-382.77 372.26,-387.56 378.06,-391.72 384.16,-395.31"/>
<polygon fill="black" stroke="black" points="382.78,-398.54 393.25,-400.17 386.08,-392.37 382.78,-398.54"/>
</g>
<!-- agent_worker_principles -->
<g id="node21" class="node">
<title>agent_worker_principles</title>
<ellipse fill="#ede7f6" stroke="black" cx="438.02" cy="-350.77" rx="63.78" ry="21.43"/>
<text text-anchor="middle" x="438.02" y="-353.77" font-family="Helvetica,sans-Serif" font-size="10.00">worker&#45;principles</text>
<text text-anchor="middle" x="438.02" y="-342.77" font-family="Helvetica,sans-Serif" font-size="10.00">(1,144 tok)</text>
</g>
<!-- cmd_plugin_phase_diagnose&#45;&gt;agent_worker_principles -->
<g id="edge25" class="edge">
<title>cmd_plugin_phase_diagnose&#45;&gt;agent_worker_principles</title>
<path fill="none" stroke="black" stroke-dasharray="5,2" d="M289.08,-255.88C296.07,-259.15 303.01,-262.79 309.31,-266.77 338.58,-285.25 338.36,-299.78 367.31,-318.77 373.51,-322.84 380.31,-326.65 387.16,-330.12"/>
<polygon fill="black" stroke="black" points="385.95,-333.43 396.47,-334.65 389.01,-327.13 385.95,-333.43"/>
</g>
<!-- agent_worker_architecture -->
<g id="node22" class="node">
<title>agent_worker_architecture</title>
<ellipse fill="#ede7f6" stroke="black" cx="438.02" cy="-286.77" rx="70.92" ry="21.43"/>
<text text-anchor="middle" x="438.02" y="-289.77" font-family="Helvetica,sans-Serif" font-size="10.00">worker&#45;architecture</text>
<text text-anchor="middle" x="438.02" y="-278.77" font-family="Helvetica,sans-Serif" font-size="10.00">(1,242 tok)</text>
</g>
<!-- cmd_plugin_phase_diagnose&#45;&gt;agent_worker_architecture -->
<g id="edge26" class="edge">
<title>cmd_plugin_phase_diagnose&#45;&gt;agent_worker_architecture</title>
<path fill="none" stroke="black" stroke-dasharray="5,2" d="M295.53,-251.61C319.76,-257.63 348.29,-264.72 373.35,-270.95"/>
<polygon fill="black" stroke="black" points="372.59,-274.36 383.14,-273.38 374.27,-267.57 372.59,-274.36"/>
</g>
<!-- skill_ref_specialist_output_schema -->
<g id="node28" class="node">
<title>skill_ref_specialist_output_schema</title>
<ellipse fill="none" stroke="black" cx="666.21" cy="-286.77" rx="99.47" ry="18"/>
<text text-anchor="middle" x="666.21" y="-284.27" font-family="Helvetica,sans-Serif" font-size="10.00">skill_ref_specialist_output_schema</text>
</g>
<!-- cmd_plugin_phase_diagnose&#45;&gt;skill_ref_specialist_output_schema -->
<g id="edge27" class="edge">
<title>cmd_plugin_phase_diagnose&#45;&gt;skill_ref_specialist_output_schema</title>
<path fill="none" stroke="black" d="M295.5,-255.57C300.6,-258.73 305.33,-262.44 309.31,-266.77 366.21,-328.63 299.37,-397.28 367.31,-446.77 418.11,-483.77 450.8,-471.14 508.73,-446.77 573.38,-419.57 624.67,-351.16 649.29,-313.19"/>
<polygon fill="black" stroke="black" points="652.29,-315.01 654.69,-304.69 646.38,-311.25 652.29,-315.01"/>
</g>
<!-- skill_ref_architecture -->
<g id="node29" class="node">
<title>skill_ref_architecture</title>
<ellipse fill="none" stroke="black" cx="888.45" cy="-286.77" rx="62.97" ry="18"/>
<text text-anchor="middle" x="888.45" y="-284.27" font-family="Helvetica,sans-Serif" font-size="10.00">skill_ref_architecture</text>
</g>
<!-- cmd_plugin_phase_diagnose&#45;&gt;skill_ref_architecture -->
<g id="edge28" class="edge">
<title>cmd_plugin_phase_diagnose&#45;&gt;skill_ref_architecture</title>
<path fill="none" stroke="black" d="M295.34,-255.2C300.53,-258.44 305.33,-262.26 309.31,-266.77 372.86,-338.68 290.87,-416.73 367.31,-474.77 530.33,-598.55 782.53,-385.81 862.34,-311.18"/>
<polygon fill="black" stroke="black" points="865.08,-313.41 869.95,-304 860.27,-308.32 865.08,-313.41"/>
</g>
<!-- cmd_plugin_phase_verify&#45;&gt;agent_worker_structure -->
<g id="edge29" class="edge">
<title>cmd_plugin_phase_verify&#45;&gt;agent_worker_structure</title>
<path fill="none" stroke="black" stroke-dasharray="5,2" d="M288.13,-193.53C295.97,-197.46 303.44,-202.45 309.31,-208.77 364.79,-268.49 312.88,-322.08 367.31,-382.77 371.79,-387.76 377.21,-392.03 383.02,-395.67"/>
<polygon fill="black" stroke="black" points="381.32,-398.72 391.75,-400.55 384.73,-392.61 381.32,-398.72"/>
</g>
<!-- cmd_plugin_phase_verify&#45;&gt;agent_worker_principles -->
<g id="edge30" class="edge">
<title>cmd_plugin_phase_verify&#45;&gt;agent_worker_principles</title>
<path fill="none" stroke="black" stroke-dasharray="5,2" d="M288.03,-194.71C295.7,-198.49 303.13,-203.12 309.31,-208.77 350.11,-246.05 327.17,-280.77 367.31,-318.77 372.18,-323.38 377.84,-327.42 383.78,-330.93"/>
<polygon fill="black" stroke="black" points="382.17,-334.03 392.63,-335.69 385.49,-327.87 382.17,-334.03"/>
</g>
<!-- cmd_plugin_phase_verify&#45;&gt;agent_worker_architecture -->
<g id="edge31" class="edge">
<title>cmd_plugin_phase_verify&#45;&gt;agent_worker_architecture</title>
<path fill="none" stroke="black" stroke-dasharray="5,2" d="M286.79,-197.8C294.45,-201.18 302.19,-204.88 309.31,-208.77 336.8,-223.77 340.64,-232.36 367.31,-248.77 375.5,-253.81 384.4,-258.92 393.02,-263.69"/>
<polygon fill="black" stroke="black" points="391.41,-266.8 401.86,-268.53 394.77,-260.66 391.41,-266.8"/>
</g>
<!-- cmd_plugin_phase_verify&#45;&gt;skill_ref_types -->
<!-- cmd_plugin_phase_verify&#45;&gt;skill_ref_specialist_output_schema -->
<g id="edge32" class="edge">
<title>cmd_plugin_phase_verify&#45;&gt;skill_ref_specialist_output_schema</title>
<path fill="none" stroke="black" d="M288.19,-191.94C364.1,-211.03 511.4,-248.08 597.7,-269.79"/>
<polygon fill="black" stroke="black" points="596.84,-273.18 607.39,-272.22 598.55,-266.39 596.84,-273.18"/>
</g>
<!-- cmd_plugin_phase_verify&#45;&gt;skill_ref_architecture -->
<g id="edge33" class="edge">
<title>cmd_plugin_phase_verify&#45;&gt;skill_ref_architecture</title>
<path fill="none" stroke="black" d="M288.05,-183.78C341.99,-188.55 431.86,-197.31 508.73,-208.77 623.73,-225.9 652.01,-233.4 765.7,-257.77 786.97,-262.33 810.22,-267.76 830.66,-272.68"/>
<polygon fill="black" stroke="black" points="829.9,-276.09 840.44,-275.04 831.55,-269.29 829.9,-276.09"/>
</g>
<!-- agent_worker_structure&#45;&gt;agent_worker_principles -->
<!-- agent_worker_structure&#45;&gt;agent_worker_principles -->
<!-- agent_worker_structure&#45;&gt;agent_worker_principles -->
<!-- agent_worker_structure&#45;&gt;agent_worker_principles -->
<!-- agent_worker_principles&#45;&gt;agent_worker_architecture -->
<!-- agent_worker_principles&#45;&gt;agent_worker_architecture -->
<!-- agent_worker_architecture&#45;&gt;skill_ref_specialist_output_schema -->
<!-- agent_worker_architecture&#45;&gt;skill_ref_specialist_output_schema -->
<!-- skill_ref_types&#45;&gt;skill_ref_practices -->
<!-- skill_ref_practices&#45;&gt;skill_ref_deps_format -->
<!-- skill_ref_specialist_output_schema&#45;&gt;skill_ref_architecture -->
<!-- skill_ref_specialist_output_schema&#45;&gt;skill_ref_architecture -->
</g>
</svg>
