<?xml version="1.0" encoding="UTF-8" standalone="no"?>
<!DOCTYPE svg PUBLIC "-//W3C//DTD SVG 1.1//EN"
 "http://www.w3.org/Graphics/SVG/1.1/DTD/svg11.dtd">
<!-- Generated by graphviz version 2.43.0 (0)
 -->
<!-- Title: Dependencies Pages: 1 -->
<svg width="961pt" height="1220pt"
 viewBox="0.00 0.00 961.20 1220.41" xmlns="http://www.w3.org/2000/svg" xmlns:xlink="http://www.w3.org/1999/xlink">
<g id="graph0" class="graph" transform="scale(1 1) rotate(0) translate(4 1216.41)">
<title>Dependencies</title>
<polygon fill="white" stroke="transparent" points="-4,4 -4,-1216.41 957.2,-1216.41 957.2,4 -4,4"/>
<text text-anchor="middle" x="476.6" y="-1197.21" font-family="Helvetica,sans-Serif" font-size="14.00">co&#45;project</text>
<!-- skill_co_project -->
<g id="node1" class="node">
<title>skill_co_project</title>
<ellipse fill="#c8e6c9" stroke="black" cx="55.15" cy="-584.92" rx="55.31" ry="21.43"/>
<text text-anchor="middle" x="55.15" y="-587.92" font-family="Helvetica,sans-Serif" font-size="10.00">dev:co&#45;project</text>
<text text-anchor="middle" x="55.15" y="-576.92" font-family="Helvetica,sans-Serif" font-size="10.00">(1,321 tok)</text>
</g>
<!-- cmd_project_create -->
<g id="node2" class="node">
<title>cmd_project_create</title>
<polygon fill="#e3f2fd" stroke="black" points="276.81,-1182.92 200.81,-1182.92 200.81,-1146.92 276.81,-1146.92 276.81,-1182.92"/>
<text text-anchor="middle" x="238.81" y="-1167.92" font-family="Helvetica,sans-Serif" font-size="10.00">project&#45;create</text>
<text text-anchor="middle" x="238.81" y="-1156.92" font-family="Helvetica,sans-Serif" font-size="10.00">(450 tok)</text>
</g>
<!-- skill_co_project&#45;&gt;cmd_project_create -->
<g id="edge1" class="edge">
<title>skill_co_project&#45;&gt;cmd_project_create</title>
<path fill="none" stroke="black" d="M57.84,-606.14C65.46,-696.94 99.26,-1051.94 168.31,-1135.92 174.35,-1143.26 182.56,-1148.77 191.23,-1152.9"/>
<polygon fill="black" stroke="black" points="190.15,-1156.24 200.73,-1156.86 192.84,-1149.78 190.15,-1156.24"/>
</g>
<!-- cmd_project_governance -->
<g id="node3" class="node">
<title>cmd_project_governance</title>
<polygon fill="#e3f2fd" stroke="black" points="288.31,-1124.92 189.31,-1124.92 189.31,-1088.92 288.31,-1088.92 288.31,-1124.92"/>
<text text-anchor="middle" x="238.81" y="-1109.92" font-family="Helvetica,sans-Serif" font-size="10.00">project&#45;governance</text>
<text text-anchor="middle" x="238.81" y="-1098.92" font-family="Helvetica,sans-Serif" font-size="10.00">(974 tok)</text>
</g>
<!-- skill_co_project&#45;&gt;cmd_project_governance -->
<g id="edge2" class="edge">
<title>skill_co_project&#45;&gt;cmd_project_governance</title>
<path fill="none" stroke="black" d="M58.4,-606.17C67.73,-690.93 105.92,-1003.79 168.31,-1077.92 171.69,-1081.94 175.73,-1085.42 180.13,-1088.42"/>
<polygon fill="black" stroke="black" points="178.57,-1091.56 188.97,-1093.62 182.13,-1085.53 178.57,-1091.56"/>
</g>
<!-- cmd_project_migrate -->
<g id="node4" class="node">
<title>cmd_project_migrate</title>
<polygon fill="#e3f2fd" stroke="black" points="279.31,-1066.92 198.31,-1066.92 198.31,-1030.92 279.31,-1030.92 279.31,-1066.92"/>
<text text-anchor="middle" x="238.81" y="-1051.92" font-family="Helvetica,sans-Serif" font-size="10.00">project&#45;migrate</text>
<text text-anchor="middle" x="238.81" y="-1040.92" font-family="Helvetica,sans-Serif" font-size="10.00">(472 tok)</text>
</g>
<!-- skill_co_project&#45;&gt;cmd_project_migrate -->
<g id="edge3" class="edge">
<title>skill_co_project&#45;&gt;cmd_project_migrate</title>
<path fill="none" stroke="black" d="M55.39,-606.5C54.1,-675.58 59.28,-894.07 168.31,-1019.92 173.91,-1026.38 181.18,-1031.44 188.91,-1035.38"/>
<polygon fill="black" stroke="black" points="187.56,-1038.61 198.12,-1039.51 190.43,-1032.22 187.56,-1038.61"/>
</g>
<!-- cmd_container_dependency_check -->
<g id="node5" class="node">
<title>cmd_container_dependency_check</title>
<polygon fill="#e3f2fd" stroke="black" points="309.31,-1008.92 168.31,-1008.92 168.31,-972.92 309.31,-972.92 309.31,-1008.92"/>
<text text-anchor="middle" x="238.81" y="-993.92" font-family="Helvetica,sans-Serif" font-size="10.00">container&#45;dependency&#45;check</text>
<text text-anchor="middle" x="238.81" y="-982.92" font-family="Helvetica,sans-Serif" font-size="10.00">(493 tok)</text>
</g>
<!-- skill_co_project&#45;&gt;cmd_container_dependency_check -->
<g id="edge4" class="edge">
<title>skill_co_project&#45;&gt;cmd_container_dependency_check</title>
<path fill="none" stroke="black" d="M56.42,-606.28C58.32,-669.03 72.2,-855.03 168.31,-961.92 169.84,-963.62 171.48,-965.22 173.21,-966.73"/>
<polygon fill="black" stroke="black" points="171.23,-969.62 181.34,-972.78 175.41,-964 171.23,-969.62"/>
</g>
<!-- cmd_setup_crg -->
<g id="node6" class="node">
<title>cmd_setup_crg</title>
<polygon fill="#e3f2fd" stroke="black" points="267.31,-950.92 210.31,-950.92 210.31,-914.92 267.31,-914.92 267.31,-950.92"/>
<text text-anchor="middle" x="238.81" y="-935.92" font-family="Helvetica,sans-Serif" font-size="10.00">setup&#45;crg</text>
<text text-anchor="middle" x="238.81" y="-924.92" font-family="Helvetica,sans-Serif" font-size="10.00">(754 tok)</text>
</g>
<!-- skill_co_project&#45;&gt;cmd_setup_crg -->
<g id="edge5" class="edge">
<title>skill_co_project&#45;&gt;cmd_setup_crg</title>
<path fill="none" stroke="black" d="M57.78,-606.2C63.15,-662.27 85.08,-815.78 168.31,-903.92 177,-913.13 189.07,-919.52 200.71,-923.91"/>
<polygon fill="black" stroke="black" points="199.71,-927.27 210.31,-927.14 201.95,-920.63 199.71,-927.27"/>
</g>
<!-- cmd_snapshot_analyze -->
<g id="node7" class="node">
<title>cmd_snapshot_analyze</title>
<polygon fill="#e3f2fd" stroke="black" points="285.31,-892.92 192.31,-892.92 192.31,-856.92 285.31,-856.92 285.31,-892.92"/>
<text text-anchor="middle" x="238.81" y="-877.92" font-family="Helvetica,sans-Serif" font-size="10.00">snapshot&#45;analyze</text>
<text text-anchor="middle" x="238.81" y="-866.92" font-family="Helvetica,sans-Serif" font-size="10.00">(600 tok)</text>
</g>
<!-- skill_co_project&#45;&gt;cmd_snapshot_analyze -->
<g id="edge6" class="edge">
<title>skill_co_project&#45;&gt;cmd_snapshot_analyze</title>
<path fill="none" stroke="black" d="M59.7,-606.23C68.89,-655.06 97.84,-776.19 168.31,-845.92 172.6,-850.16 177.59,-853.82 182.91,-856.96"/>
<polygon fill="black" stroke="black" points="181.6,-860.22 192.08,-861.77 184.85,-854.03 181.6,-860.22"/>
</g>
<!-- cmd_snapshot_classify -->
<g id="node8" class="node">
<title>cmd_snapshot_classify</title>
<polygon fill="#e3f2fd" stroke="black" points="285.31,-834.92 192.31,-834.92 192.31,-798.92 285.31,-798.92 285.31,-834.92"/>
<text text-anchor="middle" x="238.81" y="-819.92" font-family="Helvetica,sans-Serif" font-size="10.00">snapshot&#45;classify</text>
<text text-anchor="middle" x="238.81" y="-808.92" font-family="Helvetica,sans-Serif" font-size="10.00">(870 tok)</text>
</g>
<!-- skill_co_project&#45;&gt;cmd_snapshot_classify -->
<g id="edge7" class="edge">
<title>skill_co_project&#45;&gt;cmd_snapshot_classify</title>
<path fill="none" stroke="black" d="M62.57,-606.01C75.9,-646.55 110.29,-735.92 168.31,-787.92 172.74,-791.89 177.79,-795.36 183.1,-798.39"/>
<polygon fill="black" stroke="black" points="181.72,-801.62 192.21,-803.08 184.92,-795.39 181.72,-801.62"/>
</g>
<!-- cmd_snapshot_generate -->
<g id="node9" class="node">
<title>cmd_snapshot_generate</title>
<polygon fill="#e3f2fd" stroke="black" points="287.31,-776.92 190.31,-776.92 190.31,-740.92 287.31,-740.92 287.31,-776.92"/>
<text text-anchor="middle" x="238.81" y="-761.92" font-family="Helvetica,sans-Serif" font-size="10.00">snapshot&#45;generate</text>
<text text-anchor="middle" x="238.81" y="-750.92" font-family="Helvetica,sans-Serif" font-size="10.00">(735 tok)</text>
</g>
<!-- skill_co_project&#45;&gt;cmd_snapshot_generate -->
<g id="edge8" class="edge">
<title>skill_co_project&#45;&gt;cmd_snapshot_generate</title>
<path fill="none" stroke="black" d="M67.47,-605.69C85.25,-636.58 122.46,-694.79 168.31,-729.92 172.19,-732.89 176.42,-735.62 180.82,-738.1"/>
<polygon fill="black" stroke="black" points="179.52,-741.37 190.01,-742.87 182.74,-735.16 179.52,-741.37"/>
</g>
<!-- cmd_plugin_interview -->
<g id="node10" class="node">
<title>cmd_plugin_interview</title>
<polygon fill="#e3f2fd" stroke="black" points="280.81,-718.92 196.81,-718.92 196.81,-682.92 280.81,-682.92 280.81,-718.92"/>
<text text-anchor="middle" x="238.81" y="-703.92" font-family="Helvetica,sans-Serif" font-size="10.00">plugin&#45;interview</text>
<text text-anchor="middle" x="238.81" y="-692.92" font-family="Helvetica,sans-Serif" font-size="10.00">(1,086 tok)</text>
</g>
<!-- skill_co_project&#45;&gt;cmd_plugin_interview -->
<g id="edge9" class="edge">
<title>skill_co_project&#45;&gt;cmd_plugin_interview</title>
<path fill="none" stroke="black" d="M77.68,-604.43C99.39,-623.41 134.45,-652.2 168.31,-671.92 174.23,-675.37 180.64,-678.62 187.09,-681.61"/>
<polygon fill="black" stroke="black" points="185.95,-684.94 196.51,-685.8 188.8,-678.54 185.95,-684.94"/>
</g>
<!-- cmd_plugin_research -->
<g id="node11" class="node">
<title>cmd_plugin_research</title>
<polygon fill="#e3f2fd" stroke="black" points="280.31,-660.92 197.31,-660.92 197.31,-624.92 280.31,-624.92 280.31,-660.92"/>
<text text-anchor="middle" x="238.81" y="-645.92" font-family="Helvetica,sans-Serif" font-size="10.00">plugin&#45;research</text>
<text text-anchor="middle" x="238.81" y="-634.92" font-family="Helvetica,sans-Serif" font-size="10.00">(655 tok)</text>
</g>
<!-- skill_co_project&#45;&gt;cmd_plugin_research -->
<g id="edge10" class="edge">
<title>skill_co_project&#45;&gt;cmd_plugin_research</title>
<path fill="none" stroke="black" d="M98.29,-598.37C124.91,-606.87 159.47,-617.91 187.52,-626.86"/>
<polygon fill="black" stroke="black" points="186.56,-630.23 197.15,-629.94 188.69,-623.56 186.56,-630.23"/>
</g>
<!-- cmd_plugin_design -->
<g id="node12" class="node">
<title>cmd_plugin_design</title>
<polygon fill="#e3f2fd" stroke="black" points="275.81,-602.92 201.81,-602.92 201.81,-566.92 275.81,-566.92 275.81,-602.92"/>
<text text-anchor="middle" x="238.81" y="-587.92" font-family="Helvetica,sans-Serif" font-size="10.00">plugin&#45;design</text>
<text text-anchor="middle" x="238.81" y="-576.92" font-family="Helvetica,sans-Serif" font-size="10.00">(1,192 tok)</text>
</g>
<!-- skill_co_project&#45;&gt;cmd_plugin_design -->
<g id="edge11" class="edge">
<title>skill_co_project&#45;&gt;cmd_plugin_design</title>
<path fill="none" stroke="black" d="M110.66,-584.92C136.44,-584.92 166.91,-584.92 191.55,-584.92"/>
<polygon fill="black" stroke="black" points="191.73,-588.42 201.73,-584.92 191.73,-581.42 191.73,-588.42"/>
</g>
<!-- cmd_plugin_generate -->
<g id="node13" class="node">
<title>cmd_plugin_generate</title>
<polygon fill="#e3f2fd" stroke="black" points="280.31,-544.92 197.31,-544.92 197.31,-508.92 280.31,-508.92 280.31,-544.92"/>
<text text-anchor="middle" x="238.81" y="-529.92" font-family="Helvetica,sans-Serif" font-size="10.00">plugin&#45;generate</text>
<text text-anchor="middle" x="238.81" y="-518.92" font-family="Helvetica,sans-Serif" font-size="10.00">(2,083 tok)</text>
</g>
<!-- skill_co_project&#45;&gt;cmd_plugin_generate -->
<g id="edge12" class="edge">
<title>skill_co_project&#45;&gt;cmd_plugin_generate</title>
<path fill="none" stroke="black" d="M98.29,-571.47C124.91,-562.97 159.47,-551.93 187.52,-542.97"/>
<polygon fill="black" stroke="black" points="188.69,-546.28 197.15,-539.9 186.56,-539.61 188.69,-546.28"/>
</g>
<!-- cmd_plugin_migrate_analyze -->
<g id="node14" class="node">
<title>cmd_plugin_migrate_analyze</title>
<polygon fill="#e3f2fd" stroke="black" points="295.81,-486.92 181.81,-486.92 181.81,-450.92 295.81,-450.92 295.81,-486.92"/>
<text text-anchor="middle" x="238.81" y="-471.92" font-family="Helvetica,sans-Serif" font-size="10.00">plugin&#45;migrate&#45;analyze</text>
<text text-anchor="middle" x="238.81" y="-460.92" font-family="Helvetica,sans-Serif" font-size="10.00">(458 tok)</text>
</g>
<!-- skill_co_project&#45;&gt;cmd_plugin_migrate_analyze -->
<g id="edge13" class="edge">
<title>skill_co_project&#45;&gt;cmd_plugin_migrate_analyze</title>
<path fill="none" stroke="black" d="M77.68,-565.41C99.39,-546.43 134.45,-517.64 168.31,-497.92 172.23,-495.64 176.36,-493.44 180.58,-491.35"/>
<polygon fill="black" stroke="black" points="182.35,-494.38 189.89,-486.94 179.36,-488.05 182.35,-494.38"/>
</g>
<!-- cmd_plugin_diagnose -->
<g id="node15" class="node">
<title>cmd_plugin_diagnose</title>
<polygon fill="#e3f2fd" stroke="black" points="280.81,-428.92 196.81,-428.92 196.81,-392.92 280.81,-392.92 280.81,-428.92"/>
<text text-anchor="middle" x="238.81" y="-413.92" font-family="Helvetica,sans-Serif" font-size="10.00">plugin&#45;diagnose</text>
<text text-anchor="middle" x="238.81" y="-402.92" font-family="Helvetica,sans-Serif" font-size="10.00">(945 tok)</text>
</g>
<!-- skill_co_project&#45;&gt;cmd_plugin_diagnose -->
<g id="edge14" class="edge">
<title>skill_co_project&#45;&gt;cmd_plugin_diagnose</title>
<path fill="none" stroke="black" d="M67.47,-564.15C85.25,-533.26 122.46,-475.05 168.31,-439.92 174.09,-435.49 180.64,-431.62 187.36,-428.27"/>
<polygon fill="black" stroke="black" points="188.95,-431.39 196.56,-424.02 186.02,-425.03 188.95,-431.39"/>
</g>
<!-- cmd_plugin_fix -->
<g id="node16" class="node">
<title>cmd_plugin_fix</title>
<polygon fill="#e3f2fd" stroke="black" points="270.31,-370.92 207.31,-370.92 207.31,-334.92 270.31,-334.92 270.31,-370.92"/>
<text text-anchor="middle" x="238.81" y="-355.92" font-family="Helvetica,sans-Serif" font-size="10.00">plugin&#45;fix</text>
<text text-anchor="middle" x="238.81" y="-344.92" font-family="Helvetica,sans-Serif" font-size="10.00">(1,074 tok)</text>
</g>
<!-- skill_co_project&#45;&gt;cmd_plugin_fix -->
<g id="edge15" class="edge">
<title>skill_co_project&#45;&gt;cmd_plugin_fix</title>
<path fill="none" stroke="black" d="M62.57,-563.83C75.9,-523.29 110.29,-433.92 168.31,-381.92 176.73,-374.37 187.4,-368.61 197.83,-364.3"/>
<polygon fill="black" stroke="black" points="199.16,-367.54 207.28,-360.73 196.69,-360.99 199.16,-367.54"/>
</g>
<!-- cmd_plugin_verify -->
<g id="node17" class="node">
<title>cmd_plugin_verify</title>
<polygon fill="#e3f2fd" stroke="black" points="273.31,-312.92 204.31,-312.92 204.31,-276.92 273.31,-276.92 273.31,-312.92"/>
<text text-anchor="middle" x="238.81" y="-297.92" font-family="Helvetica,sans-Serif" font-size="10.00">plugin&#45;verify</text>
<text text-anchor="middle" x="238.81" y="-286.92" font-family="Helvetica,sans-Serif" font-size="10.00">(518 tok)</text>
</g>
<!-- skill_co_project&#45;&gt;cmd_plugin_verify -->
<g id="edge16" class="edge">
<title>skill_co_project&#45;&gt;cmd_plugin_verify</title>
<path fill="none" stroke="black" d="M59.7,-563.61C68.89,-514.78 97.84,-393.65 168.31,-323.92 175.63,-316.68 185.02,-311.15 194.52,-306.96"/>
<polygon fill="black" stroke="black" points="195.97,-310.15 203.98,-303.21 193.39,-303.64 195.97,-310.15"/>
</g>
<!-- cmd_plugin_phase_diagnose -->
<g id="node18" class="node">
<title>cmd_plugin_phase_diagnose</title>
<polygon fill="#bbdefb" stroke="black" points="295.31,-254.92 182.31,-254.92 182.31,-218.92 295.31,-218.92 295.31,-254.92"/>
<text text-anchor="middle" x="238.81" y="-239.92" font-family="Helvetica,sans-Serif" font-size="10.00">plugin&#45;phase&#45;diagnose</text>
<text text-anchor="middle" x="238.81" y="-228.92" font-family="Helvetica,sans-Serif" font-size="10.00">(631 tok)</text>
</g>
<!-- skill_co_project&#45;&gt;cmd_plugin_phase_diagnose -->
<g id="edge17" class="edge">
<title>skill_co_project&#45;&gt;cmd_plugin_phase_diagnose</title>
<path fill="none" stroke="black" d="M57.78,-563.64C63.15,-507.57 85.08,-354.06 168.31,-265.92 170.08,-264.05 171.98,-262.29 174,-260.65"/>
<polygon fill="black" stroke="black" points="176.08,-263.46 182.23,-254.83 172.04,-257.74 176.08,-263.46"/>
</g>
<!-- cmd_plugin_phase_verify -->
<g id="node19" class="node">
<title>cmd_plugin_phase_verify</title>
<polygon fill="#bbdefb" stroke="black" points="287.81,-196.92 189.81,-196.92 189.81,-160.92 287.81,-160.92 287.81,-196.92"/>
<text text-anchor="middle" x="238.81" y="-181.92" font-family="Helvetica,sans-Serif" font-size="10.00">plugin&#45;phase&#45;verify</text>
<text text-anchor="middle" x="238.81" y="-170.92" font-family="Helvetica,sans-Serif" font-size="10.00">(635 tok)</text>
</g>
<!-- skill_co_project&#45;&gt;cmd_plugin_phase_verify -->
<g id="edge18" class="edge">
<title>skill_co_project&#45;&gt;cmd_plugin_phase_verify</title>
<path fill="none" stroke="black" d="M56.42,-563.56C58.32,-500.81 72.2,-314.81 168.31,-207.92 171.97,-203.85 176.29,-200.33 180.96,-197.3"/>
<polygon fill="black" stroke="black" points="182.71,-200.33 189.68,-192.35 179.25,-194.25 182.71,-200.33"/>
</g>
<!-- skill_ref_types -->
<g id="node25" class="node">
<title>skill_ref_types</title>
<ellipse fill="none" stroke="black" cx="438.02" cy="-132.92" rx="47.19" ry="18"/>
<text text-anchor="middle" x="438.02" y="-130.42" font-family="Helvetica,sans-Serif" font-size="10.00">skill_ref_types</text>
</g>
<!-- skill_co_project&#45;&gt;skill_ref_types -->
<g id="edge19" class="edge">
<title>skill_co_project&#45;&gt;skill_ref_types</title>
<path fill="none" stroke="black" d="M58.38,-563.7C67.21,-483.99 102.49,-204.33 168.31,-149.92 230.29,-98.68 330.33,-108.63 389.28,-120.67"/>
<polygon fill="black" stroke="black" points="388.57,-124.1 399.08,-122.77 390.03,-117.26 388.57,-124.1"/>
</g>
<!-- skill_ref_practices -->
<g id="node26" class="node">
<title>skill_ref_practices</title>
<ellipse fill="none" stroke="black" cx="666.21" cy="-132.92" rx="55.85" ry="18"/>
<text text-anchor="middle" x="666.21" y="-130.42" font-family="Helvetica,sans-Serif" font-size="10.00">skill_ref_practices</text>
</g>
<!-- skill_co_project&#45;&gt;skill_ref_practices -->
<g id="edge20" class="edge">
<title>skill_co_project&#45;&gt;skill_ref_practices</title>
<path fill="none" stroke="black" d="M57.78,-563.58C64.73,-478.59 95.02,-165.91 168.31,-106.92 234.69,-53.49 493.9,-97.86 609.28,-121.02"/>
<polygon fill="black" stroke="black" points="608.83,-124.5 619.33,-123.05 610.22,-117.64 608.83,-124.5"/>
</g>
<!-- skill_ref_deps_format -->
<g id="node27" class="node">
<title>skill_ref_deps_format</title>
<ellipse fill="none" stroke="black" cx="888.45" cy="-132.92" rx="64.51" ry="18"/>
<text text-anchor="middle" x="888.45" y="-130.42" font-family="Helvetica,sans-Serif" font-size="10.00">skill_ref_deps_format</text>
</g>
<!-- skill_co_project&#45;&gt;skill_ref_deps_format -->
<g id="edge21" class="edge">
<title>skill_co_project&#45;&gt;skill_ref_deps_format</title>
<path fill="none" stroke="black" d="M57.45,-563.44C63.27,-474.86 90.24,-139.63 168.31,-76.92 374.1,88.4 728.57,-56.5 847.34,-112.83"/>
<polygon fill="black" stroke="black" points="845.94,-116.04 856.47,-117.2 848.96,-109.73 845.94,-116.04"/>
</g>
<!-- cmd_project_create&#45;&gt;cmd_project_governance -->
<!-- script_project_create -->
<g id="node23" class="node">
<title>script_project_create</title>
<polygon fill="#ff9800" stroke="black" points="500.13,-1164.92 469.07,-1189.41 406.97,-1189.41 375.91,-1164.92 406.97,-1140.43 469.07,-1140.43 500.13,-1164.92"/>
<text text-anchor="middle" x="438.02" y="-1167.92" font-family="Helvetica,sans-Serif" font-size="10.00">project&#45;create</text>
<text text-anchor="middle" x="438.02" y="-1156.92" font-family="Helvetica,sans-Serif" font-size="10.00">(4,935 tok)</text>
</g>
<!-- cmd_project_create&#45;&gt;script_project_create -->
<g id="edge22" class="edge">
<title>cmd_project_create&#45;&gt;script_project_create</title>
<path fill="none" stroke="black" d="M276.9,-1164.92C301.86,-1164.92 335.58,-1164.92 365.64,-1164.92"/>
<polygon fill="black" stroke="black" points="365.67,-1168.42 375.67,-1164.92 365.67,-1161.42 365.67,-1168.42"/>
</g>
<!-- cmd_project_governance&#45;&gt;cmd_project_migrate -->
<!-- cmd_project_migrate&#45;&gt;cmd_container_dependency_check -->
<!-- script_project_migrate -->
<g id="node24" class="node">
<title>script_project_migrate</title>
<polygon fill="#ff9800" stroke="black" points="504.29,-1048.92 471.16,-1073.41 404.88,-1073.41 371.75,-1048.92 404.88,-1024.43 471.16,-1024.43 504.29,-1048.92"/>
<text text-anchor="middle" x="438.02" y="-1051.92" font-family="Helvetica,sans-Serif" font-size="10.00">project&#45;migrate</text>
<text text-anchor="middle" x="438.02" y="-1040.92" font-family="Helvetica,sans-Serif" font-size="10.00">(2,333 tok)</text>
</g>
<!-- cmd_project_migrate&#45;&gt;script_project_migrate -->
<g id="edge23" class="edge">
<title>cmd_project_migrate&#45;&gt;script_project_migrate</title>
<path fill="none" stroke="black" d="M279.72,-1048.92C303.17,-1048.92 333.6,-1048.92 361.43,-1048.92"/>
<polygon fill="black" stroke="black" points="361.55,-1052.42 371.55,-1048.92 361.55,-1045.42 361.55,-1052.42"/>
</g>
<!-- cmd_container_dependency_check&#45;&gt;cmd_setup_crg -->
<!-- cmd_setup_crg&#45;&gt;cmd_snapshot_analyze -->
<!-- cmd_snapshot_analyze&#45;&gt;cmd_snapshot_classify -->
<!-- cmd_snapshot_classify&#45;&gt;cmd_snapshot_generate -->
<!-- cmd_snapshot_generate&#45;&gt;cmd_plugin_interview -->
<!-- cmd_plugin_interview&#45;&gt;cmd_plugin_research -->
<!-- cmd_plugin_research&#45;&gt;cmd_plugin_design -->
<!-- cmd_plugin_design&#45;&gt;cmd_plugin_generate -->
<!-- cmd_plugin_generate&#45;&gt;cmd_plugin_migrate_analyze -->
<!-- cmd_plugin_migrate_analyze&#45;&gt;cmd_plugin_diagnose -->
<!-- cmd_plugin_diagnose&#45;&gt;cmd_plugin_fix -->
<!-- cmd_plugin_fix&#45;&gt;cmd_plugin_verify -->
<!-- cmd_plugin_verify&#45;&gt;cmd_plugin_phase_diagnose -->
<!-- cmd_plugin_phase_diagnose&#45;&gt;cmd_plugin_phase_verify -->
<!-- agent_worker_structure -->
<g id="node20" class="node">
<title>agent_worker_structure</title>
<ellipse fill="#ede7f6" stroke="black" cx="438.02" cy="-413.92" rx="61.54" ry="21.43"/>
<text text-anchor="middle" x="438.02" y="-416.92" font-family="Helvetica,sans-Serif" font-size="10.00">worker&#45;structure</text>
<text text-anchor="middle" x="438.02" y="-405.92" font-family="Helvetica,sans-Serif" font-size="10.00">(1,247 tok)</text>
</g>
<!-- cmd_plugin_phase_diagnose&#45;&gt;agent_worker_structure -->
<g id="edge24" class="edge">
<title>cmd_plugin_phase_diagnose&#45;&gt;agent_worker_structure</title>
<path fill="none" stroke="black" stroke-dasharray="5,2" d="M294.16,-254.96C299.63,-258.09 304.82,-261.73 309.31,-265.92 351.44,-305.26 325.88,-341.85 367.31,-381.92 372.26,-386.71 378.06,-390.87 384.16,-394.46"/>
<polygon fill="black" stroke="black" points="382.78,-397.69 393.25,-399.32 386.08,-391.52 382.78,-397.69"/>
</g>
<!-- agent_worker_principles -->
<g id="node21" class="node">
<title>agent_worker_principles</title>
<ellipse fill="#ede7f6" stroke="black" cx="438.02" cy="-349.92" rx="63.78" ry="21.43"/>
<text text-anchor="middle" x="438.02" y="-352.92" font-family="Helvetica,sans-Serif" font-size="10.00">worker&#45;principles</text>
<text text-anchor="middle" x="438.02" y="-341.92" font-family="Helvetica,sans-Serif" font-size="10.00">(1,154 tok)</text>
</g>
<!-- cmd_plugin_phase_diagnose&#45;&gt;agent_worker_principles -->
<g id="edge25" class="edge">
<title>cmd_plugin_phase_diagnose&#45;&gt;agent_worker_principles</title>
<path fill="none" stroke="black" stroke-dasharray="5,2" d="M289.08,-255.04C296.07,-258.3 303.01,-261.94 309.31,-265.92 338.58,-284.4 338.36,-298.93 367.31,-317.92 373.51,-321.99 380.31,-325.8 387.16,-329.28"/>
<polygon fill="black" stroke="black" points="385.95,-332.58 396.47,-333.8 389.01,-326.28 385.95,-332.58"/>
</g>
<!-- agent_worker_architecture -->
<g id="node22" class="node">
<title>agent_worker_architecture</title>
<ellipse fill="#ede7f6" stroke="black" cx="438.02" cy="-285.92" rx="70.92" ry="21.43"/>
<text text-anchor="middle" x="438.02" y="-288.92" font-family="Helvetica,sans-Serif" font-size="10.00">worker&#45;architecture</text>
<text text-anchor="middle" x="438.02" y="-277.92" font-family="Helvetica,sans-Serif" font-size="10.00">(1,256 tok)</text>
</g>
<!-- cmd_plugin_phase_diagnose&#45;&gt;agent_worker_architecture -->
<g id="edge26" class="edge">
<title>cmd_plugin_phase_diagnose&#45;&gt;agent_worker_architecture</title>
<path fill="none" stroke="black" stroke-dasharray="5,2" d="M295.53,-250.76C319.76,-256.79 348.29,-263.87 373.35,-270.1"/>
<polygon fill="black" stroke="black" points="372.59,-273.52 383.14,-272.53 374.27,-266.72 372.59,-273.52"/>
</g>
<!-- skill_ref_specialist_output_schema -->
<g id="node28" class="node">
<title>skill_ref_specialist_output_schema</title>
<ellipse fill="none" stroke="black" cx="666.21" cy="-285.92" rx="99.47" ry="18"/>
<text text-anchor="middle" x="666.21" y="-283.42" font-family="Helvetica,sans-Serif" font-size="10.00">skill_ref_specialist_output_schema</text>
</g>
<!-- cmd_plugin_phase_diagnose&#45;&gt;skill_ref_specialist_output_schema -->
<g id="edge27" class="edge">
<title>cmd_plugin_phase_diagnose&#45;&gt;skill_ref_specialist_output_schema</title>
<path fill="none" stroke="black" d="M295.5,-254.72C300.6,-257.89 305.33,-261.59 309.31,-265.92 366.21,-327.78 299.37,-396.43 367.31,-445.92 418.11,-482.93 450.8,-470.3 508.73,-445.92 573.38,-418.72 624.67,-350.32 649.29,-312.35"/>
<polygon fill="black" stroke="black" points="652.29,-314.16 654.69,-303.84 646.38,-310.41 652.29,-314.16"/>
</g>
<!-- skill_ref_architecture -->
<g id="node29" class="node">
<title>skill_ref_architecture</title>
<ellipse fill="none" stroke="black" cx="888.45" cy="-285.92" rx="62.97" ry="18"/>
<text text-anchor="middle" x="888.45" y="-283.42" font-family="Helvetica,sans-Serif" font-size="10.00">skill_ref_architecture</text>
</g>
<!-- cmd_plugin_phase_diagnose&#45;&gt;skill_ref_architecture -->
<g id="edge28" class="edge">
<title>cmd_plugin_phase_diagnose&#45;&gt;skill_ref_architecture</title>
<path fill="none" stroke="black" d="M295.34,-254.35C300.53,-257.59 305.33,-261.41 309.31,-265.92 372.86,-337.84 290.87,-415.88 367.31,-473.92 530.33,-597.71 782.53,-384.96 862.34,-310.33"/>
<polygon fill="black" stroke="black" points="865.08,-312.56 869.95,-303.15 860.27,-307.47 865.08,-312.56"/>
</g>
<!-- cmd_plugin_phase_verify&#45;&gt;agent_worker_structure -->
<g id="edge29" class="edge">
<title>cmd_plugin_phase_verify&#45;&gt;agent_worker_structure</title>
<path fill="none" stroke="black" stroke-dasharray="5,2" d="M288.13,-192.68C295.97,-196.61 303.44,-201.6 309.31,-207.92 364.79,-267.64 312.88,-321.24 367.31,-381.92 371.79,-386.92 377.21,-391.18 383.02,-394.82"/>
<polygon fill="black" stroke="black" points="381.32,-397.88 391.75,-399.7 384.73,-391.77 381.32,-397.88"/>
</g>
<!-- cmd_plugin_phase_verify&#45;&gt;agent_worker_principles -->
<g id="edge30" class="edge">
<title>cmd_plugin_phase_verify&#45;&gt;agent_worker_principles</title>
<path fill="none" stroke="black" stroke-dasharray="5,2" d="M288.03,-193.86C295.7,-197.64 303.13,-202.28 309.31,-207.92 350.11,-245.2 327.17,-279.93 367.31,-317.92 372.18,-322.53 377.84,-326.57 383.78,-330.08"/>
<polygon fill="black" stroke="black" points="382.17,-333.19 392.63,-334.85 385.49,-327.02 382.17,-333.19"/>
</g>
<!-- cmd_plugin_phase_verify&#45;&gt;agent_worker_architecture -->
<g id="edge31" class="edge">
<title>cmd_plugin_phase_verify&#45;&gt;agent_worker_architecture</title>
<path fill="none" stroke="black" stroke-dasharray="5,2" d="M286.79,-196.95C294.45,-200.33 302.19,-204.04 309.31,-207.92 336.8,-222.92 340.64,-231.51 367.31,-247.92 375.5,-252.96 384.4,-258.07 393.02,-262.85"/>
<polygon fill="black" stroke="black" points="391.41,-265.95 401.86,-267.68 394.77,-259.81 391.41,-265.95"/>
</g>
<!-- cmd_plugin_phase_verify&#45;&gt;skill_ref_types -->
<!-- cmd_plugin_phase_verify&#45;&gt;skill_ref_specialist_output_schema -->
<g id="edge32" class="edge">
<title>cmd_plugin_phase_verify&#45;&gt;skill_ref_specialist_output_schema</title>
<path fill="none" stroke="black" d="M288.19,-191.09C364.1,-210.18 511.4,-247.23 597.7,-268.94"/>
<polygon fill="black" stroke="black" points="596.84,-272.33 607.39,-271.38 598.55,-265.54 596.84,-272.33"/>
</g>
<!-- cmd_plugin_phase_verify&#45;&gt;skill_ref_architecture -->
<g id="edge33" class="edge">
<title>cmd_plugin_phase_verify&#45;&gt;skill_ref_architecture</title>
<path fill="none" stroke="black" d="M287.92,-181.5C381.18,-187.27 592.64,-204.03 765.7,-244.92 790.94,-250.88 818.37,-259.89 840.8,-267.94"/>
<polygon fill="black" stroke="black" points="839.81,-271.31 850.4,-271.44 842.2,-264.73 839.81,-271.31"/>
</g>
<!-- agent_worker_structure&#45;&gt;agent_worker_principles -->
<!-- agent_worker_structure&#45;&gt;agent_worker_principles -->
<!-- agent_worker_structure&#45;&gt;agent_worker_principles -->
<!-- agent_worker_structure&#45;&gt;agent_worker_principles -->
<!-- agent_worker_structure&#45;&gt;skill_ref_specialist_output_schema -->
<g id="edge34" class="edge">
<title>agent_worker_structure&#45;&gt;skill_ref_specialist_output_schema</title>
<path fill="none" stroke="black" stroke-dasharray="1,5" d="M477.05,-397.46C487.44,-392.69 498.63,-387.31 508.73,-381.92 551.6,-359.04 598.9,-329.36 630.16,-309.1"/>
<polygon fill="black" stroke="black" points="632.46,-311.78 638.93,-303.39 628.64,-305.92 632.46,-311.78"/>
</g>
<!-- agent_worker_principles&#45;&gt;agent_worker_architecture -->
<!-- agent_worker_principles&#45;&gt;agent_worker_architecture -->
<!-- agent_worker_principles&#45;&gt;skill_ref_specialist_output_schema -->
<g id="edge35" class="edge">
<title>agent_worker_principles&#45;&gt;skill_ref_specialist_output_schema</title>
<path fill="none" stroke="black" stroke-dasharray="1,5" d="M486.99,-336.35C520.42,-326.89 565.36,-314.17 601.75,-303.88"/>
<polygon fill="black" stroke="black" points="603.1,-307.13 611.77,-301.04 601.2,-300.4 603.1,-307.13"/>
</g>
<!-- agent_worker_architecture&#45;&gt;skill_ref_specialist_output_schema -->
<g id="edge36" class="edge">
<title>agent_worker_architecture&#45;&gt;skill_ref_specialist_output_schema</title>
<path fill="none" stroke="black" stroke-dasharray="1,5" d="M490.91,-271.79C522.47,-269.07 563.13,-268.69 597.24,-270.65"/>
<polygon fill="black" stroke="black" points="597.39,-274.16 607.6,-271.33 597.85,-267.18 597.39,-274.16"/>
</g>
<!-- agent_worker_architecture&#45;&gt;skill_ref_specialist_output_schema -->
<!-- agent_worker_architecture&#45;&gt;skill_ref_specialist_output_schema -->
<!-- agent_worker_architecture&#45;&gt;skill_ref_architecture -->
<g id="edge37" class="edge">
<title>agent_worker_architecture&#45;&gt;skill_ref_architecture</title>
<path fill="none" stroke="black" stroke-dasharray="1,5" d="M490.15,-271.56C513.32,-265.77 541.2,-259.78 566.73,-256.92 654.61,-247.07 677.87,-246.6 765.7,-256.92 788.52,-259.6 813.26,-265.02 834.45,-270.45"/>
<polygon fill="black" stroke="black" points="833.66,-273.86 844.22,-273.02 835.44,-267.09 833.66,-273.86"/>
</g>
<!-- skill_ref_types&#45;&gt;skill_ref_practices -->
<!-- skill_ref_practices&#45;&gt;skill_ref_deps_format -->
<!-- skill_ref_specialist_output_schema&#45;&gt;skill_ref_architecture -->
<!-- skill_ref_specialist_output_schema&#45;&gt;skill_ref_architecture -->
</g>
</svg>
