<?xml version="1.0" encoding="UTF-8" standalone="no"?>
<!DOCTYPE svg PUBLIC "-//W3C//DTD SVG 1.1//EN"
 "http://www.w3.org/Graphics/SVG/1.1/DTD/svg11.dtd">
<!-- Generated by graphviz version 2.43.0 (0)
 -->
<!-- Title: Dependencies Pages: 1 -->
<svg width="435pt" height="1493pt"
 viewBox="0.00 0.00 434.53 1493.21" xmlns="http://www.w3.org/2000/svg" xmlns:xlink="http://www.w3.org/1999/xlink">
<g id="graph0" class="graph" transform="scale(1 1) rotate(0) translate(4 1489.21)">
<title>Dependencies</title>
<polygon fill="white" stroke="transparent" points="-4,4 -4,-1489.21 430.53,-1489.21 430.53,4 -4,4"/>
<g id="clust5" class="cluster">
<title>cluster_legend</title>
<polygon fill="none" stroke="black" stroke-dasharray="5,2" points="28.51,-1175.21 28.51,-1477.21 144.58,-1477.21 144.58,-1175.21 28.51,-1175.21"/>
<text text-anchor="middle" x="86.55" y="-1466.01" font-family="Helvetica,sans-Serif" font-size="9.00">Legend</text>
</g>
<!-- skill_co_autopilot -->
<g id="node1" class="node">
<title>skill_co_autopilot</title>
<ellipse fill="#c8e6c9" stroke="black" cx="86.55" cy="-21.21" rx="60.62" ry="21.43"/>
<text text-anchor="middle" x="86.55" y="-24.21" font-family="Helvetica,sans-Serif" font-size="10.00">dev:co&#45;autopilot</text>
<text text-anchor="middle" x="86.55" y="-13.21" font-family="Helvetica,sans-Serif" font-size="10.00">(79 tok)</text>
</g>
<!-- skill_co_issue -->
<g id="node2" class="node">
<title>skill_co_issue</title>
<ellipse fill="#c8e6c9" stroke="black" cx="86.55" cy="-85.21" rx="50.82" ry="21.43"/>
<text text-anchor="middle" x="86.55" y="-88.21" font-family="Helvetica,sans-Serif" font-size="10.00">dev:co&#45;issue</text>
<text text-anchor="middle" x="86.55" y="-77.21" font-family="Helvetica,sans-Serif" font-size="10.00">(308 tok)</text>
</g>
<!-- skill_co_project -->
<g id="node3" class="node">
<title>skill_co_project</title>
<ellipse fill="#c8e6c9" stroke="black" cx="86.55" cy="-149.21" rx="55.31" ry="21.43"/>
<text text-anchor="middle" x="86.55" y="-152.21" font-family="Helvetica,sans-Serif" font-size="10.00">dev:co&#45;project</text>
<text text-anchor="middle" x="86.55" y="-141.21" font-family="Helvetica,sans-Serif" font-size="10.00">(67 tok)</text>
</g>
<!-- skill_co_architect -->
<g id="node4" class="node">
<title>skill_co_architect</title>
<ellipse fill="#c8e6c9" stroke="black" cx="86.55" cy="-213.21" rx="60.62" ry="21.43"/>
<text text-anchor="middle" x="86.55" y="-216.21" font-family="Helvetica,sans-Serif" font-size="10.00">dev:co&#45;architect</text>
<text text-anchor="middle" x="86.55" y="-205.21" font-family="Helvetica,sans-Serif" font-size="10.00">(61 tok)</text>
</g>
<!-- skill_workflow_setup -->
<g id="node5" class="node">
<title>skill_workflow_setup</title>
<ellipse fill="#e8f5e9" stroke="black" cx="86.55" cy="-277.21" rx="71.34" ry="21.43"/>
<text text-anchor="middle" x="86.55" y="-280.21" font-family="Helvetica,sans-Serif" font-size="10.00">dev:workflow&#45;setup</text>
<text text-anchor="middle" x="86.55" y="-269.21" font-family="Helvetica,sans-Serif" font-size="10.00">(592 tok)</text>
</g>
<!-- cmd_init -->
<g id="node19" class="node">
<title>cmd_init</title>
<ellipse fill="none" stroke="black" cx="328.82" cy="-422.21" rx="31.4" ry="18"/>
<text text-anchor="middle" x="328.82" y="-419.71" font-family="Helvetica,sans-Serif" font-size="10.00">cmd_init</text>
</g>
<!-- skill_workflow_setup&#45;&gt;cmd_init -->
<g id="edge1" class="edge">
<title>skill_workflow_setup&#45;&gt;cmd_init</title>
<path fill="none" stroke="black" d="M140.41,-291.26C151.89,-295.82 163.47,-301.71 173.1,-309.21 208.88,-337.11 194.41,-366.53 231.1,-393.21 247.72,-405.31 269.41,-412.41 288.04,-416.55"/>
<polygon fill="black" stroke="black" points="287.53,-420.02 298.02,-418.56 288.91,-413.15 287.53,-420.02"/>
</g>
<!-- cmd_worktree_create -->
<g id="node20" class="node">
<title>cmd_worktree_create</title>
<ellipse fill="none" stroke="black" cx="328.82" cy="-364.21" rx="64.51" ry="18"/>
<text text-anchor="middle" x="328.82" y="-361.71" font-family="Helvetica,sans-Serif" font-size="10.00">cmd_worktree_create</text>
</g>
<!-- skill_workflow_setup&#45;&gt;cmd_worktree_create -->
<g id="edge2" class="edge">
<title>skill_workflow_setup&#45;&gt;cmd_worktree_create</title>
<path fill="none" stroke="black" d="M132.6,-293.45C145.72,-298.35 160.04,-303.85 173.1,-309.21 199.23,-319.94 204.62,-325.36 231.1,-335.21 244.18,-340.09 258.49,-344.73 271.99,-348.82"/>
<polygon fill="black" stroke="black" points="271.07,-352.2 281.65,-351.7 273.07,-345.49 271.07,-352.2"/>
</g>
<!-- cmd_project_board_status_update -->
<g id="node21" class="node">
<title>cmd_project_board_status_update</title>
<ellipse fill="none" stroke="black" cx="328.82" cy="-306.21" rx="97.94" ry="18"/>
<text text-anchor="middle" x="328.82" y="-303.71" font-family="Helvetica,sans-Serif" font-size="10.00">cmd_project_board_status_update</text>
</g>
<!-- skill_workflow_setup&#45;&gt;cmd_project_board_status_update -->
<g id="edge3" class="edge">
<title>skill_workflow_setup&#45;&gt;cmd_project_board_status_update</title>
<path fill="none" stroke="black" d="M152.89,-285.1C178.63,-288.21 208.64,-291.83 236.47,-295.19"/>
<polygon fill="black" stroke="black" points="236.26,-298.69 246.61,-296.41 237.1,-291.74 236.26,-298.69"/>
</g>
<!-- cmd_crg_auto_build -->
<g id="node22" class="node">
<title>cmd_crg_auto_build</title>
<ellipse fill="none" stroke="black" cx="328.82" cy="-248.21" rx="61.44" ry="18"/>
<text text-anchor="middle" x="328.82" y="-245.71" font-family="Helvetica,sans-Serif" font-size="10.00">cmd_crg_auto_build</text>
</g>
<!-- skill_workflow_setup&#45;&gt;cmd_crg_auto_build -->
<g id="edge4" class="edge">
<title>skill_workflow_setup&#45;&gt;cmd_crg_auto_build</title>
<path fill="none" stroke="black" d="M152.89,-269.33C186.64,-265.25 227.73,-260.29 261.6,-256.2"/>
<polygon fill="black" stroke="black" points="262.36,-259.64 271.87,-254.97 261.52,-252.69 262.36,-259.64"/>
</g>
<!-- cmd_opsx_propose -->
<g id="node23" class="node">
<title>cmd_opsx_propose</title>
<ellipse fill="none" stroke="black" cx="328.82" cy="-190.21" rx="59.41" ry="18"/>
<text text-anchor="middle" x="328.82" y="-187.71" font-family="Helvetica,sans-Serif" font-size="10.00">cmd_opsx_propose</text>
</g>
<!-- skill_workflow_setup&#45;&gt;cmd_opsx_propose -->
<g id="edge5" class="edge">
<title>skill_workflow_setup&#45;&gt;cmd_opsx_propose</title>
<path fill="none" stroke="black" d="M132.6,-260.97C145.72,-256.08 160.04,-250.57 173.1,-245.21 199.23,-234.48 204.62,-229.07 231.1,-219.21 244.71,-214.14 259.65,-209.32 273.63,-205.11"/>
<polygon fill="black" stroke="black" points="275.01,-208.35 283.6,-202.16 273.02,-201.64 275.01,-208.35"/>
</g>
<!-- cmd_ac_extract -->
<g id="node24" class="node">
<title>cmd_ac_extract</title>
<ellipse fill="none" stroke="black" cx="328.82" cy="-132.21" rx="50.75" ry="18"/>
<text text-anchor="middle" x="328.82" y="-129.71" font-family="Helvetica,sans-Serif" font-size="10.00">cmd_ac_extract</text>
</g>
<!-- skill_workflow_setup&#45;&gt;cmd_ac_extract -->
<g id="edge6" class="edge">
<title>skill_workflow_setup&#45;&gt;cmd_ac_extract</title>
<path fill="none" stroke="black" d="M140.41,-263.17C151.89,-258.61 163.47,-252.72 173.1,-245.21 208.88,-217.32 194.41,-187.9 231.1,-161.21 243.19,-152.42 257.97,-146.26 272.29,-141.96"/>
<polygon fill="black" stroke="black" points="273.38,-145.3 282.1,-139.28 271.53,-138.54 273.38,-145.3"/>
</g>
<!-- skill_workflow_test_ready -->
<g id="node6" class="node">
<title>skill_workflow_test_ready</title>
<ellipse fill="#e8f5e9" stroke="black" cx="86.55" cy="-341.21" rx="85.62" ry="21.43"/>
<text text-anchor="middle" x="86.55" y="-344.21" font-family="Helvetica,sans-Serif" font-size="10.00">dev:workflow&#45;test&#45;ready</text>
<text text-anchor="middle" x="86.55" y="-333.21" font-family="Helvetica,sans-Serif" font-size="10.00">(260 tok)</text>
</g>
<!-- cmd_self_improve_review -->
<g id="node7" class="node">
<title>cmd_self_improve_review</title>
<polygon fill="#ffcdd2" stroke="black" points="137.05,-420.21 36.05,-420.21 36.05,-384.21 137.05,-384.21 137.05,-420.21"/>
<text text-anchor="middle" x="86.55" y="-405.21" font-family="Helvetica,sans-Serif" font-size="10.00">self&#45;improve&#45;review</text>
<text text-anchor="middle" x="86.55" y="-394.21" font-family="Helvetica,sans-Serif" font-size="10.00">(1,086 tok)</text>
</g>
<!-- cmd_worktree_list -->
<g id="node8" class="node">
<title>cmd_worktree_list</title>
<polygon fill="#ffcdd2" stroke="black" points="121.55,-478.21 51.55,-478.21 51.55,-442.21 121.55,-442.21 121.55,-478.21"/>
<text text-anchor="middle" x="86.55" y="-463.21" font-family="Helvetica,sans-Serif" font-size="10.00">worktree&#45;list</text>
<text text-anchor="middle" x="86.55" y="-452.21" font-family="Helvetica,sans-Serif" font-size="10.00">(200 tok)</text>
</g>
<!-- cmd_opsx_apply -->
<g id="node9" class="node">
<title>cmd_opsx_apply</title>
<polygon fill="#ffcdd2" stroke="black" points="118.55,-536.21 54.55,-536.21 54.55,-500.21 118.55,-500.21 118.55,-536.21"/>
<text text-anchor="middle" x="86.55" y="-521.21" font-family="Helvetica,sans-Serif" font-size="10.00">opsx&#45;apply</text>
<text text-anchor="middle" x="86.55" y="-510.21" font-family="Helvetica,sans-Serif" font-size="10.00">(239 tok)</text>
</g>
<!-- cmd_opsx_archive -->
<g id="node10" class="node">
<title>cmd_opsx_archive</title>
<polygon fill="#ffcdd2" stroke="black" points="122.55,-594.21 50.55,-594.21 50.55,-558.21 122.55,-558.21 122.55,-594.21"/>
<text text-anchor="middle" x="86.55" y="-579.21" font-family="Helvetica,sans-Serif" font-size="10.00">opsx&#45;archive</text>
<text text-anchor="middle" x="86.55" y="-568.21" font-family="Helvetica,sans-Serif" font-size="10.00">(238 tok)</text>
</g>
<!-- script_state_read -->
<g id="node11" class="node">
<title>script_state_read</title>
<polygon fill="#ff9800" stroke="black" points="135.53,-640.21 111.04,-664.7 62.06,-664.7 37.57,-640.21 62.06,-615.72 111.04,-615.72 135.53,-640.21"/>
<text text-anchor="middle" x="86.55" y="-643.21" font-family="Helvetica,sans-Serif" font-size="10.00">state&#45;read</text>
<text text-anchor="middle" x="86.55" y="-632.21" font-family="Helvetica,sans-Serif" font-size="10.00">(749 tok)</text>
</g>
<!-- script_state_write -->
<g id="node12" class="node">
<title>script_state_write</title>
<polygon fill="#ff9800" stroke="black" points="137.93,-711.21 112.24,-735.7 60.86,-735.7 35.17,-711.21 60.86,-686.72 112.24,-686.72 137.93,-711.21"/>
<text text-anchor="middle" x="86.55" y="-714.21" font-family="Helvetica,sans-Serif" font-size="10.00">state&#45;write</text>
<text text-anchor="middle" x="86.55" y="-703.21" font-family="Helvetica,sans-Serif" font-size="10.00">(1,995 tok)</text>
</g>
<!-- script_autopilot_init -->
<g id="node13" class="node">
<title>script_autopilot_init</title>
<polygon fill="#ff9800" stroke="black" points="142.73,-782.21 114.64,-806.7 58.46,-806.7 30.37,-782.21 58.46,-757.72 114.64,-757.72 142.73,-782.21"/>
<text text-anchor="middle" x="86.55" y="-785.21" font-family="Helvetica,sans-Serif" font-size="10.00">autopilot&#45;init</text>
<text text-anchor="middle" x="86.55" y="-774.21" font-family="Helvetica,sans-Serif" font-size="10.00">(1,074 tok)</text>
</g>
<!-- script_session_create -->
<g id="node14" class="node">
<title>script_session_create</title>
<polygon fill="#ff9800" stroke="black" points="151.69,-853.21 119.12,-877.7 53.98,-877.7 21.41,-853.21 53.98,-828.72 119.12,-828.72 151.69,-853.21"/>
<text text-anchor="middle" x="86.55" y="-856.21" font-family="Helvetica,sans-Serif" font-size="10.00">session&#45;create</text>
<text text-anchor="middle" x="86.55" y="-845.21" font-family="Helvetica,sans-Serif" font-size="10.00">(613 tok)</text>
</g>
<!-- script_session_archive -->
<g id="node15" class="node">
<title>script_session_archive</title>
<polygon fill="#ff9800" stroke="black" points="155.85,-924.21 121.2,-948.7 51.9,-948.7 17.24,-924.21 51.9,-899.72 121.2,-899.72 155.85,-924.21"/>
<text text-anchor="middle" x="86.55" y="-927.21" font-family="Helvetica,sans-Serif" font-size="10.00">session&#45;archive</text>
<text text-anchor="middle" x="86.55" y="-916.21" font-family="Helvetica,sans-Serif" font-size="10.00">(451 tok)</text>
</g>
<!-- script_session_add_warning -->
<g id="node16" class="node">
<title>script_session_add_warning</title>
<polygon fill="#ff9800" stroke="black" points="173.15,-995.21 129.85,-1019.7 43.25,-1019.7 -0.05,-995.21 43.25,-970.72 129.85,-970.72 173.15,-995.21"/>
<text text-anchor="middle" x="86.55" y="-998.21" font-family="Helvetica,sans-Serif" font-size="10.00">session&#45;add&#45;warning</text>
<text text-anchor="middle" x="86.55" y="-987.21" font-family="Helvetica,sans-Serif" font-size="10.00">(532 tok)</text>
</g>
<!-- script_worktree_delete -->
<g id="node17" class="node">
<title>script_worktree_delete</title>
<polygon fill="#ff9800" stroke="black" points="154.09,-1066.21 120.32,-1090.7 52.78,-1090.7 19.01,-1066.21 52.78,-1041.72 120.32,-1041.72 154.09,-1066.21"/>
<text text-anchor="middle" x="86.55" y="-1069.21" font-family="Helvetica,sans-Serif" font-size="10.00">worktree&#45;delete</text>
<text text-anchor="middle" x="86.55" y="-1058.21" font-family="Helvetica,sans-Serif" font-size="10.00">(877 tok)</text>
</g>
<!-- script_crash_detect -->
<g id="node18" class="node">
<title>script_crash_detect</title>
<polygon fill="#ff9800" stroke="black" points="144.49,-1137.21 115.52,-1161.7 57.58,-1161.7 28.61,-1137.21 57.58,-1112.72 115.52,-1112.72 144.49,-1137.21"/>
<text text-anchor="middle" x="86.55" y="-1140.21" font-family="Helvetica,sans-Serif" font-size="10.00">crash&#45;detect</text>
<text text-anchor="middle" x="86.55" y="-1129.21" font-family="Helvetica,sans-Serif" font-size="10.00">(700 tok)</text>
</g>
<!-- legend_controller -->
<g id="node25" class="node">
<title>legend_controller</title>
<ellipse fill="#c8e6c9" stroke="black" cx="86.55" cy="-1433.21" rx="50.07" ry="18"/>
<text text-anchor="middle" x="86.55" y="-1430.71" font-family="Helvetica,sans-Serif" font-size="10.00">Controller (skill)</text>
</g>
<!-- legend_workflow -->
<g id="node26" class="node">
<title>legend_workflow</title>
<ellipse fill="#e8f5e9" stroke="black" cx="86.55" cy="-1375.21" rx="48.72" ry="18"/>
<text text-anchor="middle" x="86.55" y="-1372.71" font-family="Helvetica,sans-Serif" font-size="10.00">Workflow (skill)</text>
</g>
<!-- legend_atomic -->
<g id="node27" class="node">
<title>legend_atomic</title>
<polygon fill="#e3f2fd" stroke="black" points="136.05,-1335.21 37.05,-1335.21 37.05,-1299.21 136.05,-1299.21 136.05,-1335.21"/>
<text text-anchor="middle" x="86.55" y="-1314.71" font-family="Helvetica,sans-Serif" font-size="10.00">Atomic (command)</text>
</g>
<!-- legend_script -->
<g id="node28" class="node">
<title>legend_script</title>
<polygon fill="#ff9800" stroke="black" points="115.15,-1259.21 100.85,-1277.21 72.25,-1277.21 57.95,-1259.21 72.25,-1241.21 100.85,-1241.21 115.15,-1259.21"/>
<text text-anchor="middle" x="86.55" y="-1256.71" font-family="Helvetica,sans-Serif" font-size="10.00">Script</text>
</g>
<!-- legend_orphan -->
<g id="node29" class="node">
<title>legend_orphan</title>
<polygon fill="#ffcdd2" stroke="black" points="113.55,-1219.21 59.55,-1219.21 59.55,-1183.21 113.55,-1183.21 113.55,-1219.21"/>
<text text-anchor="middle" x="86.55" y="-1198.71" font-family="Helvetica,sans-Serif" font-size="10.00">Orphan</text>
</g>
</g>
</svg>
