<?xml version="1.0" encoding="UTF-8" standalone="no"?>
<!DOCTYPE svg PUBLIC "-//W3C//DTD SVG 1.1//EN"
 "http://www.w3.org/Graphics/SVG/1.1/DTD/svg11.dtd">
<!-- Generated by graphviz version 2.43.0 (0)
 -->
<!-- Title: Dependencies Pages: 1 -->
<svg width="327pt" height="879pt"
 viewBox="0.00 0.00 326.62 879.00" xmlns="http://www.w3.org/2000/svg" xmlns:xlink="http://www.w3.org/1999/xlink">
<g id="graph0" class="graph" transform="scale(1 1) rotate(0) translate(4 875)">
<title>Dependencies</title>
<polygon fill="white" stroke="transparent" points="-4,4 -4,-875 322.62,-875 322.62,4 -4,4"/>
<text text-anchor="middle" x="159.31" y="-855.8" font-family="Helvetica,sans-Serif" font-size="14.00">co&#45;autopilot</text>
<!-- skill_co_autopilot -->
<g id="node1" class="node">
<title>skill_co_autopilot</title>
<ellipse fill="#c8e6c9" stroke="black" cx="60.81" cy="-424" rx="60.62" ry="21.43"/>
<text text-anchor="middle" x="60.81" y="-427" font-family="Helvetica,sans-Serif" font-size="10.00">dev:co&#45;autopilot</text>
<text text-anchor="middle" x="60.81" y="-416" font-family="Helvetica,sans-Serif" font-size="10.00">(1,254 tok)</text>
</g>
<!-- cmd_self_improve_collect -->
<g id="node2" class="node">
<title>cmd_self_improve_collect</title>
<polygon fill="#e3f2fd" stroke="black" points="299.62,-210 198.62,-210 198.62,-174 299.62,-174 299.62,-210"/>
<text text-anchor="middle" x="249.12" y="-195" font-family="Helvetica,sans-Serif" font-size="10.00">self&#45;improve&#45;collect</text>
<text text-anchor="middle" x="249.12" y="-184" font-family="Helvetica,sans-Serif" font-size="10.00">(910 tok)</text>
</g>
<!-- skill_co_autopilot&#45;&gt;cmd_self_improve_collect -->
<g id="edge12" class="edge">
<title>skill_co_autopilot&#45;&gt;cmd_self_improve_collect</title>
<path fill="none" stroke="black" d="M68.87,-402.93C83.44,-362.44 120.49,-273.15 179.62,-221 182.64,-218.34 185.94,-215.89 189.41,-213.65"/>
<polygon fill="black" stroke="black" points="191.41,-216.54 198.31,-208.5 187.9,-210.48 191.41,-216.54"/>
</g>
<!-- cmd_self_improve_propose -->
<g id="node3" class="node">
<title>cmd_self_improve_propose</title>
<polygon fill="#e3f2fd" stroke="black" points="302.62,-152 195.62,-152 195.62,-116 302.62,-116 302.62,-152"/>
<text text-anchor="middle" x="249.12" y="-137" font-family="Helvetica,sans-Serif" font-size="10.00">self&#45;improve&#45;propose</text>
<text text-anchor="middle" x="249.12" y="-126" font-family="Helvetica,sans-Serif" font-size="10.00">(1,205 tok)</text>
</g>
<!-- skill_co_autopilot&#45;&gt;cmd_self_improve_propose -->
<g id="edge13" class="edge">
<title>skill_co_autopilot&#45;&gt;cmd_self_improve_propose</title>
<path fill="none" stroke="black" d="M65.89,-402.7C76.28,-353.9 108.14,-232.82 179.62,-163 181.79,-160.89 184.13,-158.91 186.6,-157.08"/>
<polygon fill="black" stroke="black" points="188.94,-159.73 195.41,-151.35 185.12,-153.87 188.94,-159.73"/>
</g>
<!-- cmd_self_improve_close -->
<g id="node4" class="node">
<title>cmd_self_improve_close</title>
<polygon fill="#e3f2fd" stroke="black" points="297.12,-94 201.12,-94 201.12,-58 297.12,-58 297.12,-94"/>
<text text-anchor="middle" x="249.12" y="-79" font-family="Helvetica,sans-Serif" font-size="10.00">self&#45;improve&#45;close</text>
<text text-anchor="middle" x="249.12" y="-68" font-family="Helvetica,sans-Serif" font-size="10.00">(691 tok)</text>
</g>
<!-- skill_co_autopilot&#45;&gt;cmd_self_improve_close -->
<g id="edge14" class="edge">
<title>skill_co_autopilot&#45;&gt;cmd_self_improve_close</title>
<path fill="none" stroke="black" d="M63.88,-402.72C70.42,-346.67 95.45,-193.2 179.62,-105 183.26,-101.19 187.48,-97.85 192.01,-94.94"/>
<polygon fill="black" stroke="black" points="194.03,-97.82 201.01,-89.85 190.58,-91.72 194.03,-97.82"/>
</g>
<!-- cmd_ecc_monitor -->
<g id="node5" class="node">
<title>cmd_ecc_monitor</title>
<polygon fill="#e3f2fd" stroke="black" points="283.12,-36 215.12,-36 215.12,0 283.12,0 283.12,-36"/>
<text text-anchor="middle" x="249.12" y="-21" font-family="Helvetica,sans-Serif" font-size="10.00">ecc&#45;monitor</text>
<text text-anchor="middle" x="249.12" y="-10" font-family="Helvetica,sans-Serif" font-size="10.00">(1,172 tok)</text>
</g>
<!-- skill_co_autopilot&#45;&gt;cmd_ecc_monitor -->
<g id="edge15" class="edge">
<title>skill_co_autopilot&#45;&gt;cmd_ecc_monitor</title>
<path fill="none" stroke="black" d="M62.46,-402.64C65.5,-339.91 82.65,-153.93 179.62,-47 186.58,-39.32 195.91,-33.61 205.44,-29.38"/>
<polygon fill="black" stroke="black" points="206.93,-32.56 214.95,-25.63 204.37,-26.04 206.93,-32.56"/>
</g>
<!-- cmd_autopilot_init -->
<g id="node6" class="node">
<title>cmd_autopilot_init</title>
<polygon fill="#e3f2fd" stroke="black" points="283.62,-848 214.62,-848 214.62,-812 283.62,-812 283.62,-848"/>
<text text-anchor="middle" x="249.12" y="-833" font-family="Helvetica,sans-Serif" font-size="10.00">autopilot&#45;init</text>
<text text-anchor="middle" x="249.12" y="-822" font-family="Helvetica,sans-Serif" font-size="10.00">(527 tok)</text>
</g>
<!-- skill_co_autopilot&#45;&gt;cmd_autopilot_init -->
<g id="edge1" class="edge">
<title>skill_co_autopilot&#45;&gt;cmd_autopilot_init</title>
<path fill="none" stroke="black" d="M62.46,-445.36C65.5,-508.09 82.65,-694.07 179.62,-801 186.52,-808.61 195.74,-814.28 205.17,-818.5"/>
<polygon fill="black" stroke="black" points="204.01,-821.8 214.6,-822.24 206.6,-815.3 204.01,-821.8"/>
</g>
<!-- cmd_autopilot_launch -->
<g id="node7" class="node">
<title>cmd_autopilot_launch</title>
<polygon fill="#e3f2fd" stroke="black" points="291.62,-790 206.62,-790 206.62,-754 291.62,-754 291.62,-790"/>
<text text-anchor="middle" x="249.12" y="-775" font-family="Helvetica,sans-Serif" font-size="10.00">autopilot&#45;launch</text>
<text text-anchor="middle" x="249.12" y="-764" font-family="Helvetica,sans-Serif" font-size="10.00">(915 tok)</text>
</g>
<!-- skill_co_autopilot&#45;&gt;cmd_autopilot_launch -->
<g id="edge2" class="edge">
<title>skill_co_autopilot&#45;&gt;cmd_autopilot_launch</title>
<path fill="none" stroke="black" d="M63.88,-445.28C70.42,-501.33 95.45,-654.8 179.62,-743 184.65,-748.27 190.78,-752.62 197.29,-756.21"/>
<polygon fill="black" stroke="black" points="195.82,-759.38 206.34,-760.64 198.9,-753.09 195.82,-759.38"/>
</g>
<!-- cmd_autopilot_poll -->
<g id="node8" class="node">
<title>cmd_autopilot_poll</title>
<polygon fill="#e3f2fd" stroke="black" points="284.62,-732 213.62,-732 213.62,-696 284.62,-696 284.62,-732"/>
<text text-anchor="middle" x="249.12" y="-717" font-family="Helvetica,sans-Serif" font-size="10.00">autopilot&#45;poll</text>
<text text-anchor="middle" x="249.12" y="-706" font-family="Helvetica,sans-Serif" font-size="10.00">(877 tok)</text>
</g>
<!-- skill_co_autopilot&#45;&gt;cmd_autopilot_poll -->
<g id="edge3" class="edge">
<title>skill_co_autopilot&#45;&gt;cmd_autopilot_poll</title>
<path fill="none" stroke="black" d="M65.89,-445.3C76.28,-494.1 108.14,-615.18 179.62,-685 186.55,-691.76 195.29,-697.05 204.19,-701.15"/>
<polygon fill="black" stroke="black" points="202.88,-704.4 213.46,-705 205.57,-697.93 202.88,-704.4"/>
</g>
<!-- cmd_autopilot_phase_execute -->
<g id="node9" class="node">
<title>cmd_autopilot_phase_execute</title>
<polygon fill="#e3f2fd" stroke="black" points="309.12,-674 189.12,-674 189.12,-638 309.12,-638 309.12,-674"/>
<text text-anchor="middle" x="249.12" y="-659" font-family="Helvetica,sans-Serif" font-size="10.00">autopilot&#45;phase&#45;execute</text>
<text text-anchor="middle" x="249.12" y="-648" font-family="Helvetica,sans-Serif" font-size="10.00">(1,407 tok)</text>
</g>
<!-- skill_co_autopilot&#45;&gt;cmd_autopilot_phase_execute -->
<g id="edge4" class="edge">
<title>skill_co_autopilot&#45;&gt;cmd_autopilot_phase_execute</title>
<path fill="none" stroke="black" d="M68.87,-445.07C83.44,-485.56 120.49,-574.85 179.62,-627 181.85,-628.96 184.22,-630.81 186.71,-632.54"/>
<polygon fill="black" stroke="black" points="185.16,-635.69 195.5,-637.99 188.85,-629.74 185.16,-635.69"/>
</g>
<!-- cmd_autopilot_phase_postprocess -->
<g id="node10" class="node">
<title>cmd_autopilot_phase_postprocess</title>
<polygon fill="#e3f2fd" stroke="black" points="318.62,-616 179.62,-616 179.62,-580 318.62,-580 318.62,-616"/>
<text text-anchor="middle" x="249.12" y="-601" font-family="Helvetica,sans-Serif" font-size="10.00">autopilot&#45;phase&#45;postprocess</text>
<text text-anchor="middle" x="249.12" y="-590" font-family="Helvetica,sans-Serif" font-size="10.00">(609 tok)</text>
</g>
<!-- skill_co_autopilot&#45;&gt;cmd_autopilot_phase_postprocess -->
<g id="edge5" class="edge">
<title>skill_co_autopilot&#45;&gt;cmd_autopilot_phase_postprocess</title>
<path fill="none" stroke="black" d="M74.14,-444.96C93.23,-475.85 132.69,-533.73 179.62,-569 182.44,-571.12 185.44,-573.12 188.55,-575"/>
<polygon fill="black" stroke="black" points="187.09,-578.19 197.54,-579.97 190.48,-572.07 187.09,-578.19"/>
</g>
<!-- cmd_autopilot_collect -->
<g id="node11" class="node">
<title>cmd_autopilot_collect</title>
<polygon fill="#e3f2fd" stroke="black" points="291.62,-558 206.62,-558 206.62,-522 291.62,-522 291.62,-558"/>
<text text-anchor="middle" x="249.12" y="-543" font-family="Helvetica,sans-Serif" font-size="10.00">autopilot&#45;collect</text>
<text text-anchor="middle" x="249.12" y="-532" font-family="Helvetica,sans-Serif" font-size="10.00">(523 tok)</text>
</g>
<!-- skill_co_autopilot&#45;&gt;cmd_autopilot_collect -->
<g id="edge6" class="edge">
<title>skill_co_autopilot&#45;&gt;cmd_autopilot_collect</title>
<path fill="none" stroke="black" d="M85.04,-443.74C108.03,-462.62 144.73,-491.1 179.62,-511 185.14,-514.15 191.07,-517.16 197.05,-519.97"/>
<polygon fill="black" stroke="black" points="195.88,-523.28 206.43,-524.2 198.76,-516.9 195.88,-523.28"/>
</g>
<!-- cmd_autopilot_retrospective -->
<g id="node12" class="node">
<title>cmd_autopilot_retrospective</title>
<polygon fill="#e3f2fd" stroke="black" points="305.62,-500 192.62,-500 192.62,-464 305.62,-464 305.62,-500"/>
<text text-anchor="middle" x="249.12" y="-485" font-family="Helvetica,sans-Serif" font-size="10.00">autopilot&#45;retrospective</text>
<text text-anchor="middle" x="249.12" y="-474" font-family="Helvetica,sans-Serif" font-size="10.00">(741 tok)</text>
</g>
<!-- skill_co_autopilot&#45;&gt;cmd_autopilot_retrospective -->
<g id="edge7" class="edge">
<title>skill_co_autopilot&#45;&gt;cmd_autopilot_retrospective</title>
<path fill="none" stroke="black" d="M106.91,-438.04C129.63,-445.11 157.61,-453.82 182.65,-461.62"/>
<polygon fill="black" stroke="black" points="181.86,-465.04 192.45,-464.67 183.94,-458.35 181.86,-465.04"/>
</g>
<!-- cmd_autopilot_patterns -->
<g id="node13" class="node">
<title>cmd_autopilot_patterns</title>
<polygon fill="#e3f2fd" stroke="black" points="295.12,-442 203.12,-442 203.12,-406 295.12,-406 295.12,-442"/>
<text text-anchor="middle" x="249.12" y="-427" font-family="Helvetica,sans-Serif" font-size="10.00">autopilot&#45;patterns</text>
<text text-anchor="middle" x="249.12" y="-416" font-family="Helvetica,sans-Serif" font-size="10.00">(692 tok)</text>
</g>
<!-- skill_co_autopilot&#45;&gt;cmd_autopilot_patterns -->
<g id="edge8" class="edge">
<title>skill_co_autopilot&#45;&gt;cmd_autopilot_patterns</title>
<path fill="none" stroke="black" d="M121.79,-424C144.66,-424 170.61,-424 193.02,-424"/>
<polygon fill="black" stroke="black" points="193.04,-427.5 203.04,-424 193.04,-420.5 193.04,-427.5"/>
</g>
<!-- cmd_autopilot_cross_issue -->
<g id="node14" class="node">
<title>cmd_autopilot_cross_issue</title>
<polygon fill="#e3f2fd" stroke="black" points="302.62,-384 195.62,-384 195.62,-348 302.62,-348 302.62,-384"/>
<text text-anchor="middle" x="249.12" y="-369" font-family="Helvetica,sans-Serif" font-size="10.00">autopilot&#45;cross&#45;issue</text>
<text text-anchor="middle" x="249.12" y="-358" font-family="Helvetica,sans-Serif" font-size="10.00">(768 tok)</text>
</g>
<!-- skill_co_autopilot&#45;&gt;cmd_autopilot_cross_issue -->
<g id="edge9" class="edge">
<title>skill_co_autopilot&#45;&gt;cmd_autopilot_cross_issue</title>
<path fill="none" stroke="black" d="M106.91,-409.96C130.59,-402.59 159.98,-393.44 185.81,-385.4"/>
<polygon fill="black" stroke="black" points="187,-388.69 195.51,-382.38 184.92,-382.01 187,-388.69"/>
</g>
<!-- cmd_autopilot_summary -->
<g id="node15" class="node">
<title>cmd_autopilot_summary</title>
<polygon fill="#e3f2fd" stroke="black" points="297.62,-326 200.62,-326 200.62,-290 297.62,-290 297.62,-326"/>
<text text-anchor="middle" x="249.12" y="-311" font-family="Helvetica,sans-Serif" font-size="10.00">autopilot&#45;summary</text>
<text text-anchor="middle" x="249.12" y="-300" font-family="Helvetica,sans-Serif" font-size="10.00">(1,170 tok)</text>
</g>
<!-- skill_co_autopilot&#45;&gt;cmd_autopilot_summary -->
<g id="edge10" class="edge">
<title>skill_co_autopilot&#45;&gt;cmd_autopilot_summary</title>
<path fill="none" stroke="black" d="M85.04,-404.26C108.03,-385.38 144.73,-356.9 179.62,-337 183.58,-334.74 187.74,-332.56 191.99,-330.47"/>
<polygon fill="black" stroke="black" points="193.8,-333.48 201.35,-326.05 190.81,-327.15 193.8,-333.48"/>
</g>
<!-- cmd_session_audit -->
<g id="node16" class="node">
<title>cmd_session_audit</title>
<polygon fill="#e3f2fd" stroke="black" points="286.12,-268 212.12,-268 212.12,-232 286.12,-232 286.12,-268"/>
<text text-anchor="middle" x="249.12" y="-253" font-family="Helvetica,sans-Serif" font-size="10.00">session&#45;audit</text>
<text text-anchor="middle" x="249.12" y="-242" font-family="Helvetica,sans-Serif" font-size="10.00">(959 tok)</text>
</g>
<!-- skill_co_autopilot&#45;&gt;cmd_session_audit -->
<g id="edge11" class="edge">
<title>skill_co_autopilot&#45;&gt;cmd_session_audit</title>
<path fill="none" stroke="black" d="M74.14,-403.04C93.23,-372.15 132.69,-314.27 179.62,-279 186.52,-273.81 194.49,-269.36 202.5,-265.61"/>
<polygon fill="black" stroke="black" points="204.09,-268.73 211.85,-261.52 201.29,-262.32 204.09,-268.73"/>
</g>
<!-- cmd_self_improve_collect&#45;&gt;cmd_self_improve_propose -->
<!-- cmd_self_improve_propose&#45;&gt;cmd_self_improve_close -->
<!-- cmd_self_improve_close&#45;&gt;cmd_ecc_monitor -->
<!-- cmd_autopilot_init&#45;&gt;cmd_autopilot_launch -->
<!-- cmd_autopilot_launch&#45;&gt;cmd_autopilot_poll -->
<!-- cmd_autopilot_poll&#45;&gt;cmd_autopilot_phase_execute -->
<!-- cmd_autopilot_phase_execute&#45;&gt;cmd_autopilot_phase_postprocess -->
<!-- cmd_autopilot_phase_postprocess&#45;&gt;cmd_autopilot_collect -->
<!-- cmd_autopilot_collect&#45;&gt;cmd_autopilot_retrospective -->
<!-- cmd_autopilot_retrospective&#45;&gt;cmd_autopilot_patterns -->
<!-- cmd_autopilot_patterns&#45;&gt;cmd_autopilot_cross_issue -->
<!-- cmd_autopilot_cross_issue&#45;&gt;cmd_autopilot_summary -->
<!-- cmd_autopilot_summary&#45;&gt;cmd_session_audit -->
<!-- cmd_session_audit&#45;&gt;cmd_self_improve_collect -->
</g>
</svg>
