<?xml version="1.0" encoding="UTF-8" standalone="no"?>
<!DOCTYPE svg PUBLIC "-//W3C//DTD SVG 1.1//EN"
 "http://www.w3.org/Graphics/SVG/1.1/DTD/svg11.dtd">
<!-- Generated by graphviz version 2.43.0 (0)
 -->
<!-- Title: Dependencies Pages: 1 -->
<svg width="1355pt" height="621pt"
 viewBox="0.00 0.00 1355.45 621.00" xmlns="http://www.w3.org/2000/svg" xmlns:xlink="http://www.w3.org/1999/xlink">
<g id="graph0" class="graph" transform="scale(1 1) rotate(0) translate(4 617)">
<title>Dependencies</title>
<polygon fill="white" stroke="transparent" points="-4,4 -4,-617 1351.45,-617 1351.45,4 -4,4"/>
<text text-anchor="middle" x="673.73" y="-597.8" font-family="Helvetica,sans-Serif" font-size="14.00">co&#45;issue</text>
<!-- skill_co_issue -->
<g id="node1" class="node">
<title>skill_co_issue</title>
<ellipse fill="#c8e6c9" stroke="black" cx="50.91" cy="-256" rx="50.82" ry="21.43"/>
<text text-anchor="middle" x="50.91" y="-259" font-family="Helvetica,sans-Serif" font-size="10.00">dev:co&#45;issue</text>
<text text-anchor="middle" x="50.91" y="-248" font-family="Helvetica,sans-Serif" font-size="10.00">(3,445 tok)</text>
</g>
<!-- cmd_issue_structure -->
<g id="node2" class="node">
<title>cmd_issue_structure</title>
<polygon fill="#e3f2fd" stroke="black" points="258.32,-532 177.32,-532 177.32,-496 258.32,-496 258.32,-532"/>
<text text-anchor="middle" x="217.82" y="-517" font-family="Helvetica,sans-Serif" font-size="10.00">issue&#45;structure</text>
<text text-anchor="middle" x="217.82" y="-506" font-family="Helvetica,sans-Serif" font-size="10.00">(1,175 tok)</text>
</g>
<!-- skill_co_issue&#45;&gt;cmd_issue_structure -->
<g id="edge2" class="edge">
<title>skill_co_issue&#45;&gt;cmd_issue_structure</title>
<path fill="none" stroke="black" d="M56.94,-277.32C68.29,-321.27 99.69,-423.02 159.82,-485 162.45,-487.71 165.39,-490.21 168.5,-492.51"/>
<polygon fill="black" stroke="black" points="166.8,-495.58 177.08,-498.14 170.64,-489.73 166.8,-495.58"/>
</g>
<!-- cmd_issue_create -->
<g id="node3" class="node">
<title>cmd_issue_create</title>
<polygon fill="#e3f2fd" stroke="black" points="252.82,-416 182.82,-416 182.82,-380 252.82,-380 252.82,-416"/>
<text text-anchor="middle" x="217.82" y="-401" font-family="Helvetica,sans-Serif" font-size="10.00">issue&#45;create</text>
<text text-anchor="middle" x="217.82" y="-390" font-family="Helvetica,sans-Serif" font-size="10.00">(985 tok)</text>
</g>
<!-- skill_co_issue&#45;&gt;cmd_issue_create -->
<g id="edge4" class="edge">
<title>skill_co_issue&#45;&gt;cmd_issue_create</title>
<path fill="none" stroke="black" d="M67.74,-276.37C87.38,-300.68 122.82,-341.48 159.82,-369 164.17,-372.23 168.92,-375.28 173.78,-378.11"/>
<polygon fill="black" stroke="black" points="172.1,-381.18 182.55,-382.93 175.48,-375.05 172.1,-381.18"/>
</g>
<!-- cmd_issue_bulk_create -->
<g id="node4" class="node">
<title>cmd_issue_bulk_create</title>
<polygon fill="#e3f2fd" stroke="black" points="263.32,-358 172.32,-358 172.32,-322 263.32,-322 263.32,-358"/>
<text text-anchor="middle" x="217.82" y="-343" font-family="Helvetica,sans-Serif" font-size="10.00">issue&#45;bulk&#45;create</text>
<text text-anchor="middle" x="217.82" y="-332" font-family="Helvetica,sans-Serif" font-size="10.00">(1,667 tok)</text>
</g>
<!-- skill_co_issue&#45;&gt;cmd_issue_bulk_create -->
<g id="edge5" class="edge">
<title>skill_co_issue&#45;&gt;cmd_issue_bulk_create</title>
<path fill="none" stroke="black" d="M84.02,-272.37C105.48,-283.31 134.34,-298.02 159.82,-311 163.83,-313.04 167.99,-315.16 172.16,-317.28"/>
<polygon fill="black" stroke="black" points="170.75,-320.49 181.25,-321.9 173.92,-314.25 170.75,-320.49"/>
</g>
<!-- cmd_issue_tech_debt_absorb -->
<g id="node5" class="node">
<title>cmd_issue_tech_debt_absorb</title>
<polygon fill="#e3f2fd" stroke="black" points="275.82,-474 159.82,-474 159.82,-438 275.82,-438 275.82,-474"/>
<text text-anchor="middle" x="217.82" y="-459" font-family="Helvetica,sans-Serif" font-size="10.00">issue&#45;tech&#45;debt&#45;absorb</text>
<text text-anchor="middle" x="217.82" y="-448" font-family="Helvetica,sans-Serif" font-size="10.00">(709 tok)</text>
</g>
<!-- skill_co_issue&#45;&gt;cmd_issue_tech_debt_absorb -->
<g id="edge3" class="edge">
<title>skill_co_issue&#45;&gt;cmd_issue_tech_debt_absorb</title>
<path fill="none" stroke="black" d="M60.63,-276.93C76.09,-311.92 111.31,-382.77 159.82,-427 161.76,-428.77 163.83,-430.46 165.98,-432.06"/>
<polygon fill="black" stroke="black" points="164.38,-435.21 174.64,-437.87 168.28,-429.39 164.38,-435.21"/>
</g>
<!-- cmd_project_board_sync -->
<g id="node6" class="node">
<title>cmd_project_board_sync</title>
<polygon fill="#e3f2fd" stroke="black" points="266.32,-300 169.32,-300 169.32,-264 266.32,-264 266.32,-300"/>
<text text-anchor="middle" x="217.82" y="-285" font-family="Helvetica,sans-Serif" font-size="10.00">project&#45;board&#45;sync</text>
<text text-anchor="middle" x="217.82" y="-274" font-family="Helvetica,sans-Serif" font-size="10.00">(2,745 tok)</text>
</g>
<!-- skill_co_issue&#45;&gt;cmd_project_board_sync -->
<g id="edge6" class="edge">
<title>skill_co_issue&#45;&gt;cmd_project_board_sync</title>
<path fill="none" stroke="black" d="M98.73,-263.38C117.54,-266.35 139.42,-269.8 159.19,-272.91"/>
<polygon fill="black" stroke="black" points="158.89,-276.41 169.32,-274.51 159.98,-269.5 158.89,-276.41"/>
</g>
<!-- cmd_explore -->
<g id="node7" class="node">
<title>cmd_explore</title>
<polygon fill="#e3f2fd" stroke="black" points="249.32,-590 186.32,-590 186.32,-554 249.32,-554 249.32,-590"/>
<text text-anchor="middle" x="217.82" y="-575" font-family="Helvetica,sans-Serif" font-size="10.00">explore</text>
<text text-anchor="middle" x="217.82" y="-564" font-family="Helvetica,sans-Serif" font-size="10.00">(1,490 tok)</text>
</g>
<!-- skill_co_issue&#45;&gt;cmd_explore -->
<g id="edge1" class="edge">
<title>skill_co_issue&#45;&gt;cmd_explore</title>
<path fill="none" stroke="black" d="M54.61,-277.46C62.13,-329.19 87.77,-462.47 159.82,-543 164.71,-548.46 170.87,-553.03 177.31,-556.81"/>
<polygon fill="black" stroke="black" points="175.71,-559.93 186.19,-561.48 178.97,-553.73 175.71,-559.93"/>
</g>
<!-- agent_issue_critic -->
<g id="node8" class="node">
<title>agent_issue_critic</title>
<ellipse fill="#ede7f6" stroke="black" cx="393.22" cy="-282" rx="45.01" ry="21.43"/>
<text text-anchor="middle" x="393.22" y="-285" font-family="Helvetica,sans-Serif" font-size="10.00">issue&#45;critic</text>
<text text-anchor="middle" x="393.22" y="-274" font-family="Helvetica,sans-Serif" font-size="10.00">(1,026 tok)</text>
</g>
<!-- skill_co_issue&#45;&gt;agent_issue_critic -->
<g id="edge7" class="edge">
<title>skill_co_issue&#45;&gt;agent_issue_critic</title>
<path fill="none" stroke="black" stroke-dasharray="5,2" d="M101.04,-251.54C146.54,-248.31 216.01,-245.66 275.82,-253 299.11,-255.86 324.44,-261.82 345.51,-267.59"/>
<polygon fill="black" stroke="black" points="344.6,-270.97 355.18,-270.31 346.5,-264.23 344.6,-270.97"/>
</g>
<!-- agent_issue_feasibility -->
<g id="node9" class="node">
<title>agent_issue_feasibility</title>
<ellipse fill="#ede7f6" stroke="black" cx="393.22" cy="-218" rx="59.29" ry="21.43"/>
<text text-anchor="middle" x="393.22" y="-221" font-family="Helvetica,sans-Serif" font-size="10.00">issue&#45;feasibility</text>
<text text-anchor="middle" x="393.22" y="-210" font-family="Helvetica,sans-Serif" font-size="10.00">(929 tok)</text>
</g>
<!-- skill_co_issue&#45;&gt;agent_issue_feasibility -->
<g id="edge8" class="edge">
<title>skill_co_issue&#45;&gt;agent_issue_feasibility</title>
<path fill="none" stroke="black" stroke-dasharray="5,2" d="M99.97,-250.08C118.65,-247.81 140.23,-245.23 159.82,-243 215.79,-236.62 279.39,-229.81 325.9,-224.91"/>
<polygon fill="black" stroke="black" points="326.27,-228.39 335.85,-223.86 325.53,-221.43 326.27,-228.39"/>
</g>
<!-- skill_ref_issue_template_bug -->
<g id="node10" class="node">
<title>skill_ref_issue_template_bug</title>
<ellipse fill="none" stroke="black" cx="594.8" cy="-218" rx="84.36" ry="18"/>
<text text-anchor="middle" x="594.8" y="-215.5" font-family="Helvetica,sans-Serif" font-size="10.00">skill_ref_issue_template_bug</text>
</g>
<!-- skill_co_issue&#45;&gt;skill_ref_issue_template_bug -->
<g id="edge9" class="edge">
<title>skill_co_issue&#45;&gt;skill_ref_issue_template_bug</title>
<path fill="none" stroke="black" d="M92.49,-243.73C112.66,-237.78 137.44,-230.72 159.82,-225 287.02,-192.51 322.15,-171.4 452.62,-186 479.4,-189 508.51,-195.1 533.31,-201.18"/>
<polygon fill="black" stroke="black" points="532.74,-204.64 543.29,-203.68 534.44,-197.85 532.74,-204.64"/>
</g>
<!-- skill_ref_issue_template_feature -->
<g id="node11" class="node">
<title>skill_ref_issue_template_feature</title>
<ellipse fill="none" stroke="black" cx="829.4" cy="-218" rx="92.34" ry="18"/>
<text text-anchor="middle" x="829.4" y="-215.5" font-family="Helvetica,sans-Serif" font-size="10.00">skill_ref_issue_template_feature</text>
</g>
<!-- skill_co_issue&#45;&gt;skill_ref_issue_template_feature -->
<g id="edge10" class="edge">
<title>skill_co_issue&#45;&gt;skill_ref_issue_template_feature</title>
<path fill="none" stroke="black" d="M75.09,-236.95C95.89,-221.06 127.95,-199.39 159.82,-189 372.82,-119.57 644.27,-171.19 765.27,-200.89"/>
<polygon fill="black" stroke="black" points="764.56,-204.32 775.11,-203.34 766.25,-197.53 764.56,-204.32"/>
</g>
<!-- skill_ref_project_model -->
<g id="node12" class="node">
<title>skill_ref_project_model</title>
<ellipse fill="none" stroke="black" cx="1048.1" cy="-218" rx="68.07" ry="18"/>
<text text-anchor="middle" x="1048.1" y="-215.5" font-family="Helvetica,sans-Serif" font-size="10.00">skill_ref_project_model</text>
</g>
<!-- skill_co_issue&#45;&gt;skill_ref_project_model -->
<g id="edge11" class="edge">
<title>skill_co_issue&#45;&gt;skill_ref_project_model</title>
<path fill="none" stroke="black" d="M68.75,-235.86C114.7,-183.3 248.51,-46 392.22,-46 392.22,-46 392.22,-46 595.8,-46 761.84,-46 941.05,-148.92 1013.7,-195.54"/>
<polygon fill="black" stroke="black" points="1012.13,-198.69 1022.43,-201.19 1015.94,-192.82 1012.13,-198.69"/>
</g>
<!-- skill_ref_issue_quality_criteria -->
<g id="node13" class="node">
<title>skill_ref_issue_quality_criteria</title>
<ellipse fill="none" stroke="black" cx="1260.92" cy="-218" rx="86.57" ry="18"/>
<text text-anchor="middle" x="1260.92" y="-215.5" font-family="Helvetica,sans-Serif" font-size="10.00">skill_ref_issue_quality_criteria</text>
</g>
<!-- skill_co_issue&#45;&gt;skill_ref_issue_quality_criteria -->
<g id="edge12" class="edge">
<title>skill_co_issue&#45;&gt;skill_ref_issue_quality_criteria</title>
<path fill="none" stroke="black" d="M58.48,-234.8C71.48,-196.37 104.14,-115.08 159.82,-71 244.5,-3.97 284.22,0 392.22,0 392.22,0 392.22,0 830.4,0 999.61,0 1169.67,-136.2 1233.52,-193.29"/>
<polygon fill="black" stroke="black" points="1231.36,-196.05 1241.12,-200.16 1236.06,-190.86 1231.36,-196.05"/>
</g>
<!-- cmd_issue_structure&#45;&gt;cmd_issue_tech_debt_absorb -->
<!-- cmd_issue_create&#45;&gt;cmd_issue_bulk_create -->
<!-- cmd_issue_bulk_create&#45;&gt;cmd_project_board_sync -->
<!-- cmd_issue_tech_debt_absorb&#45;&gt;cmd_issue_create -->
<!-- cmd_project_board_sync&#45;&gt;agent_issue_critic -->
<!-- cmd_explore&#45;&gt;cmd_issue_structure -->
<!-- agent_issue_critic&#45;&gt;agent_issue_feasibility -->
<!-- agent_issue_critic&#45;&gt;skill_ref_issue_quality_criteria -->
<g id="edge13" class="edge">
<title>agent_issue_critic&#45;&gt;skill_ref_issue_quality_criteria</title>
<path fill="none" stroke="black" stroke-dasharray="1,5" d="M437.6,-287C550.84,-298.84 864.04,-323.71 1116.38,-270 1150.01,-262.84 1186.41,-249.59 1214.14,-238.25"/>
<polygon fill="black" stroke="black" points="1215.67,-241.41 1223.57,-234.34 1212.99,-234.94 1215.67,-241.41"/>
</g>
<!-- agent_issue_feasibility&#45;&gt;skill_ref_issue_template_bug -->
<!-- agent_issue_feasibility&#45;&gt;skill_ref_issue_quality_criteria -->
<g id="edge14" class="edge">
<title>agent_issue_feasibility&#45;&gt;skill_ref_issue_quality_criteria</title>
<path fill="none" stroke="black" stroke-dasharray="1,5" d="M438.51,-231.74C460.04,-237.72 486.43,-244.03 510.62,-247 777.84,-279.79 848.49,-273.79 1116.38,-247 1142.29,-244.41 1170.43,-239.25 1194.88,-234"/>
<polygon fill="black" stroke="black" points="1195.74,-237.39 1204.76,-231.82 1194.24,-230.55 1195.74,-237.39"/>
</g>
<!-- skill_ref_issue_template_bug&#45;&gt;skill_ref_issue_template_feature -->
<!-- skill_ref_issue_template_feature&#45;&gt;skill_ref_project_model -->
<!-- skill_ref_project_model&#45;&gt;skill_ref_issue_quality_criteria -->
</g>
</svg>
