<?xml version="1.0" encoding="UTF-8" standalone="no"?>
<!DOCTYPE svg PUBLIC "-//W3C//DTD SVG 1.1//EN"
 "http://www.w3.org/Graphics/SVG/1.1/DTD/svg11.dtd">
<!-- Generated by graphviz version 2.43.0 (0)
 -->
<!-- Title: Dependencies Pages: 1 -->
<svg width="1122pt" height="565pt"
 viewBox="0.00 0.00 1121.82 565.49" xmlns="http://www.w3.org/2000/svg" xmlns:xlink="http://www.w3.org/1999/xlink">
<g id="graph0" class="graph" transform="scale(1 1) rotate(0) translate(4 561.49)">
<title>Dependencies</title>
<polygon fill="white" stroke="transparent" points="-4,4 -4,-561.49 1117.82,-561.49 1117.82,4 -4,4"/>
<text text-anchor="middle" x="556.91" y="-542.29" font-family="Helvetica,sans-Serif" font-size="14.00">co&#45;issue</text>
<!-- skill_co_issue -->
<g id="node1" class="node">
<title>skill_co_issue</title>
<ellipse fill="#c8e6c9" stroke="black" cx="53.03" cy="-43.95" rx="53.07" ry="21.43"/>
<text text-anchor="middle" x="53.03" y="-46.95" font-family="Helvetica,sans-Serif" font-size="10.00">twl:co&#45;issue</text>
<text text-anchor="middle" x="53.03" y="-35.95" font-family="Helvetica,sans-Serif" font-size="10.00">(5,408 tok)</text>
</g>
<!-- skill_workflow_issue_lifecycle -->
<g id="node2" class="node">
<title>skill_workflow_issue_lifecycle</title>
<ellipse fill="#e8f5e9" stroke="black" cx="272.25" cy="-135.95" rx="108.38" ry="21.43"/>
<text text-anchor="middle" x="272.25" y="-138.95" font-family="Helvetica,sans-Serif" font-size="10.00">twl:workflow&#45;issue&#45;lifecycle</text>
<text text-anchor="middle" x="272.25" y="-127.95" font-family="Helvetica,sans-Serif" font-size="10.00">(2,432 tok)</text>
</g>
<!-- skill_co_issue&#45;&gt;skill_workflow_issue_lifecycle -->
<g id="edge2" class="edge">
<title>skill_co_issue&#45;&gt;skill_workflow_issue_lifecycle</title>
<path fill="none" stroke="black" d="M82.63,-61.71C104.38,-74.67 135.34,-91.98 164.07,-103.95 174.53,-108.31 185.8,-112.35 196.97,-115.98"/>
<polygon fill="black" stroke="black" points="196.13,-119.39 206.72,-119.06 198.24,-112.71 196.13,-119.39"/>
</g>
<!-- skill_workflow_issue_refine -->
<g id="node3" class="node">
<title>skill_workflow_issue_refine</title>
<ellipse fill="#e8f5e9" stroke="black" cx="272.25" cy="-71.95" rx="98.99" ry="21.43"/>
<text text-anchor="middle" x="272.25" y="-74.95" font-family="Helvetica,sans-Serif" font-size="10.00">twl:workflow&#45;issue&#45;refine</text>
<text text-anchor="middle" x="272.25" y="-63.95" font-family="Helvetica,sans-Serif" font-size="10.00">(2,968 tok)</text>
</g>
<!-- skill_co_issue&#45;&gt;skill_workflow_issue_refine -->
<g id="edge3" class="edge">
<title>skill_co_issue&#45;&gt;skill_workflow_issue_refine</title>
<path fill="none" stroke="black" d="M103.87,-50.37C125.54,-53.17 151.68,-56.54 176.8,-59.77"/>
<polygon fill="black" stroke="black" points="176.37,-63.25 186.73,-61.05 177.26,-56.3 176.37,-63.25"/>
</g>
<!-- cmd_issue_glossary_check -->
<g id="node9" class="node">
<title>cmd_issue_glossary_check</title>
<polygon fill="#e3f2fd" stroke="black" points="563.94,-153.95 444.94,-153.95 444.94,-117.95 563.94,-117.95 563.94,-153.95"/>
<text text-anchor="middle" x="504.44" y="-138.95" font-family="Helvetica,sans-Serif" font-size="10.00">issue&#45;glossary&#45;check</text>
<text text-anchor="middle" x="504.44" y="-127.95" font-family="Helvetica,sans-Serif" font-size="10.00">(899 tok)</text>
</g>
<!-- skill_co_issue&#45;&gt;cmd_issue_glossary_check -->
<g id="edge1" class="edge">
<title>skill_co_issue&#45;&gt;cmd_issue_glossary_check</title>
<path fill="none" stroke="black" d="M99.91,-33.92C164.51,-21.88 285.05,-7.13 380.44,-39.95 420.71,-53.8 457.91,-86.85 480.62,-110.29"/>
<polygon fill="black" stroke="black" points="478.34,-112.97 487.75,-117.83 483.43,-108.16 478.34,-112.97"/>
</g>
<!-- script_issue_lifecycle_orchestrator -->
<g id="node18" class="node">
<title>script_issue_lifecycle_orchestrator</title>
<polygon fill="#ff9800" stroke="black" points="1113.8,-37.95 1052.57,-62.44 930.12,-62.44 868.9,-37.95 930.12,-13.46 1052.57,-13.46 1113.8,-37.95"/>
<text text-anchor="middle" x="991.35" y="-40.95" font-family="Helvetica,sans-Serif" font-size="10.00">issue&#45;lifecycle&#45;orchestrator</text>
<text text-anchor="middle" x="991.35" y="-29.95" font-family="Helvetica,sans-Serif" font-size="10.00">(6,184 tok)</text>
</g>
<!-- skill_co_issue&#45;&gt;script_issue_lifecycle_orchestrator -->
<g id="edge4" class="edge">
<title>skill_co_issue&#45;&gt;script_issue_lifecycle_orchestrator</title>
<path fill="none" stroke="black" d="M95.1,-30.9C115.59,-25.07 140.89,-18.85 164.07,-15.95 422.87,16.46 730.7,-8.24 887.48,-25.29"/>
<polygon fill="black" stroke="black" points="887.26,-28.79 897.58,-26.4 888.03,-21.83 887.26,-28.79"/>
</g>
<!-- skill_workflow_issue_lifecycle&#45;&gt;skill_workflow_issue_refine -->
<!-- cmd_issue_structure -->
<g id="node5" class="node">
<title>cmd_issue_structure</title>
<polygon fill="#e3f2fd" stroke="black" points="548.94,-501.95 459.94,-501.95 459.94,-465.95 548.94,-465.95 548.94,-501.95"/>
<text text-anchor="middle" x="504.44" y="-486.95" font-family="Helvetica,sans-Serif" font-size="10.00">issue&#45;structure</text>
<text text-anchor="middle" x="504.44" y="-475.95" font-family="Helvetica,sans-Serif" font-size="10.00">(1,406 tok)</text>
</g>
<!-- skill_workflow_issue_lifecycle&#45;&gt;cmd_issue_structure -->
<g id="edge5" class="edge">
<title>skill_workflow_issue_lifecycle&#45;&gt;cmd_issue_structure</title>
<path fill="none" stroke="black" d="M278.89,-157.2C294.73,-213.21 344.77,-366.57 438.44,-454.95 442.17,-458.46 446.39,-461.6 450.85,-464.39"/>
<polygon fill="black" stroke="black" points="449.22,-467.49 459.65,-469.33 452.64,-461.38 449.22,-467.49"/>
</g>
<!-- cmd_issue_create -->
<g id="node6" class="node">
<title>cmd_issue_create</title>
<polygon fill="#e3f2fd" stroke="black" points="542.94,-269.95 465.94,-269.95 465.94,-233.95 542.94,-233.95 542.94,-269.95"/>
<text text-anchor="middle" x="504.44" y="-254.95" font-family="Helvetica,sans-Serif" font-size="10.00">issue&#45;create</text>
<text text-anchor="middle" x="504.44" y="-243.95" font-family="Helvetica,sans-Serif" font-size="10.00">(1,192 tok)</text>
</g>
<!-- skill_workflow_issue_lifecycle&#45;&gt;cmd_issue_create -->
<g id="edge9" class="edge">
<title>skill_workflow_issue_lifecycle&#45;&gt;cmd_issue_create</title>
<path fill="none" stroke="black" d="M309.64,-155.99C342.88,-174.08 393.54,-201.14 438.44,-222.95 444.2,-225.75 450.3,-228.6 456.35,-231.38"/>
<polygon fill="black" stroke="black" points="455.23,-234.71 465.78,-235.65 458.12,-228.33 455.23,-234.71"/>
</g>
<!-- cmd_issue_spec_review -->
<g id="node7" class="node">
<title>cmd_issue_spec_review</title>
<polygon fill="#bbdefb" stroke="black" points="556.94,-443.95 451.94,-443.95 451.94,-407.95 556.94,-407.95 556.94,-443.95"/>
<text text-anchor="middle" x="504.44" y="-428.95" font-family="Helvetica,sans-Serif" font-size="10.00">issue&#45;spec&#45;review</text>
<text text-anchor="middle" x="504.44" y="-417.95" font-family="Helvetica,sans-Serif" font-size="10.00">(1,870 tok)</text>
</g>
<!-- skill_workflow_issue_lifecycle&#45;&gt;cmd_issue_spec_review -->
<g id="edge6" class="edge">
<title>skill_workflow_issue_lifecycle&#45;&gt;cmd_issue_spec_review</title>
<path fill="none" stroke="black" d="M281.56,-157.15C301.58,-205.75 356.92,-326.44 438.44,-396.95 440.67,-398.88 443.06,-400.71 445.54,-402.43"/>
<polygon fill="black" stroke="black" points="443.98,-405.57 454.32,-407.87 447.67,-399.63 443.98,-405.57"/>
</g>
<!-- cmd_issue_review_aggregate -->
<g id="node8" class="node">
<title>cmd_issue_review_aggregate</title>
<polygon fill="#e3f2fd" stroke="black" points="570.44,-385.95 438.44,-385.95 438.44,-349.95 570.44,-349.95 570.44,-385.95"/>
<text text-anchor="middle" x="504.44" y="-370.95" font-family="Helvetica,sans-Serif" font-size="10.00">issue&#45;review&#45;aggregate</text>
<text text-anchor="middle" x="504.44" y="-359.95" font-family="Helvetica,sans-Serif" font-size="10.00">(1,157 tok)</text>
</g>
<!-- skill_workflow_issue_lifecycle&#45;&gt;cmd_issue_review_aggregate -->
<g id="edge7" class="edge">
<title>skill_workflow_issue_lifecycle&#45;&gt;cmd_issue_review_aggregate</title>
<path fill="none" stroke="black" d="M285.69,-157.09C310.29,-197.32 368.83,-285.62 438.44,-338.95 441.17,-341.04 444.08,-343.02 447.09,-344.89"/>
<polygon fill="black" stroke="black" points="445.37,-347.94 455.79,-349.85 448.84,-341.86 445.37,-347.94"/>
</g>
<!-- cmd_issue_arch_drift -->
<g id="node10" class="node">
<title>cmd_issue_arch_drift</title>
<polygon fill="#e3f2fd" stroke="black" points="549.44,-327.95 459.44,-327.95 459.44,-291.95 549.44,-291.95 549.44,-327.95"/>
<text text-anchor="middle" x="504.44" y="-312.95" font-family="Helvetica,sans-Serif" font-size="10.00">issue&#45;arch&#45;drift</text>
<text text-anchor="middle" x="504.44" y="-301.95" font-family="Helvetica,sans-Serif" font-size="10.00">(1,079 tok)</text>
</g>
<!-- skill_workflow_issue_lifecycle&#45;&gt;cmd_issue_arch_drift -->
<g id="edge8" class="edge">
<title>skill_workflow_issue_lifecycle&#45;&gt;cmd_issue_arch_drift</title>
<path fill="none" stroke="black" d="M293,-156.9C322.44,-187.25 380.61,-243.88 438.44,-280.95 442.17,-283.34 446.13,-285.63 450.18,-287.8"/>
<polygon fill="black" stroke="black" points="448.64,-290.94 459.14,-292.35 451.81,-284.7 448.64,-290.94"/>
</g>
<!-- cmd_project_board_sync -->
<g id="node11" class="node">
<title>cmd_project_board_sync</title>
<polygon fill="#e3f2fd" stroke="black" points="558.44,-211.95 450.44,-211.95 450.44,-175.95 558.44,-175.95 558.44,-211.95"/>
<text text-anchor="middle" x="504.44" y="-196.95" font-family="Helvetica,sans-Serif" font-size="10.00">project&#45;board&#45;sync</text>
<text text-anchor="middle" x="504.44" y="-185.95" font-family="Helvetica,sans-Serif" font-size="10.00">(1,184 tok)</text>
</g>
<!-- skill_workflow_issue_lifecycle&#45;&gt;cmd_project_board_sync -->
<g id="edge10" class="edge">
<title>skill_workflow_issue_lifecycle&#45;&gt;cmd_project_board_sync</title>
<path fill="none" stroke="black" d="M339.52,-152.65C371.28,-160.65 409.13,-170.19 440.45,-178.08"/>
<polygon fill="black" stroke="black" points="439.82,-181.53 450.38,-180.58 441.53,-174.74 439.82,-181.53"/>
</g>
<!-- script_spec_review_session_init -->
<g id="node17" class="node">
<title>script_spec_review_session_init</title>
<polygon fill="#ff9800" stroke="black" points="1102.44,-195.95 1046.89,-220.44 935.81,-220.44 880.26,-195.95 935.81,-171.46 1046.89,-171.46 1102.44,-195.95"/>
<text text-anchor="middle" x="991.35" y="-198.95" font-family="Helvetica,sans-Serif" font-size="10.00">spec&#45;review&#45;session&#45;init</text>
<text text-anchor="middle" x="991.35" y="-187.95" font-family="Helvetica,sans-Serif" font-size="10.00">(501 tok)</text>
</g>
<!-- skill_workflow_issue_lifecycle&#45;&gt;script_spec_review_session_init -->
<g id="edge11" class="edge">
<title>skill_workflow_issue_lifecycle&#45;&gt;script_spec_review_session_init</title>
<path fill="none" stroke="black" d="M274.89,-157.24C281.29,-223.99 311.03,-429.67 438.44,-512.95 487.74,-545.17 763.86,-540.79 810.87,-500.95 903.19,-422.72 787.52,-324.51 868.87,-234.95 877.45,-225.5 888.32,-218.34 900.01,-212.9"/>
<polygon fill="black" stroke="black" points="901.68,-216 909.54,-208.9 898.96,-209.54 901.68,-216"/>
</g>
<!-- skill_workflow_issue_refine&#45;&gt;cmd_issue_spec_review -->
<g id="edge12" class="edge">
<title>skill_workflow_issue_refine&#45;&gt;cmd_issue_spec_review</title>
<path fill="none" stroke="black" d="M352.29,-84.57C362.88,-89.2 372.73,-95.47 380.44,-103.95 469.76,-202.15 355.66,-293.17 438.44,-396.95 440.06,-398.98 441.85,-400.87 443.77,-402.63"/>
<polygon fill="black" stroke="black" points="441.71,-405.46 451.76,-408.81 445.99,-399.92 441.71,-405.46"/>
</g>
<!-- skill_workflow_issue_refine&#45;&gt;cmd_issue_review_aggregate -->
<g id="edge13" class="edge">
<title>skill_workflow_issue_refine&#45;&gt;cmd_issue_review_aggregate</title>
<path fill="none" stroke="black" d="M351.67,-84.78C362.41,-89.38 372.47,-95.58 380.44,-103.95 454.66,-181.83 369.42,-256.43 438.44,-338.95 439.75,-340.51 441.16,-342 442.65,-343.4"/>
<polygon fill="black" stroke="black" points="440.71,-346.33 450.72,-349.8 445.06,-340.85 440.71,-346.33"/>
</g>
<!-- skill_workflow_issue_refine&#45;&gt;cmd_issue_arch_drift -->
<g id="edge14" class="edge">
<title>skill_workflow_issue_refine&#45;&gt;cmd_issue_arch_drift</title>
<path fill="none" stroke="black" d="M350.58,-85.09C361.6,-89.64 372.02,-95.75 380.44,-103.95 439.75,-161.7 383,-219.48 438.44,-280.95 441.92,-284.81 446.01,-288.18 450.42,-291.12"/>
<polygon fill="black" stroke="black" points="448.8,-294.23 459.2,-296.27 452.34,-288.19 448.8,-294.23"/>
</g>
<!-- skill_workflow_issue_refine&#45;&gt;script_spec_review_session_init -->
<g id="edge15" class="edge">
<title>skill_workflow_issue_refine&#45;&gt;script_spec_review_session_init</title>
<path fill="none" stroke="black" d="M371.01,-73.72C502.93,-76.89 730.65,-85.38 810.87,-106.95 858.35,-119.72 908.13,-145.52 943.18,-166.07"/>
<polygon fill="black" stroke="black" points="941.83,-169.34 952.21,-171.44 945.4,-163.33 941.83,-169.34"/>
</g>
<!-- skill_workflow_issue_refine&#45;&gt;script_issue_lifecycle_orchestrator -->
<!-- skill_ref_glossary_criteria -->
<g id="node4" class="node">
<title>skill_ref_glossary_criteria</title>
<polygon fill="#e1f5fe" stroke="black" points="779.16,-153.95 654.16,-153.95 654.16,-117.95 785.16,-117.95 785.16,-147.95 779.16,-153.95"/>
<polyline fill="none" stroke="black" points="779.16,-153.95 779.16,-147.95 "/>
<polyline fill="none" stroke="black" points="785.16,-147.95 779.16,-147.95 "/>
<text text-anchor="middle" x="719.66" y="-138.95" font-family="Helvetica,sans-Serif" font-size="10.00">twl:ref&#45;glossary&#45;criteria</text>
<text text-anchor="middle" x="719.66" y="-127.95" font-family="Helvetica,sans-Serif" font-size="10.00">(873 tok)</text>
</g>
<!-- cmd_issue_structure&#45;&gt;cmd_issue_spec_review -->
<!-- cmd_issue_create&#45;&gt;cmd_project_board_sync -->
<!-- cmd_issue_spec_review&#45;&gt;cmd_issue_review_aggregate -->
<!-- cmd_issue_spec_review&#45;&gt;cmd_issue_review_aggregate -->
<!-- agent_issue_critic -->
<g id="node12" class="node">
<title>agent_issue_critic</title>
<ellipse fill="#ede7f6" stroke="black" cx="719.66" cy="-468.95" rx="49.49" ry="21.43"/>
<text text-anchor="middle" x="719.66" y="-471.95" font-family="Helvetica,sans-Serif" font-size="10.00">issue&#45;critic</text>
<text text-anchor="middle" x="719.66" y="-460.95" font-family="Helvetica,sans-Serif" font-size="10.00">(1,268 tok)</text>
</g>
<!-- cmd_issue_spec_review&#45;&gt;agent_issue_critic -->
<g id="edge16" class="edge">
<title>cmd_issue_spec_review&#45;&gt;agent_issue_critic</title>
<path fill="none" stroke="black" stroke-dasharray="5,2" d="M557.05,-436.36C589.56,-442.91 631.45,-451.36 664.44,-458.01"/>
<polygon fill="black" stroke="black" points="663.88,-461.47 674.37,-460.02 665.26,-454.61 663.88,-461.47"/>
</g>
<!-- agent_issue_feasibility -->
<g id="node13" class="node">
<title>agent_issue_feasibility</title>
<ellipse fill="#ede7f6" stroke="black" cx="719.66" cy="-404.95" rx="67.35" ry="21.43"/>
<text text-anchor="middle" x="719.66" y="-407.95" font-family="Helvetica,sans-Serif" font-size="10.00">issue&#45;feasibility</text>
<text text-anchor="middle" x="719.66" y="-396.95" font-family="Helvetica,sans-Serif" font-size="10.00">(1,175 tok)</text>
</g>
<!-- cmd_issue_spec_review&#45;&gt;agent_issue_feasibility -->
<g id="edge17" class="edge">
<title>cmd_issue_spec_review&#45;&gt;agent_issue_feasibility</title>
<path fill="none" stroke="black" stroke-dasharray="5,2" d="M557.05,-420.86C583.51,-418.26 616.2,-415.04 645.23,-412.18"/>
<polygon fill="black" stroke="black" points="645.73,-415.65 655.33,-411.19 645.04,-408.68 645.73,-415.65"/>
</g>
<!-- agent_worker_codex_reviewer -->
<g id="node14" class="node">
<title>agent_worker_codex_reviewer</title>
<ellipse fill="#ede7f6" stroke="black" cx="719.66" cy="-340.95" rx="91.43" ry="21.43"/>
<text text-anchor="middle" x="719.66" y="-343.95" font-family="Helvetica,sans-Serif" font-size="10.00">worker&#45;codex&#45;reviewer</text>
<text text-anchor="middle" x="719.66" y="-332.95" font-family="Helvetica,sans-Serif" font-size="10.00">(1,827 tok)</text>
</g>
<!-- cmd_issue_spec_review&#45;&gt;agent_worker_codex_reviewer -->
<g id="edge18" class="edge">
<title>cmd_issue_spec_review&#45;&gt;agent_worker_codex_reviewer</title>
<path fill="none" stroke="black" stroke-dasharray="5,2" d="M545.6,-407.85C569.5,-397.28 600.52,-383.9 628.44,-372.95 637.84,-369.26 647.86,-365.52 657.67,-361.96"/>
<polygon fill="black" stroke="black" points="659.16,-365.15 667.39,-358.47 656.79,-358.56 659.16,-365.15"/>
</g>
<!-- script_escape_issue_body -->
<g id="node15" class="node">
<title>script_escape_issue_body</title>
<polygon fill="#ff9800" stroke="black" points="1079.71,-340.95 1035.53,-365.44 947.17,-365.44 902.99,-340.95 947.17,-316.46 1035.53,-316.46 1079.71,-340.95"/>
<text text-anchor="middle" x="991.35" y="-343.95" font-family="Helvetica,sans-Serif" font-size="10.00">escape&#45;issue&#45;body</text>
<text text-anchor="middle" x="991.35" y="-332.95" font-family="Helvetica,sans-Serif" font-size="10.00">(63 tok)</text>
</g>
<!-- cmd_issue_spec_review&#45;&gt;script_escape_issue_body -->
<g id="edge19" class="edge">
<title>cmd_issue_spec_review&#45;&gt;script_escape_issue_body</title>
<path fill="none" stroke="black" d="M549.91,-443.99C556.93,-447.35 564,-451.04 570.44,-454.95 598.57,-472.01 597.37,-490.12 628.44,-500.95 705.01,-527.63 735.11,-529.82 810.87,-500.95 877.7,-475.49 935.46,-412.45 966.36,-373.53"/>
<polygon fill="black" stroke="black" points="969.15,-375.65 972.54,-365.62 963.63,-371.34 969.15,-375.65"/>
</g>
<!-- script_spec_review_manifest -->
<g id="node16" class="node">
<title>script_spec_review_manifest</title>
<polygon fill="#ff9800" stroke="black" points="1091.71,-269.95 1041.53,-294.44 941.17,-294.44 890.99,-269.95 941.17,-245.46 1041.53,-245.46 1091.71,-269.95"/>
<text text-anchor="middle" x="991.35" y="-272.95" font-family="Helvetica,sans-Serif" font-size="10.00">spec&#45;review&#45;manifest</text>
<text text-anchor="middle" x="991.35" y="-261.95" font-family="Helvetica,sans-Serif" font-size="10.00">(169 tok)</text>
</g>
<!-- cmd_issue_spec_review&#45;&gt;script_spec_review_manifest -->
<g id="edge20" class="edge">
<title>cmd_issue_spec_review&#45;&gt;script_spec_review_manifest</title>
<path fill="none" stroke="black" d="M554.49,-407.79C560.17,-404.63 565.64,-401.03 570.44,-396.95 606.15,-366.63 588.45,-333.34 628.44,-308.95 669.91,-283.65 792.09,-274.67 883.09,-271.54"/>
<polygon fill="black" stroke="black" points="883.3,-275.03 893.18,-271.21 883.08,-268.04 883.3,-275.03"/>
</g>
<!-- cmd_issue_review_aggregate&#45;&gt;cmd_issue_arch_drift -->
<!-- cmd_issue_review_aggregate&#45;&gt;cmd_issue_arch_drift -->
<!-- cmd_issue_glossary_check&#45;&gt;skill_workflow_issue_lifecycle -->
<!-- cmd_issue_glossary_check&#45;&gt;skill_ref_glossary_criteria -->
<g id="edge21" class="edge">
<title>cmd_issue_glossary_check&#45;&gt;skill_ref_glossary_criteria</title>
<path fill="none" stroke="black" d="M563.99,-135.95C588.58,-135.95 617.5,-135.95 643.63,-135.95"/>
<polygon fill="black" stroke="black" points="643.87,-139.45 653.87,-135.95 643.87,-132.45 643.87,-139.45"/>
</g>
<!-- cmd_issue_arch_drift&#45;&gt;cmd_issue_create -->
<!-- cmd_issue_arch_drift&#45;&gt;script_spec_review_session_init -->
<!-- cmd_project_board_sync&#45;&gt;script_spec_review_session_init -->
<!-- agent_issue_critic&#45;&gt;agent_issue_feasibility -->
<!-- agent_issue_feasibility&#45;&gt;agent_worker_codex_reviewer -->
<!-- agent_worker_codex_reviewer&#45;&gt;script_escape_issue_body -->
<!-- script_escape_issue_body&#45;&gt;script_spec_review_manifest -->
</g>
</svg>
