<?xml version="1.0" encoding="UTF-8" standalone="no"?>
<!DOCTYPE svg PUBLIC "-//W3C//DTD SVG 1.1//EN"
 "http://www.w3.org/Graphics/SVG/1.1/DTD/svg11.dtd">
<!-- Generated by graphviz version 2.43.0 (0)
 -->
<!-- Title: Dependencies Pages: 1 -->
<svg width="803pt" height="885pt"
 viewBox="0.00 0.00 803.36 884.69" xmlns="http://www.w3.org/2000/svg" xmlns:xlink="http://www.w3.org/1999/xlink">
<g id="graph0" class="graph" transform="scale(1 1) rotate(0) translate(4 880.69)">
<title>Dependencies</title>
<polygon fill="white" stroke="transparent" points="-4,4 -4,-880.69 799.36,-880.69 799.36,4 -4,4"/>
<text text-anchor="middle" x="397.68" y="-861.49" font-family="Helvetica,sans-Serif" font-size="14.00">co&#45;issue</text>
<!-- skill_co_issue -->
<g id="node1" class="node">
<title>skill_co_issue</title>
<ellipse fill="#c8e6c9" stroke="black" cx="53.03" cy="-453" rx="53.07" ry="21.43"/>
<text text-anchor="middle" x="53.03" y="-456" font-family="Helvetica,sans-Serif" font-size="10.00">twl:co&#45;issue</text>
<text text-anchor="middle" x="53.03" y="-445" font-family="Helvetica,sans-Serif" font-size="10.00">(1,818 tok)</text>
</g>
<!-- skill_ref_issue_template_bug -->
<g id="node2" class="node">
<title>skill_ref_issue_template_bug</title>
<polygon fill="#e1f5fe" stroke="black" points="761.93,-840 621.93,-840 621.93,-804 767.93,-804 767.93,-834 761.93,-840"/>
<polyline fill="none" stroke="black" points="761.93,-840 761.93,-834 "/>
<polyline fill="none" stroke="black" points="767.93,-834 761.93,-834 "/>
<text text-anchor="middle" x="694.93" y="-825" font-family="Helvetica,sans-Serif" font-size="10.00">twl:ref&#45;issue&#45;template&#45;bug</text>
<text text-anchor="middle" x="694.93" y="-814" font-family="Helvetica,sans-Serif" font-size="10.00">(136 tok)</text>
</g>
<!-- skill_co_issue&#45;&gt;skill_ref_issue_template_bug -->
<g id="edge12" class="edge">
<title>skill_co_issue&#45;&gt;skill_ref_issue_template_bug</title>
<path fill="none" stroke="black" d="M54.05,-474.57C55.39,-533.44 67.98,-697.51 164.07,-773 293.11,-874.38 498.2,-858.66 611.66,-839.53"/>
<polygon fill="black" stroke="black" points="612.42,-842.95 621.67,-837.8 611.22,-836.06 612.42,-842.95"/>
</g>
<!-- skill_ref_issue_template_feature -->
<g id="node3" class="node">
<title>skill_ref_issue_template_feature</title>
<polygon fill="#e1f5fe" stroke="black" points="770.93,-782 612.93,-782 612.93,-746 776.93,-746 776.93,-776 770.93,-782"/>
<polyline fill="none" stroke="black" points="770.93,-782 770.93,-776 "/>
<polyline fill="none" stroke="black" points="776.93,-776 770.93,-776 "/>
<text text-anchor="middle" x="694.93" y="-767" font-family="Helvetica,sans-Serif" font-size="10.00">twl:ref&#45;issue&#45;template&#45;feature</text>
<text text-anchor="middle" x="694.93" y="-756" font-family="Helvetica,sans-Serif" font-size="10.00">(120 tok)</text>
</g>
<!-- skill_co_issue&#45;&gt;skill_ref_issue_template_feature -->
<g id="edge13" class="edge">
<title>skill_co_issue&#45;&gt;skill_ref_issue_template_feature</title>
<path fill="none" stroke="black" d="M55.84,-474.46C61.43,-526.59 83.36,-660.42 164.07,-726 291.91,-829.88 499.28,-807.31 612.98,-784.16"/>
<polygon fill="black" stroke="black" points="613.94,-787.54 623.02,-782.07 612.51,-780.68 613.94,-787.54"/>
</g>
<!-- skill_ref_project_model -->
<g id="node4" class="node">
<title>skill_ref_project_model</title>
<polygon fill="#e1f5fe" stroke="black" points="748.43,-724 635.43,-724 635.43,-688 754.43,-688 754.43,-718 748.43,-724"/>
<polyline fill="none" stroke="black" points="748.43,-724 748.43,-718 "/>
<polyline fill="none" stroke="black" points="754.43,-718 748.43,-718 "/>
<text text-anchor="middle" x="694.93" y="-709" font-family="Helvetica,sans-Serif" font-size="10.00">twl:ref&#45;project&#45;model</text>
<text text-anchor="middle" x="694.93" y="-698" font-family="Helvetica,sans-Serif" font-size="10.00">(2,148 tok)</text>
</g>
<!-- skill_co_issue&#45;&gt;skill_ref_project_model -->
<g id="edge14" class="edge">
<title>skill_co_issue&#45;&gt;skill_ref_project_model</title>
<path fill="none" stroke="black" d="M56.92,-474.2C64.59,-521.26 90.21,-634.19 164.07,-683 305.41,-776.41 517.31,-747.42 625.32,-723.73"/>
<polygon fill="black" stroke="black" points="626.13,-727.13 635.12,-721.53 624.6,-720.3 626.13,-727.13"/>
</g>
<!-- skill_ref_issue_quality_criteria -->
<g id="node5" class="node">
<title>skill_ref_issue_quality_criteria</title>
<polygon fill="#e1f5fe" stroke="black" points="764.93,-666 618.93,-666 618.93,-630 770.93,-630 770.93,-660 764.93,-666"/>
<polyline fill="none" stroke="black" points="764.93,-666 764.93,-660 "/>
<polyline fill="none" stroke="black" points="770.93,-660 764.93,-660 "/>
<text text-anchor="middle" x="694.93" y="-651" font-family="Helvetica,sans-Serif" font-size="10.00">twl:ref&#45;issue&#45;quality&#45;criteria</text>
<text text-anchor="middle" x="694.93" y="-640" font-family="Helvetica,sans-Serif" font-size="10.00">(1,002 tok)</text>
</g>
<!-- skill_co_issue&#45;&gt;skill_ref_issue_quality_criteria -->
<g id="edge15" class="edge">
<title>skill_co_issue&#45;&gt;skill_ref_issue_quality_criteria</title>
<path fill="none" stroke="black" d="M58.4,-474.19C68.47,-516.97 97.73,-613.02 164.07,-654 236.05,-698.47 478.18,-675.93 608.76,-659.72"/>
<polygon fill="black" stroke="black" points="609.25,-663.19 618.74,-658.47 608.38,-656.24 609.25,-663.19"/>
</g>
<!-- skill_ref_glossary_criteria -->
<g id="node6" class="node">
<title>skill_ref_glossary_criteria</title>
<polygon fill="#e1f5fe" stroke="black" points="754.43,-608 629.43,-608 629.43,-572 760.43,-572 760.43,-602 754.43,-608"/>
<polyline fill="none" stroke="black" points="754.43,-608 754.43,-602 "/>
<polyline fill="none" stroke="black" points="760.43,-602 754.43,-602 "/>
<text text-anchor="middle" x="694.93" y="-593" font-family="Helvetica,sans-Serif" font-size="10.00">twl:ref&#45;glossary&#45;criteria</text>
<text text-anchor="middle" x="694.93" y="-582" font-family="Helvetica,sans-Serif" font-size="10.00">(873 tok)</text>
</g>
<!-- skill_co_issue&#45;&gt;skill_ref_glossary_criteria -->
<g id="edge16" class="edge">
<title>skill_co_issue&#45;&gt;skill_ref_glossary_criteria</title>
<path fill="none" stroke="black" d="M60.05,-474.28C72.28,-512.99 104.11,-593.98 164.07,-627 215.45,-655.3 244.84,-655.59 296.07,-627 338.93,-603.08 311.2,-556.92 354.07,-533 451.12,-478.84 586.27,-533.3 653.13,-567.25"/>
<polygon fill="black" stroke="black" points="651.61,-570.41 662.1,-571.89 654.83,-564.19 651.61,-570.41"/>
</g>
<!-- cmd_issue_structure -->
<g id="node7" class="node">
<title>cmd_issue_structure</title>
<polygon fill="#e3f2fd" stroke="black" points="274.57,-558 185.57,-558 185.57,-522 274.57,-522 274.57,-558"/>
<text text-anchor="middle" x="230.07" y="-543" font-family="Helvetica,sans-Serif" font-size="10.00">issue&#45;structure</text>
<text text-anchor="middle" x="230.07" y="-532" font-family="Helvetica,sans-Serif" font-size="10.00">(1,247 tok)</text>
</g>
<!-- skill_co_issue&#45;&gt;cmd_issue_structure -->
<g id="edge2" class="edge">
<title>skill_co_issue&#45;&gt;cmd_issue_structure</title>
<path fill="none" stroke="black" d="M85.06,-470.05C106.95,-481.91 137.07,-497.88 164.07,-511 168.67,-513.24 173.49,-515.51 178.33,-517.75"/>
<polygon fill="black" stroke="black" points="177.07,-521.02 187.62,-521.99 179.97,-514.65 177.07,-521.02"/>
</g>
<!-- cmd_issue_create -->
<g id="node8" class="node">
<title>cmd_issue_create</title>
<polygon fill="#e3f2fd" stroke="black" points="268.57,-442 191.57,-442 191.57,-406 268.57,-406 268.57,-442"/>
<text text-anchor="middle" x="230.07" y="-427" font-family="Helvetica,sans-Serif" font-size="10.00">issue&#45;create</text>
<text text-anchor="middle" x="230.07" y="-416" font-family="Helvetica,sans-Serif" font-size="10.00">(1,002 tok)</text>
</g>
<!-- skill_co_issue&#45;&gt;cmd_issue_create -->
<g id="edge4" class="edge">
<title>skill_co_issue&#45;&gt;cmd_issue_create</title>
<path fill="none" stroke="black" d="M102.32,-445C126.94,-440.92 156.77,-435.98 181.31,-431.91"/>
<polygon fill="black" stroke="black" points="182.18,-435.32 191.47,-430.23 181.03,-428.41 182.18,-435.32"/>
</g>
<!-- cmd_issue_bulk_create -->
<g id="node9" class="node">
<title>cmd_issue_bulk_create</title>
<polygon fill="#e3f2fd" stroke="black" points="280.57,-384 179.57,-384 179.57,-348 280.57,-348 280.57,-384"/>
<text text-anchor="middle" x="230.07" y="-369" font-family="Helvetica,sans-Serif" font-size="10.00">issue&#45;bulk&#45;create</text>
<text text-anchor="middle" x="230.07" y="-358" font-family="Helvetica,sans-Serif" font-size="10.00">(1,440 tok)</text>
</g>
<!-- skill_co_issue&#45;&gt;cmd_issue_bulk_create -->
<g id="edge5" class="edge">
<title>skill_co_issue&#45;&gt;cmd_issue_bulk_create</title>
<path fill="none" stroke="black" d="M85.06,-435.95C106.95,-424.09 137.07,-408.12 164.07,-395 168.67,-392.76 173.49,-390.49 178.33,-388.25"/>
<polygon fill="black" stroke="black" points="179.97,-391.35 187.62,-384.01 177.07,-384.98 179.97,-391.35"/>
</g>
<!-- cmd_issue_tech_debt_absorb -->
<g id="node10" class="node">
<title>cmd_issue_tech_debt_absorb</title>
<polygon fill="#e3f2fd" stroke="black" points="294.57,-500 165.57,-500 165.57,-464 294.57,-464 294.57,-500"/>
<text text-anchor="middle" x="230.07" y="-485" font-family="Helvetica,sans-Serif" font-size="10.00">issue&#45;tech&#45;debt&#45;absorb</text>
<text text-anchor="middle" x="230.07" y="-474" font-family="Helvetica,sans-Serif" font-size="10.00">(730 tok)</text>
</g>
<!-- skill_co_issue&#45;&gt;cmd_issue_tech_debt_absorb -->
<g id="edge3" class="edge">
<title>skill_co_issue&#45;&gt;cmd_issue_tech_debt_absorb</title>
<path fill="none" stroke="black" d="M102.32,-461C118.8,-463.73 137.62,-466.85 155.62,-469.83"/>
<polygon fill="black" stroke="black" points="155.08,-473.29 165.52,-471.47 156.22,-466.38 155.08,-473.29"/>
</g>
<!-- cmd_issue_spec_review -->
<g id="node11" class="node">
<title>cmd_issue_spec_review</title>
<polygon fill="#bbdefb" stroke="black" points="282.57,-326 177.57,-326 177.57,-290 282.57,-290 282.57,-326"/>
<text text-anchor="middle" x="230.07" y="-311" font-family="Helvetica,sans-Serif" font-size="10.00">issue&#45;spec&#45;review</text>
<text text-anchor="middle" x="230.07" y="-300" font-family="Helvetica,sans-Serif" font-size="10.00">(1,308 tok)</text>
</g>
<!-- skill_co_issue&#45;&gt;cmd_issue_spec_review -->
<g id="edge6" class="edge">
<title>skill_co_issue&#45;&gt;cmd_issue_spec_review</title>
<path fill="none" stroke="black" d="M69.21,-432.63C88.82,-407.46 125.09,-364.57 164.07,-337 167.07,-334.88 170.25,-332.86 173.53,-330.94"/>
<polygon fill="black" stroke="black" points="175.27,-333.98 182.38,-326.13 171.92,-327.83 175.27,-333.98"/>
</g>
<!-- cmd_issue_review_aggregate -->
<g id="node12" class="node">
<title>cmd_issue_review_aggregate</title>
<polygon fill="#e3f2fd" stroke="black" points="296.07,-268 164.07,-268 164.07,-232 296.07,-232 296.07,-268"/>
<text text-anchor="middle" x="230.07" y="-253" font-family="Helvetica,sans-Serif" font-size="10.00">issue&#45;review&#45;aggregate</text>
<text text-anchor="middle" x="230.07" y="-242" font-family="Helvetica,sans-Serif" font-size="10.00">(1,157 tok)</text>
</g>
<!-- skill_co_issue&#45;&gt;cmd_issue_review_aggregate -->
<g id="edge7" class="edge">
<title>skill_co_issue&#45;&gt;cmd_issue_review_aggregate</title>
<path fill="none" stroke="black" d="M62.44,-432C77.73,-396.2 113.25,-322.97 164.07,-279 166.3,-277.07 168.68,-275.24 171.17,-273.52"/>
<polygon fill="black" stroke="black" points="173.3,-276.32 179.95,-268.07 169.6,-270.37 173.3,-276.32"/>
</g>
<!-- cmd_issue_glossary_check -->
<g id="node13" class="node">
<title>cmd_issue_glossary_check</title>
<polygon fill="#e3f2fd" stroke="black" points="289.57,-210 170.57,-210 170.57,-174 289.57,-174 289.57,-210"/>
<text text-anchor="middle" x="230.07" y="-195" font-family="Helvetica,sans-Serif" font-size="10.00">issue&#45;glossary&#45;check</text>
<text text-anchor="middle" x="230.07" y="-184" font-family="Helvetica,sans-Serif" font-size="10.00">(860 tok)</text>
</g>
<!-- skill_co_issue&#45;&gt;cmd_issue_glossary_check -->
<g id="edge8" class="edge">
<title>skill_co_issue&#45;&gt;cmd_issue_glossary_check</title>
<path fill="none" stroke="black" d="M58.78,-431.83C69.79,-387.2 101.09,-282.53 164.07,-221 165.92,-219.19 167.91,-217.48 170,-215.86"/>
<polygon fill="black" stroke="black" points="172.16,-218.63 178.47,-210.11 168.23,-212.83 172.16,-218.63"/>
</g>
<!-- cmd_issue_arch_drift -->
<g id="node14" class="node">
<title>cmd_issue_arch_drift</title>
<polygon fill="#e3f2fd" stroke="black" points="275.07,-152 185.07,-152 185.07,-116 275.07,-116 275.07,-152"/>
<text text-anchor="middle" x="230.07" y="-137" font-family="Helvetica,sans-Serif" font-size="10.00">issue&#45;arch&#45;drift</text>
<text text-anchor="middle" x="230.07" y="-126" font-family="Helvetica,sans-Serif" font-size="10.00">(788 tok)</text>
</g>
<!-- skill_co_issue&#45;&gt;cmd_issue_arch_drift -->
<g id="edge9" class="edge">
<title>skill_co_issue&#45;&gt;cmd_issue_arch_drift</title>
<path fill="none" stroke="black" d="M56.52,-431.46C63.67,-378.93 88.82,-242.66 164.07,-163 167.63,-159.22 171.78,-155.9 176.23,-153"/>
<polygon fill="black" stroke="black" points="178.15,-155.93 185.06,-147.89 174.65,-149.86 178.15,-155.93"/>
</g>
<!-- cmd_issue_cross_repo_create -->
<g id="node15" class="node">
<title>cmd_issue_cross_repo_create</title>
<polygon fill="#e3f2fd" stroke="black" points="295.57,-94 164.57,-94 164.57,-58 295.57,-58 295.57,-94"/>
<text text-anchor="middle" x="230.07" y="-79" font-family="Helvetica,sans-Serif" font-size="10.00">issue&#45;cross&#45;repo&#45;create</text>
<text text-anchor="middle" x="230.07" y="-68" font-family="Helvetica,sans-Serif" font-size="10.00">(1,425 tok)</text>
</g>
<!-- skill_co_issue&#45;&gt;cmd_issue_cross_repo_create -->
<g id="edge10" class="edge">
<title>skill_co_issue&#45;&gt;cmd_issue_cross_repo_create</title>
<path fill="none" stroke="black" d="M54.91,-431.68C58.43,-372.42 76.09,-203.56 164.07,-105 165.57,-103.31 167.19,-101.72 168.9,-100.22"/>
<polygon fill="black" stroke="black" points="171.05,-102.98 176.93,-94.17 166.84,-97.39 171.05,-102.98"/>
</g>
<!-- cmd_project_board_sync -->
<g id="node16" class="node">
<title>cmd_project_board_sync</title>
<polygon fill="#e3f2fd" stroke="black" points="284.07,-36 176.07,-36 176.07,0 284.07,0 284.07,-36"/>
<text text-anchor="middle" x="230.07" y="-21" font-family="Helvetica,sans-Serif" font-size="10.00">project&#45;board&#45;sync</text>
<text text-anchor="middle" x="230.07" y="-10" font-family="Helvetica,sans-Serif" font-size="10.00">(1,184 tok)</text>
</g>
<!-- skill_co_issue&#45;&gt;cmd_project_board_sync -->
<g id="edge11" class="edge">
<title>skill_co_issue&#45;&gt;cmd_project_board_sync</title>
<path fill="none" stroke="black" d="M53.75,-431.57C54,-365.86 63.39,-164.62 164.07,-47 165.53,-45.28 167.13,-43.66 168.81,-42.14"/>
<polygon fill="black" stroke="black" points="170.97,-44.89 176.75,-36.02 166.7,-39.35 170.97,-44.89"/>
</g>
<!-- cmd_explore -->
<g id="node17" class="node">
<title>cmd_explore</title>
<polygon fill="#e3f2fd" stroke="black" points="265.07,-616 195.07,-616 195.07,-580 265.07,-580 265.07,-616"/>
<text text-anchor="middle" x="230.07" y="-601" font-family="Helvetica,sans-Serif" font-size="10.00">explore</text>
<text text-anchor="middle" x="230.07" y="-590" font-family="Helvetica,sans-Serif" font-size="10.00">(1,509 tok)</text>
</g>
<!-- skill_co_issue&#45;&gt;cmd_explore -->
<g id="edge1" class="edge">
<title>skill_co_issue&#45;&gt;cmd_explore</title>
<path fill="none" stroke="black" d="M69.21,-473.37C88.82,-498.54 125.09,-541.43 164.07,-569 170.66,-573.67 178.13,-577.84 185.59,-581.47"/>
<polygon fill="black" stroke="black" points="184.43,-584.79 194.98,-585.77 187.35,-578.42 184.43,-584.79"/>
</g>
<!-- skill_ref_issue_template_bug&#45;&gt;skill_ref_issue_template_feature -->
<!-- skill_ref_issue_template_feature&#45;&gt;skill_ref_project_model -->
<!-- skill_ref_project_model&#45;&gt;skill_ref_issue_quality_criteria -->
<!-- skill_ref_issue_quality_criteria&#45;&gt;skill_ref_glossary_criteria -->
<!-- cmd_issue_structure&#45;&gt;cmd_issue_tech_debt_absorb -->
<!-- cmd_issue_create&#45;&gt;cmd_issue_bulk_create -->
<!-- cmd_issue_bulk_create&#45;&gt;cmd_issue_spec_review -->
<!-- cmd_issue_tech_debt_absorb&#45;&gt;cmd_issue_create -->
<!-- cmd_issue_spec_review&#45;&gt;cmd_issue_review_aggregate -->
<!-- agent_issue_critic -->
<g id="node18" class="node">
<title>agent_issue_critic</title>
<ellipse fill="#ede7f6" stroke="black" cx="445.28" cy="-629" rx="49.49" ry="21.43"/>
<text text-anchor="middle" x="445.28" y="-632" font-family="Helvetica,sans-Serif" font-size="10.00">issue&#45;critic</text>
<text text-anchor="middle" x="445.28" y="-621" font-family="Helvetica,sans-Serif" font-size="10.00">(1,268 tok)</text>
</g>
<!-- cmd_issue_spec_review&#45;&gt;agent_issue_critic -->
<g id="edge17" class="edge">
<title>cmd_issue_spec_review&#45;&gt;agent_issue_critic</title>
<path fill="none" stroke="black" stroke-dasharray="5,2" d="M282.63,-325.23C287.68,-328.52 292.31,-332.41 296.07,-337 371,-428.66 275.58,-508.36 354.07,-597 363.11,-607.21 375.63,-614.17 388.46,-618.9"/>
<polygon fill="black" stroke="black" points="387.69,-622.33 398.29,-622.1 389.87,-615.68 387.69,-622.33"/>
</g>
<!-- agent_issue_feasibility -->
<g id="node19" class="node">
<title>agent_issue_feasibility</title>
<ellipse fill="#ede7f6" stroke="black" cx="445.28" cy="-565" rx="67.35" ry="21.43"/>
<text text-anchor="middle" x="445.28" y="-568" font-family="Helvetica,sans-Serif" font-size="10.00">issue&#45;feasibility</text>
<text text-anchor="middle" x="445.28" y="-557" font-family="Helvetica,sans-Serif" font-size="10.00">(1,175 tok)</text>
</g>
<!-- cmd_issue_spec_review&#45;&gt;agent_issue_feasibility -->
<g id="edge18" class="edge">
<title>cmd_issue_spec_review&#45;&gt;agent_issue_feasibility</title>
<path fill="none" stroke="black" stroke-dasharray="5,2" d="M282.3,-326.01C287.34,-329.15 292.06,-332.79 296.07,-337 345.31,-388.81 312.92,-428.55 354.07,-487 368.43,-507.41 389.27,-525.89 407.3,-539.74"/>
<polygon fill="black" stroke="black" points="405.25,-542.57 415.36,-545.76 409.45,-536.97 405.25,-542.57"/>
</g>
<!-- agent_worker_codex_reviewer -->
<g id="node20" class="node">
<title>agent_worker_codex_reviewer</title>
<ellipse fill="#ede7f6" stroke="black" cx="445.28" cy="-455" rx="91.43" ry="21.43"/>
<text text-anchor="middle" x="445.28" y="-458" font-family="Helvetica,sans-Serif" font-size="10.00">worker&#45;codex&#45;reviewer</text>
<text text-anchor="middle" x="445.28" y="-447" font-family="Helvetica,sans-Serif" font-size="10.00">(1,421 tok)</text>
</g>
<!-- cmd_issue_spec_review&#45;&gt;agent_worker_codex_reviewer -->
<g id="edge19" class="edge">
<title>cmd_issue_spec_review&#45;&gt;agent_worker_codex_reviewer</title>
<path fill="none" stroke="black" stroke-dasharray="5,2" d="M279.27,-326C285.21,-329.21 290.98,-332.87 296.07,-337 330.17,-364.67 319.67,-389.69 354.07,-417 362.24,-423.49 371.67,-429.05 381.3,-433.75"/>
<polygon fill="black" stroke="black" points="380.01,-437.01 390.56,-438.01 382.93,-430.65 380.01,-437.01"/>
</g>
<!-- script_escape_issue_body -->
<g id="node21" class="node">
<title>script_escape_issue_body</title>
<polygon fill="#ff9800" stroke="black" points="783.29,-455 739.11,-479.49 650.75,-479.49 606.57,-455 650.75,-430.51 739.11,-430.51 783.29,-455"/>
<text text-anchor="middle" x="694.93" y="-458" font-family="Helvetica,sans-Serif" font-size="10.00">escape&#45;issue&#45;body</text>
<text text-anchor="middle" x="694.93" y="-447" font-family="Helvetica,sans-Serif" font-size="10.00">(63 tok)</text>
</g>
<!-- cmd_issue_spec_review&#45;&gt;script_escape_issue_body -->
<g id="edge20" class="edge">
<title>cmd_issue_spec_review&#45;&gt;script_escape_issue_body</title>
<path fill="none" stroke="black" d="M282.81,-324.43C367.57,-351.35 535.82,-404.79 628.64,-434.27"/>
<polygon fill="black" stroke="black" points="627.62,-437.61 638.21,-437.3 629.74,-430.94 627.62,-437.61"/>
</g>
<!-- script_spec_review_manifest -->
<g id="node22" class="node">
<title>script_spec_review_manifest</title>
<polygon fill="#ff9800" stroke="black" points="795.29,-384 745.11,-408.49 644.75,-408.49 594.57,-384 644.75,-359.51 745.11,-359.51 795.29,-384"/>
<text text-anchor="middle" x="694.93" y="-387" font-family="Helvetica,sans-Serif" font-size="10.00">spec&#45;review&#45;manifest</text>
<text text-anchor="middle" x="694.93" y="-376" font-family="Helvetica,sans-Serif" font-size="10.00">(125 tok)</text>
</g>
<!-- cmd_issue_spec_review&#45;&gt;script_spec_review_manifest -->
<g id="edge21" class="edge">
<title>cmd_issue_spec_review&#45;&gt;script_spec_review_manifest</title>
<path fill="none" stroke="black" d="M282.57,-309.82C343.64,-312.68 448.27,-319.81 536.5,-337 566.43,-342.83 598.81,-351.99 626.38,-360.67"/>
<polygon fill="black" stroke="black" points="625.33,-364.01 635.92,-363.72 627.46,-357.34 625.33,-364.01"/>
</g>
<!-- cmd_issue_review_aggregate&#45;&gt;cmd_issue_glossary_check -->
<!-- cmd_issue_glossary_check&#45;&gt;skill_ref_glossary_criteria -->
<g id="edge22" class="edge">
<title>cmd_issue_glossary_check&#45;&gt;skill_ref_glossary_criteria</title>
<path fill="none" stroke="black" d="M275.98,-210.05C282.87,-213.38 289.78,-217.07 296.07,-221 414.37,-295.04 437.08,-325.04 536.5,-423 564.55,-450.64 567.71,-461.13 594.5,-490 618.72,-516.1 647.5,-544.81 667.86,-564.75"/>
<polygon fill="black" stroke="black" points="665.62,-567.46 675.22,-571.94 670.51,-562.45 665.62,-567.46"/>
</g>
<!-- cmd_issue_glossary_check&#45;&gt;cmd_issue_arch_drift -->
<!-- cmd_issue_arch_drift&#45;&gt;cmd_issue_cross_repo_create -->
<!-- cmd_issue_cross_repo_create&#45;&gt;cmd_project_board_sync -->
<!-- cmd_project_board_sync&#45;&gt;skill_ref_issue_template_bug -->
<!-- cmd_explore&#45;&gt;cmd_issue_structure -->
<!-- agent_issue_critic&#45;&gt;skill_ref_issue_quality_criteria -->
<g id="edge23" class="edge">
<title>agent_issue_critic&#45;&gt;skill_ref_issue_quality_criteria</title>
<path fill="none" stroke="black" stroke-dasharray="1,5" d="M494.33,-632.69C526.73,-635.17 570.4,-638.52 608.62,-641.46"/>
<polygon fill="black" stroke="black" points="608.49,-644.95 618.73,-642.23 609.02,-637.98 608.49,-644.95"/>
</g>
<!-- agent_issue_critic&#45;&gt;agent_issue_feasibility -->
<!-- agent_issue_feasibility&#45;&gt;skill_ref_issue_quality_criteria -->
<g id="edge24" class="edge">
<title>agent_issue_feasibility&#45;&gt;skill_ref_issue_quality_criteria</title>
<path fill="none" stroke="black" stroke-dasharray="1,5" d="M490.86,-580.6C505.43,-585.75 521.68,-591.56 536.5,-597 562.38,-606.5 568.36,-610.24 594.5,-619 602.61,-621.72 611.15,-624.43 619.66,-627.04"/>
<polygon fill="black" stroke="black" points="618.66,-630.39 629.25,-629.94 620.69,-623.69 618.66,-630.39"/>
</g>
<!-- agent_issue_feasibility&#45;&gt;agent_worker_codex_reviewer -->
<!-- agent_worker_codex_reviewer&#45;&gt;skill_ref_issue_quality_criteria -->
<g id="edge25" class="edge">
<title>agent_worker_codex_reviewer&#45;&gt;skill_ref_issue_quality_criteria</title>
<path fill="none" stroke="black" stroke-dasharray="1,5" d="M473.62,-475.49C492.45,-490.32 517.4,-511.47 536.5,-533 567.09,-567.49 557.26,-591.82 594.5,-619 599.2,-622.43 604.3,-625.46 609.62,-628.13"/>
<polygon fill="black" stroke="black" points="608.21,-631.33 618.76,-632.29 611.11,-624.96 608.21,-631.33"/>
</g>
<!-- agent_worker_codex_reviewer&#45;&gt;script_escape_issue_body -->
<!-- script_escape_issue_body&#45;&gt;script_spec_review_manifest -->
</g>
</svg>
