<?xml version="1.0" encoding="UTF-8" standalone="no"?>
<!DOCTYPE svg PUBLIC "-//W3C//DTD SVG 1.1//EN"
 "http://www.w3.org/Graphics/SVG/1.1/DTD/svg11.dtd">
<!-- Generated by graphviz version 2.43.0 (0)
 -->
<!-- Title: Dependencies Pages: 1 -->
<svg width="741pt" height="883pt"
 viewBox="0.00 0.00 740.84 882.69" xmlns="http://www.w3.org/2000/svg" xmlns:xlink="http://www.w3.org/1999/xlink">
<g id="graph0" class="graph" transform="scale(1 1) rotate(0) translate(4 878.69)">
<title>Dependencies</title>
<polygon fill="white" stroke="transparent" points="-4,4 -4,-878.69 736.84,-878.69 736.84,4 -4,4"/>
<text text-anchor="middle" x="366.42" y="-859.49" font-family="Helvetica,sans-Serif" font-size="14.00">co&#45;issue</text>
<!-- skill_co_issue -->
<g id="node1" class="node">
<title>skill_co_issue</title>
<ellipse fill="#c8e6c9" stroke="black" cx="48.79" cy="-453" rx="48.58" ry="21.43"/>
<text text-anchor="middle" x="48.79" y="-456" font-family="Helvetica,sans-Serif" font-size="10.00">twl:co&#45;issue</text>
<text text-anchor="middle" x="48.79" y="-445" font-family="Helvetica,sans-Serif" font-size="10.00">(1,441 tok)</text>
</g>
<!-- skill_ref_issue_template_bug -->
<g id="node2" class="node">
<title>skill_ref_issue_template_bug</title>
<polygon fill="#e1f5fe" stroke="black" points="701.53,-840 578.53,-840 578.53,-804 707.53,-804 707.53,-834 701.53,-840"/>
<polyline fill="none" stroke="black" points="701.53,-840 701.53,-834 "/>
<polyline fill="none" stroke="black" points="707.53,-834 701.53,-834 "/>
<text text-anchor="middle" x="643.03" y="-825" font-family="Helvetica,sans-Serif" font-size="10.00">twl:ref&#45;issue&#45;template&#45;bug</text>
<text text-anchor="middle" x="643.03" y="-814" font-family="Helvetica,sans-Serif" font-size="10.00">(136 tok)</text>
</g>
<!-- skill_co_issue&#45;&gt;skill_ref_issue_template_bug -->
<g id="edge12" class="edge">
<title>skill_co_issue&#45;&gt;skill_ref_issue_template_bug</title>
<path fill="none" stroke="black" d="M49.41,-474.37C49.63,-533.52 59.16,-700.03 155.58,-777 274.09,-871.61 464.35,-856.02 568.32,-838"/>
<polygon fill="black" stroke="black" points="569.19,-841.41 578.42,-836.2 567.96,-834.51 569.19,-841.41"/>
</g>
<!-- skill_ref_issue_template_feature -->
<g id="node3" class="node">
<title>skill_ref_issue_template_feature</title>
<polygon fill="#e1f5fe" stroke="black" points="708.53,-782 571.53,-782 571.53,-746 714.53,-746 714.53,-776 708.53,-782"/>
<polyline fill="none" stroke="black" points="708.53,-782 708.53,-776 "/>
<polyline fill="none" stroke="black" points="714.53,-776 708.53,-776 "/>
<text text-anchor="middle" x="643.03" y="-767" font-family="Helvetica,sans-Serif" font-size="10.00">twl:ref&#45;issue&#45;template&#45;feature</text>
<text text-anchor="middle" x="643.03" y="-756" font-family="Helvetica,sans-Serif" font-size="10.00">(120 tok)</text>
</g>
<!-- skill_co_issue&#45;&gt;skill_ref_issue_template_feature -->
<g id="edge13" class="edge">
<title>skill_co_issue&#45;&gt;skill_ref_issue_template_feature</title>
<path fill="none" stroke="black" d="M50.88,-474.32C54.84,-527.42 72.98,-666.14 155.58,-733 271.55,-826.87 458.52,-806.15 563.68,-784.15"/>
<polygon fill="black" stroke="black" points="564.56,-787.54 573.6,-782.02 563.09,-780.69 564.56,-787.54"/>
</g>
<!-- skill_ref_project_model -->
<g id="node4" class="node">
<title>skill_ref_project_model</title>
<polygon fill="#e1f5fe" stroke="black" points="689.53,-724 590.53,-724 590.53,-688 695.53,-688 695.53,-718 689.53,-724"/>
<polyline fill="none" stroke="black" points="689.53,-724 689.53,-718 "/>
<polyline fill="none" stroke="black" points="695.53,-718 689.53,-718 "/>
<text text-anchor="middle" x="643.03" y="-709" font-family="Helvetica,sans-Serif" font-size="10.00">twl:ref&#45;project&#45;model</text>
<text text-anchor="middle" x="643.03" y="-698" font-family="Helvetica,sans-Serif" font-size="10.00">(2,148 tok)</text>
</g>
<!-- skill_co_issue&#45;&gt;skill_ref_project_model -->
<g id="edge14" class="edge">
<title>skill_co_issue&#45;&gt;skill_ref_project_model</title>
<path fill="none" stroke="black" d="M52.33,-474.45C59.23,-522.17 82.94,-637.13 155.58,-691 281.56,-784.42 480.6,-750.25 580.52,-724.4"/>
<polygon fill="black" stroke="black" points="581.68,-727.72 590.45,-721.77 579.89,-720.95 581.68,-727.72"/>
</g>
<!-- skill_ref_issue_quality_criteria -->
<g id="node5" class="node">
<title>skill_ref_issue_quality_criteria</title>
<polygon fill="#e1f5fe" stroke="black" points="704.03,-666 576.03,-666 576.03,-630 710.03,-630 710.03,-660 704.03,-666"/>
<polyline fill="none" stroke="black" points="704.03,-666 704.03,-660 "/>
<polyline fill="none" stroke="black" points="710.03,-660 704.03,-660 "/>
<text text-anchor="middle" x="643.03" y="-651" font-family="Helvetica,sans-Serif" font-size="10.00">twl:ref&#45;issue&#45;quality&#45;criteria</text>
<text text-anchor="middle" x="643.03" y="-640" font-family="Helvetica,sans-Serif" font-size="10.00">(1,002 tok)</text>
</g>
<!-- skill_co_issue&#45;&gt;skill_ref_issue_quality_criteria -->
<g id="edge15" class="edge">
<title>skill_co_issue&#45;&gt;skill_ref_issue_quality_criteria</title>
<path fill="none" stroke="black" d="M53.85,-474.34C63.22,-516.94 90.71,-611.9 155.58,-653 286.46,-735.92 479.56,-697.43 578.5,-668.96"/>
<polygon fill="black" stroke="black" points="579.75,-672.24 588.36,-666.06 577.77,-665.52 579.75,-672.24"/>
</g>
<!-- skill_ref_glossary_criteria -->
<g id="node6" class="node">
<title>skill_ref_glossary_criteria</title>
<polygon fill="#e1f5fe" stroke="black" points="695.03,-608 585.03,-608 585.03,-572 701.03,-572 701.03,-602 695.03,-608"/>
<polyline fill="none" stroke="black" points="695.03,-608 695.03,-602 "/>
<polyline fill="none" stroke="black" points="701.03,-602 695.03,-602 "/>
<text text-anchor="middle" x="643.03" y="-593" font-family="Helvetica,sans-Serif" font-size="10.00">twl:ref&#45;glossary&#45;criteria</text>
<text text-anchor="middle" x="643.03" y="-582" font-family="Helvetica,sans-Serif" font-size="10.00">(873 tok)</text>
</g>
<!-- skill_co_issue&#45;&gt;skill_ref_glossary_criteria -->
<g id="edge16" class="edge">
<title>skill_co_issue&#45;&gt;skill_ref_glossary_criteria</title>
<path fill="none" stroke="black" d="M55.31,-474.25C66.65,-512.91 96.57,-593.82 155.58,-627 201.68,-652.92 228.4,-652.77 274.58,-627 317.45,-603.08 289.71,-556.92 332.58,-533 419.93,-484.26 540.63,-534.4 602.29,-566.91"/>
<polygon fill="black" stroke="black" points="600.84,-570.1 611.31,-571.76 604.16,-563.94 600.84,-570.1"/>
</g>
<!-- cmd_issue_structure -->
<g id="node7" class="node">
<title>cmd_issue_structure</title>
<polygon fill="#e3f2fd" stroke="black" points="255.58,-558 174.58,-558 174.58,-522 255.58,-522 255.58,-558"/>
<text text-anchor="middle" x="215.08" y="-543" font-family="Helvetica,sans-Serif" font-size="10.00">issue&#45;structure</text>
<text text-anchor="middle" x="215.08" y="-532" font-family="Helvetica,sans-Serif" font-size="10.00">(1,227 tok)</text>
</g>
<!-- skill_co_issue&#45;&gt;cmd_issue_structure -->
<g id="edge2" class="edge">
<title>skill_co_issue&#45;&gt;cmd_issue_structure</title>
<path fill="none" stroke="black" d="M79.25,-469.58C100.38,-481.36 129.58,-497.44 155.58,-511 159.59,-513.09 163.77,-515.24 167.97,-517.36"/>
<polygon fill="black" stroke="black" points="166.63,-520.61 177.14,-521.98 169.78,-514.36 166.63,-520.61"/>
</g>
<!-- cmd_issue_create -->
<g id="node8" class="node">
<title>cmd_issue_create</title>
<polygon fill="#e3f2fd" stroke="black" points="250.08,-442 180.08,-442 180.08,-406 250.08,-406 250.08,-442"/>
<text text-anchor="middle" x="215.08" y="-427" font-family="Helvetica,sans-Serif" font-size="10.00">issue&#45;create</text>
<text text-anchor="middle" x="215.08" y="-416" font-family="Helvetica,sans-Serif" font-size="10.00">(985 tok)</text>
</g>
<!-- skill_co_issue&#45;&gt;cmd_issue_create -->
<g id="edge4" class="edge">
<title>skill_co_issue&#45;&gt;cmd_issue_create</title>
<path fill="none" stroke="black" d="M94.25,-445.15C117.76,-441 146.53,-435.92 169.98,-431.78"/>
<polygon fill="black" stroke="black" points="170.77,-435.2 180.01,-430.01 169.56,-428.31 170.77,-435.2"/>
</g>
<!-- cmd_issue_bulk_create -->
<g id="node9" class="node">
<title>cmd_issue_bulk_create</title>
<polygon fill="#e3f2fd" stroke="black" points="260.58,-384 169.58,-384 169.58,-348 260.58,-348 260.58,-384"/>
<text text-anchor="middle" x="215.08" y="-369" font-family="Helvetica,sans-Serif" font-size="10.00">issue&#45;bulk&#45;create</text>
<text text-anchor="middle" x="215.08" y="-358" font-family="Helvetica,sans-Serif" font-size="10.00">(1,440 tok)</text>
</g>
<!-- skill_co_issue&#45;&gt;cmd_issue_bulk_create -->
<g id="edge5" class="edge">
<title>skill_co_issue&#45;&gt;cmd_issue_bulk_create</title>
<path fill="none" stroke="black" d="M79.25,-436.42C100.38,-424.64 129.58,-408.56 155.58,-395 159.59,-392.91 163.77,-390.76 167.97,-388.64"/>
<polygon fill="black" stroke="black" points="169.78,-391.64 177.14,-384.02 166.63,-385.39 169.78,-391.64"/>
</g>
<!-- cmd_issue_tech_debt_absorb -->
<g id="node10" class="node">
<title>cmd_issue_tech_debt_absorb</title>
<polygon fill="#e3f2fd" stroke="black" points="273.08,-500 157.08,-500 157.08,-464 273.08,-464 273.08,-500"/>
<text text-anchor="middle" x="215.08" y="-485" font-family="Helvetica,sans-Serif" font-size="10.00">issue&#45;tech&#45;debt&#45;absorb</text>
<text text-anchor="middle" x="215.08" y="-474" font-family="Helvetica,sans-Serif" font-size="10.00">(709 tok)</text>
</g>
<!-- skill_co_issue&#45;&gt;cmd_issue_tech_debt_absorb -->
<g id="edge3" class="edge">
<title>skill_co_issue&#45;&gt;cmd_issue_tech_debt_absorb</title>
<path fill="none" stroke="black" d="M94.25,-460.85C110.38,-463.69 128.98,-466.98 146.64,-470.1"/>
<polygon fill="black" stroke="black" points="146.45,-473.62 156.9,-471.91 147.66,-466.72 146.45,-473.62"/>
</g>
<!-- cmd_issue_spec_review -->
<g id="node11" class="node">
<title>cmd_issue_spec_review</title>
<polygon fill="#bbdefb" stroke="black" points="262.58,-326 167.58,-326 167.58,-290 262.58,-290 262.58,-326"/>
<text text-anchor="middle" x="215.08" y="-311" font-family="Helvetica,sans-Serif" font-size="10.00">issue&#45;spec&#45;review</text>
<text text-anchor="middle" x="215.08" y="-300" font-family="Helvetica,sans-Serif" font-size="10.00">(1,210 tok)</text>
</g>
<!-- skill_co_issue&#45;&gt;cmd_issue_spec_review -->
<g id="edge6" class="edge">
<title>skill_co_issue&#45;&gt;cmd_issue_spec_review</title>
<path fill="none" stroke="black" d="M64.39,-432.84C83.26,-407.88 118.14,-365.21 155.58,-337 158.21,-335.02 160.99,-333.12 163.86,-331.3"/>
<polygon fill="black" stroke="black" points="165.82,-334.21 172.65,-326.11 162.26,-328.18 165.82,-334.21"/>
</g>
<!-- cmd_issue_review_aggregate -->
<g id="node12" class="node">
<title>cmd_issue_review_aggregate</title>
<polygon fill="#e3f2fd" stroke="black" points="273.58,-268 156.58,-268 156.58,-232 273.58,-232 273.58,-268"/>
<text text-anchor="middle" x="215.08" y="-253" font-family="Helvetica,sans-Serif" font-size="10.00">issue&#45;review&#45;aggregate</text>
<text text-anchor="middle" x="215.08" y="-242" font-family="Helvetica,sans-Serif" font-size="10.00">(1,137 tok)</text>
</g>
<!-- skill_co_issue&#45;&gt;cmd_issue_review_aggregate -->
<g id="edge7" class="edge">
<title>skill_co_issue&#45;&gt;cmd_issue_review_aggregate</title>
<path fill="none" stroke="black" d="M57.97,-431.92C72.69,-396.32 106.74,-323.81 155.58,-279 157.52,-277.22 159.58,-275.53 161.74,-273.92"/>
<polygon fill="black" stroke="black" points="164.04,-276.59 170.42,-268.12 160.16,-270.77 164.04,-276.59"/>
</g>
<!-- cmd_issue_glossary_check -->
<g id="node13" class="node">
<title>cmd_issue_glossary_check</title>
<polygon fill="#e3f2fd" stroke="black" points="269.58,-210 160.58,-210 160.58,-174 269.58,-174 269.58,-210"/>
<text text-anchor="middle" x="215.08" y="-195" font-family="Helvetica,sans-Serif" font-size="10.00">issue&#45;glossary&#45;check</text>
<text text-anchor="middle" x="215.08" y="-184" font-family="Helvetica,sans-Serif" font-size="10.00">(836 tok)</text>
</g>
<!-- skill_co_issue&#45;&gt;cmd_issue_glossary_check -->
<g id="edge8" class="edge">
<title>skill_co_issue&#45;&gt;cmd_issue_glossary_check</title>
<path fill="none" stroke="black" d="M54.39,-431.7C64.97,-387.27 94.92,-283.66 155.58,-221 157.21,-219.31 158.97,-217.71 160.81,-216.18"/>
<polygon fill="black" stroke="black" points="163.3,-218.71 169.36,-210.02 159.2,-213.03 163.3,-218.71"/>
</g>
<!-- cmd_issue_arch_drift -->
<g id="node14" class="node">
<title>cmd_issue_arch_drift</title>
<polygon fill="#e3f2fd" stroke="black" points="255.58,-152 174.58,-152 174.58,-116 255.58,-116 255.58,-152"/>
<text text-anchor="middle" x="215.08" y="-137" font-family="Helvetica,sans-Serif" font-size="10.00">issue&#45;arch&#45;drift</text>
<text text-anchor="middle" x="215.08" y="-126" font-family="Helvetica,sans-Serif" font-size="10.00">(770 tok)</text>
</g>
<!-- skill_co_issue&#45;&gt;cmd_issue_arch_drift -->
<g id="edge9" class="edge">
<title>skill_co_issue&#45;&gt;cmd_issue_arch_drift</title>
<path fill="none" stroke="black" d="M52.13,-431.67C58.9,-379.58 82.84,-244.26 155.58,-163 158.6,-159.63 162.09,-156.61 165.85,-153.9"/>
<polygon fill="black" stroke="black" points="167.82,-156.8 174.39,-148.49 164.07,-150.89 167.82,-156.8"/>
</g>
<!-- cmd_issue_cross_repo_create -->
<g id="node15" class="node">
<title>cmd_issue_cross_repo_create</title>
<polygon fill="#e3f2fd" stroke="black" points="274.58,-94 155.58,-94 155.58,-58 274.58,-58 274.58,-94"/>
<text text-anchor="middle" x="215.08" y="-79" font-family="Helvetica,sans-Serif" font-size="10.00">issue&#45;cross&#45;repo&#45;create</text>
<text text-anchor="middle" x="215.08" y="-68" font-family="Helvetica,sans-Serif" font-size="10.00">(1,406 tok)</text>
</g>
<!-- skill_co_issue&#45;&gt;cmd_issue_cross_repo_create -->
<g id="edge10" class="edge">
<title>skill_co_issue&#45;&gt;cmd_issue_cross_repo_create</title>
<path fill="none" stroke="black" d="M50.6,-431.45C53.9,-372.32 70.68,-205.22 155.58,-105 156.9,-103.44 158.32,-101.96 159.83,-100.55"/>
<polygon fill="black" stroke="black" points="162.29,-103.06 167.94,-94.1 157.94,-97.58 162.29,-103.06"/>
</g>
<!-- cmd_project_board_sync -->
<g id="node16" class="node">
<title>cmd_project_board_sync</title>
<polygon fill="#e3f2fd" stroke="black" points="263.58,-36 166.58,-36 166.58,0 263.58,0 263.58,-36"/>
<text text-anchor="middle" x="215.08" y="-21" font-family="Helvetica,sans-Serif" font-size="10.00">project&#45;board&#45;sync</text>
<text text-anchor="middle" x="215.08" y="-10" font-family="Helvetica,sans-Serif" font-size="10.00">(1,167 tok)</text>
</g>
<!-- skill_co_issue&#45;&gt;cmd_project_board_sync -->
<g id="edge11" class="edge">
<title>skill_co_issue&#45;&gt;cmd_project_board_sync</title>
<path fill="none" stroke="black" d="M49.46,-431.76C49.54,-366.61 58.15,-166.81 155.58,-47 156.84,-45.45 158.21,-43.98 159.65,-42.57"/>
<polygon fill="black" stroke="black" points="161.97,-45.2 167.49,-36.16 157.54,-39.78 161.97,-45.2"/>
</g>
<!-- cmd_explore -->
<g id="node17" class="node">
<title>cmd_explore</title>
<polygon fill="#e3f2fd" stroke="black" points="246.58,-616 183.58,-616 183.58,-580 246.58,-580 246.58,-616"/>
<text text-anchor="middle" x="215.08" y="-601" font-family="Helvetica,sans-Serif" font-size="10.00">explore</text>
<text text-anchor="middle" x="215.08" y="-590" font-family="Helvetica,sans-Serif" font-size="10.00">(1,490 tok)</text>
</g>
<!-- skill_co_issue&#45;&gt;cmd_explore -->
<g id="edge1" class="edge">
<title>skill_co_issue&#45;&gt;cmd_explore</title>
<path fill="none" stroke="black" d="M64.39,-473.16C83.26,-498.12 118.14,-540.79 155.58,-569 161.24,-573.26 167.62,-577.17 174.03,-580.65"/>
<polygon fill="black" stroke="black" points="172.87,-583.99 183.37,-585.42 176.06,-577.75 172.87,-583.99"/>
</g>
<!-- skill_ref_issue_template_bug&#45;&gt;skill_ref_issue_template_feature -->
<!-- skill_ref_issue_template_feature&#45;&gt;skill_ref_project_model -->
<!-- skill_ref_project_model&#45;&gt;skill_ref_issue_quality_criteria -->
<!-- skill_ref_issue_quality_criteria&#45;&gt;skill_ref_glossary_criteria -->
<!-- cmd_issue_structure&#45;&gt;cmd_issue_tech_debt_absorb -->
<!-- cmd_issue_create&#45;&gt;cmd_issue_bulk_create -->
<!-- cmd_issue_bulk_create&#45;&gt;cmd_issue_spec_review -->
<!-- cmd_issue_tech_debt_absorb&#45;&gt;cmd_issue_create -->
<!-- cmd_issue_spec_review&#45;&gt;cmd_issue_review_aggregate -->
<!-- agent_issue_critic -->
<g id="node18" class="node">
<title>agent_issue_critic</title>
<ellipse fill="#ede7f6" stroke="black" cx="413.9" cy="-629" rx="45.01" ry="21.43"/>
<text text-anchor="middle" x="413.9" y="-632" font-family="Helvetica,sans-Serif" font-size="10.00">issue&#45;critic</text>
<text text-anchor="middle" x="413.9" y="-621" font-family="Helvetica,sans-Serif" font-size="10.00">(1,268 tok)</text>
</g>
<!-- cmd_issue_spec_review&#45;&gt;agent_issue_critic -->
<g id="edge17" class="edge">
<title>cmd_issue_spec_review&#45;&gt;agent_issue_critic</title>
<path fill="none" stroke="black" stroke-dasharray="5,2" d="M262.82,-326.04C267.24,-329.18 271.29,-332.81 274.58,-337 347.64,-430.17 255.8,-506.87 332.58,-597 340.41,-606.19 351.26,-612.77 362.45,-617.47"/>
<polygon fill="black" stroke="black" points="361.27,-620.76 371.87,-620.98 363.72,-614.21 361.27,-620.76"/>
</g>
<!-- agent_issue_feasibility -->
<g id="node19" class="node">
<title>agent_issue_feasibility</title>
<ellipse fill="#ede7f6" stroke="black" cx="413.9" cy="-565" rx="59.29" ry="21.43"/>
<text text-anchor="middle" x="413.9" y="-568" font-family="Helvetica,sans-Serif" font-size="10.00">issue&#45;feasibility</text>
<text text-anchor="middle" x="413.9" y="-557" font-family="Helvetica,sans-Serif" font-size="10.00">(1,175 tok)</text>
</g>
<!-- cmd_issue_spec_review&#45;&gt;agent_issue_feasibility -->
<g id="edge18" class="edge">
<title>cmd_issue_spec_review&#45;&gt;agent_issue_feasibility</title>
<path fill="none" stroke="black" stroke-dasharray="5,2" d="M261.63,-326.17C266.38,-329.3 270.84,-332.9 274.58,-337 322.76,-389.79 293.14,-427.39 332.58,-487 345.58,-506.64 364.26,-525.17 380.34,-539.23"/>
<polygon fill="black" stroke="black" points="378.11,-541.93 387.99,-545.76 382.66,-536.6 378.11,-541.93"/>
</g>
<!-- agent_worker_codex_reviewer -->
<g id="node20" class="node">
<title>agent_worker_codex_reviewer</title>
<ellipse fill="#ede7f6" stroke="black" cx="413.9" cy="-455" rx="81.13" ry="21.43"/>
<text text-anchor="middle" x="413.9" y="-458" font-family="Helvetica,sans-Serif" font-size="10.00">worker&#45;codex&#45;reviewer</text>
<text text-anchor="middle" x="413.9" y="-447" font-family="Helvetica,sans-Serif" font-size="10.00">(1,421 tok)</text>
</g>
<!-- cmd_issue_spec_review&#45;&gt;agent_worker_codex_reviewer -->
<g id="edge19" class="edge">
<title>cmd_issue_spec_review&#45;&gt;agent_worker_codex_reviewer</title>
<path fill="none" stroke="black" stroke-dasharray="5,2" d="M258.84,-326.12C264.4,-329.34 269.82,-332.97 274.58,-337 308.12,-365.35 298.79,-388.95 332.58,-417 339.89,-423.07 348.34,-428.42 356.94,-433.04"/>
<polygon fill="black" stroke="black" points="355.43,-436.2 365.93,-437.6 358.6,-429.95 355.43,-436.2"/>
</g>
<!-- script_escape_issue_body -->
<g id="node21" class="node">
<title>script_escape_issue_body</title>
<polygon fill="#ff9800" stroke="black" points="723.06,-455 683.05,-479.49 603.01,-479.49 563,-455 603.01,-430.51 683.05,-430.51 723.06,-455"/>
<text text-anchor="middle" x="643.03" y="-458" font-family="Helvetica,sans-Serif" font-size="10.00">escape&#45;issue&#45;body</text>
<text text-anchor="middle" x="643.03" y="-447" font-family="Helvetica,sans-Serif" font-size="10.00">(63 tok)</text>
</g>
<!-- cmd_issue_spec_review&#45;&gt;script_escape_issue_body -->
<g id="edge20" class="edge">
<title>cmd_issue_spec_review&#45;&gt;script_escape_issue_body</title>
<path fill="none" stroke="black" d="M262.88,-324.15C340.5,-350.94 495.79,-404.53 581.59,-434.14"/>
<polygon fill="black" stroke="black" points="580.6,-437.5 591.19,-437.46 582.88,-430.88 580.6,-437.5"/>
</g>
<!-- script_spec_review_manifest -->
<g id="node22" class="node">
<title>script_spec_review_manifest</title>
<polygon fill="#ff9800" stroke="black" points="732.66,-384 687.84,-408.49 598.22,-408.49 553.4,-384 598.22,-359.51 687.84,-359.51 732.66,-384"/>
<text text-anchor="middle" x="643.03" y="-387" font-family="Helvetica,sans-Serif" font-size="10.00">spec&#45;review&#45;manifest</text>
<text text-anchor="middle" x="643.03" y="-376" font-family="Helvetica,sans-Serif" font-size="10.00">(125 tok)</text>
</g>
<!-- cmd_issue_spec_review&#45;&gt;script_spec_review_manifest -->
<g id="edge21" class="edge">
<title>cmd_issue_spec_review&#45;&gt;script_spec_review_manifest</title>
<path fill="none" stroke="black" d="M262.96,-309.92C318.79,-312.88 414.63,-320.1 495.22,-337 523.44,-342.92 553.9,-352.18 579.73,-360.92"/>
<polygon fill="black" stroke="black" points="578.8,-364.3 589.39,-364.24 581.07,-357.68 578.8,-364.3"/>
</g>
<!-- cmd_issue_review_aggregate&#45;&gt;cmd_issue_glossary_check -->
<!-- cmd_issue_glossary_check&#45;&gt;skill_ref_glossary_criteria -->
<g id="edge22" class="edge">
<title>cmd_issue_glossary_check&#45;&gt;skill_ref_glossary_criteria</title>
<path fill="none" stroke="black" d="M256.27,-210.04C262.57,-213.4 268.88,-217.09 274.58,-221 416.57,-318.3 439.73,-360.58 553.22,-490 575.51,-515.43 601.19,-544.3 619.18,-564.46"/>
<polygon fill="black" stroke="black" points="616.64,-566.87 625.92,-572 621.87,-562.21 616.64,-566.87"/>
</g>
<!-- cmd_issue_glossary_check&#45;&gt;cmd_issue_arch_drift -->
<!-- cmd_issue_arch_drift&#45;&gt;cmd_issue_cross_repo_create -->
<!-- cmd_issue_cross_repo_create&#45;&gt;cmd_project_board_sync -->
<!-- cmd_project_board_sync&#45;&gt;skill_ref_issue_template_bug -->
<!-- cmd_explore&#45;&gt;cmd_issue_structure -->
<!-- agent_issue_critic&#45;&gt;skill_ref_issue_quality_criteria -->
<g id="edge23" class="edge">
<title>agent_issue_critic&#45;&gt;skill_ref_issue_quality_criteria</title>
<path fill="none" stroke="black" stroke-dasharray="1,5" d="M458.69,-632.66C488.96,-635.2 530.03,-638.63 565.63,-641.61"/>
<polygon fill="black" stroke="black" points="565.73,-645.13 575.99,-642.48 566.32,-638.15 565.73,-645.13"/>
</g>
<!-- agent_issue_critic&#45;&gt;agent_issue_feasibility -->
<!-- agent_issue_feasibility&#45;&gt;skill_ref_issue_quality_criteria -->
<g id="edge24" class="edge">
<title>agent_issue_feasibility&#45;&gt;skill_ref_issue_quality_criteria</title>
<path fill="none" stroke="black" stroke-dasharray="1,5" d="M454.37,-580.7C488.27,-594.13 534.53,-612.31 553.22,-619 560.41,-621.58 567.96,-624.19 575.5,-626.73"/>
<polygon fill="black" stroke="black" points="574.42,-630.06 585.01,-629.91 576.64,-623.42 574.42,-630.06"/>
</g>
<!-- agent_issue_feasibility&#45;&gt;agent_worker_codex_reviewer -->
<!-- agent_worker_codex_reviewer&#45;&gt;skill_ref_issue_quality_criteria -->
<g id="edge25" class="edge">
<title>agent_worker_codex_reviewer&#45;&gt;skill_ref_issue_quality_criteria</title>
<path fill="none" stroke="black" stroke-dasharray="1,5" d="M438.31,-475.35C455.05,-490.45 477.63,-511.98 495.22,-533 524.8,-568.36 516.42,-591.23 553.22,-619 557.4,-622.16 561.94,-624.98 566.68,-627.5"/>
<polygon fill="black" stroke="black" points="565.47,-630.8 576,-631.98 568.51,-624.49 565.47,-630.8"/>
</g>
<!-- agent_worker_codex_reviewer&#45;&gt;script_escape_issue_body -->
<!-- script_escape_issue_body&#45;&gt;script_spec_review_manifest -->
</g>
</svg>
