<?xml version="1.0" encoding="UTF-8" standalone="no"?>
<!DOCTYPE svg PUBLIC "-//W3C//DTD SVG 1.1//EN"
 "http://www.w3.org/Graphics/SVG/1.1/DTD/svg11.dtd">
<!-- Generated by graphviz version 2.43.0 (0)
 -->
<!-- Title: Dependencies Pages: 1 -->
<svg width="1064pt" height="647pt"
 viewBox="0.00 0.00 1063.59 647.00" xmlns="http://www.w3.org/2000/svg" xmlns:xlink="http://www.w3.org/1999/xlink">
<g id="graph0" class="graph" transform="scale(1 1) rotate(0) translate(4 643)">
<title>Dependencies</title>
<polygon fill="white" stroke="transparent" points="-4,4 -4,-643 1059.59,-643 1059.59,4 -4,4"/>
<text text-anchor="middle" x="527.8" y="-623.8" font-family="Helvetica,sans-Serif" font-size="14.00">co&#45;issue</text>
<!-- skill_co_issue -->
<g id="node1" class="node">
<title>skill_co_issue</title>
<ellipse fill="#c8e6c9" stroke="black" cx="53.03" cy="-91" rx="53.07" ry="21.43"/>
<text text-anchor="middle" x="53.03" y="-94" font-family="Helvetica,sans-Serif" font-size="10.00">twl:co&#45;issue</text>
<text text-anchor="middle" x="53.03" y="-83" font-family="Helvetica,sans-Serif" font-size="10.00">(792 tok)</text>
</g>
<!-- skill_workflow_issue_refine -->
<g id="node2" class="node">
<title>skill_workflow_issue_refine</title>
<ellipse fill="#e8f5e9" stroke="black" cx="265.18" cy="-183" rx="98.99" ry="21.43"/>
<text text-anchor="middle" x="265.18" y="-186" font-family="Helvetica,sans-Serif" font-size="10.00">twl:workflow&#45;issue&#45;refine</text>
<text text-anchor="middle" x="265.18" y="-175" font-family="Helvetica,sans-Serif" font-size="10.00">(1,092 tok)</text>
</g>
<!-- skill_co_issue&#45;&gt;skill_workflow_issue_refine -->
<g id="edge3" class="edge">
<title>skill_co_issue&#45;&gt;skill_workflow_issue_refine</title>
<path fill="none" stroke="black" d="M82.7,-108.6C104.48,-121.47 135.46,-138.76 164.07,-151 174.02,-155.26 184.74,-159.26 195.33,-162.9"/>
<polygon fill="black" stroke="black" points="194.41,-166.28 205,-166.14 196.63,-159.64 194.41,-166.28"/>
</g>
<!-- skill_workflow_issue_create -->
<g id="node3" class="node">
<title>skill_workflow_issue_create</title>
<ellipse fill="#e8f5e9" stroke="black" cx="265.18" cy="-119" rx="101.23" ry="21.43"/>
<text text-anchor="middle" x="265.18" y="-122" font-family="Helvetica,sans-Serif" font-size="10.00">twl:workflow&#45;issue&#45;create</text>
<text text-anchor="middle" x="265.18" y="-111" font-family="Helvetica,sans-Serif" font-size="10.00">(826 tok)</text>
</g>
<!-- skill_co_issue&#45;&gt;skill_workflow_issue_create -->
<g id="edge4" class="edge">
<title>skill_co_issue&#45;&gt;skill_workflow_issue_create</title>
<path fill="none" stroke="black" d="M103.57,-97.6C123.23,-100.22 146.53,-103.32 169.2,-106.34"/>
<polygon fill="black" stroke="black" points="168.83,-109.83 179.21,-107.68 169.76,-102.89 168.83,-109.83"/>
</g>
<!-- cmd_issue_glossary_check -->
<g id="node11" class="node">
<title>cmd_issue_glossary_check</title>
<polygon fill="#e3f2fd" stroke="black" points="549.8,-36 430.8,-36 430.8,0 549.8,0 549.8,-36"/>
<text text-anchor="middle" x="490.3" y="-21" font-family="Helvetica,sans-Serif" font-size="10.00">issue&#45;glossary&#45;check</text>
<text text-anchor="middle" x="490.3" y="-10" font-family="Helvetica,sans-Serif" font-size="10.00">(860 tok)</text>
</g>
<!-- skill_co_issue&#45;&gt;cmd_issue_glossary_check -->
<g id="edge2" class="edge">
<title>skill_co_issue&#45;&gt;cmd_issue_glossary_check</title>
<path fill="none" stroke="black" d="M102.28,-82.91C179.64,-69.93 331.75,-44.42 420.49,-29.54"/>
<polygon fill="black" stroke="black" points="421.18,-32.97 430.46,-27.87 420.02,-26.07 421.18,-32.97"/>
</g>
<!-- cmd_explore -->
<g id="node15" class="node">
<title>cmd_explore</title>
<polygon fill="#e3f2fd" stroke="black" points="525.3,-94 455.3,-94 455.3,-58 525.3,-58 525.3,-94"/>
<text text-anchor="middle" x="490.3" y="-79" font-family="Helvetica,sans-Serif" font-size="10.00">explore</text>
<text text-anchor="middle" x="490.3" y="-68" font-family="Helvetica,sans-Serif" font-size="10.00">(1,510 tok)</text>
</g>
<!-- skill_co_issue&#45;&gt;cmd_explore -->
<g id="edge1" class="edge">
<title>skill_co_issue&#45;&gt;cmd_explore</title>
<path fill="none" stroke="black" d="M106.09,-89.08C124.41,-88.41 145.15,-87.66 164.07,-87 264.41,-83.48 382.17,-79.55 444.81,-77.47"/>
<polygon fill="black" stroke="black" points="445.24,-80.96 455.12,-77.13 445.01,-73.96 445.24,-80.96"/>
</g>
<!-- skill_workflow_issue_refine&#45;&gt;skill_workflow_issue_create -->
<!-- cmd_issue_structure -->
<g id="node5" class="node">
<title>cmd_issue_structure</title>
<polygon fill="#e3f2fd" stroke="black" points="534.8,-616 445.8,-616 445.8,-580 534.8,-580 534.8,-616"/>
<text text-anchor="middle" x="490.3" y="-601" font-family="Helvetica,sans-Serif" font-size="10.00">issue&#45;structure</text>
<text text-anchor="middle" x="490.3" y="-590" font-family="Helvetica,sans-Serif" font-size="10.00">(1,247 tok)</text>
</g>
<!-- skill_workflow_issue_refine&#45;&gt;cmd_issue_structure -->
<g id="edge5" class="edge">
<title>skill_workflow_issue_refine&#45;&gt;cmd_issue_structure</title>
<path fill="none" stroke="black" d="M269.26,-204.42C279.49,-268.21 317.93,-459.3 424.3,-569 427.97,-572.78 432.22,-576.11 436.76,-579.03"/>
<polygon fill="black" stroke="black" points="435.33,-582.25 445.76,-584.15 438.8,-576.17 435.33,-582.25"/>
</g>
<!-- cmd_issue_tech_debt_absorb -->
<g id="node8" class="node">
<title>cmd_issue_tech_debt_absorb</title>
<polygon fill="#e3f2fd" stroke="black" points="554.8,-558 425.8,-558 425.8,-522 554.8,-522 554.8,-558"/>
<text text-anchor="middle" x="490.3" y="-543" font-family="Helvetica,sans-Serif" font-size="10.00">issue&#45;tech&#45;debt&#45;absorb</text>
<text text-anchor="middle" x="490.3" y="-532" font-family="Helvetica,sans-Serif" font-size="10.00">(730 tok)</text>
</g>
<!-- skill_workflow_issue_refine&#45;&gt;cmd_issue_tech_debt_absorb -->
<g id="edge6" class="edge">
<title>skill_workflow_issue_refine&#45;&gt;cmd_issue_tech_debt_absorb</title>
<path fill="none" stroke="black" d="M271.02,-204.43C284.98,-261.65 330.41,-419.85 424.3,-511 426.16,-512.81 428.15,-514.51 430.25,-516.12"/>
<polygon fill="black" stroke="black" points="428.48,-519.15 438.73,-521.86 432.4,-513.36 428.48,-519.15"/>
</g>
<!-- cmd_issue_spec_review -->
<g id="node9" class="node">
<title>cmd_issue_spec_review</title>
<polygon fill="#bbdefb" stroke="black" points="542.8,-500 437.8,-500 437.8,-464 542.8,-464 542.8,-500"/>
<text text-anchor="middle" x="490.3" y="-485" font-family="Helvetica,sans-Serif" font-size="10.00">issue&#45;spec&#45;review</text>
<text text-anchor="middle" x="490.3" y="-474" font-family="Helvetica,sans-Serif" font-size="10.00">(1,308 tok)</text>
</g>
<!-- skill_workflow_issue_refine&#45;&gt;cmd_issue_spec_review -->
<g id="edge7" class="edge">
<title>skill_workflow_issue_refine&#45;&gt;cmd_issue_spec_review</title>
<path fill="none" stroke="black" d="M273.41,-204.2C291.37,-254.01 342.56,-379.8 424.3,-453 426.46,-454.93 428.76,-456.75 431.17,-458.47"/>
<polygon fill="black" stroke="black" points="429.39,-461.48 439.71,-463.89 433.15,-455.58 429.39,-461.48"/>
</g>
<!-- cmd_issue_review_aggregate -->
<g id="node10" class="node">
<title>cmd_issue_review_aggregate</title>
<polygon fill="#e3f2fd" stroke="black" points="556.3,-442 424.3,-442 424.3,-406 556.3,-406 556.3,-442"/>
<text text-anchor="middle" x="490.3" y="-427" font-family="Helvetica,sans-Serif" font-size="10.00">issue&#45;review&#45;aggregate</text>
<text text-anchor="middle" x="490.3" y="-416" font-family="Helvetica,sans-Serif" font-size="10.00">(1,157 tok)</text>
</g>
<!-- skill_workflow_issue_refine&#45;&gt;cmd_issue_review_aggregate -->
<g id="edge8" class="edge">
<title>skill_workflow_issue_refine&#45;&gt;cmd_issue_review_aggregate</title>
<path fill="none" stroke="black" d="M277.1,-204.17C299.52,-245.82 354.57,-339.21 424.3,-395 426.86,-397.05 429.58,-398.98 432.41,-400.8"/>
<polygon fill="black" stroke="black" points="430.75,-403.89 441.15,-405.93 434.3,-397.85 430.75,-403.89"/>
</g>
<!-- cmd_issue_arch_drift -->
<g id="node12" class="node">
<title>cmd_issue_arch_drift</title>
<polygon fill="#e3f2fd" stroke="black" points="535.3,-384 445.3,-384 445.3,-348 535.3,-348 535.3,-384"/>
<text text-anchor="middle" x="490.3" y="-369" font-family="Helvetica,sans-Serif" font-size="10.00">issue&#45;arch&#45;drift</text>
<text text-anchor="middle" x="490.3" y="-358" font-family="Helvetica,sans-Serif" font-size="10.00">(788 tok)</text>
</g>
<!-- skill_workflow_issue_refine&#45;&gt;cmd_issue_arch_drift -->
<g id="edge9" class="edge">
<title>skill_workflow_issue_refine&#45;&gt;cmd_issue_arch_drift</title>
<path fill="none" stroke="black" d="M283.49,-204.09C310.71,-236.2 366.42,-297.75 424.3,-337 428.02,-339.53 432,-341.92 436.09,-344.17"/>
<polygon fill="black" stroke="black" points="434.67,-347.37 445.16,-348.85 437.88,-341.15 434.67,-347.37"/>
</g>
<!-- cmd_issue_create -->
<g id="node6" class="node">
<title>cmd_issue_create</title>
<polygon fill="#e3f2fd" stroke="black" points="528.8,-326 451.8,-326 451.8,-290 528.8,-290 528.8,-326"/>
<text text-anchor="middle" x="490.3" y="-311" font-family="Helvetica,sans-Serif" font-size="10.00">issue&#45;create</text>
<text text-anchor="middle" x="490.3" y="-300" font-family="Helvetica,sans-Serif" font-size="10.00">(1,002 tok)</text>
</g>
<!-- skill_workflow_issue_create&#45;&gt;cmd_issue_create -->
<g id="edge10" class="edge">
<title>skill_workflow_issue_create&#45;&gt;cmd_issue_create</title>
<path fill="none" stroke="black" d="M338,-133.75C348.28,-138.1 358.12,-143.72 366.3,-151 412.95,-192.53 380.01,-234.96 424.3,-279 429.54,-284.21 435.88,-288.57 442.52,-292.19"/>
<polygon fill="black" stroke="black" points="441.16,-295.42 451.68,-296.68 444.24,-289.14 441.16,-295.42"/>
</g>
<!-- cmd_issue_bulk_create -->
<g id="node7" class="node">
<title>cmd_issue_bulk_create</title>
<polygon fill="#e3f2fd" stroke="black" points="540.8,-268 439.8,-268 439.8,-232 540.8,-232 540.8,-268"/>
<text text-anchor="middle" x="490.3" y="-253" font-family="Helvetica,sans-Serif" font-size="10.00">issue&#45;bulk&#45;create</text>
<text text-anchor="middle" x="490.3" y="-242" font-family="Helvetica,sans-Serif" font-size="10.00">(1,440 tok)</text>
</g>
<!-- skill_workflow_issue_create&#45;&gt;cmd_issue_bulk_create -->
<g id="edge11" class="edge">
<title>skill_workflow_issue_create&#45;&gt;cmd_issue_bulk_create</title>
<path fill="none" stroke="black" d="M333.54,-134.67C345,-138.95 356.39,-144.31 366.3,-151 399.78,-173.62 392.12,-196.57 424.3,-221 427.04,-223.08 429.95,-225.05 432.97,-226.91"/>
<polygon fill="black" stroke="black" points="431.26,-229.97 441.68,-231.86 434.72,-223.88 431.26,-229.97"/>
</g>
<!-- cmd_issue_cross_repo_create -->
<g id="node13" class="node">
<title>cmd_issue_cross_repo_create</title>
<polygon fill="#e3f2fd" stroke="black" points="555.8,-210 424.8,-210 424.8,-174 555.8,-174 555.8,-210"/>
<text text-anchor="middle" x="490.3" y="-195" font-family="Helvetica,sans-Serif" font-size="10.00">issue&#45;cross&#45;repo&#45;create</text>
<text text-anchor="middle" x="490.3" y="-184" font-family="Helvetica,sans-Serif" font-size="10.00">(1,425 tok)</text>
</g>
<!-- skill_workflow_issue_create&#45;&gt;cmd_issue_cross_repo_create -->
<g id="edge12" class="edge">
<title>skill_workflow_issue_create&#45;&gt;cmd_issue_cross_repo_create</title>
<path fill="none" stroke="black" d="M321.83,-136.65C336.32,-141.28 351.9,-146.3 366.3,-151 385.79,-157.36 406.99,-164.39 426.21,-170.8"/>
<polygon fill="black" stroke="black" points="425.17,-174.15 435.76,-174 427.39,-167.51 425.17,-174.15"/>
</g>
<!-- cmd_project_board_sync -->
<g id="node14" class="node">
<title>cmd_project_board_sync</title>
<polygon fill="#e3f2fd" stroke="black" points="544.3,-152 436.3,-152 436.3,-116 544.3,-116 544.3,-152"/>
<text text-anchor="middle" x="490.3" y="-137" font-family="Helvetica,sans-Serif" font-size="10.00">project&#45;board&#45;sync</text>
<text text-anchor="middle" x="490.3" y="-126" font-family="Helvetica,sans-Serif" font-size="10.00">(1,184 tok)</text>
</g>
<!-- skill_workflow_issue_create&#45;&gt;cmd_project_board_sync -->
<g id="edge13" class="edge">
<title>skill_workflow_issue_create&#45;&gt;cmd_project_board_sync</title>
<path fill="none" stroke="black" d="M361.77,-125.43C383.43,-126.88 405.9,-128.39 425.84,-129.73"/>
<polygon fill="black" stroke="black" points="425.81,-133.24 436.02,-130.42 426.28,-126.26 425.81,-133.24"/>
</g>
<!-- skill_ref_glossary_criteria -->
<g id="node4" class="node">
<title>skill_ref_glossary_criteria</title>
<polygon fill="#e1f5fe" stroke="black" points="765.02,-36 640.02,-36 640.02,0 771.02,0 771.02,-30 765.02,-36"/>
<polyline fill="none" stroke="black" points="765.02,-36 765.02,-30 "/>
<polyline fill="none" stroke="black" points="771.02,-30 765.02,-30 "/>
<text text-anchor="middle" x="705.52" y="-21" font-family="Helvetica,sans-Serif" font-size="10.00">twl:ref&#45;glossary&#45;criteria</text>
<text text-anchor="middle" x="705.52" y="-10" font-family="Helvetica,sans-Serif" font-size="10.00">(873 tok)</text>
</g>
<!-- cmd_issue_structure&#45;&gt;cmd_issue_tech_debt_absorb -->
<!-- cmd_issue_create&#45;&gt;cmd_issue_bulk_create -->
<!-- cmd_issue_bulk_create&#45;&gt;cmd_issue_cross_repo_create -->
<!-- cmd_issue_tech_debt_absorb&#45;&gt;cmd_issue_spec_review -->
<!-- cmd_issue_spec_review&#45;&gt;cmd_issue_review_aggregate -->
<!-- agent_issue_critic -->
<g id="node16" class="node">
<title>agent_issue_critic</title>
<ellipse fill="#ede7f6" stroke="black" cx="705.52" cy="-546" rx="49.49" ry="21.43"/>
<text text-anchor="middle" x="705.52" y="-549" font-family="Helvetica,sans-Serif" font-size="10.00">issue&#45;critic</text>
<text text-anchor="middle" x="705.52" y="-538" font-family="Helvetica,sans-Serif" font-size="10.00">(1,268 tok)</text>
</g>
<!-- cmd_issue_spec_review&#45;&gt;agent_issue_critic -->
<g id="edge14" class="edge">
<title>cmd_issue_spec_review&#45;&gt;agent_issue_critic</title>
<path fill="none" stroke="black" stroke-dasharray="5,2" d="M542.91,-497.49C576.9,-507.69 621.16,-520.98 654.76,-531.07"/>
<polygon fill="black" stroke="black" points="653.8,-534.43 664.38,-533.95 655.81,-527.73 653.8,-534.43"/>
</g>
<!-- agent_issue_feasibility -->
<g id="node17" class="node">
<title>agent_issue_feasibility</title>
<ellipse fill="#ede7f6" stroke="black" cx="705.52" cy="-482" rx="67.35" ry="21.43"/>
<text text-anchor="middle" x="705.52" y="-485" font-family="Helvetica,sans-Serif" font-size="10.00">issue&#45;feasibility</text>
<text text-anchor="middle" x="705.52" y="-474" font-family="Helvetica,sans-Serif" font-size="10.00">(1,175 tok)</text>
</g>
<!-- cmd_issue_spec_review&#45;&gt;agent_issue_feasibility -->
<g id="edge15" class="edge">
<title>cmd_issue_spec_review&#45;&gt;agent_issue_feasibility</title>
<path fill="none" stroke="black" stroke-dasharray="5,2" d="M542.91,-482C568.38,-482 599.61,-482 627.8,-482"/>
<polygon fill="black" stroke="black" points="628.04,-485.5 638.04,-482 628.04,-478.5 628.04,-485.5"/>
</g>
<!-- agent_worker_codex_reviewer -->
<g id="node18" class="node">
<title>agent_worker_codex_reviewer</title>
<ellipse fill="#ede7f6" stroke="black" cx="705.52" cy="-418" rx="91.43" ry="21.43"/>
<text text-anchor="middle" x="705.52" y="-421" font-family="Helvetica,sans-Serif" font-size="10.00">worker&#45;codex&#45;reviewer</text>
<text text-anchor="middle" x="705.52" y="-410" font-family="Helvetica,sans-Serif" font-size="10.00">(1,421 tok)</text>
</g>
<!-- cmd_issue_spec_review&#45;&gt;agent_worker_codex_reviewer -->
<g id="edge16" class="edge">
<title>cmd_issue_spec_review&#45;&gt;agent_worker_codex_reviewer</title>
<path fill="none" stroke="black" stroke-dasharray="5,2" d="M542.91,-466.51C571.83,-457.83 608.17,-446.92 639.07,-437.64"/>
<polygon fill="black" stroke="black" points="640.32,-440.92 648.9,-434.7 638.31,-434.22 640.32,-440.92"/>
</g>
<!-- script_escape_issue_body -->
<g id="node19" class="node">
<title>script_escape_issue_body</title>
<polygon fill="#ff9800" stroke="black" points="1043.52,-418 999.34,-442.49 910.98,-442.49 866.8,-418 910.98,-393.51 999.34,-393.51 1043.52,-418"/>
<text text-anchor="middle" x="955.16" y="-421" font-family="Helvetica,sans-Serif" font-size="10.00">escape&#45;issue&#45;body</text>
<text text-anchor="middle" x="955.16" y="-410" font-family="Helvetica,sans-Serif" font-size="10.00">(63 tok)</text>
</g>
<!-- cmd_issue_spec_review&#45;&gt;script_escape_issue_body -->
<g id="edge17" class="edge">
<title>cmd_issue_spec_review&#45;&gt;script_escape_issue_body</title>
<path fill="none" stroke="black" d="M538.49,-500.07C544.73,-503.3 550.84,-506.95 556.3,-511 587.93,-534.47 578.48,-561.63 614.3,-578 688.04,-611.7 721.95,-609.33 796.73,-578 858.05,-552.31 907.55,-489.81 933.76,-450.96"/>
<polygon fill="black" stroke="black" points="936.71,-452.85 939.3,-442.58 930.87,-448.99 936.71,-452.85"/>
</g>
<!-- script_spec_review_manifest -->
<g id="node20" class="node">
<title>script_spec_review_manifest</title>
<polygon fill="#ff9800" stroke="black" points="1055.52,-347 1005.34,-371.49 904.98,-371.49 854.8,-347 904.98,-322.51 1005.34,-322.51 1055.52,-347"/>
<text text-anchor="middle" x="955.16" y="-350" font-family="Helvetica,sans-Serif" font-size="10.00">spec&#45;review&#45;manifest</text>
<text text-anchor="middle" x="955.16" y="-339" font-family="Helvetica,sans-Serif" font-size="10.00">(125 tok)</text>
</g>
<!-- cmd_issue_spec_review&#45;&gt;script_spec_review_manifest -->
<g id="edge18" class="edge">
<title>cmd_issue_spec_review&#45;&gt;script_spec_review_manifest</title>
<path fill="none" stroke="black" d="M538.49,-463.93C544.73,-460.7 550.84,-457.05 556.3,-453 587.93,-429.53 579.47,-404.39 614.3,-386 689.51,-346.29 786.93,-338.8 858.17,-339.92"/>
<polygon fill="black" stroke="black" points="858.42,-343.42 868.49,-340.14 858.57,-336.42 858.42,-343.42"/>
</g>
<!-- cmd_issue_review_aggregate&#45;&gt;cmd_issue_arch_drift -->
<!-- cmd_issue_glossary_check&#45;&gt;skill_workflow_issue_refine -->
<!-- cmd_issue_glossary_check&#45;&gt;skill_ref_glossary_criteria -->
<g id="edge19" class="edge">
<title>cmd_issue_glossary_check&#45;&gt;skill_ref_glossary_criteria</title>
<path fill="none" stroke="black" d="M549.84,-18C574.44,-18 603.35,-18 629.49,-18"/>
<polygon fill="black" stroke="black" points="629.73,-21.5 639.73,-18 629.73,-14.5 629.73,-21.5"/>
</g>
<!-- cmd_issue_cross_repo_create&#45;&gt;cmd_project_board_sync -->
<!-- cmd_explore&#45;&gt;cmd_issue_glossary_check -->
<!-- agent_issue_critic&#45;&gt;agent_issue_feasibility -->
<!-- agent_issue_feasibility&#45;&gt;agent_worker_codex_reviewer -->
<!-- agent_worker_codex_reviewer&#45;&gt;script_escape_issue_body -->
<!-- script_escape_issue_body&#45;&gt;script_spec_review_manifest -->
</g>
</svg>
