<?xml version="1.0" encoding="UTF-8" standalone="no"?>
<!DOCTYPE svg PUBLIC "-//W3C//DTD SVG 1.1//EN"
 "http://www.w3.org/Graphics/SVG/1.1/DTD/svg11.dtd">
<!-- Generated by graphviz version 2.43.0 (0)
 -->
<!-- Title: Dependencies Pages: 1 -->
<svg width="725pt" height="1342pt"
 viewBox="0.00 0.00 725.49 1342.31" xmlns="http://www.w3.org/2000/svg" xmlns:xlink="http://www.w3.org/1999/xlink">
<g id="graph0" class="graph" transform="scale(1 1) rotate(0) translate(4 1338.31)">
<title>Dependencies</title>
<polygon fill="white" stroke="transparent" points="-4,4 -4,-1338.31 721.49,-1338.31 721.49,4 -4,4"/>
<text text-anchor="middle" x="358.74" y="-1319.11" font-family="Helvetica,sans-Serif" font-size="14.00">co&#45;project</text>
<!-- skill_co_project -->
<g id="node1" class="node">
<title>skill_co_project</title>
<ellipse fill="#c8e6c9" stroke="black" cx="53.03" cy="-671.04" rx="53.07" ry="21.43"/>
<text text-anchor="middle" x="53.03" y="-674.04" font-family="Helvetica,sans-Serif" font-size="10.00">twl:co&#45;project</text>
<text text-anchor="middle" x="53.03" y="-663.04" font-family="Helvetica,sans-Serif" font-size="10.00">(1,395 tok)</text>
</g>
<!-- skill_ref_types -->
<g id="node3" class="node">
<title>skill_ref_types</title>
<polygon fill="#e1f5fe" stroke="black" points="669.49,-167.04 604.49,-167.04 604.49,-131.04 675.49,-131.04 675.49,-161.04 669.49,-167.04"/>
<polyline fill="none" stroke="black" points="669.49,-167.04 669.49,-161.04 "/>
<polyline fill="none" stroke="black" points="675.49,-161.04 669.49,-161.04 "/>
<text text-anchor="middle" x="639.99" y="-152.04" font-family="Helvetica,sans-Serif" font-size="10.00">twl:ref&#45;types</text>
<text text-anchor="middle" x="639.99" y="-141.04" font-family="Helvetica,sans-Serif" font-size="10.00">(2,168 tok)</text>
</g>
<!-- skill_co_project&#45;&gt;skill_ref_types -->
<g id="edge21" class="edge">
<title>skill_co_project&#45;&gt;skill_ref_types</title>
<path fill="none" stroke="black" d="M54.4,-692.26C56.6,-790.83 71.31,-1202.54 164.07,-1280.04 212.16,-1320.22 259.45,-1323.01 305.07,-1280.04 383.66,-1206.01 306.52,-402.02 363.07,-310.04 415.45,-224.82 530.97,-179.77 594.67,-160.58"/>
<polygon fill="black" stroke="black" points="595.82,-163.89 604.43,-157.72 593.85,-157.18 595.82,-163.89"/>
</g>
<!-- skill_ref_practices -->
<g id="node4" class="node">
<title>skill_ref_practices</title>
<polygon fill="#e1f5fe" stroke="black" points="676.99,-109.04 596.99,-109.04 596.99,-73.04 682.99,-73.04 682.99,-103.04 676.99,-109.04"/>
<polyline fill="none" stroke="black" points="676.99,-109.04 676.99,-103.04 "/>
<polyline fill="none" stroke="black" points="682.99,-103.04 676.99,-103.04 "/>
<text text-anchor="middle" x="639.99" y="-94.04" font-family="Helvetica,sans-Serif" font-size="10.00">twl:ref&#45;practices</text>
<text text-anchor="middle" x="639.99" y="-83.04" font-family="Helvetica,sans-Serif" font-size="10.00">(6,372 tok)</text>
</g>
<!-- skill_co_project&#45;&gt;skill_ref_practices -->
<g id="edge22" class="edge">
<title>skill_co_project&#45;&gt;skill_ref_practices</title>
<path fill="none" stroke="black" d="M54.95,-649.81C59.39,-557.39 82.01,-191.62 164.07,-120.04 225.73,-66.25 476.37,-78.34 586.57,-86.56"/>
<polygon fill="black" stroke="black" points="586.55,-90.07 596.79,-87.35 587.08,-83.09 586.55,-90.07"/>
</g>
<!-- skill_ref_deps_format -->
<g id="node5" class="node">
<title>skill_ref_deps_format</title>
<polygon fill="#e1f5fe" stroke="black" points="682.99,-51.04 590.99,-51.04 590.99,-15.04 688.99,-15.04 688.99,-45.04 682.99,-51.04"/>
<polyline fill="none" stroke="black" points="682.99,-51.04 682.99,-45.04 "/>
<polyline fill="none" stroke="black" points="688.99,-45.04 682.99,-45.04 "/>
<text text-anchor="middle" x="639.99" y="-36.04" font-family="Helvetica,sans-Serif" font-size="10.00">twl:ref&#45;deps&#45;format</text>
<text text-anchor="middle" x="639.99" y="-25.04" font-family="Helvetica,sans-Serif" font-size="10.00">(1,832 tok)</text>
</g>
<!-- skill_co_project&#45;&gt;skill_ref_deps_format -->
<g id="edge23" class="edge">
<title>skill_co_project&#45;&gt;skill_ref_deps_format</title>
<path fill="none" stroke="black" d="M54.69,-649.59C58.15,-552.72 77.44,-157.28 164.07,-78.04 279.13,27.21 481.84,1.99 581.03,-18.73"/>
<polygon fill="black" stroke="black" points="580.36,-22.16 590.88,-20.84 581.83,-15.32 580.36,-22.16"/>
</g>
<!-- cmd_label_sync -->
<g id="node7" class="node">
<title>cmd_label_sync</title>
<polygon fill="#e3f2fd" stroke="black" points="266.07,-167.04 203.07,-167.04 203.07,-131.04 266.07,-131.04 266.07,-167.04"/>
<text text-anchor="middle" x="234.57" y="-152.04" font-family="Helvetica,sans-Serif" font-size="10.00">label&#45;sync</text>
<text text-anchor="middle" x="234.57" y="-141.04" font-family="Helvetica,sans-Serif" font-size="10.00">(1,185 tok)</text>
</g>
<!-- skill_co_project&#45;&gt;cmd_label_sync -->
<g id="edge20" class="edge">
<title>skill_co_project&#45;&gt;cmd_label_sync</title>
<path fill="none" stroke="black" d="M56.18,-649.79C65.13,-565.05 101.89,-252.22 164.07,-178.04 171.67,-168.97 182.58,-162.69 193.51,-158.36"/>
<polygon fill="black" stroke="black" points="194.75,-161.63 203.04,-155.03 192.44,-155.02 194.75,-161.63"/>
</g>
<!-- cmd_project_create -->
<g id="node8" class="node">
<title>cmd_project_create</title>
<polygon fill="#e3f2fd" stroke="black" points="272.57,-1269.04 196.57,-1269.04 196.57,-1233.04 272.57,-1233.04 272.57,-1269.04"/>
<text text-anchor="middle" x="234.57" y="-1254.04" font-family="Helvetica,sans-Serif" font-size="10.00">project&#45;create</text>
<text text-anchor="middle" x="234.57" y="-1243.04" font-family="Helvetica,sans-Serif" font-size="10.00">(440 tok)</text>
</g>
<!-- skill_co_project&#45;&gt;cmd_project_create -->
<g id="edge1" class="edge">
<title>skill_co_project&#45;&gt;cmd_project_create</title>
<path fill="none" stroke="black" d="M55.64,-692.26C62.88,-783.04 95.22,-1137.99 164.07,-1222.04 170.09,-1229.39 178.3,-1234.91 186.96,-1239.04"/>
<polygon fill="black" stroke="black" points="185.89,-1242.38 196.46,-1242.99 188.58,-1235.92 185.89,-1242.38"/>
</g>
<!-- cmd_project_board_configure -->
<g id="node9" class="node">
<title>cmd_project_board_configure</title>
<polygon fill="#e3f2fd" stroke="black" points="292.57,-1153.04 176.57,-1153.04 176.57,-1117.04 292.57,-1117.04 292.57,-1153.04"/>
<text text-anchor="middle" x="234.57" y="-1138.04" font-family="Helvetica,sans-Serif" font-size="10.00">project&#45;board&#45;configure</text>
<text text-anchor="middle" x="234.57" y="-1127.04" font-family="Helvetica,sans-Serif" font-size="10.00">(1,167 tok)</text>
</g>
<!-- skill_co_project&#45;&gt;cmd_project_board_configure -->
<g id="edge3" class="edge">
<title>skill_co_project&#45;&gt;cmd_project_board_configure</title>
<path fill="none" stroke="black" d="M56.88,-692.43C67.72,-770.88 108.55,-1041.66 164.07,-1106.04 165.41,-1107.6 166.85,-1109.07 168.38,-1110.47"/>
<polygon fill="black" stroke="black" points="166.54,-1113.48 176.58,-1116.84 170.83,-1107.95 166.54,-1113.48"/>
</g>
<!-- cmd_project_governance -->
<g id="node10" class="node">
<title>cmd_project_governance</title>
<polygon fill="#e3f2fd" stroke="black" points="284.07,-1211.04 185.07,-1211.04 185.07,-1175.04 284.07,-1175.04 284.07,-1211.04"/>
<text text-anchor="middle" x="234.57" y="-1196.04" font-family="Helvetica,sans-Serif" font-size="10.00">project&#45;governance</text>
<text text-anchor="middle" x="234.57" y="-1185.04" font-family="Helvetica,sans-Serif" font-size="10.00">(974 tok)</text>
</g>
<!-- skill_co_project&#45;&gt;cmd_project_governance -->
<g id="edge2" class="edge">
<title>skill_co_project&#45;&gt;cmd_project_governance</title>
<path fill="none" stroke="black" d="M56.18,-692.29C65.13,-777.03 101.89,-1089.85 164.07,-1164.04 167.49,-1168.13 171.6,-1171.65 176.07,-1174.69"/>
<polygon fill="black" stroke="black" points="174.66,-1177.91 185.06,-1179.94 178.19,-1171.87 174.66,-1177.91"/>
</g>
<!-- cmd_project_migrate -->
<g id="node11" class="node">
<title>cmd_project_migrate</title>
<polygon fill="#e3f2fd" stroke="black" points="275.07,-1095.04 194.07,-1095.04 194.07,-1059.04 275.07,-1059.04 275.07,-1095.04"/>
<text text-anchor="middle" x="234.57" y="-1080.04" font-family="Helvetica,sans-Serif" font-size="10.00">project&#45;migrate</text>
<text text-anchor="middle" x="234.57" y="-1069.04" font-family="Helvetica,sans-Serif" font-size="10.00">(462 tok)</text>
</g>
<!-- skill_co_project&#45;&gt;cmd_project_migrate -->
<g id="edge4" class="edge">
<title>skill_co_project&#45;&gt;cmd_project_migrate</title>
<path fill="none" stroke="black" d="M54.16,-692.39C55.66,-755.11 68.38,-941.06 164.07,-1048.04 169.77,-1054.41 177.09,-1059.42 184.84,-1063.35"/>
<polygon fill="black" stroke="black" points="183.5,-1066.58 194.05,-1067.48 186.36,-1060.19 183.5,-1066.58"/>
</g>
<!-- cmd_container_dependency_check -->
<g id="node12" class="node">
<title>cmd_container_dependency_check</title>
<polygon fill="#e3f2fd" stroke="black" points="305.07,-1037.04 164.07,-1037.04 164.07,-1001.04 305.07,-1001.04 305.07,-1037.04"/>
<text text-anchor="middle" x="234.57" y="-1022.04" font-family="Helvetica,sans-Serif" font-size="10.00">container&#45;dependency&#45;check</text>
<text text-anchor="middle" x="234.57" y="-1011.04" font-family="Helvetica,sans-Serif" font-size="10.00">(493 tok)</text>
</g>
<!-- skill_co_project&#45;&gt;cmd_container_dependency_check -->
<g id="edge5" class="edge">
<title>skill_co_project&#45;&gt;cmd_container_dependency_check</title>
<path fill="none" stroke="black" d="M55.5,-692.31C60.45,-748.37 81.27,-901.84 164.07,-990.04 165.67,-991.74 167.38,-993.35 169.19,-994.87"/>
<polygon fill="black" stroke="black" points="167.46,-997.94 177.62,-1000.94 171.55,-992.26 167.46,-997.94"/>
</g>
<!-- cmd_setup_crg -->
<g id="node13" class="node">
<title>cmd_setup_crg</title>
<polygon fill="#e3f2fd" stroke="black" points="263.07,-979.04 206.07,-979.04 206.07,-943.04 263.07,-943.04 263.07,-979.04"/>
<text text-anchor="middle" x="234.57" y="-964.04" font-family="Helvetica,sans-Serif" font-size="10.00">setup&#45;crg</text>
<text text-anchor="middle" x="234.57" y="-953.04" font-family="Helvetica,sans-Serif" font-size="10.00">(754 tok)</text>
</g>
<!-- skill_co_project&#45;&gt;cmd_setup_crg -->
<g id="edge6" class="edge">
<title>skill_co_project&#45;&gt;cmd_setup_crg</title>
<path fill="none" stroke="black" d="M57.39,-692.34C66.15,-741.16 94.05,-862.28 164.07,-932.04 172.97,-940.91 184.98,-947.2 196.51,-951.61"/>
<polygon fill="black" stroke="black" points="195.41,-954.93 206.01,-954.88 197.69,-948.31 195.41,-954.93"/>
</g>
<!-- cmd_snapshot_analyze -->
<g id="node14" class="node">
<title>cmd_snapshot_analyze</title>
<polygon fill="#e3f2fd" stroke="black" points="281.07,-921.04 188.07,-921.04 188.07,-885.04 281.07,-885.04 281.07,-921.04"/>
<text text-anchor="middle" x="234.57" y="-906.04" font-family="Helvetica,sans-Serif" font-size="10.00">snapshot&#45;analyze</text>
<text text-anchor="middle" x="234.57" y="-895.04" font-family="Helvetica,sans-Serif" font-size="10.00">(600 tok)</text>
</g>
<!-- skill_co_project&#45;&gt;cmd_snapshot_analyze -->
<g id="edge7" class="edge">
<title>skill_co_project&#45;&gt;cmd_snapshot_analyze</title>
<path fill="none" stroke="black" d="M60.21,-692.13C73.1,-732.67 106.51,-822.04 164.07,-874.04 168.48,-878.02 173.52,-881.51 178.82,-884.55"/>
<polygon fill="black" stroke="black" points="177.44,-887.77 187.93,-889.24 180.64,-881.55 177.44,-887.77"/>
</g>
<!-- cmd_snapshot_classify -->
<g id="node15" class="node">
<title>cmd_snapshot_classify</title>
<polygon fill="#e3f2fd" stroke="black" points="281.07,-863.04 188.07,-863.04 188.07,-827.04 281.07,-827.04 281.07,-863.04"/>
<text text-anchor="middle" x="234.57" y="-848.04" font-family="Helvetica,sans-Serif" font-size="10.00">snapshot&#45;classify</text>
<text text-anchor="middle" x="234.57" y="-837.04" font-family="Helvetica,sans-Serif" font-size="10.00">(870 tok)</text>
</g>
<!-- skill_co_project&#45;&gt;cmd_snapshot_classify -->
<g id="edge8" class="edge">
<title>skill_co_project&#45;&gt;cmd_snapshot_classify</title>
<path fill="none" stroke="black" d="M65.04,-691.81C82.35,-722.73 118.7,-780.94 164.07,-816.04 168.64,-819.57 173.7,-822.75 178.95,-825.6"/>
<polygon fill="black" stroke="black" points="177.4,-828.73 187.91,-830.06 180.52,-822.47 177.4,-828.73"/>
</g>
<!-- cmd_snapshot_generate -->
<g id="node16" class="node">
<title>cmd_snapshot_generate</title>
<polygon fill="#e3f2fd" stroke="black" points="283.07,-805.04 186.07,-805.04 186.07,-769.04 283.07,-769.04 283.07,-805.04"/>
<text text-anchor="middle" x="234.57" y="-790.04" font-family="Helvetica,sans-Serif" font-size="10.00">snapshot&#45;generate</text>
<text text-anchor="middle" x="234.57" y="-779.04" font-family="Helvetica,sans-Serif" font-size="10.00">(735 tok)</text>
</g>
<!-- skill_co_project&#45;&gt;cmd_snapshot_generate -->
<g id="edge9" class="edge">
<title>skill_co_project&#45;&gt;cmd_snapshot_generate</title>
<path fill="none" stroke="black" d="M75.08,-690.58C96.33,-709.59 130.7,-738.39 164.07,-758.04 168.15,-760.44 172.46,-762.74 176.87,-764.93"/>
<polygon fill="black" stroke="black" points="175.45,-768.13 185.99,-769.24 178.44,-761.8 175.45,-768.13"/>
</g>
<!-- cmd_plugin_interview -->
<g id="node17" class="node">
<title>cmd_plugin_interview</title>
<polygon fill="#e3f2fd" stroke="black" points="276.57,-747.04 192.57,-747.04 192.57,-711.04 276.57,-711.04 276.57,-747.04"/>
<text text-anchor="middle" x="234.57" y="-732.04" font-family="Helvetica,sans-Serif" font-size="10.00">plugin&#45;interview</text>
<text text-anchor="middle" x="234.57" y="-721.04" font-family="Helvetica,sans-Serif" font-size="10.00">(1,086 tok)</text>
</g>
<!-- skill_co_project&#45;&gt;cmd_plugin_interview -->
<g id="edge10" class="edge">
<title>skill_co_project&#45;&gt;cmd_plugin_interview</title>
<path fill="none" stroke="black" d="M94.77,-684.2C120.87,-692.63 154.94,-703.64 182.8,-712.64"/>
<polygon fill="black" stroke="black" points="181.78,-715.98 192.37,-715.73 183.93,-709.32 181.78,-715.98"/>
</g>
<!-- cmd_plugin_research -->
<g id="node18" class="node">
<title>cmd_plugin_research</title>
<polygon fill="#e3f2fd" stroke="black" points="276.07,-689.04 193.07,-689.04 193.07,-653.04 276.07,-653.04 276.07,-689.04"/>
<text text-anchor="middle" x="234.57" y="-674.04" font-family="Helvetica,sans-Serif" font-size="10.00">plugin&#45;research</text>
<text text-anchor="middle" x="234.57" y="-663.04" font-family="Helvetica,sans-Serif" font-size="10.00">(655 tok)</text>
</g>
<!-- skill_co_project&#45;&gt;cmd_plugin_research -->
<g id="edge11" class="edge">
<title>skill_co_project&#45;&gt;cmd_plugin_research</title>
<path fill="none" stroke="black" d="M106.44,-671.04C130.43,-671.04 158.74,-671.04 182.55,-671.04"/>
<polygon fill="black" stroke="black" points="182.79,-674.54 192.79,-671.04 182.79,-667.54 182.79,-674.54"/>
</g>
<!-- cmd_plugin_design -->
<g id="node19" class="node">
<title>cmd_plugin_design</title>
<polygon fill="#e3f2fd" stroke="black" points="271.57,-631.04 197.57,-631.04 197.57,-595.04 271.57,-595.04 271.57,-631.04"/>
<text text-anchor="middle" x="234.57" y="-616.04" font-family="Helvetica,sans-Serif" font-size="10.00">plugin&#45;design</text>
<text text-anchor="middle" x="234.57" y="-605.04" font-family="Helvetica,sans-Serif" font-size="10.00">(1,192 tok)</text>
</g>
<!-- skill_co_project&#45;&gt;cmd_plugin_design -->
<g id="edge12" class="edge">
<title>skill_co_project&#45;&gt;cmd_plugin_design</title>
<path fill="none" stroke="black" d="M94.77,-657.88C122.44,-648.94 159.08,-637.1 187.76,-627.84"/>
<polygon fill="black" stroke="black" points="189.11,-631.08 197.55,-624.67 186.96,-624.42 189.11,-631.08"/>
</g>
<!-- cmd_plugin_generate -->
<g id="node20" class="node">
<title>cmd_plugin_generate</title>
<polygon fill="#e3f2fd" stroke="black" points="276.07,-573.04 193.07,-573.04 193.07,-537.04 276.07,-537.04 276.07,-573.04"/>
<text text-anchor="middle" x="234.57" y="-558.04" font-family="Helvetica,sans-Serif" font-size="10.00">plugin&#45;generate</text>
<text text-anchor="middle" x="234.57" y="-547.04" font-family="Helvetica,sans-Serif" font-size="10.00">(2,082 tok)</text>
</g>
<!-- skill_co_project&#45;&gt;cmd_plugin_generate -->
<g id="edge13" class="edge">
<title>skill_co_project&#45;&gt;cmd_plugin_generate</title>
<path fill="none" stroke="black" d="M75.08,-651.49C96.33,-632.49 130.7,-603.69 164.07,-584.04 170.26,-580.39 177,-576.97 183.77,-573.85"/>
<polygon fill="black" stroke="black" points="185.23,-577.03 192.97,-569.79 182.4,-570.63 185.23,-577.03"/>
</g>
<!-- cmd_plugin_migrate_analyze -->
<g id="node21" class="node">
<title>cmd_plugin_migrate_analyze</title>
<polygon fill="#e3f2fd" stroke="black" points="291.57,-515.04 177.57,-515.04 177.57,-479.04 291.57,-479.04 291.57,-515.04"/>
<text text-anchor="middle" x="234.57" y="-500.04" font-family="Helvetica,sans-Serif" font-size="10.00">plugin&#45;migrate&#45;analyze</text>
<text text-anchor="middle" x="234.57" y="-489.04" font-family="Helvetica,sans-Serif" font-size="10.00">(458 tok)</text>
</g>
<!-- skill_co_project&#45;&gt;cmd_plugin_migrate_analyze -->
<g id="edge14" class="edge">
<title>skill_co_project&#45;&gt;cmd_plugin_migrate_analyze</title>
<path fill="none" stroke="black" d="M65.04,-650.26C82.35,-619.35 118.7,-561.14 164.07,-526.04 166.7,-524 169.5,-522.08 172.41,-520.27"/>
<polygon fill="black" stroke="black" points="174.41,-523.16 181.39,-515.19 170.96,-517.07 174.41,-523.16"/>
</g>
<!-- cmd_plugin_diagnose -->
<g id="node22" class="node">
<title>cmd_plugin_diagnose</title>
<polygon fill="#e3f2fd" stroke="black" points="276.57,-457.04 192.57,-457.04 192.57,-421.04 276.57,-421.04 276.57,-457.04"/>
<text text-anchor="middle" x="234.57" y="-442.04" font-family="Helvetica,sans-Serif" font-size="10.00">plugin&#45;diagnose</text>
<text text-anchor="middle" x="234.57" y="-431.04" font-family="Helvetica,sans-Serif" font-size="10.00">(944 tok)</text>
</g>
<!-- skill_co_project&#45;&gt;cmd_plugin_diagnose -->
<g id="edge15" class="edge">
<title>skill_co_project&#45;&gt;cmd_plugin_diagnose</title>
<path fill="none" stroke="black" d="M60.21,-649.95C73.1,-609.41 106.51,-520.04 164.07,-468.04 169.6,-463.04 176.12,-458.82 182.92,-455.3"/>
<polygon fill="black" stroke="black" points="184.71,-458.32 192.28,-450.9 181.74,-451.98 184.71,-458.32"/>
</g>
<!-- cmd_plugin_fix -->
<g id="node23" class="node">
<title>cmd_plugin_fix</title>
<polygon fill="#e3f2fd" stroke="black" points="266.07,-399.04 203.07,-399.04 203.07,-363.04 266.07,-363.04 266.07,-399.04"/>
<text text-anchor="middle" x="234.57" y="-384.04" font-family="Helvetica,sans-Serif" font-size="10.00">plugin&#45;fix</text>
<text text-anchor="middle" x="234.57" y="-373.04" font-family="Helvetica,sans-Serif" font-size="10.00">(1,074 tok)</text>
</g>
<!-- skill_co_project&#45;&gt;cmd_plugin_fix -->
<g id="edge16" class="edge">
<title>skill_co_project&#45;&gt;cmd_plugin_fix</title>
<path fill="none" stroke="black" d="M57.39,-649.73C66.15,-600.91 94.05,-479.8 164.07,-410.04 172.15,-401.98 182.8,-396.05 193.33,-391.73"/>
<polygon fill="black" stroke="black" points="194.72,-394.95 202.88,-388.2 192.29,-388.38 194.72,-394.95"/>
</g>
<!-- cmd_plugin_verify -->
<g id="node24" class="node">
<title>cmd_plugin_verify</title>
<polygon fill="#e3f2fd" stroke="black" points="269.07,-341.04 200.07,-341.04 200.07,-305.04 269.07,-305.04 269.07,-341.04"/>
<text text-anchor="middle" x="234.57" y="-326.04" font-family="Helvetica,sans-Serif" font-size="10.00">plugin&#45;verify</text>
<text text-anchor="middle" x="234.57" y="-315.04" font-family="Helvetica,sans-Serif" font-size="10.00">(518 tok)</text>
</g>
<!-- skill_co_project&#45;&gt;cmd_plugin_verify -->
<g id="edge17" class="edge">
<title>skill_co_project&#45;&gt;cmd_plugin_verify</title>
<path fill="none" stroke="black" d="M55.5,-649.76C60.45,-593.71 81.27,-440.24 164.07,-352.04 171.18,-344.46 180.58,-338.79 190.16,-334.58"/>
<polygon fill="black" stroke="black" points="191.68,-337.74 199.71,-330.83 189.13,-331.22 191.68,-337.74"/>
</g>
<!-- cmd_plugin_phase_diagnose -->
<g id="node25" class="node">
<title>cmd_plugin_phase_diagnose</title>
<polygon fill="#bbdefb" stroke="black" points="291.07,-283.04 178.07,-283.04 178.07,-247.04 291.07,-247.04 291.07,-283.04"/>
<text text-anchor="middle" x="234.57" y="-268.04" font-family="Helvetica,sans-Serif" font-size="10.00">plugin&#45;phase&#45;diagnose</text>
<text text-anchor="middle" x="234.57" y="-257.04" font-family="Helvetica,sans-Serif" font-size="10.00">(631 tok)</text>
</g>
<!-- skill_co_project&#45;&gt;cmd_plugin_phase_diagnose -->
<g id="edge18" class="edge">
<title>skill_co_project&#45;&gt;cmd_plugin_phase_diagnose</title>
<path fill="none" stroke="black" d="M54.16,-649.68C55.66,-586.96 68.38,-401.01 164.07,-294.04 165.78,-292.12 167.65,-290.32 169.62,-288.65"/>
<polygon fill="black" stroke="black" points="171.72,-291.44 177.75,-282.73 167.6,-285.79 171.72,-291.44"/>
</g>
<!-- cmd_plugin_phase_verify -->
<g id="node26" class="node">
<title>cmd_plugin_phase_verify</title>
<polygon fill="#bbdefb" stroke="black" points="283.57,-225.04 185.57,-225.04 185.57,-189.04 283.57,-189.04 283.57,-225.04"/>
<text text-anchor="middle" x="234.57" y="-210.04" font-family="Helvetica,sans-Serif" font-size="10.00">plugin&#45;phase&#45;verify</text>
<text text-anchor="middle" x="234.57" y="-199.04" font-family="Helvetica,sans-Serif" font-size="10.00">(634 tok)</text>
</g>
<!-- skill_co_project&#45;&gt;cmd_plugin_phase_verify -->
<g id="edge19" class="edge">
<title>skill_co_project&#45;&gt;cmd_plugin_phase_verify</title>
<path fill="none" stroke="black" d="M56.88,-649.65C67.72,-571.19 108.55,-300.41 164.07,-236.04 167.69,-231.83 172.03,-228.22 176.75,-225.13"/>
<polygon fill="black" stroke="black" points="178.62,-228.09 185.57,-220.09 175.15,-222.01 178.62,-228.09"/>
</g>
<!-- skill_ref_specialist_output_schema -->
<g id="node2" class="node">
<title>skill_ref_specialist_output_schema</title>
<polygon fill="#e1f5fe" stroke="black" points="711.49,-360.04 562.49,-360.04 562.49,-324.04 717.49,-324.04 717.49,-354.04 711.49,-360.04"/>
<polyline fill="none" stroke="black" points="711.49,-360.04 711.49,-354.04 "/>
<polyline fill="none" stroke="black" points="717.49,-354.04 711.49,-354.04 "/>
<text text-anchor="middle" x="639.99" y="-345.04" font-family="Helvetica,sans-Serif" font-size="10.00">twl:ref&#45;specialist&#45;output&#45;schema</text>
<text text-anchor="middle" x="639.99" y="-334.04" font-family="Helvetica,sans-Serif" font-size="10.00">(2,563 tok)</text>
</g>
<!-- skill_ref_architecture -->
<g id="node6" class="node">
<title>skill_ref_architecture</title>
<polygon fill="#e1f5fe" stroke="black" points="682.99,-302.04 590.99,-302.04 590.99,-266.04 688.99,-266.04 688.99,-296.04 682.99,-302.04"/>
<polyline fill="none" stroke="black" points="682.99,-302.04 682.99,-296.04 "/>
<polyline fill="none" stroke="black" points="688.99,-296.04 682.99,-296.04 "/>
<text text-anchor="middle" x="639.99" y="-287.04" font-family="Helvetica,sans-Serif" font-size="10.00">twl:ref&#45;architecture</text>
<text text-anchor="middle" x="639.99" y="-276.04" font-family="Helvetica,sans-Serif" font-size="10.00">(2,273 tok)</text>
</g>
<!-- skill_ref_specialist_output_schema&#45;&gt;skill_ref_architecture -->
<!-- skill_ref_specialist_output_schema&#45;&gt;skill_ref_architecture -->
<!-- skill_ref_types&#45;&gt;skill_ref_practices -->
<!-- skill_ref_practices&#45;&gt;skill_ref_deps_format -->
<!-- cmd_label_sync&#45;&gt;skill_ref_types -->
<!-- cmd_project_create&#45;&gt;cmd_project_governance -->
<!-- cmd_project_board_configure&#45;&gt;cmd_project_migrate -->
<!-- cmd_project_governance&#45;&gt;cmd_project_board_configure -->
<!-- cmd_project_migrate&#45;&gt;cmd_container_dependency_check -->
<!-- cmd_container_dependency_check&#45;&gt;cmd_setup_crg -->
<!-- cmd_setup_crg&#45;&gt;cmd_snapshot_analyze -->
<!-- cmd_snapshot_analyze&#45;&gt;cmd_snapshot_classify -->
<!-- cmd_snapshot_classify&#45;&gt;cmd_snapshot_generate -->
<!-- cmd_snapshot_generate&#45;&gt;cmd_plugin_interview -->
<!-- cmd_plugin_interview&#45;&gt;cmd_plugin_research -->
<!-- cmd_plugin_research&#45;&gt;cmd_plugin_design -->
<!-- cmd_plugin_design&#45;&gt;cmd_plugin_generate -->
<!-- cmd_plugin_generate&#45;&gt;cmd_plugin_migrate_analyze -->
<!-- cmd_plugin_migrate_analyze&#45;&gt;cmd_plugin_diagnose -->
<!-- cmd_plugin_diagnose&#45;&gt;cmd_plugin_fix -->
<!-- cmd_plugin_fix&#45;&gt;cmd_plugin_verify -->
<!-- cmd_plugin_verify&#45;&gt;cmd_plugin_phase_diagnose -->
<!-- cmd_plugin_phase_diagnose&#45;&gt;skill_ref_specialist_output_schema -->
<g id="edge27" class="edge">
<title>cmd_plugin_phase_diagnose&#45;&gt;skill_ref_specialist_output_schema</title>
<path fill="none" stroke="black" d="M291.32,-282.28C296.47,-285.56 301.19,-289.44 305.07,-294.04 379.66,-382.6 272.53,-475.85 363.07,-548.04 412.21,-587.22 449.21,-577.96 504.49,-548.04 575.17,-509.77 614.62,-416.44 630.55,-369.69"/>
<polygon fill="black" stroke="black" points="633.88,-370.78 633.69,-360.19 627.23,-368.59 633.88,-370.78"/>
</g>
<!-- cmd_plugin_phase_diagnose&#45;&gt;skill_ref_architecture -->
<g id="edge28" class="edge">
<title>cmd_plugin_phase_diagnose&#45;&gt;skill_ref_architecture</title>
<path fill="none" stroke="black" d="M291.24,-267.66C367.36,-271.25 503.3,-277.65 580.75,-281.3"/>
<polygon fill="black" stroke="black" points="580.66,-284.79 590.81,-281.77 580.99,-277.8 580.66,-284.79"/>
</g>
<!-- cmd_plugin_phase_diagnose&#45;&gt;cmd_plugin_phase_verify -->
<!-- agent_worker_structure -->
<g id="node27" class="node">
<title>agent_worker_structure</title>
<ellipse fill="#ede7f6" stroke="black" cx="433.78" cy="-516.04" rx="61.54" ry="21.43"/>
<text text-anchor="middle" x="433.78" y="-519.04" font-family="Helvetica,sans-Serif" font-size="10.00">worker&#45;structure</text>
<text text-anchor="middle" x="433.78" y="-508.04" font-family="Helvetica,sans-Serif" font-size="10.00">(1,244 tok)</text>
</g>
<!-- cmd_plugin_phase_diagnose&#45;&gt;agent_worker_structure -->
<g id="edge24" class="edge">
<title>cmd_plugin_phase_diagnose&#45;&gt;agent_worker_structure</title>
<path fill="none" stroke="black" stroke-dasharray="5,2" d="M291.33,-282.78C296.41,-285.95 301.12,-289.68 305.07,-294.04 364.33,-359.48 304.96,-417.57 363.07,-484.04 367.38,-488.97 372.61,-493.19 378.25,-496.79"/>
<polygon fill="black" stroke="black" points="376.94,-500.07 387.37,-501.95 380.38,-493.98 376.94,-500.07"/>
</g>
<!-- agent_worker_principles -->
<g id="node28" class="node">
<title>agent_worker_principles</title>
<ellipse fill="#ede7f6" stroke="black" cx="433.78" cy="-452.04" rx="63.78" ry="21.43"/>
<text text-anchor="middle" x="433.78" y="-455.04" font-family="Helvetica,sans-Serif" font-size="10.00">worker&#45;principles</text>
<text text-anchor="middle" x="433.78" y="-444.04" font-family="Helvetica,sans-Serif" font-size="10.00">(1,154 tok)</text>
</g>
<!-- cmd_plugin_phase_diagnose&#45;&gt;agent_worker_principles -->
<g id="edge25" class="edge">
<title>cmd_plugin_phase_diagnose&#45;&gt;agent_worker_principles</title>
<path fill="none" stroke="black" stroke-dasharray="5,2" d="M290.32,-283.22C295.66,-286.32 300.7,-289.9 305.07,-294.04 348.09,-334.76 322.22,-371.14 363.07,-414.04 369.08,-420.35 376.38,-425.87 383.95,-430.59"/>
<polygon fill="black" stroke="black" points="382.51,-433.8 392.92,-435.77 386.02,-427.74 382.51,-433.8"/>
</g>
<!-- agent_worker_architecture -->
<g id="node29" class="node">
<title>agent_worker_architecture</title>
<ellipse fill="#ede7f6" stroke="black" cx="433.78" cy="-342.04" rx="70.92" ry="21.43"/>
<text text-anchor="middle" x="433.78" y="-345.04" font-family="Helvetica,sans-Serif" font-size="10.00">worker&#45;architecture</text>
<text text-anchor="middle" x="433.78" y="-334.04" font-family="Helvetica,sans-Serif" font-size="10.00">(2,186 tok)</text>
</g>
<!-- cmd_plugin_phase_diagnose&#45;&gt;agent_worker_architecture -->
<g id="edge26" class="edge">
<title>cmd_plugin_phase_diagnose&#45;&gt;agent_worker_architecture</title>
<path fill="none" stroke="black" stroke-dasharray="5,2" d="M281.8,-283.09C311.29,-294.6 349.57,-309.55 380.21,-321.51"/>
<polygon fill="black" stroke="black" points="379.28,-324.91 389.86,-325.28 381.82,-318.39 379.28,-324.91"/>
</g>
<!-- cmd_plugin_phase_verify&#45;&gt;skill_ref_specialist_output_schema -->
<g id="edge32" class="edge">
<title>cmd_plugin_phase_verify&#45;&gt;skill_ref_specialist_output_schema</title>
<path fill="none" stroke="black" d="M283.85,-221.36C291.61,-225.21 299.05,-230.04 305.07,-236.04 352.17,-283.02 307.65,-337.22 363.07,-374.04 432.88,-420.43 535.1,-389.07 593.53,-364.15"/>
<polygon fill="black" stroke="black" points="595.11,-367.28 602.87,-360.07 592.3,-360.87 595.11,-367.28"/>
</g>
<!-- cmd_plugin_phase_verify&#45;&gt;skill_ref_architecture -->
<g id="edge33" class="edge">
<title>cmd_plugin_phase_verify&#45;&gt;skill_ref_architecture</title>
<path fill="none" stroke="black" d="M283.83,-216.25C358.34,-230.47 501.11,-257.72 581.08,-272.99"/>
<polygon fill="black" stroke="black" points="580.51,-276.44 590.98,-274.88 581.82,-269.56 580.51,-276.44"/>
</g>
<!-- cmd_plugin_phase_verify&#45;&gt;cmd_label_sync -->
<!-- cmd_plugin_phase_verify&#45;&gt;agent_worker_structure -->
<g id="edge29" class="edge">
<title>cmd_plugin_phase_verify&#45;&gt;agent_worker_structure</title>
<path fill="none" stroke="black" stroke-dasharray="5,2" d="M283.66,-220.01C291.72,-224.03 299.32,-229.25 305.07,-236.04 378.22,-322.42 291.44,-396.38 363.07,-484.04 367.16,-489.05 372.21,-493.31 377.7,-496.92"/>
<polygon fill="black" stroke="black" points="376.22,-500.11 386.63,-502.08 379.72,-494.05 376.22,-500.11"/>
</g>
<!-- cmd_plugin_phase_verify&#45;&gt;agent_worker_principles -->
<g id="edge30" class="edge">
<title>cmd_plugin_phase_verify&#45;&gt;agent_worker_principles</title>
<path fill="none" stroke="black" stroke-dasharray="5,2" d="M283.92,-220.77C291.76,-224.7 299.21,-229.7 305.07,-236.04 361.49,-297.19 309.89,-350.04 363.07,-414.04 368.51,-420.59 375.39,-426.19 382.7,-430.93"/>
<polygon fill="black" stroke="black" points="381.02,-434 391.4,-436.08 384.58,-427.98 381.02,-434"/>
</g>
<!-- cmd_plugin_phase_verify&#45;&gt;agent_worker_architecture -->
<g id="edge31" class="edge">
<title>cmd_plugin_phase_verify&#45;&gt;agent_worker_architecture</title>
<path fill="none" stroke="black" stroke-dasharray="5,2" d="M283.6,-224.87C290.97,-228.23 298.35,-231.98 305.07,-236.04 342.22,-258.51 379.88,-291.26 404.58,-314.39"/>
<polygon fill="black" stroke="black" points="402.46,-317.21 412.13,-321.54 407.28,-312.12 402.46,-317.21"/>
</g>
<!-- agent_worker_structure&#45;&gt;skill_ref_specialist_output_schema -->
<g id="edge34" class="edge">
<title>agent_worker_structure&#45;&gt;skill_ref_specialist_output_schema</title>
<path fill="none" stroke="black" stroke-dasharray="1,5" d="M475.67,-500.43C485.52,-495.83 495.72,-490.32 504.49,-484.04 551.17,-450.61 594.87,-399.38 619.15,-368.46"/>
<polygon fill="black" stroke="black" points="622.11,-370.36 625.47,-360.31 616.58,-366.07 622.11,-370.36"/>
</g>
<!-- agent_worker_structure&#45;&gt;agent_worker_principles -->
<!-- agent_worker_structure&#45;&gt;agent_worker_principles -->
<!-- agent_worker_structure&#45;&gt;agent_worker_principles -->
<!-- agent_worker_structure&#45;&gt;agent_worker_principles -->
<!-- agent_worker_principles&#45;&gt;skill_ref_specialist_output_schema -->
<g id="edge35" class="edge">
<title>agent_worker_principles&#45;&gt;skill_ref_specialist_output_schema</title>
<path fill="none" stroke="black" stroke-dasharray="1,5" d="M468.04,-434.12C503.09,-415.24 558.4,-385.45 596.57,-364.89"/>
<polygon fill="black" stroke="black" points="598.25,-367.96 605.4,-360.13 594.93,-361.79 598.25,-367.96"/>
</g>
<!-- agent_worker_principles&#45;&gt;agent_worker_architecture -->
<!-- agent_worker_principles&#45;&gt;agent_worker_architecture -->
<!-- agent_worker_architecture&#45;&gt;skill_ref_specialist_output_schema -->
<g id="edge36" class="edge">
<title>agent_worker_architecture&#45;&gt;skill_ref_specialist_output_schema</title>
<path fill="none" stroke="black" stroke-dasharray="1,5" d="M467.59,-323.28C503.45,-315.76 560.91,-315.32 599.29,-321.97"/>
<polygon fill="black" stroke="black" points="599.08,-325.5 609.57,-324.03 600.46,-318.63 599.08,-325.5"/>
</g>
<!-- agent_worker_architecture&#45;&gt;skill_ref_specialist_output_schema -->
<!-- agent_worker_architecture&#45;&gt;skill_ref_specialist_output_schema -->
<!-- agent_worker_architecture&#45;&gt;skill_ref_specialist_output_schema -->
<!-- agent_worker_architecture&#45;&gt;skill_ref_architecture -->
<g id="edge37" class="edge">
<title>agent_worker_architecture&#45;&gt;skill_ref_architecture</title>
<path fill="none" stroke="black" stroke-dasharray="1,5" d="M485.78,-327.55C514.65,-319.35 550.86,-309.07 580.83,-300.56"/>
<polygon fill="black" stroke="black" points="582.07,-303.84 590.74,-297.74 580.16,-297.11 582.07,-303.84"/>
</g>
</g>
</svg>
