<?xml version="1.0" encoding="UTF-8" standalone="no"?>
<!DOCTYPE svg PUBLIC "-//W3C//DTD SVG 1.1//EN"
 "http://www.w3.org/Graphics/SVG/1.1/DTD/svg11.dtd">
<!-- Generated by graphviz version 2.43.0 (0)
 -->
<!-- Title: Dependencies Pages: 1 -->
<svg width="1069pt" height="1259pt"
 viewBox="0.00 0.00 1069.19 1258.54" xmlns="http://www.w3.org/2000/svg" xmlns:xlink="http://www.w3.org/1999/xlink">
<g id="graph0" class="graph" transform="scale(1 1) rotate(0) translate(4 1254.54)">
<title>Dependencies</title>
<polygon fill="white" stroke="transparent" points="-4,4 -4,-1254.54 1065.19,-1254.54 1065.19,4 -4,4"/>
<text text-anchor="middle" x="530.59" y="-1235.34" font-family="Helvetica,sans-Serif" font-size="14.00">workflow&#45;pr&#45;verify</text>
<!-- skill_workflow_pr_verify -->
<g id="node1" class="node">
<title>skill_workflow_pr_verify</title>
<ellipse fill="#e8f5e9" stroke="black" cx="77.78" cy="-637.22" rx="77.56" ry="21.43"/>
<text text-anchor="middle" x="77.78" y="-640.22" font-family="Helvetica,sans-Serif" font-size="10.00">twl:workflow&#45;pr&#45;verify</text>
<text text-anchor="middle" x="77.78" y="-629.22" font-family="Helvetica,sans-Serif" font-size="10.00">(840 tok)</text>
</g>
<!-- cmd_ts_preflight -->
<g id="node6" class="node">
<title>cmd_ts_preflight</title>
<polygon fill="#e3f2fd" stroke="black" points="289.06,-684.22 227.06,-684.22 227.06,-648.22 289.06,-648.22 289.06,-684.22"/>
<text text-anchor="middle" x="258.06" y="-669.22" font-family="Helvetica,sans-Serif" font-size="10.00">ts&#45;preflight</text>
<text text-anchor="middle" x="258.06" y="-658.22" font-family="Helvetica,sans-Serif" font-size="10.00">(349 tok)</text>
</g>
<!-- skill_workflow_pr_verify&#45;&gt;cmd_ts_preflight -->
<g id="edge3" class="edge">
<title>skill_workflow_pr_verify&#45;&gt;cmd_ts_preflight</title>
<path fill="none" stroke="black" d="M144.91,-647.98C169.1,-651.91 195.71,-656.24 216.94,-659.69"/>
<polygon fill="black" stroke="black" points="216.46,-663.16 226.89,-661.31 217.59,-656.25 216.46,-663.16"/>
</g>
<!-- cmd_scope_judge -->
<g id="node7" class="node">
<title>cmd_scope_judge</title>
<polygon fill="#e3f2fd" stroke="black" points="292.56,-568.22 223.56,-568.22 223.56,-532.22 292.56,-532.22 292.56,-568.22"/>
<text text-anchor="middle" x="258.06" y="-553.22" font-family="Helvetica,sans-Serif" font-size="10.00">scope&#45;judge</text>
<text text-anchor="middle" x="258.06" y="-542.22" font-family="Helvetica,sans-Serif" font-size="10.00">(394 tok)</text>
</g>
<!-- skill_workflow_pr_verify&#45;&gt;cmd_scope_judge -->
<g id="edge5" class="edge">
<title>skill_workflow_pr_verify&#45;&gt;cmd_scope_judge</title>
<path fill="none" stroke="black" d="M116.59,-618.77C145.18,-604.82 184.46,-585.65 214.22,-571.13"/>
<polygon fill="black" stroke="black" points="216.06,-574.12 223.52,-566.59 212.99,-567.83 216.06,-574.12"/>
</g>
<!-- cmd_pr_test -->
<g id="node8" class="node">
<title>cmd_pr_test</title>
<polygon fill="#e3f2fd" stroke="black" points="285.56,-510.22 230.56,-510.22 230.56,-474.22 285.56,-474.22 285.56,-510.22"/>
<text text-anchor="middle" x="258.06" y="-495.22" font-family="Helvetica,sans-Serif" font-size="10.00">pr&#45;test</text>
<text text-anchor="middle" x="258.06" y="-484.22" font-family="Helvetica,sans-Serif" font-size="10.00">(359 tok)</text>
</g>
<!-- skill_workflow_pr_verify&#45;&gt;cmd_pr_test -->
<g id="edge6" class="edge">
<title>skill_workflow_pr_verify&#45;&gt;cmd_pr_test</title>
<path fill="none" stroke="black" d="M100.97,-616.64C127.12,-592.74 172.25,-552.58 213.56,-521.22 216.32,-519.13 219.22,-517.01 222.17,-514.93"/>
<polygon fill="black" stroke="black" points="224.24,-517.75 230.48,-509.19 220.26,-511.99 224.24,-517.75"/>
</g>
<!-- cmd_ac_verify -->
<g id="node9" class="node">
<title>cmd_ac_verify</title>
<polygon fill="#e3f2fd" stroke="black" points="285.56,-742.22 230.56,-742.22 230.56,-706.22 285.56,-706.22 285.56,-742.22"/>
<text text-anchor="middle" x="258.06" y="-727.22" font-family="Helvetica,sans-Serif" font-size="10.00">ac&#45;verify</text>
<text text-anchor="middle" x="258.06" y="-716.22" font-family="Helvetica,sans-Serif" font-size="10.00">(375 tok)</text>
</g>
<!-- skill_workflow_pr_verify&#45;&gt;cmd_ac_verify -->
<g id="edge2" class="edge">
<title>skill_workflow_pr_verify&#45;&gt;cmd_ac_verify</title>
<path fill="none" stroke="black" d="M116.59,-655.67C147.4,-670.7 190.61,-691.79 220.95,-706.59"/>
<polygon fill="black" stroke="black" points="219.79,-709.92 230.31,-711.16 222.86,-703.63 219.79,-709.92"/>
</g>
<!-- cmd_phase_review -->
<g id="node10" class="node">
<title>cmd_phase_review</title>
<polygon fill="#bbdefb" stroke="black" points="295.06,-626.22 221.06,-626.22 221.06,-590.22 295.06,-590.22 295.06,-626.22"/>
<text text-anchor="middle" x="258.06" y="-611.22" font-family="Helvetica,sans-Serif" font-size="10.00">phase&#45;review</text>
<text text-anchor="middle" x="258.06" y="-600.22" font-family="Helvetica,sans-Serif" font-size="10.00">(915 tok)</text>
</g>
<!-- skill_workflow_pr_verify&#45;&gt;cmd_phase_review -->
<g id="edge4" class="edge">
<title>skill_workflow_pr_verify&#45;&gt;cmd_phase_review</title>
<path fill="none" stroke="black" d="M144.91,-626.46C166.85,-622.89 190.79,-619 210.89,-615.73"/>
<polygon fill="black" stroke="black" points="211.72,-619.14 221.03,-614.08 210.6,-612.23 211.72,-619.14"/>
</g>
<!-- cmd_ac_deploy_trigger -->
<g id="node11" class="node">
<title>cmd_ac_deploy_trigger</title>
<polygon fill="#e3f2fd" stroke="black" points="302.56,-800.22 213.56,-800.22 213.56,-764.22 302.56,-764.22 302.56,-800.22"/>
<text text-anchor="middle" x="258.06" y="-785.22" font-family="Helvetica,sans-Serif" font-size="10.00">ac&#45;deploy&#45;trigger</text>
<text text-anchor="middle" x="258.06" y="-774.22" font-family="Helvetica,sans-Serif" font-size="10.00">(457 tok)</text>
</g>
<!-- skill_workflow_pr_verify&#45;&gt;cmd_ac_deploy_trigger -->
<g id="edge1" class="edge">
<title>skill_workflow_pr_verify&#45;&gt;cmd_ac_deploy_trigger</title>
<path fill="none" stroke="black" d="M100.97,-657.8C127.12,-681.7 172.25,-721.86 213.56,-753.22 215.65,-754.8 217.82,-756.4 220.03,-757.98"/>
<polygon fill="black" stroke="black" points="218.43,-761.14 228.63,-763.99 222.44,-755.4 218.43,-761.14"/>
</g>
<!-- skill_ref_specialist_output_schema -->
<g id="node2" class="node">
<title>skill_ref_specialist_output_schema</title>
<polygon fill="#e1f5fe" stroke="black" points="1055.19,-285.22 906.19,-285.22 906.19,-249.22 1061.19,-249.22 1061.19,-279.22 1055.19,-285.22"/>
<polyline fill="none" stroke="black" points="1055.19,-285.22 1055.19,-279.22 "/>
<polyline fill="none" stroke="black" points="1061.19,-279.22 1055.19,-279.22 "/>
<text text-anchor="middle" x="983.69" y="-270.22" font-family="Helvetica,sans-Serif" font-size="10.00">twl:ref&#45;specialist&#45;output&#45;schema</text>
<text text-anchor="middle" x="983.69" y="-259.22" font-family="Helvetica,sans-Serif" font-size="10.00">(2,563 tok)</text>
</g>
<!-- skill_baseline_coding_style -->
<g id="node3" class="node">
<title>skill_baseline_coding_style</title>
<polygon fill="#e1f5fe" stroke="black" points="1039.69,-227.22 921.69,-227.22 921.69,-191.22 1045.69,-191.22 1045.69,-221.22 1039.69,-227.22"/>
<polyline fill="none" stroke="black" points="1039.69,-227.22 1039.69,-221.22 "/>
<polyline fill="none" stroke="black" points="1045.69,-221.22 1039.69,-221.22 "/>
<text text-anchor="middle" x="983.69" y="-212.22" font-family="Helvetica,sans-Serif" font-size="10.00">twl:baseline&#45;coding&#45;style</text>
<text text-anchor="middle" x="983.69" y="-201.22" font-family="Helvetica,sans-Serif" font-size="10.00">(1,570 tok)</text>
</g>
<!-- skill_ref_specialist_output_schema&#45;&gt;skill_baseline_coding_style -->
<!-- skill_ref_specialist_output_schema&#45;&gt;skill_baseline_coding_style -->
<!-- skill_baseline_security_checklist -->
<g id="node4" class="node">
<title>skill_baseline_security_checklist</title>
<polygon fill="#e1f5fe" stroke="black" points="1051.69,-169.22 909.69,-169.22 909.69,-133.22 1057.69,-133.22 1057.69,-163.22 1051.69,-169.22"/>
<polyline fill="none" stroke="black" points="1051.69,-169.22 1051.69,-163.22 "/>
<polyline fill="none" stroke="black" points="1057.69,-163.22 1051.69,-163.22 "/>
<text text-anchor="middle" x="983.69" y="-154.22" font-family="Helvetica,sans-Serif" font-size="10.00">twl:baseline&#45;security&#45;checklist</text>
<text text-anchor="middle" x="983.69" y="-143.22" font-family="Helvetica,sans-Serif" font-size="10.00">(1,815 tok)</text>
</g>
<!-- skill_baseline_coding_style&#45;&gt;skill_baseline_security_checklist -->
<!-- skill_baseline_coding_style&#45;&gt;skill_baseline_security_checklist -->
<!-- skill_baseline_input_validation -->
<g id="node5" class="node">
<title>skill_baseline_input_validation</title>
<polygon fill="#e1f5fe" stroke="black" points="1046.19,-111.22 915.19,-111.22 915.19,-75.22 1052.19,-75.22 1052.19,-105.22 1046.19,-111.22"/>
<polyline fill="none" stroke="black" points="1046.19,-111.22 1046.19,-105.22 "/>
<polyline fill="none" stroke="black" points="1052.19,-105.22 1046.19,-105.22 "/>
<text text-anchor="middle" x="983.69" y="-96.22" font-family="Helvetica,sans-Serif" font-size="10.00">twl:baseline&#45;input&#45;validation</text>
<text text-anchor="middle" x="983.69" y="-85.22" font-family="Helvetica,sans-Serif" font-size="10.00">(1,408 tok)</text>
</g>
<!-- skill_baseline_security_checklist&#45;&gt;skill_baseline_input_validation -->
<!-- skill_baseline_security_checklist&#45;&gt;skill_baseline_input_validation -->
<!-- cmd_ts_preflight&#45;&gt;cmd_phase_review -->
<!-- cmd_scope_judge&#45;&gt;cmd_pr_test -->
<!-- cmd_ac_verify&#45;&gt;cmd_ts_preflight -->
<!-- cmd_phase_review&#45;&gt;skill_ref_specialist_output_schema -->
<g id="edge27" class="edge">
<title>cmd_phase_review&#45;&gt;skill_ref_specialist_output_schema</title>
<path fill="none" stroke="black" d="M293.2,-626.45C296.83,-629.61 300.09,-633.2 302.56,-637.22 416.41,-822.58 220.04,-957.17 360.56,-1123.22 431.32,-1206.83 765.37,-1266.9 848.19,-1195.22 918.44,-1134.42 970.35,-444.1 980.77,-295.35"/>
<polygon fill="black" stroke="black" points="984.27,-295.44 981.47,-285.22 977.29,-294.95 984.27,-295.44"/>
</g>
<!-- cmd_phase_review&#45;&gt;skill_baseline_coding_style -->
<g id="edge28" class="edge">
<title>cmd_phase_review&#45;&gt;skill_baseline_coding_style</title>
<path fill="none" stroke="black" d="M293.18,-589.97C296.81,-586.81 300.08,-583.23 302.56,-579.22 356.67,-491.8 285.27,-190.22 360.56,-120.22 439.95,-46.41 750.57,-60.1 848.19,-107.22 885.51,-125.23 872.73,-155.78 906.19,-180.22 909.17,-182.4 912.34,-184.44 915.63,-186.34"/>
<polygon fill="black" stroke="black" points="914.07,-189.47 924.55,-191.05 917.34,-183.28 914.07,-189.47"/>
</g>
<!-- cmd_phase_review&#45;&gt;skill_baseline_security_checklist -->
<g id="edge29" class="edge">
<title>cmd_phase_review&#45;&gt;skill_baseline_security_checklist</title>
<path fill="none" stroke="black" d="M293.23,-590C296.85,-586.84 300.11,-583.25 302.56,-579.22 362.51,-480.88 274.85,-141.14 360.56,-64.22 441.21,8.15 748.25,-21.32 848.19,-63.22 882.1,-77.44 875.39,-102.12 906.19,-122.22 909.73,-124.53 913.49,-126.7 917.36,-128.73"/>
<polygon fill="black" stroke="black" points="916.04,-131.97 926.56,-133.19 919.09,-125.68 916.04,-131.97"/>
</g>
<!-- cmd_phase_review&#45;&gt;skill_baseline_input_validation -->
<g id="edge30" class="edge">
<title>cmd_phase_review&#45;&gt;skill_baseline_input_validation</title>
<path fill="none" stroke="black" d="M293.26,-590.02C296.88,-586.86 300.13,-583.26 302.56,-579.22 367.52,-471.52 267.18,-100.47 360.56,-16.22 379.8,1.14 749.6,8.88 848.19,-17.22 886.39,-27.33 925.17,-50.98 951.21,-69.23"/>
<polygon fill="black" stroke="black" points="949.37,-72.22 959.54,-75.19 953.44,-66.52 949.37,-72.22"/>
</g>
<!-- cmd_phase_review&#45;&gt;cmd_scope_judge -->
<!-- agent_worker_structure -->
<g id="node12" class="node">
<title>agent_worker_structure</title>
<ellipse fill="#ede7f6" stroke="black" cx="727.27" cy="-1163.22" rx="61.54" ry="21.43"/>
<text text-anchor="middle" x="727.27" y="-1166.22" font-family="Helvetica,sans-Serif" font-size="10.00">worker&#45;structure</text>
<text text-anchor="middle" x="727.27" y="-1155.22" font-family="Helvetica,sans-Serif" font-size="10.00">(1,244 tok)</text>
</g>
<!-- cmd_phase_review&#45;&gt;agent_worker_structure -->
<g id="edge10" class="edge">
<title>cmd_phase_review&#45;&gt;agent_worker_structure</title>
<path fill="none" stroke="black" stroke-dasharray="5,2" d="M293.14,-626.5C296.78,-629.65 300.06,-633.22 302.56,-637.22 403.29,-798.04 236.45,-916.68 360.56,-1060.22 434.07,-1145.24 571.74,-1162.71 655.6,-1164.89"/>
<polygon fill="black" stroke="black" points="655.74,-1168.39 665.8,-1165.09 655.87,-1161.4 655.74,-1168.39"/>
</g>
<!-- agent_worker_principles -->
<g id="node13" class="node">
<title>agent_worker_principles</title>
<ellipse fill="#ede7f6" stroke="black" cx="727.27" cy="-1099.22" rx="63.78" ry="21.43"/>
<text text-anchor="middle" x="727.27" y="-1102.22" font-family="Helvetica,sans-Serif" font-size="10.00">worker&#45;principles</text>
<text text-anchor="middle" x="727.27" y="-1091.22" font-family="Helvetica,sans-Serif" font-size="10.00">(1,154 tok)</text>
</g>
<!-- cmd_phase_review&#45;&gt;agent_worker_principles -->
<g id="edge11" class="edge">
<title>cmd_phase_review&#45;&gt;agent_worker_principles</title>
<path fill="none" stroke="black" stroke-dasharray="5,2" d="M293.05,-626.55C296.7,-629.69 300.01,-633.25 302.56,-637.22 390.4,-773.94 252.41,-876.93 360.56,-998.22 434.52,-1081.16 569.84,-1098.65 653.51,-1100.93"/>
<polygon fill="black" stroke="black" points="653.63,-1104.43 663.7,-1101.14 653.78,-1097.43 653.63,-1104.43"/>
</g>
<!-- agent_worker_env_validator -->
<g id="node14" class="node">
<title>agent_worker_env_validator</title>
<ellipse fill="#ede7f6" stroke="black" cx="727.27" cy="-203.22" rx="73.58" ry="21.43"/>
<text text-anchor="middle" x="727.27" y="-206.22" font-family="Helvetica,sans-Serif" font-size="10.00">worker&#45;env&#45;validator</text>
<text text-anchor="middle" x="727.27" y="-195.22" font-family="Helvetica,sans-Serif" font-size="10.00">(1,426 tok)</text>
</g>
<!-- cmd_phase_review&#45;&gt;agent_worker_env_validator -->
<g id="edge25" class="edge">
<title>cmd_phase_review&#45;&gt;agent_worker_env_validator</title>
<path fill="none" stroke="black" stroke-dasharray="5,2" d="M291.5,-590.11C295.59,-586.86 299.43,-583.22 302.56,-579.22 349.65,-518.96 303.63,-468.28 360.56,-417.22 424.46,-359.91 482.87,-427.69 548.36,-372.22 598.81,-329.48 556.45,-278.6 606.36,-235.22 618.16,-224.96 632.92,-217.94 648,-213.16"/>
<polygon fill="black" stroke="black" points="649.27,-216.43 657.93,-210.32 647.35,-209.7 649.27,-216.43"/>
</g>
<!-- agent_worker_rls_reviewer -->
<g id="node15" class="node">
<title>agent_worker_rls_reviewer</title>
<ellipse fill="#ede7f6" stroke="black" cx="727.27" cy="-523.22" rx="70.01" ry="21.43"/>
<text text-anchor="middle" x="727.27" y="-526.22" font-family="Helvetica,sans-Serif" font-size="10.00">worker&#45;rls&#45;reviewer</text>
<text text-anchor="middle" x="727.27" y="-515.22" font-family="Helvetica,sans-Serif" font-size="10.00">(1,517 tok)</text>
</g>
<!-- cmd_phase_review&#45;&gt;agent_worker_rls_reviewer -->
<g id="edge20" class="edge">
<title>cmd_phase_review&#45;&gt;agent_worker_rls_reviewer</title>
<path fill="none" stroke="black" stroke-dasharray="5,2" d="M295.16,-614.74C351.29,-623.31 462.03,-633.82 548.36,-602.22 579.52,-590.81 576.79,-570.27 606.36,-555.22 621.93,-547.29 639.67,-541.18 656.63,-536.52"/>
<polygon fill="black" stroke="black" points="657.72,-539.85 666.51,-533.94 655.96,-533.08 657.72,-539.85"/>
</g>
<!-- agent_worker_supabase_migration_checker -->
<g id="node16" class="node">
<title>agent_worker_supabase_migration_checker</title>
<ellipse fill="#ede7f6" stroke="black" cx="727.27" cy="-779.22" rx="120.83" ry="21.43"/>
<text text-anchor="middle" x="727.27" y="-782.22" font-family="Helvetica,sans-Serif" font-size="10.00">worker&#45;supabase&#45;migration&#45;checker</text>
<text text-anchor="middle" x="727.27" y="-771.22" font-family="Helvetica,sans-Serif" font-size="10.00">(1,338 tok)</text>
</g>
<!-- cmd_phase_review&#45;&gt;agent_worker_supabase_migration_checker -->
<g id="edge16" class="edge">
<title>cmd_phase_review&#45;&gt;agent_worker_supabase_migration_checker</title>
<path fill="none" stroke="black" stroke-dasharray="5,2" d="M289.83,-626.33C294.35,-629.65 298.76,-633.32 302.56,-637.22 336.3,-671.83 319.92,-703.05 360.56,-729.22 432.88,-775.79 529.9,-787.27 605.84,-787.65"/>
<polygon fill="black" stroke="black" points="605.94,-791.15 615.93,-787.64 605.93,-784.15 605.94,-791.15"/>
</g>
<!-- agent_worker_data_validator -->
<g id="node17" class="node">
<title>agent_worker_data_validator</title>
<ellipse fill="#ede7f6" stroke="black" cx="727.27" cy="-267.22" rx="75.82" ry="21.43"/>
<text text-anchor="middle" x="727.27" y="-270.22" font-family="Helvetica,sans-Serif" font-size="10.00">worker&#45;data&#45;validator</text>
<text text-anchor="middle" x="727.27" y="-259.22" font-family="Helvetica,sans-Serif" font-size="10.00">(698 tok)</text>
</g>
<!-- cmd_phase_review&#45;&gt;agent_worker_data_validator -->
<g id="edge24" class="edge">
<title>cmd_phase_review&#45;&gt;agent_worker_data_validator</title>
<path fill="none" stroke="black" stroke-dasharray="5,2" d="M290.62,-590.09C294.94,-586.81 299.08,-583.17 302.56,-579.22 340.71,-536.01 315.43,-499.07 360.56,-463.22 427.77,-409.84 481.42,-471.93 548.36,-418.22 594.25,-381.4 560.94,-336.63 606.36,-299.22 618.09,-289.55 632.46,-282.79 647.13,-278.05"/>
<polygon fill="black" stroke="black" points="648.17,-281.39 656.79,-275.23 646.21,-274.68 648.17,-281.39"/>
</g>
<!-- agent_worker_e2e_reviewer -->
<g id="node18" class="node">
<title>agent_worker_e2e_reviewer</title>
<ellipse fill="#ede7f6" stroke="black" cx="727.27" cy="-651.22" rx="73.58" ry="21.43"/>
<text text-anchor="middle" x="727.27" y="-654.22" font-family="Helvetica,sans-Serif" font-size="10.00">worker&#45;e2e&#45;reviewer</text>
<text text-anchor="middle" x="727.27" y="-643.22" font-family="Helvetica,sans-Serif" font-size="10.00">(1,226 tok)</text>
</g>
<!-- cmd_phase_review&#45;&gt;agent_worker_e2e_reviewer -->
<g id="edge18" class="edge">
<title>cmd_phase_review&#45;&gt;agent_worker_e2e_reviewer</title>
<path fill="none" stroke="black" stroke-dasharray="5,2" d="M286.55,-626.37C313.75,-644.15 352.46,-668.91 360.56,-671.22 462.62,-700.32 587.05,-682.97 661.3,-667.38"/>
<polygon fill="black" stroke="black" points="662.39,-670.72 671.43,-665.19 660.92,-663.88 662.39,-670.72"/>
</g>
<!-- agent_worker_spec_reviewer -->
<g id="node19" class="node">
<title>agent_worker_spec_reviewer</title>
<ellipse fill="#ede7f6" stroke="black" cx="727.27" cy="-459.22" rx="77.56" ry="21.43"/>
<text text-anchor="middle" x="727.27" y="-462.22" font-family="Helvetica,sans-Serif" font-size="10.00">worker&#45;spec&#45;reviewer</text>
<text text-anchor="middle" x="727.27" y="-451.22" font-family="Helvetica,sans-Serif" font-size="10.00">(1,094 tok)</text>
</g>
<!-- cmd_phase_review&#45;&gt;agent_worker_spec_reviewer -->
<g id="edge21" class="edge">
<title>cmd_phase_review&#45;&gt;agent_worker_spec_reviewer</title>
<path fill="none" stroke="black" stroke-dasharray="5,2" d="M295.19,-604.69C362.78,-597.61 505.38,-580.26 548.36,-556.22 582.15,-537.32 573.38,-511.51 606.36,-491.22 619.53,-483.12 634.74,-477.04 649.82,-472.49"/>
<polygon fill="black" stroke="black" points="651,-475.8 659.68,-469.72 649.11,-469.06 651,-475.8"/>
</g>
<!-- agent_worker_codex_reviewer -->
<g id="node20" class="node">
<title>agent_worker_codex_reviewer</title>
<ellipse fill="#ede7f6" stroke="black" cx="727.27" cy="-139.22" rx="81.13" ry="21.43"/>
<text text-anchor="middle" x="727.27" y="-142.22" font-family="Helvetica,sans-Serif" font-size="10.00">worker&#45;codex&#45;reviewer</text>
<text text-anchor="middle" x="727.27" y="-131.22" font-family="Helvetica,sans-Serif" font-size="10.00">(1,421 tok)</text>
</g>
<!-- cmd_phase_review&#45;&gt;agent_worker_codex_reviewer -->
<g id="edge26" class="edge">
<title>cmd_phase_review&#45;&gt;agent_worker_codex_reviewer</title>
<path fill="none" stroke="black" stroke-dasharray="5,2" d="M292.2,-589.96C296.09,-586.77 299.69,-583.19 302.56,-579.22 358.9,-501.52 290.46,-436.76 360.56,-371.22 422.83,-313 483.98,-388.1 548.36,-332.22 605.79,-282.36 550.34,-222.67 606.36,-171.22 616.51,-161.9 629.08,-155.23 642.22,-150.48"/>
<polygon fill="black" stroke="black" points="643.43,-153.77 651.86,-147.35 641.27,-147.11 643.43,-153.77"/>
</g>
<!-- agent_worker_code_reviewer -->
<g id="node21" class="node">
<title>agent_worker_code_reviewer</title>
<ellipse fill="#ede7f6" stroke="black" cx="727.27" cy="-1035.22" rx="77.56" ry="21.43"/>
<text text-anchor="middle" x="727.27" y="-1038.22" font-family="Helvetica,sans-Serif" font-size="10.00">worker&#45;code&#45;reviewer</text>
<text text-anchor="middle" x="727.27" y="-1027.22" font-family="Helvetica,sans-Serif" font-size="10.00">(964 tok)</text>
</g>
<!-- cmd_phase_review&#45;&gt;agent_worker_code_reviewer -->
<g id="edge12" class="edge">
<title>cmd_phase_review&#45;&gt;agent_worker_code_reviewer</title>
<path fill="none" stroke="black" stroke-dasharray="5,2" d="M292.51,-626.27C296.35,-629.49 299.85,-633.14 302.56,-637.22 377.97,-750.68 267.6,-838.62 360.56,-938.22 431.88,-1014.63 555.82,-1033.52 639.42,-1036.89"/>
<polygon fill="black" stroke="black" points="639.55,-1040.39 649.66,-1037.23 639.79,-1033.4 639.55,-1040.39"/>
</g>
<!-- agent_worker_security_reviewer -->
<g id="node22" class="node">
<title>agent_worker_security_reviewer</title>
<ellipse fill="#ede7f6" stroke="black" cx="727.27" cy="-971.22" rx="86.95" ry="21.43"/>
<text text-anchor="middle" x="727.27" y="-974.22" font-family="Helvetica,sans-Serif" font-size="10.00">worker&#45;security&#45;reviewer</text>
<text text-anchor="middle" x="727.27" y="-963.22" font-family="Helvetica,sans-Serif" font-size="10.00">(866 tok)</text>
</g>
<!-- cmd_phase_review&#45;&gt;agent_worker_security_reviewer -->
<g id="edge13" class="edge">
<title>cmd_phase_review&#45;&gt;agent_worker_security_reviewer</title>
<path fill="none" stroke="black" stroke-dasharray="5,2" d="M292.34,-626.38C296.21,-629.58 299.76,-633.2 302.56,-637.22 366.04,-728.32 282.43,-801.33 360.56,-880.22 431.06,-951.39 548.05,-969.98 630.7,-973.43"/>
<polygon fill="black" stroke="black" points="630.74,-976.93 640.86,-973.78 630.99,-969.94 630.74,-976.93"/>
</g>
<!-- agent_worker_nextjs_reviewer -->
<g id="node23" class="node">
<title>agent_worker_nextjs_reviewer</title>
<ellipse fill="#ede7f6" stroke="black" cx="727.27" cy="-907.22" rx="81.13" ry="21.43"/>
<text text-anchor="middle" x="727.27" y="-910.22" font-family="Helvetica,sans-Serif" font-size="10.00">worker&#45;nextjs&#45;reviewer</text>
<text text-anchor="middle" x="727.27" y="-899.22" font-family="Helvetica,sans-Serif" font-size="10.00">(642 tok)</text>
</g>
<!-- cmd_phase_review&#45;&gt;agent_worker_nextjs_reviewer -->
<g id="edge14" class="edge">
<title>cmd_phase_review&#45;&gt;agent_worker_nextjs_reviewer</title>
<path fill="none" stroke="black" stroke-dasharray="5,2" d="M292.09,-626.56C296,-629.73 299.63,-633.29 302.56,-637.22 354.65,-706.92 296.69,-765.12 360.56,-824.22 435.22,-893.3 554.96,-908.98 636.95,-910.7"/>
<polygon fill="black" stroke="black" points="636.96,-914.2 647.01,-910.85 637.06,-907.2 636.96,-914.2"/>
</g>
<!-- agent_worker_fastapi_reviewer -->
<g id="node24" class="node">
<title>agent_worker_fastapi_reviewer</title>
<ellipse fill="#ede7f6" stroke="black" cx="727.27" cy="-843.22" rx="83.38" ry="21.43"/>
<text text-anchor="middle" x="727.27" y="-846.22" font-family="Helvetica,sans-Serif" font-size="10.00">worker&#45;fastapi&#45;reviewer</text>
<text text-anchor="middle" x="727.27" y="-835.22" font-family="Helvetica,sans-Serif" font-size="10.00">(639 tok)</text>
</g>
<!-- cmd_phase_review&#45;&gt;agent_worker_fastapi_reviewer -->
<g id="edge15" class="edge">
<title>cmd_phase_review&#45;&gt;agent_worker_fastapi_reviewer</title>
<path fill="none" stroke="black" stroke-dasharray="5,2" d="M291.28,-626.5C295.41,-629.72 299.32,-633.31 302.56,-637.22 344.54,-687.78 309.4,-731.98 360.56,-773.22 438.27,-835.85 555.27,-848.4 635.9,-848.49"/>
<polygon fill="black" stroke="black" points="636.06,-851.99 646.04,-848.44 636.02,-844.99 636.06,-851.99"/>
</g>
<!-- agent_worker_hono_reviewer -->
<g id="node25" class="node">
<title>agent_worker_hono_reviewer</title>
<ellipse fill="#ede7f6" stroke="black" cx="727.27" cy="-587.22" rx="77.56" ry="21.43"/>
<text text-anchor="middle" x="727.27" y="-590.22" font-family="Helvetica,sans-Serif" font-size="10.00">worker&#45;hono&#45;reviewer</text>
<text text-anchor="middle" x="727.27" y="-579.22" font-family="Helvetica,sans-Serif" font-size="10.00">(847 tok)</text>
</g>
<!-- cmd_phase_review&#45;&gt;agent_worker_hono_reviewer -->
<g id="edge19" class="edge">
<title>cmd_phase_review&#45;&gt;agent_worker_hono_reviewer</title>
<path fill="none" stroke="black" stroke-dasharray="5,2" d="M295.19,-626.29C314.14,-634.77 338.05,-643.94 360.56,-648.22 442.56,-663.79 467.13,-667.4 548.36,-648.22 576.41,-641.6 579.41,-629.43 606.36,-619.22 622.44,-613.12 640.16,-607.72 656.92,-603.16"/>
<polygon fill="black" stroke="black" points="657.89,-606.53 666.66,-600.58 656.1,-599.76 657.89,-606.53"/>
</g>
<!-- agent_worker_r_reviewer -->
<g id="node26" class="node">
<title>agent_worker_r_reviewer</title>
<ellipse fill="#ede7f6" stroke="black" cx="727.27" cy="-715.22" rx="65.11" ry="21.43"/>
<text text-anchor="middle" x="727.27" y="-718.22" font-family="Helvetica,sans-Serif" font-size="10.00">worker&#45;r&#45;reviewer</text>
<text text-anchor="middle" x="727.27" y="-707.22" font-family="Helvetica,sans-Serif" font-size="10.00">(717 tok)</text>
</g>
<!-- cmd_phase_review&#45;&gt;agent_worker_r_reviewer -->
<g id="edge17" class="edge">
<title>cmd_phase_review&#45;&gt;agent_worker_r_reviewer</title>
<path fill="none" stroke="black" stroke-dasharray="5,2" d="M288.19,-626.47C293.11,-629.88 298.07,-633.54 302.56,-637.22 330.76,-660.33 327.28,-680.35 360.56,-695.22 456.97,-738.27 582.17,-733.89 658.25,-725.49"/>
<polygon fill="black" stroke="black" points="658.66,-728.97 668.2,-724.34 657.86,-722.02 658.66,-728.97"/>
</g>
<!-- agent_worker_llm_output_reviewer -->
<g id="node27" class="node">
<title>agent_worker_llm_output_reviewer</title>
<ellipse fill="#ede7f6" stroke="black" cx="727.27" cy="-395.22" rx="92.76" ry="21.43"/>
<text text-anchor="middle" x="727.27" y="-398.22" font-family="Helvetica,sans-Serif" font-size="10.00">worker&#45;llm&#45;output&#45;reviewer</text>
<text text-anchor="middle" x="727.27" y="-387.22" font-family="Helvetica,sans-Serif" font-size="10.00">(1,162 tok)</text>
</g>
<!-- cmd_phase_review&#45;&gt;agent_worker_llm_output_reviewer -->
<g id="edge22" class="edge">
<title>cmd_phase_review&#45;&gt;agent_worker_llm_output_reviewer</title>
<path fill="none" stroke="black" stroke-dasharray="5,2" d="M288.81,-590.2C308.58,-578.85 335.43,-564.63 360.56,-555.22 440.94,-525.13 477.43,-558.54 548.36,-510.22 585.55,-484.88 569.49,-453.03 606.36,-427.22 616.59,-420.05 628.35,-414.49 640.4,-410.17"/>
<polygon fill="black" stroke="black" points="641.71,-413.43 650.12,-406.97 639.52,-406.78 641.71,-413.43"/>
</g>
<!-- agent_worker_llm_eval_runner -->
<g id="node28" class="node">
<title>agent_worker_llm_eval_runner</title>
<ellipse fill="#ede7f6" stroke="black" cx="727.27" cy="-331.22" rx="79.81" ry="21.43"/>
<text text-anchor="middle" x="727.27" y="-334.22" font-family="Helvetica,sans-Serif" font-size="10.00">worker&#45;llm&#45;eval&#45;runner</text>
<text text-anchor="middle" x="727.27" y="-323.22" font-family="Helvetica,sans-Serif" font-size="10.00">(1,174 tok)</text>
</g>
<!-- cmd_phase_review&#45;&gt;agent_worker_llm_eval_runner -->
<g id="edge23" class="edge">
<title>cmd_phase_review&#45;&gt;agent_worker_llm_eval_runner</title>
<path fill="none" stroke="black" stroke-dasharray="5,2" d="M288.94,-589.99C293.68,-586.63 298.38,-582.99 302.56,-579.22 332.58,-552.17 326.27,-530.58 360.56,-509.22 433.42,-463.85 479.64,-515.64 548.36,-464.22 589.8,-433.21 565.31,-394.76 606.36,-363.22 617.81,-354.42 631.49,-348.03 645.44,-343.4"/>
<polygon fill="black" stroke="black" points="646.56,-346.72 655.12,-340.47 644.53,-340.02 646.56,-346.72"/>
</g>
<!-- script_tech_stack_detect -->
<g id="node29" class="node">
<title>script_tech_stack_detect</title>
<polygon fill="#ff9800" stroke="black" points="529.7,-226.22 492.08,-250.71 416.84,-250.71 379.23,-226.22 416.84,-201.73 492.08,-201.73 529.7,-226.22"/>
<text text-anchor="middle" x="454.46" y="-229.22" font-family="Helvetica,sans-Serif" font-size="10.00">tech&#45;stack&#45;detect</text>
<text text-anchor="middle" x="454.46" y="-218.22" font-family="Helvetica,sans-Serif" font-size="10.00">(539 tok)</text>
</g>
<!-- cmd_phase_review&#45;&gt;script_tech_stack_detect -->
<g id="edge8" class="edge">
<title>cmd_phase_review&#45;&gt;script_tech_stack_detect</title>
<path fill="none" stroke="black" d="M292.54,-590.19C296.38,-586.97 299.87,-583.31 302.56,-579.22 381.28,-459.56 269.28,-372.59 360.56,-262.22 367.65,-253.65 377.04,-247.11 387.13,-242.13"/>
<polygon fill="black" stroke="black" points="388.81,-245.21 396.55,-237.97 385.98,-238.81 388.81,-245.21"/>
</g>
<!-- script_specialist_output_parse -->
<g id="node30" class="node">
<title>script_specialist_output_parse</title>
<polygon fill="#ff9800" stroke="black" points="548.25,-297.22 501.36,-321.71 407.56,-321.71 360.67,-297.22 407.56,-272.73 501.36,-272.73 548.25,-297.22"/>
<text text-anchor="middle" x="454.46" y="-300.22" font-family="Helvetica,sans-Serif" font-size="10.00">specialist&#45;output&#45;parse</text>
<text text-anchor="middle" x="454.46" y="-289.22" font-family="Helvetica,sans-Serif" font-size="10.00">(605 tok)</text>
</g>
<!-- cmd_phase_review&#45;&gt;script_specialist_output_parse -->
<g id="edge7" class="edge">
<title>cmd_phase_review&#45;&gt;script_specialist_output_parse</title>
<path fill="none" stroke="black" d="M292.33,-590.05C296.2,-586.85 299.76,-583.24 302.56,-579.22 365.63,-488.89 289.96,-422.79 360.56,-338.22 367,-330.51 375.18,-324.19 384,-319.04"/>
<polygon fill="black" stroke="black" points="385.81,-322.05 393,-314.27 382.53,-315.87 385.81,-322.05"/>
</g>
<!-- script_checkpoint_write -->
<g id="node31" class="node">
<title>script_checkpoint_write</title>
<polygon fill="#ff9800" stroke="black" points="526.16,-155.22 490.31,-179.71 418.61,-179.71 382.76,-155.22 418.61,-130.73 490.31,-130.73 526.16,-155.22"/>
<text text-anchor="middle" x="454.46" y="-158.22" font-family="Helvetica,sans-Serif" font-size="10.00">checkpoint&#45;write</text>
<text text-anchor="middle" x="454.46" y="-147.22" font-family="Helvetica,sans-Serif" font-size="10.00">(646 tok)</text>
</g>
<!-- cmd_phase_review&#45;&gt;script_checkpoint_write -->
<g id="edge9" class="edge">
<title>cmd_phase_review&#45;&gt;script_checkpoint_write</title>
<path fill="none" stroke="black" d="M293.09,-589.91C296.74,-586.77 300.03,-583.2 302.56,-579.22 396.01,-432.01 251.64,-327.37 360.56,-191.22 367.99,-181.93 378.13,-175.04 388.99,-169.92"/>
<polygon fill="black" stroke="black" points="390.38,-173.13 398.23,-166.03 387.66,-166.68 390.38,-173.13"/>
</g>
<!-- cmd_ac_deploy_trigger&#45;&gt;cmd_ac_verify -->
<!-- agent_worker_structure&#45;&gt;skill_ref_specialist_output_schema -->
<g id="edge31" class="edge">
<title>agent_worker_structure&#45;&gt;skill_ref_specialist_output_schema</title>
<path fill="none" stroke="black" stroke-dasharray="1,5" d="M788.43,-1160.51C810.17,-1156.45 833.06,-1148.04 848.19,-1131.22 962.57,-1003.98 979.8,-430.94 982.29,-295.82"/>
<polygon fill="black" stroke="black" points="985.79,-295.55 982.46,-285.49 978.79,-295.43 985.79,-295.55"/>
</g>
<!-- agent_worker_structure&#45;&gt;agent_worker_principles -->
<!-- agent_worker_structure&#45;&gt;agent_worker_principles -->
<!-- agent_worker_structure&#45;&gt;agent_worker_principles -->
<!-- agent_worker_structure&#45;&gt;agent_worker_principles -->
<!-- agent_worker_principles&#45;&gt;skill_ref_specialist_output_schema -->
<g id="edge32" class="edge">
<title>agent_worker_principles&#45;&gt;skill_ref_specialist_output_schema</title>
<path fill="none" stroke="black" stroke-dasharray="1,5" d="M790.5,-1096C811.57,-1091.77 833.47,-1083.39 848.19,-1067.22 954.45,-950.44 977.75,-424.54 981.9,-295.75"/>
<polygon fill="black" stroke="black" points="985.4,-295.63 982.21,-285.52 978.41,-295.41 985.4,-295.63"/>
</g>
<!-- agent_worker_principles&#45;&gt;agent_worker_code_reviewer -->
<!-- agent_worker_principles&#45;&gt;agent_worker_code_reviewer -->
<!-- agent_worker_env_validator&#45;&gt;skill_ref_specialist_output_schema -->
<g id="edge33" class="edge">
<title>agent_worker_env_validator&#45;&gt;skill_ref_specialist_output_schema</title>
<path fill="none" stroke="black" stroke-dasharray="1,5" d="M783.16,-217.03C817.49,-225.66 862.34,-236.94 900.82,-246.62"/>
<polygon fill="black" stroke="black" points="900.42,-250.13 910.97,-249.18 902.13,-243.34 900.42,-250.13"/>
</g>
<!-- agent_worker_env_validator&#45;&gt;agent_worker_codex_reviewer -->
<!-- agent_worker_env_validator&#45;&gt;agent_worker_codex_reviewer -->
<!-- agent_worker_rls_reviewer&#45;&gt;skill_ref_specialist_output_schema -->
<g id="edge34" class="edge">
<title>agent_worker_rls_reviewer&#45;&gt;skill_ref_specialist_output_schema</title>
<path fill="none" stroke="black" stroke-dasharray="1,5" d="M792.74,-515.48C811.98,-510.79 832.18,-503.27 848.19,-491.22 916.55,-439.74 957.2,-342.49 973.85,-294.88"/>
<polygon fill="black" stroke="black" points="977.23,-295.83 977.14,-285.24 970.6,-293.58 977.23,-295.83"/>
</g>
<!-- agent_worker_rls_reviewer&#45;&gt;agent_worker_spec_reviewer -->
<!-- agent_worker_rls_reviewer&#45;&gt;agent_worker_spec_reviewer -->
<!-- agent_worker_supabase_migration_checker&#45;&gt;skill_ref_specialist_output_schema -->
<g id="edge35" class="edge">
<title>agent_worker_supabase_migration_checker&#45;&gt;skill_ref_specialist_output_schema</title>
<path fill="none" stroke="black" stroke-dasharray="1,5" d="M820.47,-765.51C830.72,-760.97 840.29,-755.02 848.19,-747.22 914.3,-681.92 964.14,-388.41 978.49,-295.51"/>
<polygon fill="black" stroke="black" points="981.97,-295.86 980.02,-285.44 975.05,-294.8 981.97,-295.86"/>
</g>
<!-- agent_worker_supabase_migration_checker&#45;&gt;agent_worker_r_reviewer -->
<!-- agent_worker_supabase_migration_checker&#45;&gt;agent_worker_r_reviewer -->
<!-- agent_worker_data_validator&#45;&gt;skill_ref_specialist_output_schema -->
<g id="edge36" class="edge">
<title>agent_worker_data_validator&#45;&gt;skill_ref_specialist_output_schema</title>
<path fill="none" stroke="black" stroke-dasharray="1,5" d="M803.23,-267.22C832.33,-267.22 865.85,-267.22 895.99,-267.22"/>
<polygon fill="black" stroke="black" points="896.06,-270.72 906.06,-267.22 896.06,-263.72 896.06,-270.72"/>
</g>
<!-- agent_worker_data_validator&#45;&gt;agent_worker_env_validator -->
<!-- agent_worker_data_validator&#45;&gt;agent_worker_env_validator -->
<!-- agent_worker_e2e_reviewer&#45;&gt;skill_ref_specialist_output_schema -->
<g id="edge37" class="edge">
<title>agent_worker_e2e_reviewer&#45;&gt;skill_ref_specialist_output_schema</title>
<path fill="none" stroke="black" stroke-dasharray="1,5" d="M797.22,-644.36C815.53,-639.66 834.1,-631.91 848.19,-619.22 946.49,-530.66 973.42,-362.34 980.39,-295.55"/>
<polygon fill="black" stroke="black" points="983.9,-295.66 981.38,-285.37 976.93,-294.99 983.9,-295.66"/>
</g>
<!-- agent_worker_e2e_reviewer&#45;&gt;agent_worker_hono_reviewer -->
<!-- agent_worker_e2e_reviewer&#45;&gt;agent_worker_hono_reviewer -->
<!-- agent_worker_spec_reviewer&#45;&gt;skill_ref_specialist_output_schema -->
<g id="edge38" class="edge">
<title>agent_worker_spec_reviewer&#45;&gt;skill_ref_specialist_output_schema</title>
<path fill="none" stroke="black" stroke-dasharray="1,5" d="M795.37,-448.94C813.45,-444.19 832.37,-437.28 848.19,-427.22 902.02,-393 945.34,-330.33 967.21,-294.42"/>
<polygon fill="black" stroke="black" points="970.43,-295.85 972.54,-285.47 964.41,-292.27 970.43,-295.85"/>
</g>
<!-- agent_worker_spec_reviewer&#45;&gt;agent_worker_llm_output_reviewer -->
<!-- agent_worker_spec_reviewer&#45;&gt;agent_worker_llm_output_reviewer -->
<!-- agent_worker_codex_reviewer&#45;&gt;skill_ref_specialist_output_schema -->
<g id="edge39" class="edge">
<title>agent_worker_codex_reviewer&#45;&gt;skill_ref_specialist_output_schema</title>
<path fill="none" stroke="black" stroke-dasharray="1,5" d="M807.83,-142.47C821.9,-146.72 835.95,-152.56 848.19,-160.22 881.58,-181.11 873.9,-204.66 906.19,-227.22 916.85,-234.66 929.66,-240.49 941.73,-245.41"/>
<polygon fill="black" stroke="black" points="940.61,-248.73 951.19,-249.18 943.19,-242.23 940.61,-248.73"/>
</g>
<!-- agent_worker_codex_reviewer&#45;&gt;skill_ref_specialist_output_schema -->
<!-- agent_worker_code_reviewer&#45;&gt;skill_ref_specialist_output_schema -->
<g id="edge40" class="edge">
<title>agent_worker_code_reviewer&#45;&gt;skill_ref_specialist_output_schema</title>
<path fill="none" stroke="black" stroke-dasharray="1,5" d="M801.93,-1029.13C819.19,-1024.34 836.06,-1016.36 848.19,-1003.22 946.43,-896.78 975.58,-417.22 981.46,-295.42"/>
<polygon fill="black" stroke="black" points="984.96,-295.54 981.93,-285.39 977.96,-295.21 984.96,-295.54"/>
</g>
<!-- agent_worker_code_reviewer&#45;&gt;agent_worker_security_reviewer -->
<!-- agent_worker_code_reviewer&#45;&gt;agent_worker_security_reviewer -->
<!-- agent_worker_security_reviewer&#45;&gt;skill_ref_specialist_output_schema -->
<g id="edge41" class="edge">
<title>agent_worker_security_reviewer&#45;&gt;skill_ref_specialist_output_schema</title>
<path fill="none" stroke="black" stroke-dasharray="1,5" d="M807.99,-963.12C823.05,-958.22 837.42,-950.69 848.19,-939.22 938.31,-843.2 973.14,-410.79 980.92,-295.53"/>
<polygon fill="black" stroke="black" points="984.42,-295.59 981.59,-285.39 977.44,-295.13 984.42,-295.59"/>
</g>
<!-- agent_worker_security_reviewer&#45;&gt;agent_worker_nextjs_reviewer -->
<!-- agent_worker_security_reviewer&#45;&gt;agent_worker_nextjs_reviewer -->
<!-- agent_worker_nextjs_reviewer&#45;&gt;skill_ref_specialist_output_schema -->
<g id="edge42" class="edge">
<title>agent_worker_nextjs_reviewer&#45;&gt;skill_ref_specialist_output_schema</title>
<path fill="none" stroke="black" stroke-dasharray="1,5" d="M804.09,-900.11C820.49,-895.27 836.41,-887.51 848.19,-875.22 930.25,-789.55 970.46,-403.93 980.27,-295.6"/>
<polygon fill="black" stroke="black" points="983.77,-295.72 981.17,-285.45 976.8,-295.1 983.77,-295.72"/>
</g>
<!-- agent_worker_nextjs_reviewer&#45;&gt;agent_worker_fastapi_reviewer -->
<!-- agent_worker_nextjs_reviewer&#45;&gt;agent_worker_fastapi_reviewer -->
<!-- agent_worker_fastapi_reviewer&#45;&gt;skill_ref_specialist_output_schema -->
<g id="edge43" class="edge">
<title>agent_worker_fastapi_reviewer&#45;&gt;skill_ref_specialist_output_schema</title>
<path fill="none" stroke="black" stroke-dasharray="1,5" d="M805.12,-835.53C821.08,-830.67 836.56,-823.06 848.19,-811.22 922.25,-735.78 967.5,-396.36 979.48,-295.54"/>
<polygon fill="black" stroke="black" points="982.97,-295.84 980.66,-285.5 976.02,-295.02 982.97,-295.84"/>
</g>
<!-- agent_worker_fastapi_reviewer&#45;&gt;agent_worker_supabase_migration_checker -->
<!-- agent_worker_fastapi_reviewer&#45;&gt;agent_worker_supabase_migration_checker -->
<!-- agent_worker_hono_reviewer&#45;&gt;skill_ref_specialist_output_schema -->
<g id="edge44" class="edge">
<title>agent_worker_hono_reviewer&#45;&gt;skill_ref_specialist_output_schema</title>
<path fill="none" stroke="black" stroke-dasharray="1,5" d="M799.14,-579.03C816.63,-574.28 834.31,-566.84 848.19,-555.22 931.42,-485.49 966.16,-352.82 977.78,-295.15"/>
<polygon fill="black" stroke="black" points="981.23,-295.77 979.69,-285.29 974.36,-294.44 981.23,-295.77"/>
</g>
<!-- agent_worker_hono_reviewer&#45;&gt;agent_worker_rls_reviewer -->
<!-- agent_worker_hono_reviewer&#45;&gt;agent_worker_rls_reviewer -->
<!-- agent_worker_r_reviewer&#45;&gt;skill_ref_specialist_output_schema -->
<g id="edge45" class="edge">
<title>agent_worker_r_reviewer&#45;&gt;skill_ref_specialist_output_schema</title>
<path fill="none" stroke="black" stroke-dasharray="1,5" d="M790.8,-710.45C811.28,-706.02 832.72,-697.91 848.19,-683.22 962.04,-575.13 979.72,-370.16 982.31,-295.4"/>
<polygon fill="black" stroke="black" points="985.81,-295.44 982.59,-285.35 978.81,-295.24 985.81,-295.44"/>
</g>
<!-- agent_worker_r_reviewer&#45;&gt;agent_worker_e2e_reviewer -->
<!-- agent_worker_r_reviewer&#45;&gt;agent_worker_e2e_reviewer -->
<!-- agent_worker_llm_output_reviewer&#45;&gt;skill_ref_specialist_output_schema -->
<g id="edge46" class="edge">
<title>agent_worker_llm_output_reviewer&#45;&gt;skill_ref_specialist_output_schema</title>
<path fill="none" stroke="black" stroke-dasharray="1,5" d="M797.32,-381.32C814.38,-376.67 832.3,-370.7 848.19,-363.22 888,-344.46 928.39,-313.71 954.38,-292.08"/>
<polygon fill="black" stroke="black" points="956.9,-294.53 962.29,-285.4 952.39,-289.18 956.9,-294.53"/>
</g>
<!-- agent_worker_llm_output_reviewer&#45;&gt;agent_worker_llm_eval_runner -->
<!-- agent_worker_llm_output_reviewer&#45;&gt;agent_worker_llm_eval_runner -->
<!-- agent_worker_llm_eval_runner&#45;&gt;skill_ref_specialist_output_schema -->
<g id="edge47" class="edge">
<title>agent_worker_llm_eval_runner&#45;&gt;skill_ref_specialist_output_schema</title>
<path fill="none" stroke="black" stroke-dasharray="1,5" d="M786,-316.7C820.05,-308.13 863.68,-297.16 901.19,-287.72"/>
<polygon fill="black" stroke="black" points="902.25,-291.06 911.09,-285.23 900.54,-284.28 902.25,-291.06"/>
</g>
<!-- agent_worker_llm_eval_runner&#45;&gt;agent_worker_data_validator -->
<!-- agent_worker_llm_eval_runner&#45;&gt;agent_worker_data_validator -->
<!-- script_tech_stack_detect&#45;&gt;script_checkpoint_write -->
<!-- script_specialist_output_parse&#45;&gt;script_tech_stack_detect -->
<!-- script_specialist_output_parse&#45;&gt;script_tech_stack_detect -->
<!-- script_checkpoint_write&#45;&gt;agent_worker_structure -->
</g>
</svg>
