<?xml version="1.0" encoding="UTF-8" standalone="no"?>
<!DOCTYPE svg PUBLIC "-//W3C//DTD SVG 1.1//EN"
 "http://www.w3.org/Graphics/SVG/1.1/DTD/svg11.dtd">
<!-- Generated by graphviz version 2.43.0 (0)
 -->
<!-- Title: Dependencies Pages: 1 -->
<svg width="1076pt" height="1308pt"
 viewBox="0.00 0.00 1076.46 1307.98" xmlns="http://www.w3.org/2000/svg" xmlns:xlink="http://www.w3.org/1999/xlink">
<g id="graph0" class="graph" transform="scale(1 1) rotate(0) translate(4 1303.98)">
<title>Dependencies</title>
<polygon fill="white" stroke="transparent" points="-4,4 -4,-1303.98 1072.46,-1303.98 1072.46,4 -4,4"/>
<text text-anchor="middle" x="534.23" y="-1284.78" font-family="Helvetica,sans-Serif" font-size="14.00">co&#45;project</text>
<!-- skill_co_project -->
<g id="node1" class="node">
<title>skill_co_project</title>
<ellipse fill="#c8e6c9" stroke="black" cx="58.69" cy="-409.98" rx="58.88" ry="21.43"/>
<text text-anchor="middle" x="58.69" y="-412.98" font-family="Helvetica,sans-Serif" font-size="10.00">twl:co&#45;project</text>
<text text-anchor="middle" x="58.69" y="-401.98" font-family="Helvetica,sans-Serif" font-size="10.00">(1,456 tok)</text>
</g>
<!-- skill_workflow_plugin_create -->
<g id="node2" class="node">
<title>skill_workflow_plugin_create</title>
<ellipse fill="#e8f5e9" stroke="black" cx="289.22" cy="-758.98" rx="103.89" ry="21.43"/>
<text text-anchor="middle" x="289.22" y="-761.98" font-family="Helvetica,sans-Serif" font-size="10.00">twl:workflow&#45;plugin&#45;create</text>
<text text-anchor="middle" x="289.22" y="-750.98" font-family="Helvetica,sans-Serif" font-size="10.00">(558 tok)</text>
</g>
<!-- skill_co_project&#45;&gt;skill_workflow_plugin_create -->
<g id="edge10" class="edge">
<title>skill_co_project&#45;&gt;skill_workflow_plugin_create</title>
<path fill="none" stroke="black" d="M61.02,-431.3C65.73,-488.12 86.53,-644.44 175.38,-726.98 181.83,-732.97 189.32,-737.85 197.31,-741.82"/>
<polygon fill="black" stroke="black" points="195.97,-745.05 206.52,-745.93 198.82,-738.66 195.97,-745.05"/>
</g>
<!-- skill_workflow_plugin_diagnose -->
<g id="node3" class="node">
<title>skill_workflow_plugin_diagnose</title>
<ellipse fill="#e8f5e9" stroke="black" cx="289.22" cy="-694.98" rx="113.69" ry="21.43"/>
<text text-anchor="middle" x="289.22" y="-697.98" font-family="Helvetica,sans-Serif" font-size="10.00">twl:workflow&#45;plugin&#45;diagnose</text>
<text text-anchor="middle" x="289.22" y="-686.98" font-family="Helvetica,sans-Serif" font-size="10.00">(693 tok)</text>
</g>
<!-- skill_co_project&#45;&gt;skill_workflow_plugin_diagnose -->
<g id="edge11" class="edge">
<title>skill_co_project&#45;&gt;skill_workflow_plugin_diagnose</title>
<path fill="none" stroke="black" d="M63.73,-431.21C73.86,-478.62 104.73,-593.9 175.38,-656.98 183.59,-664.3 193.26,-670.22 203.43,-675.01"/>
<polygon fill="black" stroke="black" points="202.31,-678.34 212.88,-679.09 205.09,-671.91 202.31,-678.34"/>
</g>
<!-- skill_ref_types -->
<g id="node5" class="node">
<title>skill_ref_types</title>
<polygon fill="#e1f5fe" stroke="black" points="1013.96,-650.98 941.96,-650.98 941.96,-614.98 1019.96,-614.98 1019.96,-644.98 1013.96,-650.98"/>
<polyline fill="none" stroke="black" points="1013.96,-650.98 1013.96,-644.98 "/>
<polyline fill="none" stroke="black" points="1019.96,-644.98 1013.96,-644.98 "/>
<text text-anchor="middle" x="980.96" y="-635.98" font-family="Helvetica,sans-Serif" font-size="10.00">twl:ref&#45;types</text>
<text text-anchor="middle" x="980.96" y="-624.98" font-family="Helvetica,sans-Serif" font-size="10.00">(2,144 tok)</text>
</g>
<!-- skill_co_project&#45;&gt;skill_ref_types -->
<g id="edge13" class="edge">
<title>skill_co_project&#45;&gt;skill_ref_types</title>
<path fill="none" stroke="black" d="M65.65,-431.36C78.37,-472.7 112.27,-563.45 175.38,-607.98 295.48,-692.71 689.03,-662.64 835.46,-649.98 867.62,-647.19 903.69,-642.95 931.74,-639.4"/>
<polygon fill="black" stroke="black" points="932.22,-642.87 941.69,-638.13 931.33,-635.93 932.22,-642.87"/>
</g>
<!-- skill_ref_practices -->
<g id="node6" class="node">
<title>skill_ref_practices</title>
<polygon fill="#e1f5fe" stroke="black" points="1022.46,-592.98 933.46,-592.98 933.46,-556.98 1028.46,-556.98 1028.46,-586.98 1022.46,-592.98"/>
<polyline fill="none" stroke="black" points="1022.46,-592.98 1022.46,-586.98 "/>
<polyline fill="none" stroke="black" points="1028.46,-586.98 1022.46,-586.98 "/>
<text text-anchor="middle" x="980.96" y="-577.98" font-family="Helvetica,sans-Serif" font-size="10.00">twl:ref&#45;practices</text>
<text text-anchor="middle" x="980.96" y="-566.98" font-family="Helvetica,sans-Serif" font-size="10.00">(6,471 tok)</text>
</g>
<!-- skill_co_project&#45;&gt;skill_ref_practices -->
<g id="edge14" class="edge">
<title>skill_co_project&#45;&gt;skill_ref_practices</title>
<path fill="none" stroke="black" d="M76.95,-430.45C97.72,-453.54 134.89,-490.18 175.38,-507.98 309.81,-567.06 763.15,-574.31 923.33,-574.99"/>
<polygon fill="black" stroke="black" points="923.43,-578.49 933.45,-575.03 923.46,-571.49 923.43,-578.49"/>
</g>
<!-- skill_ref_deps_format -->
<g id="node7" class="node">
<title>skill_ref_deps_format</title>
<polygon fill="#e1f5fe" stroke="black" points="1030.46,-534.98 925.46,-534.98 925.46,-498.98 1036.46,-498.98 1036.46,-528.98 1030.46,-534.98"/>
<polyline fill="none" stroke="black" points="1030.46,-534.98 1030.46,-528.98 "/>
<polyline fill="none" stroke="black" points="1036.46,-528.98 1030.46,-528.98 "/>
<text text-anchor="middle" x="980.96" y="-519.98" font-family="Helvetica,sans-Serif" font-size="10.00">twl:ref&#45;deps&#45;format</text>
<text text-anchor="middle" x="980.96" y="-508.98" font-family="Helvetica,sans-Serif" font-size="10.00">(1,804 tok)</text>
</g>
<!-- skill_co_project&#45;&gt;skill_ref_deps_format -->
<g id="edge15" class="edge">
<title>skill_co_project&#45;&gt;skill_ref_deps_format</title>
<path fill="none" stroke="black" d="M90.05,-428.1C112.79,-440.88 145.07,-457.37 175.38,-466.98 439.26,-550.64 775.7,-534.86 915.03,-523.37"/>
<polygon fill="black" stroke="black" points="915.45,-526.85 925.12,-522.52 914.86,-519.87 915.45,-526.85"/>
</g>
<!-- cmd_label_sync -->
<g id="node9" class="node">
<title>cmd_label_sync</title>
<polygon fill="#e3f2fd" stroke="black" points="575.07,-650.98 505.07,-650.98 505.07,-614.98 575.07,-614.98 575.07,-650.98"/>
<text text-anchor="middle" x="540.07" y="-635.98" font-family="Helvetica,sans-Serif" font-size="10.00">label&#45;sync</text>
<text text-anchor="middle" x="540.07" y="-624.98" font-family="Helvetica,sans-Serif" font-size="10.00">(1,205 tok)</text>
</g>
<!-- skill_co_project&#45;&gt;cmd_label_sync -->
<g id="edge12" class="edge">
<title>skill_co_project&#45;&gt;cmd_label_sync</title>
<path fill="none" stroke="black" d="M69.02,-431C85.32,-465.09 122.37,-531.95 175.38,-564.98 228.3,-597.95 410.14,-620.02 494.91,-628.76"/>
<polygon fill="black" stroke="black" points="494.69,-632.26 504.99,-629.78 495.4,-625.29 494.69,-632.26"/>
</g>
<!-- cmd_project_create -->
<g id="node10" class="node">
<title>cmd_project_create</title>
<polygon fill="#e3f2fd" stroke="black" points="582.57,-500.98 497.57,-500.98 497.57,-464.98 582.57,-464.98 582.57,-500.98"/>
<text text-anchor="middle" x="540.07" y="-485.98" font-family="Helvetica,sans-Serif" font-size="10.00">project&#45;create</text>
<text text-anchor="middle" x="540.07" y="-474.98" font-family="Helvetica,sans-Serif" font-size="10.00">(461 tok)</text>
</g>
<!-- skill_co_project&#45;&gt;cmd_project_create -->
<g id="edge1" class="edge">
<title>skill_co_project&#45;&gt;cmd_project_create</title>
<path fill="none" stroke="black" d="M109.09,-421.02C129.54,-425.39 153.54,-430.24 175.38,-433.98 286.11,-452.9 416.85,-469 487.49,-477.19"/>
<polygon fill="black" stroke="black" points="487.14,-480.67 497.47,-478.34 487.94,-473.72 487.14,-480.67"/>
</g>
<!-- cmd_project_board_configure -->
<g id="node11" class="node">
<title>cmd_project_board_configure</title>
<polygon fill="#e3f2fd" stroke="black" points="605.57,-384.98 474.57,-384.98 474.57,-348.98 605.57,-348.98 605.57,-384.98"/>
<text text-anchor="middle" x="540.07" y="-369.98" font-family="Helvetica,sans-Serif" font-size="10.00">project&#45;board&#45;configure</text>
<text text-anchor="middle" x="540.07" y="-358.98" font-family="Helvetica,sans-Serif" font-size="10.00">(1,185 tok)</text>
</g>
<!-- skill_co_project&#45;&gt;cmd_project_board_configure -->
<g id="edge3" class="edge">
<title>skill_co_project&#45;&gt;cmd_project_board_configure</title>
<path fill="none" stroke="black" d="M116.09,-404.92C202.54,-397.16 367.88,-382.33 464.24,-373.69"/>
<polygon fill="black" stroke="black" points="464.85,-377.15 474.5,-372.77 464.22,-370.17 464.85,-377.15"/>
</g>
<!-- cmd_project_governance -->
<g id="node12" class="node">
<title>cmd_project_governance</title>
<polygon fill="#e3f2fd" stroke="black" points="595.57,-442.98 484.57,-442.98 484.57,-406.98 595.57,-406.98 595.57,-442.98"/>
<text text-anchor="middle" x="540.07" y="-427.98" font-family="Helvetica,sans-Serif" font-size="10.00">project&#45;governance</text>
<text text-anchor="middle" x="540.07" y="-416.98" font-family="Helvetica,sans-Serif" font-size="10.00">(974 tok)</text>
</g>
<!-- skill_co_project&#45;&gt;cmd_project_governance -->
<g id="edge2" class="edge">
<title>skill_co_project&#45;&gt;cmd_project_governance</title>
<path fill="none" stroke="black" d="M117.51,-411.78C207.4,-414.6 380.08,-420 474.13,-422.94"/>
<polygon fill="black" stroke="black" points="474.26,-426.45 484.37,-423.26 474.48,-419.45 474.26,-426.45"/>
</g>
<!-- cmd_project_migrate -->
<g id="node13" class="node">
<title>cmd_project_migrate</title>
<polygon fill="#e3f2fd" stroke="black" points="586.07,-326.98 494.07,-326.98 494.07,-290.98 586.07,-290.98 586.07,-326.98"/>
<text text-anchor="middle" x="540.07" y="-311.98" font-family="Helvetica,sans-Serif" font-size="10.00">project&#45;migrate</text>
<text text-anchor="middle" x="540.07" y="-300.98" font-family="Helvetica,sans-Serif" font-size="10.00">(485 tok)</text>
</g>
<!-- skill_co_project&#45;&gt;cmd_project_migrate -->
<g id="edge4" class="edge">
<title>skill_co_project&#45;&gt;cmd_project_migrate</title>
<path fill="none" stroke="black" d="M102.5,-395.75C124.18,-388.87 151,-380.85 175.38,-374.98 283.59,-348.88 412.14,-327.84 483.78,-316.99"/>
<polygon fill="black" stroke="black" points="484.56,-320.42 493.93,-315.47 483.52,-313.49 484.56,-320.42"/>
</g>
<!-- cmd_container_dependency_check -->
<g id="node14" class="node">
<title>cmd_container_dependency_check</title>
<polygon fill="#e3f2fd" stroke="black" points="619.07,-268.98 461.07,-268.98 461.07,-232.98 619.07,-232.98 619.07,-268.98"/>
<text text-anchor="middle" x="540.07" y="-253.98" font-family="Helvetica,sans-Serif" font-size="10.00">container&#45;dependency&#45;check</text>
<text text-anchor="middle" x="540.07" y="-242.98" font-family="Helvetica,sans-Serif" font-size="10.00">(509 tok)</text>
</g>
<!-- skill_co_project&#45;&gt;cmd_container_dependency_check -->
<g id="edge5" class="edge">
<title>skill_co_project&#45;&gt;cmd_container_dependency_check</title>
<path fill="none" stroke="black" d="M80.97,-390.16C102.94,-370.82 139.05,-342.01 175.38,-325.98 264.56,-286.61 375.28,-267.58 450.97,-258.6"/>
<polygon fill="black" stroke="black" points="451.42,-262.07 460.95,-257.45 450.62,-255.12 451.42,-262.07"/>
</g>
<!-- cmd_setup_crg -->
<g id="node15" class="node">
<title>cmd_setup_crg</title>
<polygon fill="#e3f2fd" stroke="black" points="571.07,-210.98 509.07,-210.98 509.07,-174.98 571.07,-174.98 571.07,-210.98"/>
<text text-anchor="middle" x="540.07" y="-195.98" font-family="Helvetica,sans-Serif" font-size="10.00">setup&#45;crg</text>
<text text-anchor="middle" x="540.07" y="-184.98" font-family="Helvetica,sans-Serif" font-size="10.00">(754 tok)</text>
</g>
<!-- skill_co_project&#45;&gt;cmd_setup_crg -->
<g id="edge6" class="edge">
<title>skill_co_project&#45;&gt;cmd_setup_crg</title>
<path fill="none" stroke="black" d="M69.7,-389.12C86.59,-356.34 124,-293.29 175.38,-261.98 278.99,-198.82 427.6,-191.29 498.47,-191.69"/>
<polygon fill="black" stroke="black" points="498.71,-195.19 508.75,-191.81 498.79,-188.19 498.71,-195.19"/>
</g>
<!-- cmd_snapshot_analyze -->
<g id="node16" class="node">
<title>cmd_snapshot_analyze</title>
<polygon fill="#e3f2fd" stroke="black" points="591.57,-152.98 488.57,-152.98 488.57,-116.98 591.57,-116.98 591.57,-152.98"/>
<text text-anchor="middle" x="540.07" y="-137.98" font-family="Helvetica,sans-Serif" font-size="10.00">snapshot&#45;analyze</text>
<text text-anchor="middle" x="540.07" y="-126.98" font-family="Helvetica,sans-Serif" font-size="10.00">(617 tok)</text>
</g>
<!-- skill_co_project&#45;&gt;cmd_snapshot_analyze -->
<g id="edge7" class="edge">
<title>skill_co_project&#45;&gt;cmd_snapshot_analyze</title>
<path fill="none" stroke="black" d="M64.26,-388.72C75.03,-344.17 106.47,-241.09 175.38,-191.98 265.66,-127.63 400.57,-124.32 478.18,-128.87"/>
<polygon fill="black" stroke="black" points="478.08,-132.37 488.28,-129.52 478.53,-125.38 478.08,-132.37"/>
</g>
<!-- cmd_snapshot_classify -->
<g id="node17" class="node">
<title>cmd_snapshot_classify</title>
<polygon fill="#e3f2fd" stroke="black" points="590.57,-94.98 489.57,-94.98 489.57,-58.98 590.57,-58.98 590.57,-94.98"/>
<text text-anchor="middle" x="540.07" y="-79.98" font-family="Helvetica,sans-Serif" font-size="10.00">snapshot&#45;classify</text>
<text text-anchor="middle" x="540.07" y="-68.98" font-family="Helvetica,sans-Serif" font-size="10.00">(891 tok)</text>
</g>
<!-- skill_co_project&#45;&gt;cmd_snapshot_classify -->
<g id="edge8" class="edge">
<title>skill_co_project&#45;&gt;cmd_snapshot_classify</title>
<path fill="none" stroke="black" d="M61.29,-388.43C66.56,-334.11 88.47,-191.08 175.38,-123.98 263.52,-55.93 400.98,-58.92 479.23,-67.65"/>
<polygon fill="black" stroke="black" points="479.06,-71.15 489.4,-68.85 479.88,-64.2 479.06,-71.15"/>
</g>
<!-- cmd_snapshot_generate -->
<g id="node18" class="node">
<title>cmd_snapshot_generate</title>
<polygon fill="#e3f2fd" stroke="black" points="594.07,-36.98 486.07,-36.98 486.07,-0.98 594.07,-0.98 594.07,-36.98"/>
<text text-anchor="middle" x="540.07" y="-21.98" font-family="Helvetica,sans-Serif" font-size="10.00">snapshot&#45;generate</text>
<text text-anchor="middle" x="540.07" y="-10.98" font-family="Helvetica,sans-Serif" font-size="10.00">(752 tok)</text>
</g>
<!-- skill_co_project&#45;&gt;cmd_snapshot_generate -->
<g id="edge9" class="edge">
<title>skill_co_project&#45;&gt;cmd_snapshot_generate</title>
<path fill="none" stroke="black" d="M59.41,-388.71C59.86,-326.52 70.44,-144 175.38,-58.98 260.52,10.01 396.05,4.19 475.41,-6.95"/>
<polygon fill="black" stroke="black" points="475.35,-10.48 485.75,-8.48 476.37,-3.55 475.35,-10.48"/>
</g>
<!-- skill_workflow_plugin_create&#45;&gt;skill_workflow_plugin_diagnose -->
<!-- cmd_plugin_interview -->
<g id="node19" class="node">
<title>cmd_plugin_interview</title>
<polygon fill="#e3f2fd" stroke="black" points="588.07,-1276.98 492.07,-1276.98 492.07,-1240.98 588.07,-1240.98 588.07,-1276.98"/>
<text text-anchor="middle" x="540.07" y="-1261.98" font-family="Helvetica,sans-Serif" font-size="10.00">plugin&#45;interview</text>
<text text-anchor="middle" x="540.07" y="-1250.98" font-family="Helvetica,sans-Serif" font-size="10.00">(1,118 tok)</text>
</g>
<!-- skill_workflow_plugin_create&#45;&gt;cmd_plugin_interview -->
<g id="edge16" class="edge">
<title>skill_workflow_plugin_create&#45;&gt;cmd_plugin_interview</title>
<path fill="none" stroke="black" d="M291.76,-780.36C298.16,-853.54 328.9,-1096.74 461.07,-1229.98 467.14,-1236.09 474.61,-1240.94 482.51,-1244.76"/>
<polygon fill="black" stroke="black" points="481.35,-1248.07 491.92,-1248.81 484.11,-1241.64 481.35,-1248.07"/>
</g>
<!-- cmd_plugin_research -->
<g id="node20" class="node">
<title>cmd_plugin_research</title>
<polygon fill="#e3f2fd" stroke="black" points="586.07,-1218.98 494.07,-1218.98 494.07,-1182.98 586.07,-1182.98 586.07,-1218.98"/>
<text text-anchor="middle" x="540.07" y="-1203.98" font-family="Helvetica,sans-Serif" font-size="10.00">plugin&#45;research</text>
<text text-anchor="middle" x="540.07" y="-1192.98" font-family="Helvetica,sans-Serif" font-size="10.00">(678 tok)</text>
</g>
<!-- skill_workflow_plugin_create&#45;&gt;cmd_plugin_research -->
<g id="edge17" class="edge">
<title>skill_workflow_plugin_create&#45;&gt;cmd_plugin_research</title>
<path fill="none" stroke="black" d="M293,-780.31C302.83,-847.52 342.1,-1057.25 461.07,-1171.98 467.71,-1178.38 475.9,-1183.4 484.44,-1187.32"/>
<polygon fill="black" stroke="black" points="483.22,-1190.6 493.8,-1191.15 485.88,-1184.12 483.22,-1190.6"/>
</g>
<!-- cmd_plugin_design -->
<g id="node21" class="node">
<title>cmd_plugin_design</title>
<polygon fill="#e3f2fd" stroke="black" points="581.57,-1160.98 498.57,-1160.98 498.57,-1124.98 581.57,-1124.98 581.57,-1160.98"/>
<text text-anchor="middle" x="540.07" y="-1145.98" font-family="Helvetica,sans-Serif" font-size="10.00">plugin&#45;design</text>
<text text-anchor="middle" x="540.07" y="-1134.98" font-family="Helvetica,sans-Serif" font-size="10.00">(1,192 tok)</text>
</g>
<!-- skill_workflow_plugin_create&#45;&gt;cmd_plugin_design -->
<g id="edge18" class="edge">
<title>skill_workflow_plugin_create&#45;&gt;cmd_plugin_design</title>
<path fill="none" stroke="black" d="M294.6,-780.3C308.18,-841.16 355.16,-1017.45 461.07,-1113.98 469,-1121.2 478.89,-1126.68 488.94,-1130.81"/>
<polygon fill="black" stroke="black" points="487.97,-1134.18 498.57,-1134.37 490.4,-1127.62 487.97,-1134.18"/>
</g>
<!-- cmd_plugin_generate -->
<g id="node22" class="node">
<title>cmd_plugin_generate</title>
<polygon fill="#e3f2fd" stroke="black" points="587.07,-1102.98 493.07,-1102.98 493.07,-1066.98 587.07,-1066.98 587.07,-1102.98"/>
<text text-anchor="middle" x="540.07" y="-1087.98" font-family="Helvetica,sans-Serif" font-size="10.00">plugin&#45;generate</text>
<text text-anchor="middle" x="540.07" y="-1076.98" font-family="Helvetica,sans-Serif" font-size="10.00">(1,419 tok)</text>
</g>
<!-- skill_workflow_plugin_create&#45;&gt;cmd_plugin_generate -->
<g id="edge19" class="edge">
<title>skill_workflow_plugin_create&#45;&gt;cmd_plugin_generate</title>
<path fill="none" stroke="black" d="M296.78,-780.26C314.43,-834.13 367.99,-977.2 461.07,-1055.98 467.65,-1061.54 475.4,-1066.09 483.41,-1069.79"/>
<polygon fill="black" stroke="black" points="482.31,-1073.13 492.89,-1073.76 485.01,-1066.67 482.31,-1073.13"/>
</g>
<!-- skill_workflow_plugin_diagnose&#45;&gt;cmd_label_sync -->
<!-- cmd_plugin_migrate_analyze -->
<g id="node23" class="node">
<title>cmd_plugin_migrate_analyze</title>
<polygon fill="#e3f2fd" stroke="black" points="605.57,-1044.98 474.57,-1044.98 474.57,-1008.98 605.57,-1008.98 605.57,-1044.98"/>
<text text-anchor="middle" x="540.07" y="-1029.98" font-family="Helvetica,sans-Serif" font-size="10.00">plugin&#45;migrate&#45;analyze</text>
<text text-anchor="middle" x="540.07" y="-1018.98" font-family="Helvetica,sans-Serif" font-size="10.00">(476 tok)</text>
</g>
<!-- skill_workflow_plugin_diagnose&#45;&gt;cmd_plugin_migrate_analyze -->
<g id="edge20" class="edge">
<title>skill_workflow_plugin_diagnose&#45;&gt;cmd_plugin_migrate_analyze</title>
<path fill="none" stroke="black" d="M376.64,-708.57C386.53,-713.11 395.69,-719.1 403.07,-726.98 487.27,-816.88 380.52,-904.79 461.07,-997.98 462.6,-999.75 464.26,-1001.42 466.01,-1002.98"/>
<polygon fill="black" stroke="black" points="464.17,-1005.98 474.26,-1009.21 468.39,-1000.39 464.17,-1005.98"/>
</g>
<!-- cmd_plugin_diagnose -->
<g id="node24" class="node">
<title>cmd_plugin_diagnose</title>
<polygon fill="#e3f2fd" stroke="black" points="587.57,-986.98 492.57,-986.98 492.57,-950.98 587.57,-950.98 587.57,-986.98"/>
<text text-anchor="middle" x="540.07" y="-971.98" font-family="Helvetica,sans-Serif" font-size="10.00">plugin&#45;diagnose</text>
<text text-anchor="middle" x="540.07" y="-960.98" font-family="Helvetica,sans-Serif" font-size="10.00">(944 tok)</text>
</g>
<!-- skill_workflow_plugin_diagnose&#45;&gt;cmd_plugin_diagnose -->
<g id="edge21" class="edge">
<title>skill_workflow_plugin_diagnose&#45;&gt;cmd_plugin_diagnose</title>
<path fill="none" stroke="black" d="M375.96,-708.83C386.02,-713.33 395.4,-719.23 403.07,-726.98 472.08,-796.71 394.89,-867.54 461.07,-939.98 467.09,-946.56 474.74,-951.66 482.89,-955.6"/>
<polygon fill="black" stroke="black" points="481.67,-958.88 492.24,-959.58 484.41,-952.44 481.67,-958.88"/>
</g>
<!-- cmd_plugin_fix -->
<g id="node25" class="node">
<title>cmd_plugin_fix</title>
<polygon fill="#e3f2fd" stroke="black" points="575.07,-870.98 505.07,-870.98 505.07,-834.98 575.07,-834.98 575.07,-870.98"/>
<text text-anchor="middle" x="540.07" y="-855.98" font-family="Helvetica,sans-Serif" font-size="10.00">plugin&#45;fix</text>
<text text-anchor="middle" x="540.07" y="-844.98" font-family="Helvetica,sans-Serif" font-size="10.00">(1,092 tok)</text>
</g>
<!-- skill_workflow_plugin_diagnose&#45;&gt;cmd_plugin_fix -->
<g id="edge23" class="edge">
<title>skill_workflow_plugin_diagnose&#45;&gt;cmd_plugin_fix</title>
<path fill="none" stroke="black" d="M371.2,-709.78C382.59,-714.12 393.61,-719.73 403.07,-726.98 442.93,-757.54 422.45,-791.85 461.07,-823.98 470.97,-832.21 483.44,-838.23 495.48,-842.58"/>
<polygon fill="black" stroke="black" points="494.4,-845.9 504.99,-845.71 496.59,-839.26 494.4,-845.9"/>
</g>
<!-- cmd_plugin_verify -->
<g id="node26" class="node">
<title>cmd_plugin_verify</title>
<polygon fill="#e3f2fd" stroke="black" points="578.57,-812.98 501.57,-812.98 501.57,-776.98 578.57,-776.98 578.57,-812.98"/>
<text text-anchor="middle" x="540.07" y="-797.98" font-family="Helvetica,sans-Serif" font-size="10.00">plugin&#45;verify</text>
<text text-anchor="middle" x="540.07" y="-786.98" font-family="Helvetica,sans-Serif" font-size="10.00">(536 tok)</text>
</g>
<!-- skill_workflow_plugin_diagnose&#45;&gt;cmd_plugin_verify -->
<g id="edge24" class="edge">
<title>skill_workflow_plugin_diagnose&#45;&gt;cmd_plugin_verify</title>
<path fill="none" stroke="black" d="M361.29,-711.43C375.43,-715.72 389.95,-720.89 403.07,-726.98 431.25,-740.04 433.43,-751.8 461.07,-765.98 470.81,-770.97 481.62,-775.55 492.02,-779.53"/>
<polygon fill="black" stroke="black" points="490.81,-782.81 501.4,-783 493.24,-776.25 490.81,-782.81"/>
</g>
<!-- cmd_plugin_phase_diagnose -->
<g id="node27" class="node">
<title>cmd_plugin_phase_diagnose</title>
<polygon fill="#bbdefb" stroke="black" points="604.07,-928.98 476.07,-928.98 476.07,-892.98 604.07,-892.98 604.07,-928.98"/>
<text text-anchor="middle" x="540.07" y="-913.98" font-family="Helvetica,sans-Serif" font-size="10.00">plugin&#45;phase&#45;diagnose</text>
<text text-anchor="middle" x="540.07" y="-902.98" font-family="Helvetica,sans-Serif" font-size="10.00">(652 tok)</text>
</g>
<!-- skill_workflow_plugin_diagnose&#45;&gt;cmd_plugin_phase_diagnose -->
<g id="edge22" class="edge">
<title>skill_workflow_plugin_diagnose&#45;&gt;cmd_plugin_phase_diagnose</title>
<path fill="none" stroke="black" d="M374.45,-709.14C384.93,-713.58 394.83,-719.39 403.07,-726.98 457.16,-776.82 409,-830.02 461.07,-881.98 463.13,-884.03 465.35,-885.94 467.69,-887.72"/>
<polygon fill="black" stroke="black" points="465.79,-890.66 476.06,-893.27 469.66,-884.83 465.79,-890.66"/>
</g>
<!-- cmd_plugin_phase_verify -->
<g id="node28" class="node">
<title>cmd_plugin_phase_verify</title>
<polygon fill="#bbdefb" stroke="black" points="595.07,-754.98 485.07,-754.98 485.07,-718.98 595.07,-718.98 595.07,-754.98"/>
<text text-anchor="middle" x="540.07" y="-739.98" font-family="Helvetica,sans-Serif" font-size="10.00">plugin&#45;phase&#45;verify</text>
<text text-anchor="middle" x="540.07" y="-728.98" font-family="Helvetica,sans-Serif" font-size="10.00">(634 tok)</text>
</g>
<!-- skill_workflow_plugin_diagnose&#45;&gt;cmd_plugin_phase_verify -->
<g id="edge25" class="edge">
<title>skill_workflow_plugin_diagnose&#45;&gt;cmd_plugin_phase_verify</title>
<path fill="none" stroke="black" d="M374.12,-709.14C406.96,-714.68 444.02,-720.93 474.68,-726.11"/>
<polygon fill="black" stroke="black" points="474.37,-729.61 484.82,-727.82 475.54,-722.7 474.37,-729.61"/>
</g>
<!-- skill_ref_specialist_output_schema -->
<g id="node4" class="node">
<title>skill_ref_specialist_output_schema</title>
<polygon fill="#e1f5fe" stroke="black" points="1062.46,-889.98 893.46,-889.98 893.46,-853.98 1068.46,-853.98 1068.46,-883.98 1062.46,-889.98"/>
<polyline fill="none" stroke="black" points="1062.46,-889.98 1062.46,-883.98 "/>
<polyline fill="none" stroke="black" points="1068.46,-883.98 1062.46,-883.98 "/>
<text text-anchor="middle" x="980.96" y="-874.98" font-family="Helvetica,sans-Serif" font-size="10.00">twl:ref&#45;specialist&#45;output&#45;schema</text>
<text text-anchor="middle" x="980.96" y="-863.98" font-family="Helvetica,sans-Serif" font-size="10.00">(2,961 tok)</text>
</g>
<!-- skill_ref_architecture -->
<g id="node8" class="node">
<title>skill_ref_architecture</title>
<polygon fill="#e1f5fe" stroke="black" points="1029.96,-831.98 925.96,-831.98 925.96,-795.98 1035.96,-795.98 1035.96,-825.98 1029.96,-831.98"/>
<polyline fill="none" stroke="black" points="1029.96,-831.98 1029.96,-825.98 "/>
<polyline fill="none" stroke="black" points="1035.96,-825.98 1029.96,-825.98 "/>
<text text-anchor="middle" x="980.96" y="-816.98" font-family="Helvetica,sans-Serif" font-size="10.00">twl:ref&#45;architecture</text>
<text text-anchor="middle" x="980.96" y="-805.98" font-family="Helvetica,sans-Serif" font-size="10.00">(2,234 tok)</text>
</g>
<!-- skill_ref_specialist_output_schema&#45;&gt;skill_ref_architecture -->
<!-- skill_ref_specialist_output_schema&#45;&gt;skill_ref_architecture -->
<!-- skill_ref_types&#45;&gt;skill_ref_practices -->
<!-- skill_ref_practices&#45;&gt;skill_ref_deps_format -->
<!-- cmd_label_sync&#45;&gt;skill_ref_types -->
<!-- cmd_project_create&#45;&gt;cmd_project_governance -->
<!-- cmd_project_board_configure&#45;&gt;cmd_project_migrate -->
<!-- cmd_project_governance&#45;&gt;cmd_project_board_configure -->
<!-- cmd_project_migrate&#45;&gt;cmd_container_dependency_check -->
<!-- cmd_container_dependency_check&#45;&gt;cmd_setup_crg -->
<!-- cmd_setup_crg&#45;&gt;cmd_snapshot_analyze -->
<!-- cmd_snapshot_analyze&#45;&gt;cmd_snapshot_classify -->
<!-- cmd_snapshot_classify&#45;&gt;cmd_snapshot_generate -->
<!-- cmd_snapshot_generate&#45;&gt;skill_workflow_plugin_create -->
<!-- cmd_plugin_interview&#45;&gt;cmd_plugin_research -->
<!-- cmd_plugin_research&#45;&gt;cmd_plugin_design -->
<!-- cmd_plugin_design&#45;&gt;cmd_plugin_generate -->
<!-- cmd_plugin_migrate_analyze&#45;&gt;cmd_plugin_diagnose -->
<!-- cmd_plugin_diagnose&#45;&gt;cmd_plugin_phase_diagnose -->
<!-- cmd_plugin_fix&#45;&gt;cmd_plugin_verify -->
<!-- cmd_plugin_verify&#45;&gt;cmd_plugin_phase_verify -->
<!-- cmd_plugin_phase_diagnose&#45;&gt;skill_ref_specialist_output_schema -->
<g id="edge29" class="edge">
<title>cmd_plugin_phase_diagnose&#45;&gt;skill_ref_specialist_output_schema</title>
<path fill="none" stroke="black" d="M602,-929.04C608.09,-932.16 613.91,-935.79 619.07,-939.98 656.59,-970.45 634.75,-1008.63 677.07,-1031.98 738.71,-1065.98 771.13,-1060.56 835.46,-1031.98 896.79,-1004.72 943.1,-937.16 965.34,-899.11"/>
<polygon fill="black" stroke="black" points="968.55,-900.54 970.47,-890.12 962.47,-897.07 968.55,-900.54"/>
</g>
<!-- cmd_plugin_phase_diagnose&#45;&gt;skill_ref_architecture -->
<g id="edge30" class="edge">
<title>cmd_plugin_phase_diagnose&#45;&gt;skill_ref_architecture</title>
<path fill="none" stroke="black" d="M595.61,-892.86C603.64,-889.58 611.68,-885.93 619.07,-881.98 647.13,-866.96 647.24,-851.07 677.07,-839.98 755.44,-810.82 852.81,-807.79 915.65,-809.72"/>
<polygon fill="black" stroke="black" points="915.7,-813.22 925.82,-810.08 915.95,-806.23 915.7,-813.22"/>
</g>
<!-- cmd_plugin_phase_diagnose&#45;&gt;cmd_plugin_fix -->
<!-- agent_worker_structure -->
<g id="node29" class="node">
<title>agent_worker_structure</title>
<ellipse fill="#ede7f6" stroke="black" cx="756.26" cy="-999.98" rx="68.68" ry="21.43"/>
<text text-anchor="middle" x="756.26" y="-1002.98" font-family="Helvetica,sans-Serif" font-size="10.00">worker&#45;structure</text>
<text text-anchor="middle" x="756.26" y="-991.98" font-family="Helvetica,sans-Serif" font-size="10.00">(1,244 tok)</text>
</g>
<!-- cmd_plugin_phase_diagnose&#45;&gt;agent_worker_structure -->
<g id="edge26" class="edge">
<title>cmd_plugin_phase_diagnose&#45;&gt;agent_worker_structure</title>
<path fill="none" stroke="black" stroke-dasharray="5,2" d="M591.69,-929.01C600.86,-932.5 610.3,-936.24 619.07,-939.98 645.4,-951.2 650.92,-956.33 677.07,-967.98 685.72,-971.83 694.98,-975.78 704,-979.52"/>
<polygon fill="black" stroke="black" points="702.68,-982.77 713.26,-983.34 705.35,-976.29 702.68,-982.77"/>
</g>
<!-- agent_worker_principles -->
<g id="node30" class="node">
<title>agent_worker_principles</title>
<ellipse fill="#ede7f6" stroke="black" cx="756.26" cy="-935.98" rx="71.34" ry="21.43"/>
<text text-anchor="middle" x="756.26" y="-938.98" font-family="Helvetica,sans-Serif" font-size="10.00">worker&#45;principles</text>
<text text-anchor="middle" x="756.26" y="-927.98" font-family="Helvetica,sans-Serif" font-size="10.00">(1,154 tok)</text>
</g>
<!-- cmd_plugin_phase_diagnose&#45;&gt;agent_worker_principles -->
<g id="edge27" class="edge">
<title>cmd_plugin_phase_diagnose&#45;&gt;agent_worker_principles</title>
<path fill="none" stroke="black" stroke-dasharray="5,2" d="M604.18,-918.34C627.82,-921.1 654.93,-924.26 679.59,-927.14"/>
<polygon fill="black" stroke="black" points="679.3,-930.63 689.63,-928.31 680.11,-923.68 679.3,-930.63"/>
</g>
<!-- agent_worker_architecture -->
<g id="node31" class="node">
<title>agent_worker_architecture</title>
<ellipse fill="#ede7f6" stroke="black" cx="756.26" cy="-871.98" rx="79.39" ry="21.43"/>
<text text-anchor="middle" x="756.26" y="-874.98" font-family="Helvetica,sans-Serif" font-size="10.00">worker&#45;architecture</text>
<text text-anchor="middle" x="756.26" y="-863.98" font-family="Helvetica,sans-Serif" font-size="10.00">(1,695 tok)</text>
</g>
<!-- cmd_plugin_phase_diagnose&#45;&gt;agent_worker_architecture -->
<g id="edge28" class="edge">
<title>cmd_plugin_phase_diagnose&#45;&gt;agent_worker_architecture</title>
<path fill="none" stroke="black" stroke-dasharray="5,2" d="M604.18,-899.48C628.04,-895.14 655.42,-890.15 680.27,-885.63"/>
<polygon fill="black" stroke="black" points="681.17,-889.02 690.38,-883.79 679.92,-882.14 681.17,-889.02"/>
</g>
<!-- cmd_plugin_phase_verify&#45;&gt;skill_ref_specialist_output_schema -->
<g id="edge34" class="edge">
<title>cmd_plugin_phase_verify&#45;&gt;skill_ref_specialist_output_schema</title>
<path fill="none" stroke="black" d="M595.33,-753.66C675.16,-778.22 824.22,-824.07 911.48,-850.91"/>
<polygon fill="black" stroke="black" points="910.7,-854.33 921.29,-853.93 912.76,-847.64 910.7,-854.33"/>
</g>
<!-- cmd_plugin_phase_verify&#45;&gt;skill_ref_architecture -->
<g id="edge35" class="edge">
<title>cmd_plugin_phase_verify&#45;&gt;skill_ref_architecture</title>
<path fill="none" stroke="black" d="M595.28,-734.72C654.93,-733.48 753.25,-735.11 835.46,-753.98 870.78,-762.08 908.54,-778.04 936.59,-791.46"/>
<polygon fill="black" stroke="black" points="935.19,-794.67 945.72,-795.89 938.25,-788.37 935.19,-794.67"/>
</g>
<!-- cmd_plugin_phase_verify&#45;&gt;agent_worker_structure -->
<g id="edge31" class="edge">
<title>cmd_plugin_phase_verify&#45;&gt;agent_worker_structure</title>
<path fill="none" stroke="black" stroke-dasharray="5,2" d="M595.08,-749.44C604.01,-753.5 612.49,-758.87 619.07,-765.98 682.55,-834.5 614.71,-898.43 677.07,-967.98 681.92,-973.38 687.81,-977.89 694.17,-981.65"/>
<polygon fill="black" stroke="black" points="692.59,-984.78 703.07,-986.33 695.85,-978.58 692.59,-984.78"/>
</g>
<!-- cmd_plugin_phase_verify&#45;&gt;agent_worker_principles -->
<g id="edge32" class="edge">
<title>cmd_plugin_phase_verify&#45;&gt;agent_worker_principles</title>
<path fill="none" stroke="black" stroke-dasharray="5,2" d="M595.22,-750.46C603.93,-754.41 612.29,-759.48 619.07,-765.98 667.09,-812.02 629.8,-857.15 677.07,-903.98 682.04,-908.9 687.87,-913.1 694.08,-916.67"/>
<polygon fill="black" stroke="black" points="692.88,-920 703.37,-921.48 696.09,-913.78 692.88,-920"/>
</g>
<!-- cmd_plugin_phase_verify&#45;&gt;agent_worker_architecture -->
<g id="edge33" class="edge">
<title>cmd_plugin_phase_verify&#45;&gt;agent_worker_architecture</title>
<path fill="none" stroke="black" stroke-dasharray="5,2" d="M595.32,-753.03C603.64,-756.63 611.85,-760.92 619.07,-765.98 651.62,-788.74 645.65,-809.67 677.07,-833.98 684.69,-839.87 693.37,-845.19 702.11,-849.85"/>
<polygon fill="black" stroke="black" points="700.69,-853.06 711.2,-854.47 703.87,-846.82 700.69,-853.06"/>
</g>
<!-- agent_worker_structure&#45;&gt;skill_ref_specialist_output_schema -->
<g id="edge36" class="edge">
<title>agent_worker_structure&#45;&gt;skill_ref_specialist_output_schema</title>
<path fill="none" stroke="black" stroke-dasharray="1,5" d="M800.98,-983.86C812.41,-979.17 824.57,-973.75 835.46,-967.98 875.85,-946.56 919.15,-916.79 947.7,-896.1"/>
<polygon fill="black" stroke="black" points="950.06,-898.71 956.07,-889.99 945.93,-893.06 950.06,-898.71"/>
</g>
<!-- agent_worker_structure&#45;&gt;agent_worker_principles -->
<!-- agent_worker_structure&#45;&gt;agent_worker_principles -->
<!-- agent_worker_structure&#45;&gt;agent_worker_principles -->
<!-- agent_worker_structure&#45;&gt;agent_worker_principles -->
<!-- agent_worker_principles&#45;&gt;skill_ref_specialist_output_schema -->
<g id="edge37" class="edge">
<title>agent_worker_principles&#45;&gt;skill_ref_specialist_output_schema</title>
<path fill="none" stroke="black" stroke-dasharray="1,5" d="M808.08,-921.37C837.39,-912.95 874.75,-902.21 907.15,-892.9"/>
<polygon fill="black" stroke="black" points="908.39,-896.19 917.03,-890.06 906.45,-889.46 908.39,-896.19"/>
</g>
<!-- agent_worker_principles&#45;&gt;agent_worker_architecture -->
<!-- agent_worker_principles&#45;&gt;agent_worker_architecture -->
<!-- agent_worker_architecture&#45;&gt;skill_ref_specialist_output_schema -->
<g id="edge38" class="edge">
<title>agent_worker_architecture&#45;&gt;skill_ref_specialist_output_schema</title>
<path fill="none" stroke="black" stroke-dasharray="1,5" d="M814.04,-857.38C835.12,-855.78 859.68,-855.19 883.33,-855.6"/>
<polygon fill="black" stroke="black" points="883.32,-859.1 893.4,-855.84 883.48,-852.11 883.32,-859.1"/>
</g>
<!-- agent_worker_architecture&#45;&gt;skill_ref_specialist_output_schema -->
<!-- agent_worker_architecture&#45;&gt;skill_ref_specialist_output_schema -->
<!-- agent_worker_architecture&#45;&gt;skill_ref_architecture -->
<g id="edge39" class="edge">
<title>agent_worker_architecture&#45;&gt;skill_ref_architecture</title>
<path fill="none" stroke="black" stroke-dasharray="1,5" d="M813.75,-857.26C844.93,-849.14 883.76,-839.03 916.05,-830.62"/>
<polygon fill="black" stroke="black" points="917.05,-833.98 925.84,-828.07 915.28,-827.2 917.05,-833.98"/>
</g>
</g>
</svg>
