<?xml version="1.0" encoding="UTF-8" standalone="no"?>
<!DOCTYPE svg PUBLIC "-//W3C//DTD SVG 1.1//EN"
 "http://www.w3.org/Graphics/SVG/1.1/DTD/svg11.dtd">
<!-- Generated by graphviz version 2.43.0 (0)
 -->
<!-- Title: Dependencies Pages: 1 -->
<svg width="1347pt" height="1493pt"
 viewBox="0.00 0.00 1346.82 1493.49" xmlns="http://www.w3.org/2000/svg" xmlns:xlink="http://www.w3.org/1999/xlink">
<g id="graph0" class="graph" transform="scale(1 1) rotate(0) translate(4 1489.49)">
<title>Dependencies</title>
<polygon fill="white" stroke="transparent" points="-4,4 -4,-1489.49 1342.82,-1489.49 1342.82,4 -4,4"/>
<text text-anchor="middle" x="669.41" y="-1470.29" font-family="Helvetica,sans-Serif" font-size="14.00">co&#45;issue</text>
<!-- skill_co_issue -->
<g id="node1" class="node">
<title>skill_co_issue</title>
<ellipse fill="#c8e6c9" stroke="black" cx="53.03" cy="-249" rx="53.07" ry="21.43"/>
<text text-anchor="middle" x="53.03" y="-252" font-family="Helvetica,sans-Serif" font-size="10.00">twl:co&#45;issue</text>
<text text-anchor="middle" x="53.03" y="-241" font-family="Helvetica,sans-Serif" font-size="10.00">(1,354 tok)</text>
</g>
<!-- skill_workflow_issue_lifecycle -->
<g id="node2" class="node">
<title>skill_workflow_issue_lifecycle</title>
<ellipse fill="#e8f5e9" stroke="black" cx="272.25" cy="-483" rx="108.38" ry="21.43"/>
<text text-anchor="middle" x="272.25" y="-486" font-family="Helvetica,sans-Serif" font-size="10.00">twl:workflow&#45;issue&#45;lifecycle</text>
<text text-anchor="middle" x="272.25" y="-475" font-family="Helvetica,sans-Serif" font-size="10.00">(2,595 tok)</text>
</g>
<!-- skill_co_issue&#45;&gt;skill_workflow_issue_lifecycle -->
<g id="edge2" class="edge">
<title>skill_co_issue&#45;&gt;skill_workflow_issue_lifecycle</title>
<path fill="none" stroke="black" d="M59.68,-270.22C71.72,-311.37 103.88,-402.22 164.07,-451 170.33,-456.07 177.37,-460.34 184.78,-463.93"/>
<polygon fill="black" stroke="black" points="183.77,-467.31 194.34,-468.13 186.59,-460.9 183.77,-467.31"/>
</g>
<!-- skill_workflow_issue_refine -->
<g id="node3" class="node">
<title>skill_workflow_issue_refine</title>
<ellipse fill="#e8f5e9" stroke="black" cx="272.25" cy="-419" rx="98.99" ry="21.43"/>
<text text-anchor="middle" x="272.25" y="-422" font-family="Helvetica,sans-Serif" font-size="10.00">twl:workflow&#45;issue&#45;refine</text>
<text text-anchor="middle" x="272.25" y="-411" font-family="Helvetica,sans-Serif" font-size="10.00">(3,235 tok)</text>
</g>
<!-- skill_co_issue&#45;&gt;skill_workflow_issue_refine -->
<g id="edge3" class="edge">
<title>skill_co_issue&#45;&gt;skill_workflow_issue_refine</title>
<path fill="none" stroke="black" d="M66.32,-269.84C84.31,-298.69 120.49,-350.65 164.07,-381 174.42,-388.21 186.29,-394.19 198.26,-399.1"/>
<polygon fill="black" stroke="black" points="197.28,-402.47 207.87,-402.82 199.8,-395.95 197.28,-402.47"/>
</g>
<!-- skill_co_issue_step0_5_modes -->
<g id="node4" class="node">
<title>skill_co_issue_step0_5_modes</title>
<polygon fill="#e1f5fe" stroke="black" points="1325.32,-268 1179.32,-268 1179.32,-232 1331.32,-232 1331.32,-262 1325.32,-268"/>
<polyline fill="none" stroke="black" points="1325.32,-268 1325.32,-262 "/>
<polyline fill="none" stroke="black" points="1331.32,-262 1325.32,-262 "/>
<text text-anchor="middle" x="1255.32" y="-253" font-family="Helvetica,sans-Serif" font-size="10.00">twl:co&#45;issue&#45;step0.5&#45;modes</text>
<text text-anchor="middle" x="1255.32" y="-242" font-family="Helvetica,sans-Serif" font-size="10.00">(734 tok)</text>
</g>
<!-- skill_co_issue&#45;&gt;skill_co_issue_step0_5_modes -->
<g id="edge6" class="edge">
<title>skill_co_issue&#45;&gt;skill_co_issue_step0_5_modes</title>
<path fill="none" stroke="black" d="M103.13,-256.07C254.42,-276.71 726.67,-332.5 1113.82,-285 1137.51,-282.09 1162.96,-276.53 1185.6,-270.68"/>
<polygon fill="black" stroke="black" points="1186.68,-274.01 1195.45,-268.07 1184.89,-267.24 1186.68,-274.01"/>
</g>
<!-- skill_co_issue_phase2_bundles -->
<g id="node5" class="node">
<title>skill_co_issue_phase2_bundles</title>
<polygon fill="#e1f5fe" stroke="black" points="1327.32,-210 1177.32,-210 1177.32,-174 1333.32,-174 1333.32,-204 1327.32,-210"/>
<polyline fill="none" stroke="black" points="1327.32,-210 1327.32,-204 "/>
<polyline fill="none" stroke="black" points="1333.32,-204 1327.32,-204 "/>
<text text-anchor="middle" x="1255.32" y="-195" font-family="Helvetica,sans-Serif" font-size="10.00">twl:co&#45;issue&#45;phase2&#45;bundles</text>
<text text-anchor="middle" x="1255.32" y="-184" font-family="Helvetica,sans-Serif" font-size="10.00">(1,280 tok)</text>
</g>
<!-- skill_co_issue&#45;&gt;skill_co_issue_phase2_bundles -->
<g id="edge7" class="edge">
<title>skill_co_issue&#45;&gt;skill_co_issue_phase2_bundles</title>
<path fill="none" stroke="black" d="M98.02,-237.68C178.09,-218.11 353.26,-180 503.44,-180 503.44,-180 503.44,-180 720.66,-180 877.83,-180 1060.98,-185.27 1166.71,-188.82"/>
<polygon fill="black" stroke="black" points="1166.89,-192.33 1177.01,-189.17 1167.13,-185.33 1166.89,-192.33"/>
</g>
<!-- skill_co_issue_phase3_dispatch -->
<g id="node6" class="node">
<title>skill_co_issue_phase3_dispatch</title>
<polygon fill="#e1f5fe" stroke="black" points="1328.82,-152 1175.82,-152 1175.82,-116 1334.82,-116 1334.82,-146 1328.82,-152"/>
<polyline fill="none" stroke="black" points="1328.82,-152 1328.82,-146 "/>
<polyline fill="none" stroke="black" points="1334.82,-146 1328.82,-146 "/>
<text text-anchor="middle" x="1255.32" y="-137" font-family="Helvetica,sans-Serif" font-size="10.00">twl:co&#45;issue&#45;phase3&#45;dispatch</text>
<text text-anchor="middle" x="1255.32" y="-126" font-family="Helvetica,sans-Serif" font-size="10.00">(673 tok)</text>
</g>
<!-- skill_co_issue&#45;&gt;skill_co_issue_phase3_dispatch -->
<g id="edge8" class="edge">
<title>skill_co_issue&#45;&gt;skill_co_issue_phase3_dispatch</title>
<path fill="none" stroke="black" d="M78.81,-230.19C100.22,-214.94 132.59,-194.2 164.07,-183 307.65,-131.91 351.04,-134 503.44,-134 503.44,-134 503.44,-134 720.66,-134 877.28,-134 1059.76,-134 1165.65,-134"/>
<polygon fill="black" stroke="black" points="1165.66,-137.5 1175.66,-134 1165.66,-130.5 1165.66,-137.5"/>
</g>
<!-- skill_co_issue_phase4_aggregate -->
<g id="node7" class="node">
<title>skill_co_issue_phase4_aggregate</title>
<polygon fill="#e1f5fe" stroke="black" points="1332.82,-94 1171.82,-94 1171.82,-58 1338.82,-58 1338.82,-88 1332.82,-94"/>
<polyline fill="none" stroke="black" points="1332.82,-94 1332.82,-88 "/>
<polyline fill="none" stroke="black" points="1338.82,-88 1332.82,-88 "/>
<text text-anchor="middle" x="1255.32" y="-79" font-family="Helvetica,sans-Serif" font-size="10.00">twl:co&#45;issue&#45;phase4&#45;aggregate</text>
<text text-anchor="middle" x="1255.32" y="-68" font-family="Helvetica,sans-Serif" font-size="10.00">(1,397 tok)</text>
</g>
<!-- skill_co_issue&#45;&gt;skill_co_issue_phase4_aggregate -->
<g id="edge9" class="edge">
<title>skill_co_issue&#45;&gt;skill_co_issue_phase4_aggregate</title>
<path fill="none" stroke="black" d="M66.75,-228.33C84.75,-201.05 120.38,-153.85 164.07,-131 299.11,-60.38 351.04,-82 503.44,-82 503.44,-82 503.44,-82 720.66,-82 875.27,-82 1055.06,-79.45 1161.52,-77.68"/>
<polygon fill="black" stroke="black" points="1161.65,-81.17 1171.59,-77.51 1161.53,-74.17 1161.65,-81.17"/>
</g>
<!-- skill_co_issue_cleanup -->
<g id="node8" class="node">
<title>skill_co_issue_cleanup</title>
<polygon fill="#e1f5fe" stroke="black" points="1307.82,-36 1196.82,-36 1196.82,0 1313.82,0 1313.82,-30 1307.82,-36"/>
<polyline fill="none" stroke="black" points="1307.82,-36 1307.82,-30 "/>
<polyline fill="none" stroke="black" points="1313.82,-30 1307.82,-30 "/>
<text text-anchor="middle" x="1255.32" y="-21" font-family="Helvetica,sans-Serif" font-size="10.00">twl:co&#45;issue&#45;cleanup</text>
<text text-anchor="middle" x="1255.32" y="-10" font-family="Helvetica,sans-Serif" font-size="10.00">(327 tok)</text>
</g>
<!-- skill_co_issue&#45;&gt;skill_co_issue_cleanup -->
<g id="edge10" class="edge">
<title>skill_co_issue&#45;&gt;skill_co_issue_cleanup</title>
<path fill="none" stroke="black" d="M60.68,-227.78C73.75,-189.89 106.64,-111.1 164.07,-74 291.97,8.63 351.17,-27 503.44,-27 503.44,-27 503.44,-27 720.66,-27 888.18,-27 1085.25,-22.51 1186.58,-19.87"/>
<polygon fill="black" stroke="black" points="1186.77,-23.37 1196.68,-19.61 1186.59,-16.37 1186.77,-23.37"/>
</g>
<!-- cmd_issue_glossary_check -->
<g id="node14" class="node">
<title>cmd_issue_glossary_check</title>
<polygon fill="#e3f2fd" stroke="black" points="563.94,-482 444.94,-482 444.94,-446 563.94,-446 563.94,-482"/>
<text text-anchor="middle" x="504.44" y="-467" font-family="Helvetica,sans-Serif" font-size="10.00">issue&#45;glossary&#45;check</text>
<text text-anchor="middle" x="504.44" y="-456" font-family="Helvetica,sans-Serif" font-size="10.00">(899 tok)</text>
</g>
<!-- skill_co_issue&#45;&gt;cmd_issue_glossary_check -->
<g id="edge1" class="edge">
<title>skill_co_issue&#45;&gt;cmd_issue_glossary_check</title>
<path fill="none" stroke="black" d="M73.72,-268.73C94.45,-288.39 128.91,-318.03 164.07,-335 253.14,-377.99 290.59,-345.65 380.44,-387 409.35,-400.31 411.48,-412.08 438.44,-429 445.01,-433.12 452.1,-437.24 459.1,-441.14"/>
<polygon fill="black" stroke="black" points="457.42,-444.22 467.87,-445.95 460.78,-438.07 457.42,-444.22"/>
</g>
<!-- script_issue_lifecycle_orchestrator -->
<g id="node31" class="node">
<title>script_issue_lifecycle_orchestrator</title>
<polygon fill="#ff9800" stroke="black" points="1113.8,-366 1052.57,-390.49 930.12,-390.49 868.9,-366 930.12,-341.51 1052.57,-341.51 1113.8,-366"/>
<text text-anchor="middle" x="991.35" y="-369" font-family="Helvetica,sans-Serif" font-size="10.00">issue&#45;lifecycle&#45;orchestrator</text>
<text text-anchor="middle" x="991.35" y="-358" font-family="Helvetica,sans-Serif" font-size="10.00">(8,667 tok)</text>
</g>
<!-- skill_co_issue&#45;&gt;script_issue_lifecycle_orchestrator -->
<g id="edge4" class="edge">
<title>skill_co_issue&#45;&gt;script_issue_lifecycle_orchestrator</title>
<path fill="none" stroke="black" d="M89.52,-264.53C110.74,-273.15 138.48,-283.26 164.07,-289 407.09,-343.55 698.71,-359.54 862.45,-364.17"/>
<polygon fill="black" stroke="black" points="862.48,-367.67 872.57,-364.45 862.67,-360.68 862.48,-367.67"/>
</g>
<!-- script_co_issue_manual_fix_b -->
<g id="node32" class="node">
<title>script_co_issue_manual_fix_b</title>
<polygon fill="#ff9800" stroke="black" points="1091.71,-250 1041.53,-274.49 941.17,-274.49 890.99,-250 941.17,-225.51 1041.53,-225.51 1091.71,-250"/>
<text text-anchor="middle" x="991.35" y="-253" font-family="Helvetica,sans-Serif" font-size="10.00">co&#45;issue&#45;manual&#45;fix&#45;b</text>
<text text-anchor="middle" x="991.35" y="-242" font-family="Helvetica,sans-Serif" font-size="10.00">(462 tok)</text>
</g>
<!-- skill_co_issue&#45;&gt;script_co_issue_manual_fix_b -->
<g id="edge5" class="edge">
<title>skill_co_issue&#45;&gt;script_co_issue_manual_fix_b</title>
<path fill="none" stroke="black" d="M106.38,-249.06C254.56,-249.21 679.22,-249.67 881.15,-249.88"/>
<polygon fill="black" stroke="black" points="881.18,-253.38 891.18,-249.89 881.19,-246.38 881.18,-253.38"/>
</g>
<!-- skill_workflow_issue_lifecycle&#45;&gt;skill_workflow_issue_refine -->
<!-- cmd_issue_structure -->
<g id="node10" class="node">
<title>cmd_issue_structure</title>
<polygon fill="#e3f2fd" stroke="black" points="548.94,-922 459.94,-922 459.94,-886 548.94,-886 548.94,-922"/>
<text text-anchor="middle" x="504.44" y="-907" font-family="Helvetica,sans-Serif" font-size="10.00">issue&#45;structure</text>
<text text-anchor="middle" x="504.44" y="-896" font-family="Helvetica,sans-Serif" font-size="10.00">(1,406 tok)</text>
</g>
<!-- skill_workflow_issue_lifecycle&#45;&gt;cmd_issue_structure -->
<g id="edge11" class="edge">
<title>skill_workflow_issue_lifecycle&#45;&gt;cmd_issue_structure</title>
<path fill="none" stroke="black" d="M276.59,-504.3C287.7,-568.64 329.15,-763.41 438.44,-875 442.08,-878.71 446.27,-881.99 450.74,-884.87"/>
<polygon fill="black" stroke="black" points="449.19,-888.01 459.61,-889.94 452.67,-881.94 449.19,-888.01"/>
</g>
<!-- cmd_issue_create -->
<g id="node11" class="node">
<title>cmd_issue_create</title>
<polygon fill="#e3f2fd" stroke="black" points="542.94,-644 465.94,-644 465.94,-608 542.94,-608 542.94,-644"/>
<text text-anchor="middle" x="504.44" y="-629" font-family="Helvetica,sans-Serif" font-size="10.00">issue&#45;create</text>
<text text-anchor="middle" x="504.44" y="-618" font-family="Helvetica,sans-Serif" font-size="10.00">(1,192 tok)</text>
</g>
<!-- skill_workflow_issue_lifecycle&#45;&gt;cmd_issue_create -->
<g id="edge15" class="edge">
<title>skill_workflow_issue_lifecycle&#45;&gt;cmd_issue_create</title>
<path fill="none" stroke="black" d="M299.73,-503.56C331.56,-527.71 387.1,-568.16 438.44,-597 444.1,-600.18 450.17,-603.27 456.24,-606.18"/>
<polygon fill="black" stroke="black" points="455.19,-609.55 465.74,-610.59 458.14,-603.21 455.19,-609.55"/>
</g>
<!-- cmd_issue_spec_review -->
<g id="node12" class="node">
<title>cmd_issue_spec_review</title>
<polygon fill="#bbdefb" stroke="black" points="556.94,-864 451.94,-864 451.94,-828 556.94,-828 556.94,-864"/>
<text text-anchor="middle" x="504.44" y="-849" font-family="Helvetica,sans-Serif" font-size="10.00">issue&#45;spec&#45;review</text>
<text text-anchor="middle" x="504.44" y="-838" font-family="Helvetica,sans-Serif" font-size="10.00">(1,870 tok)</text>
</g>
<!-- skill_workflow_issue_lifecycle&#45;&gt;cmd_issue_spec_review -->
<g id="edge12" class="edge">
<title>skill_workflow_issue_lifecycle&#45;&gt;cmd_issue_spec_review</title>
<path fill="none" stroke="black" d="M279.09,-504.46C295.45,-561.09 346.63,-716.63 438.44,-811 442.56,-815.24 447.31,-819.08 452.32,-822.54"/>
<polygon fill="black" stroke="black" points="450.62,-825.61 460.95,-828 454.37,-819.69 450.62,-825.61"/>
</g>
<!-- cmd_issue_review_aggregate -->
<g id="node13" class="node">
<title>cmd_issue_review_aggregate</title>
<polygon fill="#e3f2fd" stroke="black" points="570.44,-760 438.44,-760 438.44,-724 570.44,-724 570.44,-760"/>
<text text-anchor="middle" x="504.44" y="-745" font-family="Helvetica,sans-Serif" font-size="10.00">issue&#45;review&#45;aggregate</text>
<text text-anchor="middle" x="504.44" y="-734" font-family="Helvetica,sans-Serif" font-size="10.00">(1,157 tok)</text>
</g>
<!-- skill_workflow_issue_lifecycle&#45;&gt;cmd_issue_review_aggregate -->
<g id="edge13" class="edge">
<title>skill_workflow_issue_lifecycle&#45;&gt;cmd_issue_review_aggregate</title>
<path fill="none" stroke="black" d="M283.57,-504.27C306.02,-548.6 363.37,-651.82 438.44,-713 440.85,-714.97 443.42,-716.83 446.09,-718.58"/>
<polygon fill="black" stroke="black" points="444.51,-721.71 454.89,-723.84 448.1,-715.7 444.51,-721.71"/>
</g>
<!-- cmd_issue_arch_drift -->
<g id="node15" class="node">
<title>cmd_issue_arch_drift</title>
<polygon fill="#e3f2fd" stroke="black" points="549.44,-702 459.44,-702 459.44,-666 549.44,-666 549.44,-702"/>
<text text-anchor="middle" x="504.44" y="-687" font-family="Helvetica,sans-Serif" font-size="10.00">issue&#45;arch&#45;drift</text>
<text text-anchor="middle" x="504.44" y="-676" font-family="Helvetica,sans-Serif" font-size="10.00">(1,079 tok)</text>
</g>
<!-- skill_workflow_issue_lifecycle&#45;&gt;cmd_issue_arch_drift -->
<g id="edge14" class="edge">
<title>skill_workflow_issue_lifecycle&#45;&gt;cmd_issue_arch_drift</title>
<path fill="none" stroke="black" d="M288.98,-504.05C316.15,-539.22 375.1,-610.48 438.44,-655 442.12,-657.59 446.07,-660.03 450.14,-662.31"/>
<polygon fill="black" stroke="black" points="448.69,-665.5 459.17,-667.04 451.94,-659.3 448.69,-665.5"/>
</g>
<!-- cmd_project_board_sync -->
<g id="node16" class="node">
<title>cmd_project_board_sync</title>
<polygon fill="#e3f2fd" stroke="black" points="558.44,-586 450.44,-586 450.44,-550 558.44,-550 558.44,-586"/>
<text text-anchor="middle" x="504.44" y="-571" font-family="Helvetica,sans-Serif" font-size="10.00">project&#45;board&#45;sync</text>
<text text-anchor="middle" x="504.44" y="-560" font-family="Helvetica,sans-Serif" font-size="10.00">(1,184 tok)</text>
</g>
<!-- skill_workflow_issue_lifecycle&#45;&gt;cmd_project_board_sync -->
<g id="edge16" class="edge">
<title>skill_workflow_issue_lifecycle&#45;&gt;cmd_project_board_sync</title>
<path fill="none" stroke="black" d="M324.05,-501.76C359.66,-514.91 407.36,-532.52 444.63,-546.28"/>
<polygon fill="black" stroke="black" points="443.76,-549.69 454.35,-549.87 446.18,-543.12 443.76,-549.69"/>
</g>
<!-- script_spec_review_session_init -->
<g id="node30" class="node">
<title>script_spec_review_session_init</title>
<polygon fill="#ff9800" stroke="black" points="1102.44,-625 1046.89,-649.49 935.81,-649.49 880.26,-625 935.81,-600.51 1046.89,-600.51 1102.44,-625"/>
<text text-anchor="middle" x="991.35" y="-628" font-family="Helvetica,sans-Serif" font-size="10.00">spec&#45;review&#45;session&#45;init</text>
<text text-anchor="middle" x="991.35" y="-617" font-family="Helvetica,sans-Serif" font-size="10.00">(501 tok)</text>
</g>
<!-- skill_workflow_issue_lifecycle&#45;&gt;script_spec_review_session_init -->
<g id="edge17" class="edge">
<title>skill_workflow_issue_lifecycle&#45;&gt;script_spec_review_session_init</title>
<path fill="none" stroke="black" d="M277.84,-504.45C291.13,-560.54 335.44,-711.34 438.44,-771 611.4,-871.18 854.35,-722.93 949.69,-655.48"/>
<polygon fill="black" stroke="black" points="951.81,-658.27 957.91,-649.6 947.74,-652.57 951.81,-658.27"/>
</g>
<!-- skill_workflow_issue_refine&#45;&gt;cmd_issue_spec_review -->
<g id="edge18" class="edge">
<title>skill_workflow_issue_refine&#45;&gt;cmd_issue_spec_review</title>
<path fill="none" stroke="black" d="M352.41,-431.52C362.99,-436.16 372.8,-442.46 380.44,-451 476.83,-558.71 376,-640.64 438.44,-771 447.36,-789.62 462.17,-807.24 475.4,-820.71"/>
<polygon fill="black" stroke="black" points="472.96,-823.23 482.54,-827.76 477.88,-818.24 472.96,-823.23"/>
</g>
<!-- skill_workflow_issue_refine&#45;&gt;cmd_issue_review_aggregate -->
<g id="edge19" class="edge">
<title>skill_workflow_issue_refine&#45;&gt;cmd_issue_review_aggregate</title>
<path fill="none" stroke="black" d="M351.85,-431.66C362.57,-436.28 372.57,-442.54 380.44,-451 461.67,-538.32 363.03,-620.6 438.44,-713 439.73,-714.58 441.12,-716.08 442.6,-717.49"/>
<polygon fill="black" stroke="black" points="440.63,-720.4 450.61,-723.94 445.02,-714.95 440.63,-720.4"/>
</g>
<!-- skill_workflow_issue_refine&#45;&gt;cmd_issue_arch_drift -->
<g id="edge20" class="edge">
<title>skill_workflow_issue_refine&#45;&gt;cmd_issue_arch_drift</title>
<path fill="none" stroke="black" d="M351.14,-431.97C362.02,-436.54 372.26,-442.71 380.44,-451 446.65,-518.09 376.71,-583.77 438.44,-655 441.89,-658.98 446,-662.44 450.45,-665.45"/>
<polygon fill="black" stroke="black" points="448.94,-668.62 459.33,-670.67 452.49,-662.59 448.94,-668.62"/>
</g>
<!-- skill_workflow_issue_refine&#45;&gt;script_spec_review_session_init -->
<g id="edge21" class="edge">
<title>skill_workflow_issue_refine&#45;&gt;script_spec_review_session_init</title>
<path fill="none" stroke="black" d="M338.93,-434.79C352.97,-439.21 367.47,-444.6 380.44,-451 408.98,-465.08 409.45,-479.86 438.44,-493 593.08,-563.09 645.97,-537.6 810.87,-578 844.04,-586.13 880.52,-595.58 911.88,-603.87"/>
<polygon fill="black" stroke="black" points="911.31,-607.34 921.87,-606.52 913.1,-600.58 911.31,-607.34"/>
</g>
<!-- skill_workflow_issue_refine&#45;&gt;script_issue_lifecycle_orchestrator -->
<!-- skill_co_issue_step0_5_modes&#45;&gt;skill_co_issue_phase2_bundles -->
<!-- skill_co_issue_phase2_bundles&#45;&gt;skill_co_issue_phase3_dispatch -->
<!-- skill_co_issue_phase3_dispatch&#45;&gt;skill_co_issue_phase4_aggregate -->
<!-- skill_co_issue_phase4_aggregate&#45;&gt;skill_co_issue_cleanup -->
<!-- skill_ref_glossary_criteria -->
<g id="node9" class="node">
<title>skill_ref_glossary_criteria</title>
<polygon fill="#e1f5fe" stroke="black" points="1314.82,-482 1189.82,-482 1189.82,-446 1320.82,-446 1320.82,-476 1314.82,-482"/>
<polyline fill="none" stroke="black" points="1314.82,-482 1314.82,-476 "/>
<polyline fill="none" stroke="black" points="1320.82,-476 1314.82,-476 "/>
<text text-anchor="middle" x="1255.32" y="-467" font-family="Helvetica,sans-Serif" font-size="10.00">twl:ref&#45;glossary&#45;criteria</text>
<text text-anchor="middle" x="1255.32" y="-456" font-family="Helvetica,sans-Serif" font-size="10.00">(873 tok)</text>
</g>
<!-- cmd_issue_structure&#45;&gt;cmd_issue_spec_review -->
<!-- cmd_issue_create&#45;&gt;cmd_project_board_sync -->
<!-- cmd_issue_spec_review&#45;&gt;cmd_issue_review_aggregate -->
<!-- cmd_issue_spec_review&#45;&gt;cmd_issue_review_aggregate -->
<!-- agent_issue_critic -->
<g id="node17" class="node">
<title>agent_issue_critic</title>
<ellipse fill="#ede7f6" stroke="black" cx="719.66" cy="-998" rx="49.49" ry="21.43"/>
<text text-anchor="middle" x="719.66" y="-1001" font-family="Helvetica,sans-Serif" font-size="10.00">issue&#45;critic</text>
<text text-anchor="middle" x="719.66" y="-990" font-family="Helvetica,sans-Serif" font-size="10.00">(1,268 tok)</text>
</g>
<!-- cmd_issue_spec_review&#45;&gt;agent_issue_critic -->
<g id="edge22" class="edge">
<title>cmd_issue_spec_review&#45;&gt;agent_issue_critic</title>
<path fill="none" stroke="black" stroke-dasharray="5,2" d="M554.55,-864.09C560.22,-867.26 565.67,-870.88 570.44,-875 606.77,-906.32 590.91,-936.14 628.44,-966 639.11,-974.49 652.22,-980.83 665.1,-985.52"/>
<polygon fill="black" stroke="black" points="664.26,-988.93 674.86,-988.79 666.49,-982.29 664.26,-988.93"/>
</g>
<!-- agent_issue_feasibility -->
<g id="node18" class="node">
<title>agent_issue_feasibility</title>
<ellipse fill="#ede7f6" stroke="black" cx="719.66" cy="-934" rx="67.35" ry="21.43"/>
<text text-anchor="middle" x="719.66" y="-937" font-family="Helvetica,sans-Serif" font-size="10.00">issue&#45;feasibility</text>
<text text-anchor="middle" x="719.66" y="-926" font-family="Helvetica,sans-Serif" font-size="10.00">(1,175 tok)</text>
</g>
<!-- cmd_issue_spec_review&#45;&gt;agent_issue_feasibility -->
<g id="edge23" class="edge">
<title>cmd_issue_spec_review&#45;&gt;agent_issue_feasibility</title>
<path fill="none" stroke="black" stroke-dasharray="5,2" d="M546.4,-864.15C554.38,-867.73 562.68,-871.46 570.44,-875 596.31,-886.79 602.12,-891.24 628.44,-902 639.62,-906.57 651.72,-911.13 663.31,-915.3"/>
<polygon fill="black" stroke="black" points="662.31,-918.66 672.91,-918.72 664.66,-912.07 662.31,-918.66"/>
</g>
<!-- agent_worker_codex_reviewer -->
<g id="node19" class="node">
<title>agent_worker_codex_reviewer</title>
<ellipse fill="#ede7f6" stroke="black" cx="719.66" cy="-870" rx="91.43" ry="21.43"/>
<text text-anchor="middle" x="719.66" y="-873" font-family="Helvetica,sans-Serif" font-size="10.00">worker&#45;codex&#45;reviewer</text>
<text text-anchor="middle" x="719.66" y="-862" font-family="Helvetica,sans-Serif" font-size="10.00">(1,841 tok)</text>
</g>
<!-- cmd_issue_spec_review&#45;&gt;agent_worker_codex_reviewer -->
<g id="edge24" class="edge">
<title>cmd_issue_spec_review&#45;&gt;agent_worker_codex_reviewer</title>
<path fill="none" stroke="black" stroke-dasharray="5,2" d="M557.05,-851.81C578.08,-854.18 603.04,-856.99 626.98,-859.68"/>
<polygon fill="black" stroke="black" points="626.83,-863.19 637.16,-860.83 627.61,-856.23 626.83,-863.19"/>
</g>
<!-- script_escape_issue_body -->
<g id="node28" class="node">
<title>script_escape_issue_body</title>
<polygon fill="#ff9800" stroke="black" points="1079.71,-870 1035.53,-894.49 947.17,-894.49 902.99,-870 947.17,-845.51 1035.53,-845.51 1079.71,-870"/>
<text text-anchor="middle" x="991.35" y="-873" font-family="Helvetica,sans-Serif" font-size="10.00">escape&#45;issue&#45;body</text>
<text text-anchor="middle" x="991.35" y="-862" font-family="Helvetica,sans-Serif" font-size="10.00">(63 tok)</text>
</g>
<!-- cmd_issue_spec_review&#45;&gt;script_escape_issue_body -->
<g id="edge25" class="edge">
<title>cmd_issue_spec_review&#45;&gt;script_escape_issue_body</title>
<path fill="none" stroke="black" d="M557.04,-864.17C561.95,-867.27 566.55,-870.86 570.44,-875 620.83,-928.59 568,-988.08 628.44,-1030 695.07,-1076.21 742.47,-1073.52 810.87,-1030 862.21,-997.34 822.76,-945.69 868.87,-906 880.84,-895.7 895.65,-888.35 910.76,-883.1"/>
<polygon fill="black" stroke="black" points="912.23,-886.3 920.71,-879.94 910.12,-879.63 912.23,-886.3"/>
</g>
<!-- script_spec_review_manifest -->
<g id="node29" class="node">
<title>script_spec_review_manifest</title>
<polygon fill="#ff9800" stroke="black" points="1091.71,-799 1041.53,-823.49 941.17,-823.49 890.99,-799 941.17,-774.51 1041.53,-774.51 1091.71,-799"/>
<text text-anchor="middle" x="991.35" y="-802" font-family="Helvetica,sans-Serif" font-size="10.00">spec&#45;review&#45;manifest</text>
<text text-anchor="middle" x="991.35" y="-791" font-family="Helvetica,sans-Serif" font-size="10.00">(169 tok)</text>
</g>
<!-- cmd_issue_spec_review&#45;&gt;script_spec_review_manifest -->
<g id="edge26" class="edge">
<title>cmd_issue_spec_review&#45;&gt;script_spec_review_manifest</title>
<path fill="none" stroke="black" d="M557.33,-840.97C638.35,-833.12 796.07,-817.83 897.14,-808.03"/>
<polygon fill="black" stroke="black" points="897.74,-811.49 907.35,-807.04 897.06,-804.53 897.74,-811.49"/>
</g>
<!-- cmd_issue_review_aggregate&#45;&gt;cmd_issue_arch_drift -->
<!-- cmd_issue_review_aggregate&#45;&gt;cmd_issue_arch_drift -->
<!-- cmd_issue_glossary_check&#45;&gt;skill_workflow_issue_lifecycle -->
<!-- cmd_issue_glossary_check&#45;&gt;skill_ref_glossary_criteria -->
<g id="edge27" class="edge">
<title>cmd_issue_glossary_check&#45;&gt;skill_ref_glossary_criteria</title>
<path fill="none" stroke="black" d="M564.2,-464C698.98,-464 1030.18,-464 1179.35,-464"/>
<polygon fill="black" stroke="black" points="1179.77,-467.5 1189.77,-464 1179.77,-460.5 1179.77,-467.5"/>
</g>
<!-- cmd_issue_arch_drift&#45;&gt;cmd_issue_create -->
<!-- cmd_issue_arch_drift&#45;&gt;script_spec_review_session_init -->
<!-- cmd_project_board_sync&#45;&gt;script_spec_review_session_init -->
<!-- agent_issue_critic&#45;&gt;agent_issue_feasibility -->
<!-- agent_issue_feasibility&#45;&gt;agent_worker_codex_reviewer -->
<!-- agent_worker_codex_reviewer&#45;&gt;script_escape_issue_body -->
<!-- script_state_read -->
<g id="node20" class="node">
<title>script_state_read</title>
<polygon fill="#ff9800" stroke="black" points="1048.66,-1012 1020,-1036.49 962.69,-1036.49 934.04,-1012 962.69,-987.51 1020,-987.51 1048.66,-1012"/>
<text text-anchor="middle" x="991.35" y="-1015" font-family="Helvetica,sans-Serif" font-size="10.00">state&#45;read</text>
<text text-anchor="middle" x="991.35" y="-1004" font-family="Helvetica,sans-Serif" font-size="10.00">(5,796 tok)</text>
</g>
<!-- script_state_write -->
<g id="node21" class="node">
<title>script_state_write</title>
<polygon fill="#ff9800" stroke="black" points="1048.66,-941 1020,-965.49 962.69,-965.49 934.04,-941 962.69,-916.51 1020,-916.51 1048.66,-941"/>
<text text-anchor="middle" x="991.35" y="-944" font-family="Helvetica,sans-Serif" font-size="10.00">state&#45;write</text>
<text text-anchor="middle" x="991.35" y="-933" font-family="Helvetica,sans-Serif" font-size="10.00">(5,796 tok)</text>
</g>
<!-- script_state_read&#45;&gt;script_state_write -->
<!-- script_state_read&#45;&gt;script_state_write -->
<!-- script_state_read&#45;&gt;script_state_write -->
<!-- script_state_read&#45;&gt;script_state_write -->
<!-- script_chain_runner -->
<g id="node22" class="node">
<title>script_chain_runner</title>
<polygon fill="#ff9800" stroke="black" points="1055.22,-1083 1023.29,-1107.49 959.41,-1107.49 927.47,-1083 959.41,-1058.51 1023.29,-1058.51 1055.22,-1083"/>
<text text-anchor="middle" x="991.35" y="-1086" font-family="Helvetica,sans-Serif" font-size="10.00">chain&#45;runner</text>
<text text-anchor="middle" x="991.35" y="-1075" font-family="Helvetica,sans-Serif" font-size="10.00">(9,633 tok)</text>
</g>
<!-- script_worker_terminal_guard -->
<g id="node23" class="node">
<title>script_worker_terminal_guard</title>
<polygon fill="#ff9800" stroke="black" points="1094.11,-1154 1042.73,-1178.49 939.97,-1178.49 888.59,-1154 939.97,-1129.51 1042.73,-1129.51 1094.11,-1154"/>
<text text-anchor="middle" x="991.35" y="-1157" font-family="Helvetica,sans-Serif" font-size="10.00">worker&#45;terminal&#45;guard</text>
<text text-anchor="middle" x="991.35" y="-1146" font-family="Helvetica,sans-Serif" font-size="10.00">(770 tok)</text>
</g>
<!-- script_worktree_create -->
<g id="node24" class="node">
<title>script_worktree_create</title>
<polygon fill="#ff9800" stroke="black" points="1068.98,-1225 1030.17,-1249.49 952.53,-1249.49 913.71,-1225 952.53,-1200.51 1030.17,-1200.51 1068.98,-1225"/>
<text text-anchor="middle" x="991.35" y="-1228" font-family="Helvetica,sans-Serif" font-size="10.00">worktree&#45;create</text>
<text text-anchor="middle" x="991.35" y="-1217" font-family="Helvetica,sans-Serif" font-size="10.00">(6,686 tok)</text>
</g>
<!-- script_autopilot_github -->
<g id="node25" class="node">
<title>script_autopilot_github</title>
<polygon fill="#ff9800" stroke="black" points="1068.98,-1296 1030.17,-1320.49 952.53,-1320.49 913.71,-1296 952.53,-1271.51 1030.17,-1271.51 1068.98,-1296"/>
<text text-anchor="middle" x="991.35" y="-1299" font-family="Helvetica,sans-Serif" font-size="10.00">autopilot&#45;github</text>
<text text-anchor="middle" x="991.35" y="-1288" font-family="Helvetica,sans-Serif" font-size="10.00">(3,666 tok)</text>
</g>
<!-- script_chain_steps -->
<g id="node26" class="node">
<title>script_chain_steps</title>
<polygon fill="#ff9800" stroke="black" points="1051.06,-1367 1021.2,-1391.49 961.49,-1391.49 931.64,-1367 961.49,-1342.51 1021.2,-1342.51 1051.06,-1367"/>
<text text-anchor="middle" x="991.35" y="-1370" font-family="Helvetica,sans-Serif" font-size="10.00">chain&#45;steps</text>
<text text-anchor="middle" x="991.35" y="-1359" font-family="Helvetica,sans-Serif" font-size="10.00">(9,633 tok)</text>
</g>
<!-- script_resolve_issue_num -->
<g id="node27" class="node">
<title>script_resolve_issue_num</title>
<polygon fill="#ff9800" stroke="black" points="1078.58,-1438 1034.96,-1462.49 947.73,-1462.49 904.12,-1438 947.73,-1413.51 1034.96,-1413.51 1078.58,-1438"/>
<text text-anchor="middle" x="991.35" y="-1441" font-family="Helvetica,sans-Serif" font-size="10.00">resolve&#45;issue&#45;num</text>
<text text-anchor="middle" x="991.35" y="-1430" font-family="Helvetica,sans-Serif" font-size="10.00">(716 tok)</text>
</g>
<!-- script_escape_issue_body&#45;&gt;script_spec_review_manifest -->
<!-- script_issue_lifecycle_orchestrator&#45;&gt;script_co_issue_manual_fix_b -->
<!-- script_co_issue_manual_fix_b&#45;&gt;skill_co_issue_step0_5_modes -->
</g>
</svg>
