<?xml version="1.0" encoding="UTF-8" standalone="no"?>
<!DOCTYPE svg PUBLIC "-//W3C//DTD SVG 1.1//EN"
 "http://www.w3.org/Graphics/SVG/1.1/DTD/svg11.dtd">
<!-- Generated by graphviz version 2.43.0 (0)
 -->
<!-- Title: Dependencies Pages: 1 -->
<svg width="458pt" height="763pt"
 viewBox="0.00 0.00 458.12 763.00" xmlns="http://www.w3.org/2000/svg" xmlns:xlink="http://www.w3.org/1999/xlink">
<g id="graph0" class="graph" transform="scale(1 1) rotate(0) translate(4 759)">
<title>Dependencies</title>
<polygon fill="white" stroke="transparent" points="-4,4 -4,-759 454.12,-759 454.12,4 -4,4"/>
<text text-anchor="middle" x="225.06" y="-739.8" font-family="Helvetica,sans-Serif" font-size="14.00">co&#45;utility</text>
<!-- skill_co_utility -->
<g id="node1" class="node">
<title>skill_co_utility</title>
<ellipse fill="#c8e6c9" stroke="black" cx="48.79" cy="-366" rx="48.58" ry="21.43"/>
<text text-anchor="middle" x="48.79" y="-369" font-family="Helvetica,sans-Serif" font-size="10.00">twl:co&#45;utility</text>
<text text-anchor="middle" x="48.79" y="-358" font-family="Helvetica,sans-Serif" font-size="10.00">(1,021 tok)</text>
</g>
<!-- cmd_self_improve_review -->
<g id="node2" class="node">
<title>cmd_self_improve_review</title>
<polygon fill="#e3f2fd" stroke="black" points="256.58,-36 155.58,-36 155.58,0 256.58,0 256.58,-36"/>
<text text-anchor="middle" x="206.08" y="-21" font-family="Helvetica,sans-Serif" font-size="10.00">self&#45;improve&#45;review</text>
<text text-anchor="middle" x="206.08" y="-10" font-family="Helvetica,sans-Serif" font-size="10.00">(1,086 tok)</text>
</g>
<!-- skill_co_utility&#45;&gt;cmd_self_improve_review -->
<g id="edge13" class="edge">
<title>skill_co_utility&#45;&gt;cmd_self_improve_review</title>
<path fill="none" stroke="black" d="M51.71,-344.54C57.65,-289.33 80.14,-140.2 155.58,-47 156.7,-45.62 157.91,-44.28 159.18,-43"/>
<polygon fill="black" stroke="black" points="161.77,-45.39 167.09,-36.23 157.22,-40.08 161.77,-45.39"/>
</g>
<!-- cmd_worktree_list -->
<g id="node3" class="node">
<title>cmd_worktree_list</title>
<polygon fill="#e3f2fd" stroke="black" points="241.08,-558 171.08,-558 171.08,-522 241.08,-522 241.08,-558"/>
<text text-anchor="middle" x="206.08" y="-543" font-family="Helvetica,sans-Serif" font-size="10.00">worktree&#45;list</text>
<text text-anchor="middle" x="206.08" y="-532" font-family="Helvetica,sans-Serif" font-size="10.00">(200 tok)</text>
</g>
<!-- skill_co_utility&#45;&gt;cmd_worktree_list -->
<g id="edge4" class="edge">
<title>skill_co_utility&#45;&gt;cmd_worktree_list</title>
<path fill="none" stroke="black" d="M61.23,-386.8C78.58,-416.98 113.98,-473.38 155.58,-511 157.76,-512.97 160.1,-514.88 162.53,-516.7"/>
<polygon fill="black" stroke="black" points="160.82,-519.77 171.03,-522.58 164.8,-514.02 160.82,-519.77"/>
</g>
<!-- cmd_change_propose -->
<g id="node4" class="node">
<title>cmd_change_propose</title>
<polygon fill="#e3f2fd" stroke="black" points="249.08,-732 163.08,-732 163.08,-696 249.08,-696 249.08,-732"/>
<text text-anchor="middle" x="206.08" y="-717" font-family="Helvetica,sans-Serif" font-size="10.00">change&#45;propose</text>
<text text-anchor="middle" x="206.08" y="-706" font-family="Helvetica,sans-Serif" font-size="10.00">(1,345 tok)</text>
</g>
<!-- skill_co_utility&#45;&gt;cmd_change_propose -->
<g id="edge1" class="edge">
<title>skill_co_utility&#45;&gt;cmd_change_propose</title>
<path fill="none" stroke="black" d="M51.71,-387.46C57.65,-442.67 80.14,-591.8 155.58,-685 156.7,-686.38 157.91,-687.72 159.18,-689"/>
<polygon fill="black" stroke="black" points="157.22,-691.92 167.09,-695.77 161.77,-686.61 157.22,-691.92"/>
</g>
<!-- cmd_change_apply -->
<g id="node5" class="node">
<title>cmd_change_apply</title>
<polygon fill="#e3f2fd" stroke="black" points="243.08,-674 169.08,-674 169.08,-638 243.08,-638 243.08,-674"/>
<text text-anchor="middle" x="206.08" y="-659" font-family="Helvetica,sans-Serif" font-size="10.00">change&#45;apply</text>
<text text-anchor="middle" x="206.08" y="-648" font-family="Helvetica,sans-Serif" font-size="10.00">(857 tok)</text>
</g>
<!-- skill_co_utility&#45;&gt;cmd_change_apply -->
<g id="edge2" class="edge">
<title>skill_co_utility&#45;&gt;cmd_change_apply</title>
<path fill="none" stroke="black" d="M53.58,-387.39C63.03,-435.34 91.62,-553.03 155.58,-627 157.23,-628.91 159.05,-630.73 160.97,-632.45"/>
<polygon fill="black" stroke="black" points="158.81,-635.21 168.83,-638.63 163.13,-629.7 158.81,-635.21"/>
</g>
<!-- cmd_change_archive -->
<g id="node6" class="node">
<title>cmd_change_archive</title>
<polygon fill="#e3f2fd" stroke="black" points="247.58,-616 164.58,-616 164.58,-580 247.58,-580 247.58,-616"/>
<text text-anchor="middle" x="206.08" y="-601" font-family="Helvetica,sans-Serif" font-size="10.00">change&#45;archive</text>
<text text-anchor="middle" x="206.08" y="-590" font-family="Helvetica,sans-Serif" font-size="10.00">(685 tok)</text>
</g>
<!-- skill_co_utility&#45;&gt;cmd_change_archive -->
<g id="edge3" class="edge">
<title>skill_co_utility&#45;&gt;cmd_change_archive</title>
<path fill="none" stroke="black" d="M56.35,-387.04C69.6,-426.72 102.84,-513.58 155.58,-569 157.14,-570.64 158.82,-572.22 160.57,-573.73"/>
<polygon fill="black" stroke="black" points="158.62,-576.65 168.69,-579.95 162.88,-571.09 158.62,-576.65"/>
</g>
<!-- cmd_check -->
<g id="node7" class="node">
<title>cmd_check</title>
<polygon fill="#e3f2fd" stroke="black" points="237.58,-384 174.58,-384 174.58,-348 237.58,-348 237.58,-384"/>
<text text-anchor="middle" x="206.08" y="-369" font-family="Helvetica,sans-Serif" font-size="10.00">check</text>
<text text-anchor="middle" x="206.08" y="-358" font-family="Helvetica,sans-Serif" font-size="10.00">(1,949 tok)</text>
</g>
<!-- skill_co_utility&#45;&gt;cmd_check -->
<g id="edge7" class="edge">
<title>skill_co_utility&#45;&gt;cmd_check</title>
<path fill="none" stroke="black" d="M97.65,-366C118.9,-366 143.66,-366 164.04,-366"/>
<polygon fill="black" stroke="black" points="164.27,-369.5 174.27,-366 164.27,-362.5 164.27,-369.5"/>
</g>
<!-- cmd_twl_validate -->
<g id="node8" class="node">
<title>cmd_twl_validate</title>
<polygon fill="#e3f2fd" stroke="black" points="239.08,-442 173.08,-442 173.08,-406 239.08,-406 239.08,-442"/>
<text text-anchor="middle" x="206.08" y="-427" font-family="Helvetica,sans-Serif" font-size="10.00">twl&#45;validate</text>
<text text-anchor="middle" x="206.08" y="-416" font-family="Helvetica,sans-Serif" font-size="10.00">(869 tok)</text>
</g>
<!-- skill_co_utility&#45;&gt;cmd_twl_validate -->
<g id="edge6" class="edge">
<title>skill_co_utility&#45;&gt;cmd_twl_validate</title>
<path fill="none" stroke="black" d="M86.59,-379.75C109.69,-388.37 139.53,-399.52 163.48,-408.46"/>
<polygon fill="black" stroke="black" points="162.42,-411.8 173.01,-412.02 164.87,-405.25 162.42,-411.8"/>
</g>
<!-- cmd_services -->
<g id="node9" class="node">
<title>cmd_services</title>
<polygon fill="#e3f2fd" stroke="black" points="233.58,-268 178.58,-268 178.58,-232 233.58,-232 233.58,-268"/>
<text text-anchor="middle" x="206.08" y="-253" font-family="Helvetica,sans-Serif" font-size="10.00">services</text>
<text text-anchor="middle" x="206.08" y="-242" font-family="Helvetica,sans-Serif" font-size="10.00">(967 tok)</text>
</g>
<!-- skill_co_utility&#45;&gt;cmd_services -->
<g id="edge9" class="edge">
<title>skill_co_utility&#45;&gt;cmd_services</title>
<path fill="none" stroke="black" d="M70.88,-346.96C91.69,-328.6 124.77,-300.5 155.58,-279 160.07,-275.87 164.92,-272.74 169.76,-269.76"/>
<polygon fill="black" stroke="black" points="171.61,-272.74 178.39,-264.6 168.02,-266.73 171.61,-272.74"/>
</g>
<!-- cmd_ui_capture -->
<g id="node10" class="node">
<title>cmd_ui_capture</title>
<polygon fill="#e3f2fd" stroke="black" points="235.58,-210 176.58,-210 176.58,-174 235.58,-174 235.58,-210"/>
<text text-anchor="middle" x="206.08" y="-195" font-family="Helvetica,sans-Serif" font-size="10.00">ui&#45;capture</text>
<text text-anchor="middle" x="206.08" y="-184" font-family="Helvetica,sans-Serif" font-size="10.00">(637 tok)</text>
</g>
<!-- skill_co_utility&#45;&gt;cmd_ui_capture -->
<g id="edge10" class="edge">
<title>skill_co_utility&#45;&gt;cmd_ui_capture</title>
<path fill="none" stroke="black" d="M61.23,-345.2C78.58,-315.02 113.98,-258.62 155.58,-221 159.36,-217.58 163.61,-214.37 167.99,-211.42"/>
<polygon fill="black" stroke="black" points="169.87,-214.37 176.48,-206.08 166.15,-208.44 169.87,-214.37"/>
</g>
<!-- cmd_e2e_plan -->
<g id="node11" class="node">
<title>cmd_e2e_plan</title>
<polygon fill="#e3f2fd" stroke="black" points="233.58,-152 178.58,-152 178.58,-116 233.58,-116 233.58,-152"/>
<text text-anchor="middle" x="206.08" y="-137" font-family="Helvetica,sans-Serif" font-size="10.00">e2e&#45;plan</text>
<text text-anchor="middle" x="206.08" y="-126" font-family="Helvetica,sans-Serif" font-size="10.00">(435 tok)</text>
</g>
<!-- skill_co_utility&#45;&gt;cmd_e2e_plan -->
<g id="edge11" class="edge">
<title>skill_co_utility&#45;&gt;cmd_e2e_plan</title>
<path fill="none" stroke="black" d="M56.35,-344.96C69.6,-305.28 102.84,-218.42 155.58,-163 159.72,-158.66 164.64,-154.75 169.76,-151.32"/>
<polygon fill="black" stroke="black" points="171.76,-154.2 178.46,-145.99 168.1,-148.23 171.76,-154.2"/>
</g>
<!-- cmd_worktree_delete -->
<g id="node12" class="node">
<title>cmd_worktree_delete</title>
<polygon fill="#e3f2fd" stroke="black" points="247.58,-500 164.58,-500 164.58,-464 247.58,-464 247.58,-500"/>
<text text-anchor="middle" x="206.08" y="-485" font-family="Helvetica,sans-Serif" font-size="10.00">worktree&#45;delete</text>
<text text-anchor="middle" x="206.08" y="-474" font-family="Helvetica,sans-Serif" font-size="10.00">(390 tok)</text>
</g>
<!-- skill_co_utility&#45;&gt;cmd_worktree_delete -->
<g id="edge5" class="edge">
<title>skill_co_utility&#45;&gt;cmd_worktree_delete</title>
<path fill="none" stroke="black" d="M70.88,-385.04C91.69,-403.4 124.77,-431.5 155.58,-453 158.24,-454.85 161.01,-456.7 163.84,-458.52"/>
<polygon fill="black" stroke="black" points="162.06,-461.53 172.4,-463.84 165.76,-455.59 162.06,-461.53"/>
</g>
<!-- cmd_schema_update -->
<g id="node13" class="node">
<title>cmd_schema_update</title>
<polygon fill="#e3f2fd" stroke="black" points="247.58,-94 164.58,-94 164.58,-58 247.58,-58 247.58,-94"/>
<text text-anchor="middle" x="206.08" y="-79" font-family="Helvetica,sans-Serif" font-size="10.00">schema&#45;update</text>
<text text-anchor="middle" x="206.08" y="-68" font-family="Helvetica,sans-Serif" font-size="10.00">(477 tok)</text>
</g>
<!-- skill_co_utility&#45;&gt;cmd_schema_update -->
<g id="edge12" class="edge">
<title>skill_co_utility&#45;&gt;cmd_schema_update</title>
<path fill="none" stroke="black" d="M53.58,-344.61C63.03,-296.66 91.62,-178.97 155.58,-105 156.9,-103.47 158.32,-102.01 159.82,-100.6"/>
<polygon fill="black" stroke="black" points="162.29,-103.1 167.83,-94.07 157.87,-97.68 162.29,-103.1"/>
</g>
<!-- cmd_spec_diagnose -->
<g id="node14" class="node">
<title>cmd_spec_diagnose</title>
<polygon fill="#e3f2fd" stroke="black" points="246.08,-326 166.08,-326 166.08,-290 246.08,-290 246.08,-326"/>
<text text-anchor="middle" x="206.08" y="-311" font-family="Helvetica,sans-Serif" font-size="10.00">spec&#45;diagnose</text>
<text text-anchor="middle" x="206.08" y="-300" font-family="Helvetica,sans-Serif" font-size="10.00">(634 tok)</text>
</g>
<!-- skill_co_utility&#45;&gt;cmd_spec_diagnose -->
<g id="edge8" class="edge">
<title>skill_co_utility&#45;&gt;cmd_spec_diagnose</title>
<path fill="none" stroke="black" d="M86.59,-352.25C107.47,-344.46 133.85,-334.6 156.42,-326.18"/>
<polygon fill="black" stroke="black" points="157.69,-329.44 165.83,-322.66 155.24,-322.88 157.69,-329.44"/>
</g>
<!-- cmd_worktree_list&#45;&gt;cmd_worktree_delete -->
<!-- cmd_change_propose&#45;&gt;cmd_change_apply -->
<!-- cmd_change_apply&#45;&gt;cmd_change_archive -->
<!-- cmd_change_apply&#45;&gt;cmd_check -->
<!-- cmd_change_archive&#45;&gt;cmd_worktree_list -->
<!-- cmd_check&#45;&gt;cmd_e2e_plan -->
<!-- cmd_check&#45;&gt;cmd_spec_diagnose -->
<!-- cmd_twl_validate&#45;&gt;cmd_check -->
<!-- cmd_services&#45;&gt;cmd_ui_capture -->
<!-- cmd_ui_capture&#45;&gt;cmd_e2e_plan -->
<!-- cmd_e2e_plan&#45;&gt;cmd_schema_update -->
<!-- cmd_worktree_delete&#45;&gt;cmd_twl_validate -->
<!-- script_worktree_delete -->
<g id="node15" class="node">
<title>script_worktree_delete</title>
<polygon fill="#ff9800" stroke="black" points="449.89,-482 416.12,-506.49 348.58,-506.49 314.81,-482 348.58,-457.51 416.12,-457.51 449.89,-482"/>
<text text-anchor="middle" x="382.35" y="-485" font-family="Helvetica,sans-Serif" font-size="10.00">worktree&#45;delete</text>
<text text-anchor="middle" x="382.35" y="-474" font-family="Helvetica,sans-Serif" font-size="10.00">(956 tok)</text>
</g>
<!-- cmd_worktree_delete&#45;&gt;script_worktree_delete -->
<g id="edge14" class="edge">
<title>cmd_worktree_delete&#45;&gt;script_worktree_delete</title>
<path fill="none" stroke="black" d="M247.94,-482C264.82,-482 284.96,-482 304.41,-482"/>
<polygon fill="black" stroke="black" points="304.5,-485.5 314.5,-482 304.5,-478.5 304.5,-485.5"/>
</g>
<!-- cmd_schema_update&#45;&gt;cmd_self_improve_review -->
<!-- cmd_spec_diagnose&#45;&gt;cmd_services -->
</g>
</svg>
