<?xml version="1.0" encoding="UTF-8" standalone="no"?>
<!DOCTYPE svg PUBLIC "-//W3C//DTD SVG 1.1//EN"
 "http://www.w3.org/Graphics/SVG/1.1/DTD/svg11.dtd">
<!-- Generated by graphviz version 2.43.0 (0)
 -->
<!-- Title: Dependencies Pages: 1 -->
<svg width="638pt" height="738pt"
 viewBox="0.00 0.00 638.32 737.99" xmlns="http://www.w3.org/2000/svg" xmlns:xlink="http://www.w3.org/1999/xlink">
<g id="graph0" class="graph" transform="scale(1 1) rotate(0) translate(4 733.99)">
<title>Dependencies</title>
<polygon fill="white" stroke="transparent" points="-4,4 -4,-733.99 634.32,-733.99 634.32,4 -4,4"/>
<text text-anchor="middle" x="315.16" y="-714.79" font-family="Helvetica,sans-Serif" font-size="14.00">workflow&#45;setup</text>
<!-- skill_workflow_setup -->
<g id="node1" class="node">
<title>skill_workflow_setup</title>
<ellipse fill="#e8f5e9" stroke="black" cx="77.78" cy="-182.49" rx="77.56" ry="21.43"/>
<text text-anchor="middle" x="77.78" y="-185.49" font-family="Helvetica,sans-Serif" font-size="10.00">twl:workflow&#45;setup</text>
<text text-anchor="middle" x="77.78" y="-174.49" font-family="Helvetica,sans-Serif" font-size="10.00">(1,780 tok)</text>
</g>
<!-- cmd_init -->
<g id="node2" class="node">
<title>cmd_init</title>
<polygon fill="#e3f2fd" stroke="black" points="320.56,-403.49 259.56,-403.49 259.56,-367.49 320.56,-367.49 320.56,-403.49"/>
<text text-anchor="middle" x="290.06" y="-388.49" font-family="Helvetica,sans-Serif" font-size="10.00">init</text>
<text text-anchor="middle" x="290.06" y="-377.49" font-family="Helvetica,sans-Serif" font-size="10.00">(640 tok)</text>
</g>
<!-- skill_workflow_setup&#45;&gt;cmd_init -->
<g id="edge1" class="edge">
<title>skill_workflow_setup&#45;&gt;cmd_init</title>
<path fill="none" stroke="black" d="M90.06,-203.73C110.25,-239.89 155.91,-313.64 213.56,-356.49 224.23,-364.43 237.34,-370.46 249.62,-374.91"/>
<polygon fill="black" stroke="black" points="248.63,-378.27 259.23,-378.15 250.87,-371.64 248.63,-378.27"/>
</g>
<!-- cmd_worktree_create -->
<g id="node3" class="node">
<title>cmd_worktree_create</title>
<polygon fill="#e3f2fd" stroke="black" points="337.56,-345.49 242.56,-345.49 242.56,-309.49 337.56,-309.49 337.56,-345.49"/>
<text text-anchor="middle" x="290.06" y="-330.49" font-family="Helvetica,sans-Serif" font-size="10.00">worktree&#45;create</text>
<text text-anchor="middle" x="290.06" y="-319.49" font-family="Helvetica,sans-Serif" font-size="10.00">(464 tok)</text>
</g>
<!-- skill_workflow_setup&#45;&gt;cmd_worktree_create -->
<g id="edge2" class="edge">
<title>skill_workflow_setup&#45;&gt;cmd_worktree_create</title>
<path fill="none" stroke="black" d="M98.5,-203.41C123.33,-228.75 168.25,-271.41 213.56,-298.49 219.7,-302.16 226.37,-305.51 233.13,-308.53"/>
<polygon fill="black" stroke="black" points="231.79,-311.77 242.37,-312.45 234.52,-305.32 231.79,-311.77"/>
</g>
<!-- cmd_project_board_status_update -->
<g id="node4" class="node">
<title>cmd_project_board_status_update</title>
<polygon fill="#e3f2fd" stroke="black" points="366.56,-287.49 213.56,-287.49 213.56,-251.49 366.56,-251.49 366.56,-287.49"/>
<text text-anchor="middle" x="290.06" y="-272.49" font-family="Helvetica,sans-Serif" font-size="10.00">project&#45;board&#45;status&#45;update</text>
<text text-anchor="middle" x="290.06" y="-261.49" font-family="Helvetica,sans-Serif" font-size="10.00">(1,221 tok)</text>
</g>
<!-- skill_workflow_setup&#45;&gt;cmd_project_board_status_update -->
<g id="edge3" class="edge">
<title>skill_workflow_setup&#45;&gt;cmd_project_board_status_update</title>
<path fill="none" stroke="black" d="M119.6,-200.56C146.24,-212.22 181.83,-227.58 213.56,-240.49 219.37,-242.86 225.44,-245.28 231.52,-247.66"/>
<polygon fill="black" stroke="black" points="230.43,-251 241.02,-251.37 232.98,-244.48 230.43,-251"/>
</g>
<!-- cmd_crg_auto_build -->
<g id="node5" class="node">
<title>cmd_crg_auto_build</title>
<polygon fill="#e3f2fd" stroke="black" points="332.56,-229.49 247.56,-229.49 247.56,-193.49 332.56,-193.49 332.56,-229.49"/>
<text text-anchor="middle" x="290.06" y="-214.49" font-family="Helvetica,sans-Serif" font-size="10.00">crg&#45;auto&#45;build</text>
<text text-anchor="middle" x="290.06" y="-203.49" font-family="Helvetica,sans-Serif" font-size="10.00">(537 tok)</text>
</g>
<!-- skill_workflow_setup&#45;&gt;cmd_crg_auto_build -->
<g id="edge4" class="edge">
<title>skill_workflow_setup&#45;&gt;cmd_crg_auto_build</title>
<path fill="none" stroke="black" d="M147.64,-191.99C176.84,-196.02 210.31,-200.63 237.35,-204.36"/>
<polygon fill="black" stroke="black" points="237,-207.85 247.38,-205.75 237.95,-200.91 237,-207.85"/>
</g>
<!-- cmd_change_propose -->
<g id="node6" class="node">
<title>cmd_change_propose</title>
<polygon fill="#e3f2fd" stroke="black" points="337.56,-171.49 242.56,-171.49 242.56,-135.49 337.56,-135.49 337.56,-171.49"/>
<text text-anchor="middle" x="290.06" y="-156.49" font-family="Helvetica,sans-Serif" font-size="10.00">change&#45;propose</text>
<text text-anchor="middle" x="290.06" y="-145.49" font-family="Helvetica,sans-Serif" font-size="10.00">(2,189 tok)</text>
</g>
<!-- skill_workflow_setup&#45;&gt;cmd_change_propose -->
<g id="edge5" class="edge">
<title>skill_workflow_setup&#45;&gt;cmd_change_propose</title>
<path fill="none" stroke="black" d="M147.64,-173C175.02,-169.22 206.15,-164.93 232.22,-161.33"/>
<polygon fill="black" stroke="black" points="232.89,-164.78 242.32,-159.94 231.93,-157.84 232.89,-164.78"/>
</g>
<!-- cmd_ac_extract -->
<g id="node7" class="node">
<title>cmd_ac_extract</title>
<polygon fill="#e3f2fd" stroke="black" points="323.06,-113.49 257.06,-113.49 257.06,-77.49 323.06,-77.49 323.06,-113.49"/>
<text text-anchor="middle" x="290.06" y="-98.49" font-family="Helvetica,sans-Serif" font-size="10.00">ac&#45;extract</text>
<text text-anchor="middle" x="290.06" y="-87.49" font-family="Helvetica,sans-Serif" font-size="10.00">(384 tok)</text>
</g>
<!-- skill_workflow_setup&#45;&gt;cmd_ac_extract -->
<g id="edge6" class="edge">
<title>skill_workflow_setup&#45;&gt;cmd_ac_extract</title>
<path fill="none" stroke="black" d="M119.6,-164.43C146.24,-152.77 181.83,-137.41 213.56,-124.49 224.53,-120.03 236.46,-115.36 247.53,-111.11"/>
<polygon fill="black" stroke="black" points="248.9,-114.33 256.99,-107.49 246.4,-107.79 248.9,-114.33"/>
</g>
<!-- script_chain_runner -->
<g id="node10" class="node">
<title>script_chain_runner</title>
<polygon fill="#ff9800" stroke="black" points="591.32,-95.49 559.38,-119.98 495.51,-119.98 463.57,-95.49 495.51,-71.01 559.38,-71.01 591.32,-95.49"/>
<text text-anchor="middle" x="527.44" y="-98.49" font-family="Helvetica,sans-Serif" font-size="10.00">chain&#45;runner</text>
<text text-anchor="middle" x="527.44" y="-87.49" font-family="Helvetica,sans-Serif" font-size="10.00">(10,458 tok)</text>
</g>
<!-- skill_workflow_setup&#45;&gt;script_chain_runner -->
<g id="edge7" class="edge">
<title>skill_workflow_setup&#45;&gt;script_chain_runner</title>
<path fill="none" stroke="black" d="M94.73,-161.6C117.51,-133.68 162.33,-85.51 213.56,-66.49 300.58,-34.2 410.14,-57.65 473.84,-77"/>
<polygon fill="black" stroke="black" points="473.07,-80.43 483.66,-80.06 475.15,-73.75 473.07,-80.43"/>
</g>
<!-- script_compaction_resume -->
<g id="node15" class="node">
<title>script_compaction_resume</title>
<polygon fill="#ff9800" stroke="black" points="620.6,-24.49 574.02,-48.98 480.86,-48.98 434.28,-24.49 480.86,-0.01 574.02,-0.01 620.6,-24.49"/>
<text text-anchor="middle" x="527.44" y="-27.49" font-family="Helvetica,sans-Serif" font-size="10.00">compaction&#45;resume</text>
<text text-anchor="middle" x="527.44" y="-16.49" font-family="Helvetica,sans-Serif" font-size="10.00">(1,031 tok)</text>
</g>
<!-- skill_workflow_setup&#45;&gt;script_compaction_resume -->
<g id="edge8" class="edge">
<title>skill_workflow_setup&#45;&gt;script_compaction_resume</title>
<path fill="none" stroke="black" d="M92.05,-161.38C113.29,-129.71 158.22,-70.89 213.56,-45.49 285.42,-12.51 376.44,-10.2 441.76,-14.36"/>
<polygon fill="black" stroke="black" points="441.8,-17.87 452.02,-15.08 442.29,-10.89 441.8,-17.87"/>
</g>
<!-- cmd_init&#45;&gt;cmd_worktree_create -->
<!-- cmd_worktree_create&#45;&gt;cmd_project_board_status_update -->
<!-- script_worktree_create -->
<g id="node12" class="node">
<title>script_worktree_create</title>
<polygon fill="#ff9800" stroke="black" points="605.08,-327.49 566.26,-351.98 488.62,-351.98 449.81,-327.49 488.62,-303.01 566.26,-303.01 605.08,-327.49"/>
<text text-anchor="middle" x="527.44" y="-330.49" font-family="Helvetica,sans-Serif" font-size="10.00">worktree&#45;create</text>
<text text-anchor="middle" x="527.44" y="-319.49" font-family="Helvetica,sans-Serif" font-size="10.00">(6,686 tok)</text>
</g>
<!-- cmd_worktree_create&#45;&gt;script_worktree_create -->
<g id="edge9" class="edge">
<title>cmd_worktree_create&#45;&gt;script_worktree_create</title>
<path fill="none" stroke="black" d="M337.57,-327.49C366.59,-327.49 404.86,-327.49 439.36,-327.49"/>
<polygon fill="black" stroke="black" points="439.46,-330.99 449.46,-327.49 439.46,-323.99 439.46,-330.99"/>
</g>
<!-- cmd_project_board_status_update&#45;&gt;cmd_crg_auto_build -->
<!-- cmd_crg_auto_build&#45;&gt;cmd_change_propose -->
<!-- cmd_change_propose&#45;&gt;cmd_ac_extract -->
<!-- cmd_ac_extract&#45;&gt;script_chain_runner -->
<!-- script_autopilot_github -->
<g id="node13" class="node">
<title>script_autopilot_github</title>
<polygon fill="#ff9800" stroke="black" points="605.08,-166.49 566.26,-190.98 488.62,-190.98 449.81,-166.49 488.62,-142.01 566.26,-142.01 605.08,-166.49"/>
<text text-anchor="middle" x="527.44" y="-169.49" font-family="Helvetica,sans-Serif" font-size="10.00">autopilot&#45;github</text>
<text text-anchor="middle" x="527.44" y="-158.49" font-family="Helvetica,sans-Serif" font-size="10.00">(3,666 tok)</text>
</g>
<!-- cmd_ac_extract&#45;&gt;script_autopilot_github -->
<g id="edge10" class="edge">
<title>cmd_ac_extract&#45;&gt;script_autopilot_github</title>
<path fill="none" stroke="black" d="M323.3,-105.22C359.54,-116.15 419.25,-134.16 464.58,-147.83"/>
<polygon fill="black" stroke="black" points="463.73,-151.23 474.31,-150.77 465.75,-144.53 463.73,-151.23"/>
</g>
<!-- script_state_read -->
<g id="node8" class="node">
<title>script_state_read</title>
<polygon fill="#ff9800" stroke="black" points="584.75,-469.49 556.1,-493.98 498.79,-493.98 470.13,-469.49 498.79,-445.01 556.1,-445.01 584.75,-469.49"/>
<text text-anchor="middle" x="527.44" y="-472.49" font-family="Helvetica,sans-Serif" font-size="10.00">state&#45;read</text>
<text text-anchor="middle" x="527.44" y="-461.49" font-family="Helvetica,sans-Serif" font-size="10.00">(5,746 tok)</text>
</g>
<!-- script_state_write -->
<g id="node9" class="node">
<title>script_state_write</title>
<polygon fill="#ff9800" stroke="black" points="584.75,-398.49 556.1,-422.98 498.79,-422.98 470.13,-398.49 498.79,-374.01 556.1,-374.01 584.75,-398.49"/>
<text text-anchor="middle" x="527.44" y="-401.49" font-family="Helvetica,sans-Serif" font-size="10.00">state&#45;write</text>
<text text-anchor="middle" x="527.44" y="-390.49" font-family="Helvetica,sans-Serif" font-size="10.00">(5,746 tok)</text>
</g>
<!-- script_state_read&#45;&gt;script_state_write -->
<!-- script_state_read&#45;&gt;script_state_write -->
<!-- script_state_read&#45;&gt;script_state_write -->
<!-- script_state_read&#45;&gt;script_state_write -->
<!-- script_chain_runner&#45;&gt;script_compaction_resume -->
<!-- script_chain_runner&#45;&gt;script_compaction_resume -->
<!-- script_chain_runner&#45;&gt;script_compaction_resume -->
<!-- script_chain_runner&#45;&gt;script_compaction_resume -->
<!-- script_worker_terminal_guard -->
<g id="node11" class="node">
<title>script_worker_terminal_guard</title>
<polygon fill="#ff9800" stroke="black" points="630.2,-540.49 578.82,-564.98 476.06,-564.98 424.68,-540.49 476.06,-516.01 578.82,-516.01 630.2,-540.49"/>
<text text-anchor="middle" x="527.44" y="-543.49" font-family="Helvetica,sans-Serif" font-size="10.00">worker&#45;terminal&#45;guard</text>
<text text-anchor="middle" x="527.44" y="-532.49" font-family="Helvetica,sans-Serif" font-size="10.00">(770 tok)</text>
</g>
<!-- script_chain_steps -->
<g id="node14" class="node">
<title>script_chain_steps</title>
<polygon fill="#ff9800" stroke="black" points="589.55,-611.49 558.5,-635.98 496.39,-635.98 465.33,-611.49 496.39,-587.01 558.5,-587.01 589.55,-611.49"/>
<text text-anchor="middle" x="527.44" y="-614.49" font-family="Helvetica,sans-Serif" font-size="10.00">chain&#45;steps</text>
<text text-anchor="middle" x="527.44" y="-603.49" font-family="Helvetica,sans-Serif" font-size="10.00">(10,458 tok)</text>
</g>
<!-- script_resolve_issue_num -->
<g id="node16" class="node">
<title>script_resolve_issue_num</title>
<polygon fill="#ff9800" stroke="black" points="614.67,-682.49 571.06,-706.98 483.83,-706.98 440.21,-682.49 483.83,-658.01 571.06,-658.01 614.67,-682.49"/>
<text text-anchor="middle" x="527.44" y="-685.49" font-family="Helvetica,sans-Serif" font-size="10.00">resolve&#45;issue&#45;num</text>
<text text-anchor="middle" x="527.44" y="-674.49" font-family="Helvetica,sans-Serif" font-size="10.00">(716 tok)</text>
</g>
</g>
</svg>
