<?xml version="1.0" encoding="UTF-8" standalone="no"?>
<!DOCTYPE svg PUBLIC "-//W3C//DTD SVG 1.1//EN"
 "http://www.w3.org/Graphics/SVG/1.1/DTD/svg11.dtd">
<!-- Generated by graphviz version 2.43.0 (0)
 -->
<!-- Title: Dependencies Pages: 1 -->
<svg width="1634pt" height="731pt"
 viewBox="0.00 0.00 1633.92 730.74" xmlns="http://www.w3.org/2000/svg" xmlns:xlink="http://www.w3.org/1999/xlink">
<g id="graph0" class="graph" transform="scale(1 1) rotate(0) translate(4 726.74)">
<title>Dependencies</title>
<polygon fill="white" stroke="transparent" points="-4,4 -4,-726.74 1629.92,-726.74 1629.92,4 -4,4"/>
<text text-anchor="middle" x="812.96" y="-707.54" font-family="Helvetica,sans-Serif" font-size="14.00">co&#45;self&#45;improve</text>
<!-- skill_co_self_improve -->
<g id="node1" class="node">
<title>skill_co_self_improve</title>
<ellipse fill="#c8e6c9" stroke="black" cx="78.49" cy="-288.25" rx="78.48" ry="21.43"/>
<text text-anchor="middle" x="78.49" y="-291.25" font-family="Helvetica,sans-Serif" font-size="10.00">twl:co&#45;self&#45;improve</text>
<text text-anchor="middle" x="78.49" y="-280.25" font-family="Helvetica,sans-Serif" font-size="10.00">(2,239 tok)</text>
</g>
<!-- skill_workflow_observe_loop -->
<g id="node2" class="node">
<title>skill_workflow_observe_loop</title>
<ellipse fill="#e8f5e9" stroke="black" cx="318.22" cy="-550.25" rx="103.48" ry="21.43"/>
<text text-anchor="middle" x="318.22" y="-553.25" font-family="Helvetica,sans-Serif" font-size="10.00">twl:workflow&#45;observe&#45;loop</text>
<text text-anchor="middle" x="318.22" y="-542.25" font-family="Helvetica,sans-Serif" font-size="10.00">(1,964 tok)</text>
</g>
<!-- skill_co_self_improve&#45;&gt;skill_workflow_observe_loop -->
<g id="edge1" class="edge">
<title>skill_co_self_improve&#45;&gt;skill_workflow_observe_loop</title>
<path fill="none" stroke="black" d="M86.77,-309.36C102.95,-353.29 146,-455.17 214.98,-512.25 223.41,-519.23 233.25,-524.99 243.42,-529.74"/>
<polygon fill="black" stroke="black" points="242.27,-533.05 252.84,-533.81 245.05,-526.63 242.27,-533.05"/>
</g>
<!-- cmd_observe_once -->
<g id="node3" class="node">
<title>cmd_observe_once</title>
<polygon fill="#e3f2fd" stroke="black" points="599.45,-394.25 516.45,-394.25 516.45,-358.25 599.45,-358.25 599.45,-394.25"/>
<text text-anchor="middle" x="557.95" y="-379.25" font-family="Helvetica,sans-Serif" font-size="10.00">observe&#45;once</text>
<text text-anchor="middle" x="557.95" y="-368.25" font-family="Helvetica,sans-Serif" font-size="10.00">(727 tok)</text>
</g>
<!-- skill_co_self_improve&#45;&gt;cmd_observe_once -->
<g id="edge5" class="edge">
<title>skill_co_self_improve&#45;&gt;cmd_observe_once</title>
<path fill="none" stroke="black" d="M128.59,-304.65C154.12,-312.69 185.97,-321.97 214.98,-328.25 317.18,-350.38 438.86,-364.64 506.04,-371.48"/>
<polygon fill="black" stroke="black" points="506.04,-374.99 516.34,-372.51 506.74,-368.03 506.04,-374.99"/>
</g>
<!-- cmd_problem_detect -->
<g id="node4" class="node">
<title>cmd_problem_detect</title>
<polygon fill="#e3f2fd" stroke="black" points="603.95,-128.25 511.95,-128.25 511.95,-92.25 603.95,-92.25 603.95,-128.25"/>
<text text-anchor="middle" x="557.95" y="-113.25" font-family="Helvetica,sans-Serif" font-size="10.00">problem&#45;detect</text>
<text text-anchor="middle" x="557.95" y="-102.25" font-family="Helvetica,sans-Serif" font-size="10.00">(762 tok)</text>
</g>
<!-- skill_co_self_improve&#45;&gt;cmd_problem_detect -->
<g id="edge6" class="edge">
<title>skill_co_self_improve&#45;&gt;cmd_problem_detect</title>
<path fill="none" stroke="black" d="M92.21,-267.27C113.22,-234.75 158.51,-173.03 214.98,-145.25 307.75,-99.61 431.55,-99.71 501.92,-104.55"/>
<polygon fill="black" stroke="black" points="501.67,-108.04 511.9,-105.29 502.19,-101.06 501.67,-108.04"/>
</g>
<!-- cmd_issue_draft_from_observation -->
<g id="node5" class="node">
<title>cmd_issue_draft_from_observation</title>
<polygon fill="#e3f2fd" stroke="black" points="636.45,-290.25 479.45,-290.25 479.45,-254.25 636.45,-254.25 636.45,-290.25"/>
<text text-anchor="middle" x="557.95" y="-275.25" font-family="Helvetica,sans-Serif" font-size="10.00">issue&#45;draft&#45;from&#45;observation</text>
<text text-anchor="middle" x="557.95" y="-264.25" font-family="Helvetica,sans-Serif" font-size="10.00">(589 tok)</text>
</g>
<!-- skill_co_self_improve&#45;&gt;cmd_issue_draft_from_observation -->
<g id="edge7" class="edge">
<title>skill_co_self_improve&#45;&gt;cmd_issue_draft_from_observation</title>
<path fill="none" stroke="black" d="M156.47,-285.67C241.93,-282.81 379.61,-278.19 469.2,-275.19"/>
<polygon fill="black" stroke="black" points="469.46,-278.68 479.33,-274.85 469.22,-271.69 469.46,-278.68"/>
</g>
<!-- cmd_observe_retrospective -->
<g id="node7" class="node">
<title>cmd_observe_retrospective</title>
<polygon fill="#e3f2fd" stroke="black" points="619.95,-232.25 495.95,-232.25 495.95,-196.25 619.95,-196.25 619.95,-232.25"/>
<text text-anchor="middle" x="557.95" y="-217.25" font-family="Helvetica,sans-Serif" font-size="10.00">observe&#45;retrospective</text>
<text text-anchor="middle" x="557.95" y="-206.25" font-family="Helvetica,sans-Serif" font-size="10.00">(519 tok)</text>
</g>
<!-- skill_co_self_improve&#45;&gt;cmd_observe_retrospective -->
<g id="edge8" class="edge">
<title>skill_co_self_improve&#45;&gt;cmd_observe_retrospective</title>
<path fill="none" stroke="black" d="M146.89,-277.8C236.58,-263.9 394.47,-239.43 485.95,-225.25"/>
<polygon fill="black" stroke="black" points="486.6,-228.7 495.95,-223.7 485.53,-221.78 486.6,-228.7"/>
</g>
<!-- cmd_test_project_init -->
<g id="node8" class="node">
<title>cmd_test_project_init</title>
<polygon fill="#e3f2fd" stroke="black" points="603.95,-568.25 511.95,-568.25 511.95,-532.25 603.95,-532.25 603.95,-568.25"/>
<text text-anchor="middle" x="557.95" y="-553.25" font-family="Helvetica,sans-Serif" font-size="10.00">test&#45;project&#45;init</text>
<text text-anchor="middle" x="557.95" y="-542.25" font-family="Helvetica,sans-Serif" font-size="10.00">(2,292 tok)</text>
</g>
<!-- skill_co_self_improve&#45;&gt;cmd_test_project_init -->
<g id="edge2" class="edge">
<title>skill_co_self_improve&#45;&gt;cmd_test_project_init</title>
<path fill="none" stroke="black" d="M90.87,-309.34C111.07,-344.75 156.63,-416.03 214.98,-454.25 239.18,-470.11 411.76,-514.33 502.1,-536.79"/>
<polygon fill="black" stroke="black" points="501.36,-540.21 511.9,-539.22 503.04,-533.41 501.36,-540.21"/>
</g>
<!-- cmd_test_project_reset -->
<g id="node9" class="node">
<title>cmd_test_project_reset</title>
<polygon fill="#e3f2fd" stroke="black" points="608.45,-510.25 507.45,-510.25 507.45,-474.25 608.45,-474.25 608.45,-510.25"/>
<text text-anchor="middle" x="557.95" y="-495.25" font-family="Helvetica,sans-Serif" font-size="10.00">test&#45;project&#45;reset</text>
<text text-anchor="middle" x="557.95" y="-484.25" font-family="Helvetica,sans-Serif" font-size="10.00">(2,067 tok)</text>
</g>
<!-- skill_co_self_improve&#45;&gt;cmd_test_project_reset -->
<g id="edge3" class="edge">
<title>skill_co_self_improve&#45;&gt;cmd_test_project_reset</title>
<path fill="none" stroke="black" d="M98,-309.12C122.29,-335.24 167.46,-379.51 214.98,-404.25 306.97,-452.14 426.73,-475.17 497.38,-485.28"/>
<polygon fill="black" stroke="black" points="497.05,-488.76 507.43,-486.67 498.01,-481.83 497.05,-488.76"/>
</g>
<!-- cmd_test_project_scenario_load -->
<g id="node10" class="node">
<title>cmd_test_project_scenario_load</title>
<polygon fill="#e3f2fd" stroke="black" points="629.45,-452.25 486.45,-452.25 486.45,-416.25 629.45,-416.25 629.45,-452.25"/>
<text text-anchor="middle" x="557.95" y="-437.25" font-family="Helvetica,sans-Serif" font-size="10.00">test&#45;project&#45;scenario&#45;load</text>
<text text-anchor="middle" x="557.95" y="-426.25" font-family="Helvetica,sans-Serif" font-size="10.00">(1,885 tok)</text>
</g>
<!-- skill_co_self_improve&#45;&gt;cmd_test_project_scenario_load -->
<g id="edge4" class="edge">
<title>skill_co_self_improve&#45;&gt;cmd_test_project_scenario_load</title>
<path fill="none" stroke="black" d="M109.79,-307.83C136.51,-324.28 176.98,-347.28 214.98,-361.25 301.47,-393.04 405.61,-412.8 476.08,-423.61"/>
<polygon fill="black" stroke="black" points="475.81,-427.11 486.22,-425.14 476.86,-420.19 475.81,-427.11"/>
</g>
<!-- agent_observer_evaluator -->
<g id="node11" class="node">
<title>agent_observer_evaluator</title>
<ellipse fill="#ede7f6" stroke="black" cx="796.51" cy="-159.25" rx="77.56" ry="21.43"/>
<text text-anchor="middle" x="796.51" y="-162.25" font-family="Helvetica,sans-Serif" font-size="10.00">observer&#45;evaluator</text>
<text text-anchor="middle" x="796.51" y="-151.25" font-family="Helvetica,sans-Serif" font-size="10.00">(1,469 tok)</text>
</g>
<!-- skill_co_self_improve&#45;&gt;agent_observer_evaluator -->
<g id="edge9" class="edge">
<title>skill_co_self_improve&#45;&gt;agent_observer_evaluator</title>
<path fill="none" stroke="black" stroke-dasharray="5,2" d="M116.57,-269.55C143.32,-256.77 180.62,-240.37 214.98,-230.25 385.16,-180.11 593.47,-165.34 708.59,-161.01"/>
<polygon fill="black" stroke="black" points="708.88,-164.51 718.75,-160.65 708.63,-157.51 708.88,-164.51"/>
</g>
<!-- skill_test_scenario_catalog -->
<g id="node14" class="node">
<title>skill_test_scenario_catalog</title>
<ellipse fill="none" stroke="black" cx="1044.29" cy="-156.25" rx="87.92" ry="18"/>
<text text-anchor="middle" x="1044.29" y="-153.75" font-family="Helvetica,sans-Serif" font-size="10.00">skill_test_scenario_catalog</text>
</g>
<!-- skill_co_self_improve&#45;&gt;skill_test_scenario_catalog -->
<g id="edge10" class="edge">
<title>skill_co_self_improve&#45;&gt;skill_test_scenario_catalog</title>
<path fill="none" stroke="black" d="M87.4,-266.94C103.9,-225.87 146.3,-136.47 214.98,-98.25 347.73,-24.38 750.69,-55.45 898.58,-90.25 937.02,-99.3 977.68,-118.83 1006.07,-134.32"/>
<polygon fill="black" stroke="black" points="1004.4,-137.39 1014.84,-139.18 1007.8,-131.27 1004.4,-137.39"/>
</g>
<!-- skill_observation_pattern_catalog -->
<g id="node15" class="node">
<title>skill_observation_pattern_catalog</title>
<ellipse fill="none" stroke="black" cx="1297.14" cy="-156.25" rx="107.27" ry="18"/>
<text text-anchor="middle" x="1297.14" y="-153.75" font-family="Helvetica,sans-Serif" font-size="10.00">skill_observation_pattern_catalog</text>
</g>
<!-- skill_co_self_improve&#45;&gt;skill_observation_pattern_catalog -->
<g id="edge11" class="edge">
<title>skill_co_self_improve&#45;&gt;skill_observation_pattern_catalog</title>
<path fill="none" stroke="black" d="M155.43,-292.56C174.84,-293.56 195.68,-294.53 214.98,-295.25 332.47,-299.62 361.89,-299.92 479.45,-301.25 549.23,-302.04 568.54,-317.28 636.45,-301.25 664.5,-294.63 666.95,-280.86 694.45,-272.25 881.95,-213.57 940.6,-253.59 1132,-209.25 1169.54,-200.55 1210.81,-187.21 1242.58,-176.08"/>
<polygon fill="black" stroke="black" points="1243.86,-179.34 1252.12,-172.71 1241.53,-172.74 1243.86,-179.34"/>
</g>
<!-- skill_load_test_baselines -->
<g id="node16" class="node">
<title>skill_load_test_baselines</title>
<ellipse fill="none" stroke="black" cx="1544.1" cy="-156.25" rx="81.65" ry="18"/>
<text text-anchor="middle" x="1544.1" y="-153.75" font-family="Helvetica,sans-Serif" font-size="10.00">skill_load_test_baselines</text>
</g>
<!-- skill_co_self_improve&#45;&gt;skill_load_test_baselines -->
<g id="edge12" class="edge">
<title>skill_co_self_improve&#45;&gt;skill_load_test_baselines</title>
<path fill="none" stroke="black" d="M84.64,-267.03C97.46,-219.29 135.62,-103.53 214.98,-51.25 342.72,32.9 403.98,-12.25 556.95,-12.25 556.95,-12.25 556.95,-12.25 1045.29,-12.25 1220.28,-12.25 1416.73,-95.38 1501.01,-135.31"/>
<polygon fill="black" stroke="black" points="1499.72,-138.57 1510.25,-139.73 1502.74,-132.26 1499.72,-138.57"/>
</g>
<!-- cmd_observe_and_detect -->
<g id="node6" class="node">
<title>cmd_observe_and_detect</title>
<polygon fill="#bbdefb" stroke="black" points="613.95,-626.25 501.95,-626.25 501.95,-590.25 613.95,-590.25 613.95,-626.25"/>
<text text-anchor="middle" x="557.95" y="-611.25" font-family="Helvetica,sans-Serif" font-size="10.00">observe&#45;and&#45;detect</text>
<text text-anchor="middle" x="557.95" y="-600.25" font-family="Helvetica,sans-Serif" font-size="10.00">(464 tok)</text>
</g>
<!-- skill_workflow_observe_loop&#45;&gt;cmd_observe_and_detect -->
<g id="edge13" class="edge">
<title>skill_workflow_observe_loop&#45;&gt;cmd_observe_and_detect</title>
<path fill="none" stroke="black" d="M385.44,-566.41C418.68,-574.52 458.81,-584.31 491.89,-592.38"/>
<polygon fill="black" stroke="black" points="491.37,-595.85 501.92,-594.82 493.03,-589.05 491.37,-595.85"/>
</g>
<!-- skill_workflow_observe_loop&#45;&gt;cmd_observe_retrospective -->
<g id="edge14" class="edge">
<title>skill_workflow_observe_loop&#45;&gt;cmd_observe_retrospective</title>
<path fill="none" stroke="black" d="M324.66,-528.68C339.68,-473.36 386.89,-325.08 479.45,-243.25 481.8,-241.18 484.31,-239.25 486.93,-237.45"/>
<polygon fill="black" stroke="black" points="488.93,-240.33 495.67,-232.15 485.3,-234.34 488.93,-240.33"/>
</g>
<!-- skill_workflow_observe_loop&#45;&gt;cmd_test_project_init -->
<!-- script_observe_wrapper -->
<g id="node12" class="node">
<title>script_observe_wrapper</title>
<polygon fill="#ff9800" stroke="black" points="877.18,-378.25 836.85,-402.74 756.18,-402.74 715.85,-378.25 756.18,-353.76 836.85,-353.76 877.18,-378.25"/>
<text text-anchor="middle" x="796.51" y="-381.25" font-family="Helvetica,sans-Serif" font-size="10.00">observe&#45;wrapper</text>
<text text-anchor="middle" x="796.51" y="-370.25" font-family="Helvetica,sans-Serif" font-size="10.00">(122 tok)</text>
</g>
<!-- skill_workflow_observe_loop&#45;&gt;script_observe_wrapper -->
<g id="edge15" class="edge">
<title>skill_workflow_observe_loop&#45;&gt;script_observe_wrapper</title>
<path fill="none" stroke="black" d="M336.79,-571.12C363.8,-601.38 418.78,-656.12 479.45,-677.25 545.35,-700.2 576.64,-713.18 636.45,-677.25 733.81,-618.76 774.81,-478.3 789.07,-412.88"/>
<polygon fill="black" stroke="black" points="792.5,-413.55 791.13,-403.04 785.65,-412.11 792.5,-413.55"/>
</g>
<!-- script_session_state_wrapper -->
<g id="node13" class="node">
<title>script_session_state_wrapper</title>
<polygon fill="#ff9800" stroke="black" points="898.64,-307.25 847.58,-331.74 745.45,-331.74 694.39,-307.25 745.45,-282.76 847.58,-282.76 898.64,-307.25"/>
<text text-anchor="middle" x="796.51" y="-310.25" font-family="Helvetica,sans-Serif" font-size="10.00">session&#45;state&#45;wrapper</text>
<text text-anchor="middle" x="796.51" y="-299.25" font-family="Helvetica,sans-Serif" font-size="10.00">(126 tok)</text>
</g>
<!-- skill_workflow_observe_loop&#45;&gt;script_session_state_wrapper -->
<g id="edge16" class="edge">
<title>skill_workflow_observe_loop&#45;&gt;script_session_state_wrapper</title>
<path fill="none" stroke="black" d="M345.01,-571C403.5,-615.41 548,-709.96 636.45,-637.25 739.34,-552.68 607.47,-444.11 694.45,-343.25 700.33,-336.44 707.59,-330.91 715.5,-326.43"/>
<polygon fill="black" stroke="black" points="717.31,-329.44 724.67,-321.81 714.16,-323.19 717.31,-329.44"/>
</g>
<!-- cmd_observe_once&#45;&gt;cmd_problem_detect -->
<!-- cmd_observe_once&#45;&gt;cmd_problem_detect -->
<!-- cmd_observe_once&#45;&gt;script_observe_wrapper -->
<g id="edge17" class="edge">
<title>cmd_observe_once&#45;&gt;script_observe_wrapper</title>
<path fill="none" stroke="black" d="M599.62,-376.59C628.96,-376.84 669.71,-377.19 706.45,-377.5"/>
<polygon fill="black" stroke="black" points="706.67,-381 716.7,-377.58 706.73,-374 706.67,-381"/>
</g>
<!-- cmd_observe_once&#45;&gt;script_session_state_wrapper -->
<g id="edge18" class="edge">
<title>cmd_observe_once&#45;&gt;script_session_state_wrapper</title>
<path fill="none" stroke="black" d="M599.62,-364.39C633.3,-354.56 682.02,-340.35 722.44,-328.56"/>
<polygon fill="black" stroke="black" points="723.64,-331.86 732.26,-325.7 721.68,-325.14 723.64,-331.86"/>
</g>
<!-- cmd_problem_detect&#45;&gt;cmd_issue_draft_from_observation -->
<!-- cmd_problem_detect&#45;&gt;agent_observer_evaluator -->
<!-- cmd_problem_detect&#45;&gt;skill_observation_pattern_catalog -->
<g id="edge19" class="edge">
<title>cmd_problem_detect&#45;&gt;skill_observation_pattern_catalog</title>
<path fill="none" stroke="black" d="M604.17,-102.61C671.57,-93.35 800.91,-83.9 898.58,-127.25 931.9,-142.04 922.9,-171.3 956.58,-185.25 1028.61,-215.09 1054.33,-192.06 1132,-185.25 1161.27,-182.68 1193.14,-177.59 1220.94,-172.38"/>
<polygon fill="black" stroke="black" points="1221.82,-175.78 1230.99,-170.46 1220.51,-168.9 1221.82,-175.78"/>
</g>
<!-- cmd_issue_draft_from_observation&#45;&gt;cmd_observe_retrospective -->
<!-- cmd_observe_and_detect&#45;&gt;cmd_observe_retrospective -->
<!-- cmd_observe_and_detect&#45;&gt;agent_observer_evaluator -->
<g id="edge20" class="edge">
<title>cmd_observe_and_detect&#45;&gt;agent_observer_evaluator</title>
<path fill="none" stroke="black" stroke-dasharray="5,2" d="M613.96,-595.84C622.48,-591.78 630.44,-586.39 636.45,-579.25 725.88,-473.02 633.03,-396.78 694.45,-272.25 711.08,-238.53 740.62,-207.26 763.49,-186.2"/>
<polygon fill="black" stroke="black" points="765.87,-188.76 770.95,-179.46 761.19,-183.56 765.87,-188.76"/>
</g>
<!-- cmd_observe_retrospective&#45;&gt;agent_observer_evaluator -->
<!-- cmd_observe_retrospective&#45;&gt;script_observe_wrapper -->
<!-- cmd_test_project_init&#45;&gt;cmd_test_project_reset -->
<!-- cmd_test_project_reset&#45;&gt;cmd_test_project_scenario_load -->
<!-- cmd_test_project_scenario_load&#45;&gt;cmd_observe_once -->
<!-- agent_observer_evaluator&#45;&gt;skill_test_scenario_catalog -->
<!-- script_observe_wrapper&#45;&gt;script_session_state_wrapper -->
<!-- script_observe_wrapper&#45;&gt;script_session_state_wrapper -->
<!-- skill_test_scenario_catalog&#45;&gt;skill_observation_pattern_catalog -->
<!-- skill_observation_pattern_catalog&#45;&gt;skill_load_test_baselines -->
</g>
</svg>
