<?xml version="1.0" encoding="UTF-8" standalone="no"?>
<!DOCTYPE svg PUBLIC "-//W3C//DTD SVG 1.1//EN"
 "http://www.w3.org/Graphics/SVG/1.1/DTD/svg11.dtd">
<!-- Generated by graphviz version 2.43.0 (0)
 -->
<!-- Title: Dependencies Pages: 1 -->
<svg width="1385pt" height="988pt"
 viewBox="0.00 0.00 1384.94 987.86" xmlns="http://www.w3.org/2000/svg" xmlns:xlink="http://www.w3.org/1999/xlink">
<g id="graph0" class="graph" transform="scale(1 1) rotate(0) translate(4 983.86)">
<title>Dependencies</title>
<polygon fill="white" stroke="transparent" points="-4,4 -4,-983.86 1380.94,-983.86 1380.94,4 -4,4"/>
<text text-anchor="middle" x="688.47" y="-964.66" font-family="Helvetica,sans-Serif" font-size="14.00">co&#45;issue</text>
<!-- skill_co_issue -->
<g id="node1" class="node">
<title>skill_co_issue</title>
<ellipse fill="#c8e6c9" stroke="black" cx="48.79" cy="-524.86" rx="48.58" ry="21.43"/>
<text text-anchor="middle" x="48.79" y="-527.86" font-family="Helvetica,sans-Serif" font-size="10.00">twl:co&#45;issue</text>
<text text-anchor="middle" x="48.79" y="-516.86" font-family="Helvetica,sans-Serif" font-size="10.00">(1,366 tok)</text>
</g>
<!-- cmd_issue_structure -->
<g id="node2" class="node">
<title>cmd_issue_structure</title>
<polygon fill="#e3f2fd" stroke="black" points="255.58,-898.86 174.58,-898.86 174.58,-862.86 255.58,-862.86 255.58,-898.86"/>
<text text-anchor="middle" x="215.08" y="-883.86" font-family="Helvetica,sans-Serif" font-size="10.00">issue&#45;structure</text>
<text text-anchor="middle" x="215.08" y="-872.86" font-family="Helvetica,sans-Serif" font-size="10.00">(1,332 tok)</text>
</g>
<!-- skill_co_issue&#45;&gt;cmd_issue_structure -->
<g id="edge2" class="edge">
<title>skill_co_issue&#45;&gt;cmd_issue_structure</title>
<path fill="none" stroke="black" d="M51.1,-546.34C55.62,-603.01 75.1,-758.55 155.58,-851.86 158.58,-855.33 162.09,-858.43 165.88,-861.19"/>
<polygon fill="black" stroke="black" points="164.2,-864.27 174.52,-866.69 167.96,-858.37 164.2,-864.27"/>
</g>
<!-- cmd_issue_create -->
<g id="node3" class="node">
<title>cmd_issue_create</title>
<polygon fill="#e3f2fd" stroke="black" points="250.08,-782.86 180.08,-782.86 180.08,-746.86 250.08,-746.86 250.08,-782.86"/>
<text text-anchor="middle" x="215.08" y="-767.86" font-family="Helvetica,sans-Serif" font-size="10.00">issue&#45;create</text>
<text text-anchor="middle" x="215.08" y="-756.86" font-family="Helvetica,sans-Serif" font-size="10.00">(985 tok)</text>
</g>
<!-- skill_co_issue&#45;&gt;cmd_issue_create -->
<g id="edge4" class="edge">
<title>skill_co_issue&#45;&gt;cmd_issue_create</title>
<path fill="none" stroke="black" d="M55.49,-546.12C67.54,-587.52 99.24,-679.77 155.58,-735.86 160.06,-740.32 165.37,-744.21 170.93,-747.57"/>
<polygon fill="black" stroke="black" points="169.33,-750.69 179.79,-752.42 172.7,-744.55 169.33,-750.69"/>
</g>
<!-- cmd_issue_bulk_create -->
<g id="node4" class="node">
<title>cmd_issue_bulk_create</title>
<polygon fill="#e3f2fd" stroke="black" points="260.58,-724.86 169.58,-724.86 169.58,-688.86 260.58,-688.86 260.58,-724.86"/>
<text text-anchor="middle" x="215.08" y="-709.86" font-family="Helvetica,sans-Serif" font-size="10.00">issue&#45;bulk&#45;create</text>
<text text-anchor="middle" x="215.08" y="-698.86" font-family="Helvetica,sans-Serif" font-size="10.00">(1,667 tok)</text>
</g>
<!-- skill_co_issue&#45;&gt;cmd_issue_bulk_create -->
<g id="edge5" class="edge">
<title>skill_co_issue&#45;&gt;cmd_issue_bulk_create</title>
<path fill="none" stroke="black" d="M61.06,-545.65C78.34,-576.13 113.79,-633.46 155.58,-671.86 159.94,-675.86 164.82,-679.63 169.86,-683.11"/>
<polygon fill="black" stroke="black" points="168.13,-686.16 178.42,-688.68 171.95,-680.29 168.13,-686.16"/>
</g>
<!-- cmd_issue_tech_debt_absorb -->
<g id="node5" class="node">
<title>cmd_issue_tech_debt_absorb</title>
<polygon fill="#e3f2fd" stroke="black" points="273.08,-840.86 157.08,-840.86 157.08,-804.86 273.08,-804.86 273.08,-840.86"/>
<text text-anchor="middle" x="215.08" y="-825.86" font-family="Helvetica,sans-Serif" font-size="10.00">issue&#45;tech&#45;debt&#45;absorb</text>
<text text-anchor="middle" x="215.08" y="-814.86" font-family="Helvetica,sans-Serif" font-size="10.00">(709 tok)</text>
</g>
<!-- skill_co_issue&#45;&gt;cmd_issue_tech_debt_absorb -->
<g id="edge3" class="edge">
<title>skill_co_issue&#45;&gt;cmd_issue_tech_debt_absorb</title>
<path fill="none" stroke="black" d="M52.84,-546.11C60.92,-595.48 87.2,-719.36 155.58,-793.86 157.14,-795.55 158.82,-797.16 160.59,-798.69"/>
<polygon fill="black" stroke="black" points="158.74,-801.68 168.85,-804.85 162.93,-796.07 158.74,-801.68"/>
</g>
<!-- cmd_issue_spec_review -->
<g id="node6" class="node">
<title>cmd_issue_spec_review</title>
<polygon fill="#bbdefb" stroke="black" points="262.58,-250.86 167.58,-250.86 167.58,-214.86 262.58,-214.86 262.58,-250.86"/>
<text text-anchor="middle" x="215.08" y="-235.86" font-family="Helvetica,sans-Serif" font-size="10.00">issue&#45;spec&#45;review</text>
<text text-anchor="middle" x="215.08" y="-224.86" font-family="Helvetica,sans-Serif" font-size="10.00">(1,069 tok)</text>
</g>
<!-- skill_co_issue&#45;&gt;cmd_issue_spec_review -->
<g id="edge6" class="edge">
<title>skill_co_issue&#45;&gt;cmd_issue_spec_review</title>
<path fill="none" stroke="black" d="M53.79,-503.48C63.6,-456.13 92.76,-340.79 155.58,-267.86 159.02,-263.87 163.03,-260.21 167.3,-256.88"/>
<polygon fill="black" stroke="black" points="169.63,-259.53 175.78,-250.91 165.59,-253.81 169.63,-259.53"/>
</g>
<!-- cmd_issue_review_aggregate -->
<g id="node7" class="node">
<title>cmd_issue_review_aggregate</title>
<polygon fill="#e3f2fd" stroke="black" points="273.58,-620.86 156.58,-620.86 156.58,-584.86 273.58,-584.86 273.58,-620.86"/>
<text text-anchor="middle" x="215.08" y="-605.86" font-family="Helvetica,sans-Serif" font-size="10.00">issue&#45;review&#45;aggregate</text>
<text text-anchor="middle" x="215.08" y="-594.86" font-family="Helvetica,sans-Serif" font-size="10.00">(1,137 tok)</text>
</g>
<!-- skill_co_issue&#45;&gt;cmd_issue_review_aggregate -->
<g id="edge7" class="edge">
<title>skill_co_issue&#45;&gt;cmd_issue_review_aggregate</title>
<path fill="none" stroke="black" d="M82.64,-540.45C106.77,-551.91 139.89,-567.63 166.85,-580.43"/>
<polygon fill="black" stroke="black" points="165.57,-583.7 176.11,-584.83 168.57,-577.38 165.57,-583.7"/>
</g>
<!-- cmd_issue_glossary_check -->
<g id="node8" class="node">
<title>cmd_issue_glossary_check</title>
<polygon fill="#e3f2fd" stroke="black" points="269.58,-192.86 160.58,-192.86 160.58,-156.86 269.58,-156.86 269.58,-192.86"/>
<text text-anchor="middle" x="215.08" y="-177.86" font-family="Helvetica,sans-Serif" font-size="10.00">issue&#45;glossary&#45;check</text>
<text text-anchor="middle" x="215.08" y="-166.86" font-family="Helvetica,sans-Serif" font-size="10.00">(836 tok)</text>
</g>
<!-- skill_co_issue&#45;&gt;cmd_issue_glossary_check -->
<g id="edge8" class="edge">
<title>skill_co_issue&#45;&gt;cmd_issue_glossary_check</title>
<path fill="none" stroke="black" d="M51.26,-503.35C56.14,-447.38 76.38,-295.17 155.58,-203.86 156.92,-202.31 158.36,-200.85 159.87,-199.45"/>
<polygon fill="black" stroke="black" points="162.34,-201.97 168.04,-193.04 158.01,-196.46 162.34,-201.97"/>
</g>
<!-- cmd_issue_arch_drift -->
<g id="node9" class="node">
<title>cmd_issue_arch_drift</title>
<polygon fill="#e3f2fd" stroke="black" points="255.58,-516.86 174.58,-516.86 174.58,-480.86 255.58,-480.86 255.58,-516.86"/>
<text text-anchor="middle" x="215.08" y="-501.86" font-family="Helvetica,sans-Serif" font-size="10.00">issue&#45;arch&#45;drift</text>
<text text-anchor="middle" x="215.08" y="-490.86" font-family="Helvetica,sans-Serif" font-size="10.00">(770 tok)</text>
</g>
<!-- skill_co_issue&#45;&gt;cmd_issue_arch_drift -->
<g id="edge9" class="edge">
<title>skill_co_issue&#45;&gt;cmd_issue_arch_drift</title>
<path fill="none" stroke="black" d="M95.12,-517.68C116.6,-514.28 142.32,-510.21 164.34,-506.73"/>
<polygon fill="black" stroke="black" points="165.16,-510.14 174.49,-505.12 164.06,-503.23 165.16,-510.14"/>
</g>
<!-- cmd_issue_cross_repo_create -->
<g id="node10" class="node">
<title>cmd_issue_cross_repo_create</title>
<polygon fill="#e3f2fd" stroke="black" points="274.58,-458.86 155.58,-458.86 155.58,-422.86 274.58,-422.86 274.58,-458.86"/>
<text text-anchor="middle" x="215.08" y="-443.86" font-family="Helvetica,sans-Serif" font-size="10.00">issue&#45;cross&#45;repo&#45;create</text>
<text text-anchor="middle" x="215.08" y="-432.86" font-family="Helvetica,sans-Serif" font-size="10.00">(1,406 tok)</text>
</g>
<!-- skill_co_issue&#45;&gt;cmd_issue_cross_repo_create -->
<g id="edge10" class="edge">
<title>skill_co_issue&#45;&gt;cmd_issue_cross_repo_create</title>
<path fill="none" stroke="black" d="M80.72,-508.57C101.77,-497.54 130.29,-482.69 155.58,-469.86 159.61,-467.81 163.81,-465.7 168.02,-463.59"/>
<polygon fill="black" stroke="black" points="169.82,-466.6 177.2,-459 166.69,-460.34 169.82,-466.6"/>
</g>
<!-- cmd_project_board_sync -->
<g id="node11" class="node">
<title>cmd_project_board_sync</title>
<polygon fill="#e3f2fd" stroke="black" points="263.58,-400.86 166.58,-400.86 166.58,-364.86 263.58,-364.86 263.58,-400.86"/>
<text text-anchor="middle" x="215.08" y="-385.86" font-family="Helvetica,sans-Serif" font-size="10.00">project&#45;board&#45;sync</text>
<text text-anchor="middle" x="215.08" y="-374.86" font-family="Helvetica,sans-Serif" font-size="10.00">(3,118 tok)</text>
</g>
<!-- skill_co_issue&#45;&gt;cmd_project_board_sync -->
<g id="edge11" class="edge">
<title>skill_co_issue&#45;&gt;cmd_project_board_sync</title>
<path fill="none" stroke="black" d="M65.17,-504.39C84.3,-480 118.92,-439.11 155.58,-411.86 158.35,-409.8 161.28,-407.82 164.31,-405.93"/>
<polygon fill="black" stroke="black" points="166.13,-408.92 173.01,-400.86 162.6,-402.87 166.13,-408.92"/>
</g>
<!-- cmd_explore -->
<g id="node12" class="node">
<title>cmd_explore</title>
<polygon fill="#e3f2fd" stroke="black" points="246.58,-956.86 183.58,-956.86 183.58,-920.86 246.58,-920.86 246.58,-956.86"/>
<text text-anchor="middle" x="215.08" y="-941.86" font-family="Helvetica,sans-Serif" font-size="10.00">explore</text>
<text text-anchor="middle" x="215.08" y="-930.86" font-family="Helvetica,sans-Serif" font-size="10.00">(1,490 tok)</text>
</g>
<!-- skill_co_issue&#45;&gt;cmd_explore -->
<g id="edge1" class="edge">
<title>skill_co_issue&#45;&gt;cmd_explore</title>
<path fill="none" stroke="black" d="M49.83,-546.35C51.06,-609.53 62.77,-797.26 155.58,-909.86 160.65,-916.01 167.35,-920.97 174.4,-924.92"/>
<polygon fill="black" stroke="black" points="172.91,-928.09 183.42,-929.42 176.03,-921.83 172.91,-928.09"/>
</g>
<!-- skill_ref_issue_template_bug -->
<g id="node16" class="node">
<title>skill_ref_issue_template_bug</title>
<ellipse fill="none" stroke="black" cx="416.76" cy="-382.86" rx="84.36" ry="18"/>
<text text-anchor="middle" x="416.76" y="-380.36" font-family="Helvetica,sans-Serif" font-size="10.00">skill_ref_issue_template_bug</text>
</g>
<!-- skill_co_issue&#45;&gt;skill_ref_issue_template_bug -->
<g id="edge12" class="edge">
<title>skill_co_issue&#45;&gt;skill_ref_issue_template_bug</title>
<path fill="none" stroke="black" d="M91.89,-535.13C138.56,-544.36 215.07,-552.97 274.58,-527.86 331.48,-503.84 376.81,-444.43 399.62,-409.57"/>
<polygon fill="black" stroke="black" points="402.76,-411.16 405.19,-400.85 396.86,-407.39 402.76,-411.16"/>
</g>
<!-- skill_ref_issue_template_feature -->
<g id="node17" class="node">
<title>skill_ref_issue_template_feature</title>
<ellipse fill="none" stroke="black" cx="651.36" cy="-382.86" rx="92.34" ry="18"/>
<text text-anchor="middle" x="651.36" y="-380.36" font-family="Helvetica,sans-Serif" font-size="10.00">skill_ref_issue_template_feature</text>
</g>
<!-- skill_co_issue&#45;&gt;skill_ref_issue_template_feature -->
<g id="edge13" class="edge">
<title>skill_co_issue&#45;&gt;skill_ref_issue_template_feature</title>
<path fill="none" stroke="black" d="M62.49,-545.37C79.84,-571.2 113.64,-614.34 155.58,-631.86 204.39,-652.23 223.94,-647.11 274.58,-631.86 423.8,-586.9 568.25,-461.22 625.06,-407.6"/>
<polygon fill="black" stroke="black" points="627.66,-409.96 632.48,-400.53 622.83,-404.89 627.66,-409.96"/>
</g>
<!-- skill_ref_project_model -->
<g id="node18" class="node">
<title>skill_ref_project_model</title>
<ellipse fill="none" stroke="black" cx="870.06" cy="-382.86" rx="68.07" ry="18"/>
<text text-anchor="middle" x="870.06" y="-380.36" font-family="Helvetica,sans-Serif" font-size="10.00">skill_ref_project_model</text>
</g>
<!-- skill_co_issue&#45;&gt;skill_ref_project_model -->
<g id="edge14" class="edge">
<title>skill_co_issue&#45;&gt;skill_ref_project_model</title>
<path fill="none" stroke="black" d="M55.52,-503.66C67.11,-465.53 97.34,-386.31 155.58,-353.86 269.76,-290.23 613.91,-339.02 743.78,-353.86 766.85,-356.49 791.86,-361.77 813.42,-367.12"/>
<polygon fill="black" stroke="black" points="812.83,-370.58 823.39,-369.65 814.56,-363.79 812.83,-370.58"/>
</g>
<!-- skill_ref_issue_quality_criteria -->
<g id="node19" class="node">
<title>skill_ref_issue_quality_criteria</title>
<ellipse fill="none" stroke="black" cx="1082.88" cy="-382.86" rx="86.57" ry="18"/>
<text text-anchor="middle" x="1082.88" y="-380.36" font-family="Helvetica,sans-Serif" font-size="10.00">skill_ref_issue_quality_criteria</text>
</g>
<!-- skill_co_issue&#45;&gt;skill_ref_issue_quality_criteria -->
<g id="edge15" class="edge">
<title>skill_co_issue&#45;&gt;skill_ref_issue_quality_criteria</title>
<path fill="none" stroke="black" d="M54,-503.48C63.64,-460.73 91.59,-364.97 155.58,-319.86 250.94,-252.63 299.08,-284.86 415.76,-284.86 415.76,-284.86 415.76,-284.86 652.36,-284.86 792.27,-284.86 951.54,-334.89 1031.07,-363.46"/>
<polygon fill="black" stroke="black" points="1030.23,-366.88 1040.83,-367 1032.62,-360.3 1030.23,-366.88"/>
</g>
<!-- skill_ref_glossary_criteria -->
<g id="node20" class="node">
<title>skill_ref_glossary_criteria</title>
<ellipse fill="none" stroke="black" cx="1302.18" cy="-382.86" rx="74.52" ry="18"/>
<text text-anchor="middle" x="1302.18" y="-380.36" font-family="Helvetica,sans-Serif" font-size="10.00">skill_ref_glossary_criteria</text>
</g>
<!-- skill_co_issue&#45;&gt;skill_ref_glossary_criteria -->
<g id="edge16" class="edge">
<title>skill_co_issue&#45;&gt;skill_ref_glossary_criteria</title>
<path fill="none" stroke="black" d="M50.21,-503.46C52.49,-441.39 66.8,-258.54 155.58,-145.86 237.5,-41.87 283.38,-0.86 415.76,-0.86 415.76,-0.86 415.76,-0.86 871.06,-0.86 1007.79,-0.86 1065.36,12.83 1169.42,-75.86 1257.07,-150.57 1288.02,-294.09 1297.49,-354.72"/>
<polygon fill="black" stroke="black" points="1294.04,-355.34 1298.97,-364.71 1300.97,-354.31 1294.04,-355.34"/>
</g>
<!-- cmd_issue_structure&#45;&gt;cmd_issue_tech_debt_absorb -->
<!-- cmd_issue_create&#45;&gt;cmd_issue_bulk_create -->
<!-- cmd_issue_bulk_create&#45;&gt;cmd_issue_spec_review -->
<!-- cmd_issue_tech_debt_absorb&#45;&gt;cmd_issue_create -->
<!-- cmd_issue_spec_review&#45;&gt;cmd_issue_review_aggregate -->
<!-- agent_issue_critic -->
<g id="node13" class="node">
<title>agent_issue_critic</title>
<ellipse fill="#ede7f6" stroke="black" cx="651.36" cy="-229.86" rx="45.01" ry="21.43"/>
<text text-anchor="middle" x="651.36" y="-232.86" font-family="Helvetica,sans-Serif" font-size="10.00">issue&#45;critic</text>
<text text-anchor="middle" x="651.36" y="-221.86" font-family="Helvetica,sans-Serif" font-size="10.00">(1,268 tok)</text>
</g>
<!-- cmd_issue_spec_review&#45;&gt;agent_issue_critic -->
<g id="edge17" class="edge">
<title>cmd_issue_spec_review&#45;&gt;agent_issue_critic</title>
<path fill="none" stroke="black" stroke-dasharray="5,2" d="M262.97,-232.53C344.01,-231.97 509.82,-230.83 595.86,-230.23"/>
<polygon fill="black" stroke="black" points="595.97,-233.73 605.94,-230.16 595.92,-226.73 595.97,-233.73"/>
</g>
<!-- agent_issue_feasibility -->
<g id="node14" class="node">
<title>agent_issue_feasibility</title>
<ellipse fill="#ede7f6" stroke="black" cx="651.36" cy="-165.86" rx="59.29" ry="21.43"/>
<text text-anchor="middle" x="651.36" y="-168.86" font-family="Helvetica,sans-Serif" font-size="10.00">issue&#45;feasibility</text>
<text text-anchor="middle" x="651.36" y="-157.86" font-family="Helvetica,sans-Serif" font-size="10.00">(1,175 tok)</text>
</g>
<!-- cmd_issue_spec_review&#45;&gt;agent_issue_feasibility -->
<g id="edge18" class="edge">
<title>cmd_issue_spec_review&#45;&gt;agent_issue_feasibility</title>
<path fill="none" stroke="black" stroke-dasharray="5,2" d="M262.97,-225.62C341.13,-213.56 498.18,-189.33 586.42,-175.72"/>
<polygon fill="black" stroke="black" points="587.22,-179.14 596.57,-174.15 586.15,-172.22 587.22,-179.14"/>
</g>
<!-- agent_worker_codex_reviewer -->
<g id="node15" class="node">
<title>agent_worker_codex_reviewer</title>
<ellipse fill="#ede7f6" stroke="black" cx="651.36" cy="-101.86" rx="81.13" ry="21.43"/>
<text text-anchor="middle" x="651.36" y="-104.86" font-family="Helvetica,sans-Serif" font-size="10.00">worker&#45;codex&#45;reviewer</text>
<text text-anchor="middle" x="651.36" y="-93.86" font-family="Helvetica,sans-Serif" font-size="10.00">(1,421 tok)</text>
</g>
<!-- cmd_issue_spec_review&#45;&gt;agent_worker_codex_reviewer -->
<g id="edge19" class="edge">
<title>cmd_issue_spec_review&#45;&gt;agent_worker_codex_reviewer</title>
<path fill="none" stroke="black" stroke-dasharray="5,2" d="M254.9,-214.85C277.3,-204.89 306.18,-192.76 332.58,-183.86 415.22,-155.98 512.64,-132.13 577.62,-117.45"/>
<polygon fill="black" stroke="black" points="578.77,-120.78 587.76,-115.17 577.24,-113.95 578.77,-120.78"/>
</g>
<!-- cmd_issue_review_aggregate&#45;&gt;cmd_issue_glossary_check -->
<!-- cmd_issue_glossary_check&#45;&gt;cmd_issue_arch_drift -->
<!-- cmd_issue_glossary_check&#45;&gt;skill_ref_glossary_criteria -->
<g id="edge20" class="edge">
<title>cmd_issue_glossary_check&#45;&gt;skill_ref_glossary_criteria</title>
<path fill="none" stroke="black" d="M251.63,-156.79C324.46,-121.5 496.69,-46.86 650.36,-46.86 650.36,-46.86 650.36,-46.86 871.06,-46.86 1071.79,-46.86 1234.83,-276.92 1285.11,-356.31"/>
<polygon fill="black" stroke="black" points="1282.15,-358.17 1290.42,-364.79 1288.08,-354.46 1282.15,-358.17"/>
</g>
<!-- cmd_issue_arch_drift&#45;&gt;cmd_issue_cross_repo_create -->
<!-- cmd_issue_cross_repo_create&#45;&gt;cmd_project_board_sync -->
<!-- cmd_project_board_sync&#45;&gt;skill_ref_issue_template_bug -->
<!-- cmd_explore&#45;&gt;cmd_issue_structure -->
<!-- agent_issue_critic&#45;&gt;agent_issue_feasibility -->
<!-- agent_issue_critic&#45;&gt;skill_ref_issue_quality_criteria -->
<g id="edge21" class="edge">
<title>agent_issue_critic&#45;&gt;skill_ref_issue_quality_criteria</title>
<path fill="none" stroke="black" stroke-dasharray="1,5" d="M696.92,-228.51C754.89,-228.36 858.21,-233.61 938.35,-267.86 986.72,-288.52 1032.27,-330.21 1058.61,-357.31"/>
<polygon fill="black" stroke="black" points="1056.39,-360.06 1065.83,-364.87 1061.45,-355.22 1056.39,-360.06"/>
</g>
<!-- agent_issue_feasibility&#45;&gt;agent_worker_codex_reviewer -->
<!-- agent_issue_feasibility&#45;&gt;skill_ref_issue_quality_criteria -->
<g id="edge22" class="edge">
<title>agent_issue_feasibility&#45;&gt;skill_ref_issue_quality_criteria</title>
<path fill="none" stroke="black" stroke-dasharray="1,5" d="M710.21,-168.83C770.67,-174.13 866.55,-188.87 938.35,-229.86 993.81,-261.52 1040.63,-321.58 1064.63,-356.28"/>
<polygon fill="black" stroke="black" points="1061.99,-358.64 1070.5,-364.94 1067.78,-354.7 1061.99,-358.64"/>
</g>
<!-- agent_worker_codex_reviewer&#45;&gt;skill_ref_issue_quality_criteria -->
<g id="edge23" class="edge">
<title>agent_worker_codex_reviewer&#45;&gt;skill_ref_issue_quality_criteria</title>
<path fill="none" stroke="black" stroke-dasharray="1,5" d="M729.78,-107.54C791.07,-115.29 876.37,-133.6 938.35,-176.86 1004.81,-223.24 1050.45,-310.92 1070.45,-355.44"/>
<polygon fill="black" stroke="black" points="1067.32,-357.01 1074.54,-364.76 1073.73,-354.2 1067.32,-357.01"/>
</g>
<!-- skill_ref_issue_template_bug&#45;&gt;skill_ref_issue_template_feature -->
<!-- skill_ref_issue_template_feature&#45;&gt;skill_ref_project_model -->
<!-- skill_ref_project_model&#45;&gt;skill_ref_issue_quality_criteria -->
<!-- skill_ref_issue_quality_criteria&#45;&gt;skill_ref_glossary_criteria -->
</g>
</svg>
