<?xml version="1.0" encoding="UTF-8" standalone="no"?>
<!DOCTYPE svg PUBLIC "-//W3C//DTD SVG 1.1//EN"
 "http://www.w3.org/Graphics/SVG/1.1/DTD/svg11.dtd">
<!-- Generated by graphviz version 2.43.0 (0)
 -->
<!-- Title: Dependencies Pages: 1 -->
<svg width="1136pt" height="752pt"
 viewBox="0.00 0.00 1135.58 751.89" xmlns="http://www.w3.org/2000/svg" xmlns:xlink="http://www.w3.org/1999/xlink">
<g id="graph0" class="graph" transform="scale(1 1) rotate(0) translate(4 747.89)">
<title>Dependencies</title>
<polygon fill="white" stroke="transparent" points="-4,4 -4,-747.89 1131.58,-747.89 1131.58,4 -4,4"/>
<text text-anchor="middle" x="563.79" y="-728.69" font-family="Helvetica,sans-Serif" font-size="14.00">co&#45;self&#45;improve</text>
<!-- skill_co_self_improve -->
<g id="node1" class="node">
<title>skill_co_self_improve</title>
<ellipse fill="#c8e6c9" stroke="black" cx="78.49" cy="-292.72" rx="78.48" ry="21.43"/>
<text text-anchor="middle" x="78.49" y="-295.72" font-family="Helvetica,sans-Serif" font-size="10.00">twl:co&#45;self&#45;improve</text>
<text text-anchor="middle" x="78.49" y="-284.72" font-family="Helvetica,sans-Serif" font-size="10.00">(1,381 tok)</text>
</g>
<!-- skill_workflow_observe_loop -->
<g id="node2" class="node">
<title>skill_workflow_observe_loop</title>
<ellipse fill="#e8f5e9" stroke="black" cx="318.22" cy="-608.72" rx="103.48" ry="21.43"/>
<text text-anchor="middle" x="318.22" y="-611.72" font-family="Helvetica,sans-Serif" font-size="10.00">twl:workflow&#45;observe&#45;loop</text>
<text text-anchor="middle" x="318.22" y="-600.72" font-family="Helvetica,sans-Serif" font-size="10.00">(1,964 tok)</text>
</g>
<!-- skill_co_self_improve&#45;&gt;skill_workflow_observe_loop -->
<g id="edge1" class="edge">
<title>skill_co_self_improve&#45;&gt;skill_workflow_observe_loop</title>
<path fill="none" stroke="black" d="M85.41,-313.92C99.93,-362.56 141.62,-483.63 214.98,-556.72 226.83,-568.53 241.93,-578.19 256.85,-585.84"/>
<polygon fill="black" stroke="black" points="255.57,-589.11 266.09,-590.35 258.64,-582.82 255.57,-589.11"/>
</g>
<!-- skill_test_scenario_catalog -->
<g id="node3" class="node">
<title>skill_test_scenario_catalog</title>
<polygon fill="#e1f5fe" stroke="black" points="1105.08,-250.72 973.08,-250.72 973.08,-214.72 1111.08,-214.72 1111.08,-244.72 1105.08,-250.72"/>
<polyline fill="none" stroke="black" points="1105.08,-250.72 1105.08,-244.72 "/>
<polyline fill="none" stroke="black" points="1111.08,-244.72 1105.08,-244.72 "/>
<text text-anchor="middle" x="1042.08" y="-235.72" font-family="Helvetica,sans-Serif" font-size="10.00">twl:test&#45;scenario&#45;catalog</text>
<text text-anchor="middle" x="1042.08" y="-224.72" font-family="Helvetica,sans-Serif" font-size="10.00">(1,714 tok)</text>
</g>
<!-- skill_co_self_improve&#45;&gt;skill_test_scenario_catalog -->
<g id="edge10" class="edge">
<title>skill_co_self_improve&#45;&gt;skill_test_scenario_catalog</title>
<path fill="none" stroke="black" d="M92.61,-271.84C113.84,-240.24 159.04,-181.45 214.98,-157.72 495.22,-38.82 600.28,-139.94 898.58,-200.72 919.6,-205 942.29,-209.95 963.25,-214.65"/>
<polygon fill="black" stroke="black" points="962.54,-218.08 973.06,-216.86 964.08,-211.25 962.54,-218.08"/>
</g>
<!-- skill_observation_pattern_catalog -->
<g id="node4" class="node">
<title>skill_observation_pattern_catalog</title>
<polygon fill="#e1f5fe" stroke="black" points="1121.58,-192.72 956.58,-192.72 956.58,-156.72 1127.58,-156.72 1127.58,-186.72 1121.58,-192.72"/>
<polyline fill="none" stroke="black" points="1121.58,-192.72 1121.58,-186.72 "/>
<polyline fill="none" stroke="black" points="1127.58,-186.72 1121.58,-186.72 "/>
<text text-anchor="middle" x="1042.08" y="-177.72" font-family="Helvetica,sans-Serif" font-size="10.00">twl:observation&#45;pattern&#45;catalog</text>
<text text-anchor="middle" x="1042.08" y="-166.72" font-family="Helvetica,sans-Serif" font-size="10.00">(725 tok)</text>
</g>
<!-- skill_co_self_improve&#45;&gt;skill_observation_pattern_catalog -->
<g id="edge11" class="edge">
<title>skill_co_self_improve&#45;&gt;skill_observation_pattern_catalog</title>
<path fill="none" stroke="black" d="M86.85,-271.36C102.64,-229.31 144.21,-136.67 214.98,-99.72 341.17,-33.82 765.18,-114.44 951.73,-154.58"/>
<polygon fill="black" stroke="black" points="951,-158 961.51,-156.69 952.47,-151.16 951,-158"/>
</g>
<!-- skill_load_test_baselines -->
<g id="node5" class="node">
<title>skill_load_test_baselines</title>
<polygon fill="#e1f5fe" stroke="black" points="1100.08,-134.72 978.08,-134.72 978.08,-98.72 1106.08,-98.72 1106.08,-128.72 1100.08,-134.72"/>
<polyline fill="none" stroke="black" points="1100.08,-134.72 1100.08,-128.72 "/>
<polyline fill="none" stroke="black" points="1106.08,-128.72 1100.08,-128.72 "/>
<text text-anchor="middle" x="1042.08" y="-119.72" font-family="Helvetica,sans-Serif" font-size="10.00">twl:load&#45;test&#45;baselines</text>
<text text-anchor="middle" x="1042.08" y="-108.72" font-family="Helvetica,sans-Serif" font-size="10.00">(670 tok)</text>
</g>
<!-- skill_co_self_improve&#45;&gt;skill_load_test_baselines -->
<g id="edge12" class="edge">
<title>skill_co_self_improve&#45;&gt;skill_load_test_baselines</title>
<path fill="none" stroke="black" d="M84.86,-271.4C97.93,-224.7 136.21,-114.03 214.98,-69.72 472.04,74.89 848.16,-42.7 987,-94.92"/>
<polygon fill="black" stroke="black" points="985.99,-98.28 996.58,-98.56 988.47,-91.74 985.99,-98.28"/>
</g>
<!-- cmd_observe_once -->
<g id="node6" class="node">
<title>cmd_observe_once</title>
<polygon fill="#e3f2fd" stroke="black" points="599.45,-394.72 516.45,-394.72 516.45,-358.72 599.45,-358.72 599.45,-394.72"/>
<text text-anchor="middle" x="557.95" y="-379.72" font-family="Helvetica,sans-Serif" font-size="10.00">observe&#45;once</text>
<text text-anchor="middle" x="557.95" y="-368.72" font-family="Helvetica,sans-Serif" font-size="10.00">(436 tok)</text>
</g>
<!-- skill_co_self_improve&#45;&gt;cmd_observe_once -->
<g id="edge5" class="edge">
<title>skill_co_self_improve&#45;&gt;cmd_observe_once</title>
<path fill="none" stroke="black" d="M138.35,-306.57C162.08,-311.95 189.77,-317.94 214.98,-322.72 317.84,-342.21 439.04,-360.17 506.01,-369.67"/>
<polygon fill="black" stroke="black" points="505.89,-373.19 516.28,-371.12 506.87,-366.25 505.89,-373.19"/>
</g>
<!-- cmd_problem_detect -->
<g id="node7" class="node">
<title>cmd_problem_detect</title>
<polygon fill="#e3f2fd" stroke="black" points="603.95,-336.72 511.95,-336.72 511.95,-300.72 603.95,-300.72 603.95,-336.72"/>
<text text-anchor="middle" x="557.95" y="-321.72" font-family="Helvetica,sans-Serif" font-size="10.00">problem&#45;detect</text>
<text text-anchor="middle" x="557.95" y="-310.72" font-family="Helvetica,sans-Serif" font-size="10.00">(678 tok)</text>
</g>
<!-- skill_co_self_improve&#45;&gt;cmd_problem_detect -->
<g id="edge6" class="edge">
<title>skill_co_self_improve&#45;&gt;cmd_problem_detect</title>
<path fill="none" stroke="black" d="M155.67,-296.87C252.32,-302.13 416.65,-311.08 501.93,-315.72"/>
<polygon fill="black" stroke="black" points="501.76,-319.22 511.93,-316.27 502.14,-312.23 501.76,-319.22"/>
</g>
<!-- cmd_issue_draft_from_observation -->
<g id="node8" class="node">
<title>cmd_issue_draft_from_observation</title>
<polygon fill="#e3f2fd" stroke="black" points="636.45,-278.72 479.45,-278.72 479.45,-242.72 636.45,-242.72 636.45,-278.72"/>
<text text-anchor="middle" x="557.95" y="-263.72" font-family="Helvetica,sans-Serif" font-size="10.00">issue&#45;draft&#45;from&#45;observation</text>
<text text-anchor="middle" x="557.95" y="-252.72" font-family="Helvetica,sans-Serif" font-size="10.00">(591 tok)</text>
</g>
<!-- skill_co_self_improve&#45;&gt;cmd_issue_draft_from_observation -->
<g id="edge7" class="edge">
<title>skill_co_self_improve&#45;&gt;cmd_issue_draft_from_observation</title>
<path fill="none" stroke="black" d="M154.88,-287.66C240.15,-281.95 378.84,-272.65 468.98,-266.61"/>
<polygon fill="black" stroke="black" points="469.44,-270.09 479.18,-265.93 468.97,-263.11 469.44,-270.09"/>
</g>
<!-- cmd_observe_retrospective -->
<g id="node10" class="node">
<title>cmd_observe_retrospective</title>
<polygon fill="#e3f2fd" stroke="black" points="619.95,-220.72 495.95,-220.72 495.95,-184.72 619.95,-184.72 619.95,-220.72"/>
<text text-anchor="middle" x="557.95" y="-205.72" font-family="Helvetica,sans-Serif" font-size="10.00">observe&#45;retrospective</text>
<text text-anchor="middle" x="557.95" y="-194.72" font-family="Helvetica,sans-Serif" font-size="10.00">(521 tok)</text>
</g>
<!-- skill_co_self_improve&#45;&gt;cmd_observe_retrospective -->
<g id="edge8" class="edge">
<title>skill_co_self_improve&#45;&gt;cmd_observe_retrospective</title>
<path fill="none" stroke="black" d="M140.8,-279.72C164.01,-274.88 190.69,-269.43 214.98,-264.72 308.42,-246.6 416.55,-227.27 485.78,-215.1"/>
<polygon fill="black" stroke="black" points="486.47,-218.53 495.71,-213.36 485.26,-211.64 486.47,-218.53"/>
</g>
<!-- cmd_test_project_init -->
<g id="node11" class="node">
<title>cmd_test_project_init</title>
<polygon fill="#e3f2fd" stroke="black" points="603.95,-568.72 511.95,-568.72 511.95,-532.72 603.95,-532.72 603.95,-568.72"/>
<text text-anchor="middle" x="557.95" y="-553.72" font-family="Helvetica,sans-Serif" font-size="10.00">test&#45;project&#45;init</text>
<text text-anchor="middle" x="557.95" y="-542.72" font-family="Helvetica,sans-Serif" font-size="10.00">(847 tok)</text>
</g>
<!-- skill_co_self_improve&#45;&gt;cmd_test_project_init -->
<g id="edge2" class="edge">
<title>skill_co_self_improve&#45;&gt;cmd_test_project_init</title>
<path fill="none" stroke="black" d="M91.89,-313.64C112.93,-347.34 158.86,-413.51 214.98,-449.72 305.34,-508.02 430.52,-533.7 501.67,-544.19"/>
<polygon fill="black" stroke="black" points="501.37,-547.68 511.76,-545.63 502.36,-540.75 501.37,-547.68"/>
</g>
<!-- cmd_test_project_reset -->
<g id="node12" class="node">
<title>cmd_test_project_reset</title>
<polygon fill="#e3f2fd" stroke="black" points="608.45,-510.72 507.45,-510.72 507.45,-474.72 608.45,-474.72 608.45,-510.72"/>
<text text-anchor="middle" x="557.95" y="-495.72" font-family="Helvetica,sans-Serif" font-size="10.00">test&#45;project&#45;reset</text>
<text text-anchor="middle" x="557.95" y="-484.72" font-family="Helvetica,sans-Serif" font-size="10.00">(443 tok)</text>
</g>
<!-- skill_co_self_improve&#45;&gt;cmd_test_project_reset -->
<g id="edge3" class="edge">
<title>skill_co_self_improve&#45;&gt;cmd_test_project_reset</title>
<path fill="none" stroke="black" d="M100.13,-313.49C125.19,-337.59 169.75,-376.91 214.98,-399.72 307.79,-446.51 427.04,-472.05 497.41,-484"/>
<polygon fill="black" stroke="black" points="496.99,-487.48 507.43,-485.67 498.13,-480.58 496.99,-487.48"/>
</g>
<!-- cmd_test_project_scenario_load -->
<g id="node13" class="node">
<title>cmd_test_project_scenario_load</title>
<polygon fill="#e3f2fd" stroke="black" points="629.45,-452.72 486.45,-452.72 486.45,-416.72 629.45,-416.72 629.45,-452.72"/>
<text text-anchor="middle" x="557.95" y="-437.72" font-family="Helvetica,sans-Serif" font-size="10.00">test&#45;project&#45;scenario&#45;load</text>
<text text-anchor="middle" x="557.95" y="-426.72" font-family="Helvetica,sans-Serif" font-size="10.00">(861 tok)</text>
</g>
<!-- skill_co_self_improve&#45;&gt;cmd_test_project_scenario_load -->
<g id="edge4" class="edge">
<title>skill_co_self_improve&#45;&gt;cmd_test_project_scenario_load</title>
<path fill="none" stroke="black" d="M114.27,-311.72C141.13,-325.76 179.57,-344.48 214.98,-356.72 302.2,-386.86 406,-408.65 476.18,-421.41"/>
<polygon fill="black" stroke="black" points="475.82,-424.91 486.28,-423.23 477.06,-418.02 475.82,-424.91"/>
</g>
<!-- agent_observer_evaluator -->
<g id="node14" class="node">
<title>agent_observer_evaluator</title>
<ellipse fill="#ede7f6" stroke="black" cx="796.51" cy="-232.72" rx="77.56" ry="21.43"/>
<text text-anchor="middle" x="796.51" y="-235.72" font-family="Helvetica,sans-Serif" font-size="10.00">observer&#45;evaluator</text>
<text text-anchor="middle" x="796.51" y="-224.72" font-family="Helvetica,sans-Serif" font-size="10.00">(1,469 tok)</text>
</g>
<!-- skill_co_self_improve&#45;&gt;agent_observer_evaluator -->
<g id="edge9" class="edge">
<title>skill_co_self_improve&#45;&gt;agent_observer_evaluator</title>
<path fill="none" stroke="black" stroke-dasharray="5,2" d="M110.03,-273.26C136.73,-257.11 177.06,-234.75 214.98,-221.72 393.27,-160.43 450.89,-140.41 636.45,-173.72 675.47,-180.72 717.42,-196.67 748.44,-210.22"/>
<polygon fill="black" stroke="black" points="747.14,-213.47 757.7,-214.33 749.98,-207.07 747.14,-213.47"/>
</g>
<!-- cmd_observe_and_detect -->
<g id="node9" class="node">
<title>cmd_observe_and_detect</title>
<polygon fill="#bbdefb" stroke="black" points="613.95,-626.72 501.95,-626.72 501.95,-590.72 613.95,-590.72 613.95,-626.72"/>
<text text-anchor="middle" x="557.95" y="-611.72" font-family="Helvetica,sans-Serif" font-size="10.00">observe&#45;and&#45;detect</text>
<text text-anchor="middle" x="557.95" y="-600.72" font-family="Helvetica,sans-Serif" font-size="10.00">(460 tok)</text>
</g>
<!-- skill_workflow_observe_loop&#45;&gt;cmd_observe_and_detect -->
<g id="edge13" class="edge">
<title>skill_workflow_observe_loop&#45;&gt;cmd_observe_and_detect</title>
<path fill="none" stroke="black" d="M421.76,-608.72C445.52,-608.72 470.17,-608.72 491.81,-608.72"/>
<polygon fill="black" stroke="black" points="491.84,-612.22 501.84,-608.72 491.84,-605.22 491.84,-612.22"/>
</g>
<!-- skill_workflow_observe_loop&#45;&gt;cmd_observe_retrospective -->
<g id="edge14" class="edge">
<title>skill_workflow_observe_loop&#45;&gt;cmd_observe_retrospective</title>
<path fill="none" stroke="black" d="M322.28,-587.48C332.49,-524.3 371.05,-335.47 479.45,-231.72 481.84,-229.43 484.42,-227.32 487.15,-225.38"/>
<polygon fill="black" stroke="black" points="489.08,-228.3 495.7,-220.02 485.37,-222.37 489.08,-228.3"/>
</g>
<!-- skill_workflow_observe_loop&#45;&gt;cmd_test_project_init -->
<!-- script_observe_wrapper -->
<g id="node15" class="node">
<title>script_observe_wrapper</title>
<polygon fill="#ff9800" stroke="black" points="877.18,-416.72 836.85,-441.21 756.18,-441.21 715.85,-416.72 756.18,-392.23 836.85,-392.23 877.18,-416.72"/>
<text text-anchor="middle" x="796.51" y="-419.72" font-family="Helvetica,sans-Serif" font-size="10.00">observe&#45;wrapper</text>
<text text-anchor="middle" x="796.51" y="-408.72" font-family="Helvetica,sans-Serif" font-size="10.00">(122 tok)</text>
</g>
<!-- skill_workflow_observe_loop&#45;&gt;script_observe_wrapper -->
<g id="edge15" class="edge">
<title>skill_workflow_observe_loop&#45;&gt;script_observe_wrapper</title>
<path fill="none" stroke="black" d="M350.63,-629.15C410.15,-665.06 541.85,-730.85 636.45,-677.72 723.74,-628.69 768.77,-510.16 786.41,-451.21"/>
<polygon fill="black" stroke="black" points="789.87,-451.84 789.29,-441.26 783.15,-449.89 789.87,-451.84"/>
</g>
<!-- script_session_state_wrapper -->
<g id="node16" class="node">
<title>script_session_state_wrapper</title>
<polygon fill="#ff9800" stroke="black" points="898.64,-345.72 847.58,-370.21 745.45,-370.21 694.39,-345.72 745.45,-321.23 847.58,-321.23 898.64,-345.72"/>
<text text-anchor="middle" x="796.51" y="-348.72" font-family="Helvetica,sans-Serif" font-size="10.00">session&#45;state&#45;wrapper</text>
<text text-anchor="middle" x="796.51" y="-337.72" font-family="Helvetica,sans-Serif" font-size="10.00">(126 tok)</text>
</g>
<!-- skill_workflow_observe_loop&#45;&gt;script_session_state_wrapper -->
<g id="edge16" class="edge">
<title>skill_workflow_observe_loop&#45;&gt;script_session_state_wrapper</title>
<path fill="none" stroke="black" d="M359.11,-628.32C424.68,-657.4 555.97,-702.01 636.45,-637.72 727.6,-564.91 617.03,-468.98 694.45,-381.72 700.43,-374.99 707.74,-369.51 715.69,-365.06"/>
<polygon fill="black" stroke="black" points="717.5,-368.07 724.88,-360.46 714.37,-361.81 717.5,-368.07"/>
</g>
<!-- skill_test_scenario_catalog&#45;&gt;skill_observation_pattern_catalog -->
<!-- skill_observation_pattern_catalog&#45;&gt;skill_workflow_observe_loop -->
<!-- skill_observation_pattern_catalog&#45;&gt;skill_load_test_baselines -->
<!-- cmd_observe_once&#45;&gt;cmd_problem_detect -->
<!-- cmd_observe_once&#45;&gt;cmd_problem_detect -->
<!-- cmd_observe_once&#45;&gt;script_observe_wrapper -->
<g id="edge17" class="edge">
<title>cmd_observe_once&#45;&gt;script_observe_wrapper</title>
<path fill="none" stroke="black" d="M599.62,-383.59C633.47,-389.32 682.52,-397.61 723.06,-404.47"/>
<polygon fill="black" stroke="black" points="722.73,-407.96 733.17,-406.18 723.9,-401.06 722.73,-407.96"/>
</g>
<!-- cmd_observe_once&#45;&gt;script_session_state_wrapper -->
<g id="edge18" class="edge">
<title>cmd_observe_once&#45;&gt;script_session_state_wrapper</title>
<path fill="none" stroke="black" d="M599.62,-371.39C628.72,-367.57 669.04,-362.29 705.54,-357.51"/>
<polygon fill="black" stroke="black" points="706.27,-360.94 715.73,-356.17 705.36,-354 706.27,-360.94"/>
</g>
<!-- cmd_problem_detect&#45;&gt;skill_observation_pattern_catalog -->
<g id="edge19" class="edge">
<title>cmd_problem_detect&#45;&gt;skill_observation_pattern_catalog</title>
<path fill="none" stroke="black" d="M604.07,-315.15C684.33,-308.21 848.18,-291.22 898.58,-264.72 931.69,-247.3 925.09,-223.92 956.58,-203.72 960.17,-201.41 963.98,-199.26 967.9,-197.27"/>
<polygon fill="black" stroke="black" points="969.66,-200.3 977.22,-192.88 966.69,-193.97 969.66,-200.3"/>
</g>
<!-- cmd_problem_detect&#45;&gt;cmd_issue_draft_from_observation -->
<!-- cmd_problem_detect&#45;&gt;agent_observer_evaluator -->
<!-- cmd_issue_draft_from_observation&#45;&gt;cmd_observe_retrospective -->
<!-- cmd_observe_and_detect&#45;&gt;cmd_observe_retrospective -->
<!-- cmd_observe_and_detect&#45;&gt;agent_observer_evaluator -->
<g id="edge20" class="edge">
<title>cmd_observe_and_detect&#45;&gt;agent_observer_evaluator</title>
<path fill="none" stroke="black" stroke-dasharray="5,2" d="M614.2,-595.99C622.59,-591.97 630.44,-586.67 636.45,-579.72 716.41,-487.17 629.18,-414.15 694.45,-310.72 708.42,-288.58 731.02,-270.26 751.31,-256.95"/>
<polygon fill="black" stroke="black" points="753.25,-259.87 759.83,-251.56 749.5,-253.95 753.25,-259.87"/>
</g>
<!-- cmd_observe_retrospective&#45;&gt;agent_observer_evaluator -->
<!-- cmd_observe_retrospective&#45;&gt;script_observe_wrapper -->
<!-- cmd_test_project_init&#45;&gt;cmd_test_project_reset -->
<!-- cmd_test_project_reset&#45;&gt;cmd_test_project_scenario_load -->
<!-- cmd_test_project_scenario_load&#45;&gt;cmd_observe_once -->
<!-- agent_observer_evaluator&#45;&gt;skill_test_scenario_catalog -->
<!-- script_observe_wrapper&#45;&gt;script_session_state_wrapper -->
<!-- script_observe_wrapper&#45;&gt;script_session_state_wrapper -->
</g>
</svg>
