<?xml version="1.0" encoding="UTF-8" standalone="no"?>
<!DOCTYPE svg PUBLIC "-//W3C//DTD SVG 1.1//EN"
 "http://www.w3.org/Graphics/SVG/1.1/DTD/svg11.dtd">
<!-- Generated by graphviz version 2.43.0 (0)
 -->
<!-- Title: Dependencies Pages: 1 -->
<svg width="917pt" height="370pt"
 viewBox="0.00 0.00 916.51 369.89" xmlns="http://www.w3.org/2000/svg" xmlns:xlink="http://www.w3.org/1999/xlink">
<g id="graph0" class="graph" transform="scale(1 1) rotate(0) translate(4 365.89)">
<title>Dependencies</title>
<polygon fill="white" stroke="transparent" points="-4,4 -4,-365.89 912.51,-365.89 912.51,4 -4,4"/>
<text text-anchor="middle" x="454.26" y="-346.69" font-family="Helvetica,sans-Serif" font-size="14.00">workflow&#45;issue&#45;refine</text>
<!-- skill_workflow_issue_refine -->
<g id="node1" class="node">
<title>skill_workflow_issue_refine</title>
<ellipse fill="#e8f5e9" stroke="black" cx="98.99" cy="-71.68" rx="98.99" ry="21.43"/>
<text text-anchor="middle" x="98.99" y="-74.68" font-family="Helvetica,sans-Serif" font-size="10.00">twl:workflow&#45;issue&#45;refine</text>
<text text-anchor="middle" x="98.99" y="-63.68" font-family="Helvetica,sans-Serif" font-size="10.00">(3,057 tok)</text>
</g>
<!-- cmd_issue_spec_review -->
<g id="node2" class="node">
<title>cmd_issue_spec_review</title>
<polygon fill="#bbdefb" stroke="black" points="374.49,-176.68 269.49,-176.68 269.49,-140.68 374.49,-140.68 374.49,-176.68"/>
<text text-anchor="middle" x="321.99" y="-161.68" font-family="Helvetica,sans-Serif" font-size="10.00">issue&#45;spec&#45;review</text>
<text text-anchor="middle" x="321.99" y="-150.68" font-family="Helvetica,sans-Serif" font-size="10.00">(1,870 tok)</text>
</g>
<!-- skill_workflow_issue_refine&#45;&gt;cmd_issue_spec_review -->
<g id="edge1" class="edge">
<title>skill_workflow_issue_refine&#45;&gt;cmd_issue_spec_review</title>
<path fill="none" stroke="black" d="M147.13,-90.24C181.81,-103.89 229.06,-122.49 265.55,-136.86"/>
<polygon fill="black" stroke="black" points="264.47,-140.19 275.06,-140.6 267.04,-133.68 264.47,-140.19"/>
</g>
<!-- cmd_issue_review_aggregate -->
<g id="node3" class="node">
<title>cmd_issue_review_aggregate</title>
<polygon fill="#e3f2fd" stroke="black" points="387.99,-118.68 255.99,-118.68 255.99,-82.68 387.99,-82.68 387.99,-118.68"/>
<text text-anchor="middle" x="321.99" y="-103.68" font-family="Helvetica,sans-Serif" font-size="10.00">issue&#45;review&#45;aggregate</text>
<text text-anchor="middle" x="321.99" y="-92.68" font-family="Helvetica,sans-Serif" font-size="10.00">(1,157 tok)</text>
</g>
<!-- skill_workflow_issue_refine&#45;&gt;cmd_issue_review_aggregate -->
<g id="edge2" class="edge">
<title>skill_workflow_issue_refine&#45;&gt;cmd_issue_review_aggregate</title>
<path fill="none" stroke="black" d="M183.86,-82.68C204.23,-85.36 225.88,-88.2 245.82,-90.82"/>
<polygon fill="black" stroke="black" points="245.39,-94.29 255.76,-92.12 246.3,-87.35 245.39,-94.29"/>
</g>
<!-- cmd_issue_arch_drift -->
<g id="node4" class="node">
<title>cmd_issue_arch_drift</title>
<polygon fill="#e3f2fd" stroke="black" points="366.99,-60.68 276.99,-60.68 276.99,-24.68 366.99,-24.68 366.99,-60.68"/>
<text text-anchor="middle" x="321.99" y="-45.68" font-family="Helvetica,sans-Serif" font-size="10.00">issue&#45;arch&#45;drift</text>
<text text-anchor="middle" x="321.99" y="-34.68" font-family="Helvetica,sans-Serif" font-size="10.00">(1,079 tok)</text>
</g>
<!-- skill_workflow_issue_refine&#45;&gt;cmd_issue_arch_drift -->
<g id="edge3" class="edge">
<title>skill_workflow_issue_refine&#45;&gt;cmd_issue_arch_drift</title>
<path fill="none" stroke="black" d="M183.86,-60.67C211.65,-57.03 241.84,-53.07 266.8,-49.79"/>
<polygon fill="black" stroke="black" points="267.34,-53.25 276.8,-48.48 266.43,-46.31 267.34,-53.25"/>
</g>
<!-- script_spec_review_session_init -->
<g id="node10" class="node">
<title>script_spec_review_session_init</title>
<polygon fill="#ff9800" stroke="black" points="908.55,-42.68 853.01,-67.17 741.92,-67.17 686.38,-42.68 741.92,-18.19 853.01,-18.19 908.55,-42.68"/>
<text text-anchor="middle" x="797.47" y="-45.68" font-family="Helvetica,sans-Serif" font-size="10.00">spec&#45;review&#45;session&#45;init</text>
<text text-anchor="middle" x="797.47" y="-34.68" font-family="Helvetica,sans-Serif" font-size="10.00">(501 tok)</text>
</g>
<!-- skill_workflow_issue_refine&#45;&gt;script_spec_review_session_init -->
<g id="edge4" class="edge">
<title>skill_workflow_issue_refine&#45;&gt;script_spec_review_session_init</title>
<path fill="none" stroke="black" d="M139.93,-52.32C170.8,-38.48 215.04,-21.05 255.99,-13.68 414.35,14.81 602.66,-7.79 710.01,-25.87"/>
<polygon fill="black" stroke="black" points="709.7,-29.37 720.14,-27.61 710.88,-22.47 709.7,-29.37"/>
</g>
<!-- cmd_issue_spec_review&#45;&gt;cmd_issue_review_aggregate -->
<!-- cmd_issue_spec_review&#45;&gt;cmd_issue_review_aggregate -->
<!-- agent_issue_critic -->
<g id="node5" class="node">
<title>agent_issue_critic</title>
<ellipse fill="#ede7f6" stroke="black" cx="537.21" cy="-317.68" rx="49.49" ry="21.43"/>
<text text-anchor="middle" x="537.21" y="-320.68" font-family="Helvetica,sans-Serif" font-size="10.00">issue&#45;critic</text>
<text text-anchor="middle" x="537.21" y="-309.68" font-family="Helvetica,sans-Serif" font-size="10.00">(1,268 tok)</text>
</g>
<!-- cmd_issue_spec_review&#45;&gt;agent_issue_critic -->
<g id="edge5" class="edge">
<title>cmd_issue_spec_review&#45;&gt;agent_issue_critic</title>
<path fill="none" stroke="black" stroke-dasharray="5,2" d="M336.1,-176.81C356.65,-204.03 398.99,-255.48 445.99,-285.68 457.58,-293.13 471.12,-299.1 484.13,-303.78"/>
<polygon fill="black" stroke="black" points="483.34,-307.21 493.94,-307.11 485.59,-300.59 483.34,-307.21"/>
</g>
<!-- agent_issue_feasibility -->
<g id="node6" class="node">
<title>agent_issue_feasibility</title>
<ellipse fill="#ede7f6" stroke="black" cx="537.21" cy="-253.68" rx="67.35" ry="21.43"/>
<text text-anchor="middle" x="537.21" y="-256.68" font-family="Helvetica,sans-Serif" font-size="10.00">issue&#45;feasibility</text>
<text text-anchor="middle" x="537.21" y="-245.68" font-family="Helvetica,sans-Serif" font-size="10.00">(1,175 tok)</text>
</g>
<!-- cmd_issue_spec_review&#45;&gt;agent_issue_feasibility -->
<g id="edge6" class="edge">
<title>cmd_issue_spec_review&#45;&gt;agent_issue_feasibility</title>
<path fill="none" stroke="black" stroke-dasharray="5,2" d="M355.31,-176.73C379.8,-190.03 414.49,-208.1 445.99,-221.68 456.96,-226.41 468.88,-231.01 480.35,-235.17"/>
<polygon fill="black" stroke="black" points="479.26,-238.5 489.86,-238.56 481.61,-231.9 479.26,-238.5"/>
</g>
<!-- agent_worker_codex_reviewer -->
<g id="node7" class="node">
<title>agent_worker_codex_reviewer</title>
<ellipse fill="#ede7f6" stroke="black" cx="537.21" cy="-189.68" rx="91.43" ry="21.43"/>
<text text-anchor="middle" x="537.21" y="-192.68" font-family="Helvetica,sans-Serif" font-size="10.00">worker&#45;codex&#45;reviewer</text>
<text text-anchor="middle" x="537.21" y="-181.68" font-family="Helvetica,sans-Serif" font-size="10.00">(1,587 tok)</text>
</g>
<!-- cmd_issue_spec_review&#45;&gt;agent_worker_codex_reviewer -->
<g id="edge7" class="edge">
<title>cmd_issue_spec_review&#45;&gt;agent_worker_codex_reviewer</title>
<path fill="none" stroke="black" stroke-dasharray="5,2" d="M374.6,-166.18C397.02,-169.44 423.9,-173.35 449.24,-177.04"/>
<polygon fill="black" stroke="black" points="448.84,-180.51 459.24,-178.49 449.85,-173.59 448.84,-180.51"/>
</g>
<!-- script_escape_issue_body -->
<g id="node8" class="node">
<title>script_escape_issue_body</title>
<polygon fill="#ff9800" stroke="black" points="885.83,-189.68 841.65,-214.17 753.29,-214.17 709.1,-189.68 753.29,-165.19 841.65,-165.19 885.83,-189.68"/>
<text text-anchor="middle" x="797.47" y="-192.68" font-family="Helvetica,sans-Serif" font-size="10.00">escape&#45;issue&#45;body</text>
<text text-anchor="middle" x="797.47" y="-181.68" font-family="Helvetica,sans-Serif" font-size="10.00">(63 tok)</text>
</g>
<!-- cmd_issue_spec_review&#45;&gt;script_escape_issue_body -->
<g id="edge8" class="edge">
<title>cmd_issue_spec_review&#45;&gt;script_escape_issue_body</title>
<path fill="none" stroke="black" d="M374.76,-158.17C396.72,-157.97 422.61,-157.77 445.99,-157.68 527.07,-157.35 547.7,-150.06 628.42,-157.68 660.43,-160.7 695.42,-166.89 725.15,-173.03"/>
<polygon fill="black" stroke="black" points="724.51,-176.47 735.01,-175.1 725.95,-169.62 724.51,-176.47"/>
</g>
<!-- script_spec_review_manifest -->
<g id="node9" class="node">
<title>script_spec_review_manifest</title>
<polygon fill="#ff9800" stroke="black" points="897.83,-118.68 847.65,-143.17 747.29,-143.17 697.11,-118.68 747.29,-94.19 847.65,-94.19 897.83,-118.68"/>
<text text-anchor="middle" x="797.47" y="-121.68" font-family="Helvetica,sans-Serif" font-size="10.00">spec&#45;review&#45;manifest</text>
<text text-anchor="middle" x="797.47" y="-110.68" font-family="Helvetica,sans-Serif" font-size="10.00">(169 tok)</text>
</g>
<!-- cmd_issue_spec_review&#45;&gt;script_spec_review_manifest -->
<g id="edge9" class="edge">
<title>cmd_issue_spec_review&#45;&gt;script_spec_review_manifest</title>
<path fill="none" stroke="black" d="M374.56,-154.32C452.8,-147.71 602.79,-135.04 701.22,-126.73"/>
<polygon fill="black" stroke="black" points="701.8,-130.19 711.47,-125.86 701.21,-123.21 701.8,-130.19"/>
</g>
<!-- cmd_issue_review_aggregate&#45;&gt;cmd_issue_arch_drift -->
<!-- cmd_issue_review_aggregate&#45;&gt;cmd_issue_arch_drift -->
<!-- cmd_issue_arch_drift&#45;&gt;script_spec_review_session_init -->
<!-- agent_issue_critic&#45;&gt;agent_issue_feasibility -->
<!-- agent_issue_feasibility&#45;&gt;agent_worker_codex_reviewer -->
<!-- agent_worker_codex_reviewer&#45;&gt;script_escape_issue_body -->
<!-- script_escape_issue_body&#45;&gt;script_spec_review_manifest -->
</g>
</svg>
