<?xml version="1.0" encoding="UTF-8" standalone="no"?>
<!DOCTYPE svg PUBLIC "-//W3C//DTD SVG 1.1//EN"
 "http://www.w3.org/Graphics/SVG/1.1/DTD/svg11.dtd">
<!-- Generated by graphviz version 2.43.0 (0)
 -->
<!-- Title: Dependencies Pages: 1 -->
<svg width="1840pt" height="624pt"
 viewBox="0.00 0.00 1839.82 624.44" xmlns="http://www.w3.org/2000/svg" xmlns:xlink="http://www.w3.org/1999/xlink">
<g id="graph0" class="graph" transform="scale(1 1) rotate(0) translate(4 620.44)">
<title>Dependencies</title>
<polygon fill="white" stroke="transparent" points="-4,4 -4,-620.44 1835.82,-620.44 1835.82,4 -4,4"/>
<text text-anchor="middle" x="915.91" y="-601.24" font-family="Helvetica,sans-Serif" font-size="14.00">co&#45;self&#45;improve</text>
<!-- skill_co_self_improve -->
<g id="node1" class="node">
<title>skill_co_self_improve</title>
<ellipse fill="#c8e6c9" stroke="black" cx="78.49" cy="-281.6" rx="78.48" ry="21.43"/>
<text text-anchor="middle" x="78.49" y="-284.6" font-family="Helvetica,sans-Serif" font-size="10.00">twl:co&#45;self&#45;improve</text>
<text text-anchor="middle" x="78.49" y="-273.6" font-family="Helvetica,sans-Serif" font-size="10.00">(1,171 tok)</text>
</g>
<!-- cmd_observe_once -->
<g id="node2" class="node">
<title>cmd_observe_once</title>
<polygon fill="#e3f2fd" stroke="black" points="577.82,-380.6 494.82,-380.6 494.82,-344.6 577.82,-344.6 577.82,-380.6"/>
<text text-anchor="middle" x="536.32" y="-365.6" font-family="Helvetica,sans-Serif" font-size="10.00">observe&#45;once</text>
<text text-anchor="middle" x="536.32" y="-354.6" font-family="Helvetica,sans-Serif" font-size="10.00">(393 tok)</text>
</g>
<!-- skill_co_self_improve&#45;&gt;cmd_observe_once -->
<g id="edge5" class="edge">
<title>skill_co_self_improve&#45;&gt;cmd_observe_once</title>
<path fill="none" stroke="black" d="M139.39,-295.09C162.9,-300.21 190.15,-305.93 214.98,-310.6 309.92,-328.45 421.38,-345.72 484.64,-355.17"/>
<polygon fill="black" stroke="black" points="484.34,-358.66 494.75,-356.68 485.37,-351.74 484.34,-358.66"/>
</g>
<!-- cmd_problem_detect -->
<g id="node3" class="node">
<title>cmd_problem_detect</title>
<polygon fill="#e3f2fd" stroke="black" points="582.32,-322.6 490.32,-322.6 490.32,-286.6 582.32,-286.6 582.32,-322.6"/>
<text text-anchor="middle" x="536.32" y="-307.6" font-family="Helvetica,sans-Serif" font-size="10.00">problem&#45;detect</text>
<text text-anchor="middle" x="536.32" y="-296.6" font-family="Helvetica,sans-Serif" font-size="10.00">(672 tok)</text>
</g>
<!-- skill_co_self_improve&#45;&gt;cmd_problem_detect -->
<g id="edge6" class="edge">
<title>skill_co_self_improve&#45;&gt;cmd_problem_detect</title>
<path fill="none" stroke="black" d="M155.78,-285.45C247.54,-290.08 399.28,-297.73 480.31,-301.82"/>
<polygon fill="black" stroke="black" points="480.15,-305.32 490.31,-302.33 480.5,-298.33 480.15,-305.32"/>
</g>
<!-- cmd_issue_draft_from_observation -->
<g id="node4" class="node">
<title>cmd_issue_draft_from_observation</title>
<polygon fill="#e3f2fd" stroke="black" points="614.82,-264.6 457.82,-264.6 457.82,-228.6 614.82,-228.6 614.82,-264.6"/>
<text text-anchor="middle" x="536.32" y="-249.6" font-family="Helvetica,sans-Serif" font-size="10.00">issue&#45;draft&#45;from&#45;observation</text>
<text text-anchor="middle" x="536.32" y="-238.6" font-family="Helvetica,sans-Serif" font-size="10.00">(589 tok)</text>
</g>
<!-- skill_co_self_improve&#45;&gt;cmd_issue_draft_from_observation -->
<g id="edge7" class="edge">
<title>skill_co_self_improve&#45;&gt;cmd_issue_draft_from_observation</title>
<path fill="none" stroke="black" d="M154.25,-275.86C234.59,-269.69 362.17,-259.89 447.3,-253.36"/>
<polygon fill="black" stroke="black" points="447.76,-256.83 457.46,-252.58 447.22,-249.85 447.76,-256.83"/>
</g>
<!-- cmd_test_project_init -->
<g id="node5" class="node">
<title>cmd_test_project_init</title>
<polygon fill="#e3f2fd" stroke="black" points="582.32,-554.6 490.32,-554.6 490.32,-518.6 582.32,-518.6 582.32,-554.6"/>
<text text-anchor="middle" x="536.32" y="-539.6" font-family="Helvetica,sans-Serif" font-size="10.00">test&#45;project&#45;init</text>
<text text-anchor="middle" x="536.32" y="-528.6" font-family="Helvetica,sans-Serif" font-size="10.00">(847 tok)</text>
</g>
<!-- skill_co_self_improve&#45;&gt;cmd_test_project_init -->
<g id="edge2" class="edge">
<title>skill_co_self_improve&#45;&gt;cmd_test_project_init</title>
<path fill="none" stroke="black" d="M82.08,-302.99C90.07,-358.25 119.8,-505.55 214.98,-565.6 298.37,-618.21 419.11,-584.45 486.02,-558.44"/>
<polygon fill="black" stroke="black" points="487.49,-561.62 495.49,-554.67 484.9,-555.11 487.49,-561.62"/>
</g>
<!-- cmd_test_project_reset -->
<g id="node6" class="node">
<title>cmd_test_project_reset</title>
<polygon fill="#e3f2fd" stroke="black" points="586.82,-496.6 485.82,-496.6 485.82,-460.6 586.82,-460.6 586.82,-496.6"/>
<text text-anchor="middle" x="536.32" y="-481.6" font-family="Helvetica,sans-Serif" font-size="10.00">test&#45;project&#45;reset</text>
<text text-anchor="middle" x="536.32" y="-470.6" font-family="Helvetica,sans-Serif" font-size="10.00">(443 tok)</text>
</g>
<!-- skill_co_self_improve&#45;&gt;cmd_test_project_reset -->
<g id="edge3" class="edge">
<title>skill_co_self_improve&#45;&gt;cmd_test_project_reset</title>
<path fill="none" stroke="black" d="M100.76,-302.04C126.07,-325.34 170.53,-363.1 214.98,-385.6 300.61,-428.95 409.64,-455.15 475.87,-468.23"/>
<polygon fill="black" stroke="black" points="475.24,-471.68 485.72,-470.15 476.57,-464.8 475.24,-471.68"/>
</g>
<!-- cmd_test_project_scenario_load -->
<g id="node7" class="node">
<title>cmd_test_project_scenario_load</title>
<polygon fill="#e3f2fd" stroke="black" points="607.82,-438.6 464.82,-438.6 464.82,-402.6 607.82,-402.6 607.82,-438.6"/>
<text text-anchor="middle" x="536.32" y="-423.6" font-family="Helvetica,sans-Serif" font-size="10.00">test&#45;project&#45;scenario&#45;load</text>
<text text-anchor="middle" x="536.32" y="-412.6" font-family="Helvetica,sans-Serif" font-size="10.00">(861 tok)</text>
</g>
<!-- skill_co_self_improve&#45;&gt;cmd_test_project_scenario_load -->
<g id="edge4" class="edge">
<title>skill_co_self_improve&#45;&gt;cmd_test_project_scenario_load</title>
<path fill="none" stroke="black" d="M115.51,-300.4C142.37,-313.84 180.26,-331.61 214.98,-343.6 294.82,-371.17 389.14,-392.55 454.67,-405.71"/>
<polygon fill="black" stroke="black" points="454.03,-409.16 464.52,-407.68 455.4,-402.29 454.03,-409.16"/>
</g>
<!-- skill_workflow_observe_loop -->
<g id="node10" class="node">
<title>skill_workflow_observe_loop</title>
<ellipse fill="none" stroke="black" cx="307.4" cy="-536.6" rx="92.34" ry="18"/>
<text text-anchor="middle" x="307.4" y="-534.1" font-family="Helvetica,sans-Serif" font-size="10.00">skill_workflow_observe_loop</text>
</g>
<!-- skill_co_self_improve&#45;&gt;skill_workflow_observe_loop -->
<g id="edge1" class="edge">
<title>skill_co_self_improve&#45;&gt;skill_workflow_observe_loop</title>
<path fill="none" stroke="black" d="M89.27,-302.76C108.57,-342.67 154.91,-430.01 214.98,-485.6 227.68,-497.35 243.58,-507.42 258.55,-515.43"/>
<polygon fill="black" stroke="black" points="257.22,-518.68 267.71,-520.15 260.42,-512.46 257.22,-518.68"/>
</g>
<!-- cmd_observe_retrospective -->
<g id="node11" class="node">
<title>cmd_observe_retrospective</title>
<ellipse fill="none" stroke="black" cx="774.88" cy="-246.6" rx="89.45" ry="18"/>
<text text-anchor="middle" x="774.88" y="-244.1" font-family="Helvetica,sans-Serif" font-size="10.00">cmd_observe_retrospective</text>
</g>
<!-- skill_co_self_improve&#45;&gt;cmd_observe_retrospective -->
<g id="edge8" class="edge">
<title>skill_co_self_improve&#45;&gt;cmd_observe_retrospective</title>
<path fill="none" stroke="black" d="M136.03,-267C233.56,-243.58 439.8,-201.77 614.82,-217.6 644.57,-220.29 677.08,-225.75 704.91,-231.22"/>
<polygon fill="black" stroke="black" points="704.44,-234.7 714.93,-233.23 705.82,-227.83 704.44,-234.7"/>
</g>
<!-- agent_observer_evaluator -->
<g id="node12" class="node">
<title>agent_observer_evaluator</title>
<ellipse fill="none" stroke="black" cx="1019.71" cy="-246.6" rx="84.54" ry="18"/>
<text text-anchor="middle" x="1019.71" y="-244.1" font-family="Helvetica,sans-Serif" font-size="10.00">agent_observer_evaluator</text>
</g>
<!-- skill_co_self_improve&#45;&gt;agent_observer_evaluator -->
<g id="edge9" class="edge">
<title>skill_co_self_improve&#45;&gt;agent_observer_evaluator</title>
<path fill="none" stroke="black" stroke-dasharray="5,2" d="M110.97,-262.17C137.58,-246.89 177.3,-226.7 214.98,-217.6 500.95,-148.49 584.72,-183.5 876.94,-217.6 902.16,-220.54 929.56,-225.68 953.49,-230.82"/>
<polygon fill="black" stroke="black" points="953,-234.3 963.52,-233.02 954.5,-227.46 953,-234.3"/>
</g>
<!-- skill_test_scenario_catalog -->
<g id="node13" class="node">
<title>skill_test_scenario_catalog</title>
<ellipse fill="none" stroke="black" cx="1250.19" cy="-246.6" rx="87.92" ry="18"/>
<text text-anchor="middle" x="1250.19" y="-244.1" font-family="Helvetica,sans-Serif" font-size="10.00">skill_test_scenario_catalog</text>
</g>
<!-- skill_co_self_improve&#45;&gt;skill_test_scenario_catalog -->
<g id="edge10" class="edge">
<title>skill_co_self_improve&#45;&gt;skill_test_scenario_catalog</title>
<path fill="none" stroke="black" d="M100.65,-261.2C125.87,-238.03 170.24,-200.69 214.98,-179.6 347.42,-117.15 388.89,-102.6 535.32,-102.6 535.32,-102.6 535.32,-102.6 775.88,-102.6 942.19,-102.6 1127.69,-184.98 1208.21,-225.12"/>
<polygon fill="black" stroke="black" points="1206.99,-228.43 1217.5,-229.8 1210.14,-222.17 1206.99,-228.43"/>
</g>
<!-- skill_observation_pattern_catalog -->
<g id="node14" class="node">
<title>skill_observation_pattern_catalog</title>
<ellipse fill="none" stroke="black" cx="1503.04" cy="-246.6" rx="107.27" ry="18"/>
<text text-anchor="middle" x="1503.04" y="-244.1" font-family="Helvetica,sans-Serif" font-size="10.00">skill_observation_pattern_catalog</text>
</g>
<!-- skill_co_self_improve&#45;&gt;skill_observation_pattern_catalog -->
<g id="edge11" class="edge">
<title>skill_co_self_improve&#45;&gt;skill_observation_pattern_catalog</title>
<path fill="none" stroke="black" d="M89.23,-260.54C107.82,-222.93 152.18,-144.69 214.98,-107.6 339.11,-34.28 391.15,-56.6 535.32,-56.6 535.32,-56.6 535.32,-56.6 1020.71,-56.6 1200.27,-56.6 1392.86,-172.42 1468.67,-223.2"/>
<polygon fill="black" stroke="black" points="1467.08,-226.36 1477.32,-229.06 1471,-220.56 1467.08,-226.36"/>
</g>
<!-- skill_load_test_baselines -->
<g id="node15" class="node">
<title>skill_load_test_baselines</title>
<ellipse fill="none" stroke="black" cx="1750" cy="-246.6" rx="81.65" ry="18"/>
<text text-anchor="middle" x="1750" y="-244.1" font-family="Helvetica,sans-Serif" font-size="10.00">skill_load_test_baselines</text>
</g>
<!-- skill_co_self_improve&#45;&gt;skill_load_test_baselines -->
<g id="edge12" class="edge">
<title>skill_co_self_improve&#45;&gt;skill_load_test_baselines</title>
<path fill="none" stroke="black" d="M84.87,-260.4C98.06,-213.28 136.75,-99.97 214.98,-48.6 334.82,30.1 391.95,-10.6 535.32,-10.6 535.32,-10.6 535.32,-10.6 1251.19,-10.6 1447.35,-10.6 1648.72,-162.07 1721.04,-222.31"/>
<polygon fill="black" stroke="black" points="1718.92,-225.1 1728.82,-228.86 1723.42,-219.74 1718.92,-225.1"/>
</g>
<!-- cmd_observe_once&#45;&gt;cmd_problem_detect -->
<!-- script_observe_wrapper -->
<g id="node8" class="node">
<title>script_observe_wrapper</title>
<polygon fill="#ff9800" stroke="black" points="855.55,-431.6 815.21,-456.09 734.55,-456.09 694.21,-431.6 734.55,-407.11 815.21,-407.11 855.55,-431.6"/>
<text text-anchor="middle" x="774.88" y="-434.6" font-family="Helvetica,sans-Serif" font-size="10.00">observe&#45;wrapper</text>
<text text-anchor="middle" x="774.88" y="-423.6" font-family="Helvetica,sans-Serif" font-size="10.00">(122 tok)</text>
</g>
<!-- cmd_observe_once&#45;&gt;script_observe_wrapper -->
<g id="edge13" class="edge">
<title>cmd_observe_once&#45;&gt;script_observe_wrapper</title>
<path fill="none" stroke="black" d="M577.98,-374.46C614.38,-385.08 668.34,-400.81 710.41,-413.09"/>
<polygon fill="black" stroke="black" points="709.44,-416.45 720.02,-415.89 711.4,-409.73 709.44,-416.45"/>
</g>
<!-- script_session_state_wrapper -->
<g id="node9" class="node">
<title>script_session_state_wrapper</title>
<polygon fill="#ff9800" stroke="black" points="877,-360.6 825.94,-385.09 723.82,-385.09 672.76,-360.6 723.82,-336.11 825.94,-336.11 877,-360.6"/>
<text text-anchor="middle" x="774.88" y="-363.6" font-family="Helvetica,sans-Serif" font-size="10.00">session&#45;state&#45;wrapper</text>
<text text-anchor="middle" x="774.88" y="-352.6" font-family="Helvetica,sans-Serif" font-size="10.00">(126 tok)</text>
</g>
<!-- cmd_observe_once&#45;&gt;script_session_state_wrapper -->
<g id="edge14" class="edge">
<title>cmd_observe_once&#45;&gt;script_session_state_wrapper</title>
<path fill="none" stroke="black" d="M577.98,-362.25C601.9,-362.05 633.39,-361.78 664.12,-361.53"/>
<polygon fill="black" stroke="black" points="664.53,-365.02 674.5,-361.44 664.47,-358.02 664.53,-365.02"/>
</g>
<!-- cmd_problem_detect&#45;&gt;cmd_issue_draft_from_observation -->
<!-- cmd_problem_detect&#45;&gt;skill_observation_pattern_catalog -->
<g id="edge15" class="edge">
<title>cmd_problem_detect&#45;&gt;skill_observation_pattern_catalog</title>
<path fill="none" stroke="black" d="M582.61,-305.15C704.86,-306.17 1051.6,-305.93 1337.9,-275.6 1366.6,-272.56 1397.86,-267.48 1425.32,-262.42"/>
<polygon fill="black" stroke="black" points="1426.07,-265.84 1435.25,-260.56 1424.78,-258.96 1426.07,-265.84"/>
</g>
<!-- cmd_issue_draft_from_observation&#45;&gt;cmd_observe_retrospective -->
<!-- cmd_test_project_init&#45;&gt;cmd_test_project_reset -->
<!-- cmd_test_project_reset&#45;&gt;cmd_test_project_scenario_load -->
<!-- cmd_test_project_scenario_load&#45;&gt;cmd_observe_once -->
<!-- script_observe_wrapper&#45;&gt;script_session_state_wrapper -->
<!-- skill_workflow_observe_loop&#45;&gt;cmd_test_project_init -->
<!-- cmd_observe_retrospective&#45;&gt;agent_observer_evaluator -->
<!-- agent_observer_evaluator&#45;&gt;skill_test_scenario_catalog -->
<!-- skill_test_scenario_catalog&#45;&gt;skill_observation_pattern_catalog -->
<!-- skill_observation_pattern_catalog&#45;&gt;skill_load_test_baselines -->
</g>
</svg>
