<?xml version="1.0" encoding="UTF-8" standalone="no"?>
<!DOCTYPE svg PUBLIC "-//W3C//DTD SVG 1.1//EN"
 "http://www.w3.org/Graphics/SVG/1.1/DTD/svg11.dtd">
<!-- Generated by graphviz version 2.43.0 (0)
 -->
<!-- Title: Dependencies Pages: 1 -->
<svg width="278pt" height="183pt"
 viewBox="0.00 0.00 277.76 183.00" xmlns="http://www.w3.org/2000/svg" xmlns:xlink="http://www.w3.org/1999/xlink">
<g id="graph0" class="graph" transform="scale(1 1) rotate(0) translate(4 179)">
<title>Dependencies</title>
<polygon fill="white" stroke="transparent" points="-4,4 -4,-179 273.76,-179 273.76,4 -4,4"/>
<text text-anchor="middle" x="134.88" y="-159.8" font-family="Helvetica,sans-Serif" font-size="14.00">workflow&#45;pr&#45;fix</text>
<!-- skill_workflow_pr_fix -->
<g id="node1" class="node">
<title>skill_workflow_pr_fix</title>
<ellipse fill="#e8f5e9" stroke="black" cx="67.88" cy="-76" rx="67.76" ry="21.43"/>
<text text-anchor="middle" x="67.88" y="-79" font-family="Helvetica,sans-Serif" font-size="10.00">twl:workflow&#45;pr&#45;fix</text>
<text text-anchor="middle" x="67.88" y="-68" font-family="Helvetica,sans-Serif" font-size="10.00">(863 tok)</text>
</g>
<!-- cmd_post_fix_verify -->
<g id="node2" class="node">
<title>cmd_post_fix_verify</title>
<polygon fill="#e3f2fd" stroke="black" points="269.76,-94 193.76,-94 193.76,-58 269.76,-58 269.76,-94"/>
<text text-anchor="middle" x="231.76" y="-79" font-family="Helvetica,sans-Serif" font-size="10.00">post&#45;fix&#45;verify</text>
<text text-anchor="middle" x="231.76" y="-68" font-family="Helvetica,sans-Serif" font-size="10.00">(353 tok)</text>
</g>
<!-- skill_workflow_pr_fix&#45;&gt;cmd_post_fix_verify -->
<g id="edge2" class="edge">
<title>skill_workflow_pr_fix&#45;&gt;cmd_post_fix_verify</title>
<path fill="none" stroke="black" d="M136.13,-76C151.93,-76 168.44,-76 183.17,-76"/>
<polygon fill="black" stroke="black" points="183.54,-79.5 193.54,-76 183.54,-72.5 183.54,-79.5"/>
</g>
<!-- cmd_warning_fix -->
<g id="node3" class="node">
<title>cmd_warning_fix</title>
<polygon fill="#e3f2fd" stroke="black" points="263.76,-36 199.76,-36 199.76,0 263.76,0 263.76,-36"/>
<text text-anchor="middle" x="231.76" y="-21" font-family="Helvetica,sans-Serif" font-size="10.00">warning&#45;fix</text>
<text text-anchor="middle" x="231.76" y="-10" font-family="Helvetica,sans-Serif" font-size="10.00">(363 tok)</text>
</g>
<!-- skill_workflow_pr_fix&#45;&gt;cmd_warning_fix -->
<g id="edge3" class="edge">
<title>skill_workflow_pr_fix&#45;&gt;cmd_warning_fix</title>
<path fill="none" stroke="black" d="M113.12,-60.15C137.12,-51.55 166.58,-41 190.02,-32.6"/>
<polygon fill="black" stroke="black" points="191.43,-35.81 199.66,-29.14 189.07,-29.22 191.43,-35.81"/>
</g>
<!-- cmd_fix_phase -->
<g id="node4" class="node">
<title>cmd_fix_phase</title>
<polygon fill="#bbdefb" stroke="black" points="259.76,-152 203.76,-152 203.76,-116 259.76,-116 259.76,-152"/>
<text text-anchor="middle" x="231.76" y="-137" font-family="Helvetica,sans-Serif" font-size="10.00">fix&#45;phase</text>
<text text-anchor="middle" x="231.76" y="-126" font-family="Helvetica,sans-Serif" font-size="10.00">(528 tok)</text>
</g>
<!-- skill_workflow_pr_fix&#45;&gt;cmd_fix_phase -->
<g id="edge1" class="edge">
<title>skill_workflow_pr_fix&#45;&gt;cmd_fix_phase</title>
<path fill="none" stroke="black" d="M113.12,-91.85C138.46,-100.93 169.89,-112.19 193.89,-120.79"/>
<polygon fill="black" stroke="black" points="192.75,-124.1 203.35,-124.18 195.12,-117.51 192.75,-124.1"/>
</g>
<!-- cmd_post_fix_verify&#45;&gt;cmd_warning_fix -->
<!-- cmd_fix_phase&#45;&gt;cmd_post_fix_verify -->
</g>
</svg>
