<?xml version="1.0" encoding="UTF-8" standalone="no"?>
<!DOCTYPE svg PUBLIC "-//W3C//DTD SVG 1.1//EN"
 "http://www.w3.org/Graphics/SVG/1.1/DTD/svg11.dtd">
<!-- Generated by graphviz version 2.43.0 (0)
 -->
<!-- Title: Dependencies Pages: 1 -->
<svg width="704pt" height="802pt"
 viewBox="0.00 0.00 704.22 802.28" xmlns="http://www.w3.org/2000/svg" xmlns:xlink="http://www.w3.org/1999/xlink">
<g id="graph0" class="graph" transform="scale(1 1) rotate(0) translate(4 798.28)">
<title>Dependencies</title>
<polygon fill="white" stroke="transparent" points="-4,4 -4,-798.28 700.22,-798.28 700.22,4 -4,4"/>
<text text-anchor="middle" x="348.11" y="-779.08" font-family="Helvetica,sans-Serif" font-size="14.00">co&#45;issue</text>
<!-- skill_co_issue -->
<g id="node1" class="node">
<title>skill_co_issue</title>
<ellipse fill="#c8e6c9" stroke="black" cx="48.79" cy="-453" rx="48.58" ry="21.43"/>
<text text-anchor="middle" x="48.79" y="-456" font-family="Helvetica,sans-Serif" font-size="10.00">twl:co&#45;issue</text>
<text text-anchor="middle" x="48.79" y="-445" font-family="Helvetica,sans-Serif" font-size="10.00">(1,366 tok)</text>
</g>
<!-- skill_ref_issue_template_bug -->
<g id="node2" class="node">
<title>skill_ref_issue_template_bug</title>
<polygon fill="#e1f5fe" stroke="black" points="683.22,-731 560.22,-731 560.22,-695 689.22,-695 689.22,-725 683.22,-731"/>
<polyline fill="none" stroke="black" points="683.22,-731 683.22,-725 "/>
<polyline fill="none" stroke="black" points="689.22,-725 683.22,-725 "/>
<text text-anchor="middle" x="624.72" y="-716" font-family="Helvetica,sans-Serif" font-size="10.00">twl:ref&#45;issue&#45;template&#45;bug</text>
<text text-anchor="middle" x="624.72" y="-705" font-family="Helvetica,sans-Serif" font-size="10.00">(136 tok)</text>
</g>
<!-- skill_co_issue&#45;&gt;skill_ref_issue_template_bug -->
<g id="edge12" class="edge">
<title>skill_co_issue&#45;&gt;skill_ref_issue_template_bug</title>
<path fill="none" stroke="black" d="M50.67,-474.58C54.13,-527.5 71.21,-663.6 155.58,-721 279.72,-805.46 468.43,-763.87 563.91,-734.16"/>
<polygon fill="black" stroke="black" points="565.22,-737.42 573.69,-731.06 563.1,-730.75 565.22,-737.42"/>
</g>
<!-- skill_ref_issue_template_feature -->
<g id="node3" class="node">
<title>skill_ref_issue_template_feature</title>
<polygon fill="#e1f5fe" stroke="black" points="690.22,-673 553.22,-673 553.22,-637 696.22,-637 696.22,-667 690.22,-673"/>
<polyline fill="none" stroke="black" points="690.22,-673 690.22,-667 "/>
<polyline fill="none" stroke="black" points="696.22,-667 690.22,-667 "/>
<text text-anchor="middle" x="624.72" y="-658" font-family="Helvetica,sans-Serif" font-size="10.00">twl:ref&#45;issue&#45;template&#45;feature</text>
<text text-anchor="middle" x="624.72" y="-647" font-family="Helvetica,sans-Serif" font-size="10.00">(120 tok)</text>
</g>
<!-- skill_co_issue&#45;&gt;skill_ref_issue_template_feature -->
<g id="edge13" class="edge">
<title>skill_co_issue&#45;&gt;skill_ref_issue_template_feature</title>
<path fill="none" stroke="black" d="M51.59,-474.44C57.02,-523.81 78.03,-645.18 155.58,-696 217.41,-736.52 426.29,-699.13 543.04,-673.82"/>
<polygon fill="black" stroke="black" points="543.99,-677.2 553.01,-671.64 542.49,-670.36 543.99,-677.2"/>
</g>
<!-- skill_ref_project_model -->
<g id="node4" class="node">
<title>skill_ref_project_model</title>
<polygon fill="#e1f5fe" stroke="black" points="671.22,-615 572.22,-615 572.22,-579 677.22,-579 677.22,-609 671.22,-615"/>
<polyline fill="none" stroke="black" points="671.22,-615 671.22,-609 "/>
<polyline fill="none" stroke="black" points="677.22,-609 671.22,-609 "/>
<text text-anchor="middle" x="624.72" y="-600" font-family="Helvetica,sans-Serif" font-size="10.00">twl:ref&#45;project&#45;model</text>
<text text-anchor="middle" x="624.72" y="-589" font-family="Helvetica,sans-Serif" font-size="10.00">(2,158 tok)</text>
</g>
<!-- skill_co_issue&#45;&gt;skill_ref_project_model -->
<g id="edge14" class="edge">
<title>skill_co_issue&#45;&gt;skill_ref_project_model</title>
<path fill="none" stroke="black" d="M52.57,-474.19C59.86,-520.07 84.18,-628.11 155.58,-673 222.31,-714.96 451.1,-651.64 562.2,-617.05"/>
<polygon fill="black" stroke="black" points="563.43,-620.33 571.93,-614 561.34,-613.65 563.43,-620.33"/>
</g>
<!-- skill_ref_issue_quality_criteria -->
<g id="node5" class="node">
<title>skill_ref_issue_quality_criteria</title>
<polygon fill="#e1f5fe" stroke="black" points="685.72,-557 557.72,-557 557.72,-521 691.72,-521 691.72,-551 685.72,-557"/>
<polyline fill="none" stroke="black" points="685.72,-557 685.72,-551 "/>
<polyline fill="none" stroke="black" points="691.72,-551 685.72,-551 "/>
<text text-anchor="middle" x="624.72" y="-542" font-family="Helvetica,sans-Serif" font-size="10.00">twl:ref&#45;issue&#45;quality&#45;criteria</text>
<text text-anchor="middle" x="624.72" y="-531" font-family="Helvetica,sans-Serif" font-size="10.00">(1,002 tok)</text>
</g>
<!-- skill_co_issue&#45;&gt;skill_ref_issue_quality_criteria -->
<g id="edge15" class="edge">
<title>skill_co_issue&#45;&gt;skill_ref_issue_quality_criteria</title>
<path fill="none" stroke="black" d="M53.77,-474.38C63,-517.01 90.23,-611.82 155.58,-651 221.52,-690.53 422.17,-608.98 495.22,-585 518.36,-577.4 543.63,-568.49 565.59,-560.54"/>
<polygon fill="black" stroke="black" points="566.91,-563.79 575.11,-557.09 564.52,-557.21 566.91,-563.79"/>
</g>
<!-- skill_ref_glossary_criteria -->
<g id="node6" class="node">
<title>skill_ref_glossary_criteria</title>
<polygon fill="#e1f5fe" stroke="black" points="676.72,-499 566.72,-499 566.72,-463 682.72,-463 682.72,-493 676.72,-499"/>
<polyline fill="none" stroke="black" points="676.72,-499 676.72,-493 "/>
<polyline fill="none" stroke="black" points="682.72,-493 676.72,-493 "/>
<text text-anchor="middle" x="624.72" y="-484" font-family="Helvetica,sans-Serif" font-size="10.00">twl:ref&#45;glossary&#45;criteria</text>
<text text-anchor="middle" x="624.72" y="-473" font-family="Helvetica,sans-Serif" font-size="10.00">(873 tok)</text>
</g>
<!-- skill_co_issue&#45;&gt;skill_ref_glossary_criteria -->
<g id="edge16" class="edge">
<title>skill_co_issue&#45;&gt;skill_ref_glossary_criteria</title>
<path fill="none" stroke="black" d="M55.31,-474.25C66.65,-512.91 96.57,-593.82 155.58,-627 201.68,-652.92 222.73,-637.44 274.58,-627 282.81,-625.34 545.46,-513.22 553.22,-510 558.7,-507.72 564.42,-505.35 570.13,-502.99"/>
<polygon fill="black" stroke="black" points="571.78,-506.1 579.69,-499.05 569.12,-499.63 571.78,-506.1"/>
</g>
<!-- cmd_issue_structure -->
<g id="node7" class="node">
<title>cmd_issue_structure</title>
<polygon fill="#e3f2fd" stroke="black" points="255.58,-558 174.58,-558 174.58,-522 255.58,-522 255.58,-558"/>
<text text-anchor="middle" x="215.08" y="-543" font-family="Helvetica,sans-Serif" font-size="10.00">issue&#45;structure</text>
<text text-anchor="middle" x="215.08" y="-532" font-family="Helvetica,sans-Serif" font-size="10.00">(1,608 tok)</text>
</g>
<!-- skill_co_issue&#45;&gt;cmd_issue_structure -->
<g id="edge2" class="edge">
<title>skill_co_issue&#45;&gt;cmd_issue_structure</title>
<path fill="none" stroke="black" d="M79.25,-469.58C100.38,-481.36 129.58,-497.44 155.58,-511 159.59,-513.09 163.77,-515.24 167.97,-517.36"/>
<polygon fill="black" stroke="black" points="166.63,-520.61 177.14,-521.98 169.78,-514.36 166.63,-520.61"/>
</g>
<!-- cmd_issue_create -->
<g id="node8" class="node">
<title>cmd_issue_create</title>
<polygon fill="#e3f2fd" stroke="black" points="250.08,-442 180.08,-442 180.08,-406 250.08,-406 250.08,-442"/>
<text text-anchor="middle" x="215.08" y="-427" font-family="Helvetica,sans-Serif" font-size="10.00">issue&#45;create</text>
<text text-anchor="middle" x="215.08" y="-416" font-family="Helvetica,sans-Serif" font-size="10.00">(985 tok)</text>
</g>
<!-- skill_co_issue&#45;&gt;cmd_issue_create -->
<g id="edge4" class="edge">
<title>skill_co_issue&#45;&gt;cmd_issue_create</title>
<path fill="none" stroke="black" d="M94.25,-445.15C117.76,-441 146.53,-435.92 169.98,-431.78"/>
<polygon fill="black" stroke="black" points="170.77,-435.2 180.01,-430.01 169.56,-428.31 170.77,-435.2"/>
</g>
<!-- cmd_issue_bulk_create -->
<g id="node9" class="node">
<title>cmd_issue_bulk_create</title>
<polygon fill="#e3f2fd" stroke="black" points="260.58,-384 169.58,-384 169.58,-348 260.58,-348 260.58,-384"/>
<text text-anchor="middle" x="215.08" y="-369" font-family="Helvetica,sans-Serif" font-size="10.00">issue&#45;bulk&#45;create</text>
<text text-anchor="middle" x="215.08" y="-358" font-family="Helvetica,sans-Serif" font-size="10.00">(1,667 tok)</text>
</g>
<!-- skill_co_issue&#45;&gt;cmd_issue_bulk_create -->
<g id="edge5" class="edge">
<title>skill_co_issue&#45;&gt;cmd_issue_bulk_create</title>
<path fill="none" stroke="black" d="M79.25,-436.42C100.38,-424.64 129.58,-408.56 155.58,-395 159.59,-392.91 163.77,-390.76 167.97,-388.64"/>
<polygon fill="black" stroke="black" points="169.78,-391.64 177.14,-384.02 166.63,-385.39 169.78,-391.64"/>
</g>
<!-- cmd_issue_tech_debt_absorb -->
<g id="node10" class="node">
<title>cmd_issue_tech_debt_absorb</title>
<polygon fill="#e3f2fd" stroke="black" points="273.08,-500 157.08,-500 157.08,-464 273.08,-464 273.08,-500"/>
<text text-anchor="middle" x="215.08" y="-485" font-family="Helvetica,sans-Serif" font-size="10.00">issue&#45;tech&#45;debt&#45;absorb</text>
<text text-anchor="middle" x="215.08" y="-474" font-family="Helvetica,sans-Serif" font-size="10.00">(709 tok)</text>
</g>
<!-- skill_co_issue&#45;&gt;cmd_issue_tech_debt_absorb -->
<g id="edge3" class="edge">
<title>skill_co_issue&#45;&gt;cmd_issue_tech_debt_absorb</title>
<path fill="none" stroke="black" d="M94.25,-460.85C110.38,-463.69 128.98,-466.98 146.64,-470.1"/>
<polygon fill="black" stroke="black" points="146.45,-473.62 156.9,-471.91 147.66,-466.72 146.45,-473.62"/>
</g>
<!-- cmd_issue_spec_review -->
<g id="node11" class="node">
<title>cmd_issue_spec_review</title>
<polygon fill="#bbdefb" stroke="black" points="262.58,-326 167.58,-326 167.58,-290 262.58,-290 262.58,-326"/>
<text text-anchor="middle" x="215.08" y="-311" font-family="Helvetica,sans-Serif" font-size="10.00">issue&#45;spec&#45;review</text>
<text text-anchor="middle" x="215.08" y="-300" font-family="Helvetica,sans-Serif" font-size="10.00">(1,069 tok)</text>
</g>
<!-- skill_co_issue&#45;&gt;cmd_issue_spec_review -->
<g id="edge6" class="edge">
<title>skill_co_issue&#45;&gt;cmd_issue_spec_review</title>
<path fill="none" stroke="black" d="M64.39,-432.84C83.26,-407.88 118.14,-365.21 155.58,-337 158.21,-335.02 160.99,-333.12 163.86,-331.3"/>
<polygon fill="black" stroke="black" points="165.82,-334.21 172.65,-326.11 162.26,-328.18 165.82,-334.21"/>
</g>
<!-- cmd_issue_review_aggregate -->
<g id="node12" class="node">
<title>cmd_issue_review_aggregate</title>
<polygon fill="#e3f2fd" stroke="black" points="273.58,-268 156.58,-268 156.58,-232 273.58,-232 273.58,-268"/>
<text text-anchor="middle" x="215.08" y="-253" font-family="Helvetica,sans-Serif" font-size="10.00">issue&#45;review&#45;aggregate</text>
<text text-anchor="middle" x="215.08" y="-242" font-family="Helvetica,sans-Serif" font-size="10.00">(1,137 tok)</text>
</g>
<!-- skill_co_issue&#45;&gt;cmd_issue_review_aggregate -->
<g id="edge7" class="edge">
<title>skill_co_issue&#45;&gt;cmd_issue_review_aggregate</title>
<path fill="none" stroke="black" d="M57.97,-431.92C72.69,-396.32 106.74,-323.81 155.58,-279 157.52,-277.22 159.58,-275.53 161.74,-273.92"/>
<polygon fill="black" stroke="black" points="164.04,-276.59 170.42,-268.12 160.16,-270.77 164.04,-276.59"/>
</g>
<!-- cmd_issue_glossary_check -->
<g id="node13" class="node">
<title>cmd_issue_glossary_check</title>
<polygon fill="#e3f2fd" stroke="black" points="269.58,-210 160.58,-210 160.58,-174 269.58,-174 269.58,-210"/>
<text text-anchor="middle" x="215.08" y="-195" font-family="Helvetica,sans-Serif" font-size="10.00">issue&#45;glossary&#45;check</text>
<text text-anchor="middle" x="215.08" y="-184" font-family="Helvetica,sans-Serif" font-size="10.00">(836 tok)</text>
</g>
<!-- skill_co_issue&#45;&gt;cmd_issue_glossary_check -->
<g id="edge8" class="edge">
<title>skill_co_issue&#45;&gt;cmd_issue_glossary_check</title>
<path fill="none" stroke="black" d="M54.39,-431.7C64.97,-387.27 94.92,-283.66 155.58,-221 157.21,-219.31 158.97,-217.71 160.81,-216.18"/>
<polygon fill="black" stroke="black" points="163.3,-218.71 169.36,-210.02 159.2,-213.03 163.3,-218.71"/>
</g>
<!-- cmd_issue_arch_drift -->
<g id="node14" class="node">
<title>cmd_issue_arch_drift</title>
<polygon fill="#e3f2fd" stroke="black" points="255.58,-152 174.58,-152 174.58,-116 255.58,-116 255.58,-152"/>
<text text-anchor="middle" x="215.08" y="-137" font-family="Helvetica,sans-Serif" font-size="10.00">issue&#45;arch&#45;drift</text>
<text text-anchor="middle" x="215.08" y="-126" font-family="Helvetica,sans-Serif" font-size="10.00">(770 tok)</text>
</g>
<!-- skill_co_issue&#45;&gt;cmd_issue_arch_drift -->
<g id="edge9" class="edge">
<title>skill_co_issue&#45;&gt;cmd_issue_arch_drift</title>
<path fill="none" stroke="black" d="M52.13,-431.67C58.9,-379.58 82.84,-244.26 155.58,-163 158.6,-159.63 162.09,-156.61 165.85,-153.9"/>
<polygon fill="black" stroke="black" points="167.82,-156.8 174.39,-148.49 164.07,-150.89 167.82,-156.8"/>
</g>
<!-- cmd_issue_cross_repo_create -->
<g id="node15" class="node">
<title>cmd_issue_cross_repo_create</title>
<polygon fill="#e3f2fd" stroke="black" points="274.58,-94 155.58,-94 155.58,-58 274.58,-58 274.58,-94"/>
<text text-anchor="middle" x="215.08" y="-79" font-family="Helvetica,sans-Serif" font-size="10.00">issue&#45;cross&#45;repo&#45;create</text>
<text text-anchor="middle" x="215.08" y="-68" font-family="Helvetica,sans-Serif" font-size="10.00">(1,406 tok)</text>
</g>
<!-- skill_co_issue&#45;&gt;cmd_issue_cross_repo_create -->
<g id="edge10" class="edge">
<title>skill_co_issue&#45;&gt;cmd_issue_cross_repo_create</title>
<path fill="none" stroke="black" d="M50.6,-431.45C53.9,-372.32 70.68,-205.22 155.58,-105 156.9,-103.44 158.32,-101.96 159.83,-100.55"/>
<polygon fill="black" stroke="black" points="162.29,-103.06 167.94,-94.1 157.94,-97.58 162.29,-103.06"/>
</g>
<!-- cmd_project_board_sync -->
<g id="node16" class="node">
<title>cmd_project_board_sync</title>
<polygon fill="#e3f2fd" stroke="black" points="263.58,-36 166.58,-36 166.58,0 263.58,0 263.58,-36"/>
<text text-anchor="middle" x="215.08" y="-21" font-family="Helvetica,sans-Serif" font-size="10.00">project&#45;board&#45;sync</text>
<text text-anchor="middle" x="215.08" y="-10" font-family="Helvetica,sans-Serif" font-size="10.00">(2,325 tok)</text>
</g>
<!-- skill_co_issue&#45;&gt;cmd_project_board_sync -->
<g id="edge11" class="edge">
<title>skill_co_issue&#45;&gt;cmd_project_board_sync</title>
<path fill="none" stroke="black" d="M49.46,-431.76C49.54,-366.61 58.15,-166.81 155.58,-47 156.84,-45.45 158.21,-43.98 159.65,-42.57"/>
<polygon fill="black" stroke="black" points="161.97,-45.2 167.49,-36.16 157.54,-39.78 161.97,-45.2"/>
</g>
<!-- cmd_explore -->
<g id="node17" class="node">
<title>cmd_explore</title>
<polygon fill="#e3f2fd" stroke="black" points="246.58,-616 183.58,-616 183.58,-580 246.58,-580 246.58,-616"/>
<text text-anchor="middle" x="215.08" y="-601" font-family="Helvetica,sans-Serif" font-size="10.00">explore</text>
<text text-anchor="middle" x="215.08" y="-590" font-family="Helvetica,sans-Serif" font-size="10.00">(1,490 tok)</text>
</g>
<!-- skill_co_issue&#45;&gt;cmd_explore -->
<g id="edge1" class="edge">
<title>skill_co_issue&#45;&gt;cmd_explore</title>
<path fill="none" stroke="black" d="M64.39,-473.16C83.26,-498.12 118.14,-540.79 155.58,-569 161.24,-573.26 167.62,-577.17 174.03,-580.65"/>
<polygon fill="black" stroke="black" points="172.87,-583.99 183.37,-585.42 176.06,-577.75 172.87,-583.99"/>
</g>
<!-- skill_ref_issue_template_bug&#45;&gt;skill_ref_issue_template_feature -->
<!-- skill_ref_issue_template_feature&#45;&gt;skill_ref_project_model -->
<!-- skill_ref_project_model&#45;&gt;skill_ref_issue_quality_criteria -->
<!-- skill_ref_issue_quality_criteria&#45;&gt;skill_ref_glossary_criteria -->
<!-- cmd_issue_structure&#45;&gt;cmd_issue_tech_debt_absorb -->
<!-- cmd_issue_create&#45;&gt;cmd_issue_bulk_create -->
<!-- cmd_issue_bulk_create&#45;&gt;cmd_issue_spec_review -->
<!-- cmd_issue_tech_debt_absorb&#45;&gt;cmd_issue_create -->
<!-- cmd_issue_spec_review&#45;&gt;cmd_issue_review_aggregate -->
<!-- agent_issue_critic -->
<g id="node18" class="node">
<title>agent_issue_critic</title>
<ellipse fill="#ede7f6" stroke="black" cx="413.9" cy="-464" rx="45.01" ry="21.43"/>
<text text-anchor="middle" x="413.9" y="-467" font-family="Helvetica,sans-Serif" font-size="10.00">issue&#45;critic</text>
<text text-anchor="middle" x="413.9" y="-456" font-family="Helvetica,sans-Serif" font-size="10.00">(1,268 tok)</text>
</g>
<!-- cmd_issue_spec_review&#45;&gt;agent_issue_critic -->
<g id="edge17" class="edge">
<title>cmd_issue_spec_review&#45;&gt;agent_issue_critic</title>
<path fill="none" stroke="black" stroke-dasharray="5,2" d="M259.74,-326.13C265.05,-329.32 270.15,-332.94 274.58,-337 311.06,-370.41 294.77,-400.1 332.58,-432 341.81,-439.79 353.18,-445.84 364.42,-450.48"/>
<polygon fill="black" stroke="black" points="363.19,-453.76 373.79,-454.06 365.69,-447.22 363.19,-453.76"/>
</g>
<!-- agent_issue_feasibility -->
<g id="node19" class="node">
<title>agent_issue_feasibility</title>
<ellipse fill="#ede7f6" stroke="black" cx="413.9" cy="-400" rx="59.29" ry="21.43"/>
<text text-anchor="middle" x="413.9" y="-403" font-family="Helvetica,sans-Serif" font-size="10.00">issue&#45;feasibility</text>
<text text-anchor="middle" x="413.9" y="-392" font-family="Helvetica,sans-Serif" font-size="10.00">(1,175 tok)</text>
</g>
<!-- cmd_issue_spec_review&#45;&gt;agent_issue_feasibility -->
<g id="edge18" class="edge">
<title>cmd_issue_spec_review&#45;&gt;agent_issue_feasibility</title>
<path fill="none" stroke="black" stroke-dasharray="5,2" d="M252.99,-326.08C260.17,-329.66 267.63,-333.42 274.58,-337 300.57,-350.38 306.07,-355.68 332.58,-368 342.17,-372.46 352.57,-376.89 362.61,-380.96"/>
<polygon fill="black" stroke="black" points="361.49,-384.29 372.08,-384.76 364.09,-377.79 361.49,-384.29"/>
</g>
<!-- agent_worker_codex_reviewer -->
<g id="node20" class="node">
<title>agent_worker_codex_reviewer</title>
<ellipse fill="#ede7f6" stroke="black" cx="413.9" cy="-336" rx="81.13" ry="21.43"/>
<text text-anchor="middle" x="413.9" y="-339" font-family="Helvetica,sans-Serif" font-size="10.00">worker&#45;codex&#45;reviewer</text>
<text text-anchor="middle" x="413.9" y="-328" font-family="Helvetica,sans-Serif" font-size="10.00">(1,421 tok)</text>
</g>
<!-- cmd_issue_spec_review&#45;&gt;agent_worker_codex_reviewer -->
<g id="edge19" class="edge">
<title>cmd_issue_spec_review&#45;&gt;agent_worker_codex_reviewer</title>
<path fill="none" stroke="black" stroke-dasharray="5,2" d="M262.72,-314.64C283.41,-317.58 308.37,-321.13 331.94,-324.48"/>
<polygon fill="black" stroke="black" points="331.55,-327.96 341.95,-325.91 332.54,-321.03 331.55,-327.96"/>
</g>
<!-- cmd_issue_review_aggregate&#45;&gt;cmd_issue_glossary_check -->
<!-- cmd_issue_glossary_check&#45;&gt;skill_ref_glossary_criteria -->
<g id="edge20" class="edge">
<title>cmd_issue_glossary_check&#45;&gt;skill_ref_glossary_criteria</title>
<path fill="none" stroke="black" d="M269.71,-203.96C329.49,-219.34 426.75,-250.62 495.22,-304 548.77,-345.76 590.21,-415.56 610.33,-453.84"/>
<polygon fill="black" stroke="black" points="607.28,-455.57 614.98,-462.85 613.51,-452.36 607.28,-455.57"/>
</g>
<!-- cmd_issue_glossary_check&#45;&gt;cmd_issue_arch_drift -->
<!-- cmd_issue_arch_drift&#45;&gt;cmd_issue_cross_repo_create -->
<!-- cmd_issue_cross_repo_create&#45;&gt;cmd_project_board_sync -->
<!-- cmd_project_board_sync&#45;&gt;skill_ref_issue_template_bug -->
<!-- cmd_explore&#45;&gt;cmd_issue_structure -->
<!-- agent_issue_critic&#45;&gt;skill_ref_issue_quality_criteria -->
<g id="edge21" class="edge">
<title>agent_issue_critic&#45;&gt;skill_ref_issue_quality_criteria</title>
<path fill="none" stroke="black" stroke-dasharray="1,5" d="M450.32,-476.72C481.3,-487.85 526.94,-504.24 563.62,-517.42"/>
<polygon fill="black" stroke="black" points="562.63,-520.78 573.22,-520.86 564.99,-514.19 562.63,-520.78"/>
</g>
<!-- agent_issue_critic&#45;&gt;agent_issue_feasibility -->
<!-- agent_issue_feasibility&#45;&gt;skill_ref_issue_quality_criteria -->
<g id="edge22" class="edge">
<title>agent_issue_feasibility&#45;&gt;skill_ref_issue_quality_criteria</title>
<path fill="none" stroke="black" stroke-dasharray="1,5" d="M460.57,-413.19C472.56,-417.94 484.98,-424.13 495.22,-432 529.47,-458.33 519.11,-483.48 553.22,-510 555.96,-512.14 558.89,-514.14 561.93,-516.01"/>
<polygon fill="black" stroke="black" points="560.31,-519.12 570.75,-520.96 563.74,-513.02 560.31,-519.12"/>
</g>
<!-- agent_issue_feasibility&#45;&gt;agent_worker_codex_reviewer -->
<!-- agent_worker_codex_reviewer&#45;&gt;skill_ref_issue_quality_criteria -->
<g id="edge23" class="edge">
<title>agent_worker_codex_reviewer&#45;&gt;skill_ref_issue_quality_criteria</title>
<path fill="none" stroke="black" stroke-dasharray="1,5" d="M470.74,-351.39C479.7,-355.69 488.29,-361.13 495.22,-368 543.63,-416 505.07,-461.73 553.22,-510 555.06,-511.84 557.03,-513.58 559.11,-515.2"/>
<polygon fill="black" stroke="black" points="557.32,-518.22 567.56,-520.97 561.27,-512.44 557.32,-518.22"/>
</g>
</g>
</svg>
