<?xml version="1.0" encoding="UTF-8" standalone="no"?>
<!DOCTYPE svg PUBLIC "-//W3C//DTD SVG 1.1//EN"
 "http://www.w3.org/Graphics/SVG/1.1/DTD/svg11.dtd">
<!-- Generated by graphviz version 2.43.0 (0)
 -->
<!-- Title: Dependencies Pages: 1 -->
<svg width="523pt" height="247pt"
 viewBox="0.00 0.00 523.06 247.49" xmlns="http://www.w3.org/2000/svg" xmlns:xlink="http://www.w3.org/1999/xlink">
<g id="graph0" class="graph" transform="scale(1 1) rotate(0) translate(4 243.49)">
<title>Dependencies</title>
<polygon fill="white" stroke="transparent" points="-4,4 -4,-243.49 519.06,-243.49 519.06,4 -4,4"/>
<text text-anchor="middle" x="257.53" y="-224.29" font-family="Helvetica,sans-Serif" font-size="14.00">workflow&#45;self&#45;improve</text>
<!-- skill_workflow_self_improve -->
<g id="node1" class="node">
<title>skill_workflow_self_improve</title>
<ellipse fill="#e8f5e9" stroke="black" cx="90.51" cy="-111.49" rx="90.52" ry="21.43"/>
<text text-anchor="middle" x="90.51" y="-114.49" font-family="Helvetica,sans-Serif" font-size="10.00">twl:workflow&#45;self&#45;improve</text>
<text text-anchor="middle" x="90.51" y="-103.49" font-family="Helvetica,sans-Serif" font-size="10.00">(728 tok)</text>
</g>
<!-- cmd_self_improve_collect -->
<g id="node2" class="node">
<title>cmd_self_improve_collect</title>
<polygon fill="#e3f2fd" stroke="black" points="343.02,-216.49 242.02,-216.49 242.02,-180.49 343.02,-180.49 343.02,-216.49"/>
<text text-anchor="middle" x="292.52" y="-201.49" font-family="Helvetica,sans-Serif" font-size="10.00">self&#45;improve&#45;collect</text>
<text text-anchor="middle" x="292.52" y="-190.49" font-family="Helvetica,sans-Serif" font-size="10.00">(910 tok)</text>
</g>
<!-- skill_workflow_self_improve&#45;&gt;cmd_self_improve_collect -->
<g id="edge1" class="edge">
<title>skill_workflow_self_improve&#45;&gt;cmd_self_improve_collect</title>
<path fill="none" stroke="black" d="M134.42,-130.16C165.55,-143.7 207.78,-162.07 240.62,-176.36"/>
<polygon fill="black" stroke="black" points="239.49,-179.68 250.05,-180.46 242.28,-173.26 239.49,-179.68"/>
</g>
<!-- cmd_self_improve_propose -->
<g id="node3" class="node">
<title>cmd_self_improve_propose</title>
<polygon fill="#e3f2fd" stroke="black" points="346.02,-158.49 239.02,-158.49 239.02,-122.49 346.02,-122.49 346.02,-158.49"/>
<text text-anchor="middle" x="292.52" y="-143.49" font-family="Helvetica,sans-Serif" font-size="10.00">self&#45;improve&#45;propose</text>
<text text-anchor="middle" x="292.52" y="-132.49" font-family="Helvetica,sans-Serif" font-size="10.00">(1,309 tok)</text>
</g>
<!-- skill_workflow_self_improve&#45;&gt;cmd_self_improve_propose -->
<g id="edge2" class="edge">
<title>skill_workflow_self_improve&#45;&gt;cmd_self_improve_propose</title>
<path fill="none" stroke="black" d="M167.98,-122.58C188.17,-125.51 209.72,-128.63 229.07,-131.44"/>
<polygon fill="black" stroke="black" points="228.57,-134.9 238.97,-132.88 229.58,-127.98 228.57,-134.9"/>
</g>
<!-- cmd_self_improve_close -->
<g id="node4" class="node">
<title>cmd_self_improve_close</title>
<polygon fill="#e3f2fd" stroke="black" points="340.52,-100.49 244.52,-100.49 244.52,-64.49 340.52,-64.49 340.52,-100.49"/>
<text text-anchor="middle" x="292.52" y="-85.49" font-family="Helvetica,sans-Serif" font-size="10.00">self&#45;improve&#45;close</text>
<text text-anchor="middle" x="292.52" y="-74.49" font-family="Helvetica,sans-Serif" font-size="10.00">(691 tok)</text>
</g>
<!-- skill_workflow_self_improve&#45;&gt;cmd_self_improve_close -->
<g id="edge3" class="edge">
<title>skill_workflow_self_improve&#45;&gt;cmd_self_improve_close</title>
<path fill="none" stroke="black" d="M167.98,-100.41C189.96,-97.22 213.55,-93.8 234.17,-90.81"/>
<polygon fill="black" stroke="black" points="234.94,-94.23 244.34,-89.34 233.94,-87.31 234.94,-94.23"/>
</g>
<!-- cmd_ecc_monitor -->
<g id="node5" class="node">
<title>cmd_ecc_monitor</title>
<polygon fill="#e3f2fd" stroke="black" points="326.52,-42.49 258.52,-42.49 258.52,-6.49 326.52,-6.49 326.52,-42.49"/>
<text text-anchor="middle" x="292.52" y="-27.49" font-family="Helvetica,sans-Serif" font-size="10.00">ecc&#45;monitor</text>
<text text-anchor="middle" x="292.52" y="-16.49" font-family="Helvetica,sans-Serif" font-size="10.00">(1,172 tok)</text>
</g>
<!-- skill_workflow_self_improve&#45;&gt;cmd_ecc_monitor -->
<g id="edge4" class="edge">
<title>skill_workflow_self_improve&#45;&gt;cmd_ecc_monitor</title>
<path fill="none" stroke="black" d="M134.42,-92.83C168.16,-78.15 214.95,-57.8 248.68,-43.13"/>
<polygon fill="black" stroke="black" points="250.48,-46.16 258.26,-38.96 247.69,-39.74 250.48,-46.16"/>
</g>
<!-- cmd_self_improve_collect&#45;&gt;cmd_self_improve_propose -->
<!-- cmd_self_improve_propose&#45;&gt;cmd_self_improve_close -->
<!-- cmd_self_improve_close&#45;&gt;cmd_ecc_monitor -->
<!-- script_ecc_monitor -->
<g id="node6" class="node">
<title>script_ecc_monitor</title>
<polygon fill="#ff9800" stroke="black" points="515.08,-24.49 487.31,-48.98 431.77,-48.98 404,-24.49 431.77,-0.01 487.31,-0.01 515.08,-24.49"/>
<text text-anchor="middle" x="459.54" y="-27.49" font-family="Helvetica,sans-Serif" font-size="10.00">ecc&#45;monitor</text>
<text text-anchor="middle" x="459.54" y="-16.49" font-family="Helvetica,sans-Serif" font-size="10.00">(1,137 tok)</text>
</g>
<!-- cmd_ecc_monitor&#45;&gt;script_ecc_monitor -->
<g id="edge5" class="edge">
<title>cmd_ecc_monitor&#45;&gt;script_ecc_monitor</title>
<path fill="none" stroke="black" d="M326.91,-24.49C346.11,-24.49 370.89,-24.49 393.75,-24.49"/>
<polygon fill="black" stroke="black" points="393.76,-27.99 403.76,-24.49 393.76,-20.99 393.76,-27.99"/>
</g>
</g>
</svg>
