<?xml version="1.0" encoding="UTF-8" standalone="no"?>
<!DOCTYPE svg PUBLIC "-//W3C//DTD SVG 1.1//EN"
 "http://www.w3.org/Graphics/SVG/1.1/DTD/svg11.dtd">
<!-- Generated by graphviz version 2.43.0 (0)
 -->
<!-- Title: Dependencies Pages: 1 -->
<svg width="2703pt" height="524pt"
 viewBox="0.00 0.00 2703.18 523.61" xmlns="http://www.w3.org/2000/svg" xmlns:xlink="http://www.w3.org/1999/xlink">
<g id="graph0" class="graph" transform="scale(1 1) rotate(0) translate(4 519.61)">
<title>Dependencies</title>
<polygon fill="white" stroke="transparent" points="-4,4 -4,-519.61 2699.18,-519.61 2699.18,4 -4,4"/>
<text text-anchor="middle" x="1347.59" y="-500.41" font-family="Helvetica,sans-Serif" font-size="14.00">co&#45;self&#45;improve</text>
<!-- skill_co_self_improve -->
<g id="node1" class="node">
<title>skill_co_self_improve</title>
<ellipse fill="#c8e6c9" stroke="black" cx="78.49" cy="-238.61" rx="78.48" ry="21.43"/>
<text text-anchor="middle" x="78.49" y="-241.61" font-family="Helvetica,sans-Serif" font-size="10.00">twl:co&#45;self&#45;improve</text>
<text text-anchor="middle" x="78.49" y="-230.61" font-family="Helvetica,sans-Serif" font-size="10.00">(1,171 tok)</text>
</g>
<!-- skill_workflow_observe_loop -->
<g id="node2" class="node">
<title>skill_workflow_observe_loop</title>
<ellipse fill="none" stroke="black" cx="307.4" cy="-474.61" rx="92.34" ry="18"/>
<text text-anchor="middle" x="307.4" y="-472.11" font-family="Helvetica,sans-Serif" font-size="10.00">skill_workflow_observe_loop</text>
</g>
<!-- skill_co_self_improve&#45;&gt;skill_workflow_observe_loop -->
<g id="edge1" class="edge">
<title>skill_co_self_improve&#45;&gt;skill_workflow_observe_loop</title>
<path fill="none" stroke="black" d="M88.52,-259.95C106.68,-300.49 151.4,-389.06 214.98,-439.61 223.24,-446.18 232.88,-451.62 242.74,-456.1"/>
<polygon fill="black" stroke="black" points="241.65,-459.43 252.23,-460.1 244.37,-452.99 241.65,-459.43"/>
</g>
<!-- cmd_test_project_init -->
<g id="node3" class="node">
<title>cmd_test_project_init</title>
<ellipse fill="none" stroke="black" cx="529.63" cy="-451.61" rx="71.63" ry="18"/>
<text text-anchor="middle" x="529.63" y="-449.11" font-family="Helvetica,sans-Serif" font-size="10.00">cmd_test_project_init</text>
</g>
<!-- skill_co_self_improve&#45;&gt;cmd_test_project_init -->
<g id="edge2" class="edge">
<title>skill_co_self_improve&#45;&gt;cmd_test_project_init</title>
<path fill="none" stroke="black" d="M91.38,-259.66C111.86,-293.79 157.21,-360.71 214.98,-393.61 254.72,-416.24 373.77,-433.81 453.23,-443.43"/>
<polygon fill="black" stroke="black" points="452.85,-446.91 463.2,-444.62 453.68,-439.96 452.85,-446.91"/>
</g>
<!-- cmd_test_project_reset -->
<g id="node4" class="node">
<title>cmd_test_project_reset</title>
<ellipse fill="none" stroke="black" cx="736.57" cy="-451.61" rx="77.23" ry="18"/>
<text text-anchor="middle" x="736.57" y="-449.11" font-family="Helvetica,sans-Serif" font-size="10.00">cmd_test_project_reset</text>
</g>
<!-- skill_co_self_improve&#45;&gt;cmd_test_project_reset -->
<g id="edge3" class="edge">
<title>skill_co_self_improve&#45;&gt;cmd_test_project_reset</title>
<path fill="none" stroke="black" d="M98.89,-259.49C123.43,-284.54 168.15,-325.87 214.98,-347.61 294.33,-384.44 515.75,-405.03 601.45,-422.61 623.81,-427.19 648.23,-432.41 670.02,-437.14"/>
<polygon fill="black" stroke="black" points="669.32,-440.57 679.83,-439.28 670.81,-433.73 669.32,-440.57"/>
</g>
<!-- cmd_test_project_scenario_load -->
<g id="node5" class="node">
<title>cmd_test_project_scenario_load</title>
<ellipse fill="none" stroke="black" cx="973.52" cy="-451.61" rx="101.68" ry="18"/>
<text text-anchor="middle" x="973.52" y="-449.11" font-family="Helvetica,sans-Serif" font-size="10.00">cmd_test_project_scenario_load</text>
</g>
<!-- skill_co_self_improve&#45;&gt;cmd_test_project_scenario_load -->
<g id="edge4" class="edge">
<title>skill_co_self_improve&#45;&gt;cmd_test_project_scenario_load</title>
<path fill="none" stroke="black" d="M114.21,-257.58C141.03,-271.53 179.46,-290.02 214.98,-301.61 279.13,-322.53 710.87,-403.31 892.38,-436.86"/>
<polygon fill="black" stroke="black" points="891.93,-440.34 902.4,-438.71 893.2,-433.46 891.93,-440.34"/>
</g>
<!-- cmd_observe_once -->
<g id="node6" class="node">
<title>cmd_observe_once</title>
<ellipse fill="none" stroke="black" cx="1198.11" cy="-451.61" rx="64.51" ry="18"/>
<text text-anchor="middle" x="1198.11" y="-449.11" font-family="Helvetica,sans-Serif" font-size="10.00">cmd_observe_once</text>
</g>
<!-- skill_co_self_improve&#45;&gt;cmd_observe_once -->
<g id="edge5" class="edge">
<title>skill_co_self_improve&#45;&gt;cmd_observe_once</title>
<path fill="none" stroke="black" d="M145.86,-249.68C233.31,-263.29 392.05,-284.61 528.63,-284.61 528.63,-284.61 528.63,-284.61 737.57,-284.61 905.6,-284.61 1088.54,-384.46 1162.86,-429.74"/>
<polygon fill="black" stroke="black" points="1161.03,-432.72 1171.38,-434.98 1164.7,-426.76 1161.03,-432.72"/>
</g>
<!-- cmd_problem_detect -->
<g id="node7" class="node">
<title>cmd_problem_detect</title>
<ellipse fill="none" stroke="black" cx="1390.92" cy="-451.61" rx="70.1" ry="18"/>
<text text-anchor="middle" x="1390.92" y="-449.11" font-family="Helvetica,sans-Serif" font-size="10.00">cmd_problem_detect</text>
</g>
<!-- skill_co_self_improve&#45;&gt;cmd_problem_detect -->
<g id="edge6" class="edge">
<title>skill_co_self_improve&#45;&gt;cmd_problem_detect</title>
<path fill="none" stroke="black" d="M156.98,-238.61C246.5,-238.61 398.22,-238.61 528.63,-238.61 528.63,-238.61 528.63,-238.61 974.52,-238.61 1138.18,-238.61 1302.11,-371.14 1364.06,-427.12"/>
<polygon fill="black" stroke="black" points="1362.03,-430.01 1371.77,-434.17 1366.76,-424.84 1362.03,-430.01"/>
</g>
<!-- cmd_issue_draft_from_observation -->
<g id="node8" class="node">
<title>cmd_issue_draft_from_observation</title>
<ellipse fill="none" stroke="black" cx="1629.63" cy="-451.61" rx="110.84" ry="18"/>
<text text-anchor="middle" x="1629.63" y="-449.11" font-family="Helvetica,sans-Serif" font-size="10.00">cmd_issue_draft_from_observation</text>
</g>
<!-- skill_co_self_improve&#45;&gt;cmd_issue_draft_from_observation -->
<g id="edge7" class="edge">
<title>skill_co_self_improve&#45;&gt;cmd_issue_draft_from_observation</title>
<path fill="none" stroke="black" d="M145.86,-227.53C233.31,-213.92 392.05,-192.61 528.63,-192.61 528.63,-192.61 528.63,-192.61 1199.11,-192.61 1378.23,-192.61 1546.82,-359.83 1606.15,-425.54"/>
<polygon fill="black" stroke="black" points="1603.89,-428.26 1613.16,-433.39 1609.11,-423.6 1603.89,-428.26"/>
</g>
<!-- agent_observer_evaluator -->
<g id="node9" class="node">
<title>agent_observer_evaluator</title>
<ellipse fill="none" stroke="black" cx="1883.07" cy="-451.61" rx="84.54" ry="18"/>
<text text-anchor="middle" x="1883.07" y="-449.11" font-family="Helvetica,sans-Serif" font-size="10.00">agent_observer_evaluator</text>
</g>
<!-- skill_co_self_improve&#45;&gt;agent_observer_evaluator -->
<g id="edge8" class="edge">
<title>skill_co_self_improve&#45;&gt;agent_observer_evaluator</title>
<path fill="none" stroke="black" stroke-dasharray="5,2" d="M124.05,-221.19C150.19,-211.55 184.07,-200.05 214.98,-192.61 351.95,-159.6 387.74,-146.61 528.63,-146.61 528.63,-146.61 528.63,-146.61 1391.92,-146.61 1602.78,-146.61 1798.11,-352.61 1861.02,-426.01"/>
<polygon fill="black" stroke="black" points="1858.56,-428.52 1867.7,-433.89 1863.9,-424 1858.56,-428.52"/>
</g>
<!-- skill_test_scenario_catalog -->
<g id="node10" class="node">
<title>skill_test_scenario_catalog</title>
<ellipse fill="none" stroke="black" cx="2113.55" cy="-451.61" rx="87.92" ry="18"/>
<text text-anchor="middle" x="2113.55" y="-449.11" font-family="Helvetica,sans-Serif" font-size="10.00">skill_test_scenario_catalog</text>
</g>
<!-- skill_co_self_improve&#45;&gt;skill_test_scenario_catalog -->
<g id="edge9" class="edge">
<title>skill_co_self_improve&#45;&gt;skill_test_scenario_catalog</title>
<path fill="none" stroke="black" d="M102.62,-218.31C128.23,-197.03 171.65,-164.41 214.98,-147.61 346.39,-96.62 387.68,-100.61 528.63,-100.61 528.63,-100.61 528.63,-100.61 1630.63,-100.61 1850.89,-100.61 2037.96,-343.14 2094.83,-424.99"/>
<polygon fill="black" stroke="black" points="2092.27,-427.45 2100.82,-433.72 2098.04,-423.49 2092.27,-427.45"/>
</g>
<!-- skill_observation_pattern_catalog -->
<g id="node11" class="node">
<title>skill_observation_pattern_catalog</title>
<ellipse fill="none" stroke="black" cx="2366.4" cy="-451.61" rx="107.27" ry="18"/>
<text text-anchor="middle" x="2366.4" y="-449.11" font-family="Helvetica,sans-Serif" font-size="10.00">skill_observation_pattern_catalog</text>
</g>
<!-- skill_co_self_improve&#45;&gt;skill_observation_pattern_catalog -->
<g id="edge10" class="edge">
<title>skill_co_self_improve&#45;&gt;skill_observation_pattern_catalog</title>
<path fill="none" stroke="black" d="M92.53,-217.72C113.8,-185.63 159.26,-124.98 214.98,-96.61 340.31,-32.78 387.99,-54.61 528.63,-54.61 528.63,-54.61 528.63,-54.61 1884.07,-54.61 2117.37,-54.61 2298.8,-335.61 2350.51,-424.79"/>
<polygon fill="black" stroke="black" points="2347.5,-426.58 2355.51,-433.52 2353.57,-423.1 2347.5,-426.58"/>
</g>
<!-- skill_load_test_baselines -->
<g id="node12" class="node">
<title>skill_load_test_baselines</title>
<ellipse fill="none" stroke="black" cx="2613.36" cy="-451.61" rx="81.65" ry="18"/>
<text text-anchor="middle" x="2613.36" y="-449.11" font-family="Helvetica,sans-Serif" font-size="10.00">skill_load_test_baselines</text>
</g>
<!-- skill_co_self_improve&#45;&gt;skill_load_test_baselines -->
<g id="edge11" class="edge">
<title>skill_co_self_improve&#45;&gt;skill_load_test_baselines</title>
<path fill="none" stroke="black" d="M87.48,-217.29C104.13,-176.16 146.78,-86.31 214.98,-45.61 335.51,26.33 388.27,-8.61 528.63,-8.61 528.63,-8.61 528.63,-8.61 2114.55,-8.61 2366.21,-8.61 2549.62,-328.46 2599.06,-424.6"/>
<polygon fill="black" stroke="black" points="2596.03,-426.36 2603.68,-433.69 2602.27,-423.19 2596.03,-426.36"/>
</g>
<!-- skill_workflow_observe_loop&#45;&gt;cmd_test_project_init -->
<!-- cmd_test_project_init&#45;&gt;cmd_test_project_reset -->
<!-- cmd_test_project_reset&#45;&gt;cmd_test_project_scenario_load -->
<!-- cmd_test_project_scenario_load&#45;&gt;cmd_observe_once -->
<!-- cmd_observe_once&#45;&gt;cmd_problem_detect -->
<!-- cmd_problem_detect&#45;&gt;cmd_issue_draft_from_observation -->
<!-- cmd_issue_draft_from_observation&#45;&gt;agent_observer_evaluator -->
<!-- agent_observer_evaluator&#45;&gt;skill_test_scenario_catalog -->
<!-- skill_test_scenario_catalog&#45;&gt;skill_observation_pattern_catalog -->
<!-- skill_observation_pattern_catalog&#45;&gt;skill_load_test_baselines -->
</g>
</svg>
