<?xml version="1.0" encoding="UTF-8" standalone="no"?>
<!DOCTYPE svg PUBLIC "-//W3C//DTD SVG 1.1//EN"
 "http://www.w3.org/Graphics/SVG/1.1/DTD/svg11.dtd">
<!-- Generated by graphviz version 2.43.0 (0)
 -->
<!-- Title: Dependencies Pages: 1 -->
<svg width="1069pt" height="1268pt"
 viewBox="0.00 0.00 1069.19 1267.61" xmlns="http://www.w3.org/2000/svg" xmlns:xlink="http://www.w3.org/1999/xlink">
<g id="graph0" class="graph" transform="scale(1 1) rotate(0) translate(4 1263.61)">
<title>Dependencies</title>
<polygon fill="white" stroke="transparent" points="-4,4 -4,-1263.61 1065.19,-1263.61 1065.19,4 -4,4"/>
<text text-anchor="middle" x="530.59" y="-1244.41" font-family="Helvetica,sans-Serif" font-size="14.00">workflow&#45;pr&#45;verify</text>
<!-- skill_workflow_pr_verify -->
<g id="node1" class="node">
<title>skill_workflow_pr_verify</title>
<ellipse fill="#e8f5e9" stroke="black" cx="77.78" cy="-668.76" rx="77.56" ry="21.43"/>
<text text-anchor="middle" x="77.78" y="-671.76" font-family="Helvetica,sans-Serif" font-size="10.00">twl:workflow&#45;pr&#45;verify</text>
<text text-anchor="middle" x="77.78" y="-660.76" font-family="Helvetica,sans-Serif" font-size="10.00">(840 tok)</text>
</g>
<!-- cmd_ts_preflight -->
<g id="node6" class="node">
<title>cmd_ts_preflight</title>
<polygon fill="#e3f2fd" stroke="black" points="289.06,-715.76 227.06,-715.76 227.06,-679.76 289.06,-679.76 289.06,-715.76"/>
<text text-anchor="middle" x="258.06" y="-700.76" font-family="Helvetica,sans-Serif" font-size="10.00">ts&#45;preflight</text>
<text text-anchor="middle" x="258.06" y="-689.76" font-family="Helvetica,sans-Serif" font-size="10.00">(349 tok)</text>
</g>
<!-- skill_workflow_pr_verify&#45;&gt;cmd_ts_preflight -->
<g id="edge3" class="edge">
<title>skill_workflow_pr_verify&#45;&gt;cmd_ts_preflight</title>
<path fill="none" stroke="black" d="M144.91,-679.52C169.1,-683.45 195.71,-687.78 216.94,-691.23"/>
<polygon fill="black" stroke="black" points="216.46,-694.7 226.89,-692.85 217.59,-687.79 216.46,-694.7"/>
</g>
<!-- cmd_scope_judge -->
<g id="node7" class="node">
<title>cmd_scope_judge</title>
<polygon fill="#e3f2fd" stroke="black" points="292.56,-599.76 223.56,-599.76 223.56,-563.76 292.56,-563.76 292.56,-599.76"/>
<text text-anchor="middle" x="258.06" y="-584.76" font-family="Helvetica,sans-Serif" font-size="10.00">scope&#45;judge</text>
<text text-anchor="middle" x="258.06" y="-573.76" font-family="Helvetica,sans-Serif" font-size="10.00">(394 tok)</text>
</g>
<!-- skill_workflow_pr_verify&#45;&gt;cmd_scope_judge -->
<g id="edge5" class="edge">
<title>skill_workflow_pr_verify&#45;&gt;cmd_scope_judge</title>
<path fill="none" stroke="black" d="M116.59,-650.31C145.18,-636.35 184.46,-617.19 214.22,-602.67"/>
<polygon fill="black" stroke="black" points="216.06,-605.66 223.52,-598.13 212.99,-599.37 216.06,-605.66"/>
</g>
<!-- cmd_pr_test -->
<g id="node8" class="node">
<title>cmd_pr_test</title>
<polygon fill="#e3f2fd" stroke="black" points="285.56,-541.76 230.56,-541.76 230.56,-505.76 285.56,-505.76 285.56,-541.76"/>
<text text-anchor="middle" x="258.06" y="-526.76" font-family="Helvetica,sans-Serif" font-size="10.00">pr&#45;test</text>
<text text-anchor="middle" x="258.06" y="-515.76" font-family="Helvetica,sans-Serif" font-size="10.00">(359 tok)</text>
</g>
<!-- skill_workflow_pr_verify&#45;&gt;cmd_pr_test -->
<g id="edge6" class="edge">
<title>skill_workflow_pr_verify&#45;&gt;cmd_pr_test</title>
<path fill="none" stroke="black" d="M100.97,-648.18C127.12,-624.28 172.25,-584.12 213.56,-552.76 216.32,-550.66 219.22,-548.55 222.17,-546.47"/>
<polygon fill="black" stroke="black" points="224.24,-549.29 230.48,-540.73 220.26,-543.53 224.24,-549.29"/>
</g>
<!-- cmd_ac_verify -->
<g id="node9" class="node">
<title>cmd_ac_verify</title>
<polygon fill="#e3f2fd" stroke="black" points="285.56,-773.76 230.56,-773.76 230.56,-737.76 285.56,-737.76 285.56,-773.76"/>
<text text-anchor="middle" x="258.06" y="-758.76" font-family="Helvetica,sans-Serif" font-size="10.00">ac&#45;verify</text>
<text text-anchor="middle" x="258.06" y="-747.76" font-family="Helvetica,sans-Serif" font-size="10.00">(375 tok)</text>
</g>
<!-- skill_workflow_pr_verify&#45;&gt;cmd_ac_verify -->
<g id="edge2" class="edge">
<title>skill_workflow_pr_verify&#45;&gt;cmd_ac_verify</title>
<path fill="none" stroke="black" d="M116.59,-687.21C147.4,-702.24 190.61,-723.33 220.95,-738.13"/>
<polygon fill="black" stroke="black" points="219.79,-741.46 230.31,-742.7 222.86,-735.17 219.79,-741.46"/>
</g>
<!-- cmd_phase_review -->
<g id="node10" class="node">
<title>cmd_phase_review</title>
<polygon fill="#bbdefb" stroke="black" points="295.06,-657.76 221.06,-657.76 221.06,-621.76 295.06,-621.76 295.06,-657.76"/>
<text text-anchor="middle" x="258.06" y="-642.76" font-family="Helvetica,sans-Serif" font-size="10.00">phase&#45;review</text>
<text text-anchor="middle" x="258.06" y="-631.76" font-family="Helvetica,sans-Serif" font-size="10.00">(915 tok)</text>
</g>
<!-- skill_workflow_pr_verify&#45;&gt;cmd_phase_review -->
<g id="edge4" class="edge">
<title>skill_workflow_pr_verify&#45;&gt;cmd_phase_review</title>
<path fill="none" stroke="black" d="M144.91,-658C166.85,-654.43 190.79,-650.54 210.89,-647.27"/>
<polygon fill="black" stroke="black" points="211.72,-650.68 221.03,-645.62 210.6,-643.77 211.72,-650.68"/>
</g>
<!-- cmd_ac_deploy_trigger -->
<g id="node11" class="node">
<title>cmd_ac_deploy_trigger</title>
<polygon fill="#e3f2fd" stroke="black" points="302.56,-831.76 213.56,-831.76 213.56,-795.76 302.56,-795.76 302.56,-831.76"/>
<text text-anchor="middle" x="258.06" y="-816.76" font-family="Helvetica,sans-Serif" font-size="10.00">ac&#45;deploy&#45;trigger</text>
<text text-anchor="middle" x="258.06" y="-805.76" font-family="Helvetica,sans-Serif" font-size="10.00">(457 tok)</text>
</g>
<!-- skill_workflow_pr_verify&#45;&gt;cmd_ac_deploy_trigger -->
<g id="edge1" class="edge">
<title>skill_workflow_pr_verify&#45;&gt;cmd_ac_deploy_trigger</title>
<path fill="none" stroke="black" d="M100.97,-689.34C127.12,-713.24 172.25,-753.4 213.56,-784.76 215.65,-786.34 217.82,-787.94 220.03,-789.52"/>
<polygon fill="black" stroke="black" points="218.43,-792.68 228.63,-795.53 222.44,-786.94 218.43,-792.68"/>
</g>
<!-- skill_ref_specialist_output_schema -->
<g id="node2" class="node">
<title>skill_ref_specialist_output_schema</title>
<polygon fill="#e1f5fe" stroke="black" points="1055.19,-293.76 906.19,-293.76 906.19,-257.76 1061.19,-257.76 1061.19,-287.76 1055.19,-293.76"/>
<polyline fill="none" stroke="black" points="1055.19,-293.76 1055.19,-287.76 "/>
<polyline fill="none" stroke="black" points="1061.19,-287.76 1055.19,-287.76 "/>
<text text-anchor="middle" x="983.69" y="-278.76" font-family="Helvetica,sans-Serif" font-size="10.00">twl:ref&#45;specialist&#45;output&#45;schema</text>
<text text-anchor="middle" x="983.69" y="-267.76" font-family="Helvetica,sans-Serif" font-size="10.00">(2,563 tok)</text>
</g>
<!-- skill_baseline_coding_style -->
<g id="node3" class="node">
<title>skill_baseline_coding_style</title>
<polygon fill="#e1f5fe" stroke="black" points="1039.69,-235.76 921.69,-235.76 921.69,-199.76 1045.69,-199.76 1045.69,-229.76 1039.69,-235.76"/>
<polyline fill="none" stroke="black" points="1039.69,-235.76 1039.69,-229.76 "/>
<polyline fill="none" stroke="black" points="1045.69,-229.76 1039.69,-229.76 "/>
<text text-anchor="middle" x="983.69" y="-220.76" font-family="Helvetica,sans-Serif" font-size="10.00">twl:baseline&#45;coding&#45;style</text>
<text text-anchor="middle" x="983.69" y="-209.76" font-family="Helvetica,sans-Serif" font-size="10.00">(1,570 tok)</text>
</g>
<!-- skill_ref_specialist_output_schema&#45;&gt;skill_baseline_coding_style -->
<!-- skill_ref_specialist_output_schema&#45;&gt;skill_baseline_coding_style -->
<!-- skill_baseline_security_checklist -->
<g id="node4" class="node">
<title>skill_baseline_security_checklist</title>
<polygon fill="#e1f5fe" stroke="black" points="1051.69,-177.76 909.69,-177.76 909.69,-141.76 1057.69,-141.76 1057.69,-171.76 1051.69,-177.76"/>
<polyline fill="none" stroke="black" points="1051.69,-177.76 1051.69,-171.76 "/>
<polyline fill="none" stroke="black" points="1057.69,-171.76 1051.69,-171.76 "/>
<text text-anchor="middle" x="983.69" y="-162.76" font-family="Helvetica,sans-Serif" font-size="10.00">twl:baseline&#45;security&#45;checklist</text>
<text text-anchor="middle" x="983.69" y="-151.76" font-family="Helvetica,sans-Serif" font-size="10.00">(1,815 tok)</text>
</g>
<!-- skill_baseline_coding_style&#45;&gt;skill_baseline_security_checklist -->
<!-- skill_baseline_coding_style&#45;&gt;skill_baseline_security_checklist -->
<!-- skill_baseline_input_validation -->
<g id="node5" class="node">
<title>skill_baseline_input_validation</title>
<polygon fill="#e1f5fe" stroke="black" points="1046.19,-119.76 915.19,-119.76 915.19,-83.76 1052.19,-83.76 1052.19,-113.76 1046.19,-119.76"/>
<polyline fill="none" stroke="black" points="1046.19,-119.76 1046.19,-113.76 "/>
<polyline fill="none" stroke="black" points="1052.19,-113.76 1046.19,-113.76 "/>
<text text-anchor="middle" x="983.69" y="-104.76" font-family="Helvetica,sans-Serif" font-size="10.00">twl:baseline&#45;input&#45;validation</text>
<text text-anchor="middle" x="983.69" y="-93.76" font-family="Helvetica,sans-Serif" font-size="10.00">(1,408 tok)</text>
</g>
<!-- skill_baseline_security_checklist&#45;&gt;skill_baseline_input_validation -->
<!-- skill_baseline_security_checklist&#45;&gt;skill_baseline_input_validation -->
<!-- cmd_ts_preflight&#45;&gt;cmd_phase_review -->
<!-- cmd_scope_judge&#45;&gt;cmd_pr_test -->
<!-- cmd_ac_verify&#45;&gt;cmd_ts_preflight -->
<!-- cmd_phase_review&#45;&gt;skill_ref_specialist_output_schema -->
<g id="edge26" class="edge">
<title>cmd_phase_review&#45;&gt;skill_ref_specialist_output_schema</title>
<path fill="none" stroke="black" d="M293.18,-658C296.82,-661.16 300.08,-664.74 302.56,-668.76 412.24,-846.33 224.45,-976.54 360.56,-1134.76 431.94,-1217.72 765.44,-1275.38 848.19,-1203.76 918.44,-1142.95 970.35,-452.64 980.77,-303.89"/>
<polygon fill="black" stroke="black" points="984.27,-303.98 981.47,-293.76 977.29,-303.49 984.27,-303.98"/>
</g>
<!-- cmd_phase_review&#45;&gt;skill_baseline_coding_style -->
<g id="edge27" class="edge">
<title>cmd_phase_review&#45;&gt;skill_baseline_coding_style</title>
<path fill="none" stroke="black" d="M293.12,-621.47C296.76,-618.32 300.05,-614.75 302.56,-610.76 400.79,-454.61 243.02,-341.94 360.56,-199.76 430.63,-115.01 749.16,-67.96 848.19,-115.76 885.51,-133.77 872.73,-164.32 906.19,-188.76 909.17,-190.94 912.34,-192.98 915.63,-194.88"/>
<polygon fill="black" stroke="black" points="914.07,-198.01 924.55,-199.59 917.34,-191.82 914.07,-198.01"/>
</g>
<!-- cmd_phase_review&#45;&gt;skill_baseline_security_checklist -->
<g id="edge28" class="edge">
<title>cmd_phase_review&#45;&gt;skill_baseline_security_checklist</title>
<path fill="none" stroke="black" d="M293.21,-621.53C296.84,-618.37 300.1,-614.78 302.56,-610.76 360.74,-515.74 280.74,-190.48 360.56,-112.76 516,38.58 641.06,-26.26 848.19,-90.76 878.09,-100.07 878.46,-116.21 906.19,-130.76 910.79,-133.17 915.63,-135.48 920.56,-137.68"/>
<polygon fill="black" stroke="black" points="919.53,-141.04 930.1,-141.75 922.27,-134.61 919.53,-141.04"/>
</g>
<!-- cmd_phase_review&#45;&gt;skill_baseline_input_validation -->
<g id="edge29" class="edge">
<title>cmd_phase_review&#45;&gt;skill_baseline_input_validation</title>
<path fill="none" stroke="black" d="M293.28,-621.57C296.9,-618.41 300.14,-614.81 302.56,-610.76 370.76,-497.01 262.33,-105.87 360.56,-16.76 381.74,2.45 752.68,8.68 848.19,-18.76 888.17,-30.24 927.96,-57.23 953.77,-77.33"/>
<polygon fill="black" stroke="black" points="951.64,-80.11 961.64,-83.59 955.99,-74.63 951.64,-80.11"/>
</g>
<!-- cmd_phase_review&#45;&gt;cmd_scope_judge -->
<!-- agent_worker_structure -->
<g id="node12" class="node">
<title>agent_worker_structure</title>
<ellipse fill="#ede7f6" stroke="black" cx="727.27" cy="-1171.76" rx="61.54" ry="21.43"/>
<text text-anchor="middle" x="727.27" y="-1174.76" font-family="Helvetica,sans-Serif" font-size="10.00">worker&#45;structure</text>
<text text-anchor="middle" x="727.27" y="-1163.76" font-family="Helvetica,sans-Serif" font-size="10.00">(1,244 tok)</text>
</g>
<!-- cmd_phase_review&#45;&gt;agent_worker_structure -->
<g id="edge9" class="edge">
<title>cmd_phase_review&#45;&gt;agent_worker_structure</title>
<path fill="none" stroke="black" stroke-dasharray="5,2" d="M293.11,-658.05C296.76,-661.2 300.05,-664.77 302.56,-668.76 399.33,-822.19 240.46,-936.82 360.56,-1072.76 434.77,-1156.75 572.21,-1172.79 655.83,-1174.13"/>
<polygon fill="black" stroke="black" points="655.97,-1177.63 666.01,-1174.22 656.04,-1170.63 655.97,-1177.63"/>
</g>
<!-- agent_worker_principles -->
<g id="node13" class="node">
<title>agent_worker_principles</title>
<ellipse fill="#ede7f6" stroke="black" cx="727.27" cy="-1107.76" rx="63.78" ry="21.43"/>
<text text-anchor="middle" x="727.27" y="-1110.76" font-family="Helvetica,sans-Serif" font-size="10.00">worker&#45;principles</text>
<text text-anchor="middle" x="727.27" y="-1099.76" font-family="Helvetica,sans-Serif" font-size="10.00">(1,154 tok)</text>
</g>
<!-- cmd_phase_review&#45;&gt;agent_worker_principles -->
<g id="edge10" class="edge">
<title>cmd_phase_review&#45;&gt;agent_worker_principles</title>
<path fill="none" stroke="black" stroke-dasharray="5,2" d="M293.02,-658.11C296.68,-661.25 300,-664.8 302.56,-668.76 386.66,-798.49 256.22,-897.67 360.56,-1011.76 435.3,-1093.48 570.37,-1109.18 653.78,-1110.39"/>
<polygon fill="black" stroke="black" points="653.92,-1113.89 663.94,-1110.47 653.97,-1106.89 653.92,-1113.89"/>
</g>
<!-- agent_worker_env_validator -->
<g id="node14" class="node">
<title>agent_worker_env_validator</title>
<ellipse fill="#ede7f6" stroke="black" cx="727.27" cy="-211.76" rx="73.58" ry="21.43"/>
<text text-anchor="middle" x="727.27" y="-214.76" font-family="Helvetica,sans-Serif" font-size="10.00">worker&#45;env&#45;validator</text>
<text text-anchor="middle" x="727.27" y="-203.76" font-family="Helvetica,sans-Serif" font-size="10.00">(1,426 tok)</text>
</g>
<!-- cmd_phase_review&#45;&gt;agent_worker_env_validator -->
<g id="edge24" class="edge">
<title>cmd_phase_review&#45;&gt;agent_worker_env_validator</title>
<path fill="none" stroke="black" stroke-dasharray="5,2" d="M292.08,-621.41C295.99,-618.24 299.62,-614.68 302.56,-610.76 354.25,-541.81 297.58,-484.56 360.56,-425.76 423.3,-367.19 482.87,-436.23 548.36,-380.76 598.81,-338.02 556.45,-287.14 606.36,-243.76 618.16,-233.5 632.92,-226.48 648,-221.7"/>
<polygon fill="black" stroke="black" points="649.27,-224.97 657.93,-218.86 647.35,-218.24 649.27,-224.97"/>
</g>
<!-- agent_worker_rls_reviewer -->
<g id="node15" class="node">
<title>agent_worker_rls_reviewer</title>
<ellipse fill="#ede7f6" stroke="black" cx="727.27" cy="-531.76" rx="70.01" ry="21.43"/>
<text text-anchor="middle" x="727.27" y="-534.76" font-family="Helvetica,sans-Serif" font-size="10.00">worker&#45;rls&#45;reviewer</text>
<text text-anchor="middle" x="727.27" y="-523.76" font-family="Helvetica,sans-Serif" font-size="10.00">(1,517 tok)</text>
</g>
<!-- cmd_phase_review&#45;&gt;agent_worker_rls_reviewer -->
<g id="edge19" class="edge">
<title>cmd_phase_review&#45;&gt;agent_worker_rls_reviewer</title>
<path fill="none" stroke="black" stroke-dasharray="5,2" d="M295.38,-642.6C351.81,-645.63 462.94,-645.92 548.36,-610.76 579.04,-598.13 576.79,-578.81 606.36,-563.76 621.93,-555.83 639.67,-549.72 656.63,-545.06"/>
<polygon fill="black" stroke="black" points="657.72,-548.39 666.51,-542.48 655.96,-541.62 657.72,-548.39"/>
</g>
<!-- agent_worker_supabase_migration_checker -->
<g id="node16" class="node">
<title>agent_worker_supabase_migration_checker</title>
<ellipse fill="#ede7f6" stroke="black" cx="727.27" cy="-787.76" rx="120.83" ry="21.43"/>
<text text-anchor="middle" x="727.27" y="-790.76" font-family="Helvetica,sans-Serif" font-size="10.00">worker&#45;supabase&#45;migration&#45;checker</text>
<text text-anchor="middle" x="727.27" y="-779.76" font-family="Helvetica,sans-Serif" font-size="10.00">(1,338 tok)</text>
</g>
<!-- cmd_phase_review&#45;&gt;agent_worker_supabase_migration_checker -->
<g id="edge15" class="edge">
<title>cmd_phase_review&#45;&gt;agent_worker_supabase_migration_checker</title>
<path fill="none" stroke="black" stroke-dasharray="5,2" d="M289.74,-657.95C294.28,-661.27 298.71,-664.91 302.56,-668.76 335.42,-701.62 320.59,-732.06 360.56,-755.76 439.27,-802.41 544.7,-806.8 622.14,-801.66"/>
<polygon fill="black" stroke="black" points="622.68,-805.13 632.4,-800.91 622.17,-798.15 622.68,-805.13"/>
</g>
<!-- agent_worker_data_validator -->
<g id="node17" class="node">
<title>agent_worker_data_validator</title>
<ellipse fill="#ede7f6" stroke="black" cx="727.27" cy="-275.76" rx="75.82" ry="21.43"/>
<text text-anchor="middle" x="727.27" y="-278.76" font-family="Helvetica,sans-Serif" font-size="10.00">worker&#45;data&#45;validator</text>
<text text-anchor="middle" x="727.27" y="-267.76" font-family="Helvetica,sans-Serif" font-size="10.00">(698 tok)</text>
</g>
<!-- cmd_phase_review&#45;&gt;agent_worker_data_validator -->
<g id="edge23" class="edge">
<title>cmd_phase_review&#45;&gt;agent_worker_data_validator</title>
<path fill="none" stroke="black" stroke-dasharray="5,2" d="M291.31,-621.5C295.43,-618.28 299.33,-614.68 302.56,-610.76 345.12,-559.09 309.6,-515.15 360.56,-471.76 425.91,-416.12 481.42,-480.47 548.36,-426.76 594.25,-389.93 560.94,-345.17 606.36,-307.76 618.09,-298.09 632.46,-291.33 647.13,-286.59"/>
<polygon fill="black" stroke="black" points="648.17,-289.93 656.79,-283.76 646.21,-283.22 648.17,-289.93"/>
</g>
<!-- agent_worker_e2e_reviewer -->
<g id="node18" class="node">
<title>agent_worker_e2e_reviewer</title>
<ellipse fill="#ede7f6" stroke="black" cx="727.27" cy="-659.76" rx="73.58" ry="21.43"/>
<text text-anchor="middle" x="727.27" y="-662.76" font-family="Helvetica,sans-Serif" font-size="10.00">worker&#45;e2e&#45;reviewer</text>
<text text-anchor="middle" x="727.27" y="-651.76" font-family="Helvetica,sans-Serif" font-size="10.00">(1,226 tok)</text>
</g>
<!-- cmd_phase_review&#45;&gt;agent_worker_e2e_reviewer -->
<g id="edge17" class="edge">
<title>cmd_phase_review&#45;&gt;agent_worker_e2e_reviewer</title>
<path fill="none" stroke="black" stroke-dasharray="5,2" d="M286.55,-657.91C313.75,-675.69 352.46,-700.45 360.56,-702.76 440.83,-725.64 465.48,-712.63 548.36,-702.76 570.41,-700.13 621.43,-687.55 663.21,-676.67"/>
<polygon fill="black" stroke="black" points="664.27,-680.01 673.06,-674.09 662.5,-673.24 664.27,-680.01"/>
</g>
<!-- agent_worker_spec_reviewer -->
<g id="node19" class="node">
<title>agent_worker_spec_reviewer</title>
<ellipse fill="#ede7f6" stroke="black" cx="727.27" cy="-467.76" rx="77.56" ry="21.43"/>
<text text-anchor="middle" x="727.27" y="-470.76" font-family="Helvetica,sans-Serif" font-size="10.00">worker&#45;spec&#45;reviewer</text>
<text text-anchor="middle" x="727.27" y="-459.76" font-family="Helvetica,sans-Serif" font-size="10.00">(1,094 tok)</text>
</g>
<!-- cmd_phase_review&#45;&gt;agent_worker_spec_reviewer -->
<g id="edge20" class="edge">
<title>cmd_phase_review&#45;&gt;agent_worker_spec_reviewer</title>
<path fill="none" stroke="black" stroke-dasharray="5,2" d="M295.11,-628.61C314.45,-622.75 338.73,-615.6 360.56,-609.76 443.48,-587.59 474.69,-608.79 548.36,-564.76 581.59,-544.89 573.38,-520.04 606.36,-499.76 619.53,-491.65 634.74,-485.58 649.82,-481.03"/>
<polygon fill="black" stroke="black" points="651,-484.33 659.68,-478.26 649.11,-477.6 651,-484.33"/>
</g>
<!-- agent_worker_codex_reviewer -->
<g id="node20" class="node">
<title>agent_worker_codex_reviewer</title>
<ellipse fill="#ede7f6" stroke="black" cx="727.27" cy="-147.76" rx="81.13" ry="21.43"/>
<text text-anchor="middle" x="727.27" y="-150.76" font-family="Helvetica,sans-Serif" font-size="10.00">worker&#45;codex&#45;reviewer</text>
<text text-anchor="middle" x="727.27" y="-139.76" font-family="Helvetica,sans-Serif" font-size="10.00">(1,421 tok)</text>
</g>
<!-- cmd_phase_review&#45;&gt;agent_worker_codex_reviewer -->
<g id="edge25" class="edge">
<title>cmd_phase_review&#45;&gt;agent_worker_codex_reviewer</title>
<path fill="none" stroke="black" stroke-dasharray="5,2" d="M292.3,-621.57C296.17,-618.37 299.74,-614.76 302.56,-610.76 363.58,-524.26 284.19,-453.05 360.56,-379.76 422.07,-320.74 483.98,-396.64 548.36,-340.76 605.79,-290.9 550.34,-231.2 606.36,-179.76 616.51,-170.43 629.08,-163.77 642.22,-159.02"/>
<polygon fill="black" stroke="black" points="643.43,-162.31 651.86,-155.89 641.27,-155.65 643.43,-162.31"/>
</g>
<!-- agent_worker_code_reviewer -->
<g id="node21" class="node">
<title>agent_worker_code_reviewer</title>
<ellipse fill="#ede7f6" stroke="black" cx="727.27" cy="-1043.76" rx="77.56" ry="21.43"/>
<text text-anchor="middle" x="727.27" y="-1046.76" font-family="Helvetica,sans-Serif" font-size="10.00">worker&#45;code&#45;reviewer</text>
<text text-anchor="middle" x="727.27" y="-1035.76" font-family="Helvetica,sans-Serif" font-size="10.00">(964 tok)</text>
</g>
<!-- cmd_phase_review&#45;&gt;agent_worker_code_reviewer -->
<g id="edge11" class="edge">
<title>cmd_phase_review&#45;&gt;agent_worker_code_reviewer</title>
<path fill="none" stroke="black" stroke-dasharray="5,2" d="M292.46,-657.83C296.31,-661.05 299.83,-664.69 302.56,-668.76 374.47,-775.65 271.42,-859.75 360.56,-952.76 432.71,-1028.03 556.74,-1044.85 640.11,-1046.83"/>
<polygon fill="black" stroke="black" points="640.26,-1050.33 650.32,-1047 640.38,-1043.33 640.26,-1050.33"/>
</g>
<!-- agent_worker_security_reviewer -->
<g id="node22" class="node">
<title>agent_worker_security_reviewer</title>
<ellipse fill="#ede7f6" stroke="black" cx="727.27" cy="-979.76" rx="86.95" ry="21.43"/>
<text text-anchor="middle" x="727.27" y="-982.76" font-family="Helvetica,sans-Serif" font-size="10.00">worker&#45;security&#45;reviewer</text>
<text text-anchor="middle" x="727.27" y="-971.76" font-family="Helvetica,sans-Serif" font-size="10.00">(866 tok)</text>
</g>
<!-- cmd_phase_review&#45;&gt;agent_worker_security_reviewer -->
<g id="edge12" class="edge">
<title>cmd_phase_review&#45;&gt;agent_worker_security_reviewer</title>
<path fill="none" stroke="black" stroke-dasharray="5,2" d="M292.28,-657.96C296.16,-661.15 299.73,-664.76 302.56,-668.76 362.97,-754.1 285.68,-823.79 360.56,-896.76 432.18,-966.54 549.51,-982.47 631.91,-984.04"/>
<polygon fill="black" stroke="black" points="631.99,-987.54 642.04,-984.17 632.08,-980.54 631.99,-987.54"/>
</g>
<!-- agent_worker_nextjs_reviewer -->
<g id="node23" class="node">
<title>agent_worker_nextjs_reviewer</title>
<ellipse fill="#ede7f6" stroke="black" cx="727.27" cy="-915.76" rx="81.13" ry="21.43"/>
<text text-anchor="middle" x="727.27" y="-918.76" font-family="Helvetica,sans-Serif" font-size="10.00">worker&#45;nextjs&#45;reviewer</text>
<text text-anchor="middle" x="727.27" y="-907.76" font-family="Helvetica,sans-Serif" font-size="10.00">(642 tok)</text>
</g>
<!-- cmd_phase_review&#45;&gt;agent_worker_nextjs_reviewer -->
<g id="edge13" class="edge">
<title>cmd_phase_review&#45;&gt;agent_worker_nextjs_reviewer</title>
<path fill="none" stroke="black" stroke-dasharray="5,2" d="M291.59,-657.8C295.67,-661.05 299.48,-664.72 302.56,-668.76 352.24,-733.92 299.1,-789.57 360.56,-843.76 436.79,-910.96 557.1,-922.81 638.74,-921.93"/>
<polygon fill="black" stroke="black" points="639.06,-925.42 649,-921.75 638.94,-918.42 639.06,-925.42"/>
</g>
<!-- agent_worker_fastapi_reviewer -->
<g id="node24" class="node">
<title>agent_worker_fastapi_reviewer</title>
<ellipse fill="#ede7f6" stroke="black" cx="727.27" cy="-851.76" rx="83.38" ry="21.43"/>
<text text-anchor="middle" x="727.27" y="-854.76" font-family="Helvetica,sans-Serif" font-size="10.00">worker&#45;fastapi&#45;reviewer</text>
<text text-anchor="middle" x="727.27" y="-843.76" font-family="Helvetica,sans-Serif" font-size="10.00">(639 tok)</text>
</g>
<!-- cmd_phase_review&#45;&gt;agent_worker_fastapi_reviewer -->
<g id="edge14" class="edge">
<title>cmd_phase_review&#45;&gt;agent_worker_fastapi_reviewer</title>
<path fill="none" stroke="black" stroke-dasharray="5,2" d="M290.75,-657.77C295.05,-661.07 299.15,-664.75 302.56,-668.76 342.8,-715.99 311.06,-758.34 360.56,-795.76 440.79,-856.39 559.66,-863.8 639.91,-860.42"/>
<polygon fill="black" stroke="black" points="640.17,-863.91 649.99,-859.93 639.83,-856.92 640.17,-863.91"/>
</g>
<!-- agent_worker_hono_reviewer -->
<g id="node25" class="node">
<title>agent_worker_hono_reviewer</title>
<ellipse fill="#ede7f6" stroke="black" cx="727.27" cy="-595.76" rx="77.56" ry="21.43"/>
<text text-anchor="middle" x="727.27" y="-598.76" font-family="Helvetica,sans-Serif" font-size="10.00">worker&#45;hono&#45;reviewer</text>
<text text-anchor="middle" x="727.27" y="-587.76" font-family="Helvetica,sans-Serif" font-size="10.00">(847 tok)</text>
</g>
<!-- cmd_phase_review&#45;&gt;agent_worker_hono_reviewer -->
<g id="edge18" class="edge">
<title>cmd_phase_review&#45;&gt;agent_worker_hono_reviewer</title>
<path fill="none" stroke="black" stroke-dasharray="5,2" d="M295.52,-647.37C314.77,-651.01 338.84,-654.95 360.56,-656.76 443.74,-663.68 467.13,-675.93 548.36,-656.76 576.41,-650.14 579.41,-637.97 606.36,-627.76 622.44,-621.66 640.16,-616.26 656.92,-611.7"/>
<polygon fill="black" stroke="black" points="657.89,-615.07 666.66,-609.12 656.1,-608.3 657.89,-615.07"/>
</g>
<!-- agent_worker_r_reviewer -->
<g id="node26" class="node">
<title>agent_worker_r_reviewer</title>
<ellipse fill="#ede7f6" stroke="black" cx="727.27" cy="-723.76" rx="65.11" ry="21.43"/>
<text text-anchor="middle" x="727.27" y="-726.76" font-family="Helvetica,sans-Serif" font-size="10.00">worker&#45;r&#45;reviewer</text>
<text text-anchor="middle" x="727.27" y="-715.76" font-family="Helvetica,sans-Serif" font-size="10.00">(717 tok)</text>
</g>
<!-- cmd_phase_review&#45;&gt;agent_worker_r_reviewer -->
<g id="edge16" class="edge">
<title>cmd_phase_review&#45;&gt;agent_worker_r_reviewer</title>
<path fill="none" stroke="black" stroke-dasharray="5,2" d="M288.16,-658.04C293.08,-661.45 298.06,-665.09 302.56,-668.76 330.61,-691.55 327.11,-712.07 360.56,-725.76 460.46,-766.63 588.96,-752.34 664.01,-738.12"/>
<polygon fill="black" stroke="black" points="665.1,-741.47 674.24,-736.12 663.76,-734.6 665.1,-741.47"/>
</g>
<!-- agent_worker_llm_output_reviewer -->
<g id="node27" class="node">
<title>agent_worker_llm_output_reviewer</title>
<ellipse fill="#ede7f6" stroke="black" cx="727.27" cy="-403.76" rx="92.76" ry="21.43"/>
<text text-anchor="middle" x="727.27" y="-406.76" font-family="Helvetica,sans-Serif" font-size="10.00">worker&#45;llm&#45;output&#45;reviewer</text>
<text text-anchor="middle" x="727.27" y="-395.76" font-family="Helvetica,sans-Serif" font-size="10.00">(1,162 tok)</text>
</g>
<!-- cmd_phase_review&#45;&gt;agent_worker_llm_output_reviewer -->
<g id="edge21" class="edge">
<title>cmd_phase_review&#45;&gt;agent_worker_llm_output_reviewer</title>
<path fill="none" stroke="black" stroke-dasharray="5,2" d="M286.94,-621.73C292.19,-618.18 297.59,-614.42 302.56,-610.76 329.28,-591.09 330.81,-578.43 360.56,-563.76 437.54,-525.8 477.43,-567.08 548.36,-518.76 585.55,-493.42 569.49,-461.57 606.36,-435.76 616.59,-428.59 628.35,-423.03 640.4,-418.71"/>
<polygon fill="black" stroke="black" points="641.71,-421.97 650.12,-415.51 639.52,-415.32 641.71,-421.97"/>
</g>
<!-- agent_worker_llm_eval_runner -->
<g id="node28" class="node">
<title>agent_worker_llm_eval_runner</title>
<ellipse fill="#ede7f6" stroke="black" cx="727.27" cy="-339.76" rx="79.81" ry="21.43"/>
<text text-anchor="middle" x="727.27" y="-342.76" font-family="Helvetica,sans-Serif" font-size="10.00">worker&#45;llm&#45;eval&#45;runner</text>
<text text-anchor="middle" x="727.27" y="-331.76" font-family="Helvetica,sans-Serif" font-size="10.00">(1,174 tok)</text>
</g>
<!-- cmd_phase_review&#45;&gt;agent_worker_llm_eval_runner -->
<g id="edge22" class="edge">
<title>cmd_phase_review&#45;&gt;agent_worker_llm_eval_runner</title>
<path fill="none" stroke="black" stroke-dasharray="5,2" d="M289.85,-621.66C294.37,-618.34 298.77,-614.67 302.56,-610.76 336.48,-575.79 321.04,-546.23 360.56,-517.76 430.21,-467.6 479.64,-524.18 548.36,-472.76 589.8,-441.75 565.31,-403.3 606.36,-371.76 617.81,-362.96 631.49,-356.57 645.44,-351.94"/>
<polygon fill="black" stroke="black" points="646.56,-355.26 655.12,-349.01 644.53,-348.56 646.56,-355.26"/>
</g>
<!-- script_tech_stack_detect -->
<g id="node29" class="node">
<title>script_tech_stack_detect</title>
<polygon fill="#ff9800" stroke="black" points="529.7,-234.76 492.08,-259.25 416.84,-259.25 379.23,-234.76 416.84,-210.27 492.08,-210.27 529.7,-234.76"/>
<text text-anchor="middle" x="454.46" y="-237.76" font-family="Helvetica,sans-Serif" font-size="10.00">tech&#45;stack&#45;detect</text>
<text text-anchor="middle" x="454.46" y="-226.76" font-family="Helvetica,sans-Serif" font-size="10.00">(539 tok)</text>
</g>
<!-- cmd_phase_review&#45;&gt;script_tech_stack_detect -->
<g id="edge8" class="edge">
<title>cmd_phase_review&#45;&gt;script_tech_stack_detect</title>
<path fill="none" stroke="black" d="M293.01,-621.4C296.67,-618.26 299.99,-614.72 302.56,-610.76 386.04,-482.19 263.58,-389.47 360.56,-270.76 367.6,-262.14 376.97,-255.59 387.04,-250.59"/>
<polygon fill="black" stroke="black" points="388.72,-253.68 396.45,-246.44 385.89,-247.28 388.72,-253.68"/>
</g>
<!-- script_specialist_output_parse -->
<g id="node30" class="node">
<title>script_specialist_output_parse</title>
<polygon fill="#ff9800" stroke="black" points="548.25,-305.76 501.36,-330.25 407.56,-330.25 360.67,-305.76 407.56,-281.27 501.36,-281.27 548.25,-305.76"/>
<text text-anchor="middle" x="454.46" y="-308.76" font-family="Helvetica,sans-Serif" font-size="10.00">specialist&#45;output&#45;parse</text>
<text text-anchor="middle" x="454.46" y="-297.76" font-family="Helvetica,sans-Serif" font-size="10.00">(605 tok)</text>
</g>
<!-- cmd_phase_review&#45;&gt;script_specialist_output_parse -->
<g id="edge7" class="edge">
<title>cmd_phase_review&#45;&gt;script_specialist_output_parse</title>
<path fill="none" stroke="black" d="M292.41,-621.64C296.26,-618.43 299.8,-614.8 302.56,-610.76 370.35,-511.58 284.49,-439.74 360.56,-346.76 366.93,-338.98 375.06,-332.63 383.86,-327.47"/>
<polygon fill="black" stroke="black" points="385.67,-330.47 392.85,-322.68 382.38,-324.29 385.67,-330.47"/>
</g>
<!-- cmd_ac_deploy_trigger&#45;&gt;cmd_ac_verify -->
<!-- agent_worker_structure&#45;&gt;skill_ref_specialist_output_schema -->
<g id="edge30" class="edge">
<title>agent_worker_structure&#45;&gt;skill_ref_specialist_output_schema</title>
<path fill="none" stroke="black" stroke-dasharray="1,5" d="M788.43,-1169.05C810.17,-1164.99 833.06,-1156.58 848.19,-1139.76 962.57,-1012.52 979.8,-439.48 982.29,-304.36"/>
<polygon fill="black" stroke="black" points="985.79,-304.08 982.46,-294.03 978.79,-303.96 985.79,-304.08"/>
</g>
<!-- agent_worker_structure&#45;&gt;agent_worker_principles -->
<!-- agent_worker_structure&#45;&gt;agent_worker_principles -->
<!-- agent_worker_structure&#45;&gt;agent_worker_principles -->
<!-- agent_worker_structure&#45;&gt;agent_worker_principles -->
<!-- agent_worker_principles&#45;&gt;skill_ref_specialist_output_schema -->
<g id="edge31" class="edge">
<title>agent_worker_principles&#45;&gt;skill_ref_specialist_output_schema</title>
<path fill="none" stroke="black" stroke-dasharray="1,5" d="M790.5,-1104.54C811.57,-1100.31 833.47,-1091.93 848.19,-1075.76 954.45,-958.98 977.75,-433.08 981.9,-304.29"/>
<polygon fill="black" stroke="black" points="985.4,-304.17 982.21,-294.06 978.41,-303.95 985.4,-304.17"/>
</g>
<!-- agent_worker_principles&#45;&gt;agent_worker_code_reviewer -->
<!-- agent_worker_principles&#45;&gt;agent_worker_code_reviewer -->
<!-- agent_worker_env_validator&#45;&gt;skill_ref_specialist_output_schema -->
<g id="edge32" class="edge">
<title>agent_worker_env_validator&#45;&gt;skill_ref_specialist_output_schema</title>
<path fill="none" stroke="black" stroke-dasharray="1,5" d="M783.16,-225.57C817.49,-234.2 862.34,-245.48 900.82,-255.16"/>
<polygon fill="black" stroke="black" points="900.42,-258.67 910.97,-257.72 902.13,-251.88 900.42,-258.67"/>
</g>
<!-- agent_worker_env_validator&#45;&gt;agent_worker_codex_reviewer -->
<!-- agent_worker_env_validator&#45;&gt;agent_worker_codex_reviewer -->
<!-- agent_worker_rls_reviewer&#45;&gt;skill_ref_specialist_output_schema -->
<g id="edge33" class="edge">
<title>agent_worker_rls_reviewer&#45;&gt;skill_ref_specialist_output_schema</title>
<path fill="none" stroke="black" stroke-dasharray="1,5" d="M792.74,-524.02C811.98,-519.33 832.18,-511.81 848.19,-499.76 916.55,-448.28 957.2,-351.02 973.85,-303.42"/>
<polygon fill="black" stroke="black" points="977.23,-304.37 977.14,-293.78 970.6,-302.12 977.23,-304.37"/>
</g>
<!-- agent_worker_rls_reviewer&#45;&gt;agent_worker_spec_reviewer -->
<!-- agent_worker_rls_reviewer&#45;&gt;agent_worker_spec_reviewer -->
<!-- agent_worker_supabase_migration_checker&#45;&gt;skill_ref_specialist_output_schema -->
<g id="edge34" class="edge">
<title>agent_worker_supabase_migration_checker&#45;&gt;skill_ref_specialist_output_schema</title>
<path fill="none" stroke="black" stroke-dasharray="1,5" d="M820.47,-774.05C830.72,-769.51 840.29,-763.56 848.19,-755.76 914.3,-690.46 964.14,-396.95 978.49,-304.05"/>
<polygon fill="black" stroke="black" points="981.97,-304.4 980.02,-293.98 975.05,-303.34 981.97,-304.4"/>
</g>
<!-- agent_worker_supabase_migration_checker&#45;&gt;agent_worker_r_reviewer -->
<!-- agent_worker_supabase_migration_checker&#45;&gt;agent_worker_r_reviewer -->
<!-- agent_worker_data_validator&#45;&gt;skill_ref_specialist_output_schema -->
<g id="edge35" class="edge">
<title>agent_worker_data_validator&#45;&gt;skill_ref_specialist_output_schema</title>
<path fill="none" stroke="black" stroke-dasharray="1,5" d="M803.23,-275.76C832.33,-275.76 865.85,-275.76 895.99,-275.76"/>
<polygon fill="black" stroke="black" points="896.06,-279.26 906.06,-275.76 896.06,-272.26 896.06,-279.26"/>
</g>
<!-- agent_worker_data_validator&#45;&gt;agent_worker_env_validator -->
<!-- agent_worker_data_validator&#45;&gt;agent_worker_env_validator -->
<!-- agent_worker_e2e_reviewer&#45;&gt;skill_ref_specialist_output_schema -->
<g id="edge36" class="edge">
<title>agent_worker_e2e_reviewer&#45;&gt;skill_ref_specialist_output_schema</title>
<path fill="none" stroke="black" stroke-dasharray="1,5" d="M797.22,-652.9C815.53,-648.2 834.1,-640.45 848.19,-627.76 946.49,-539.2 973.42,-370.88 980.39,-304.09"/>
<polygon fill="black" stroke="black" points="983.9,-304.2 981.38,-293.91 976.93,-303.53 983.9,-304.2"/>
</g>
<!-- agent_worker_e2e_reviewer&#45;&gt;agent_worker_hono_reviewer -->
<!-- agent_worker_e2e_reviewer&#45;&gt;agent_worker_hono_reviewer -->
<!-- agent_worker_spec_reviewer&#45;&gt;skill_ref_specialist_output_schema -->
<g id="edge37" class="edge">
<title>agent_worker_spec_reviewer&#45;&gt;skill_ref_specialist_output_schema</title>
<path fill="none" stroke="black" stroke-dasharray="1,5" d="M795.37,-457.48C813.45,-452.73 832.37,-445.81 848.19,-435.76 902.02,-401.53 945.34,-338.87 967.21,-302.96"/>
<polygon fill="black" stroke="black" points="970.43,-304.39 972.54,-294.01 964.41,-300.8 970.43,-304.39"/>
</g>
<!-- agent_worker_spec_reviewer&#45;&gt;agent_worker_llm_output_reviewer -->
<!-- agent_worker_spec_reviewer&#45;&gt;agent_worker_llm_output_reviewer -->
<!-- agent_worker_codex_reviewer&#45;&gt;skill_ref_specialist_output_schema -->
<g id="edge38" class="edge">
<title>agent_worker_codex_reviewer&#45;&gt;skill_ref_specialist_output_schema</title>
<path fill="none" stroke="black" stroke-dasharray="1,5" d="M807.83,-151.01C821.9,-155.26 835.95,-161.1 848.19,-168.76 881.58,-189.65 873.9,-213.2 906.19,-235.76 916.85,-243.2 929.66,-249.03 941.73,-253.95"/>
<polygon fill="black" stroke="black" points="940.61,-257.27 951.19,-257.71 943.19,-250.77 940.61,-257.27"/>
</g>
<!-- agent_worker_codex_reviewer&#45;&gt;skill_ref_specialist_output_schema -->
<!-- agent_worker_code_reviewer&#45;&gt;skill_ref_specialist_output_schema -->
<g id="edge39" class="edge">
<title>agent_worker_code_reviewer&#45;&gt;skill_ref_specialist_output_schema</title>
<path fill="none" stroke="black" stroke-dasharray="1,5" d="M801.93,-1037.67C819.19,-1032.88 836.06,-1024.9 848.19,-1011.76 946.43,-905.32 975.58,-425.76 981.46,-303.96"/>
<polygon fill="black" stroke="black" points="984.96,-304.08 981.93,-293.93 977.96,-303.75 984.96,-304.08"/>
</g>
<!-- agent_worker_code_reviewer&#45;&gt;agent_worker_security_reviewer -->
<!-- agent_worker_code_reviewer&#45;&gt;agent_worker_security_reviewer -->
<!-- agent_worker_security_reviewer&#45;&gt;skill_ref_specialist_output_schema -->
<g id="edge40" class="edge">
<title>agent_worker_security_reviewer&#45;&gt;skill_ref_specialist_output_schema</title>
<path fill="none" stroke="black" stroke-dasharray="1,5" d="M807.99,-971.66C823.05,-966.76 837.42,-959.23 848.19,-947.76 938.31,-851.74 973.14,-419.33 980.92,-304.07"/>
<polygon fill="black" stroke="black" points="984.42,-304.13 981.59,-293.92 977.44,-303.67 984.42,-304.13"/>
</g>
<!-- agent_worker_security_reviewer&#45;&gt;agent_worker_nextjs_reviewer -->
<!-- agent_worker_security_reviewer&#45;&gt;agent_worker_nextjs_reviewer -->
<!-- agent_worker_nextjs_reviewer&#45;&gt;skill_ref_specialist_output_schema -->
<g id="edge41" class="edge">
<title>agent_worker_nextjs_reviewer&#45;&gt;skill_ref_specialist_output_schema</title>
<path fill="none" stroke="black" stroke-dasharray="1,5" d="M804.09,-908.65C820.49,-903.8 836.41,-896.05 848.19,-883.76 930.25,-798.09 970.46,-412.47 980.27,-304.14"/>
<polygon fill="black" stroke="black" points="983.77,-304.26 981.17,-293.99 976.8,-303.64 983.77,-304.26"/>
</g>
<!-- agent_worker_nextjs_reviewer&#45;&gt;agent_worker_fastapi_reviewer -->
<!-- agent_worker_nextjs_reviewer&#45;&gt;agent_worker_fastapi_reviewer -->
<!-- agent_worker_fastapi_reviewer&#45;&gt;skill_ref_specialist_output_schema -->
<g id="edge42" class="edge">
<title>agent_worker_fastapi_reviewer&#45;&gt;skill_ref_specialist_output_schema</title>
<path fill="none" stroke="black" stroke-dasharray="1,5" d="M805.12,-844.07C821.08,-839.21 836.56,-831.6 848.19,-819.76 922.25,-744.32 967.5,-404.9 979.48,-304.08"/>
<polygon fill="black" stroke="black" points="982.97,-304.37 980.66,-294.03 976.02,-303.56 982.97,-304.37"/>
</g>
<!-- agent_worker_fastapi_reviewer&#45;&gt;agent_worker_supabase_migration_checker -->
<!-- agent_worker_fastapi_reviewer&#45;&gt;agent_worker_supabase_migration_checker -->
<!-- agent_worker_hono_reviewer&#45;&gt;skill_ref_specialist_output_schema -->
<g id="edge43" class="edge">
<title>agent_worker_hono_reviewer&#45;&gt;skill_ref_specialist_output_schema</title>
<path fill="none" stroke="black" stroke-dasharray="1,5" d="M799.14,-587.57C816.63,-582.82 834.31,-575.38 848.19,-563.76 931.42,-494.03 966.16,-361.36 977.78,-303.69"/>
<polygon fill="black" stroke="black" points="981.23,-304.31 979.69,-293.83 974.36,-302.98 981.23,-304.31"/>
</g>
<!-- agent_worker_hono_reviewer&#45;&gt;agent_worker_rls_reviewer -->
<!-- agent_worker_hono_reviewer&#45;&gt;agent_worker_rls_reviewer -->
<!-- agent_worker_r_reviewer&#45;&gt;skill_ref_specialist_output_schema -->
<g id="edge44" class="edge">
<title>agent_worker_r_reviewer&#45;&gt;skill_ref_specialist_output_schema</title>
<path fill="none" stroke="black" stroke-dasharray="1,5" d="M790.8,-718.99C811.28,-714.56 832.72,-706.44 848.19,-691.76 962.04,-583.67 979.72,-378.7 982.31,-303.94"/>
<polygon fill="black" stroke="black" points="985.81,-303.98 982.59,-293.88 978.81,-303.78 985.81,-303.98"/>
</g>
<!-- agent_worker_r_reviewer&#45;&gt;agent_worker_e2e_reviewer -->
<!-- agent_worker_r_reviewer&#45;&gt;agent_worker_e2e_reviewer -->
<!-- agent_worker_llm_output_reviewer&#45;&gt;skill_ref_specialist_output_schema -->
<g id="edge45" class="edge">
<title>agent_worker_llm_output_reviewer&#45;&gt;skill_ref_specialist_output_schema</title>
<path fill="none" stroke="black" stroke-dasharray="1,5" d="M797.32,-389.86C814.38,-385.21 832.3,-379.24 848.19,-371.76 888,-353 928.39,-322.25 954.38,-300.62"/>
<polygon fill="black" stroke="black" points="956.9,-303.07 962.29,-293.94 952.39,-297.72 956.9,-303.07"/>
</g>
<!-- agent_worker_llm_output_reviewer&#45;&gt;agent_worker_llm_eval_runner -->
<!-- agent_worker_llm_output_reviewer&#45;&gt;agent_worker_llm_eval_runner -->
<!-- agent_worker_llm_eval_runner&#45;&gt;skill_ref_specialist_output_schema -->
<g id="edge46" class="edge">
<title>agent_worker_llm_eval_runner&#45;&gt;skill_ref_specialist_output_schema</title>
<path fill="none" stroke="black" stroke-dasharray="1,5" d="M786,-325.24C820.05,-316.67 863.68,-305.69 901.19,-296.26"/>
<polygon fill="black" stroke="black" points="902.25,-299.6 911.09,-293.77 900.54,-292.81 902.25,-299.6"/>
</g>
<!-- agent_worker_llm_eval_runner&#45;&gt;agent_worker_data_validator -->
<!-- agent_worker_llm_eval_runner&#45;&gt;agent_worker_data_validator -->
<!-- script_tech_stack_detect&#45;&gt;agent_worker_structure -->
<!-- script_specialist_output_parse&#45;&gt;script_tech_stack_detect -->
<!-- script_specialist_output_parse&#45;&gt;script_tech_stack_detect -->
</g>
</svg>
