<?xml version="1.0" encoding="UTF-8" standalone="no"?>
<!DOCTYPE svg PUBLIC "-//W3C//DTD SVG 1.1//EN"
 "http://www.w3.org/Graphics/SVG/1.1/DTD/svg11.dtd">
<!-- Generated by graphviz version 2.43.0 (0)
 -->
<!-- Title: Dependencies Pages: 1 -->
<svg width="1064pt" height="865pt"
 viewBox="0.00 0.00 1063.59 865.11" xmlns="http://www.w3.org/2000/svg" xmlns:xlink="http://www.w3.org/1999/xlink">
<g id="graph0" class="graph" transform="scale(1 1) rotate(0) translate(4 861.11)">
<title>Dependencies</title>
<polygon fill="white" stroke="transparent" points="-4,4 -4,-861.11 1059.59,-861.11 1059.59,4 -4,4"/>
<text text-anchor="middle" x="527.8" y="-841.91" font-family="Helvetica,sans-Serif" font-size="14.00">co&#45;issue</text>
<!-- skill_co_issue -->
<g id="node1" class="node">
<title>skill_co_issue</title>
<ellipse fill="#c8e6c9" stroke="black" cx="53.03" cy="-317.85" rx="53.07" ry="21.43"/>
<text text-anchor="middle" x="53.03" y="-320.85" font-family="Helvetica,sans-Serif" font-size="10.00">twl:co&#45;issue</text>
<text text-anchor="middle" x="53.03" y="-309.85" font-family="Helvetica,sans-Serif" font-size="10.00">(1,205 tok)</text>
</g>
<!-- skill_workflow_issue_refine -->
<g id="node2" class="node">
<title>skill_workflow_issue_refine</title>
<ellipse fill="#e8f5e9" stroke="black" cx="265.18" cy="-475.85" rx="98.99" ry="21.43"/>
<text text-anchor="middle" x="265.18" y="-478.85" font-family="Helvetica,sans-Serif" font-size="10.00">twl:workflow&#45;issue&#45;refine</text>
<text text-anchor="middle" x="265.18" y="-467.85" font-family="Helvetica,sans-Serif" font-size="10.00">(1,092 tok)</text>
</g>
<!-- skill_co_issue&#45;&gt;skill_workflow_issue_refine -->
<g id="edge2" class="edge">
<title>skill_co_issue&#45;&gt;skill_workflow_issue_refine</title>
<path fill="none" stroke="black" d="M76.88,-336.83C98.9,-354.96 133.32,-382.84 164.07,-405.85 184.09,-420.84 206.92,-436.87 225.71,-449.81"/>
<polygon fill="black" stroke="black" points="223.81,-452.75 234.03,-455.52 227.77,-446.98 223.81,-452.75"/>
</g>
<!-- skill_workflow_issue_create -->
<g id="node3" class="node">
<title>skill_workflow_issue_create</title>
<ellipse fill="#e8f5e9" stroke="black" cx="265.18" cy="-317.85" rx="101.23" ry="21.43"/>
<text text-anchor="middle" x="265.18" y="-320.85" font-family="Helvetica,sans-Serif" font-size="10.00">twl:workflow&#45;issue&#45;create</text>
<text text-anchor="middle" x="265.18" y="-309.85" font-family="Helvetica,sans-Serif" font-size="10.00">(849 tok)</text>
</g>
<!-- skill_co_issue&#45;&gt;skill_workflow_issue_create -->
<g id="edge3" class="edge">
<title>skill_co_issue&#45;&gt;skill_workflow_issue_create</title>
<path fill="none" stroke="black" d="M106.25,-317.85C120.75,-317.85 137.06,-317.85 153.55,-317.85"/>
<polygon fill="black" stroke="black" points="153.83,-321.35 163.83,-317.85 153.83,-314.35 153.83,-321.35"/>
</g>
<!-- skill_ref_issue_template_bug -->
<g id="node4" class="node">
<title>skill_ref_issue_template_bug</title>
<polygon fill="#e1f5fe" stroke="black" points="1022.16,-481.85 882.16,-481.85 882.16,-445.85 1028.16,-445.85 1028.16,-475.85 1022.16,-481.85"/>
<polyline fill="none" stroke="black" points="1022.16,-481.85 1022.16,-475.85 "/>
<polyline fill="none" stroke="black" points="1028.16,-475.85 1022.16,-475.85 "/>
<text text-anchor="middle" x="955.16" y="-466.85" font-family="Helvetica,sans-Serif" font-size="10.00">twl:ref&#45;issue&#45;template&#45;bug</text>
<text text-anchor="middle" x="955.16" y="-455.85" font-family="Helvetica,sans-Serif" font-size="10.00">(136 tok)</text>
</g>
<!-- skill_co_issue&#45;&gt;skill_ref_issue_template_bug -->
<g id="edge5" class="edge">
<title>skill_co_issue&#45;&gt;skill_ref_issue_template_bug</title>
<path fill="none" stroke="black" d="M55.46,-339.29C60.38,-398.19 81.27,-564.98 164.07,-668.85 247.55,-773.59 295.01,-785.86 424.3,-820.85 599.4,-868.24 663.13,-776.57 796.73,-653.85 853.39,-601.8 908.04,-529.27 935.61,-490.61"/>
<polygon fill="black" stroke="black" points="938.78,-492.18 941.7,-481.99 933.07,-488.14 938.78,-492.18"/>
</g>
<!-- skill_ref_issue_template_feature -->
<g id="node5" class="node">
<title>skill_ref_issue_template_feature</title>
<polygon fill="#e1f5fe" stroke="black" points="1031.16,-423.85 873.16,-423.85 873.16,-387.85 1037.16,-387.85 1037.16,-417.85 1031.16,-423.85"/>
<polyline fill="none" stroke="black" points="1031.16,-423.85 1031.16,-417.85 "/>
<polyline fill="none" stroke="black" points="1037.16,-417.85 1031.16,-417.85 "/>
<text text-anchor="middle" x="955.16" y="-408.85" font-family="Helvetica,sans-Serif" font-size="10.00">twl:ref&#45;issue&#45;template&#45;feature</text>
<text text-anchor="middle" x="955.16" y="-397.85" font-family="Helvetica,sans-Serif" font-size="10.00">(120 tok)</text>
</g>
<!-- skill_co_issue&#45;&gt;skill_ref_issue_template_feature -->
<g id="edge6" class="edge">
<title>skill_co_issue&#45;&gt;skill_ref_issue_template_feature</title>
<path fill="none" stroke="black" d="M61.85,-339.03C92.65,-418.88 214.4,-701.84 424.3,-794.85 477.93,-818.62 503.01,-819.39 556.3,-794.85 705.6,-726.11 694.6,-642.63 796.73,-513.85 823.8,-479.72 819.05,-459.83 854.73,-434.85 858.04,-432.54 861.52,-430.41 865.14,-428.45"/>
<polygon fill="black" stroke="black" points="866.92,-431.47 874.35,-423.91 863.83,-425.19 866.92,-431.47"/>
</g>
<!-- skill_ref_project_model -->
<g id="node6" class="node">
<title>skill_ref_project_model</title>
<polygon fill="#e1f5fe" stroke="black" points="1008.66,-224.85 895.66,-224.85 895.66,-188.85 1014.66,-188.85 1014.66,-218.85 1008.66,-224.85"/>
<polyline fill="none" stroke="black" points="1008.66,-224.85 1008.66,-218.85 "/>
<polyline fill="none" stroke="black" points="1014.66,-218.85 1008.66,-218.85 "/>
<text text-anchor="middle" x="955.16" y="-209.85" font-family="Helvetica,sans-Serif" font-size="10.00">twl:ref&#45;project&#45;model</text>
<text text-anchor="middle" x="955.16" y="-198.85" font-family="Helvetica,sans-Serif" font-size="10.00">(2,148 tok)</text>
</g>
<!-- skill_co_issue&#45;&gt;skill_ref_project_model -->
<g id="edge7" class="edge">
<title>skill_co_issue&#45;&gt;skill_ref_project_model</title>
<path fill="none" stroke="black" d="M71.38,-297.58C91.46,-275.41 126.61,-240.44 164.07,-220.85 269.61,-165.66 306.06,-171.18 424.3,-156.85 588.62,-136.94 633.7,-128.25 796.73,-156.85 823.74,-161.59 828.67,-169.34 854.73,-177.85 864.71,-181.11 875.3,-184.39 885.71,-187.51"/>
<polygon fill="black" stroke="black" points="885.03,-190.96 895.61,-190.45 887.02,-184.25 885.03,-190.96"/>
</g>
<!-- skill_ref_issue_quality_criteria -->
<g id="node7" class="node">
<title>skill_ref_issue_quality_criteria</title>
<polygon fill="#e1f5fe" stroke="black" points="1025.16,-166.85 879.16,-166.85 879.16,-130.85 1031.16,-130.85 1031.16,-160.85 1025.16,-166.85"/>
<polyline fill="none" stroke="black" points="1025.16,-166.85 1025.16,-160.85 "/>
<polyline fill="none" stroke="black" points="1031.16,-160.85 1025.16,-160.85 "/>
<text text-anchor="middle" x="955.16" y="-151.85" font-family="Helvetica,sans-Serif" font-size="10.00">twl:ref&#45;issue&#45;quality&#45;criteria</text>
<text text-anchor="middle" x="955.16" y="-140.85" font-family="Helvetica,sans-Serif" font-size="10.00">(1,002 tok)</text>
</g>
<!-- skill_co_issue&#45;&gt;skill_ref_issue_quality_criteria -->
<g id="edge8" class="edge">
<title>skill_co_issue&#45;&gt;skill_ref_issue_quality_criteria</title>
<path fill="none" stroke="black" d="M61.63,-296.83C75.68,-261.35 109.39,-190.37 164.07,-158.85 397.29,-24.39 737.23,-90.2 883.23,-128.25"/>
<polygon fill="black" stroke="black" points="882.42,-131.66 892.98,-130.83 884.21,-124.89 882.42,-131.66"/>
</g>
<!-- skill_ref_glossary_criteria -->
<g id="node8" class="node">
<title>skill_ref_glossary_criteria</title>
<polygon fill="#e1f5fe" stroke="black" points="1014.66,-108.85 889.66,-108.85 889.66,-72.85 1020.66,-72.85 1020.66,-102.85 1014.66,-108.85"/>
<polyline fill="none" stroke="black" points="1014.66,-108.85 1014.66,-102.85 "/>
<polyline fill="none" stroke="black" points="1020.66,-102.85 1014.66,-102.85 "/>
<text text-anchor="middle" x="955.16" y="-93.85" font-family="Helvetica,sans-Serif" font-size="10.00">twl:ref&#45;glossary&#45;criteria</text>
<text text-anchor="middle" x="955.16" y="-82.85" font-family="Helvetica,sans-Serif" font-size="10.00">(873 tok)</text>
</g>
<!-- skill_co_issue&#45;&gt;skill_ref_glossary_criteria -->
<g id="edge9" class="edge">
<title>skill_co_issue&#45;&gt;skill_ref_glossary_criteria</title>
<path fill="none" stroke="black" d="M56.87,-296.49C64.43,-249.06 89.83,-135.23 164.07,-85.85 394.38,67.36 752.12,-23.91 893.61,-69.56"/>
<polygon fill="black" stroke="black" points="892.83,-72.99 903.42,-72.77 895,-66.33 892.83,-72.99"/>
</g>
<!-- cmd_issue_glossary_check -->
<g id="node15" class="node">
<title>cmd_issue_glossary_check</title>
<polygon fill="#e3f2fd" stroke="black" points="549.8,-203.85 430.8,-203.85 430.8,-167.85 549.8,-167.85 549.8,-203.85"/>
<text text-anchor="middle" x="490.3" y="-188.85" font-family="Helvetica,sans-Serif" font-size="10.00">issue&#45;glossary&#45;check</text>
<text text-anchor="middle" x="490.3" y="-177.85" font-family="Helvetica,sans-Serif" font-size="10.00">(860 tok)</text>
</g>
<!-- skill_co_issue&#45;&gt;cmd_issue_glossary_check -->
<g id="edge4" class="edge">
<title>skill_co_issue&#45;&gt;cmd_issue_glossary_check</title>
<path fill="none" stroke="black" d="M95.77,-305.19C170.91,-282.41 329.6,-234.28 420.85,-206.61"/>
<polygon fill="black" stroke="black" points="421.99,-209.92 430.55,-203.67 419.96,-203.22 421.99,-209.92"/>
</g>
<!-- cmd_explore -->
<g id="node19" class="node">
<title>cmd_explore</title>
<polygon fill="#e3f2fd" stroke="black" points="525.3,-493.85 455.3,-493.85 455.3,-457.85 525.3,-457.85 525.3,-493.85"/>
<text text-anchor="middle" x="490.3" y="-478.85" font-family="Helvetica,sans-Serif" font-size="10.00">explore</text>
<text text-anchor="middle" x="490.3" y="-467.85" font-family="Helvetica,sans-Serif" font-size="10.00">(1,510 tok)</text>
</g>
<!-- skill_co_issue&#45;&gt;cmd_explore -->
<g id="edge1" class="edge">
<title>skill_co_issue&#45;&gt;cmd_explore</title>
<path fill="none" stroke="black" d="M93.04,-332.01C174.13,-361.45 360.41,-429.06 445.48,-459.95"/>
<polygon fill="black" stroke="black" points="444.5,-463.31 455.1,-463.44 446.89,-456.73 444.5,-463.31"/>
</g>
<!-- skill_workflow_issue_refine&#45;&gt;skill_workflow_issue_create -->
<!-- cmd_issue_structure -->
<g id="node9" class="node">
<title>cmd_issue_structure</title>
<polygon fill="#e3f2fd" stroke="black" points="534.8,-783.85 445.8,-783.85 445.8,-747.85 534.8,-747.85 534.8,-783.85"/>
<text text-anchor="middle" x="490.3" y="-768.85" font-family="Helvetica,sans-Serif" font-size="10.00">issue&#45;structure</text>
<text text-anchor="middle" x="490.3" y="-757.85" font-family="Helvetica,sans-Serif" font-size="10.00">(1,247 tok)</text>
</g>
<!-- skill_workflow_issue_refine&#45;&gt;cmd_issue_structure -->
<g id="edge10" class="edge">
<title>skill_workflow_issue_refine&#45;&gt;cmd_issue_structure</title>
<path fill="none" stroke="black" d="M273.88,-497.06C292.51,-545.68 344.44,-666.4 424.3,-736.85 427.98,-740.1 432.1,-743.05 436.41,-745.69"/>
<polygon fill="black" stroke="black" points="435.03,-748.93 445.48,-750.73 438.43,-742.81 435.03,-748.93"/>
</g>
<!-- cmd_issue_tech_debt_absorb -->
<g id="node12" class="node">
<title>cmd_issue_tech_debt_absorb</title>
<polygon fill="#e3f2fd" stroke="black" points="554.8,-725.85 425.8,-725.85 425.8,-689.85 554.8,-689.85 554.8,-725.85"/>
<text text-anchor="middle" x="490.3" y="-710.85" font-family="Helvetica,sans-Serif" font-size="10.00">issue&#45;tech&#45;debt&#45;absorb</text>
<text text-anchor="middle" x="490.3" y="-699.85" font-family="Helvetica,sans-Serif" font-size="10.00">(730 tok)</text>
</g>
<!-- skill_workflow_issue_refine&#45;&gt;cmd_issue_tech_debt_absorb -->
<g id="edge11" class="edge">
<title>skill_workflow_issue_refine&#45;&gt;cmd_issue_tech_debt_absorb</title>
<path fill="none" stroke="black" d="M277.86,-497.02C301.02,-537.31 356.42,-625.69 424.3,-678.85 426.88,-680.87 429.62,-682.78 432.46,-684.59"/>
<polygon fill="black" stroke="black" points="430.83,-687.69 441.23,-689.68 434.34,-681.63 430.83,-687.69"/>
</g>
<!-- cmd_issue_spec_review -->
<g id="node13" class="node">
<title>cmd_issue_spec_review</title>
<polygon fill="#bbdefb" stroke="black" points="542.8,-667.85 437.8,-667.85 437.8,-631.85 542.8,-631.85 542.8,-667.85"/>
<text text-anchor="middle" x="490.3" y="-652.85" font-family="Helvetica,sans-Serif" font-size="10.00">issue&#45;spec&#45;review</text>
<text text-anchor="middle" x="490.3" y="-641.85" font-family="Helvetica,sans-Serif" font-size="10.00">(1,308 tok)</text>
</g>
<!-- skill_workflow_issue_refine&#45;&gt;cmd_issue_spec_review -->
<g id="edge12" class="edge">
<title>skill_workflow_issue_refine&#45;&gt;cmd_issue_spec_review</title>
<path fill="none" stroke="black" d="M284.9,-496.87C312.85,-527.32 368.25,-584.06 424.3,-620.85 427.58,-623 431.04,-625.07 434.59,-627.03"/>
<polygon fill="black" stroke="black" points="433.06,-630.18 443.55,-631.7 436.3,-623.97 433.06,-630.18"/>
</g>
<!-- cmd_issue_review_aggregate -->
<g id="node14" class="node">
<title>cmd_issue_review_aggregate</title>
<polygon fill="#e3f2fd" stroke="black" points="556.3,-609.85 424.3,-609.85 424.3,-573.85 556.3,-573.85 556.3,-609.85"/>
<text text-anchor="middle" x="490.3" y="-594.85" font-family="Helvetica,sans-Serif" font-size="10.00">issue&#45;review&#45;aggregate</text>
<text text-anchor="middle" x="490.3" y="-583.85" font-family="Helvetica,sans-Serif" font-size="10.00">(1,157 tok)</text>
</g>
<!-- skill_workflow_issue_refine&#45;&gt;cmd_issue_review_aggregate -->
<g id="edge13" class="edge">
<title>skill_workflow_issue_refine&#45;&gt;cmd_issue_review_aggregate</title>
<path fill="none" stroke="black" d="M300.29,-495.7C332.02,-513.9 380.81,-541.23 424.3,-562.85 428.82,-565.1 433.55,-567.36 438.31,-569.59"/>
<polygon fill="black" stroke="black" points="436.9,-572.79 447.45,-573.8 439.83,-566.44 436.9,-572.79"/>
</g>
<!-- cmd_issue_arch_drift -->
<g id="node16" class="node">
<title>cmd_issue_arch_drift</title>
<polygon fill="#e3f2fd" stroke="black" points="535.3,-551.85 445.3,-551.85 445.3,-515.85 535.3,-515.85 535.3,-551.85"/>
<text text-anchor="middle" x="490.3" y="-536.85" font-family="Helvetica,sans-Serif" font-size="10.00">issue&#45;arch&#45;drift</text>
<text text-anchor="middle" x="490.3" y="-525.85" font-family="Helvetica,sans-Serif" font-size="10.00">(788 tok)</text>
</g>
<!-- skill_workflow_issue_refine&#45;&gt;cmd_issue_arch_drift -->
<g id="edge14" class="edge">
<title>skill_workflow_issue_refine&#45;&gt;cmd_issue_arch_drift</title>
<path fill="none" stroke="black" d="M328.93,-492.16C362.31,-500.84 402.95,-511.4 434.97,-519.73"/>
<polygon fill="black" stroke="black" points="434.48,-523.22 445.04,-522.35 436.24,-516.44 434.48,-523.22"/>
</g>
<!-- cmd_issue_create -->
<g id="node10" class="node">
<title>cmd_issue_create</title>
<polygon fill="#e3f2fd" stroke="black" points="528.8,-435.85 451.8,-435.85 451.8,-399.85 528.8,-399.85 528.8,-435.85"/>
<text text-anchor="middle" x="490.3" y="-420.85" font-family="Helvetica,sans-Serif" font-size="10.00">issue&#45;create</text>
<text text-anchor="middle" x="490.3" y="-409.85" font-family="Helvetica,sans-Serif" font-size="10.00">(1,002 tok)</text>
</g>
<!-- skill_workflow_issue_create&#45;&gt;cmd_issue_create -->
<g id="edge15" class="edge">
<title>skill_workflow_issue_create&#45;&gt;cmd_issue_create</title>
<path fill="none" stroke="black" d="M308.78,-337.01C340.6,-351.32 385.16,-371.33 424.3,-388.85 430.07,-391.44 436.14,-394.15 442.14,-396.83"/>
<polygon fill="black" stroke="black" points="440.93,-400.12 451.48,-401 443.78,-393.73 440.93,-400.12"/>
</g>
<!-- cmd_issue_bulk_create -->
<g id="node11" class="node">
<title>cmd_issue_bulk_create</title>
<polygon fill="#e3f2fd" stroke="black" points="540.8,-377.85 439.8,-377.85 439.8,-341.85 540.8,-341.85 540.8,-377.85"/>
<text text-anchor="middle" x="490.3" y="-362.85" font-family="Helvetica,sans-Serif" font-size="10.00">issue&#45;bulk&#45;create</text>
<text text-anchor="middle" x="490.3" y="-351.85" font-family="Helvetica,sans-Serif" font-size="10.00">(1,440 tok)</text>
</g>
<!-- skill_workflow_issue_create&#45;&gt;cmd_issue_bulk_create -->
<g id="edge16" class="edge">
<title>skill_workflow_issue_create&#45;&gt;cmd_issue_bulk_create</title>
<path fill="none" stroke="black" d="M341.1,-331.95C369.83,-337.36 402.22,-343.46 429.37,-348.57"/>
<polygon fill="black" stroke="black" points="429.03,-352.07 439.5,-350.48 430.32,-345.19 429.03,-352.07"/>
</g>
<!-- skill_workflow_issue_create&#45;&gt;cmd_issue_glossary_check -->
<!-- cmd_issue_cross_repo_create -->
<g id="node17" class="node">
<title>cmd_issue_cross_repo_create</title>
<polygon fill="#e3f2fd" stroke="black" points="555.8,-319.85 424.8,-319.85 424.8,-283.85 555.8,-283.85 555.8,-319.85"/>
<text text-anchor="middle" x="490.3" y="-304.85" font-family="Helvetica,sans-Serif" font-size="10.00">issue&#45;cross&#45;repo&#45;create</text>
<text text-anchor="middle" x="490.3" y="-293.85" font-family="Helvetica,sans-Serif" font-size="10.00">(1,425 tok)</text>
</g>
<!-- skill_workflow_issue_create&#45;&gt;cmd_issue_cross_repo_create -->
<g id="edge17" class="edge">
<title>skill_workflow_issue_create&#45;&gt;cmd_issue_cross_repo_create</title>
<path fill="none" stroke="black" d="M361.13,-311.04C378.91,-309.77 397.26,-308.45 414.33,-307.23"/>
<polygon fill="black" stroke="black" points="415.05,-310.69 424.77,-306.48 414.55,-303.7 415.05,-310.69"/>
</g>
<!-- cmd_project_board_sync -->
<g id="node18" class="node">
<title>cmd_project_board_sync</title>
<polygon fill="#e3f2fd" stroke="black" points="544.3,-261.85 436.3,-261.85 436.3,-225.85 544.3,-225.85 544.3,-261.85"/>
<text text-anchor="middle" x="490.3" y="-246.85" font-family="Helvetica,sans-Serif" font-size="10.00">project&#45;board&#45;sync</text>
<text text-anchor="middle" x="490.3" y="-235.85" font-family="Helvetica,sans-Serif" font-size="10.00">(1,184 tok)</text>
</g>
<!-- skill_workflow_issue_create&#45;&gt;cmd_project_board_sync -->
<g id="edge18" class="edge">
<title>skill_workflow_issue_create&#45;&gt;cmd_project_board_sync</title>
<path fill="none" stroke="black" d="M320.19,-299.94C352.24,-289.31 393.01,-275.79 426.49,-264.68"/>
<polygon fill="black" stroke="black" points="427.78,-267.94 436.17,-261.47 425.58,-261.3 427.78,-267.94"/>
</g>
<!-- skill_ref_issue_template_bug&#45;&gt;skill_ref_issue_template_feature -->
<!-- skill_ref_issue_template_feature&#45;&gt;skill_ref_project_model -->
<!-- skill_ref_project_model&#45;&gt;skill_ref_issue_quality_criteria -->
<!-- skill_ref_issue_quality_criteria&#45;&gt;skill_ref_glossary_criteria -->
<!-- cmd_issue_structure&#45;&gt;cmd_issue_tech_debt_absorb -->
<!-- cmd_issue_create&#45;&gt;cmd_issue_bulk_create -->
<!-- cmd_issue_bulk_create&#45;&gt;cmd_issue_cross_repo_create -->
<!-- cmd_issue_tech_debt_absorb&#45;&gt;cmd_issue_spec_review -->
<!-- cmd_issue_spec_review&#45;&gt;cmd_issue_review_aggregate -->
<!-- agent_issue_critic -->
<g id="node20" class="node">
<title>agent_issue_critic</title>
<ellipse fill="#ede7f6" stroke="black" cx="705.52" cy="-316.85" rx="49.49" ry="21.43"/>
<text text-anchor="middle" x="705.52" y="-319.85" font-family="Helvetica,sans-Serif" font-size="10.00">issue&#45;critic</text>
<text text-anchor="middle" x="705.52" y="-308.85" font-family="Helvetica,sans-Serif" font-size="10.00">(1,268 tok)</text>
</g>
<!-- cmd_issue_spec_review&#45;&gt;agent_issue_critic -->
<g id="edge19" class="edge">
<title>cmd_issue_spec_review&#45;&gt;agent_issue_critic</title>
<path fill="none" stroke="black" stroke-dasharray="5,2" d="M542.89,-632.64C547.93,-629.35 552.56,-625.45 556.3,-620.85 632.66,-526.99 536.96,-447.91 614.3,-354.85 623.83,-343.38 637.43,-335.31 651.18,-329.66"/>
<polygon fill="black" stroke="black" points="652.54,-332.89 660.68,-326.11 650.09,-326.33 652.54,-332.89"/>
</g>
<!-- agent_issue_feasibility -->
<g id="node21" class="node">
<title>agent_issue_feasibility</title>
<ellipse fill="#ede7f6" stroke="black" cx="705.52" cy="-252.85" rx="67.35" ry="21.43"/>
<text text-anchor="middle" x="705.52" y="-255.85" font-family="Helvetica,sans-Serif" font-size="10.00">issue&#45;feasibility</text>
<text text-anchor="middle" x="705.52" y="-244.85" font-family="Helvetica,sans-Serif" font-size="10.00">(1,175 tok)</text>
</g>
<!-- cmd_issue_spec_review&#45;&gt;agent_issue_feasibility -->
<g id="edge20" class="edge">
<title>cmd_issue_spec_review&#45;&gt;agent_issue_feasibility</title>
<path fill="none" stroke="black" stroke-dasharray="5,2" d="M543.09,-632.8C548.1,-629.48 552.66,-625.53 556.3,-620.85 649.34,-501.23 516.62,-400.71 614.3,-284.85 620.5,-277.5 628.51,-271.83 637.19,-267.47"/>
<polygon fill="black" stroke="black" points="638.71,-270.62 646.44,-263.38 635.88,-264.22 638.71,-270.62"/>
</g>
<!-- agent_worker_codex_reviewer -->
<g id="node22" class="node">
<title>agent_worker_codex_reviewer</title>
<ellipse fill="#ede7f6" stroke="black" cx="705.52" cy="-188.85" rx="91.43" ry="21.43"/>
<text text-anchor="middle" x="705.52" y="-191.85" font-family="Helvetica,sans-Serif" font-size="10.00">worker&#45;codex&#45;reviewer</text>
<text text-anchor="middle" x="705.52" y="-180.85" font-family="Helvetica,sans-Serif" font-size="10.00">(1,421 tok)</text>
</g>
<!-- cmd_issue_spec_review&#45;&gt;agent_worker_codex_reviewer -->
<g id="edge21" class="edge">
<title>cmd_issue_spec_review&#45;&gt;agent_worker_codex_reviewer</title>
<path fill="none" stroke="black" stroke-dasharray="5,2" d="M542.9,-633.1C548.01,-629.72 552.65,-625.68 556.3,-620.85 664.66,-477.58 500.37,-359.74 614.3,-220.85 618.38,-215.88 623.29,-211.67 628.68,-208.13"/>
<polygon fill="black" stroke="black" points="630.58,-211.08 637.51,-203.07 627.1,-205 630.58,-211.08"/>
</g>
<!-- script_escape_issue_body -->
<g id="node23" class="node">
<title>script_escape_issue_body</title>
<polygon fill="#ff9800" stroke="black" points="1043.52,-341.85 999.34,-366.34 910.98,-366.34 866.8,-341.85 910.98,-317.36 999.34,-317.36 1043.52,-341.85"/>
<text text-anchor="middle" x="955.16" y="-344.85" font-family="Helvetica,sans-Serif" font-size="10.00">escape&#45;issue&#45;body</text>
<text text-anchor="middle" x="955.16" y="-333.85" font-family="Helvetica,sans-Serif" font-size="10.00">(63 tok)</text>
</g>
<!-- cmd_issue_spec_review&#45;&gt;script_escape_issue_body -->
<g id="edge22" class="edge">
<title>cmd_issue_spec_review&#45;&gt;script_escape_issue_body</title>
<path fill="none" stroke="black" d="M536.16,-631.73C543.06,-628.4 549.99,-624.74 556.3,-620.85 702.13,-530.93 705.37,-460.78 854.73,-376.85 864.73,-371.24 875.78,-366.27 886.79,-361.98"/>
<polygon fill="black" stroke="black" points="888.27,-365.16 896.41,-358.38 885.82,-358.6 888.27,-365.16"/>
</g>
<!-- script_spec_review_manifest -->
<g id="node24" class="node">
<title>script_spec_review_manifest</title>
<polygon fill="#ff9800" stroke="black" points="1055.52,-270.85 1005.34,-295.34 904.98,-295.34 854.8,-270.85 904.98,-246.36 1005.34,-246.36 1055.52,-270.85"/>
<text text-anchor="middle" x="955.16" y="-273.85" font-family="Helvetica,sans-Serif" font-size="10.00">spec&#45;review&#45;manifest</text>
<text text-anchor="middle" x="955.16" y="-262.85" font-family="Helvetica,sans-Serif" font-size="10.00">(125 tok)</text>
</g>
<!-- cmd_issue_spec_review&#45;&gt;script_spec_review_manifest -->
<g id="edge23" class="edge">
<title>cmd_issue_spec_review&#45;&gt;script_spec_review_manifest</title>
<path fill="none" stroke="black" d="M542.96,-632.23C547.92,-629.02 552.51,-625.25 556.3,-620.85 619.44,-547.44 547.85,-481.28 614.3,-410.85 673.07,-348.56 720.66,-388.18 796.73,-348.85 825,-334.23 826.61,-321.75 854.73,-306.85 863.89,-302 873.85,-297.54 883.8,-293.53"/>
<polygon fill="black" stroke="black" points="885.27,-296.71 893.32,-289.83 882.73,-290.19 885.27,-296.71"/>
</g>
<!-- cmd_issue_review_aggregate&#45;&gt;cmd_issue_arch_drift -->
<!-- cmd_issue_glossary_check&#45;&gt;skill_ref_issue_template_bug -->
<!-- cmd_issue_glossary_check&#45;&gt;skill_ref_glossary_criteria -->
<g id="edge24" class="edge">
<title>cmd_issue_glossary_check&#45;&gt;skill_ref_glossary_criteria</title>
<path fill="none" stroke="black" d="M550,-171.51C570.33,-166.68 593.28,-161.37 614.3,-156.85 705.31,-137.29 810.6,-117.24 879.58,-104.45"/>
<polygon fill="black" stroke="black" points="880.29,-107.88 889.48,-102.62 879.01,-101 880.29,-107.88"/>
</g>
<!-- cmd_issue_cross_repo_create&#45;&gt;cmd_project_board_sync -->
<!-- cmd_explore&#45;&gt;skill_workflow_issue_refine -->
<!-- agent_issue_critic&#45;&gt;skill_ref_issue_quality_criteria -->
<g id="edge25" class="edge">
<title>agent_issue_critic&#45;&gt;skill_ref_issue_quality_criteria</title>
<path fill="none" stroke="black" stroke-dasharray="1,5" d="M750.73,-308.14C766.58,-303.33 783.72,-295.98 796.73,-284.85 837.84,-249.7 812.63,-211.82 854.73,-177.85 859.35,-174.13 864.43,-170.88 869.77,-168.05"/>
<polygon fill="black" stroke="black" points="871.45,-171.13 878.98,-163.67 868.45,-164.8 871.45,-171.13"/>
</g>
<!-- agent_issue_critic&#45;&gt;agent_issue_feasibility -->
<!-- agent_issue_feasibility&#45;&gt;skill_ref_issue_quality_criteria -->
<g id="edge26" class="edge">
<title>agent_issue_feasibility&#45;&gt;skill_ref_issue_quality_criteria</title>
<path fill="none" stroke="black" stroke-dasharray="1,5" d="M755.4,-238.48C769.13,-233.66 783.82,-227.73 796.73,-220.85 825.05,-205.77 825.99,-192.12 854.73,-177.85 860.05,-175.21 865.64,-172.77 871.36,-170.52"/>
<polygon fill="black" stroke="black" points="872.91,-173.68 881.06,-166.92 870.47,-167.12 872.91,-173.68"/>
</g>
<!-- agent_issue_feasibility&#45;&gt;agent_worker_codex_reviewer -->
<!-- agent_worker_codex_reviewer&#45;&gt;skill_ref_issue_quality_criteria -->
<g id="edge27" class="edge">
<title>agent_worker_codex_reviewer&#45;&gt;skill_ref_issue_quality_criteria</title>
<path fill="none" stroke="black" stroke-dasharray="1,5" d="M780.82,-176.85C808.6,-172.36 840.37,-167.23 869.05,-162.6"/>
<polygon fill="black" stroke="black" points="869.74,-166.03 879.06,-160.98 868.63,-159.12 869.74,-166.03"/>
</g>
<!-- agent_worker_codex_reviewer&#45;&gt;script_escape_issue_body -->
<!-- script_escape_issue_body&#45;&gt;script_spec_review_manifest -->
</g>
</svg>
