<?xml version="1.0" encoding="UTF-8" standalone="no"?>
<!DOCTYPE svg PUBLIC "-//W3C//DTD SVG 1.1//EN"
 "http://www.w3.org/Graphics/SVG/1.1/DTD/svg11.dtd">
<!-- Generated by graphviz version 2.43.0 (0)
 -->
<!-- Title: Dependencies Pages: 1 -->
<svg width="895pt" height="314pt"
 viewBox="0.00 0.00 895.28 314.21" xmlns="http://www.w3.org/2000/svg" xmlns:xlink="http://www.w3.org/1999/xlink">
<g id="graph0" class="graph" transform="scale(1 1) rotate(0) translate(4 310.21)">
<title>Dependencies</title>
<polygon fill="white" stroke="transparent" points="-4,4 -4,-310.21 891.28,-310.21 891.28,4 -4,4"/>
<text text-anchor="middle" x="443.64" y="-291.01" font-family="Helvetica,sans-Serif" font-size="14.00">workflow&#45;issue&#45;refine</text>
<!-- skill_workflow_issue_refine -->
<g id="node1" class="node">
<title>skill_workflow_issue_refine</title>
<ellipse fill="#e8f5e9" stroke="black" cx="98.99" cy="-134" rx="98.99" ry="21.43"/>
<text text-anchor="middle" x="98.99" y="-137" font-family="Helvetica,sans-Serif" font-size="10.00">twl:workflow&#45;issue&#45;refine</text>
<text text-anchor="middle" x="98.99" y="-126" font-family="Helvetica,sans-Serif" font-size="10.00">(1,092 tok)</text>
</g>
<!-- cmd_issue_structure -->
<g id="node2" class="node">
<title>cmd_issue_structure</title>
<polygon fill="#e3f2fd" stroke="black" points="366.49,-268 277.49,-268 277.49,-232 366.49,-232 366.49,-268"/>
<text text-anchor="middle" x="321.99" y="-253" font-family="Helvetica,sans-Serif" font-size="10.00">issue&#45;structure</text>
<text text-anchor="middle" x="321.99" y="-242" font-family="Helvetica,sans-Serif" font-size="10.00">(1,247 tok)</text>
</g>
<!-- skill_workflow_issue_refine&#45;&gt;cmd_issue_structure -->
<g id="edge1" class="edge">
<title>skill_workflow_issue_refine&#45;&gt;cmd_issue_structure</title>
<path fill="none" stroke="black" d="M133.61,-153.89C164.89,-172.13 213.01,-199.48 255.99,-221 260.5,-223.26 265.23,-225.53 269.98,-227.76"/>
<polygon fill="black" stroke="black" points="268.58,-230.97 279.12,-231.98 271.51,-224.61 268.58,-230.97"/>
</g>
<!-- cmd_issue_tech_debt_absorb -->
<g id="node3" class="node">
<title>cmd_issue_tech_debt_absorb</title>
<polygon fill="#e3f2fd" stroke="black" points="386.49,-210 257.49,-210 257.49,-174 386.49,-174 386.49,-210"/>
<text text-anchor="middle" x="321.99" y="-195" font-family="Helvetica,sans-Serif" font-size="10.00">issue&#45;tech&#45;debt&#45;absorb</text>
<text text-anchor="middle" x="321.99" y="-184" font-family="Helvetica,sans-Serif" font-size="10.00">(730 tok)</text>
</g>
<!-- skill_workflow_issue_refine&#45;&gt;cmd_issue_tech_debt_absorb -->
<g id="edge2" class="edge">
<title>skill_workflow_issue_refine&#45;&gt;cmd_issue_tech_debt_absorb</title>
<path fill="none" stroke="black" d="M162.44,-150.39C188.81,-157.31 219.72,-165.42 247.21,-172.64"/>
<polygon fill="black" stroke="black" points="246.61,-176.1 257.17,-175.25 248.38,-169.33 246.61,-176.1"/>
</g>
<!-- cmd_issue_spec_review -->
<g id="node4" class="node">
<title>cmd_issue_spec_review</title>
<polygon fill="#bbdefb" stroke="black" points="374.49,-152 269.49,-152 269.49,-116 374.49,-116 374.49,-152"/>
<text text-anchor="middle" x="321.99" y="-137" font-family="Helvetica,sans-Serif" font-size="10.00">issue&#45;spec&#45;review</text>
<text text-anchor="middle" x="321.99" y="-126" font-family="Helvetica,sans-Serif" font-size="10.00">(1,308 tok)</text>
</g>
<!-- skill_workflow_issue_refine&#45;&gt;cmd_issue_spec_review -->
<g id="edge3" class="edge">
<title>skill_workflow_issue_refine&#45;&gt;cmd_issue_spec_review</title>
<path fill="none" stroke="black" d="M198.21,-134C218.93,-134 240.23,-134 259.15,-134"/>
<polygon fill="black" stroke="black" points="259.4,-137.5 269.4,-134 259.4,-130.5 259.4,-137.5"/>
</g>
<!-- cmd_issue_review_aggregate -->
<g id="node5" class="node">
<title>cmd_issue_review_aggregate</title>
<polygon fill="#e3f2fd" stroke="black" points="387.99,-94 255.99,-94 255.99,-58 387.99,-58 387.99,-94"/>
<text text-anchor="middle" x="321.99" y="-79" font-family="Helvetica,sans-Serif" font-size="10.00">issue&#45;review&#45;aggregate</text>
<text text-anchor="middle" x="321.99" y="-68" font-family="Helvetica,sans-Serif" font-size="10.00">(1,157 tok)</text>
</g>
<!-- skill_workflow_issue_refine&#45;&gt;cmd_issue_review_aggregate -->
<g id="edge4" class="edge">
<title>skill_workflow_issue_refine&#45;&gt;cmd_issue_review_aggregate</title>
<path fill="none" stroke="black" d="M162.44,-117.61C188.36,-110.81 218.66,-102.86 245.78,-95.74"/>
<polygon fill="black" stroke="black" points="246.84,-99.08 255.62,-93.16 245.06,-92.31 246.84,-99.08"/>
</g>
<!-- cmd_issue_arch_drift -->
<g id="node6" class="node">
<title>cmd_issue_arch_drift</title>
<polygon fill="#e3f2fd" stroke="black" points="366.99,-36 276.99,-36 276.99,0 366.99,0 366.99,-36"/>
<text text-anchor="middle" x="321.99" y="-21" font-family="Helvetica,sans-Serif" font-size="10.00">issue&#45;arch&#45;drift</text>
<text text-anchor="middle" x="321.99" y="-10" font-family="Helvetica,sans-Serif" font-size="10.00">(788 tok)</text>
</g>
<!-- skill_workflow_issue_refine&#45;&gt;cmd_issue_arch_drift -->
<g id="edge5" class="edge">
<title>skill_workflow_issue_refine&#45;&gt;cmd_issue_arch_drift</title>
<path fill="none" stroke="black" d="M133.61,-114.11C164.89,-95.87 213.01,-68.52 255.99,-47 260.5,-44.74 265.23,-42.47 269.98,-40.24"/>
<polygon fill="black" stroke="black" points="271.51,-43.39 279.12,-36.02 268.58,-37.03 271.51,-43.39"/>
</g>
<!-- cmd_issue_structure&#45;&gt;cmd_issue_tech_debt_absorb -->
<!-- cmd_issue_tech_debt_absorb&#45;&gt;cmd_issue_spec_review -->
<!-- cmd_issue_spec_review&#45;&gt;cmd_issue_review_aggregate -->
<!-- agent_issue_critic -->
<g id="node7" class="node">
<title>agent_issue_critic</title>
<ellipse fill="#ede7f6" stroke="black" cx="537.21" cy="-262" rx="49.49" ry="21.43"/>
<text text-anchor="middle" x="537.21" y="-265" font-family="Helvetica,sans-Serif" font-size="10.00">issue&#45;critic</text>
<text text-anchor="middle" x="537.21" y="-254" font-family="Helvetica,sans-Serif" font-size="10.00">(1,268 tok)</text>
</g>
<!-- cmd_issue_spec_review&#45;&gt;agent_issue_critic -->
<g id="edge6" class="edge">
<title>cmd_issue_spec_review&#45;&gt;agent_issue_critic</title>
<path fill="none" stroke="black" stroke-dasharray="5,2" d="M370.19,-152.07C376.42,-155.3 382.53,-158.95 387.99,-163 419.62,-186.47 413.46,-207.79 445.99,-230 457.36,-237.77 470.83,-243.86 483.84,-248.54"/>
<polygon fill="black" stroke="black" points="483.06,-251.98 493.66,-251.86 485.3,-245.34 483.06,-251.98"/>
</g>
<!-- agent_issue_feasibility -->
<g id="node8" class="node">
<title>agent_issue_feasibility</title>
<ellipse fill="#ede7f6" stroke="black" cx="537.21" cy="-198" rx="67.35" ry="21.43"/>
<text text-anchor="middle" x="537.21" y="-201" font-family="Helvetica,sans-Serif" font-size="10.00">issue&#45;feasibility</text>
<text text-anchor="middle" x="537.21" y="-190" font-family="Helvetica,sans-Serif" font-size="10.00">(1,175 tok)</text>
</g>
<!-- cmd_issue_spec_review&#45;&gt;agent_issue_feasibility -->
<g id="edge7" class="edge">
<title>cmd_issue_spec_review&#45;&gt;agent_issue_feasibility</title>
<path fill="none" stroke="black" stroke-dasharray="5,2" d="M374.6,-149.49C405.88,-158.88 445.85,-170.88 478.21,-180.59"/>
<polygon fill="black" stroke="black" points="477.41,-184 487.99,-183.53 479.42,-177.3 477.41,-184"/>
</g>
<!-- agent_worker_codex_reviewer -->
<g id="node9" class="node">
<title>agent_worker_codex_reviewer</title>
<ellipse fill="#ede7f6" stroke="black" cx="537.21" cy="-134" rx="91.43" ry="21.43"/>
<text text-anchor="middle" x="537.21" y="-137" font-family="Helvetica,sans-Serif" font-size="10.00">worker&#45;codex&#45;reviewer</text>
<text text-anchor="middle" x="537.21" y="-126" font-family="Helvetica,sans-Serif" font-size="10.00">(1,426 tok)</text>
</g>
<!-- cmd_issue_spec_review&#45;&gt;agent_worker_codex_reviewer -->
<g id="edge8" class="edge">
<title>cmd_issue_spec_review&#45;&gt;agent_worker_codex_reviewer</title>
<path fill="none" stroke="black" stroke-dasharray="5,2" d="M374.6,-134C393.12,-134 414.68,-134 435.9,-134"/>
<polygon fill="black" stroke="black" points="435.95,-137.5 445.95,-134 435.95,-130.5 435.95,-137.5"/>
</g>
<!-- script_escape_issue_body -->
<g id="node10" class="node">
<title>script_escape_issue_body</title>
<polygon fill="#ff9800" stroke="black" points="875.22,-134 831.03,-158.49 742.67,-158.49 698.49,-134 742.67,-109.51 831.03,-109.51 875.22,-134"/>
<text text-anchor="middle" x="786.85" y="-137" font-family="Helvetica,sans-Serif" font-size="10.00">escape&#45;issue&#45;body</text>
<text text-anchor="middle" x="786.85" y="-126" font-family="Helvetica,sans-Serif" font-size="10.00">(63 tok)</text>
</g>
<!-- cmd_issue_spec_review&#45;&gt;script_escape_issue_body -->
<g id="edge9" class="edge">
<title>cmd_issue_spec_review&#45;&gt;script_escape_issue_body</title>
<path fill="none" stroke="black" d="M374.78,-117.4C396.53,-111.25 422.24,-105.04 445.99,-102 526.42,-91.71 547.75,-93.88 628.42,-102 657.34,-104.91 688.8,-110.75 715.94,-116.66"/>
<polygon fill="black" stroke="black" points="715.21,-120.08 725.73,-118.83 716.73,-113.25 715.21,-120.08"/>
</g>
<!-- script_spec_review_manifest -->
<g id="node11" class="node">
<title>script_spec_review_manifest</title>
<polygon fill="#ff9800" stroke="black" points="887.21,-63 837.03,-87.49 736.67,-87.49 686.49,-63 736.67,-38.51 837.03,-38.51 887.21,-63"/>
<text text-anchor="middle" x="786.85" y="-66" font-family="Helvetica,sans-Serif" font-size="10.00">spec&#45;review&#45;manifest</text>
<text text-anchor="middle" x="786.85" y="-55" font-family="Helvetica,sans-Serif" font-size="10.00">(125 tok)</text>
</g>
<!-- cmd_issue_spec_review&#45;&gt;script_spec_review_manifest -->
<g id="edge10" class="edge">
<title>cmd_issue_spec_review&#45;&gt;script_spec_review_manifest</title>
<path fill="none" stroke="black" d="M364.88,-115.9C388.3,-106.58 418.27,-95.95 445.99,-90 522.5,-73.58 610.64,-66.92 677.98,-64.32"/>
<polygon fill="black" stroke="black" points="678.31,-67.81 688.18,-63.95 678.06,-60.81 678.31,-67.81"/>
</g>
<!-- cmd_issue_review_aggregate&#45;&gt;cmd_issue_arch_drift -->
<!-- agent_issue_critic&#45;&gt;agent_issue_feasibility -->
<!-- agent_issue_feasibility&#45;&gt;agent_worker_codex_reviewer -->
<!-- agent_worker_codex_reviewer&#45;&gt;script_escape_issue_body -->
<!-- script_escape_issue_body&#45;&gt;script_spec_review_manifest -->
</g>
</svg>
