<?xml version="1.0" encoding="UTF-8" standalone="no"?>
<!DOCTYPE svg PUBLIC "-//W3C//DTD SVG 1.1//EN"
 "http://www.w3.org/Graphics/SVG/1.1/DTD/svg11.dtd">
<!-- Generated by graphviz version 2.43.0 (0)
 -->
<!-- Title: Dependencies Pages: 1 -->
<svg width="1634pt" height="732pt"
 viewBox="0.00 0.00 1633.92 732.01" xmlns="http://www.w3.org/2000/svg" xmlns:xlink="http://www.w3.org/1999/xlink">
<g id="graph0" class="graph" transform="scale(1 1) rotate(0) translate(4 728.01)">
<title>Dependencies</title>
<polygon fill="white" stroke="transparent" points="-4,4 -4,-728.01 1629.92,-728.01 1629.92,4 -4,4"/>
<text text-anchor="middle" x="812.96" y="-708.81" font-family="Helvetica,sans-Serif" font-size="14.00">co&#45;self&#45;improve</text>
<!-- skill_co_self_improve -->
<g id="node1" class="node">
<title>skill_co_self_improve</title>
<ellipse fill="#c8e6c9" stroke="black" cx="78.49" cy="-289.82" rx="78.48" ry="21.43"/>
<text text-anchor="middle" x="78.49" y="-292.82" font-family="Helvetica,sans-Serif" font-size="10.00">twl:co&#45;self&#45;improve</text>
<text text-anchor="middle" x="78.49" y="-281.82" font-family="Helvetica,sans-Serif" font-size="10.00">(1,171 tok)</text>
</g>
<!-- skill_workflow_observe_loop -->
<g id="node2" class="node">
<title>skill_workflow_observe_loop</title>
<ellipse fill="#e8f5e9" stroke="black" cx="318.22" cy="-551.82" rx="103.48" ry="21.43"/>
<text text-anchor="middle" x="318.22" y="-554.82" font-family="Helvetica,sans-Serif" font-size="10.00">twl:workflow&#45;observe&#45;loop</text>
<text text-anchor="middle" x="318.22" y="-543.82" font-family="Helvetica,sans-Serif" font-size="10.00">(1,503 tok)</text>
</g>
<!-- skill_co_self_improve&#45;&gt;skill_workflow_observe_loop -->
<g id="edge1" class="edge">
<title>skill_co_self_improve&#45;&gt;skill_workflow_observe_loop</title>
<path fill="none" stroke="black" d="M86.77,-310.93C102.95,-354.86 146,-456.74 214.98,-513.82 223.41,-520.8 233.25,-526.56 243.42,-531.31"/>
<polygon fill="black" stroke="black" points="242.27,-534.62 252.84,-535.38 245.05,-528.2 242.27,-534.62"/>
</g>
<!-- cmd_observe_once -->
<g id="node3" class="node">
<title>cmd_observe_once</title>
<polygon fill="#e3f2fd" stroke="black" points="599.45,-395.82 516.45,-395.82 516.45,-359.82 599.45,-359.82 599.45,-395.82"/>
<text text-anchor="middle" x="557.95" y="-380.82" font-family="Helvetica,sans-Serif" font-size="10.00">observe&#45;once</text>
<text text-anchor="middle" x="557.95" y="-369.82" font-family="Helvetica,sans-Serif" font-size="10.00">(436 tok)</text>
</g>
<!-- skill_co_self_improve&#45;&gt;cmd_observe_once -->
<g id="edge5" class="edge">
<title>skill_co_self_improve&#45;&gt;cmd_observe_once</title>
<path fill="none" stroke="black" d="M128.59,-306.22C154.12,-314.26 185.97,-323.54 214.98,-329.82 317.18,-351.95 438.86,-366.21 506.04,-373.05"/>
<polygon fill="black" stroke="black" points="506.04,-376.56 516.34,-374.08 506.74,-369.6 506.04,-376.56"/>
</g>
<!-- cmd_problem_detect -->
<g id="node4" class="node">
<title>cmd_problem_detect</title>
<polygon fill="#e3f2fd" stroke="black" points="603.95,-83.82 511.95,-83.82 511.95,-47.82 603.95,-47.82 603.95,-83.82"/>
<text text-anchor="middle" x="557.95" y="-68.82" font-family="Helvetica,sans-Serif" font-size="10.00">problem&#45;detect</text>
<text text-anchor="middle" x="557.95" y="-57.82" font-family="Helvetica,sans-Serif" font-size="10.00">(678 tok)</text>
</g>
<!-- skill_co_self_improve&#45;&gt;cmd_problem_detect -->
<g id="edge6" class="edge">
<title>skill_co_self_improve&#45;&gt;cmd_problem_detect</title>
<path fill="none" stroke="black" d="M87.69,-268.53C104.57,-227.93 147.39,-140 214.98,-100.82 304.79,-48.75 430.43,-51.28 501.76,-58.25"/>
<polygon fill="black" stroke="black" points="501.56,-61.75 511.87,-59.31 502.29,-54.79 501.56,-61.75"/>
</g>
<!-- cmd_issue_draft_from_observation -->
<g id="node5" class="node">
<title>cmd_issue_draft_from_observation</title>
<polygon fill="#e3f2fd" stroke="black" points="636.45,-291.82 479.45,-291.82 479.45,-255.82 636.45,-255.82 636.45,-291.82"/>
<text text-anchor="middle" x="557.95" y="-276.82" font-family="Helvetica,sans-Serif" font-size="10.00">issue&#45;draft&#45;from&#45;observation</text>
<text text-anchor="middle" x="557.95" y="-265.82" font-family="Helvetica,sans-Serif" font-size="10.00">(591 tok)</text>
</g>
<!-- skill_co_self_improve&#45;&gt;cmd_issue_draft_from_observation -->
<g id="edge7" class="edge">
<title>skill_co_self_improve&#45;&gt;cmd_issue_draft_from_observation</title>
<path fill="none" stroke="black" d="M156.47,-287.24C241.93,-284.38 379.61,-279.76 469.2,-276.76"/>
<polygon fill="black" stroke="black" points="469.46,-280.25 479.33,-276.42 469.22,-273.26 469.46,-280.25"/>
</g>
<!-- cmd_observe_retrospective -->
<g id="node7" class="node">
<title>cmd_observe_retrospective</title>
<polygon fill="#e3f2fd" stroke="black" points="619.95,-233.82 495.95,-233.82 495.95,-197.82 619.95,-197.82 619.95,-233.82"/>
<text text-anchor="middle" x="557.95" y="-218.82" font-family="Helvetica,sans-Serif" font-size="10.00">observe&#45;retrospective</text>
<text text-anchor="middle" x="557.95" y="-207.82" font-family="Helvetica,sans-Serif" font-size="10.00">(521 tok)</text>
</g>
<!-- skill_co_self_improve&#45;&gt;cmd_observe_retrospective -->
<g id="edge8" class="edge">
<title>skill_co_self_improve&#45;&gt;cmd_observe_retrospective</title>
<path fill="none" stroke="black" d="M146.89,-279.37C236.58,-265.47 394.47,-241 485.95,-226.83"/>
<polygon fill="black" stroke="black" points="486.6,-230.27 495.95,-225.28 485.53,-223.35 486.6,-230.27"/>
</g>
<!-- cmd_test_project_init -->
<g id="node8" class="node">
<title>cmd_test_project_init</title>
<polygon fill="#e3f2fd" stroke="black" points="603.95,-569.82 511.95,-569.82 511.95,-533.82 603.95,-533.82 603.95,-569.82"/>
<text text-anchor="middle" x="557.95" y="-554.82" font-family="Helvetica,sans-Serif" font-size="10.00">test&#45;project&#45;init</text>
<text text-anchor="middle" x="557.95" y="-543.82" font-family="Helvetica,sans-Serif" font-size="10.00">(847 tok)</text>
</g>
<!-- skill_co_self_improve&#45;&gt;cmd_test_project_init -->
<g id="edge2" class="edge">
<title>skill_co_self_improve&#45;&gt;cmd_test_project_init</title>
<path fill="none" stroke="black" d="M90.87,-310.91C111.07,-346.32 156.63,-417.6 214.98,-455.82 239.18,-471.68 411.76,-515.9 502.1,-538.36"/>
<polygon fill="black" stroke="black" points="501.36,-541.78 511.9,-540.79 503.04,-534.98 501.36,-541.78"/>
</g>
<!-- cmd_test_project_reset -->
<g id="node9" class="node">
<title>cmd_test_project_reset</title>
<polygon fill="#e3f2fd" stroke="black" points="608.45,-511.82 507.45,-511.82 507.45,-475.82 608.45,-475.82 608.45,-511.82"/>
<text text-anchor="middle" x="557.95" y="-496.82" font-family="Helvetica,sans-Serif" font-size="10.00">test&#45;project&#45;reset</text>
<text text-anchor="middle" x="557.95" y="-485.82" font-family="Helvetica,sans-Serif" font-size="10.00">(443 tok)</text>
</g>
<!-- skill_co_self_improve&#45;&gt;cmd_test_project_reset -->
<g id="edge3" class="edge">
<title>skill_co_self_improve&#45;&gt;cmd_test_project_reset</title>
<path fill="none" stroke="black" d="M98,-310.69C122.29,-336.81 167.46,-381.08 214.98,-405.82 306.97,-453.71 426.73,-476.74 497.38,-486.85"/>
<polygon fill="black" stroke="black" points="497.05,-490.33 507.43,-488.24 498.01,-483.4 497.05,-490.33"/>
</g>
<!-- cmd_test_project_scenario_load -->
<g id="node10" class="node">
<title>cmd_test_project_scenario_load</title>
<polygon fill="#e3f2fd" stroke="black" points="629.45,-453.82 486.45,-453.82 486.45,-417.82 629.45,-417.82 629.45,-453.82"/>
<text text-anchor="middle" x="557.95" y="-438.82" font-family="Helvetica,sans-Serif" font-size="10.00">test&#45;project&#45;scenario&#45;load</text>
<text text-anchor="middle" x="557.95" y="-427.82" font-family="Helvetica,sans-Serif" font-size="10.00">(861 tok)</text>
</g>
<!-- skill_co_self_improve&#45;&gt;cmd_test_project_scenario_load -->
<g id="edge4" class="edge">
<title>skill_co_self_improve&#45;&gt;cmd_test_project_scenario_load</title>
<path fill="none" stroke="black" d="M109.79,-309.4C136.51,-325.85 176.98,-348.85 214.98,-362.82 301.47,-394.61 405.61,-414.37 476.08,-425.18"/>
<polygon fill="black" stroke="black" points="475.81,-428.68 486.22,-426.71 476.86,-421.76 475.81,-428.68"/>
</g>
<!-- agent_observer_evaluator -->
<g id="node13" class="node">
<title>agent_observer_evaluator</title>
<ellipse fill="none" stroke="black" cx="796.51" cy="-215.82" rx="84.54" ry="18"/>
<text text-anchor="middle" x="796.51" y="-213.32" font-family="Helvetica,sans-Serif" font-size="10.00">agent_observer_evaluator</text>
</g>
<!-- skill_co_self_improve&#45;&gt;agent_observer_evaluator -->
<g id="edge9" class="edge">
<title>skill_co_self_improve&#45;&gt;agent_observer_evaluator</title>
<path fill="none" stroke="black" stroke-dasharray="5,2" d="M116.57,-271.12C143.32,-258.34 180.62,-241.94 214.98,-231.82 395.69,-178.58 448.83,-169.86 636.45,-186.82 666.7,-189.56 699.8,-195.16 727.93,-200.72"/>
<polygon fill="black" stroke="black" points="727.56,-204.22 738.06,-202.76 728.95,-197.35 727.56,-204.22"/>
</g>
<!-- skill_test_scenario_catalog -->
<g id="node14" class="node">
<title>skill_test_scenario_catalog</title>
<ellipse fill="none" stroke="black" cx="1044.29" cy="-215.82" rx="87.92" ry="18"/>
<text text-anchor="middle" x="1044.29" y="-213.32" font-family="Helvetica,sans-Serif" font-size="10.00">skill_test_scenario_catalog</text>
</g>
<!-- skill_co_self_improve&#45;&gt;skill_test_scenario_catalog -->
<g id="edge10" class="edge">
<title>skill_co_self_improve&#45;&gt;skill_test_scenario_catalog</title>
<path fill="none" stroke="black" d="M96.55,-268.82C119.95,-241.84 164.86,-196.28 214.98,-177.82 487.77,-77.33 845.62,-159.03 984.58,-198.01"/>
<polygon fill="black" stroke="black" points="984.02,-201.49 994.6,-200.86 985.93,-194.76 984.02,-201.49"/>
</g>
<!-- skill_observation_pattern_catalog -->
<g id="node15" class="node">
<title>skill_observation_pattern_catalog</title>
<ellipse fill="none" stroke="black" cx="1297.14" cy="-215.82" rx="107.27" ry="18"/>
<text text-anchor="middle" x="1297.14" y="-213.32" font-family="Helvetica,sans-Serif" font-size="10.00">skill_observation_pattern_catalog</text>
</g>
<!-- skill_co_self_improve&#45;&gt;skill_observation_pattern_catalog -->
<g id="edge11" class="edge">
<title>skill_co_self_improve&#45;&gt;skill_observation_pattern_catalog</title>
<path fill="none" stroke="black" d="M155.43,-294.13C174.84,-295.13 195.68,-296.1 214.98,-296.82 332.47,-301.19 361.89,-301.49 479.45,-302.82 549.23,-303.61 567.04,-309.93 636.45,-302.82 662.64,-300.14 668.44,-294.87 694.45,-290.82 887.66,-260.75 938.37,-272.07 1132,-244.82 1159.44,-240.96 1189.32,-235.93 1215.97,-231.14"/>
<polygon fill="black" stroke="black" points="1216.8,-234.55 1226.02,-229.32 1215.56,-227.66 1216.8,-234.55"/>
</g>
<!-- skill_load_test_baselines -->
<g id="node16" class="node">
<title>skill_load_test_baselines</title>
<ellipse fill="none" stroke="black" cx="1544.1" cy="-215.82" rx="81.65" ry="18"/>
<text text-anchor="middle" x="1544.1" y="-213.32" font-family="Helvetica,sans-Serif" font-size="10.00">skill_load_test_baselines</text>
</g>
<!-- skill_co_self_improve&#45;&gt;skill_load_test_baselines -->
<g id="edge12" class="edge">
<title>skill_co_self_improve&#45;&gt;skill_load_test_baselines</title>
<path fill="none" stroke="black" d="M84.43,-268.65C96.91,-220.45 134.58,-102.6 214.98,-49.82 342.74,34.05 404.12,-13.82 556.95,-13.82 556.95,-13.82 556.95,-13.82 1045.29,-13.82 1233.88,-13.82 1435.13,-139.85 1511.37,-192.81"/>
<polygon fill="black" stroke="black" points="1509.43,-195.72 1519.63,-198.6 1513.45,-189.99 1509.43,-195.72"/>
</g>
<!-- cmd_observe_and_detect -->
<g id="node6" class="node">
<title>cmd_observe_and_detect</title>
<polygon fill="#bbdefb" stroke="black" points="613.95,-627.82 501.95,-627.82 501.95,-591.82 613.95,-591.82 613.95,-627.82"/>
<text text-anchor="middle" x="557.95" y="-612.82" font-family="Helvetica,sans-Serif" font-size="10.00">observe&#45;and&#45;detect</text>
<text text-anchor="middle" x="557.95" y="-601.82" font-family="Helvetica,sans-Serif" font-size="10.00">(460 tok)</text>
</g>
<!-- skill_workflow_observe_loop&#45;&gt;cmd_observe_and_detect -->
<g id="edge13" class="edge">
<title>skill_workflow_observe_loop&#45;&gt;cmd_observe_and_detect</title>
<path fill="none" stroke="black" d="M385.44,-567.98C418.68,-576.09 458.81,-585.88 491.89,-593.95"/>
<polygon fill="black" stroke="black" points="491.37,-597.42 501.92,-596.39 493.03,-590.62 491.37,-597.42"/>
</g>
<!-- skill_workflow_observe_loop&#45;&gt;cmd_observe_retrospective -->
<g id="edge14" class="edge">
<title>skill_workflow_observe_loop&#45;&gt;cmd_observe_retrospective</title>
<path fill="none" stroke="black" d="M324.66,-530.25C339.68,-474.93 386.89,-326.65 479.45,-244.82 481.8,-242.75 484.31,-240.82 486.93,-239.02"/>
<polygon fill="black" stroke="black" points="488.93,-241.9 495.67,-233.72 485.3,-235.91 488.93,-241.9"/>
</g>
<!-- skill_workflow_observe_loop&#45;&gt;cmd_test_project_init -->
<!-- script_observe_wrapper -->
<g id="node11" class="node">
<title>script_observe_wrapper</title>
<polygon fill="#ff9800" stroke="black" points="877.18,-396.82 836.85,-421.31 756.18,-421.31 715.85,-396.82 756.18,-372.33 836.85,-372.33 877.18,-396.82"/>
<text text-anchor="middle" x="796.51" y="-399.82" font-family="Helvetica,sans-Serif" font-size="10.00">observe&#45;wrapper</text>
<text text-anchor="middle" x="796.51" y="-388.82" font-family="Helvetica,sans-Serif" font-size="10.00">(122 tok)</text>
</g>
<!-- skill_workflow_observe_loop&#45;&gt;script_observe_wrapper -->
<g id="edge15" class="edge">
<title>skill_workflow_observe_loop&#45;&gt;script_observe_wrapper</title>
<path fill="none" stroke="black" d="M336.79,-572.69C363.8,-602.95 418.78,-657.69 479.45,-678.82 545.35,-701.77 576.2,-714.01 636.45,-678.82 729.33,-624.58 772.23,-493.87 787.97,-431.31"/>
<polygon fill="black" stroke="black" points="791.39,-432.07 790.36,-421.53 784.59,-430.41 791.39,-432.07"/>
</g>
<!-- script_session_state_wrapper -->
<g id="node12" class="node">
<title>script_session_state_wrapper</title>
<polygon fill="#ff9800" stroke="black" points="898.64,-325.82 847.58,-350.31 745.45,-350.31 694.39,-325.82 745.45,-301.33 847.58,-301.33 898.64,-325.82"/>
<text text-anchor="middle" x="796.51" y="-328.82" font-family="Helvetica,sans-Serif" font-size="10.00">session&#45;state&#45;wrapper</text>
<text text-anchor="middle" x="796.51" y="-317.82" font-family="Helvetica,sans-Serif" font-size="10.00">(126 tok)</text>
</g>
<!-- skill_workflow_observe_loop&#45;&gt;script_session_state_wrapper -->
<g id="edge16" class="edge">
<title>skill_workflow_observe_loop&#45;&gt;script_session_state_wrapper</title>
<path fill="none" stroke="black" d="M344.95,-572.49C403.32,-616.76 547.58,-711.02 636.45,-638.82 734.08,-559.52 611.75,-456.59 694.45,-361.82 700.37,-355.04 707.65,-349.54 715.58,-345.07"/>
<polygon fill="black" stroke="black" points="717.39,-348.07 724.76,-340.45 714.25,-341.82 717.39,-348.07"/>
</g>
<!-- cmd_observe_once&#45;&gt;cmd_problem_detect -->
<!-- cmd_observe_once&#45;&gt;script_observe_wrapper -->
<g id="edge17" class="edge">
<title>cmd_observe_once&#45;&gt;script_observe_wrapper</title>
<path fill="none" stroke="black" d="M599.62,-381.09C631.15,-383.62 675.85,-387.21 714.59,-390.32"/>
<polygon fill="black" stroke="black" points="714.58,-393.83 724.82,-391.14 715.14,-386.85 714.58,-393.83"/>
</g>
<!-- cmd_observe_once&#45;&gt;script_session_state_wrapper -->
<g id="edge18" class="edge">
<title>cmd_observe_once&#45;&gt;script_session_state_wrapper</title>
<path fill="none" stroke="black" d="M599.62,-368.88C631.53,-361.87 676.92,-351.89 715.98,-343.3"/>
<polygon fill="black" stroke="black" points="716.75,-346.72 725.77,-341.15 715.25,-339.88 716.75,-346.72"/>
</g>
<!-- cmd_problem_detect&#45;&gt;cmd_issue_draft_from_observation -->
<!-- cmd_problem_detect&#45;&gt;skill_observation_pattern_catalog -->
<g id="edge19" class="edge">
<title>cmd_problem_detect&#45;&gt;skill_observation_pattern_catalog</title>
<path fill="none" stroke="black" d="M604.11,-67.9C669.53,-71.5 794.28,-80.53 898.58,-100.82 1022.6,-124.95 1163.83,-170.19 1240.1,-196.16"/>
<polygon fill="black" stroke="black" points="1239.38,-199.61 1249.98,-199.54 1241.65,-192.99 1239.38,-199.61"/>
</g>
<!-- cmd_issue_draft_from_observation&#45;&gt;cmd_observe_retrospective -->
<!-- cmd_observe_and_detect&#45;&gt;cmd_observe_retrospective -->
<!-- cmd_observe_and_detect&#45;&gt;agent_observer_evaluator -->
<g id="edge20" class="edge">
<title>cmd_observe_and_detect&#45;&gt;agent_observer_evaluator</title>
<path fill="none" stroke="black" stroke-dasharray="5,2" d="M614.29,-597.17C622.67,-593.14 630.49,-587.82 636.45,-580.82 721.64,-480.72 624.09,-401.84 694.45,-290.82 708.68,-268.37 732.2,-250.33 752.97,-237.57"/>
<polygon fill="black" stroke="black" points="754.84,-240.53 761.67,-232.42 751.28,-234.5 754.84,-240.53"/>
</g>
<!-- cmd_observe_retrospective&#45;&gt;script_observe_wrapper -->
<!-- cmd_observe_retrospective&#45;&gt;agent_observer_evaluator -->
<!-- cmd_test_project_init&#45;&gt;cmd_test_project_reset -->
<!-- cmd_test_project_reset&#45;&gt;cmd_test_project_scenario_load -->
<!-- cmd_test_project_scenario_load&#45;&gt;cmd_observe_once -->
<!-- script_observe_wrapper&#45;&gt;script_session_state_wrapper -->
<!-- script_observe_wrapper&#45;&gt;script_session_state_wrapper -->
<!-- agent_observer_evaluator&#45;&gt;skill_test_scenario_catalog -->
<!-- skill_test_scenario_catalog&#45;&gt;skill_observation_pattern_catalog -->
<!-- skill_observation_pattern_catalog&#45;&gt;skill_load_test_baselines -->
</g>
</svg>
