<?xml version="1.0" encoding="UTF-8" standalone="no"?>
<!DOCTYPE svg PUBLIC "-//W3C//DTD SVG 1.1//EN"
 "http://www.w3.org/Graphics/SVG/1.1/DTD/svg11.dtd">
<!-- Generated by graphviz version 2.43.0 (0)
 -->
<!-- Title: Dependencies Pages: 1 -->
<svg width="725pt" height="1473pt"
 viewBox="0.00 0.00 725.49 1472.62" xmlns="http://www.w3.org/2000/svg" xmlns:xlink="http://www.w3.org/1999/xlink">
<g id="graph0" class="graph" transform="scale(1 1) rotate(0) translate(4 1468.62)">
<title>Dependencies</title>
<polygon fill="white" stroke="transparent" points="-4,4 -4,-1468.62 721.49,-1468.62 721.49,4 -4,4"/>
<text text-anchor="middle" x="358.74" y="-1449.42" font-family="Helvetica,sans-Serif" font-size="14.00">co&#45;project</text>
<!-- skill_co_project -->
<g id="node1" class="node">
<title>skill_co_project</title>
<ellipse fill="#c8e6c9" stroke="black" cx="53.03" cy="-785.13" rx="53.07" ry="21.43"/>
<text text-anchor="middle" x="53.03" y="-788.13" font-family="Helvetica,sans-Serif" font-size="10.00">twl:co&#45;project</text>
<text text-anchor="middle" x="53.03" y="-777.13" font-family="Helvetica,sans-Serif" font-size="10.00">(1,395 tok)</text>
</g>
<!-- skill_ref_types -->
<g id="node3" class="node">
<title>skill_ref_types</title>
<polygon fill="#e1f5fe" stroke="black" points="669.49,-284.13 604.49,-284.13 604.49,-248.13 675.49,-248.13 675.49,-278.13 669.49,-284.13"/>
<polyline fill="none" stroke="black" points="669.49,-284.13 669.49,-278.13 "/>
<polyline fill="none" stroke="black" points="675.49,-278.13 669.49,-278.13 "/>
<text text-anchor="middle" x="639.99" y="-269.13" font-family="Helvetica,sans-Serif" font-size="10.00">twl:ref&#45;types</text>
<text text-anchor="middle" x="639.99" y="-258.13" font-family="Helvetica,sans-Serif" font-size="10.00">(2,168 tok)</text>
</g>
<!-- skill_co_project&#45;&gt;skill_ref_types -->
<g id="edge21" class="edge">
<title>skill_co_project&#45;&gt;skill_ref_types</title>
<path fill="none" stroke="black" d="M54.84,-806.48C58.84,-899.42 79.87,-1267.08 164.07,-1336.13 212.52,-1375.87 244.38,-1351.76 305.07,-1336.13 403.09,-1310.89 447.09,-1309.5 504.49,-1226.13 612.73,-1068.91 634.75,-436.55 638.36,-294.54"/>
<polygon fill="black" stroke="black" points="641.86,-294.54 638.61,-284.45 634.87,-294.37 641.86,-294.54"/>
</g>
<!-- skill_ref_practices -->
<g id="node4" class="node">
<title>skill_ref_practices</title>
<polygon fill="#e1f5fe" stroke="black" points="676.99,-110.13 596.99,-110.13 596.99,-74.13 682.99,-74.13 682.99,-104.13 676.99,-110.13"/>
<polyline fill="none" stroke="black" points="676.99,-110.13 676.99,-104.13 "/>
<polyline fill="none" stroke="black" points="682.99,-104.13 676.99,-104.13 "/>
<text text-anchor="middle" x="639.99" y="-95.13" font-family="Helvetica,sans-Serif" font-size="10.00">twl:ref&#45;practices</text>
<text text-anchor="middle" x="639.99" y="-84.13" font-family="Helvetica,sans-Serif" font-size="10.00">(6,372 tok)</text>
</g>
<!-- skill_co_project&#45;&gt;skill_ref_practices -->
<g id="edge22" class="edge">
<title>skill_co_project&#45;&gt;skill_ref_practices</title>
<path fill="none" stroke="black" d="M53.47,-763.91C52.35,-686.91 56.72,-417.14 164.07,-234.13 222.92,-133.79 253.93,-104.4 363.07,-64.13 437.43,-36.69 530.25,-56.12 587.04,-73.48"/>
<polygon fill="black" stroke="black" points="586.28,-76.91 596.86,-76.58 588.38,-70.24 586.28,-76.91"/>
</g>
<!-- skill_ref_deps_format -->
<g id="node5" class="node">
<title>skill_ref_deps_format</title>
<polygon fill="#e1f5fe" stroke="black" points="682.99,-52.13 590.99,-52.13 590.99,-16.13 688.99,-16.13 688.99,-46.13 682.99,-52.13"/>
<polyline fill="none" stroke="black" points="682.99,-52.13 682.99,-46.13 "/>
<polyline fill="none" stroke="black" points="688.99,-46.13 682.99,-46.13 "/>
<text text-anchor="middle" x="639.99" y="-37.13" font-family="Helvetica,sans-Serif" font-size="10.00">twl:ref&#45;deps&#45;format</text>
<text text-anchor="middle" x="639.99" y="-26.13" font-family="Helvetica,sans-Serif" font-size="10.00">(1,832 tok)</text>
</g>
<!-- skill_co_project&#45;&gt;skill_ref_deps_format -->
<g id="edge23" class="edge">
<title>skill_co_project&#45;&gt;skill_ref_deps_format</title>
<path fill="none" stroke="black" d="M54.22,-763.71C55.6,-657.08 67.19,-184.74 164.07,-84.13 272.76,28.75 479.84,2.21 580.77,-19.42"/>
<polygon fill="black" stroke="black" points="580.27,-22.89 590.79,-21.62 581.77,-16.06 580.27,-22.89"/>
</g>
<!-- cmd_label_sync -->
<g id="node7" class="node">
<title>cmd_label_sync</title>
<polygon fill="#e3f2fd" stroke="black" points="266.07,-281.13 203.07,-281.13 203.07,-245.13 266.07,-245.13 266.07,-281.13"/>
<text text-anchor="middle" x="234.57" y="-266.13" font-family="Helvetica,sans-Serif" font-size="10.00">label&#45;sync</text>
<text text-anchor="middle" x="234.57" y="-255.13" font-family="Helvetica,sans-Serif" font-size="10.00">(1,185 tok)</text>
</g>
<!-- skill_co_project&#45;&gt;cmd_label_sync -->
<g id="edge20" class="edge">
<title>skill_co_project&#45;&gt;cmd_label_sync</title>
<path fill="none" stroke="black" d="M56.18,-763.88C65.13,-679.14 101.89,-366.31 164.07,-292.13 171.67,-283.06 182.58,-276.78 193.51,-272.45"/>
<polygon fill="black" stroke="black" points="194.75,-275.72 203.04,-269.12 192.44,-269.11 194.75,-275.72"/>
</g>
<!-- cmd_project_create -->
<g id="node8" class="node">
<title>cmd_project_create</title>
<polygon fill="#e3f2fd" stroke="black" points="272.57,-1429.13 196.57,-1429.13 196.57,-1393.13 272.57,-1393.13 272.57,-1429.13"/>
<text text-anchor="middle" x="234.57" y="-1414.13" font-family="Helvetica,sans-Serif" font-size="10.00">project&#45;create</text>
<text text-anchor="middle" x="234.57" y="-1403.13" font-family="Helvetica,sans-Serif" font-size="10.00">(450 tok)</text>
</g>
<!-- skill_co_project&#45;&gt;cmd_project_create -->
<g id="edge1" class="edge">
<title>skill_co_project&#45;&gt;cmd_project_create</title>
<path fill="none" stroke="black" d="M55.49,-806.46C62.34,-901.13 93.95,-1282.77 164.07,-1376.13 170.09,-1384.15 178.47,-1390.46 187.32,-1395.38"/>
<polygon fill="black" stroke="black" points="185.76,-1398.51 196.27,-1399.85 188.89,-1392.25 185.76,-1398.51"/>
</g>
<!-- cmd_project_board_configure -->
<g id="node9" class="node">
<title>cmd_project_board_configure</title>
<polygon fill="#e3f2fd" stroke="black" points="292.57,-1267.13 176.57,-1267.13 176.57,-1231.13 292.57,-1231.13 292.57,-1267.13"/>
<text text-anchor="middle" x="234.57" y="-1252.13" font-family="Helvetica,sans-Serif" font-size="10.00">project&#45;board&#45;configure</text>
<text text-anchor="middle" x="234.57" y="-1241.13" font-family="Helvetica,sans-Serif" font-size="10.00">(1,167 tok)</text>
</g>
<!-- skill_co_project&#45;&gt;cmd_project_board_configure -->
<g id="edge3" class="edge">
<title>skill_co_project&#45;&gt;cmd_project_board_configure</title>
<path fill="none" stroke="black" d="M56.88,-806.52C67.72,-884.97 108.55,-1155.75 164.07,-1220.13 165.41,-1221.69 166.85,-1223.17 168.38,-1224.56"/>
<polygon fill="black" stroke="black" points="166.54,-1227.57 176.58,-1230.93 170.83,-1222.04 166.54,-1227.57"/>
</g>
<!-- cmd_project_governance -->
<g id="node10" class="node">
<title>cmd_project_governance</title>
<polygon fill="#e3f2fd" stroke="black" points="284.07,-1325.13 185.07,-1325.13 185.07,-1289.13 284.07,-1289.13 284.07,-1325.13"/>
<text text-anchor="middle" x="234.57" y="-1310.13" font-family="Helvetica,sans-Serif" font-size="10.00">project&#45;governance</text>
<text text-anchor="middle" x="234.57" y="-1299.13" font-family="Helvetica,sans-Serif" font-size="10.00">(974 tok)</text>
</g>
<!-- skill_co_project&#45;&gt;cmd_project_governance -->
<g id="edge2" class="edge">
<title>skill_co_project&#45;&gt;cmd_project_governance</title>
<path fill="none" stroke="black" d="M56.18,-806.38C65.13,-891.12 101.89,-1203.94 164.07,-1278.13 167.49,-1282.22 171.6,-1285.74 176.07,-1288.78"/>
<polygon fill="black" stroke="black" points="174.66,-1292 185.06,-1294.03 178.19,-1285.96 174.66,-1292"/>
</g>
<!-- cmd_project_migrate -->
<g id="node11" class="node">
<title>cmd_project_migrate</title>
<polygon fill="#e3f2fd" stroke="black" points="275.07,-1209.13 194.07,-1209.13 194.07,-1173.13 275.07,-1173.13 275.07,-1209.13"/>
<text text-anchor="middle" x="234.57" y="-1194.13" font-family="Helvetica,sans-Serif" font-size="10.00">project&#45;migrate</text>
<text text-anchor="middle" x="234.57" y="-1183.13" font-family="Helvetica,sans-Serif" font-size="10.00">(472 tok)</text>
</g>
<!-- skill_co_project&#45;&gt;cmd_project_migrate -->
<g id="edge4" class="edge">
<title>skill_co_project&#45;&gt;cmd_project_migrate</title>
<path fill="none" stroke="black" d="M54.16,-806.49C55.66,-869.2 68.38,-1055.15 164.07,-1162.13 169.77,-1168.5 177.09,-1173.51 184.84,-1177.44"/>
<polygon fill="black" stroke="black" points="183.5,-1180.67 194.05,-1181.57 186.36,-1174.29 183.5,-1180.67"/>
</g>
<!-- cmd_container_dependency_check -->
<g id="node12" class="node">
<title>cmd_container_dependency_check</title>
<polygon fill="#e3f2fd" stroke="black" points="305.07,-1151.13 164.07,-1151.13 164.07,-1115.13 305.07,-1115.13 305.07,-1151.13"/>
<text text-anchor="middle" x="234.57" y="-1136.13" font-family="Helvetica,sans-Serif" font-size="10.00">container&#45;dependency&#45;check</text>
<text text-anchor="middle" x="234.57" y="-1125.13" font-family="Helvetica,sans-Serif" font-size="10.00">(493 tok)</text>
</g>
<!-- skill_co_project&#45;&gt;cmd_container_dependency_check -->
<g id="edge5" class="edge">
<title>skill_co_project&#45;&gt;cmd_container_dependency_check</title>
<path fill="none" stroke="black" d="M55.5,-806.4C60.45,-862.46 81.27,-1015.93 164.07,-1104.13 165.67,-1105.83 167.38,-1107.44 169.19,-1108.96"/>
<polygon fill="black" stroke="black" points="167.46,-1112.03 177.62,-1115.03 171.55,-1106.35 167.46,-1112.03"/>
</g>
<!-- cmd_setup_crg -->
<g id="node13" class="node">
<title>cmd_setup_crg</title>
<polygon fill="#e3f2fd" stroke="black" points="263.07,-1093.13 206.07,-1093.13 206.07,-1057.13 263.07,-1057.13 263.07,-1093.13"/>
<text text-anchor="middle" x="234.57" y="-1078.13" font-family="Helvetica,sans-Serif" font-size="10.00">setup&#45;crg</text>
<text text-anchor="middle" x="234.57" y="-1067.13" font-family="Helvetica,sans-Serif" font-size="10.00">(754 tok)</text>
</g>
<!-- skill_co_project&#45;&gt;cmd_setup_crg -->
<g id="edge6" class="edge">
<title>skill_co_project&#45;&gt;cmd_setup_crg</title>
<path fill="none" stroke="black" d="M57.39,-806.43C66.15,-855.25 94.05,-976.37 164.07,-1046.13 172.97,-1055 184.98,-1061.29 196.51,-1065.7"/>
<polygon fill="black" stroke="black" points="195.41,-1069.02 206.01,-1068.97 197.69,-1062.4 195.41,-1069.02"/>
</g>
<!-- cmd_snapshot_analyze -->
<g id="node14" class="node">
<title>cmd_snapshot_analyze</title>
<polygon fill="#e3f2fd" stroke="black" points="281.07,-1035.13 188.07,-1035.13 188.07,-999.13 281.07,-999.13 281.07,-1035.13"/>
<text text-anchor="middle" x="234.57" y="-1020.13" font-family="Helvetica,sans-Serif" font-size="10.00">snapshot&#45;analyze</text>
<text text-anchor="middle" x="234.57" y="-1009.13" font-family="Helvetica,sans-Serif" font-size="10.00">(600 tok)</text>
</g>
<!-- skill_co_project&#45;&gt;cmd_snapshot_analyze -->
<g id="edge7" class="edge">
<title>skill_co_project&#45;&gt;cmd_snapshot_analyze</title>
<path fill="none" stroke="black" d="M60.21,-806.22C73.1,-846.76 106.51,-936.13 164.07,-988.13 168.48,-992.12 173.52,-995.6 178.82,-998.64"/>
<polygon fill="black" stroke="black" points="177.44,-1001.86 187.93,-1003.33 180.64,-995.64 177.44,-1001.86"/>
</g>
<!-- cmd_snapshot_classify -->
<g id="node15" class="node">
<title>cmd_snapshot_classify</title>
<polygon fill="#e3f2fd" stroke="black" points="281.07,-977.13 188.07,-977.13 188.07,-941.13 281.07,-941.13 281.07,-977.13"/>
<text text-anchor="middle" x="234.57" y="-962.13" font-family="Helvetica,sans-Serif" font-size="10.00">snapshot&#45;classify</text>
<text text-anchor="middle" x="234.57" y="-951.13" font-family="Helvetica,sans-Serif" font-size="10.00">(870 tok)</text>
</g>
<!-- skill_co_project&#45;&gt;cmd_snapshot_classify -->
<g id="edge8" class="edge">
<title>skill_co_project&#45;&gt;cmd_snapshot_classify</title>
<path fill="none" stroke="black" d="M65.04,-805.9C82.35,-836.82 118.7,-895.03 164.07,-930.13 168.64,-933.67 173.7,-936.84 178.95,-939.69"/>
<polygon fill="black" stroke="black" points="177.4,-942.82 187.91,-944.15 180.52,-936.56 177.4,-942.82"/>
</g>
<!-- cmd_snapshot_generate -->
<g id="node16" class="node">
<title>cmd_snapshot_generate</title>
<polygon fill="#e3f2fd" stroke="black" points="283.07,-919.13 186.07,-919.13 186.07,-883.13 283.07,-883.13 283.07,-919.13"/>
<text text-anchor="middle" x="234.57" y="-904.13" font-family="Helvetica,sans-Serif" font-size="10.00">snapshot&#45;generate</text>
<text text-anchor="middle" x="234.57" y="-893.13" font-family="Helvetica,sans-Serif" font-size="10.00">(735 tok)</text>
</g>
<!-- skill_co_project&#45;&gt;cmd_snapshot_generate -->
<g id="edge9" class="edge">
<title>skill_co_project&#45;&gt;cmd_snapshot_generate</title>
<path fill="none" stroke="black" d="M75.08,-804.67C96.33,-823.68 130.7,-852.48 164.07,-872.13 168.15,-874.53 172.46,-876.83 176.87,-879.02"/>
<polygon fill="black" stroke="black" points="175.45,-882.22 185.99,-883.33 178.44,-875.89 175.45,-882.22"/>
</g>
<!-- cmd_plugin_interview -->
<g id="node17" class="node">
<title>cmd_plugin_interview</title>
<polygon fill="#e3f2fd" stroke="black" points="276.57,-861.13 192.57,-861.13 192.57,-825.13 276.57,-825.13 276.57,-861.13"/>
<text text-anchor="middle" x="234.57" y="-846.13" font-family="Helvetica,sans-Serif" font-size="10.00">plugin&#45;interview</text>
<text text-anchor="middle" x="234.57" y="-835.13" font-family="Helvetica,sans-Serif" font-size="10.00">(1,086 tok)</text>
</g>
<!-- skill_co_project&#45;&gt;cmd_plugin_interview -->
<g id="edge10" class="edge">
<title>skill_co_project&#45;&gt;cmd_plugin_interview</title>
<path fill="none" stroke="black" d="M94.77,-798.29C120.87,-806.72 154.94,-817.73 182.8,-826.73"/>
<polygon fill="black" stroke="black" points="181.78,-830.08 192.37,-829.82 183.93,-823.41 181.78,-830.08"/>
</g>
<!-- cmd_plugin_research -->
<g id="node18" class="node">
<title>cmd_plugin_research</title>
<polygon fill="#e3f2fd" stroke="black" points="276.07,-803.13 193.07,-803.13 193.07,-767.13 276.07,-767.13 276.07,-803.13"/>
<text text-anchor="middle" x="234.57" y="-788.13" font-family="Helvetica,sans-Serif" font-size="10.00">plugin&#45;research</text>
<text text-anchor="middle" x="234.57" y="-777.13" font-family="Helvetica,sans-Serif" font-size="10.00">(655 tok)</text>
</g>
<!-- skill_co_project&#45;&gt;cmd_plugin_research -->
<g id="edge11" class="edge">
<title>skill_co_project&#45;&gt;cmd_plugin_research</title>
<path fill="none" stroke="black" d="M106.44,-785.13C130.43,-785.13 158.74,-785.13 182.55,-785.13"/>
<polygon fill="black" stroke="black" points="182.79,-788.63 192.79,-785.13 182.79,-781.63 182.79,-788.63"/>
</g>
<!-- cmd_plugin_design -->
<g id="node19" class="node">
<title>cmd_plugin_design</title>
<polygon fill="#e3f2fd" stroke="black" points="271.57,-745.13 197.57,-745.13 197.57,-709.13 271.57,-709.13 271.57,-745.13"/>
<text text-anchor="middle" x="234.57" y="-730.13" font-family="Helvetica,sans-Serif" font-size="10.00">plugin&#45;design</text>
<text text-anchor="middle" x="234.57" y="-719.13" font-family="Helvetica,sans-Serif" font-size="10.00">(1,192 tok)</text>
</g>
<!-- skill_co_project&#45;&gt;cmd_plugin_design -->
<g id="edge12" class="edge">
<title>skill_co_project&#45;&gt;cmd_plugin_design</title>
<path fill="none" stroke="black" d="M94.77,-771.97C122.44,-763.03 159.08,-751.19 187.76,-741.93"/>
<polygon fill="black" stroke="black" points="189.11,-745.17 197.55,-738.76 186.96,-738.51 189.11,-745.17"/>
</g>
<!-- cmd_plugin_generate -->
<g id="node20" class="node">
<title>cmd_plugin_generate</title>
<polygon fill="#e3f2fd" stroke="black" points="276.07,-687.13 193.07,-687.13 193.07,-651.13 276.07,-651.13 276.07,-687.13"/>
<text text-anchor="middle" x="234.57" y="-672.13" font-family="Helvetica,sans-Serif" font-size="10.00">plugin&#45;generate</text>
<text text-anchor="middle" x="234.57" y="-661.13" font-family="Helvetica,sans-Serif" font-size="10.00">(2,082 tok)</text>
</g>
<!-- skill_co_project&#45;&gt;cmd_plugin_generate -->
<g id="edge13" class="edge">
<title>skill_co_project&#45;&gt;cmd_plugin_generate</title>
<path fill="none" stroke="black" d="M75.08,-765.58C96.33,-746.58 130.7,-717.78 164.07,-698.13 170.26,-694.48 177,-691.06 183.77,-687.94"/>
<polygon fill="black" stroke="black" points="185.23,-691.12 192.97,-683.88 182.4,-684.72 185.23,-691.12"/>
</g>
<!-- cmd_plugin_migrate_analyze -->
<g id="node21" class="node">
<title>cmd_plugin_migrate_analyze</title>
<polygon fill="#e3f2fd" stroke="black" points="291.57,-629.13 177.57,-629.13 177.57,-593.13 291.57,-593.13 291.57,-629.13"/>
<text text-anchor="middle" x="234.57" y="-614.13" font-family="Helvetica,sans-Serif" font-size="10.00">plugin&#45;migrate&#45;analyze</text>
<text text-anchor="middle" x="234.57" y="-603.13" font-family="Helvetica,sans-Serif" font-size="10.00">(458 tok)</text>
</g>
<!-- skill_co_project&#45;&gt;cmd_plugin_migrate_analyze -->
<g id="edge14" class="edge">
<title>skill_co_project&#45;&gt;cmd_plugin_migrate_analyze</title>
<path fill="none" stroke="black" d="M65.04,-764.35C82.35,-733.44 118.7,-675.23 164.07,-640.13 166.7,-638.09 169.5,-636.17 172.41,-634.36"/>
<polygon fill="black" stroke="black" points="174.41,-637.25 181.39,-629.29 170.96,-631.16 174.41,-637.25"/>
</g>
<!-- cmd_plugin_diagnose -->
<g id="node22" class="node">
<title>cmd_plugin_diagnose</title>
<polygon fill="#e3f2fd" stroke="black" points="276.57,-571.13 192.57,-571.13 192.57,-535.13 276.57,-535.13 276.57,-571.13"/>
<text text-anchor="middle" x="234.57" y="-556.13" font-family="Helvetica,sans-Serif" font-size="10.00">plugin&#45;diagnose</text>
<text text-anchor="middle" x="234.57" y="-545.13" font-family="Helvetica,sans-Serif" font-size="10.00">(944 tok)</text>
</g>
<!-- skill_co_project&#45;&gt;cmd_plugin_diagnose -->
<g id="edge15" class="edge">
<title>skill_co_project&#45;&gt;cmd_plugin_diagnose</title>
<path fill="none" stroke="black" d="M60.21,-764.04C73.1,-723.5 106.51,-634.13 164.07,-582.13 169.6,-577.13 176.12,-572.92 182.92,-569.39"/>
<polygon fill="black" stroke="black" points="184.71,-572.41 192.28,-564.99 181.74,-566.07 184.71,-572.41"/>
</g>
<!-- cmd_plugin_fix -->
<g id="node23" class="node">
<title>cmd_plugin_fix</title>
<polygon fill="#e3f2fd" stroke="black" points="266.07,-513.13 203.07,-513.13 203.07,-477.13 266.07,-477.13 266.07,-513.13"/>
<text text-anchor="middle" x="234.57" y="-498.13" font-family="Helvetica,sans-Serif" font-size="10.00">plugin&#45;fix</text>
<text text-anchor="middle" x="234.57" y="-487.13" font-family="Helvetica,sans-Serif" font-size="10.00">(1,074 tok)</text>
</g>
<!-- skill_co_project&#45;&gt;cmd_plugin_fix -->
<g id="edge16" class="edge">
<title>skill_co_project&#45;&gt;cmd_plugin_fix</title>
<path fill="none" stroke="black" d="M57.39,-763.82C66.15,-715 94.05,-593.89 164.07,-524.13 172.15,-516.07 182.8,-510.14 193.33,-505.82"/>
<polygon fill="black" stroke="black" points="194.72,-509.04 202.88,-502.29 192.29,-502.47 194.72,-509.04"/>
</g>
<!-- cmd_plugin_verify -->
<g id="node24" class="node">
<title>cmd_plugin_verify</title>
<polygon fill="#e3f2fd" stroke="black" points="269.07,-455.13 200.07,-455.13 200.07,-419.13 269.07,-419.13 269.07,-455.13"/>
<text text-anchor="middle" x="234.57" y="-440.13" font-family="Helvetica,sans-Serif" font-size="10.00">plugin&#45;verify</text>
<text text-anchor="middle" x="234.57" y="-429.13" font-family="Helvetica,sans-Serif" font-size="10.00">(518 tok)</text>
</g>
<!-- skill_co_project&#45;&gt;cmd_plugin_verify -->
<g id="edge17" class="edge">
<title>skill_co_project&#45;&gt;cmd_plugin_verify</title>
<path fill="none" stroke="black" d="M55.5,-763.85C60.45,-707.8 81.27,-554.33 164.07,-466.13 171.18,-458.55 180.58,-452.88 190.16,-448.67"/>
<polygon fill="black" stroke="black" points="191.68,-451.83 199.71,-444.92 189.13,-445.31 191.68,-451.83"/>
</g>
<!-- cmd_plugin_phase_diagnose -->
<g id="node25" class="node">
<title>cmd_plugin_phase_diagnose</title>
<polygon fill="#bbdefb" stroke="black" points="291.07,-397.13 178.07,-397.13 178.07,-361.13 291.07,-361.13 291.07,-397.13"/>
<text text-anchor="middle" x="234.57" y="-382.13" font-family="Helvetica,sans-Serif" font-size="10.00">plugin&#45;phase&#45;diagnose</text>
<text text-anchor="middle" x="234.57" y="-371.13" font-family="Helvetica,sans-Serif" font-size="10.00">(631 tok)</text>
</g>
<!-- skill_co_project&#45;&gt;cmd_plugin_phase_diagnose -->
<g id="edge18" class="edge">
<title>skill_co_project&#45;&gt;cmd_plugin_phase_diagnose</title>
<path fill="none" stroke="black" d="M54.16,-763.77C55.66,-701.05 68.38,-515.1 164.07,-408.13 165.78,-406.21 167.65,-404.42 169.62,-402.74"/>
<polygon fill="black" stroke="black" points="171.72,-405.54 177.75,-396.82 167.6,-399.88 171.72,-405.54"/>
</g>
<!-- cmd_plugin_phase_verify -->
<g id="node26" class="node">
<title>cmd_plugin_phase_verify</title>
<polygon fill="#bbdefb" stroke="black" points="283.57,-339.13 185.57,-339.13 185.57,-303.13 283.57,-303.13 283.57,-339.13"/>
<text text-anchor="middle" x="234.57" y="-324.13" font-family="Helvetica,sans-Serif" font-size="10.00">plugin&#45;phase&#45;verify</text>
<text text-anchor="middle" x="234.57" y="-313.13" font-family="Helvetica,sans-Serif" font-size="10.00">(634 tok)</text>
</g>
<!-- skill_co_project&#45;&gt;cmd_plugin_phase_verify -->
<g id="edge19" class="edge">
<title>skill_co_project&#45;&gt;cmd_plugin_phase_verify</title>
<path fill="none" stroke="black" d="M56.88,-763.74C67.72,-685.28 108.55,-414.51 164.07,-350.13 167.69,-345.92 172.03,-342.31 176.75,-339.22"/>
<polygon fill="black" stroke="black" points="178.62,-342.18 185.57,-334.18 175.15,-336.1 178.62,-342.18"/>
</g>
<!-- skill_ref_specialist_output_schema -->
<g id="node2" class="node">
<title>skill_ref_specialist_output_schema</title>
<polygon fill="#e1f5fe" stroke="black" points="711.49,-226.13 562.49,-226.13 562.49,-190.13 717.49,-190.13 717.49,-220.13 711.49,-226.13"/>
<polyline fill="none" stroke="black" points="711.49,-226.13 711.49,-220.13 "/>
<polyline fill="none" stroke="black" points="717.49,-220.13 711.49,-220.13 "/>
<text text-anchor="middle" x="639.99" y="-211.13" font-family="Helvetica,sans-Serif" font-size="10.00">twl:ref&#45;specialist&#45;output&#45;schema</text>
<text text-anchor="middle" x="639.99" y="-200.13" font-family="Helvetica,sans-Serif" font-size="10.00">(2,563 tok)</text>
</g>
<!-- skill_ref_architecture -->
<g id="node6" class="node">
<title>skill_ref_architecture</title>
<polygon fill="#e1f5fe" stroke="black" points="682.99,-168.13 590.99,-168.13 590.99,-132.13 688.99,-132.13 688.99,-162.13 682.99,-168.13"/>
<polyline fill="none" stroke="black" points="682.99,-168.13 682.99,-162.13 "/>
<polyline fill="none" stroke="black" points="688.99,-162.13 682.99,-162.13 "/>
<text text-anchor="middle" x="639.99" y="-153.13" font-family="Helvetica,sans-Serif" font-size="10.00">twl:ref&#45;architecture</text>
<text text-anchor="middle" x="639.99" y="-142.13" font-family="Helvetica,sans-Serif" font-size="10.00">(2,273 tok)</text>
</g>
<!-- skill_ref_specialist_output_schema&#45;&gt;skill_ref_architecture -->
<!-- skill_ref_specialist_output_schema&#45;&gt;skill_ref_architecture -->
<!-- skill_ref_types&#45;&gt;skill_ref_practices -->
<!-- skill_ref_practices&#45;&gt;skill_ref_deps_format -->
<!-- cmd_label_sync&#45;&gt;skill_ref_types -->
<!-- cmd_project_create&#45;&gt;cmd_project_governance -->
<!-- script_project_create -->
<g id="node30" class="node">
<title>script_project_create</title>
<polygon fill="#ff9800" stroke="black" points="495.88,-1417.13 464.83,-1441.62 402.72,-1441.62 371.67,-1417.13 402.72,-1392.64 464.83,-1392.64 495.88,-1417.13"/>
<text text-anchor="middle" x="433.78" y="-1420.13" font-family="Helvetica,sans-Serif" font-size="10.00">project&#45;create</text>
<text text-anchor="middle" x="433.78" y="-1409.13" font-family="Helvetica,sans-Serif" font-size="10.00">(4,726 tok)</text>
</g>
<!-- cmd_project_create&#45;&gt;script_project_create -->
<g id="edge24" class="edge">
<title>cmd_project_create&#45;&gt;script_project_create</title>
<path fill="none" stroke="black" d="M272.66,-1412.26C298.22,-1413.04 332.97,-1414.09 363.56,-1415.02"/>
<polygon fill="black" stroke="black" points="363.65,-1418.53 373.76,-1415.33 363.87,-1411.53 363.65,-1418.53"/>
</g>
<!-- cmd_project_board_configure&#45;&gt;cmd_project_migrate -->
<!-- cmd_project_governance&#45;&gt;cmd_project_board_configure -->
<!-- cmd_project_migrate&#45;&gt;cmd_container_dependency_check -->
<!-- script_project_migrate -->
<g id="node31" class="node">
<title>script_project_migrate</title>
<polygon fill="#ff9800" stroke="black" points="500.05,-1191.13 466.91,-1215.62 400.64,-1215.62 367.5,-1191.13 400.64,-1166.64 466.91,-1166.64 500.05,-1191.13"/>
<text text-anchor="middle" x="433.78" y="-1194.13" font-family="Helvetica,sans-Serif" font-size="10.00">project&#45;migrate</text>
<text text-anchor="middle" x="433.78" y="-1183.13" font-family="Helvetica,sans-Serif" font-size="10.00">(2,333 tok)</text>
</g>
<!-- cmd_project_migrate&#45;&gt;script_project_migrate -->
<g id="edge25" class="edge">
<title>cmd_project_migrate&#45;&gt;script_project_migrate</title>
<path fill="none" stroke="black" d="M275.47,-1191.13C298.93,-1191.13 329.35,-1191.13 357.19,-1191.13"/>
<polygon fill="black" stroke="black" points="357.31,-1194.63 367.31,-1191.13 357.31,-1187.63 357.31,-1194.63"/>
</g>
<!-- cmd_container_dependency_check&#45;&gt;cmd_setup_crg -->
<!-- cmd_setup_crg&#45;&gt;cmd_snapshot_analyze -->
<!-- cmd_snapshot_analyze&#45;&gt;cmd_snapshot_classify -->
<!-- cmd_snapshot_classify&#45;&gt;cmd_snapshot_generate -->
<!-- cmd_snapshot_generate&#45;&gt;cmd_plugin_interview -->
<!-- cmd_plugin_interview&#45;&gt;cmd_plugin_research -->
<!-- cmd_plugin_research&#45;&gt;cmd_plugin_design -->
<!-- cmd_plugin_design&#45;&gt;cmd_plugin_generate -->
<!-- cmd_plugin_generate&#45;&gt;cmd_plugin_migrate_analyze -->
<!-- cmd_plugin_migrate_analyze&#45;&gt;cmd_plugin_diagnose -->
<!-- cmd_plugin_diagnose&#45;&gt;cmd_plugin_fix -->
<!-- cmd_plugin_fix&#45;&gt;cmd_plugin_verify -->
<!-- cmd_plugin_verify&#45;&gt;cmd_plugin_phase_diagnose -->
<!-- cmd_plugin_phase_diagnose&#45;&gt;skill_ref_specialist_output_schema -->
<g id="edge29" class="edge">
<title>cmd_plugin_phase_diagnose&#45;&gt;skill_ref_specialist_output_schema</title>
<path fill="none" stroke="black" d="M288.88,-397.19C311.47,-403.95 338.27,-410.79 363.07,-414.13 425.36,-422.52 453.59,-451.01 504.49,-414.13 571.52,-365.55 505.3,-296.99 562.49,-237.13 564.12,-235.42 565.87,-233.81 567.7,-232.29"/>
<polygon fill="black" stroke="black" points="570.12,-234.86 576.26,-226.23 566.08,-229.15 570.12,-234.86"/>
</g>
<!-- cmd_plugin_phase_diagnose&#45;&gt;skill_ref_architecture -->
<g id="edge30" class="edge">
<title>cmd_plugin_phase_diagnose&#45;&gt;skill_ref_architecture</title>
<path fill="none" stroke="black" d="M291.22,-361.29C296.32,-358.13 301.06,-354.44 305.07,-350.13 360.55,-290.41 299.25,-226.85 363.07,-176.13 424.49,-127.31 519.62,-130.14 580.59,-138.62"/>
<polygon fill="black" stroke="black" points="580.41,-142.13 590.81,-140.14 581.43,-135.21 580.41,-142.13"/>
</g>
<!-- cmd_plugin_phase_diagnose&#45;&gt;cmd_plugin_phase_verify -->
<!-- agent_worker_structure -->
<g id="node27" class="node">
<title>agent_worker_structure</title>
<ellipse fill="#ede7f6" stroke="black" cx="433.78" cy="-382.13" rx="61.54" ry="21.43"/>
<text text-anchor="middle" x="433.78" y="-385.13" font-family="Helvetica,sans-Serif" font-size="10.00">worker&#45;structure</text>
<text text-anchor="middle" x="433.78" y="-374.13" font-family="Helvetica,sans-Serif" font-size="10.00">(1,244 tok)</text>
</g>
<!-- cmd_plugin_phase_diagnose&#45;&gt;agent_worker_structure -->
<g id="edge26" class="edge">
<title>cmd_plugin_phase_diagnose&#45;&gt;agent_worker_structure</title>
<path fill="none" stroke="black" stroke-dasharray="5,2" d="M291.29,-379.98C313.22,-380.31 338.66,-380.7 361.87,-381.05"/>
<polygon fill="black" stroke="black" points="361.96,-384.55 372.01,-381.2 362.06,-377.55 361.96,-384.55"/>
</g>
<!-- agent_worker_principles -->
<g id="node28" class="node">
<title>agent_worker_principles</title>
<ellipse fill="#ede7f6" stroke="black" cx="433.78" cy="-318.13" rx="63.78" ry="21.43"/>
<text text-anchor="middle" x="433.78" y="-321.13" font-family="Helvetica,sans-Serif" font-size="10.00">worker&#45;principles</text>
<text text-anchor="middle" x="433.78" y="-310.13" font-family="Helvetica,sans-Serif" font-size="10.00">(1,154 tok)</text>
</g>
<!-- cmd_plugin_phase_diagnose&#45;&gt;agent_worker_principles -->
<g id="edge27" class="edge">
<title>cmd_plugin_phase_diagnose&#45;&gt;agent_worker_principles</title>
<path fill="none" stroke="black" stroke-dasharray="5,2" d="M291.29,-361.89C318.07,-353.61 350.09,-343.7 376.89,-335.41"/>
<polygon fill="black" stroke="black" points="377.99,-338.74 386.51,-332.44 375.92,-332.05 377.99,-338.74"/>
</g>
<!-- agent_worker_architecture -->
<g id="node29" class="node">
<title>agent_worker_architecture</title>
<ellipse fill="#ede7f6" stroke="black" cx="433.78" cy="-208.13" rx="70.92" ry="21.43"/>
<text text-anchor="middle" x="433.78" y="-211.13" font-family="Helvetica,sans-Serif" font-size="10.00">worker&#45;architecture</text>
<text text-anchor="middle" x="433.78" y="-200.13" font-family="Helvetica,sans-Serif" font-size="10.00">(2,186 tok)</text>
</g>
<!-- cmd_plugin_phase_diagnose&#45;&gt;agent_worker_architecture -->
<g id="edge28" class="edge">
<title>cmd_plugin_phase_diagnose&#45;&gt;agent_worker_architecture</title>
<path fill="none" stroke="black" stroke-dasharray="5,2" d="M286.34,-361.08C292.89,-357.86 299.31,-354.21 305.07,-350.13 306.61,-349.03 371.01,-277.16 407.76,-236.1"/>
<polygon fill="black" stroke="black" points="410.43,-238.36 414.49,-228.57 405.21,-233.69 410.43,-238.36"/>
</g>
<!-- cmd_plugin_phase_verify&#45;&gt;skill_ref_specialist_output_schema -->
<g id="edge34" class="edge">
<title>cmd_plugin_phase_verify&#45;&gt;skill_ref_specialist_output_schema</title>
<path fill="none" stroke="black" d="M283.89,-306.3C291.55,-302.51 298.95,-297.84 305.07,-292.13 347.19,-252.79 314.03,-206.43 363.07,-176.13 416.53,-143.08 442.06,-168.8 504.49,-176.13 524.88,-178.52 546.66,-182.89 566.63,-187.64"/>
<polygon fill="black" stroke="black" points="566.03,-191.1 576.58,-190.08 567.7,-184.3 566.03,-191.1"/>
</g>
<!-- cmd_plugin_phase_verify&#45;&gt;skill_ref_architecture -->
<g id="edge35" class="edge">
<title>cmd_plugin_phase_verify&#45;&gt;skill_ref_architecture</title>
<path fill="none" stroke="black" d="M283.75,-307.75C291.7,-303.77 299.24,-298.67 305.07,-292.13 367.18,-222.37 288.46,-146.33 363.07,-90.13 413.27,-52.31 443.52,-74.86 504.49,-90.13 532.84,-97.23 535.88,-109.03 562.49,-121.13 568.57,-123.89 575,-126.62 581.44,-129.23"/>
<polygon fill="black" stroke="black" points="580.27,-132.53 590.85,-132.96 582.85,-126.02 580.27,-132.53"/>
</g>
<!-- cmd_plugin_phase_verify&#45;&gt;cmd_label_sync -->
<!-- cmd_plugin_phase_verify&#45;&gt;agent_worker_structure -->
<g id="edge31" class="edge">
<title>cmd_plugin_phase_verify&#45;&gt;agent_worker_structure</title>
<path fill="none" stroke="black" stroke-dasharray="5,2" d="M283.81,-336.05C312.19,-344.83 348.17,-355.96 377.67,-365.08"/>
<polygon fill="black" stroke="black" points="376.81,-368.48 387.4,-368.09 378.88,-361.79 376.81,-368.48"/>
</g>
<!-- cmd_plugin_phase_verify&#45;&gt;agent_worker_principles -->
<g id="edge32" class="edge">
<title>cmd_plugin_phase_verify&#45;&gt;agent_worker_principles</title>
<path fill="none" stroke="black" stroke-dasharray="5,2" d="M283.81,-320.39C306.66,-320.05 334.44,-319.62 359.8,-319.24"/>
<polygon fill="black" stroke="black" points="360.17,-322.73 370.12,-319.08 360.07,-315.73 360.17,-322.73"/>
</g>
<!-- cmd_plugin_phase_verify&#45;&gt;agent_worker_architecture -->
<g id="edge33" class="edge">
<title>cmd_plugin_phase_verify&#45;&gt;agent_worker_architecture</title>
<path fill="none" stroke="black" stroke-dasharray="5,2" d="M282.11,-303.13C289.89,-299.71 297.79,-295.99 305.07,-292.13 337.77,-274.75 372.76,-251.36 397.84,-233.67"/>
<polygon fill="black" stroke="black" points="400.15,-236.32 406.27,-227.67 396.1,-230.62 400.15,-236.32"/>
</g>
<!-- agent_worker_structure&#45;&gt;skill_ref_specialist_output_schema -->
<g id="edge36" class="edge">
<title>agent_worker_structure&#45;&gt;skill_ref_specialist_output_schema</title>
<path fill="none" stroke="black" stroke-dasharray="1,5" d="M478.5,-367.47C487.82,-362.94 497.08,-357.22 504.49,-350.13 545.27,-311.1 520.4,-274.75 562.49,-237.13 564.67,-235.18 567,-233.35 569.44,-231.64"/>
<polygon fill="black" stroke="black" points="571.42,-234.53 578.08,-226.28 567.73,-228.58 571.42,-234.53"/>
</g>
<!-- agent_worker_structure&#45;&gt;agent_worker_principles -->
<!-- agent_worker_structure&#45;&gt;agent_worker_principles -->
<!-- agent_worker_structure&#45;&gt;agent_worker_principles -->
<!-- agent_worker_structure&#45;&gt;agent_worker_principles -->
<!-- agent_worker_principles&#45;&gt;skill_ref_specialist_output_schema -->
<g id="edge37" class="edge">
<title>agent_worker_principles&#45;&gt;skill_ref_specialist_output_schema</title>
<path fill="none" stroke="black" stroke-dasharray="1,5" d="M461.73,-298.75C486.95,-281.19 526.09,-255.33 562.49,-237.13 567.33,-234.71 572.43,-232.36 577.6,-230.13"/>
<polygon fill="black" stroke="black" points="579.06,-233.31 586.94,-226.23 576.36,-226.85 579.06,-233.31"/>
</g>
<!-- agent_worker_principles&#45;&gt;agent_worker_architecture -->
<!-- agent_worker_principles&#45;&gt;agent_worker_architecture -->
<!-- agent_worker_architecture&#45;&gt;skill_ref_specialist_output_schema -->
<g id="edge38" class="edge">
<title>agent_worker_architecture&#45;&gt;skill_ref_specialist_output_schema</title>
<path fill="none" stroke="black" stroke-dasharray="1,5" d="M467.59,-189.37C503.45,-181.85 560.91,-181.41 599.29,-188.06"/>
<polygon fill="black" stroke="black" points="599.08,-191.59 609.57,-190.12 600.46,-184.72 599.08,-191.59"/>
</g>
<!-- agent_worker_architecture&#45;&gt;skill_ref_specialist_output_schema -->
<!-- agent_worker_architecture&#45;&gt;skill_ref_specialist_output_schema -->
<!-- agent_worker_architecture&#45;&gt;skill_ref_specialist_output_schema -->
<!-- agent_worker_architecture&#45;&gt;skill_ref_architecture -->
<g id="edge39" class="edge">
<title>agent_worker_architecture&#45;&gt;skill_ref_architecture</title>
<path fill="none" stroke="black" stroke-dasharray="1,5" d="M485.78,-193.64C514.65,-185.44 550.86,-175.16 580.83,-166.65"/>
<polygon fill="black" stroke="black" points="582.07,-169.93 590.74,-163.83 580.16,-163.2 582.07,-169.93"/>
</g>
</g>
</svg>
