<?xml version="1.0" encoding="UTF-8" standalone="no"?>
<!DOCTYPE svg PUBLIC "-//W3C//DTD SVG 1.1//EN"
 "http://www.w3.org/Graphics/SVG/1.1/DTD/svg11.dtd">
<!-- Generated by graphviz version 2.43.0 (0)
 -->
<!-- Title: Dependencies Pages: 1 -->
<svg width="1059pt" height="870pt"
 viewBox="0.00 0.00 1059.35 870.37" xmlns="http://www.w3.org/2000/svg" xmlns:xlink="http://www.w3.org/1999/xlink">
<g id="graph0" class="graph" transform="scale(1 1) rotate(0) translate(4 866.37)">
<title>Dependencies</title>
<polygon fill="white" stroke="transparent" points="-4,4 -4,-866.37 1055.35,-866.37 1055.35,4 -4,4"/>
<text text-anchor="middle" x="525.67" y="-847.17" font-family="Helvetica,sans-Serif" font-size="14.00">co&#45;issue</text>
<!-- skill_co_issue -->
<g id="node1" class="node">
<title>skill_co_issue</title>
<ellipse fill="#c8e6c9" stroke="black" cx="53.03" cy="-310" rx="53.07" ry="21.43"/>
<text text-anchor="middle" x="53.03" y="-313" font-family="Helvetica,sans-Serif" font-size="10.00">twl:co&#45;issue</text>
<text text-anchor="middle" x="53.03" y="-302" font-family="Helvetica,sans-Serif" font-size="10.00">(1,347 tok)</text>
</g>
<!-- skill_workflow_issue_refine -->
<g id="node2" class="node">
<title>skill_workflow_issue_refine</title>
<ellipse fill="#e8f5e9" stroke="black" cx="263.06" cy="-526" rx="98.99" ry="21.43"/>
<text text-anchor="middle" x="263.06" y="-529" font-family="Helvetica,sans-Serif" font-size="10.00">twl:workflow&#45;issue&#45;refine</text>
<text text-anchor="middle" x="263.06" y="-518" font-family="Helvetica,sans-Serif" font-size="10.00">(1,092 tok)</text>
</g>
<!-- skill_co_issue&#45;&gt;skill_workflow_issue_refine -->
<g id="edge2" class="edge">
<title>skill_co_issue&#45;&gt;skill_workflow_issue_refine</title>
<path fill="none" stroke="black" d="M61.85,-331.18C76.45,-368 111.26,-444.11 164.07,-488 172.34,-494.88 182,-500.6 191.97,-505.34"/>
<polygon fill="black" stroke="black" points="190.62,-508.57 201.18,-509.42 193.45,-502.17 190.62,-508.57"/>
</g>
<!-- skill_ref_issue_template_bug -->
<g id="node3" class="node">
<title>skill_ref_issue_template_bug</title>
<polygon fill="#e1f5fe" stroke="black" points="1017.92,-519 877.92,-519 877.92,-483 1023.92,-483 1023.92,-513 1017.92,-519"/>
<polyline fill="none" stroke="black" points="1017.92,-519 1017.92,-513 "/>
<polyline fill="none" stroke="black" points="1023.92,-513 1017.92,-513 "/>
<text text-anchor="middle" x="950.92" y="-504" font-family="Helvetica,sans-Serif" font-size="10.00">twl:ref&#45;issue&#45;template&#45;bug</text>
<text text-anchor="middle" x="950.92" y="-493" font-family="Helvetica,sans-Serif" font-size="10.00">(136 tok)</text>
</g>
<!-- skill_co_issue&#45;&gt;skill_ref_issue_template_bug -->
<g id="edge8" class="edge">
<title>skill_co_issue&#45;&gt;skill_ref_issue_template_bug</title>
<path fill="none" stroke="black" d="M60.52,-331.02C87.57,-414.28 200.35,-720.75 420.06,-811 578.07,-875.91 657.28,-820.4 792.49,-716 860.72,-663.32 913.03,-573.43 936.44,-528.4"/>
<polygon fill="black" stroke="black" points="939.69,-529.74 941.13,-519.25 933.46,-526.55 939.69,-529.74"/>
</g>
<!-- skill_ref_issue_template_feature -->
<g id="node4" class="node">
<title>skill_ref_issue_template_feature</title>
<polygon fill="#e1f5fe" stroke="black" points="1026.92,-320 868.92,-320 868.92,-284 1032.92,-284 1032.92,-314 1026.92,-320"/>
<polyline fill="none" stroke="black" points="1026.92,-320 1026.92,-314 "/>
<polyline fill="none" stroke="black" points="1032.92,-314 1026.92,-314 "/>
<text text-anchor="middle" x="950.92" y="-305" font-family="Helvetica,sans-Serif" font-size="10.00">twl:ref&#45;issue&#45;template&#45;feature</text>
<text text-anchor="middle" x="950.92" y="-294" font-family="Helvetica,sans-Serif" font-size="10.00">(120 tok)</text>
</g>
<!-- skill_co_issue&#45;&gt;skill_ref_issue_template_feature -->
<g id="edge9" class="edge">
<title>skill_co_issue&#45;&gt;skill_ref_issue_template_feature</title>
<path fill="none" stroke="black" d="M88.38,-325.88C109.67,-334.87 137.87,-345.23 164.07,-350 224.09,-360.93 752.84,-360.27 792.49,-353 819.61,-348.03 824.35,-339.76 850.49,-331 858.6,-328.28 867.14,-325.57 875.65,-322.96"/>
<polygon fill="black" stroke="black" points="876.68,-326.31 885.24,-320.06 874.65,-319.61 876.68,-326.31"/>
</g>
<!-- skill_ref_project_model -->
<g id="node5" class="node">
<title>skill_ref_project_model</title>
<polygon fill="#e1f5fe" stroke="black" points="1004.42,-262 891.42,-262 891.42,-226 1010.42,-226 1010.42,-256 1004.42,-262"/>
<polyline fill="none" stroke="black" points="1004.42,-262 1004.42,-256 "/>
<polyline fill="none" stroke="black" points="1010.42,-256 1004.42,-256 "/>
<text text-anchor="middle" x="950.92" y="-247" font-family="Helvetica,sans-Serif" font-size="10.00">twl:ref&#45;project&#45;model</text>
<text text-anchor="middle" x="950.92" y="-236" font-family="Helvetica,sans-Serif" font-size="10.00">(2,148 tok)</text>
</g>
<!-- skill_co_issue&#45;&gt;skill_ref_project_model -->
<g id="edge10" class="edge">
<title>skill_co_issue&#45;&gt;skill_ref_project_model</title>
<path fill="none" stroke="black" d="M102.28,-318.29C221.86,-337.05 540.54,-375.95 792.49,-307 821.31,-299.11 823.05,-284.83 850.49,-273 860.35,-268.75 871.02,-264.9 881.59,-261.51"/>
<polygon fill="black" stroke="black" points="882.72,-264.82 891.24,-258.51 880.65,-258.13 882.72,-264.82"/>
</g>
<!-- skill_ref_issue_quality_criteria -->
<g id="node6" class="node">
<title>skill_ref_issue_quality_criteria</title>
<polygon fill="#e1f5fe" stroke="black" points="1020.92,-204 874.92,-204 874.92,-168 1026.92,-168 1026.92,-198 1020.92,-204"/>
<polyline fill="none" stroke="black" points="1020.92,-204 1020.92,-198 "/>
<polyline fill="none" stroke="black" points="1026.92,-198 1020.92,-198 "/>
<text text-anchor="middle" x="950.92" y="-189" font-family="Helvetica,sans-Serif" font-size="10.00">twl:ref&#45;issue&#45;quality&#45;criteria</text>
<text text-anchor="middle" x="950.92" y="-178" font-family="Helvetica,sans-Serif" font-size="10.00">(1,002 tok)</text>
</g>
<!-- skill_co_issue&#45;&gt;skill_ref_issue_quality_criteria -->
<g id="edge11" class="edge">
<title>skill_co_issue&#45;&gt;skill_ref_issue_quality_criteria</title>
<path fill="none" stroke="black" d="M106.11,-310.54C252.82,-311.42 667,-309.44 792.49,-261 823.18,-249.15 821.26,-230.11 850.49,-215 855.61,-212.35 861,-209.92 866.52,-207.68"/>
<polygon fill="black" stroke="black" points="867.81,-210.93 875.9,-204.09 865.31,-204.39 867.81,-210.93"/>
</g>
<!-- skill_ref_glossary_criteria -->
<g id="node7" class="node">
<title>skill_ref_glossary_criteria</title>
<polygon fill="#e1f5fe" stroke="black" points="1010.42,-146 885.42,-146 885.42,-110 1016.42,-110 1016.42,-140 1010.42,-146"/>
<polyline fill="none" stroke="black" points="1010.42,-146 1010.42,-140 "/>
<polyline fill="none" stroke="black" points="1016.42,-140 1010.42,-140 "/>
<text text-anchor="middle" x="950.92" y="-131" font-family="Helvetica,sans-Serif" font-size="10.00">twl:ref&#45;glossary&#45;criteria</text>
<text text-anchor="middle" x="950.92" y="-120" font-family="Helvetica,sans-Serif" font-size="10.00">(873 tok)</text>
</g>
<!-- skill_co_issue&#45;&gt;skill_ref_glossary_criteria -->
<g id="edge12" class="edge">
<title>skill_co_issue&#45;&gt;skill_ref_glossary_criteria</title>
<path fill="none" stroke="black" d="M102.62,-302.19C191.91,-287.65 387.96,-254.82 552.06,-221 665.32,-197.66 795.68,-166.33 875.42,-146.65"/>
<polygon fill="black" stroke="black" points="876.5,-149.99 885.37,-144.19 874.82,-143.2 876.5,-149.99"/>
</g>
<!-- cmd_issue_create -->
<g id="node9" class="node">
<title>cmd_issue_create</title>
<polygon fill="#e3f2fd" stroke="black" points="524.56,-510 447.56,-510 447.56,-474 524.56,-474 524.56,-510"/>
<text text-anchor="middle" x="486.06" y="-495" font-family="Helvetica,sans-Serif" font-size="10.00">issue&#45;create</text>
<text text-anchor="middle" x="486.06" y="-484" font-family="Helvetica,sans-Serif" font-size="10.00">(1,002 tok)</text>
</g>
<!-- skill_co_issue&#45;&gt;cmd_issue_create -->
<g id="edge3" class="edge">
<title>skill_co_issue&#45;&gt;cmd_issue_create</title>
<path fill="none" stroke="black" d="M66.37,-330.82C84.17,-358.88 119.84,-408.18 164.07,-433 251.66,-482.15 371.85,-491.52 437.5,-492.64"/>
<polygon fill="black" stroke="black" points="437.52,-496.14 447.56,-492.75 437.6,-489.14 437.52,-496.14"/>
</g>
<!-- cmd_issue_bulk_create -->
<g id="node10" class="node">
<title>cmd_issue_bulk_create</title>
<polygon fill="#e3f2fd" stroke="black" points="536.56,-210 435.56,-210 435.56,-174 536.56,-174 536.56,-210"/>
<text text-anchor="middle" x="486.06" y="-195" font-family="Helvetica,sans-Serif" font-size="10.00">issue&#45;bulk&#45;create</text>
<text text-anchor="middle" x="486.06" y="-184" font-family="Helvetica,sans-Serif" font-size="10.00">(1,440 tok)</text>
</g>
<!-- skill_co_issue&#45;&gt;cmd_issue_bulk_create -->
<g id="edge4" class="edge">
<title>skill_co_issue&#45;&gt;cmd_issue_bulk_create</title>
<path fill="none" stroke="black" d="M72.52,-290.02C92.81,-269.55 127.39,-238.71 164.07,-224 250.04,-189.52 358.91,-186.24 425.21,-188.23"/>
<polygon fill="black" stroke="black" points="425.35,-191.74 435.47,-188.59 425.6,-184.74 425.35,-191.74"/>
</g>
<!-- cmd_issue_glossary_check -->
<g id="node14" class="node">
<title>cmd_issue_glossary_check</title>
<polygon fill="#e3f2fd" stroke="black" points="545.56,-152 426.56,-152 426.56,-116 545.56,-116 545.56,-152"/>
<text text-anchor="middle" x="486.06" y="-137" font-family="Helvetica,sans-Serif" font-size="10.00">issue&#45;glossary&#45;check</text>
<text text-anchor="middle" x="486.06" y="-126" font-family="Helvetica,sans-Serif" font-size="10.00">(860 tok)</text>
</g>
<!-- skill_co_issue&#45;&gt;cmd_issue_glossary_check -->
<g id="edge5" class="edge">
<title>skill_co_issue&#45;&gt;cmd_issue_glossary_check</title>
<path fill="none" stroke="black" d="M65.84,-288.99C83.28,-260.12 118.79,-208.95 164.07,-184 242.88,-140.56 348.14,-131.85 416.27,-131.45"/>
<polygon fill="black" stroke="black" points="416.46,-134.95 426.46,-131.45 416.46,-127.95 416.46,-134.95"/>
</g>
<!-- cmd_issue_cross_repo_create -->
<g id="node16" class="node">
<title>cmd_issue_cross_repo_create</title>
<polygon fill="#e3f2fd" stroke="black" points="551.56,-94 420.56,-94 420.56,-58 551.56,-58 551.56,-94"/>
<text text-anchor="middle" x="486.06" y="-79" font-family="Helvetica,sans-Serif" font-size="10.00">issue&#45;cross&#45;repo&#45;create</text>
<text text-anchor="middle" x="486.06" y="-68" font-family="Helvetica,sans-Serif" font-size="10.00">(1,425 tok)</text>
</g>
<!-- skill_co_issue&#45;&gt;cmd_issue_cross_repo_create -->
<g id="edge6" class="edge">
<title>skill_co_issue&#45;&gt;cmd_issue_cross_repo_create</title>
<path fill="none" stroke="black" d="M60.35,-288.83C73.09,-250.15 105.71,-168.42 164.07,-129 237.34,-79.5 341.03,-70.72 410.54,-71.37"/>
<polygon fill="black" stroke="black" points="410.49,-74.87 420.54,-71.53 410.6,-67.87 410.49,-74.87"/>
</g>
<!-- cmd_project_board_sync -->
<g id="node17" class="node">
<title>cmd_project_board_sync</title>
<polygon fill="#e3f2fd" stroke="black" points="540.06,-36 432.06,-36 432.06,0 540.06,0 540.06,-36"/>
<text text-anchor="middle" x="486.06" y="-21" font-family="Helvetica,sans-Serif" font-size="10.00">project&#45;board&#45;sync</text>
<text text-anchor="middle" x="486.06" y="-10" font-family="Helvetica,sans-Serif" font-size="10.00">(1,184 tok)</text>
</g>
<!-- skill_co_issue&#45;&gt;cmd_project_board_sync -->
<g id="edge7" class="edge">
<title>skill_co_issue&#45;&gt;cmd_project_board_sync</title>
<path fill="none" stroke="black" d="M56.91,-288.7C64.61,-240.7 90.36,-123.95 164.07,-68 238.78,-11.28 351.9,-7.16 421.99,-11.23"/>
<polygon fill="black" stroke="black" points="421.8,-14.72 432.01,-11.88 422.26,-7.74 421.8,-14.72"/>
</g>
<!-- cmd_explore -->
<g id="node18" class="node">
<title>cmd_explore</title>
<polygon fill="#e3f2fd" stroke="black" points="521.06,-452 451.06,-452 451.06,-416 521.06,-416 521.06,-452"/>
<text text-anchor="middle" x="486.06" y="-437" font-family="Helvetica,sans-Serif" font-size="10.00">explore</text>
<text text-anchor="middle" x="486.06" y="-426" font-family="Helvetica,sans-Serif" font-size="10.00">(1,510 tok)</text>
</g>
<!-- skill_co_issue&#45;&gt;cmd_explore -->
<g id="edge1" class="edge">
<title>skill_co_issue&#45;&gt;cmd_explore</title>
<path fill="none" stroke="black" d="M72.58,-329.85C92.91,-350.2 127.52,-380.95 164.07,-396 256.97,-434.25 376.92,-437.59 440.65,-436.13"/>
<polygon fill="black" stroke="black" points="440.86,-439.63 450.76,-435.85 440.66,-432.63 440.86,-439.63"/>
</g>
<!-- cmd_issue_structure -->
<g id="node8" class="node">
<title>cmd_issue_structure</title>
<polygon fill="#e3f2fd" stroke="black" points="530.56,-800 441.56,-800 441.56,-764 530.56,-764 530.56,-800"/>
<text text-anchor="middle" x="486.06" y="-785" font-family="Helvetica,sans-Serif" font-size="10.00">issue&#45;structure</text>
<text text-anchor="middle" x="486.06" y="-774" font-family="Helvetica,sans-Serif" font-size="10.00">(1,247 tok)</text>
</g>
<!-- skill_workflow_issue_refine&#45;&gt;cmd_issue_structure -->
<g id="edge13" class="edge">
<title>skill_workflow_issue_refine&#45;&gt;cmd_issue_structure</title>
<path fill="none" stroke="black" d="M273.72,-547.35C294.58,-591.31 347.84,-692.89 420.06,-753 423.83,-756.14 428.01,-759.01 432.36,-761.61"/>
<polygon fill="black" stroke="black" points="431.03,-764.87 441.49,-766.58 434.38,-758.73 431.03,-764.87"/>
</g>
<!-- skill_workflow_issue_refine&#45;&gt;cmd_issue_create -->
<!-- cmd_issue_tech_debt_absorb -->
<g id="node11" class="node">
<title>cmd_issue_tech_debt_absorb</title>
<polygon fill="#e3f2fd" stroke="black" points="550.56,-742 421.56,-742 421.56,-706 550.56,-706 550.56,-742"/>
<text text-anchor="middle" x="486.06" y="-727" font-family="Helvetica,sans-Serif" font-size="10.00">issue&#45;tech&#45;debt&#45;absorb</text>
<text text-anchor="middle" x="486.06" y="-716" font-family="Helvetica,sans-Serif" font-size="10.00">(730 tok)</text>
</g>
<!-- skill_workflow_issue_refine&#45;&gt;cmd_issue_tech_debt_absorb -->
<g id="edge14" class="edge">
<title>skill_workflow_issue_refine&#45;&gt;cmd_issue_tech_debt_absorb</title>
<path fill="none" stroke="black" d="M278.93,-547C304.42,-581.73 359.56,-651.58 420.06,-695 423.04,-697.14 426.21,-699.18 429.48,-701.11"/>
<polygon fill="black" stroke="black" points="427.87,-704.21 438.32,-705.94 431.23,-698.07 427.87,-704.21"/>
</g>
<!-- cmd_issue_spec_review -->
<g id="node12" class="node">
<title>cmd_issue_spec_review</title>
<polygon fill="#bbdefb" stroke="black" points="538.56,-684 433.56,-684 433.56,-648 538.56,-648 538.56,-684"/>
<text text-anchor="middle" x="486.06" y="-669" font-family="Helvetica,sans-Serif" font-size="10.00">issue&#45;spec&#45;review</text>
<text text-anchor="middle" x="486.06" y="-658" font-family="Helvetica,sans-Serif" font-size="10.00">(1,308 tok)</text>
</g>
<!-- skill_workflow_issue_refine&#45;&gt;cmd_issue_spec_review -->
<g id="edge15" class="edge">
<title>skill_workflow_issue_refine&#45;&gt;cmd_issue_spec_review</title>
<path fill="none" stroke="black" d="M289.5,-546.51C319.54,-570.15 371.57,-609.3 420.06,-637 423.96,-639.23 428.08,-641.42 432.25,-643.52"/>
<polygon fill="black" stroke="black" points="430.93,-646.77 441.45,-647.99 433.99,-640.47 430.93,-646.77"/>
</g>
<!-- cmd_issue_review_aggregate -->
<g id="node13" class="node">
<title>cmd_issue_review_aggregate</title>
<polygon fill="#e3f2fd" stroke="black" points="552.06,-626 420.06,-626 420.06,-590 552.06,-590 552.06,-626"/>
<text text-anchor="middle" x="486.06" y="-611" font-family="Helvetica,sans-Serif" font-size="10.00">issue&#45;review&#45;aggregate</text>
<text text-anchor="middle" x="486.06" y="-600" font-family="Helvetica,sans-Serif" font-size="10.00">(1,157 tok)</text>
</g>
<!-- skill_workflow_issue_refine&#45;&gt;cmd_issue_review_aggregate -->
<g id="edge16" class="edge">
<title>skill_workflow_issue_refine&#45;&gt;cmd_issue_review_aggregate</title>
<path fill="none" stroke="black" d="M313.38,-544.3C346.87,-556.73 391.31,-573.21 426.58,-586.3"/>
<polygon fill="black" stroke="black" points="425.67,-589.7 436.27,-589.9 428.11,-583.14 425.67,-589.7"/>
</g>
<!-- cmd_issue_arch_drift -->
<g id="node15" class="node">
<title>cmd_issue_arch_drift</title>
<polygon fill="#e3f2fd" stroke="black" points="531.06,-568 441.06,-568 441.06,-532 531.06,-532 531.06,-568"/>
<text text-anchor="middle" x="486.06" y="-553" font-family="Helvetica,sans-Serif" font-size="10.00">issue&#45;arch&#45;drift</text>
<text text-anchor="middle" x="486.06" y="-542" font-family="Helvetica,sans-Serif" font-size="10.00">(788 tok)</text>
</g>
<!-- skill_workflow_issue_refine&#45;&gt;cmd_issue_arch_drift -->
<g id="edge17" class="edge">
<title>skill_workflow_issue_refine&#45;&gt;cmd_issue_arch_drift</title>
<path fill="none" stroke="black" d="M351.72,-535.52C378.38,-538.42 406.9,-541.51 430.69,-544.1"/>
<polygon fill="black" stroke="black" points="430.6,-547.61 440.92,-545.21 431.36,-540.65 430.6,-547.61"/>
</g>
<!-- skill_ref_issue_template_bug&#45;&gt;skill_ref_issue_template_feature -->
<!-- skill_ref_issue_template_feature&#45;&gt;skill_ref_project_model -->
<!-- skill_ref_project_model&#45;&gt;skill_ref_issue_quality_criteria -->
<!-- skill_ref_issue_quality_criteria&#45;&gt;skill_ref_glossary_criteria -->
<!-- cmd_issue_structure&#45;&gt;cmd_issue_tech_debt_absorb -->
<!-- cmd_issue_create&#45;&gt;cmd_issue_bulk_create -->
<!-- cmd_issue_bulk_create&#45;&gt;cmd_issue_glossary_check -->
<!-- cmd_issue_tech_debt_absorb&#45;&gt;cmd_issue_spec_review -->
<!-- cmd_issue_spec_review&#45;&gt;cmd_issue_review_aggregate -->
<!-- agent_issue_critic -->
<g id="node19" class="node">
<title>agent_issue_critic</title>
<ellipse fill="#ede7f6" stroke="black" cx="701.27" cy="-611" rx="49.49" ry="21.43"/>
<text text-anchor="middle" x="701.27" y="-614" font-family="Helvetica,sans-Serif" font-size="10.00">issue&#45;critic</text>
<text text-anchor="middle" x="701.27" y="-603" font-family="Helvetica,sans-Serif" font-size="10.00">(1,268 tok)</text>
</g>
<!-- cmd_issue_spec_review&#45;&gt;agent_issue_critic -->
<g id="edge18" class="edge">
<title>cmd_issue_spec_review&#45;&gt;agent_issue_critic</title>
<path fill="none" stroke="black" stroke-dasharray="5,2" d="M538.67,-652.69C571.95,-644.1 615.09,-632.97 648.42,-624.38"/>
<polygon fill="black" stroke="black" points="649.62,-627.68 658.43,-621.79 647.87,-620.9 649.62,-627.68"/>
</g>
<!-- agent_issue_feasibility -->
<g id="node20" class="node">
<title>agent_issue_feasibility</title>
<ellipse fill="#ede7f6" stroke="black" cx="701.27" cy="-547" rx="67.35" ry="21.43"/>
<text text-anchor="middle" x="701.27" y="-550" font-family="Helvetica,sans-Serif" font-size="10.00">issue&#45;feasibility</text>
<text text-anchor="middle" x="701.27" y="-539" font-family="Helvetica,sans-Serif" font-size="10.00">(1,175 tok)</text>
</g>
<!-- cmd_issue_spec_review&#45;&gt;agent_issue_feasibility -->
<g id="edge19" class="edge">
<title>cmd_issue_spec_review&#45;&gt;agent_issue_feasibility</title>
<path fill="none" stroke="black" stroke-dasharray="5,2" d="M533.3,-647.91C539.81,-644.64 546.25,-640.99 552.06,-637 582.09,-616.34 579.23,-598.46 610.06,-579 619.2,-573.23 629.53,-568.32 639.84,-564.21"/>
<polygon fill="black" stroke="black" points="641.15,-567.46 649.28,-560.67 638.69,-560.91 641.15,-567.46"/>
</g>
<!-- agent_worker_codex_reviewer -->
<g id="node21" class="node">
<title>agent_worker_codex_reviewer</title>
<ellipse fill="#ede7f6" stroke="black" cx="701.27" cy="-437" rx="91.43" ry="21.43"/>
<text text-anchor="middle" x="701.27" y="-440" font-family="Helvetica,sans-Serif" font-size="10.00">worker&#45;codex&#45;reviewer</text>
<text text-anchor="middle" x="701.27" y="-429" font-family="Helvetica,sans-Serif" font-size="10.00">(1,421 tok)</text>
</g>
<!-- cmd_issue_spec_review&#45;&gt;agent_worker_codex_reviewer -->
<g id="edge20" class="edge">
<title>cmd_issue_spec_review&#45;&gt;agent_worker_codex_reviewer</title>
<path fill="none" stroke="black" stroke-dasharray="5,2" d="M537.65,-647.88C542.87,-644.75 547.81,-641.14 552.06,-637 595.02,-595.06 573.68,-562.76 610.06,-515 624.82,-495.61 645.09,-477.55 662.67,-463.71"/>
<polygon fill="black" stroke="black" points="665.26,-466.14 671.05,-457.26 660.99,-460.59 665.26,-466.14"/>
</g>
<!-- script_escape_issue_body -->
<g id="node22" class="node">
<title>script_escape_issue_body</title>
<polygon fill="#ff9800" stroke="black" points="1039.28,-437 995.1,-461.49 906.74,-461.49 862.55,-437 906.74,-412.51 995.1,-412.51 1039.28,-437"/>
<text text-anchor="middle" x="950.92" y="-440" font-family="Helvetica,sans-Serif" font-size="10.00">escape&#45;issue&#45;body</text>
<text text-anchor="middle" x="950.92" y="-429" font-family="Helvetica,sans-Serif" font-size="10.00">(63 tok)</text>
</g>
<!-- cmd_issue_spec_review&#45;&gt;script_escape_issue_body -->
<g id="edge21" class="edge">
<title>cmd_issue_spec_review&#45;&gt;script_escape_issue_body</title>
<path fill="none" stroke="black" d="M529.33,-684.03C593.34,-708.19 715.51,-741.67 792.49,-683 869.84,-624.04 784.17,-543.14 850.49,-472 857.58,-464.39 866.43,-458.44 875.89,-453.78"/>
<polygon fill="black" stroke="black" points="877.4,-456.94 885.13,-449.69 874.56,-450.54 877.4,-456.94"/>
</g>
<!-- script_spec_review_manifest -->
<g id="node23" class="node">
<title>script_spec_review_manifest</title>
<polygon fill="#ff9800" stroke="black" points="1051.28,-366 1001.1,-390.49 900.74,-390.49 850.56,-366 900.74,-341.51 1001.1,-341.51 1051.28,-366"/>
<text text-anchor="middle" x="950.92" y="-369" font-family="Helvetica,sans-Serif" font-size="10.00">spec&#45;review&#45;manifest</text>
<text text-anchor="middle" x="950.92" y="-358" font-family="Helvetica,sans-Serif" font-size="10.00">(125 tok)</text>
</g>
<!-- cmd_issue_spec_review&#45;&gt;script_spec_review_manifest -->
<g id="edge22" class="edge">
<title>cmd_issue_spec_review&#45;&gt;script_spec_review_manifest</title>
<path fill="none" stroke="black" d="M538.67,-669.16C615.66,-672.74 755.48,-674.48 792.49,-643 876.4,-571.62 777.04,-484.11 850.49,-402 856.45,-395.34 863.74,-389.91 871.63,-385.48"/>
<polygon fill="black" stroke="black" points="873.4,-388.51 880.77,-380.9 870.26,-382.26 873.4,-388.51"/>
</g>
<!-- cmd_issue_review_aggregate&#45;&gt;cmd_issue_arch_drift -->
<!-- cmd_issue_glossary_check&#45;&gt;skill_ref_glossary_criteria -->
<g id="edge23" class="edge">
<title>cmd_issue_glossary_check&#45;&gt;skill_ref_glossary_criteria</title>
<path fill="none" stroke="black" d="M545.68,-133.24C629.38,-132.16 783.16,-130.16 875.02,-128.97"/>
<polygon fill="black" stroke="black" points="875.13,-132.47 885.08,-128.84 875.04,-125.47 875.13,-132.47"/>
</g>
<!-- cmd_issue_glossary_check&#45;&gt;cmd_issue_cross_repo_create -->
<!-- cmd_issue_cross_repo_create&#45;&gt;cmd_project_board_sync -->
<!-- cmd_project_board_sync&#45;&gt;skill_ref_issue_template_bug -->
<!-- cmd_explore&#45;&gt;skill_workflow_issue_refine -->
<!-- agent_issue_critic&#45;&gt;skill_ref_issue_quality_criteria -->
<g id="edge24" class="edge">
<title>agent_issue_critic&#45;&gt;skill_ref_issue_quality_criteria</title>
<path fill="none" stroke="black" stroke-dasharray="1,5" d="M748.7,-604.47C764.8,-599.91 781.54,-592.16 792.49,-579 897.27,-453.07 742.16,-337.89 850.49,-215 854.86,-210.04 860.02,-205.91 865.66,-202.47"/>
<polygon fill="black" stroke="black" points="867.66,-205.37 874.87,-197.61 864.4,-199.18 867.66,-205.37"/>
</g>
<!-- agent_issue_critic&#45;&gt;agent_issue_feasibility -->
<!-- agent_issue_feasibility&#45;&gt;skill_ref_issue_quality_criteria -->
<g id="edge25" class="edge">
<title>agent_issue_feasibility&#45;&gt;skill_ref_issue_quality_criteria</title>
<path fill="none" stroke="black" stroke-dasharray="1,5" d="M732.72,-528.17C752.7,-514.24 777.77,-493.49 792.49,-469 852.14,-369.75 771.07,-299.27 850.49,-215 854.94,-210.28 860.11,-206.31 865.72,-202.98"/>
<polygon fill="black" stroke="black" points="867.57,-205.96 874.83,-198.25 864.34,-199.75 867.57,-205.96"/>
</g>
<!-- agent_issue_feasibility&#45;&gt;agent_worker_codex_reviewer -->
<!-- agent_worker_codex_reviewer&#45;&gt;skill_ref_issue_quality_criteria -->
<g id="edge26" class="edge">
<title>agent_worker_codex_reviewer&#45;&gt;skill_ref_issue_quality_criteria</title>
<path fill="none" stroke="black" stroke-dasharray="1,5" d="M717.25,-416.03C735.39,-390.49 766.72,-345.95 792.49,-307 819.16,-266.69 811.89,-244.1 850.49,-215 855.18,-211.46 860.29,-208.36 865.64,-205.63"/>
<polygon fill="black" stroke="black" points="867.23,-208.75 874.84,-201.38 864.3,-202.4 867.23,-208.75"/>
</g>
<!-- agent_worker_codex_reviewer&#45;&gt;script_escape_issue_body -->
<!-- script_escape_issue_body&#45;&gt;script_spec_review_manifest -->
</g>
</svg>
