<?xml version="1.0" encoding="UTF-8" standalone="no"?>
<!DOCTYPE svg PUBLIC "-//W3C//DTD SVG 1.1//EN"
 "http://www.w3.org/Graphics/SVG/1.1/DTD/svg11.dtd">
<!-- Generated by graphviz version 2.43.0 (0)
 -->
<!-- Title: Dependencies Pages: 1 -->
<svg width="874pt" height="400pt"
 viewBox="0.00 0.00 874.08 400.24" xmlns="http://www.w3.org/2000/svg" xmlns:xlink="http://www.w3.org/1999/xlink">
<g id="graph0" class="graph" transform="scale(1 1) rotate(0) translate(4 396.24)">
<title>Dependencies</title>
<polygon fill="white" stroke="transparent" points="-4,4 -4,-396.24 870.08,-396.24 870.08,4 -4,4"/>
<text text-anchor="middle" x="433.04" y="-377.04" font-family="Helvetica,sans-Serif" font-size="14.00">workflow&#45;plugin&#45;diagnose</text>
<!-- skill_workflow_plugin_diagnose -->
<g id="node1" class="node">
<title>skill_workflow_plugin_diagnose</title>
<ellipse fill="#e8f5e9" stroke="black" cx="113.84" cy="-206.24" rx="113.69" ry="21.43"/>
<text text-anchor="middle" x="113.84" y="-209.24" font-family="Helvetica,sans-Serif" font-size="10.00">twl:workflow&#45;plugin&#45;diagnose</text>
<text text-anchor="middle" x="113.84" y="-198.24" font-family="Helvetica,sans-Serif" font-size="10.00">(693 tok)</text>
</g>
<!-- cmd_plugin_migrate_analyze -->
<g id="node4" class="node">
<title>cmd_plugin_migrate_analyze</title>
<polygon fill="#e3f2fd" stroke="black" points="416.69,-369.24 285.69,-369.24 285.69,-333.24 416.69,-333.24 416.69,-369.24"/>
<text text-anchor="middle" x="351.19" y="-354.24" font-family="Helvetica,sans-Serif" font-size="10.00">plugin&#45;migrate&#45;analyze</text>
<text text-anchor="middle" x="351.19" y="-343.24" font-family="Helvetica,sans-Serif" font-size="10.00">(476 tok)</text>
</g>
<!-- skill_workflow_plugin_diagnose&#45;&gt;cmd_plugin_migrate_analyze -->
<g id="edge1" class="edge">
<title>skill_workflow_plugin_diagnose&#45;&gt;cmd_plugin_migrate_analyze</title>
<path fill="none" stroke="black" d="M142.01,-226.87C174.94,-251.35 232.64,-292.6 285.69,-322.24 289.65,-324.45 293.82,-326.63 298.05,-328.74"/>
<polygon fill="black" stroke="black" points="296.82,-332.04 307.34,-333.24 299.86,-325.73 296.82,-332.04"/>
</g>
<!-- cmd_plugin_diagnose -->
<g id="node5" class="node">
<title>cmd_plugin_diagnose</title>
<polygon fill="#e3f2fd" stroke="black" points="398.69,-311.24 303.69,-311.24 303.69,-275.24 398.69,-275.24 398.69,-311.24"/>
<text text-anchor="middle" x="351.19" y="-296.24" font-family="Helvetica,sans-Serif" font-size="10.00">plugin&#45;diagnose</text>
<text text-anchor="middle" x="351.19" y="-285.24" font-family="Helvetica,sans-Serif" font-size="10.00">(945 tok)</text>
</g>
<!-- skill_workflow_plugin_diagnose&#45;&gt;cmd_plugin_diagnose -->
<g id="edge2" class="edge">
<title>skill_workflow_plugin_diagnose&#45;&gt;cmd_plugin_diagnose</title>
<path fill="none" stroke="black" d="M165.91,-225.11C203.67,-239.07 255.08,-258.08 294,-272.47"/>
<polygon fill="black" stroke="black" points="293.02,-275.84 303.62,-276.02 295.45,-269.27 293.02,-275.84"/>
</g>
<!-- cmd_plugin_fix -->
<g id="node6" class="node">
<title>cmd_plugin_fix</title>
<polygon fill="#e3f2fd" stroke="black" points="386.19,-195.24 316.19,-195.24 316.19,-159.24 386.19,-159.24 386.19,-195.24"/>
<text text-anchor="middle" x="351.19" y="-180.24" font-family="Helvetica,sans-Serif" font-size="10.00">plugin&#45;fix</text>
<text text-anchor="middle" x="351.19" y="-169.24" font-family="Helvetica,sans-Serif" font-size="10.00">(1,092 tok)</text>
</g>
<!-- skill_workflow_plugin_diagnose&#45;&gt;cmd_plugin_fix -->
<g id="edge4" class="edge">
<title>skill_workflow_plugin_diagnose&#45;&gt;cmd_plugin_fix</title>
<path fill="none" stroke="black" d="M209.21,-194.61C242.66,-190.49 278.73,-186.04 306.01,-182.68"/>
<polygon fill="black" stroke="black" points="306.52,-186.14 316.01,-181.45 305.66,-179.2 306.52,-186.14"/>
</g>
<!-- cmd_plugin_verify -->
<g id="node7" class="node">
<title>cmd_plugin_verify</title>
<polygon fill="#e3f2fd" stroke="black" points="389.69,-137.24 312.69,-137.24 312.69,-101.24 389.69,-101.24 389.69,-137.24"/>
<text text-anchor="middle" x="351.19" y="-122.24" font-family="Helvetica,sans-Serif" font-size="10.00">plugin&#45;verify</text>
<text text-anchor="middle" x="351.19" y="-111.24" font-family="Helvetica,sans-Serif" font-size="10.00">(536 tok)</text>
</g>
<!-- skill_workflow_plugin_diagnose&#45;&gt;cmd_plugin_verify -->
<g id="edge5" class="edge">
<title>skill_workflow_plugin_diagnose&#45;&gt;cmd_plugin_verify</title>
<path fill="none" stroke="black" d="M165.91,-187.36C206.62,-172.31 263.2,-151.39 302.89,-136.72"/>
<polygon fill="black" stroke="black" points="304.18,-139.98 312.35,-133.23 301.75,-133.41 304.18,-139.98"/>
</g>
<!-- cmd_plugin_phase_diagnose -->
<g id="node8" class="node">
<title>cmd_plugin_phase_diagnose</title>
<polygon fill="#bbdefb" stroke="black" points="415.19,-253.24 287.19,-253.24 287.19,-217.24 415.19,-217.24 415.19,-253.24"/>
<text text-anchor="middle" x="351.19" y="-238.24" font-family="Helvetica,sans-Serif" font-size="10.00">plugin&#45;phase&#45;diagnose</text>
<text text-anchor="middle" x="351.19" y="-227.24" font-family="Helvetica,sans-Serif" font-size="10.00">(652 tok)</text>
</g>
<!-- skill_workflow_plugin_diagnose&#45;&gt;cmd_plugin_phase_diagnose -->
<g id="edge3" class="edge">
<title>skill_workflow_plugin_diagnose&#45;&gt;cmd_plugin_phase_diagnose</title>
<path fill="none" stroke="black" d="M209.21,-217.87C231.73,-220.64 255.44,-223.56 276.85,-226.2"/>
<polygon fill="black" stroke="black" points="276.49,-229.68 286.84,-227.43 277.34,-222.73 276.49,-229.68"/>
</g>
<!-- cmd_plugin_phase_verify -->
<g id="node9" class="node">
<title>cmd_plugin_phase_verify</title>
<polygon fill="#bbdefb" stroke="black" points="406.19,-79.24 296.19,-79.24 296.19,-43.24 406.19,-43.24 406.19,-79.24"/>
<text text-anchor="middle" x="351.19" y="-64.24" font-family="Helvetica,sans-Serif" font-size="10.00">plugin&#45;phase&#45;verify</text>
<text text-anchor="middle" x="351.19" y="-53.24" font-family="Helvetica,sans-Serif" font-size="10.00">(634 tok)</text>
</g>
<!-- skill_workflow_plugin_diagnose&#45;&gt;cmd_plugin_phase_verify -->
<g id="edge6" class="edge">
<title>skill_workflow_plugin_diagnose&#45;&gt;cmd_plugin_phase_verify</title>
<path fill="none" stroke="black" d="M142.01,-185.61C174.94,-161.12 232.64,-119.88 285.69,-90.24 289.65,-88.02 293.82,-85.84 298.05,-83.73"/>
<polygon fill="black" stroke="black" points="299.86,-86.74 307.34,-79.24 296.82,-80.44 299.86,-86.74"/>
</g>
<!-- skill_ref_specialist_output_schema -->
<g id="node2" class="node">
<title>skill_ref_specialist_output_schema</title>
<polygon fill="#e1f5fe" stroke="black" points="860.08,-281.24 691.08,-281.24 691.08,-245.24 866.08,-245.24 866.08,-275.24 860.08,-281.24"/>
<polyline fill="none" stroke="black" points="860.08,-281.24 860.08,-275.24 "/>
<polyline fill="none" stroke="black" points="866.08,-275.24 860.08,-275.24 "/>
<text text-anchor="middle" x="778.58" y="-266.24" font-family="Helvetica,sans-Serif" font-size="10.00">twl:ref&#45;specialist&#45;output&#45;schema</text>
<text text-anchor="middle" x="778.58" y="-255.24" font-family="Helvetica,sans-Serif" font-size="10.00">(1,461 tok)</text>
</g>
<!-- skill_ref_skill_arch_patterns -->
<g id="node3" class="node">
<title>skill_ref_skill_arch_patterns</title>
<polygon fill="#e1f5fe" stroke="black" points="842.58,-223.24 708.58,-223.24 708.58,-187.24 848.58,-187.24 848.58,-217.24 842.58,-223.24"/>
<polyline fill="none" stroke="black" points="842.58,-223.24 842.58,-217.24 "/>
<polyline fill="none" stroke="black" points="848.58,-217.24 842.58,-217.24 "/>
<text text-anchor="middle" x="778.58" y="-208.24" font-family="Helvetica,sans-Serif" font-size="10.00">twl:ref&#45;skill&#45;arch&#45;patterns</text>
<text text-anchor="middle" x="778.58" y="-197.24" font-family="Helvetica,sans-Serif" font-size="10.00">(2,234 tok)</text>
</g>
<!-- skill_ref_specialist_output_schema&#45;&gt;skill_ref_skill_arch_patterns -->
<!-- skill_ref_specialist_output_schema&#45;&gt;skill_ref_skill_arch_patterns -->
<!-- cmd_plugin_migrate_analyze&#45;&gt;cmd_plugin_diagnose -->
<!-- cmd_plugin_diagnose&#45;&gt;cmd_plugin_phase_diagnose -->
<!-- cmd_plugin_fix&#45;&gt;cmd_plugin_verify -->
<!-- cmd_plugin_verify&#45;&gt;cmd_plugin_phase_verify -->
<!-- cmd_plugin_phase_diagnose&#45;&gt;skill_ref_specialist_output_schema -->
<g id="edge10" class="edge">
<title>cmd_plugin_phase_diagnose&#45;&gt;skill_ref_specialist_output_schema</title>
<path fill="none" stroke="black" d="M393.67,-253.39C401.37,-256.89 409.31,-260.61 416.69,-264.24 442.92,-277.13 446.34,-288.14 474.69,-295.24 553.64,-315.01 647.16,-299.44 709.18,-283.87"/>
<polygon fill="black" stroke="black" points="710.43,-287.17 719.24,-281.28 708.68,-280.39 710.43,-287.17"/>
</g>
<!-- cmd_plugin_phase_diagnose&#45;&gt;skill_ref_skill_arch_patterns -->
<g id="edge11" class="edge">
<title>cmd_plugin_phase_diagnose&#45;&gt;skill_ref_skill_arch_patterns</title>
<path fill="none" stroke="black" d="M401.46,-217.17C406.93,-214.01 412.16,-210.38 416.69,-206.24 455.48,-170.8 429.33,-129.75 474.69,-103.24 535.46,-67.71 565.98,-81.94 633.08,-103.24 680.5,-118.29 725.77,-155.14 752.62,-180.17"/>
<polygon fill="black" stroke="black" points="750.36,-182.85 760.02,-187.2 755.19,-177.78 750.36,-182.85"/>
</g>
<!-- cmd_plugin_phase_diagnose&#45;&gt;cmd_plugin_fix -->
<!-- agent_worker_structure -->
<g id="node10" class="node">
<title>agent_worker_structure</title>
<ellipse fill="#ede7f6" stroke="black" cx="553.88" cy="-199.24" rx="68.68" ry="21.43"/>
<text text-anchor="middle" x="553.88" y="-202.24" font-family="Helvetica,sans-Serif" font-size="10.00">worker&#45;structure</text>
<text text-anchor="middle" x="553.88" y="-191.24" font-family="Helvetica,sans-Serif" font-size="10.00">(1,244 tok)</text>
</g>
<!-- cmd_plugin_phase_diagnose&#45;&gt;agent_worker_structure -->
<g id="edge7" class="edge">
<title>cmd_plugin_phase_diagnose&#45;&gt;agent_worker_structure</title>
<path fill="none" stroke="black" stroke-dasharray="5,2" d="M415.41,-223.9C437.24,-219.98 461.78,-215.58 484.03,-211.59"/>
<polygon fill="black" stroke="black" points="484.85,-215 494.07,-209.79 483.61,-208.11 484.85,-215"/>
</g>
<!-- agent_worker_principles -->
<g id="node11" class="node">
<title>agent_worker_principles</title>
<ellipse fill="#ede7f6" stroke="black" cx="553.88" cy="-135.24" rx="71.34" ry="21.43"/>
<text text-anchor="middle" x="553.88" y="-138.24" font-family="Helvetica,sans-Serif" font-size="10.00">worker&#45;principles</text>
<text text-anchor="middle" x="553.88" y="-127.24" font-family="Helvetica,sans-Serif" font-size="10.00">(1,154 tok)</text>
</g>
<!-- cmd_plugin_phase_diagnose&#45;&gt;agent_worker_principles -->
<g id="edge8" class="edge">
<title>cmd_plugin_phase_diagnose&#45;&gt;agent_worker_principles</title>
<path fill="none" stroke="black" stroke-dasharray="5,2" d="M395.02,-217.21C402.35,-213.78 409.82,-210.05 416.69,-206.24 443.84,-191.15 447.28,-181.86 474.69,-167.24 482.4,-163.12 490.76,-159.19 499.04,-155.58"/>
<polygon fill="black" stroke="black" points="500.48,-158.77 508.32,-151.64 497.75,-152.32 500.48,-158.77"/>
</g>
<!-- agent_worker_architecture -->
<g id="node12" class="node">
<title>agent_worker_architecture</title>
<ellipse fill="#ede7f6" stroke="black" cx="553.88" cy="-263.24" rx="79.39" ry="21.43"/>
<text text-anchor="middle" x="553.88" y="-266.24" font-family="Helvetica,sans-Serif" font-size="10.00">worker&#45;architecture</text>
<text text-anchor="middle" x="553.88" y="-255.24" font-family="Helvetica,sans-Serif" font-size="10.00">(1,814 tok)</text>
</g>
<!-- cmd_plugin_phase_diagnose&#45;&gt;agent_worker_architecture -->
<g id="edge9" class="edge">
<title>cmd_plugin_phase_diagnose&#45;&gt;agent_worker_architecture</title>
<path fill="none" stroke="black" stroke-dasharray="5,2" d="M415.41,-244.06C433.81,-246.62 454.14,-249.46 473.4,-252.15"/>
<polygon fill="black" stroke="black" points="472.97,-255.62 483.36,-253.54 473.94,-248.69 472.97,-255.62"/>
</g>
<!-- cmd_plugin_phase_verify&#45;&gt;skill_ref_specialist_output_schema -->
<g id="edge15" class="edge">
<title>cmd_plugin_phase_verify&#45;&gt;skill_ref_specialist_output_schema</title>
<path fill="none" stroke="black" d="M406.41,-54.86C467.71,-50.65 567.49,-53.25 633.08,-103.24 683.72,-141.83 644.01,-191.36 691.08,-234.24 693.08,-236.06 695.19,-237.76 697.4,-239.36"/>
<polygon fill="black" stroke="black" points="696.01,-242.62 706.34,-245.02 699.76,-236.71 696.01,-242.62"/>
</g>
<!-- cmd_plugin_phase_verify&#45;&gt;skill_ref_skill_arch_patterns -->
<g id="edge16" class="edge">
<title>cmd_plugin_phase_verify&#45;&gt;skill_ref_skill_arch_patterns</title>
<path fill="none" stroke="black" d="M387.01,-43.23C442.14,-17.39 551.61,22.9 633.08,-17.24 701.43,-50.91 746.48,-134.16 766.19,-177.7"/>
<polygon fill="black" stroke="black" points="763.1,-179.37 770.34,-187.11 769.51,-176.55 763.1,-179.37"/>
</g>
<!-- cmd_plugin_phase_verify&#45;&gt;agent_worker_structure -->
<g id="edge12" class="edge">
<title>cmd_plugin_phase_verify&#45;&gt;agent_worker_structure</title>
<path fill="none" stroke="black" stroke-dasharray="5,2" d="M399.95,-79.36C405.86,-82.55 411.6,-86.18 416.69,-90.24 450.17,-116.97 440.76,-141.08 474.69,-167.24 480.98,-172.09 488.1,-176.32 495.43,-179.97"/>
<polygon fill="black" stroke="black" points="494.23,-183.27 504.78,-184.3 497.17,-176.92 494.23,-183.27"/>
</g>
<!-- cmd_plugin_phase_verify&#45;&gt;agent_worker_principles -->
<g id="edge13" class="edge">
<title>cmd_plugin_phase_verify&#45;&gt;agent_worker_principles</title>
<path fill="none" stroke="black" stroke-dasharray="5,2" d="M401.03,-79.24C430.55,-90.13 468.24,-104.03 498.68,-115.25"/>
<polygon fill="black" stroke="black" points="497.7,-118.62 508.29,-118.79 500.12,-112.05 497.7,-118.62"/>
</g>
<!-- cmd_plugin_phase_verify&#45;&gt;agent_worker_architecture -->
<g id="edge14" class="edge">
<title>cmd_plugin_phase_verify&#45;&gt;agent_worker_architecture</title>
<path fill="none" stroke="black" stroke-dasharray="5,2" d="M402.94,-79.37C407.96,-82.49 412.67,-86.09 416.69,-90.24 463.82,-138.92 426.73,-183.37 474.69,-231.24 479.18,-235.73 484.4,-239.61 489.96,-242.97"/>
<polygon fill="black" stroke="black" points="488.46,-246.14 498.92,-247.82 491.8,-239.98 488.46,-246.14"/>
</g>
<!-- agent_worker_structure&#45;&gt;skill_ref_specialist_output_schema -->
<g id="edge17" class="edge">
<title>agent_worker_structure&#45;&gt;skill_ref_specialist_output_schema</title>
<path fill="none" stroke="black" stroke-dasharray="1,5" d="M604.86,-213.6C634.26,-222.05 671.97,-232.89 704.65,-242.28"/>
<polygon fill="black" stroke="black" points="704.03,-245.74 714.61,-245.14 705.97,-239.01 704.03,-245.74"/>
</g>
<!-- agent_worker_structure&#45;&gt;agent_worker_principles -->
<!-- agent_worker_structure&#45;&gt;agent_worker_principles -->
<!-- agent_worker_structure&#45;&gt;agent_worker_principles -->
<!-- agent_worker_structure&#45;&gt;agent_worker_principles -->
<!-- agent_worker_structure&#45;&gt;agent_worker_principles -->
<!-- agent_worker_principles&#45;&gt;skill_ref_specialist_output_schema -->
<g id="edge18" class="edge">
<title>agent_worker_principles&#45;&gt;skill_ref_specialist_output_schema</title>
<path fill="none" stroke="black" stroke-dasharray="1,5" d="M616.16,-146.04C622.09,-149.06 627.84,-152.47 633.08,-156.24 665.07,-179.21 658.36,-201.31 691.08,-223.24 702.83,-231.11 716.91,-237.02 730.27,-241.85"/>
<polygon fill="black" stroke="black" points="729.23,-245.19 739.82,-245.18 731.53,-238.58 729.23,-245.19"/>
</g>
<!-- agent_worker_principles&#45;&gt;skill_ref_specialist_output_schema -->
<!-- agent_worker_principles&#45;&gt;agent_worker_architecture -->
<!-- agent_worker_principles&#45;&gt;agent_worker_architecture -->
<!-- agent_worker_architecture&#45;&gt;skill_ref_specialist_output_schema -->
<g id="edge19" class="edge">
<title>agent_worker_architecture&#45;&gt;skill_ref_specialist_output_schema</title>
<path fill="none" stroke="black" stroke-dasharray="1,5" d="M611.66,-248.64C632.74,-247.04 657.3,-246.45 680.95,-246.87"/>
<polygon fill="black" stroke="black" points="680.94,-250.37 691.02,-247.11 681.1,-243.37 680.94,-250.37"/>
</g>
<!-- agent_worker_architecture&#45;&gt;skill_ref_specialist_output_schema -->
<!-- agent_worker_architecture&#45;&gt;skill_ref_specialist_output_schema -->
<!-- agent_worker_architecture&#45;&gt;skill_ref_skill_arch_patterns -->
<g id="edge20" class="edge">
<title>agent_worker_architecture&#45;&gt;skill_ref_skill_arch_patterns</title>
<path fill="none" stroke="black" stroke-dasharray="1,5" d="M611.37,-248.53C637.76,-241.65 669.65,-233.35 698.4,-225.86"/>
<polygon fill="black" stroke="black" points="699.63,-229.16 708.42,-223.25 697.86,-222.38 699.63,-229.16"/>
</g>
<!-- agent_worker_architecture&#45;&gt;agent_worker_structure -->
</g>
</svg>
