<?xml version="1.0" encoding="UTF-8" standalone="no"?>
<!DOCTYPE svg PUBLIC "-//W3C//DTD SVG 1.1//EN"
 "http://www.w3.org/Graphics/SVG/1.1/DTD/svg11.dtd">
<!-- Generated by graphviz version 2.43.0 (0)
 -->
<!-- Title: Dependencies Pages: 1 -->
<svg width="370pt" height="241pt"
 viewBox="0.00 0.00 369.89 241.00" xmlns="http://www.w3.org/2000/svg" xmlns:xlink="http://www.w3.org/1999/xlink">
<g id="graph0" class="graph" transform="scale(1 1) rotate(0) translate(4 237)">
<title>Dependencies</title>
<polygon fill="white" stroke="transparent" points="-4,4 -4,-237 365.89,-237 365.89,4 -4,4"/>
<text text-anchor="middle" x="180.94" y="-217.8" font-family="Helvetica,sans-Serif" font-size="14.00">workflow&#45;plugin&#45;create</text>
<!-- skill_workflow_plugin_create -->
<g id="node1" class="node">
<title>skill_workflow_plugin_create</title>
<ellipse fill="#e8f5e9" stroke="black" cx="103.94" cy="-105" rx="103.89" ry="21.43"/>
<text text-anchor="middle" x="103.94" y="-108" font-family="Helvetica,sans-Serif" font-size="10.00">twl:workflow&#45;plugin&#45;create</text>
<text text-anchor="middle" x="103.94" y="-97" font-family="Helvetica,sans-Serif" font-size="10.00">(558 tok)</text>
</g>
<!-- cmd_plugin_interview -->
<g id="node2" class="node">
<title>cmd_plugin_interview</title>
<polygon fill="#e3f2fd" stroke="black" points="361.89,-210 265.89,-210 265.89,-174 361.89,-174 361.89,-210"/>
<text text-anchor="middle" x="313.89" y="-195" font-family="Helvetica,sans-Serif" font-size="10.00">plugin&#45;interview</text>
<text text-anchor="middle" x="313.89" y="-184" font-family="Helvetica,sans-Serif" font-size="10.00">(1,118 tok)</text>
</g>
<!-- skill_workflow_plugin_create&#45;&gt;cmd_plugin_interview -->
<g id="edge1" class="edge">
<title>skill_workflow_plugin_create&#45;&gt;cmd_plugin_interview</title>
<path fill="none" stroke="black" d="M150.32,-123.99C182.76,-137.56 226.51,-155.86 260.45,-170.06"/>
<polygon fill="black" stroke="black" points="259.17,-173.32 269.74,-173.95 261.87,-166.86 259.17,-173.32"/>
</g>
<!-- cmd_plugin_research -->
<g id="node3" class="node">
<title>cmd_plugin_research</title>
<polygon fill="#e3f2fd" stroke="black" points="359.89,-152 267.89,-152 267.89,-116 359.89,-116 359.89,-152"/>
<text text-anchor="middle" x="313.89" y="-137" font-family="Helvetica,sans-Serif" font-size="10.00">plugin&#45;research</text>
<text text-anchor="middle" x="313.89" y="-126" font-family="Helvetica,sans-Serif" font-size="10.00">(678 tok)</text>
</g>
<!-- skill_workflow_plugin_create&#45;&gt;cmd_plugin_research -->
<g id="edge2" class="edge">
<title>skill_workflow_plugin_create&#45;&gt;cmd_plugin_research</title>
<path fill="none" stroke="black" d="M190.12,-116.88C212.86,-120.05 236.85,-123.39 257.52,-126.28"/>
<polygon fill="black" stroke="black" points="257.3,-129.78 267.69,-127.7 258.27,-122.85 257.3,-129.78"/>
</g>
<!-- cmd_plugin_design -->
<g id="node4" class="node">
<title>cmd_plugin_design</title>
<polygon fill="#e3f2fd" stroke="black" points="355.39,-94 272.39,-94 272.39,-58 355.39,-58 355.39,-94"/>
<text text-anchor="middle" x="313.89" y="-79" font-family="Helvetica,sans-Serif" font-size="10.00">plugin&#45;design</text>
<text text-anchor="middle" x="313.89" y="-68" font-family="Helvetica,sans-Serif" font-size="10.00">(1,192 tok)</text>
</g>
<!-- skill_workflow_plugin_create&#45;&gt;cmd_plugin_design -->
<g id="edge3" class="edge">
<title>skill_workflow_plugin_create&#45;&gt;cmd_plugin_design</title>
<path fill="none" stroke="black" d="M190.12,-93.12C214.62,-89.7 240.56,-86.09 262.25,-83.06"/>
<polygon fill="black" stroke="black" points="262.79,-86.52 272.21,-81.67 261.82,-79.59 262.79,-86.52"/>
</g>
<!-- cmd_plugin_generate -->
<g id="node5" class="node">
<title>cmd_plugin_generate</title>
<polygon fill="#e3f2fd" stroke="black" points="360.89,-36 266.89,-36 266.89,0 360.89,0 360.89,-36"/>
<text text-anchor="middle" x="313.89" y="-21" font-family="Helvetica,sans-Serif" font-size="10.00">plugin&#45;generate</text>
<text text-anchor="middle" x="313.89" y="-10" font-family="Helvetica,sans-Serif" font-size="10.00">(1,419 tok)</text>
</g>
<!-- skill_workflow_plugin_create&#45;&gt;cmd_plugin_generate -->
<g id="edge4" class="edge">
<title>skill_workflow_plugin_create&#45;&gt;cmd_plugin_generate</title>
<path fill="none" stroke="black" d="M150.32,-86.01C182.76,-72.44 226.51,-54.14 260.45,-39.94"/>
<polygon fill="black" stroke="black" points="261.87,-43.14 269.74,-36.05 259.17,-36.68 261.87,-43.14"/>
</g>
<!-- cmd_plugin_interview&#45;&gt;cmd_plugin_research -->
<!-- cmd_plugin_research&#45;&gt;cmd_plugin_design -->
<!-- cmd_plugin_design&#45;&gt;cmd_plugin_generate -->
</g>
</svg>
