<?xml version="1.0" encoding="UTF-8" standalone="no"?>
<!DOCTYPE svg PUBLIC "-//W3C//DTD SVG 1.1//EN"
 "http://www.w3.org/Graphics/SVG/1.1/DTD/svg11.dtd">
<!-- Generated by graphviz version 2.43.0 (0)
 -->
<!-- Title: Dependencies Pages: 1 -->
<svg width="1076pt" height="1535pt"
 viewBox="0.00 0.00 1076.46 1535.18" xmlns="http://www.w3.org/2000/svg" xmlns:xlink="http://www.w3.org/1999/xlink">
<g id="graph0" class="graph" transform="scale(1 1) rotate(0) translate(4 1531.18)">
<title>Dependencies</title>
<polygon fill="white" stroke="transparent" points="-4,4 -4,-1531.18 1072.46,-1531.18 1072.46,4 -4,4"/>
<text text-anchor="middle" x="534.23" y="-1511.98" font-family="Helvetica,sans-Serif" font-size="14.00">co&#45;project</text>
<!-- skill_co_project -->
<g id="node1" class="node">
<title>skill_co_project</title>
<ellipse fill="#c8e6c9" stroke="black" cx="58.69" cy="-432.18" rx="58.88" ry="21.43"/>
<text text-anchor="middle" x="58.69" y="-435.18" font-family="Helvetica,sans-Serif" font-size="10.00">twl:co&#45;project</text>
<text text-anchor="middle" x="58.69" y="-424.18" font-family="Helvetica,sans-Serif" font-size="10.00">(1,625 tok)</text>
</g>
<!-- skill_workflow_plugin_create -->
<g id="node2" class="node">
<title>skill_workflow_plugin_create</title>
<ellipse fill="#e8f5e9" stroke="black" cx="289.22" cy="-804.18" rx="103.89" ry="21.43"/>
<text text-anchor="middle" x="289.22" y="-807.18" font-family="Helvetica,sans-Serif" font-size="10.00">twl:workflow&#45;plugin&#45;create</text>
<text text-anchor="middle" x="289.22" y="-796.18" font-family="Helvetica,sans-Serif" font-size="10.00">(558 tok)</text>
</g>
<!-- skill_co_project&#45;&gt;skill_workflow_plugin_create -->
<g id="edge10" class="edge">
<title>skill_co_project&#45;&gt;skill_workflow_plugin_create</title>
<path fill="none" stroke="black" d="M60.42,-453.7C63.66,-513.42 81.11,-682.66 175.38,-772.18 181.76,-778.24 189.21,-783.17 197.18,-787.17"/>
<polygon fill="black" stroke="black" points="195.81,-790.39 206.36,-791.31 198.68,-784.01 195.81,-790.39"/>
</g>
<!-- skill_workflow_plugin_diagnose -->
<g id="node3" class="node">
<title>skill_workflow_plugin_diagnose</title>
<ellipse fill="#e8f5e9" stroke="black" cx="289.22" cy="-740.18" rx="113.69" ry="21.43"/>
<text text-anchor="middle" x="289.22" y="-743.18" font-family="Helvetica,sans-Serif" font-size="10.00">twl:workflow&#45;plugin&#45;diagnose</text>
<text text-anchor="middle" x="289.22" y="-732.18" font-family="Helvetica,sans-Serif" font-size="10.00">(693 tok)</text>
</g>
<!-- skill_co_project&#45;&gt;skill_workflow_plugin_diagnose -->
<g id="edge11" class="edge">
<title>skill_co_project&#45;&gt;skill_workflow_plugin_diagnose</title>
<path fill="none" stroke="black" d="M62.79,-453.45C71.28,-503.96 99.5,-632.13 175.38,-702.18 183.4,-709.58 192.92,-715.55 202.98,-720.36"/>
<polygon fill="black" stroke="black" points="201.77,-723.65 212.33,-724.46 204.58,-717.24 201.77,-723.65"/>
</g>
<!-- skill_workflow_prompt_audit -->
<g id="node4" class="node">
<title>skill_workflow_prompt_audit</title>
<ellipse fill="#e8f5e9" stroke="black" cx="289.22" cy="-262.18" rx="103.48" ry="21.43"/>
<text text-anchor="middle" x="289.22" y="-265.18" font-family="Helvetica,sans-Serif" font-size="10.00">twl:workflow&#45;prompt&#45;audit</text>
<text text-anchor="middle" x="289.22" y="-254.18" font-family="Helvetica,sans-Serif" font-size="10.00">(684 tok)</text>
</g>
<!-- skill_co_project&#45;&gt;skill_workflow_prompt_audit -->
<g id="edge12" class="edge">
<title>skill_co_project&#45;&gt;skill_workflow_prompt_audit</title>
<path fill="none" stroke="black" d="M72.8,-411.26C91.95,-382.33 130.25,-330.26 175.38,-300.18 186.41,-292.82 199,-286.77 211.68,-281.82"/>
<polygon fill="black" stroke="black" points="213.19,-285 221.36,-278.25 210.77,-278.43 213.19,-285"/>
</g>
<!-- skill_ref_types -->
<g id="node6" class="node">
<title>skill_ref_types</title>
<polygon fill="#e1f5fe" stroke="black" points="1013.96,-228.18 941.96,-228.18 941.96,-192.18 1019.96,-192.18 1019.96,-222.18 1013.96,-228.18"/>
<polyline fill="none" stroke="black" points="1013.96,-228.18 1013.96,-222.18 "/>
<polyline fill="none" stroke="black" points="1019.96,-222.18 1013.96,-222.18 "/>
<text text-anchor="middle" x="980.96" y="-213.18" font-family="Helvetica,sans-Serif" font-size="10.00">twl:ref&#45;types</text>
<text text-anchor="middle" x="980.96" y="-202.18" font-family="Helvetica,sans-Serif" font-size="10.00">(2,144 tok)</text>
</g>
<!-- skill_co_project&#45;&gt;skill_ref_types -->
<g id="edge14" class="edge">
<title>skill_co_project&#45;&gt;skill_ref_types</title>
<path fill="none" stroke="black" d="M62.01,-410.74C68.79,-360.13 93.55,-233.57 175.38,-181.18 301.1,-100.69 777.13,-174.7 931.39,-201.43"/>
<polygon fill="black" stroke="black" points="931.05,-204.92 941.5,-203.19 932.25,-198.03 931.05,-204.92"/>
</g>
<!-- skill_ref_practices -->
<g id="node7" class="node">
<title>skill_ref_practices</title>
<polygon fill="#e1f5fe" stroke="black" points="1022.46,-170.18 933.46,-170.18 933.46,-134.18 1028.46,-134.18 1028.46,-164.18 1022.46,-170.18"/>
<polyline fill="none" stroke="black" points="1022.46,-170.18 1022.46,-164.18 "/>
<polyline fill="none" stroke="black" points="1028.46,-164.18 1022.46,-164.18 "/>
<text text-anchor="middle" x="980.96" y="-155.18" font-family="Helvetica,sans-Serif" font-size="10.00">twl:ref&#45;practices</text>
<text text-anchor="middle" x="980.96" y="-144.18" font-family="Helvetica,sans-Serif" font-size="10.00">(6,472 tok)</text>
</g>
<!-- skill_co_project&#45;&gt;skill_ref_practices -->
<g id="edge15" class="edge">
<title>skill_co_project&#45;&gt;skill_ref_practices</title>
<path fill="none" stroke="black" d="M60.52,-410.67C63.99,-354.39 82,-202.7 175.38,-139.18 296.67,-56.66 760.44,-118.28 923.14,-143.08"/>
<polygon fill="black" stroke="black" points="923,-146.6 933.42,-144.66 924.06,-139.68 923,-146.6"/>
</g>
<!-- skill_ref_deps_format -->
<g id="node8" class="node">
<title>skill_ref_deps_format</title>
<polygon fill="#e1f5fe" stroke="black" points="1030.46,-112.18 925.46,-112.18 925.46,-76.18 1036.46,-76.18 1036.46,-106.18 1030.46,-112.18"/>
<polyline fill="none" stroke="black" points="1030.46,-112.18 1030.46,-106.18 "/>
<polyline fill="none" stroke="black" points="1036.46,-106.18 1030.46,-106.18 "/>
<text text-anchor="middle" x="980.96" y="-97.18" font-family="Helvetica,sans-Serif" font-size="10.00">twl:ref&#45;deps&#45;format</text>
<text text-anchor="middle" x="980.96" y="-86.18" font-family="Helvetica,sans-Serif" font-size="10.00">(2,028 tok)</text>
</g>
<!-- skill_co_project&#45;&gt;skill_ref_deps_format -->
<g id="edge16" class="edge">
<title>skill_co_project&#45;&gt;skill_ref_deps_format</title>
<path fill="none" stroke="black" d="M59.24,-410.57C59.27,-348.36 68.92,-168.41 175.38,-92.18 406.3,73.17 777.96,-25.4 921.12,-72.96"/>
<polygon fill="black" stroke="black" points="920.03,-76.28 930.62,-76.15 922.26,-69.65 920.03,-76.28"/>
</g>
<!-- cmd_label_sync -->
<g id="node10" class="node">
<title>cmd_label_sync</title>
<polygon fill="#e3f2fd" stroke="black" points="575.07,-228.18 505.07,-228.18 505.07,-192.18 575.07,-192.18 575.07,-228.18"/>
<text text-anchor="middle" x="540.07" y="-213.18" font-family="Helvetica,sans-Serif" font-size="10.00">label&#45;sync</text>
<text text-anchor="middle" x="540.07" y="-202.18" font-family="Helvetica,sans-Serif" font-size="10.00">(1,205 tok)</text>
</g>
<!-- skill_co_project&#45;&gt;cmd_label_sync -->
<g id="edge13" class="edge">
<title>skill_co_project&#45;&gt;cmd_label_sync</title>
<path fill="none" stroke="black" d="M64.67,-410.94C75.96,-368.08 107.97,-271.77 175.38,-230.18 275.4,-168.47 421.89,-185.82 494.65,-199.96"/>
<polygon fill="black" stroke="black" points="494.34,-203.47 504.84,-202.01 495.72,-196.61 494.34,-203.47"/>
</g>
<!-- cmd_project_create -->
<g id="node11" class="node">
<title>cmd_project_create</title>
<polygon fill="#e3f2fd" stroke="black" points="582.57,-924.18 497.57,-924.18 497.57,-888.18 582.57,-888.18 582.57,-924.18"/>
<text text-anchor="middle" x="540.07" y="-909.18" font-family="Helvetica,sans-Serif" font-size="10.00">project&#45;create</text>
<text text-anchor="middle" x="540.07" y="-898.18" font-family="Helvetica,sans-Serif" font-size="10.00">(455 tok)</text>
</g>
<!-- skill_co_project&#45;&gt;cmd_project_create -->
<g id="edge1" class="edge">
<title>skill_co_project&#45;&gt;cmd_project_create</title>
<path fill="none" stroke="black" d="M64.35,-453.63C75.29,-498.65 107.05,-603.23 175.38,-656.18 257.43,-719.76 325.88,-638.77 403.07,-708.18 462.12,-761.27 405.63,-820.32 461.07,-877.18 468.48,-884.78 478.07,-890.41 487.97,-894.57"/>
<polygon fill="black" stroke="black" points="486.91,-897.91 497.5,-898.13 489.35,-891.35 486.91,-897.91"/>
</g>
<!-- cmd_project_board_configure -->
<g id="node12" class="node">
<title>cmd_project_board_configure</title>
<polygon fill="#e3f2fd" stroke="black" points="605.57,-808.18 474.57,-808.18 474.57,-772.18 605.57,-772.18 605.57,-808.18"/>
<text text-anchor="middle" x="540.07" y="-793.18" font-family="Helvetica,sans-Serif" font-size="10.00">project&#45;board&#45;configure</text>
<text text-anchor="middle" x="540.07" y="-782.18" font-family="Helvetica,sans-Serif" font-size="10.00">(1,213 tok)</text>
</g>
<!-- skill_co_project&#45;&gt;cmd_project_board_configure -->
<g id="edge3" class="edge">
<title>skill_co_project&#45;&gt;cmd_project_board_configure</title>
<path fill="none" stroke="black" d="M72.12,-453.26C90.73,-482.93 128.68,-536.54 175.38,-565.18 264.31,-619.71 323.98,-554.15 403.07,-622.18 453.82,-665.83 412.81,-714.78 461.07,-761.18 462.98,-763.02 465.02,-764.74 467.16,-766.36"/>
<polygon fill="black" stroke="black" points="465.57,-769.5 475.85,-772.08 469.42,-763.66 465.57,-769.5"/>
</g>
<!-- cmd_project_governance -->
<g id="node13" class="node">
<title>cmd_project_governance</title>
<polygon fill="#e3f2fd" stroke="black" points="595.57,-866.18 484.57,-866.18 484.57,-830.18 595.57,-830.18 595.57,-866.18"/>
<text text-anchor="middle" x="540.07" y="-851.18" font-family="Helvetica,sans-Serif" font-size="10.00">project&#45;governance</text>
<text text-anchor="middle" x="540.07" y="-840.18" font-family="Helvetica,sans-Serif" font-size="10.00">(974 tok)</text>
</g>
<!-- skill_co_project&#45;&gt;cmd_project_governance -->
<g id="edge2" class="edge">
<title>skill_co_project&#45;&gt;cmd_project_governance</title>
<path fill="none" stroke="black" d="M67.44,-453.44C82.31,-491.09 118.47,-569.38 175.38,-610.18 260.25,-671.02 325.03,-598.79 403.07,-668.18 456.8,-715.95 409.96,-768.62 461.07,-819.18 465.28,-823.34 470.14,-826.92 475.34,-829.99"/>
<polygon fill="black" stroke="black" points="473.86,-833.16 484.35,-834.68 477.1,-826.96 473.86,-833.16"/>
</g>
<!-- cmd_project_migrate -->
<g id="node14" class="node">
<title>cmd_project_migrate</title>
<polygon fill="#e3f2fd" stroke="black" points="586.07,-750.18 494.07,-750.18 494.07,-714.18 586.07,-714.18 586.07,-750.18"/>
<text text-anchor="middle" x="540.07" y="-735.18" font-family="Helvetica,sans-Serif" font-size="10.00">project&#45;migrate</text>
<text text-anchor="middle" x="540.07" y="-724.18" font-family="Helvetica,sans-Serif" font-size="10.00">(463 tok)</text>
</g>
<!-- skill_co_project&#45;&gt;cmd_project_migrate -->
<g id="edge4" class="edge">
<title>skill_co_project&#45;&gt;cmd_project_migrate</title>
<path fill="none" stroke="black" d="M80.05,-452.2C101.86,-472.52 138.35,-503.46 175.38,-521.18 269.28,-566.12 322.76,-509.93 403.07,-576.18 450.94,-615.66 415.63,-660.92 461.07,-703.18 467.83,-709.46 476.07,-714.42 484.64,-718.32"/>
<polygon fill="black" stroke="black" points="483.42,-721.6 494,-722.14 486.07,-715.12 483.42,-721.6"/>
</g>
<!-- cmd_container_dependency_check -->
<g id="node15" class="node">
<title>cmd_container_dependency_check</title>
<polygon fill="#e3f2fd" stroke="black" points="619.07,-692.18 461.07,-692.18 461.07,-656.18 619.07,-656.18 619.07,-692.18"/>
<text text-anchor="middle" x="540.07" y="-677.18" font-family="Helvetica,sans-Serif" font-size="10.00">container&#45;dependency&#45;check</text>
<text text-anchor="middle" x="540.07" y="-666.18" font-family="Helvetica,sans-Serif" font-size="10.00">(509 tok)</text>
</g>
<!-- skill_co_project&#45;&gt;cmd_container_dependency_check -->
<g id="edge5" class="edge">
<title>skill_co_project&#45;&gt;cmd_container_dependency_check</title>
<path fill="none" stroke="black" d="M96.42,-448.46C118.91,-458.01 148.45,-469.8 175.38,-478.18 274.5,-509 321.33,-466.2 403.07,-530.18 448.15,-565.46 418.4,-607.01 461.07,-645.18 463.29,-647.16 465.66,-649.02 468.14,-650.75"/>
<polygon fill="black" stroke="black" points="466.59,-653.91 476.94,-656.17 470.26,-647.95 466.59,-653.91"/>
</g>
<!-- cmd_setup_crg -->
<g id="node16" class="node">
<title>cmd_setup_crg</title>
<polygon fill="#e3f2fd" stroke="black" points="571.07,-634.18 509.07,-634.18 509.07,-598.18 571.07,-598.18 571.07,-634.18"/>
<text text-anchor="middle" x="540.07" y="-619.18" font-family="Helvetica,sans-Serif" font-size="10.00">setup&#45;crg</text>
<text text-anchor="middle" x="540.07" y="-608.18" font-family="Helvetica,sans-Serif" font-size="10.00">(754 tok)</text>
</g>
<!-- skill_co_project&#45;&gt;cmd_setup_crg -->
<g id="edge6" class="edge">
<title>skill_co_project&#45;&gt;cmd_setup_crg</title>
<path fill="none" stroke="black" d="M117.15,-434.85C202.56,-439.8 357.79,-452.93 403.07,-484.18 446.31,-514.02 421.12,-553.05 461.07,-587.18 471.84,-596.38 485.79,-602.78 498.92,-607.18"/>
<polygon fill="black" stroke="black" points="498.14,-610.61 508.72,-610.17 500.18,-603.91 498.14,-610.61"/>
</g>
<!-- cmd_snapshot_analyze -->
<g id="node17" class="node">
<title>cmd_snapshot_analyze</title>
<polygon fill="#e3f2fd" stroke="black" points="591.57,-576.18 488.57,-576.18 488.57,-540.18 591.57,-540.18 591.57,-576.18"/>
<text text-anchor="middle" x="540.07" y="-561.18" font-family="Helvetica,sans-Serif" font-size="10.00">snapshot&#45;analyze</text>
<text text-anchor="middle" x="540.07" y="-550.18" font-family="Helvetica,sans-Serif" font-size="10.00">(617 tok)</text>
</g>
<!-- skill_co_project&#45;&gt;cmd_snapshot_analyze -->
<g id="edge7" class="edge">
<title>skill_co_project&#45;&gt;cmd_snapshot_analyze</title>
<path fill="none" stroke="black" d="M106.59,-419.85C176.24,-404.29 308.9,-385.46 403.07,-438.18 444.92,-461.61 423.76,-499.03 461.07,-529.18 466.43,-533.51 472.5,-537.23 478.83,-540.43"/>
<polygon fill="black" stroke="black" points="477.69,-543.75 488.24,-544.73 480.6,-537.39 477.69,-543.75"/>
</g>
<!-- cmd_snapshot_classify -->
<g id="node18" class="node">
<title>cmd_snapshot_classify</title>
<polygon fill="#e3f2fd" stroke="black" points="590.57,-518.18 489.57,-518.18 489.57,-482.18 590.57,-482.18 590.57,-518.18"/>
<text text-anchor="middle" x="540.07" y="-503.18" font-family="Helvetica,sans-Serif" font-size="10.00">snapshot&#45;classify</text>
<text text-anchor="middle" x="540.07" y="-492.18" font-family="Helvetica,sans-Serif" font-size="10.00">(891 tok)</text>
</g>
<!-- skill_co_project&#45;&gt;cmd_snapshot_classify -->
<g id="edge8" class="edge">
<title>skill_co_project&#45;&gt;cmd_snapshot_classify</title>
<path fill="none" stroke="black" d="M95.59,-415.52C160.73,-387.9 301.07,-340.53 403.07,-392.18 441.93,-411.86 426.31,-444.93 461.07,-471.18 466.85,-475.55 473.37,-479.32 480.11,-482.56"/>
<polygon fill="black" stroke="black" points="478.82,-485.81 489.38,-486.65 481.65,-479.41 478.82,-485.81"/>
</g>
<!-- cmd_snapshot_generate -->
<g id="node19" class="node">
<title>cmd_snapshot_generate</title>
<polygon fill="#e3f2fd" stroke="black" points="594.07,-460.18 486.07,-460.18 486.07,-424.18 594.07,-424.18 594.07,-460.18"/>
<text text-anchor="middle" x="540.07" y="-445.18" font-family="Helvetica,sans-Serif" font-size="10.00">snapshot&#45;generate</text>
<text text-anchor="middle" x="540.07" y="-434.18" font-family="Helvetica,sans-Serif" font-size="10.00">(752 tok)</text>
</g>
<!-- skill_co_project&#45;&gt;cmd_snapshot_generate -->
<g id="edge9" class="edge">
<title>skill_co_project&#45;&gt;cmd_snapshot_generate</title>
<path fill="none" stroke="black" d="M78.68,-411.84C99.89,-390.74 136.41,-359.07 175.38,-346.18 271.45,-314.38 311.03,-304.12 403.07,-346.18 438.89,-362.55 428.71,-390.72 461.07,-413.18 465.86,-416.5 471.08,-419.5 476.47,-422.19"/>
<polygon fill="black" stroke="black" points="475.12,-425.42 485.67,-426.43 478.05,-419.06 475.12,-425.42"/>
</g>
<!-- skill_workflow_plugin_create&#45;&gt;skill_workflow_plugin_diagnose -->
<!-- cmd_plugin_interview -->
<g id="node20" class="node">
<title>cmd_plugin_interview</title>
<polygon fill="#e3f2fd" stroke="black" points="588.07,-1504.18 492.07,-1504.18 492.07,-1468.18 588.07,-1468.18 588.07,-1504.18"/>
<text text-anchor="middle" x="540.07" y="-1489.18" font-family="Helvetica,sans-Serif" font-size="10.00">plugin&#45;interview</text>
<text text-anchor="middle" x="540.07" y="-1478.18" font-family="Helvetica,sans-Serif" font-size="10.00">(1,118 tok)</text>
</g>
<!-- skill_workflow_plugin_create&#45;&gt;cmd_plugin_interview -->
<g id="edge17" class="edge">
<title>skill_workflow_plugin_create&#45;&gt;cmd_plugin_interview</title>
<path fill="none" stroke="black" d="M293.15,-825.6C307.39,-927.16 372.43,-1359.2 461.07,-1457.18 466.98,-1463.72 474.51,-1468.79 482.55,-1472.71"/>
<polygon fill="black" stroke="black" points="481.21,-1475.95 491.78,-1476.68 483.97,-1469.52 481.21,-1475.95"/>
</g>
<!-- cmd_plugin_research -->
<g id="node21" class="node">
<title>cmd_plugin_research</title>
<polygon fill="#e3f2fd" stroke="black" points="586.07,-1446.18 494.07,-1446.18 494.07,-1410.18 586.07,-1410.18 586.07,-1446.18"/>
<text text-anchor="middle" x="540.07" y="-1431.18" font-family="Helvetica,sans-Serif" font-size="10.00">plugin&#45;research</text>
<text text-anchor="middle" x="540.07" y="-1420.18" font-family="Helvetica,sans-Serif" font-size="10.00">(678 tok)</text>
</g>
<!-- skill_workflow_plugin_create&#45;&gt;cmd_plugin_research -->
<g id="edge18" class="edge">
<title>skill_workflow_plugin_create&#45;&gt;cmd_plugin_research</title>
<path fill="none" stroke="black" d="M289.88,-825.59C289.68,-910.26 300.2,-1225.53 461.07,-1399.18 467.55,-1406.18 475.89,-1411.5 484.68,-1415.54"/>
<polygon fill="black" stroke="black" points="483.37,-1418.78 493.95,-1419.3 486,-1412.29 483.37,-1418.78"/>
</g>
<!-- cmd_plugin_design -->
<g id="node22" class="node">
<title>cmd_plugin_design</title>
<polygon fill="#e3f2fd" stroke="black" points="581.57,-1388.18 498.57,-1388.18 498.57,-1352.18 581.57,-1352.18 581.57,-1388.18"/>
<text text-anchor="middle" x="540.07" y="-1373.18" font-family="Helvetica,sans-Serif" font-size="10.00">plugin&#45;design</text>
<text text-anchor="middle" x="540.07" y="-1362.18" font-family="Helvetica,sans-Serif" font-size="10.00">(1,192 tok)</text>
</g>
<!-- skill_workflow_plugin_create&#45;&gt;cmd_plugin_design -->
<g id="edge19" class="edge">
<title>skill_workflow_plugin_create&#45;&gt;cmd_plugin_design</title>
<path fill="none" stroke="black" d="M290.65,-825.41C293.4,-904.65 313.58,-1186.44 461.07,-1341.18 468.62,-1349.1 478.54,-1354.88 488.76,-1359.08"/>
<polygon fill="black" stroke="black" points="487.58,-1362.38 498.18,-1362.52 489.98,-1355.8 487.58,-1362.38"/>
</g>
<!-- cmd_plugin_generate -->
<g id="node23" class="node">
<title>cmd_plugin_generate</title>
<polygon fill="#e3f2fd" stroke="black" points="587.07,-1330.18 493.07,-1330.18 493.07,-1294.18 587.07,-1294.18 587.07,-1330.18"/>
<text text-anchor="middle" x="540.07" y="-1315.18" font-family="Helvetica,sans-Serif" font-size="10.00">plugin&#45;generate</text>
<text text-anchor="middle" x="540.07" y="-1304.18" font-family="Helvetica,sans-Serif" font-size="10.00">(1,419 tok)</text>
</g>
<!-- skill_workflow_plugin_create&#45;&gt;cmd_plugin_generate -->
<g id="edge20" class="edge">
<title>skill_workflow_plugin_create&#45;&gt;cmd_plugin_generate</title>
<path fill="none" stroke="black" d="M291.6,-825.41C297.51,-899.18 326.97,-1147.27 461.07,-1283.18 467.33,-1289.53 475.12,-1294.5 483.32,-1298.4"/>
<polygon fill="black" stroke="black" points="482.13,-1301.69 492.7,-1302.35 484.84,-1295.24 482.13,-1301.69"/>
</g>
<!-- skill_workflow_plugin_diagnose&#45;&gt;skill_workflow_prompt_audit -->
<!-- cmd_plugin_migrate_analyze -->
<g id="node24" class="node">
<title>cmd_plugin_migrate_analyze</title>
<polygon fill="#e3f2fd" stroke="black" points="605.57,-1272.18 474.57,-1272.18 474.57,-1236.18 605.57,-1236.18 605.57,-1272.18"/>
<text text-anchor="middle" x="540.07" y="-1257.18" font-family="Helvetica,sans-Serif" font-size="10.00">plugin&#45;migrate&#45;analyze</text>
<text text-anchor="middle" x="540.07" y="-1246.18" font-family="Helvetica,sans-Serif" font-size="10.00">(476 tok)</text>
</g>
<!-- skill_workflow_plugin_diagnose&#45;&gt;cmd_plugin_migrate_analyze -->
<g id="edge21" class="edge">
<title>skill_workflow_plugin_diagnose&#45;&gt;cmd_plugin_migrate_analyze</title>
<path fill="none" stroke="black" d="M378.1,-753.6C387.57,-758.19 396.22,-764.23 403.07,-772.18 535.52,-925.99 334.85,-1066.22 461.07,-1225.18 462.56,-1227.06 464.2,-1228.82 465.94,-1230.47"/>
<polygon fill="black" stroke="black" points="464.2,-1233.56 474.22,-1236.99 468.53,-1228.05 464.2,-1233.56"/>
</g>
<!-- cmd_plugin_diagnose -->
<g id="node28" class="node">
<title>cmd_plugin_diagnose</title>
<polygon fill="#e3f2fd" stroke="black" points="587.57,-1214.18 492.57,-1214.18 492.57,-1178.18 587.57,-1178.18 587.57,-1214.18"/>
<text text-anchor="middle" x="540.07" y="-1199.18" font-family="Helvetica,sans-Serif" font-size="10.00">plugin&#45;diagnose</text>
<text text-anchor="middle" x="540.07" y="-1188.18" font-family="Helvetica,sans-Serif" font-size="10.00">(945 tok)</text>
</g>
<!-- skill_workflow_plugin_diagnose&#45;&gt;cmd_plugin_diagnose -->
<g id="edge22" class="edge">
<title>skill_workflow_plugin_diagnose&#45;&gt;cmd_plugin_diagnose</title>
<path fill="none" stroke="black" d="M377.69,-753.59C387.28,-758.17 396.08,-764.22 403.07,-772.18 520.09,-905.56 349.45,-1029.24 461.07,-1167.18 466.87,-1174.35 474.64,-1179.75 483.03,-1183.82"/>
<polygon fill="black" stroke="black" points="481.73,-1187.07 492.31,-1187.72 484.45,-1180.62 481.73,-1187.07"/>
</g>
<!-- cmd_plugin_fix -->
<g id="node29" class="node">
<title>cmd_plugin_fix</title>
<polygon fill="#e3f2fd" stroke="black" points="575.07,-1098.18 505.07,-1098.18 505.07,-1062.18 575.07,-1062.18 575.07,-1098.18"/>
<text text-anchor="middle" x="540.07" y="-1083.18" font-family="Helvetica,sans-Serif" font-size="10.00">plugin&#45;fix</text>
<text text-anchor="middle" x="540.07" y="-1072.18" font-family="Helvetica,sans-Serif" font-size="10.00">(1,092 tok)</text>
</g>
<!-- skill_workflow_plugin_diagnose&#45;&gt;cmd_plugin_fix -->
<g id="edge24" class="edge">
<title>skill_workflow_plugin_diagnose&#45;&gt;cmd_plugin_fix</title>
<path fill="none" stroke="black" d="M376.97,-753.86C386.74,-758.39 395.78,-764.35 403.07,-772.18 489.37,-864.87 378.52,-955.12 461.07,-1051.18 469.76,-1061.29 482.33,-1067.88 494.84,-1072.18"/>
<polygon fill="black" stroke="black" points="494.21,-1075.64 504.8,-1075.15 496.22,-1068.93 494.21,-1075.64"/>
</g>
<!-- cmd_plugin_verify -->
<g id="node30" class="node">
<title>cmd_plugin_verify</title>
<polygon fill="#e3f2fd" stroke="black" points="578.57,-1040.18 501.57,-1040.18 501.57,-1004.18 578.57,-1004.18 578.57,-1040.18"/>
<text text-anchor="middle" x="540.07" y="-1025.18" font-family="Helvetica,sans-Serif" font-size="10.00">plugin&#45;verify</text>
<text text-anchor="middle" x="540.07" y="-1014.18" font-family="Helvetica,sans-Serif" font-size="10.00">(536 tok)</text>
</g>
<!-- skill_workflow_plugin_diagnose&#45;&gt;cmd_plugin_verify -->
<g id="edge25" class="edge">
<title>skill_workflow_plugin_diagnose&#45;&gt;cmd_plugin_verify</title>
<path fill="none" stroke="black" d="M376.03,-753.97C386.07,-758.47 395.44,-764.4 403.07,-772.18 474.16,-844.69 392.91,-917.9 461.07,-993.18 469.25,-1002.21 480.51,-1008.44 491.93,-1012.74"/>
<polygon fill="black" stroke="black" points="490.91,-1016.08 501.5,-1015.9 493.11,-1009.44 490.91,-1016.08"/>
</g>
<!-- cmd_plugin_phase_diagnose -->
<g id="node31" class="node">
<title>cmd_plugin_phase_diagnose</title>
<polygon fill="#bbdefb" stroke="black" points="604.07,-1156.18 476.07,-1156.18 476.07,-1120.18 604.07,-1120.18 604.07,-1156.18"/>
<text text-anchor="middle" x="540.07" y="-1141.18" font-family="Helvetica,sans-Serif" font-size="10.00">plugin&#45;phase&#45;diagnose</text>
<text text-anchor="middle" x="540.07" y="-1130.18" font-family="Helvetica,sans-Serif" font-size="10.00">(652 tok)</text>
</g>
<!-- skill_workflow_plugin_diagnose&#45;&gt;cmd_plugin_phase_diagnose -->
<g id="edge23" class="edge">
<title>skill_workflow_plugin_diagnose&#45;&gt;cmd_plugin_phase_diagnose</title>
<path fill="none" stroke="black" d="M377.5,-753.75C387.13,-758.31 395.99,-764.3 403.07,-772.18 504.7,-885.18 364.02,-992.22 461.07,-1109.18 463.01,-1111.52 465.17,-1113.68 467.49,-1115.66"/>
<polygon fill="black" stroke="black" points="465.76,-1118.73 475.91,-1121.75 469.86,-1113.05 465.76,-1118.73"/>
</g>
<!-- cmd_plugin_phase_verify -->
<g id="node32" class="node">
<title>cmd_plugin_phase_verify</title>
<polygon fill="#bbdefb" stroke="black" points="595.07,-982.18 485.07,-982.18 485.07,-946.18 595.07,-946.18 595.07,-982.18"/>
<text text-anchor="middle" x="540.07" y="-967.18" font-family="Helvetica,sans-Serif" font-size="10.00">plugin&#45;phase&#45;verify</text>
<text text-anchor="middle" x="540.07" y="-956.18" font-family="Helvetica,sans-Serif" font-size="10.00">(634 tok)</text>
</g>
<!-- skill_workflow_plugin_diagnose&#45;&gt;cmd_plugin_phase_verify -->
<g id="edge26" class="edge">
<title>skill_workflow_plugin_diagnose&#45;&gt;cmd_plugin_phase_verify</title>
<path fill="none" stroke="black" d="M374.56,-754.22C385.02,-758.68 394.89,-764.52 403.07,-772.18 459.19,-824.74 407.08,-880.42 461.07,-935.18 465.46,-939.63 470.6,-943.41 476.11,-946.61"/>
<polygon fill="black" stroke="black" points="474.52,-949.73 485.01,-951.19 477.72,-943.5 474.52,-949.73"/>
</g>
<!-- skill_workflow_prompt_audit&#45;&gt;cmd_label_sync -->
<!-- cmd_prompt_audit_scan -->
<g id="node25" class="node">
<title>cmd_prompt_audit_scan</title>
<polygon fill="#e3f2fd" stroke="black" points="593.57,-402.18 486.57,-402.18 486.57,-366.18 593.57,-366.18 593.57,-402.18"/>
<text text-anchor="middle" x="540.07" y="-387.18" font-family="Helvetica,sans-Serif" font-size="10.00">prompt&#45;audit&#45;scan</text>
<text text-anchor="middle" x="540.07" y="-376.18" font-family="Helvetica,sans-Serif" font-size="10.00">(334 tok)</text>
</g>
<!-- skill_workflow_prompt_audit&#45;&gt;cmd_prompt_audit_scan -->
<g id="edge27" class="edge">
<title>skill_workflow_prompt_audit&#45;&gt;cmd_prompt_audit_scan</title>
<path fill="none" stroke="black" d="M355.03,-278.66C371.34,-284.22 388.37,-291.33 403.07,-300.18 433.5,-318.5 430.92,-336.39 461.07,-355.18 466.09,-358.31 471.51,-361.18 477.07,-363.8"/>
<polygon fill="black" stroke="black" points="475.93,-367.13 486.5,-367.96 478.76,-360.72 475.93,-367.13"/>
</g>
<!-- cmd_prompt_audit_review -->
<g id="node26" class="node">
<title>cmd_prompt_audit_review</title>
<polygon fill="#bbdefb" stroke="black" points="598.57,-344.18 481.57,-344.18 481.57,-308.18 598.57,-308.18 598.57,-344.18"/>
<text text-anchor="middle" x="540.07" y="-329.18" font-family="Helvetica,sans-Serif" font-size="10.00">prompt&#45;audit&#45;review</text>
<text text-anchor="middle" x="540.07" y="-318.18" font-family="Helvetica,sans-Serif" font-size="10.00">(458 tok)</text>
</g>
<!-- skill_workflow_prompt_audit&#45;&gt;cmd_prompt_audit_review -->
<g id="edge28" class="edge">
<title>skill_workflow_prompt_audit&#45;&gt;cmd_prompt_audit_review</title>
<path fill="none" stroke="black" d="M354.31,-278.66C390.11,-287.87 434.71,-299.34 471.12,-308.7"/>
<polygon fill="black" stroke="black" points="470.6,-312.18 481.16,-311.28 472.34,-305.4 470.6,-312.18"/>
</g>
<!-- cmd_prompt_audit_apply -->
<g id="node27" class="node">
<title>cmd_prompt_audit_apply</title>
<polygon fill="#e3f2fd" stroke="black" points="595.57,-286.18 484.57,-286.18 484.57,-250.18 595.57,-250.18 595.57,-286.18"/>
<text text-anchor="middle" x="540.07" y="-271.18" font-family="Helvetica,sans-Serif" font-size="10.00">prompt&#45;audit&#45;apply</text>
<text text-anchor="middle" x="540.07" y="-260.18" font-family="Helvetica,sans-Serif" font-size="10.00">(710 tok)</text>
</g>
<!-- skill_workflow_prompt_audit&#45;&gt;cmd_prompt_audit_apply -->
<g id="edge29" class="edge">
<title>skill_workflow_prompt_audit&#45;&gt;cmd_prompt_audit_apply</title>
<path fill="none" stroke="black" d="M391.8,-264.63C419.67,-265.3 449.13,-266.01 474.32,-266.62"/>
<polygon fill="black" stroke="black" points="474.39,-270.12 484.47,-266.86 474.56,-263.12 474.39,-270.12"/>
</g>
<!-- skill_ref_specialist_output_schema -->
<g id="node5" class="node">
<title>skill_ref_specialist_output_schema</title>
<polygon fill="#e1f5fe" stroke="black" points="1062.46,-1183.18 893.46,-1183.18 893.46,-1147.18 1068.46,-1147.18 1068.46,-1177.18 1062.46,-1183.18"/>
<polyline fill="none" stroke="black" points="1062.46,-1183.18 1062.46,-1177.18 "/>
<polyline fill="none" stroke="black" points="1068.46,-1177.18 1062.46,-1177.18 "/>
<text text-anchor="middle" x="980.96" y="-1168.18" font-family="Helvetica,sans-Serif" font-size="10.00">twl:ref&#45;specialist&#45;output&#45;schema</text>
<text text-anchor="middle" x="980.96" y="-1157.18" font-family="Helvetica,sans-Serif" font-size="10.00">(1,461 tok)</text>
</g>
<!-- skill_ref_skill_arch_patterns -->
<g id="node9" class="node">
<title>skill_ref_skill_arch_patterns</title>
<polygon fill="#e1f5fe" stroke="black" points="1044.96,-1125.18 910.96,-1125.18 910.96,-1089.18 1050.96,-1089.18 1050.96,-1119.18 1044.96,-1125.18"/>
<polyline fill="none" stroke="black" points="1044.96,-1125.18 1044.96,-1119.18 "/>
<polyline fill="none" stroke="black" points="1050.96,-1119.18 1044.96,-1119.18 "/>
<text text-anchor="middle" x="980.96" y="-1110.18" font-family="Helvetica,sans-Serif" font-size="10.00">twl:ref&#45;skill&#45;arch&#45;patterns</text>
<text text-anchor="middle" x="980.96" y="-1099.18" font-family="Helvetica,sans-Serif" font-size="10.00">(2,234 tok)</text>
</g>
<!-- skill_ref_specialist_output_schema&#45;&gt;skill_ref_skill_arch_patterns -->
<!-- skill_ref_specialist_output_schema&#45;&gt;skill_ref_skill_arch_patterns -->
<!-- skill_ref_types&#45;&gt;skill_ref_practices -->
<!-- skill_ref_practices&#45;&gt;skill_ref_deps_format -->
<!-- cmd_label_sync&#45;&gt;skill_ref_types -->
<!-- cmd_project_create&#45;&gt;cmd_project_governance -->
<!-- cmd_project_board_configure&#45;&gt;cmd_project_migrate -->
<!-- cmd_project_governance&#45;&gt;cmd_project_board_configure -->
<!-- cmd_project_migrate&#45;&gt;cmd_container_dependency_check -->
<!-- cmd_container_dependency_check&#45;&gt;cmd_setup_crg -->
<!-- cmd_setup_crg&#45;&gt;cmd_snapshot_analyze -->
<!-- cmd_snapshot_analyze&#45;&gt;cmd_snapshot_classify -->
<!-- cmd_snapshot_classify&#45;&gt;cmd_snapshot_generate -->
<!-- cmd_snapshot_generate&#45;&gt;skill_workflow_plugin_create -->
<!-- cmd_plugin_interview&#45;&gt;cmd_plugin_research -->
<!-- cmd_plugin_research&#45;&gt;cmd_plugin_design -->
<!-- cmd_plugin_design&#45;&gt;cmd_plugin_generate -->
<!-- cmd_plugin_migrate_analyze&#45;&gt;cmd_plugin_diagnose -->
<!-- cmd_prompt_audit_scan&#45;&gt;cmd_prompt_audit_review -->
<!-- cmd_prompt_audit_review&#45;&gt;cmd_prompt_audit_apply -->
<!-- cmd_plugin_diagnose&#45;&gt;cmd_plugin_phase_diagnose -->
<!-- cmd_plugin_fix&#45;&gt;cmd_plugin_verify -->
<!-- cmd_plugin_verify&#45;&gt;cmd_plugin_phase_verify -->
<!-- cmd_plugin_phase_diagnose&#45;&gt;skill_ref_specialist_output_schema -->
<g id="edge33" class="edge">
<title>cmd_plugin_phase_diagnose&#45;&gt;skill_ref_specialist_output_schema</title>
<path fill="none" stroke="black" d="M592.61,-1156.33C601.51,-1159.75 610.61,-1163.44 619.07,-1167.18 645.61,-1178.92 648.87,-1190.32 677.07,-1197.18 755.79,-1216.33 848.78,-1201.09 910.76,-1185.77"/>
<polygon fill="black" stroke="black" points="911.99,-1189.07 920.82,-1183.22 910.26,-1182.29 911.99,-1189.07"/>
</g>
<!-- cmd_plugin_phase_diagnose&#45;&gt;skill_ref_skill_arch_patterns -->
<g id="edge34" class="edge">
<title>cmd_plugin_phase_diagnose&#45;&gt;skill_ref_skill_arch_patterns</title>
<path fill="none" stroke="black" d="M602.63,-1120.18C608.52,-1117.05 614.13,-1113.41 619.07,-1109.18 659.24,-1074.72 631.43,-1031.98 677.07,-1005.18 737.77,-969.53 768.36,-983.88 835.46,-1005.18 882.88,-1020.23 928.15,-1057.08 955,-1082.11"/>
<polygon fill="black" stroke="black" points="952.74,-1084.79 962.4,-1089.15 957.57,-1079.72 952.74,-1084.79"/>
</g>
<!-- cmd_plugin_phase_diagnose&#45;&gt;cmd_plugin_fix -->
<!-- agent_worker_structure -->
<g id="node33" class="node">
<title>agent_worker_structure</title>
<ellipse fill="#ede7f6" stroke="black" cx="756.26" cy="-1101.18" rx="68.68" ry="21.43"/>
<text text-anchor="middle" x="756.26" y="-1104.18" font-family="Helvetica,sans-Serif" font-size="10.00">worker&#45;structure</text>
<text text-anchor="middle" x="756.26" y="-1093.18" font-family="Helvetica,sans-Serif" font-size="10.00">(1,244 tok)</text>
</g>
<!-- cmd_plugin_phase_diagnose&#45;&gt;agent_worker_structure -->
<g id="edge30" class="edge">
<title>cmd_plugin_phase_diagnose&#45;&gt;agent_worker_structure</title>
<path fill="none" stroke="black" stroke-dasharray="5,2" d="M604.18,-1127.28C629.89,-1122.83 659.7,-1117.69 686.01,-1113.14"/>
<polygon fill="black" stroke="black" points="686.65,-1116.58 695.91,-1111.43 685.46,-1109.68 686.65,-1116.58"/>
</g>
<!-- agent_worker_principles -->
<g id="node34" class="node">
<title>agent_worker_principles</title>
<ellipse fill="#ede7f6" stroke="black" cx="756.26" cy="-1037.18" rx="71.34" ry="21.43"/>
<text text-anchor="middle" x="756.26" y="-1040.18" font-family="Helvetica,sans-Serif" font-size="10.00">worker&#45;principles</text>
<text text-anchor="middle" x="756.26" y="-1029.18" font-family="Helvetica,sans-Serif" font-size="10.00">(1,154 tok)</text>
</g>
<!-- cmd_plugin_phase_diagnose&#45;&gt;agent_worker_principles -->
<g id="edge31" class="edge">
<title>cmd_plugin_phase_diagnose&#45;&gt;agent_worker_principles</title>
<path fill="none" stroke="black" stroke-dasharray="5,2" d="M595.12,-1120.08C603.29,-1116.77 611.51,-1113.11 619.07,-1109.18 646.85,-1094.72 649.53,-1084.08 677.07,-1069.18 684.58,-1065.11 692.72,-1061.24 700.81,-1057.69"/>
<polygon fill="black" stroke="black" points="702.42,-1060.8 710.25,-1053.67 699.68,-1054.36 702.42,-1060.8"/>
</g>
<!-- agent_worker_architecture -->
<g id="node35" class="node">
<title>agent_worker_architecture</title>
<ellipse fill="#ede7f6" stroke="black" cx="756.26" cy="-1165.18" rx="79.39" ry="21.43"/>
<text text-anchor="middle" x="756.26" y="-1168.18" font-family="Helvetica,sans-Serif" font-size="10.00">worker&#45;architecture</text>
<text text-anchor="middle" x="756.26" y="-1157.18" font-family="Helvetica,sans-Serif" font-size="10.00">(1,814 tok)</text>
</g>
<!-- cmd_plugin_phase_diagnose&#45;&gt;agent_worker_architecture -->
<g id="edge32" class="edge">
<title>cmd_plugin_phase_diagnose&#45;&gt;agent_worker_architecture</title>
<path fill="none" stroke="black" stroke-dasharray="5,2" d="M604.18,-1146.13C626.1,-1148.9 651.01,-1152.04 674.19,-1154.96"/>
<polygon fill="black" stroke="black" points="673.99,-1158.46 684.35,-1156.24 674.87,-1151.52 673.99,-1158.46"/>
</g>
<!-- cmd_plugin_phase_verify&#45;&gt;skill_ref_specialist_output_schema -->
<g id="edge38" class="edge">
<title>cmd_plugin_phase_verify&#45;&gt;skill_ref_specialist_output_schema</title>
<path fill="none" stroke="black" d="M595.27,-957.02C659.21,-951.61 765.63,-952.51 835.46,-1005.18 886.3,-1043.52 846.38,-1093.3 893.46,-1136.18 895.46,-1138 897.57,-1139.7 899.78,-1141.3"/>
<polygon fill="black" stroke="black" points="898.39,-1144.57 908.72,-1146.96 902.14,-1138.65 898.39,-1144.57"/>
</g>
<!-- cmd_plugin_phase_verify&#45;&gt;skill_ref_skill_arch_patterns -->
<g id="edge39" class="edge">
<title>cmd_plugin_phase_verify&#45;&gt;skill_ref_skill_arch_patterns</title>
<path fill="none" stroke="black" d="M589.97,-946.17C621.65,-934.86 660.06,-921.92 677.07,-919.18 746.57,-907.98 772.31,-888.07 835.46,-919.18 903.81,-952.85 948.86,-1036.1 968.57,-1079.64"/>
<polygon fill="black" stroke="black" points="965.48,-1081.31 972.72,-1089.05 971.89,-1078.49 965.48,-1081.31"/>
</g>
<!-- cmd_plugin_phase_verify&#45;&gt;agent_worker_structure -->
<g id="edge35" class="edge">
<title>cmd_plugin_phase_verify&#45;&gt;agent_worker_structure</title>
<path fill="none" stroke="black" stroke-dasharray="5,2" d="M595.16,-979.71C603.58,-983.4 611.87,-987.85 619.07,-993.18 653.21,-1018.47 643.34,-1043.34 677.07,-1069.18 683.37,-1074.01 690.51,-1078.22 697.84,-1081.87"/>
<polygon fill="black" stroke="black" points="696.64,-1085.18 707.19,-1086.2 699.58,-1078.82 696.64,-1085.18"/>
</g>
<!-- cmd_plugin_phase_verify&#45;&gt;agent_worker_principles -->
<g id="edge36" class="edge">
<title>cmd_plugin_phase_verify&#45;&gt;agent_worker_principles</title>
<path fill="none" stroke="black" stroke-dasharray="5,2" d="M594.02,-982.22C625.9,-993.09 666.48,-1006.92 698.95,-1017.98"/>
<polygon fill="black" stroke="black" points="698.15,-1021.41 708.75,-1021.32 700.41,-1014.78 698.15,-1021.41"/>
</g>
<!-- cmd_plugin_phase_verify&#45;&gt;agent_worker_architecture -->
<g id="edge37" class="edge">
<title>cmd_plugin_phase_verify&#45;&gt;agent_worker_architecture</title>
<path fill="none" stroke="black" stroke-dasharray="5,2" d="M595.24,-977.64C603.95,-981.58 612.31,-986.66 619.07,-993.18 667.56,-1039.92 629.34,-1085.66 677.07,-1133.18 681.57,-1137.66 686.79,-1141.54 692.35,-1144.9"/>
<polygon fill="black" stroke="black" points="690.86,-1148.07 701.32,-1149.75 694.19,-1141.91 690.86,-1148.07"/>
</g>
<!-- agent_worker_structure&#45;&gt;skill_ref_specialist_output_schema -->
<g id="edge40" class="edge">
<title>agent_worker_structure&#45;&gt;skill_ref_specialist_output_schema</title>
<path fill="none" stroke="black" stroke-dasharray="1,5" d="M807.24,-1115.54C836.64,-1123.99 874.35,-1134.83 907.03,-1144.22"/>
<polygon fill="black" stroke="black" points="906.41,-1147.68 916.99,-1147.08 908.35,-1140.95 906.41,-1147.68"/>
</g>
<!-- agent_worker_structure&#45;&gt;agent_worker_principles -->
<!-- agent_worker_structure&#45;&gt;agent_worker_principles -->
<!-- agent_worker_structure&#45;&gt;agent_worker_principles -->
<!-- agent_worker_structure&#45;&gt;agent_worker_principles -->
<!-- agent_worker_structure&#45;&gt;agent_worker_principles -->
<!-- agent_worker_principles&#45;&gt;skill_ref_specialist_output_schema -->
<g id="edge41" class="edge">
<title>agent_worker_principles&#45;&gt;skill_ref_specialist_output_schema</title>
<path fill="none" stroke="black" stroke-dasharray="1,5" d="M818.54,-1047.98C824.47,-1051 830.22,-1054.41 835.46,-1058.18 867.45,-1081.15 860.74,-1103.25 893.46,-1125.18 905.21,-1133.05 919.29,-1138.96 932.65,-1143.79"/>
<polygon fill="black" stroke="black" points="931.61,-1147.13 942.2,-1147.12 933.91,-1140.52 931.61,-1147.13"/>
</g>
<!-- agent_worker_principles&#45;&gt;skill_ref_specialist_output_schema -->
<!-- agent_worker_principles&#45;&gt;agent_worker_architecture -->
<!-- agent_worker_principles&#45;&gt;agent_worker_architecture -->
<!-- agent_worker_architecture&#45;&gt;skill_ref_specialist_output_schema -->
<g id="edge42" class="edge">
<title>agent_worker_architecture&#45;&gt;skill_ref_specialist_output_schema</title>
<path fill="none" stroke="black" stroke-dasharray="1,5" d="M814.04,-1150.58C835.12,-1148.98 859.68,-1148.39 883.33,-1148.81"/>
<polygon fill="black" stroke="black" points="883.32,-1152.31 893.4,-1149.05 883.48,-1145.31 883.32,-1152.31"/>
</g>
<!-- agent_worker_architecture&#45;&gt;skill_ref_specialist_output_schema -->
<!-- agent_worker_architecture&#45;&gt;skill_ref_specialist_output_schema -->
<!-- agent_worker_architecture&#45;&gt;skill_ref_skill_arch_patterns -->
<g id="edge43" class="edge">
<title>agent_worker_architecture&#45;&gt;skill_ref_skill_arch_patterns</title>
<path fill="none" stroke="black" stroke-dasharray="1,5" d="M813.75,-1150.47C840.14,-1143.59 872.02,-1135.29 900.78,-1127.8"/>
<polygon fill="black" stroke="black" points="902.01,-1131.1 910.8,-1125.19 900.24,-1124.32 902.01,-1131.1"/>
</g>
<!-- agent_worker_architecture&#45;&gt;agent_worker_structure -->
</g>
</svg>
