<?xml version="1.0" encoding="UTF-8" standalone="no"?>
<!DOCTYPE svg PUBLIC "-//W3C//DTD SVG 1.1//EN"
 "http://www.w3.org/Graphics/SVG/1.1/DTD/svg11.dtd">
<!-- Generated by graphviz version 2.43.0 (0)
 -->
<!-- Title: Dependencies Pages: 1 -->
<svg width="1136pt" height="756pt"
 viewBox="0.00 0.00 1135.58 755.60" xmlns="http://www.w3.org/2000/svg" xmlns:xlink="http://www.w3.org/1999/xlink">
<g id="graph0" class="graph" transform="scale(1 1) rotate(0) translate(4 751.6)">
<title>Dependencies</title>
<polygon fill="white" stroke="transparent" points="-4,4 -4,-751.6 1131.58,-751.6 1131.58,4 -4,4"/>
<text text-anchor="middle" x="563.79" y="-732.4" font-family="Helvetica,sans-Serif" font-size="14.00">co&#45;self&#45;improve</text>
<!-- skill_co_self_improve -->
<g id="node1" class="node">
<title>skill_co_self_improve</title>
<ellipse fill="#c8e6c9" stroke="black" cx="78.49" cy="-310.25" rx="78.48" ry="21.43"/>
<text text-anchor="middle" x="78.49" y="-313.25" font-family="Helvetica,sans-Serif" font-size="10.00">twl:co&#45;self&#45;improve</text>
<text text-anchor="middle" x="78.49" y="-302.25" font-family="Helvetica,sans-Serif" font-size="10.00">(1,381 tok)</text>
</g>
<!-- skill_workflow_observe_loop -->
<g id="node2" class="node">
<title>skill_workflow_observe_loop</title>
<ellipse fill="#e8f5e9" stroke="black" cx="318.22" cy="-575.25" rx="103.48" ry="21.43"/>
<text text-anchor="middle" x="318.22" y="-578.25" font-family="Helvetica,sans-Serif" font-size="10.00">twl:workflow&#45;observe&#45;loop</text>
<text text-anchor="middle" x="318.22" y="-567.25" font-family="Helvetica,sans-Serif" font-size="10.00">(1,964 tok)</text>
</g>
<!-- skill_co_self_improve&#45;&gt;skill_workflow_observe_loop -->
<g id="edge1" class="edge">
<title>skill_co_self_improve&#45;&gt;skill_workflow_observe_loop</title>
<path fill="none" stroke="black" d="M86.69,-331.65C102.72,-376.17 145.49,-479.41 214.98,-537.25 223.33,-544.21 233.09,-549.96 243.19,-554.69"/>
<polygon fill="black" stroke="black" points="241.96,-557.98 252.53,-558.76 244.76,-551.56 241.96,-557.98"/>
</g>
<!-- skill_test_scenario_catalog -->
<g id="node3" class="node">
<title>skill_test_scenario_catalog</title>
<polygon fill="#e1f5fe" stroke="black" points="1105.08,-245.25 973.08,-245.25 973.08,-209.25 1111.08,-209.25 1111.08,-239.25 1105.08,-245.25"/>
<polyline fill="none" stroke="black" points="1105.08,-245.25 1105.08,-239.25 "/>
<polyline fill="none" stroke="black" points="1111.08,-239.25 1105.08,-239.25 "/>
<text text-anchor="middle" x="1042.08" y="-230.25" font-family="Helvetica,sans-Serif" font-size="10.00">twl:test&#45;scenario&#45;catalog</text>
<text text-anchor="middle" x="1042.08" y="-219.25" font-family="Helvetica,sans-Serif" font-size="10.00">(1,714 tok)</text>
</g>
<!-- skill_co_self_improve&#45;&gt;skill_test_scenario_catalog -->
<g id="edge10" class="edge">
<title>skill_co_self_improve&#45;&gt;skill_test_scenario_catalog</title>
<path fill="none" stroke="black" d="M95,-289.11C117.63,-260.25 162.72,-209.76 214.98,-189.25 479.87,-85.31 829.76,-165.09 974.26,-206.42"/>
<polygon fill="black" stroke="black" points="973.31,-209.79 983.89,-209.2 975.26,-203.06 973.31,-209.79"/>
</g>
<!-- skill_observation_pattern_catalog -->
<g id="node4" class="node">
<title>skill_observation_pattern_catalog</title>
<polygon fill="#e1f5fe" stroke="black" points="1121.58,-187.25 956.58,-187.25 956.58,-151.25 1127.58,-151.25 1127.58,-181.25 1121.58,-187.25"/>
<polyline fill="none" stroke="black" points="1121.58,-187.25 1121.58,-181.25 "/>
<polyline fill="none" stroke="black" points="1127.58,-181.25 1121.58,-181.25 "/>
<text text-anchor="middle" x="1042.08" y="-172.25" font-family="Helvetica,sans-Serif" font-size="10.00">twl:observation&#45;pattern&#45;catalog</text>
<text text-anchor="middle" x="1042.08" y="-161.25" font-family="Helvetica,sans-Serif" font-size="10.00">(725 tok)</text>
</g>
<!-- skill_co_self_improve&#45;&gt;skill_observation_pattern_catalog -->
<g id="edge11" class="edge">
<title>skill_co_self_improve&#45;&gt;skill_observation_pattern_catalog</title>
<path fill="none" stroke="black" d="M88.54,-289.17C106.31,-250.83 149.79,-170.65 214.98,-138.25 473.53,-9.75 835.86,-102.36 979.21,-147.92"/>
<polygon fill="black" stroke="black" points="978.56,-151.38 989.15,-151.11 980.7,-144.72 978.56,-151.38"/>
</g>
<!-- skill_load_test_baselines -->
<g id="node5" class="node">
<title>skill_load_test_baselines</title>
<polygon fill="#e1f5fe" stroke="black" points="1100.08,-129.25 978.08,-129.25 978.08,-93.25 1106.08,-93.25 1106.08,-123.25 1100.08,-129.25"/>
<polyline fill="none" stroke="black" points="1100.08,-129.25 1100.08,-123.25 "/>
<polyline fill="none" stroke="black" points="1106.08,-123.25 1100.08,-123.25 "/>
<text text-anchor="middle" x="1042.08" y="-114.25" font-family="Helvetica,sans-Serif" font-size="10.00">twl:load&#45;test&#45;baselines</text>
<text text-anchor="middle" x="1042.08" y="-103.25" font-family="Helvetica,sans-Serif" font-size="10.00">(670 tok)</text>
</g>
<!-- skill_co_self_improve&#45;&gt;skill_load_test_baselines -->
<g id="edge12" class="edge">
<title>skill_co_self_improve&#45;&gt;skill_load_test_baselines</title>
<path fill="none" stroke="black" d="M84.3,-289.08C96.51,-240.94 133.65,-123.69 214.98,-75.25 467.92,75.38 845.75,-38.43 986.05,-89.67"/>
<polygon fill="black" stroke="black" points="985.14,-93.06 995.73,-93.24 987.56,-86.5 985.14,-93.06"/>
</g>
<!-- cmd_observe_once -->
<g id="node6" class="node">
<title>cmd_observe_once</title>
<polygon fill="#e3f2fd" stroke="black" points="599.45,-419.25 516.45,-419.25 516.45,-383.25 599.45,-383.25 599.45,-419.25"/>
<text text-anchor="middle" x="557.95" y="-404.25" font-family="Helvetica,sans-Serif" font-size="10.00">observe&#45;once</text>
<text text-anchor="middle" x="557.95" y="-393.25" font-family="Helvetica,sans-Serif" font-size="10.00">(436 tok)</text>
</g>
<!-- skill_co_self_improve&#45;&gt;cmd_observe_once -->
<g id="edge5" class="edge">
<title>skill_co_self_improve&#45;&gt;cmd_observe_once</title>
<path fill="none" stroke="black" d="M135.65,-324.88C159.95,-330.96 188.78,-337.85 214.98,-343.25 317.7,-364.45 438.95,-383.65 505.97,-393.76"/>
<polygon fill="black" stroke="black" points="505.84,-397.28 516.24,-395.31 506.87,-390.36 505.84,-397.28"/>
</g>
<!-- cmd_problem_detect -->
<g id="node7" class="node">
<title>cmd_problem_detect</title>
<polygon fill="#e3f2fd" stroke="black" points="603.95,-361.25 511.95,-361.25 511.95,-325.25 603.95,-325.25 603.95,-361.25"/>
<text text-anchor="middle" x="557.95" y="-346.25" font-family="Helvetica,sans-Serif" font-size="10.00">problem&#45;detect</text>
<text text-anchor="middle" x="557.95" y="-335.25" font-family="Helvetica,sans-Serif" font-size="10.00">(678 tok)</text>
</g>
<!-- skill_co_self_improve&#45;&gt;cmd_problem_detect -->
<g id="edge6" class="edge">
<title>skill_co_self_improve&#45;&gt;cmd_problem_detect</title>
<path fill="none" stroke="black" d="M154.62,-315.45C251.02,-322.11 416,-333.51 501.67,-339.43"/>
<polygon fill="black" stroke="black" points="501.5,-342.93 511.71,-340.13 501.98,-335.95 501.5,-342.93"/>
</g>
<!-- cmd_issue_draft_from_observation -->
<g id="node8" class="node">
<title>cmd_issue_draft_from_observation</title>
<polygon fill="#e3f2fd" stroke="black" points="636.45,-303.25 479.45,-303.25 479.45,-267.25 636.45,-267.25 636.45,-303.25"/>
<text text-anchor="middle" x="557.95" y="-288.25" font-family="Helvetica,sans-Serif" font-size="10.00">issue&#45;draft&#45;from&#45;observation</text>
<text text-anchor="middle" x="557.95" y="-277.25" font-family="Helvetica,sans-Serif" font-size="10.00">(591 tok)</text>
</g>
<!-- skill_co_self_improve&#45;&gt;cmd_issue_draft_from_observation -->
<g id="edge7" class="edge">
<title>skill_co_self_improve&#45;&gt;cmd_issue_draft_from_observation</title>
<path fill="none" stroke="black" d="M155.67,-306.27C240.98,-301.8 379.02,-294.57 468.89,-289.87"/>
<polygon fill="black" stroke="black" points="469.26,-293.35 479.06,-289.33 468.89,-286.36 469.26,-293.35"/>
</g>
<!-- cmd_observe_retrospective -->
<g id="node10" class="node">
<title>cmd_observe_retrospective</title>
<polygon fill="#e3f2fd" stroke="black" points="619.95,-245.25 495.95,-245.25 495.95,-209.25 619.95,-209.25 619.95,-245.25"/>
<text text-anchor="middle" x="557.95" y="-230.25" font-family="Helvetica,sans-Serif" font-size="10.00">observe&#45;retrospective</text>
<text text-anchor="middle" x="557.95" y="-219.25" font-family="Helvetica,sans-Serif" font-size="10.00">(521 tok)</text>
</g>
<!-- skill_co_self_improve&#45;&gt;cmd_observe_retrospective -->
<g id="edge8" class="edge">
<title>skill_co_self_improve&#45;&gt;cmd_observe_retrospective</title>
<path fill="none" stroke="black" d="M144.88,-298.89C234.11,-283.38 393.46,-255.68 485.67,-239.65"/>
<polygon fill="black" stroke="black" points="486.5,-243.05 495.75,-237.89 485.3,-236.16 486.5,-243.05"/>
</g>
<!-- cmd_test_project_init -->
<g id="node11" class="node">
<title>cmd_test_project_init</title>
<polygon fill="#e3f2fd" stroke="black" points="603.95,-593.25 511.95,-593.25 511.95,-557.25 603.95,-557.25 603.95,-593.25"/>
<text text-anchor="middle" x="557.95" y="-578.25" font-family="Helvetica,sans-Serif" font-size="10.00">test&#45;project&#45;init</text>
<text text-anchor="middle" x="557.95" y="-567.25" font-family="Helvetica,sans-Serif" font-size="10.00">(847 tok)</text>
</g>
<!-- skill_co_self_improve&#45;&gt;cmd_test_project_init -->
<g id="edge2" class="edge">
<title>skill_co_self_improve&#45;&gt;cmd_test_project_init</title>
<path fill="none" stroke="black" d="M91.36,-331.41C111.97,-366.21 157.71,-435.44 214.98,-473.25 239.24,-489.28 411.79,-536.64 502.12,-560.77"/>
<polygon fill="black" stroke="black" points="501.35,-564.19 511.91,-563.39 503.15,-557.43 501.35,-564.19"/>
</g>
<!-- cmd_test_project_reset -->
<g id="node12" class="node">
<title>cmd_test_project_reset</title>
<polygon fill="#e3f2fd" stroke="black" points="608.45,-535.25 507.45,-535.25 507.45,-499.25 608.45,-499.25 608.45,-535.25"/>
<text text-anchor="middle" x="557.95" y="-520.25" font-family="Helvetica,sans-Serif" font-size="10.00">test&#45;project&#45;reset</text>
<text text-anchor="middle" x="557.95" y="-509.25" font-family="Helvetica,sans-Serif" font-size="10.00">(443 tok)</text>
</g>
<!-- skill_co_self_improve&#45;&gt;cmd_test_project_reset -->
<g id="edge3" class="edge">
<title>skill_co_self_improve&#45;&gt;cmd_test_project_reset</title>
<path fill="none" stroke="black" d="M99.08,-331.11C123.8,-356.25 168.71,-398.12 214.98,-422.25 307.27,-470.41 426.68,-496.38 497.23,-508.47"/>
<polygon fill="black" stroke="black" points="496.83,-511.96 507.27,-510.16 497.99,-505.05 496.83,-511.96"/>
</g>
<!-- cmd_test_project_scenario_load -->
<g id="node13" class="node">
<title>cmd_test_project_scenario_load</title>
<polygon fill="#e3f2fd" stroke="black" points="629.45,-477.25 486.45,-477.25 486.45,-441.25 629.45,-441.25 629.45,-477.25"/>
<text text-anchor="middle" x="557.95" y="-462.25" font-family="Helvetica,sans-Serif" font-size="10.00">test&#45;project&#45;scenario&#45;load</text>
<text text-anchor="middle" x="557.95" y="-451.25" font-family="Helvetica,sans-Serif" font-size="10.00">(861 tok)</text>
</g>
<!-- skill_co_self_improve&#45;&gt;cmd_test_project_scenario_load -->
<g id="edge4" class="edge">
<title>skill_co_self_improve&#45;&gt;cmd_test_project_scenario_load</title>
<path fill="none" stroke="black" d="M112.49,-329.55C139.34,-344.57 178.62,-365.03 214.98,-378.25 301.87,-409.86 405.73,-432.43 476.01,-445.59"/>
<polygon fill="black" stroke="black" points="475.66,-449.08 486.13,-447.46 476.94,-442.2 475.66,-449.08"/>
</g>
<!-- agent_observer_evaluator -->
<g id="node14" class="node">
<title>agent_observer_evaluator</title>
<ellipse fill="#ede7f6" stroke="black" cx="796.51" cy="-227.25" rx="77.56" ry="21.43"/>
<text text-anchor="middle" x="796.51" y="-230.25" font-family="Helvetica,sans-Serif" font-size="10.00">observer&#45;evaluator</text>
<text text-anchor="middle" x="796.51" y="-219.25" font-family="Helvetica,sans-Serif" font-size="10.00">(1,469 tok)</text>
</g>
<!-- skill_co_self_improve&#45;&gt;agent_observer_evaluator -->
<g id="edge9" class="edge">
<title>skill_co_self_improve&#45;&gt;agent_observer_evaluator</title>
<path fill="none" stroke="black" stroke-dasharray="5,2" d="M113.28,-291.24C140.1,-276.91 178.94,-257.82 214.98,-246.25 394.5,-188.67 448.69,-181.28 636.45,-198.25 666.08,-200.93 698.44,-206.37 726.19,-211.81"/>
<polygon fill="black" stroke="black" points="725.7,-215.28 736.19,-213.81 727.07,-208.42 725.7,-215.28"/>
</g>
<!-- cmd_observe_and_detect -->
<g id="node9" class="node">
<title>cmd_observe_and_detect</title>
<polygon fill="#bbdefb" stroke="black" points="613.95,-651.25 501.95,-651.25 501.95,-615.25 613.95,-615.25 613.95,-651.25"/>
<text text-anchor="middle" x="557.95" y="-636.25" font-family="Helvetica,sans-Serif" font-size="10.00">observe&#45;and&#45;detect</text>
<text text-anchor="middle" x="557.95" y="-625.25" font-family="Helvetica,sans-Serif" font-size="10.00">(460 tok)</text>
</g>
<!-- skill_workflow_observe_loop&#45;&gt;cmd_observe_and_detect -->
<g id="edge13" class="edge">
<title>skill_workflow_observe_loop&#45;&gt;cmd_observe_and_detect</title>
<path fill="none" stroke="black" d="M385.44,-591.41C418.68,-599.52 458.81,-609.31 491.89,-617.38"/>
<polygon fill="black" stroke="black" points="491.37,-620.86 501.92,-619.83 493.03,-614.06 491.37,-620.86"/>
</g>
<!-- skill_workflow_observe_loop&#45;&gt;cmd_observe_retrospective -->
<g id="edge14" class="edge">
<title>skill_workflow_observe_loop&#45;&gt;cmd_observe_retrospective</title>
<path fill="none" stroke="black" d="M324.19,-553.68C338.37,-496.89 384.23,-341.76 479.45,-256.25 481.78,-254.16 484.28,-252.22 486.89,-250.41"/>
<polygon fill="black" stroke="black" points="488.9,-253.28 495.6,-245.08 485.24,-247.31 488.9,-253.28"/>
</g>
<!-- skill_workflow_observe_loop&#45;&gt;cmd_test_project_init -->
<!-- script_observe_wrapper -->
<g id="node15" class="node">
<title>script_observe_wrapper</title>
<polygon fill="#ff9800" stroke="black" points="877.18,-411.25 836.85,-435.74 756.18,-435.74 715.85,-411.25 756.18,-386.77 836.85,-386.77 877.18,-411.25"/>
<text text-anchor="middle" x="796.51" y="-414.25" font-family="Helvetica,sans-Serif" font-size="10.00">observe&#45;wrapper</text>
<text text-anchor="middle" x="796.51" y="-403.25" font-family="Helvetica,sans-Serif" font-size="10.00">(122 tok)</text>
</g>
<!-- skill_workflow_observe_loop&#45;&gt;script_observe_wrapper -->
<g id="edge15" class="edge">
<title>skill_workflow_observe_loop&#45;&gt;script_observe_wrapper</title>
<path fill="none" stroke="black" d="M336.79,-596.13C363.8,-626.39 418.78,-681.13 479.45,-702.25 545.35,-725.2 576.44,-737.85 636.45,-702.25 731.68,-645.78 773.6,-509.96 788.56,-445.86"/>
<polygon fill="black" stroke="black" points="792.03,-446.37 790.81,-435.84 785.2,-444.83 792.03,-446.37"/>
</g>
<!-- script_session_state_wrapper -->
<g id="node16" class="node">
<title>script_session_state_wrapper</title>
<polygon fill="#ff9800" stroke="black" points="898.64,-340.25 847.58,-364.74 745.45,-364.74 694.39,-340.25 745.45,-315.77 847.58,-315.77 898.64,-340.25"/>
<text text-anchor="middle" x="796.51" y="-343.25" font-family="Helvetica,sans-Serif" font-size="10.00">session&#45;state&#45;wrapper</text>
<text text-anchor="middle" x="796.51" y="-332.25" font-family="Helvetica,sans-Serif" font-size="10.00">(126 tok)</text>
</g>
<!-- skill_workflow_observe_loop&#45;&gt;script_session_state_wrapper -->
<g id="edge16" class="edge">
<title>skill_workflow_observe_loop&#45;&gt;script_session_state_wrapper</title>
<path fill="none" stroke="black" d="M344.98,-595.97C403.42,-640.31 547.8,-734.73 636.45,-662.25 736.86,-580.16 609.48,-474.25 694.45,-376.25 700.35,-369.46 707.62,-363.94 715.53,-359.47"/>
<polygon fill="black" stroke="black" points="717.35,-362.47 724.71,-354.85 714.2,-356.22 717.35,-362.47"/>
</g>
<!-- skill_test_scenario_catalog&#45;&gt;skill_observation_pattern_catalog -->
<!-- skill_observation_pattern_catalog&#45;&gt;skill_load_test_baselines -->
<!-- cmd_observe_once&#45;&gt;cmd_problem_detect -->
<!-- cmd_observe_once&#45;&gt;cmd_problem_detect -->
<!-- cmd_observe_once&#45;&gt;script_observe_wrapper -->
<g id="edge17" class="edge">
<title>cmd_observe_once&#45;&gt;script_observe_wrapper</title>
<path fill="none" stroke="black" d="M599.62,-402.97C630.18,-404.27 673.11,-406.08 711,-407.68"/>
<polygon fill="black" stroke="black" points="710.89,-411.18 721.03,-408.11 711.18,-404.19 710.89,-411.18"/>
</g>
<!-- cmd_observe_once&#45;&gt;script_session_state_wrapper -->
<g id="edge18" class="edge">
<title>cmd_observe_once&#45;&gt;script_session_state_wrapper</title>
<path fill="none" stroke="black" d="M599.62,-390.77C632.57,-382.27 679.91,-370.06 719.8,-359.78"/>
<polygon fill="black" stroke="black" points="720.69,-363.16 729.5,-357.28 718.94,-356.39 720.69,-363.16"/>
</g>
<!-- cmd_problem_detect&#45;&gt;skill_observation_pattern_catalog -->
<g id="edge19" class="edge">
<title>cmd_problem_detect&#45;&gt;skill_observation_pattern_catalog</title>
<path fill="none" stroke="black" d="M603.96,-330C630.26,-322.42 664.13,-312.92 694.45,-305.25 784.62,-282.47 817.69,-305.15 898.58,-259.25 931.11,-240.79 925.09,-218.46 956.58,-198.25 960.17,-195.95 963.98,-193.8 967.9,-191.8"/>
<polygon fill="black" stroke="black" points="969.66,-194.84 977.22,-187.42 966.69,-188.51 969.66,-194.84"/>
</g>
<!-- cmd_problem_detect&#45;&gt;cmd_issue_draft_from_observation -->
<!-- cmd_problem_detect&#45;&gt;agent_observer_evaluator -->
<!-- cmd_issue_draft_from_observation&#45;&gt;cmd_observe_retrospective -->
<!-- cmd_observe_and_detect&#45;&gt;cmd_observe_retrospective -->
<!-- cmd_observe_and_detect&#45;&gt;agent_observer_evaluator -->
<g id="edge20" class="edge">
<title>cmd_observe_and_detect&#45;&gt;agent_observer_evaluator</title>
<path fill="none" stroke="black" stroke-dasharray="5,2" d="M614.32,-620.63C622.7,-616.6 630.51,-611.27 636.45,-604.25 723.88,-500.91 623.41,-420.48 694.45,-305.25 708.19,-282.97 730.77,-264.64 751.11,-251.37"/>
<polygon fill="black" stroke="black" points="753.05,-254.28 759.65,-245.99 749.32,-248.35 753.05,-254.28"/>
</g>
<!-- cmd_observe_retrospective&#45;&gt;agent_observer_evaluator -->
<!-- cmd_observe_retrospective&#45;&gt;script_observe_wrapper -->
<!-- cmd_test_project_init&#45;&gt;cmd_test_project_reset -->
<!-- cmd_test_project_reset&#45;&gt;cmd_test_project_scenario_load -->
<!-- cmd_test_project_scenario_load&#45;&gt;cmd_observe_once -->
<!-- agent_observer_evaluator&#45;&gt;skill_test_scenario_catalog -->
<!-- script_observe_wrapper&#45;&gt;script_session_state_wrapper -->
<!-- script_observe_wrapper&#45;&gt;script_session_state_wrapper -->
</g>
</svg>
