<?xml version="1.0" encoding="UTF-8" standalone="no"?>
<!DOCTYPE svg PUBLIC "-//W3C//DTD SVG 1.1//EN"
 "http://www.w3.org/Graphics/SVG/1.1/DTD/svg11.dtd">
<!-- Generated by graphviz version 2.43.0 (0)
 -->
<!-- Title: Dependencies Pages: 1 -->
<svg width="935pt" height="473pt"
 viewBox="0.00 0.00 934.90 472.77" xmlns="http://www.w3.org/2000/svg" xmlns:xlink="http://www.w3.org/1999/xlink">
<g id="graph0" class="graph" transform="scale(1 1) rotate(0) translate(4 468.77)">
<title>Dependencies</title>
<polygon fill="white" stroke="transparent" points="-4,4 -4,-468.77 930.9,-468.77 930.9,4 -4,4"/>
<text text-anchor="middle" x="463.45" y="-449.57" font-family="Helvetica,sans-Serif" font-size="14.00">workflow&#45;issue&#45;lifecycle</text>
<!-- skill_workflow_issue_lifecycle -->
<g id="node1" class="node">
<title>skill_workflow_issue_lifecycle</title>
<ellipse fill="#e8f5e9" stroke="black" cx="108.19" cy="-176.56" rx="108.38" ry="21.43"/>
<text text-anchor="middle" x="108.19" y="-179.56" font-family="Helvetica,sans-Serif" font-size="10.00">twl:workflow&#45;issue&#45;lifecycle</text>
<text text-anchor="middle" x="108.19" y="-168.56" font-family="Helvetica,sans-Serif" font-size="10.00">(2,595 tok)</text>
</g>
<!-- cmd_issue_structure -->
<g id="node2" class="node">
<title>cmd_issue_structure</title>
<polygon fill="#e3f2fd" stroke="black" points="384.87,-368.56 295.87,-368.56 295.87,-332.56 384.87,-332.56 384.87,-368.56"/>
<text text-anchor="middle" x="340.37" y="-353.56" font-family="Helvetica,sans-Serif" font-size="10.00">issue&#45;structure</text>
<text text-anchor="middle" x="340.37" y="-342.56" font-family="Helvetica,sans-Serif" font-size="10.00">(1,406 tok)</text>
</g>
<!-- skill_workflow_issue_lifecycle&#45;&gt;cmd_issue_structure -->
<g id="edge1" class="edge">
<title>skill_workflow_issue_lifecycle&#45;&gt;cmd_issue_structure</title>
<path fill="none" stroke="black" d="M128.93,-197.51C158.37,-227.87 216.55,-284.49 274.37,-321.56 278.22,-324.03 282.32,-326.39 286.51,-328.62"/>
<polygon fill="black" stroke="black" points="285.26,-331.91 295.77,-333.29 288.42,-325.66 285.26,-331.91"/>
</g>
<!-- cmd_issue_create -->
<g id="node3" class="node">
<title>cmd_issue_create</title>
<polygon fill="#e3f2fd" stroke="black" points="378.87,-136.56 301.87,-136.56 301.87,-100.56 378.87,-100.56 378.87,-136.56"/>
<text text-anchor="middle" x="340.37" y="-121.56" font-family="Helvetica,sans-Serif" font-size="10.00">issue&#45;create</text>
<text text-anchor="middle" x="340.37" y="-110.56" font-family="Helvetica,sans-Serif" font-size="10.00">(1,192 tok)</text>
</g>
<!-- skill_workflow_issue_lifecycle&#45;&gt;cmd_issue_create -->
<g id="edge5" class="edge">
<title>skill_workflow_issue_lifecycle&#45;&gt;cmd_issue_create</title>
<path fill="none" stroke="black" d="M175.46,-159.86C212.65,-150.49 258.19,-139.02 291.83,-130.54"/>
<polygon fill="black" stroke="black" points="293.02,-133.85 301.86,-128.01 291.31,-127.06 293.02,-133.85"/>
</g>
<!-- cmd_issue_spec_review -->
<g id="node4" class="node">
<title>cmd_issue_spec_review</title>
<polygon fill="#bbdefb" stroke="black" points="392.87,-310.56 287.87,-310.56 287.87,-274.56 392.87,-274.56 392.87,-310.56"/>
<text text-anchor="middle" x="340.37" y="-295.56" font-family="Helvetica,sans-Serif" font-size="10.00">issue&#45;spec&#45;review</text>
<text text-anchor="middle" x="340.37" y="-284.56" font-family="Helvetica,sans-Serif" font-size="10.00">(1,870 tok)</text>
</g>
<!-- skill_workflow_issue_lifecycle&#45;&gt;cmd_issue_spec_review -->
<g id="edge2" class="edge">
<title>skill_workflow_issue_lifecycle&#45;&gt;cmd_issue_spec_review</title>
<path fill="none" stroke="black" d="M145.58,-196.6C178.82,-214.7 229.48,-241.75 274.37,-263.56 278.98,-265.8 283.8,-268.07 288.64,-270.31"/>
<polygon fill="black" stroke="black" points="287.38,-273.58 297.93,-274.55 290.28,-267.21 287.38,-273.58"/>
</g>
<!-- cmd_issue_review_aggregate -->
<g id="node5" class="node">
<title>cmd_issue_review_aggregate</title>
<polygon fill="#e3f2fd" stroke="black" points="406.37,-252.56 274.37,-252.56 274.37,-216.56 406.37,-216.56 406.37,-252.56"/>
<text text-anchor="middle" x="340.37" y="-237.56" font-family="Helvetica,sans-Serif" font-size="10.00">issue&#45;review&#45;aggregate</text>
<text text-anchor="middle" x="340.37" y="-226.56" font-family="Helvetica,sans-Serif" font-size="10.00">(1,157 tok)</text>
</g>
<!-- skill_workflow_issue_lifecycle&#45;&gt;cmd_issue_review_aggregate -->
<g id="edge3" class="edge">
<title>skill_workflow_issue_lifecycle&#45;&gt;cmd_issue_review_aggregate</title>
<path fill="none" stroke="black" d="M175.46,-193.26C203.26,-200.26 235.73,-208.45 264.4,-215.67"/>
<polygon fill="black" stroke="black" points="263.81,-219.13 274.37,-218.18 265.52,-212.34 263.81,-219.13"/>
</g>
<!-- cmd_issue_arch_drift -->
<g id="node6" class="node">
<title>cmd_issue_arch_drift</title>
<polygon fill="#e3f2fd" stroke="black" points="385.37,-194.56 295.37,-194.56 295.37,-158.56 385.37,-158.56 385.37,-194.56"/>
<text text-anchor="middle" x="340.37" y="-179.56" font-family="Helvetica,sans-Serif" font-size="10.00">issue&#45;arch&#45;drift</text>
<text text-anchor="middle" x="340.37" y="-168.56" font-family="Helvetica,sans-Serif" font-size="10.00">(1,079 tok)</text>
</g>
<!-- skill_workflow_issue_lifecycle&#45;&gt;cmd_issue_arch_drift -->
<g id="edge4" class="edge">
<title>skill_workflow_issue_lifecycle&#45;&gt;cmd_issue_arch_drift</title>
<path fill="none" stroke="black" d="M216.53,-176.56C240.29,-176.56 264.5,-176.56 285.07,-176.56"/>
<polygon fill="black" stroke="black" points="285.17,-180.06 295.17,-176.56 285.17,-173.06 285.17,-180.06"/>
</g>
<!-- cmd_project_board_sync -->
<g id="node7" class="node">
<title>cmd_project_board_sync</title>
<polygon fill="#e3f2fd" stroke="black" points="394.37,-78.56 286.37,-78.56 286.37,-42.56 394.37,-42.56 394.37,-78.56"/>
<text text-anchor="middle" x="340.37" y="-63.56" font-family="Helvetica,sans-Serif" font-size="10.00">project&#45;board&#45;sync</text>
<text text-anchor="middle" x="340.37" y="-52.56" font-family="Helvetica,sans-Serif" font-size="10.00">(1,184 tok)</text>
</g>
<!-- skill_workflow_issue_lifecycle&#45;&gt;cmd_project_board_sync -->
<g id="edge6" class="edge">
<title>skill_workflow_issue_lifecycle&#45;&gt;cmd_project_board_sync</title>
<path fill="none" stroke="black" d="M145.58,-156.52C178.82,-138.43 229.48,-111.37 274.37,-89.56 278.98,-87.32 283.8,-85.05 288.64,-82.81"/>
<polygon fill="black" stroke="black" points="290.28,-85.91 297.93,-78.57 287.38,-79.54 290.28,-85.91"/>
</g>
<!-- script_spec_review_session_init -->
<g id="node13" class="node">
<title>script_spec_review_session_init</title>
<polygon fill="#ff9800" stroke="black" points="926.94,-60.56 871.4,-85.05 760.31,-85.05 704.76,-60.56 760.31,-36.07 871.4,-36.07 926.94,-60.56"/>
<text text-anchor="middle" x="815.85" y="-63.56" font-family="Helvetica,sans-Serif" font-size="10.00">spec&#45;review&#45;session&#45;init</text>
<text text-anchor="middle" x="815.85" y="-52.56" font-family="Helvetica,sans-Serif" font-size="10.00">(501 tok)</text>
</g>
<!-- skill_workflow_issue_lifecycle&#45;&gt;script_spec_review_session_init -->
<g id="edge7" class="edge">
<title>skill_workflow_issue_lifecycle&#45;&gt;script_spec_review_session_init</title>
<path fill="none" stroke="black" d="M124.59,-155.58C150.85,-121.79 207.95,-56.58 274.37,-31.56 431.49,27.62 632.57,-9.94 739.71,-38.02"/>
<polygon fill="black" stroke="black" points="738.9,-41.43 749.46,-40.62 740.7,-34.67 738.9,-41.43"/>
</g>
<!-- cmd_issue_structure&#45;&gt;cmd_issue_spec_review -->
<!-- cmd_issue_create&#45;&gt;cmd_project_board_sync -->
<!-- cmd_issue_spec_review&#45;&gt;cmd_issue_review_aggregate -->
<!-- cmd_issue_spec_review&#45;&gt;cmd_issue_review_aggregate -->
<!-- agent_issue_critic -->
<g id="node8" class="node">
<title>agent_issue_critic</title>
<ellipse fill="#ede7f6" stroke="black" cx="555.59" cy="-420.56" rx="49.49" ry="21.43"/>
<text text-anchor="middle" x="555.59" y="-423.56" font-family="Helvetica,sans-Serif" font-size="10.00">issue&#45;critic</text>
<text text-anchor="middle" x="555.59" y="-412.56" font-family="Helvetica,sans-Serif" font-size="10.00">(1,268 tok)</text>
</g>
<!-- cmd_issue_spec_review&#45;&gt;agent_issue_critic -->
<g id="edge8" class="edge">
<title>cmd_issue_spec_review&#45;&gt;agent_issue_critic</title>
<path fill="none" stroke="black" stroke-dasharray="5,2" d="M388.57,-310.63C394.8,-313.86 400.92,-317.51 406.37,-321.56 438,-345.03 431.85,-366.35 464.37,-388.56 475.75,-396.33 489.21,-402.42 502.22,-407.11"/>
<polygon fill="black" stroke="black" points="501.45,-410.54 512.04,-410.42 503.69,-403.91 501.45,-410.54"/>
</g>
<!-- agent_issue_feasibility -->
<g id="node9" class="node">
<title>agent_issue_feasibility</title>
<ellipse fill="#ede7f6" stroke="black" cx="555.59" cy="-356.56" rx="67.35" ry="21.43"/>
<text text-anchor="middle" x="555.59" y="-359.56" font-family="Helvetica,sans-Serif" font-size="10.00">issue&#45;feasibility</text>
<text text-anchor="middle" x="555.59" y="-348.56" font-family="Helvetica,sans-Serif" font-size="10.00">(1,175 tok)</text>
</g>
<!-- cmd_issue_spec_review&#45;&gt;agent_issue_feasibility -->
<g id="edge9" class="edge">
<title>cmd_issue_spec_review&#45;&gt;agent_issue_feasibility</title>
<path fill="none" stroke="black" stroke-dasharray="5,2" d="M392.99,-308.05C424.26,-317.44 464.23,-329.44 496.59,-339.15"/>
<polygon fill="black" stroke="black" points="495.79,-342.57 506.38,-342.09 497.8,-335.86 495.79,-342.57"/>
</g>
<!-- agent_worker_codex_reviewer -->
<g id="node10" class="node">
<title>agent_worker_codex_reviewer</title>
<ellipse fill="#ede7f6" stroke="black" cx="555.59" cy="-292.56" rx="91.43" ry="21.43"/>
<text text-anchor="middle" x="555.59" y="-295.56" font-family="Helvetica,sans-Serif" font-size="10.00">worker&#45;codex&#45;reviewer</text>
<text text-anchor="middle" x="555.59" y="-284.56" font-family="Helvetica,sans-Serif" font-size="10.00">(1,841 tok)</text>
</g>
<!-- cmd_issue_spec_review&#45;&gt;agent_worker_codex_reviewer -->
<g id="edge10" class="edge">
<title>cmd_issue_spec_review&#45;&gt;agent_worker_codex_reviewer</title>
<path fill="none" stroke="black" stroke-dasharray="5,2" d="M392.99,-292.56C411.5,-292.56 433.06,-292.56 454.29,-292.56"/>
<polygon fill="black" stroke="black" points="454.33,-296.06 464.33,-292.56 454.33,-289.06 454.33,-296.06"/>
</g>
<!-- script_escape_issue_body -->
<g id="node11" class="node">
<title>script_escape_issue_body</title>
<polygon fill="#ff9800" stroke="black" points="904.22,-292.56 860.03,-317.05 771.67,-317.05 727.49,-292.56 771.67,-268.07 860.03,-268.07 904.22,-292.56"/>
<text text-anchor="middle" x="815.85" y="-295.56" font-family="Helvetica,sans-Serif" font-size="10.00">escape&#45;issue&#45;body</text>
<text text-anchor="middle" x="815.85" y="-284.56" font-family="Helvetica,sans-Serif" font-size="10.00">(63 tok)</text>
</g>
<!-- cmd_issue_spec_review&#45;&gt;script_escape_issue_body -->
<g id="edge11" class="edge">
<title>cmd_issue_spec_review&#45;&gt;script_escape_issue_body</title>
<path fill="none" stroke="black" d="M393.17,-275.96C414.92,-269.81 440.63,-263.6 464.37,-260.56 544.8,-250.27 566.09,-252.94 646.81,-260.56 678.82,-263.58 713.81,-269.77 743.53,-275.91"/>
<polygon fill="black" stroke="black" points="742.89,-279.35 753.4,-277.98 744.33,-272.5 742.89,-279.35"/>
</g>
<!-- script_spec_review_manifest -->
<g id="node12" class="node">
<title>script_spec_review_manifest</title>
<polygon fill="#ff9800" stroke="black" points="916.21,-221.56 866.03,-246.05 765.67,-246.05 715.49,-221.56 765.67,-197.07 866.03,-197.07 916.21,-221.56"/>
<text text-anchor="middle" x="815.85" y="-224.56" font-family="Helvetica,sans-Serif" font-size="10.00">spec&#45;review&#45;manifest</text>
<text text-anchor="middle" x="815.85" y="-213.56" font-family="Helvetica,sans-Serif" font-size="10.00">(169 tok)</text>
</g>
<!-- cmd_issue_spec_review&#45;&gt;script_spec_review_manifest -->
<g id="edge12" class="edge">
<title>cmd_issue_spec_review&#45;&gt;script_spec_review_manifest</title>
<path fill="none" stroke="black" d="M382.98,-274.55C406.43,-265.19 436.54,-254.5 464.37,-248.56 544.3,-231.51 636.51,-224.91 706.28,-222.49"/>
<polygon fill="black" stroke="black" points="706.53,-225.99 716.41,-222.16 706.3,-218.99 706.53,-225.99"/>
</g>
<!-- cmd_issue_review_aggregate&#45;&gt;cmd_issue_arch_drift -->
<!-- cmd_issue_review_aggregate&#45;&gt;cmd_issue_arch_drift -->
<!-- cmd_issue_arch_drift&#45;&gt;cmd_issue_create -->
<!-- cmd_issue_arch_drift&#45;&gt;script_spec_review_session_init -->
<!-- cmd_project_board_sync&#45;&gt;script_spec_review_session_init -->
<!-- agent_issue_critic&#45;&gt;agent_issue_feasibility -->
<!-- agent_issue_feasibility&#45;&gt;agent_worker_codex_reviewer -->
<!-- agent_worker_codex_reviewer&#45;&gt;script_escape_issue_body -->
<!-- script_escape_issue_body&#45;&gt;script_spec_review_manifest -->
</g>
</svg>
