<?xml version="1.0" encoding="UTF-8" standalone="no"?>
<!DOCTYPE svg PUBLIC "-//W3C//DTD SVG 1.1//EN"
 "http://www.w3.org/Graphics/SVG/1.1/DTD/svg11.dtd">
<!-- Generated by graphviz version 2.43.0 (0)
 -->
<!-- Title: Dependencies Pages: 1 -->
<svg width="957pt" height="1221pt"
 viewBox="0.00 0.00 956.96 1221.48" xmlns="http://www.w3.org/2000/svg" xmlns:xlink="http://www.w3.org/1999/xlink">
<g id="graph0" class="graph" transform="scale(1 1) rotate(0) translate(4 1217.48)">
<title>Dependencies</title>
<polygon fill="white" stroke="transparent" points="-4,4 -4,-1217.48 952.96,-1217.48 952.96,4 -4,4"/>
<text text-anchor="middle" x="474.48" y="-1198.28" font-family="Helvetica,sans-Serif" font-size="14.00">co&#45;project</text>
<!-- skill_co_project -->
<g id="node1" class="node">
<title>skill_co_project</title>
<ellipse fill="#c8e6c9" stroke="black" cx="53.03" cy="-585.98" rx="53.07" ry="21.43"/>
<text text-anchor="middle" x="53.03" y="-588.98" font-family="Helvetica,sans-Serif" font-size="10.00">twl:co&#45;project</text>
<text text-anchor="middle" x="53.03" y="-577.98" font-family="Helvetica,sans-Serif" font-size="10.00">(1,321 tok)</text>
</g>
<!-- cmd_project_create -->
<g id="node2" class="node">
<title>cmd_project_create</title>
<polygon fill="#e3f2fd" stroke="black" points="272.57,-1183.98 196.57,-1183.98 196.57,-1147.98 272.57,-1147.98 272.57,-1183.98"/>
<text text-anchor="middle" x="234.57" y="-1168.98" font-family="Helvetica,sans-Serif" font-size="10.00">project&#45;create</text>
<text text-anchor="middle" x="234.57" y="-1157.98" font-family="Helvetica,sans-Serif" font-size="10.00">(450 tok)</text>
</g>
<!-- skill_co_project&#45;&gt;cmd_project_create -->
<g id="edge1" class="edge">
<title>skill_co_project&#45;&gt;cmd_project_create</title>
<path fill="none" stroke="black" d="M55.64,-607.2C62.88,-697.99 95.22,-1052.94 164.07,-1136.98 170.09,-1144.34 178.3,-1149.85 186.96,-1153.98"/>
<polygon fill="black" stroke="black" points="185.89,-1157.32 196.46,-1157.94 188.58,-1150.86 185.89,-1157.32"/>
</g>
<!-- cmd_project_governance -->
<g id="node3" class="node">
<title>cmd_project_governance</title>
<polygon fill="#e3f2fd" stroke="black" points="284.07,-1125.98 185.07,-1125.98 185.07,-1089.98 284.07,-1089.98 284.07,-1125.98"/>
<text text-anchor="middle" x="234.57" y="-1110.98" font-family="Helvetica,sans-Serif" font-size="10.00">project&#45;governance</text>
<text text-anchor="middle" x="234.57" y="-1099.98" font-family="Helvetica,sans-Serif" font-size="10.00">(974 tok)</text>
</g>
<!-- skill_co_project&#45;&gt;cmd_project_governance -->
<g id="edge2" class="edge">
<title>skill_co_project&#45;&gt;cmd_project_governance</title>
<path fill="none" stroke="black" d="M56.18,-607.23C65.13,-691.97 101.89,-1004.8 164.07,-1078.98 167.49,-1083.07 171.6,-1086.6 176.07,-1089.63"/>
<polygon fill="black" stroke="black" points="174.66,-1092.86 185.06,-1094.88 178.19,-1086.81 174.66,-1092.86"/>
</g>
<!-- cmd_project_migrate -->
<g id="node4" class="node">
<title>cmd_project_migrate</title>
<polygon fill="#e3f2fd" stroke="black" points="275.07,-1067.98 194.07,-1067.98 194.07,-1031.98 275.07,-1031.98 275.07,-1067.98"/>
<text text-anchor="middle" x="234.57" y="-1052.98" font-family="Helvetica,sans-Serif" font-size="10.00">project&#45;migrate</text>
<text text-anchor="middle" x="234.57" y="-1041.98" font-family="Helvetica,sans-Serif" font-size="10.00">(472 tok)</text>
</g>
<!-- skill_co_project&#45;&gt;cmd_project_migrate -->
<g id="edge3" class="edge">
<title>skill_co_project&#45;&gt;cmd_project_migrate</title>
<path fill="none" stroke="black" d="M56.88,-607.37C67.72,-685.83 108.55,-956.61 164.07,-1020.98 169.65,-1027.46 176.92,-1032.52 184.64,-1036.46"/>
<polygon fill="black" stroke="black" points="183.3,-1039.69 193.85,-1040.6 186.16,-1033.31 183.3,-1039.69"/>
</g>
<!-- cmd_container_dependency_check -->
<g id="node5" class="node">
<title>cmd_container_dependency_check</title>
<polygon fill="#e3f2fd" stroke="black" points="305.07,-1009.98 164.07,-1009.98 164.07,-973.98 305.07,-973.98 305.07,-1009.98"/>
<text text-anchor="middle" x="234.57" y="-994.98" font-family="Helvetica,sans-Serif" font-size="10.00">container&#45;dependency&#45;check</text>
<text text-anchor="middle" x="234.57" y="-983.98" font-family="Helvetica,sans-Serif" font-size="10.00">(493 tok)</text>
</g>
<!-- skill_co_project&#45;&gt;cmd_container_dependency_check -->
<g id="edge4" class="edge">
<title>skill_co_project&#45;&gt;cmd_container_dependency_check</title>
<path fill="none" stroke="black" d="M54.16,-607.34C55.66,-670.06 68.38,-856.01 164.07,-962.98 165.59,-964.69 167.23,-966.29 168.96,-967.8"/>
<polygon fill="black" stroke="black" points="166.97,-970.69 177.07,-973.87 171.16,-965.08 166.97,-970.69"/>
</g>
<!-- cmd_setup_crg -->
<g id="node6" class="node">
<title>cmd_setup_crg</title>
<polygon fill="#e3f2fd" stroke="black" points="263.07,-951.98 206.07,-951.98 206.07,-915.98 263.07,-915.98 263.07,-951.98"/>
<text text-anchor="middle" x="234.57" y="-936.98" font-family="Helvetica,sans-Serif" font-size="10.00">setup&#45;crg</text>
<text text-anchor="middle" x="234.57" y="-925.98" font-family="Helvetica,sans-Serif" font-size="10.00">(754 tok)</text>
</g>
<!-- skill_co_project&#45;&gt;cmd_setup_crg -->
<g id="edge5" class="edge">
<title>skill_co_project&#45;&gt;cmd_setup_crg</title>
<path fill="none" stroke="black" d="M55.5,-607.26C60.45,-663.31 81.27,-816.78 164.07,-904.98 172.73,-914.22 184.8,-920.62 196.44,-925"/>
<polygon fill="black" stroke="black" points="195.44,-928.36 206.04,-928.23 197.68,-921.73 195.44,-928.36"/>
</g>
<!-- cmd_snapshot_analyze -->
<g id="node7" class="node">
<title>cmd_snapshot_analyze</title>
<polygon fill="#e3f2fd" stroke="black" points="281.07,-893.98 188.07,-893.98 188.07,-857.98 281.07,-857.98 281.07,-893.98"/>
<text text-anchor="middle" x="234.57" y="-878.98" font-family="Helvetica,sans-Serif" font-size="10.00">snapshot&#45;analyze</text>
<text text-anchor="middle" x="234.57" y="-867.98" font-family="Helvetica,sans-Serif" font-size="10.00">(600 tok)</text>
</g>
<!-- skill_co_project&#45;&gt;cmd_snapshot_analyze -->
<g id="edge6" class="edge">
<title>skill_co_project&#45;&gt;cmd_snapshot_analyze</title>
<path fill="none" stroke="black" d="M57.39,-607.29C66.15,-656.11 94.05,-777.22 164.07,-846.98 168.34,-851.24 173.33,-854.9 178.64,-858.05"/>
<polygon fill="black" stroke="black" points="177.32,-861.31 187.8,-862.87 180.58,-855.12 177.32,-861.31"/>
</g>
<!-- cmd_snapshot_classify -->
<g id="node8" class="node">
<title>cmd_snapshot_classify</title>
<polygon fill="#e3f2fd" stroke="black" points="281.07,-835.98 188.07,-835.98 188.07,-799.98 281.07,-799.98 281.07,-835.98"/>
<text text-anchor="middle" x="234.57" y="-820.98" font-family="Helvetica,sans-Serif" font-size="10.00">snapshot&#45;classify</text>
<text text-anchor="middle" x="234.57" y="-809.98" font-family="Helvetica,sans-Serif" font-size="10.00">(870 tok)</text>
</g>
<!-- skill_co_project&#45;&gt;cmd_snapshot_classify -->
<g id="edge7" class="edge">
<title>skill_co_project&#45;&gt;cmd_snapshot_classify</title>
<path fill="none" stroke="black" d="M60.21,-607.08C73.1,-647.61 106.51,-736.98 164.07,-788.98 168.48,-792.97 173.52,-796.46 178.82,-799.49"/>
<polygon fill="black" stroke="black" points="177.44,-802.72 187.93,-804.19 180.64,-796.49 177.44,-802.72"/>
</g>
<!-- cmd_snapshot_generate -->
<g id="node9" class="node">
<title>cmd_snapshot_generate</title>
<polygon fill="#e3f2fd" stroke="black" points="283.07,-777.98 186.07,-777.98 186.07,-741.98 283.07,-741.98 283.07,-777.98"/>
<text text-anchor="middle" x="234.57" y="-762.98" font-family="Helvetica,sans-Serif" font-size="10.00">snapshot&#45;generate</text>
<text text-anchor="middle" x="234.57" y="-751.98" font-family="Helvetica,sans-Serif" font-size="10.00">(735 tok)</text>
</g>
<!-- skill_co_project&#45;&gt;cmd_snapshot_generate -->
<g id="edge8" class="edge">
<title>skill_co_project&#45;&gt;cmd_snapshot_generate</title>
<path fill="none" stroke="black" d="M65.04,-606.76C82.35,-637.67 118.7,-695.89 164.07,-730.98 167.93,-733.98 172.16,-736.71 176.54,-739.21"/>
<polygon fill="black" stroke="black" points="175.24,-742.47 185.73,-743.98 178.47,-736.26 175.24,-742.47"/>
</g>
<!-- cmd_plugin_interview -->
<g id="node10" class="node">
<title>cmd_plugin_interview</title>
<polygon fill="#e3f2fd" stroke="black" points="276.57,-719.98 192.57,-719.98 192.57,-683.98 276.57,-683.98 276.57,-719.98"/>
<text text-anchor="middle" x="234.57" y="-704.98" font-family="Helvetica,sans-Serif" font-size="10.00">plugin&#45;interview</text>
<text text-anchor="middle" x="234.57" y="-693.98" font-family="Helvetica,sans-Serif" font-size="10.00">(1,086 tok)</text>
</g>
<!-- skill_co_project&#45;&gt;cmd_plugin_interview -->
<g id="edge9" class="edge">
<title>skill_co_project&#45;&gt;cmd_plugin_interview</title>
<path fill="none" stroke="black" d="M75.08,-605.53C96.33,-624.53 130.7,-653.34 164.07,-672.98 169.97,-676.46 176.37,-679.73 182.81,-682.73"/>
<polygon fill="black" stroke="black" points="181.68,-686.05 192.24,-686.92 184.52,-679.66 181.68,-686.05"/>
</g>
<!-- cmd_plugin_research -->
<g id="node11" class="node">
<title>cmd_plugin_research</title>
<polygon fill="#e3f2fd" stroke="black" points="276.07,-661.98 193.07,-661.98 193.07,-625.98 276.07,-625.98 276.07,-661.98"/>
<text text-anchor="middle" x="234.57" y="-646.98" font-family="Helvetica,sans-Serif" font-size="10.00">plugin&#45;research</text>
<text text-anchor="middle" x="234.57" y="-635.98" font-family="Helvetica,sans-Serif" font-size="10.00">(655 tok)</text>
</g>
<!-- skill_co_project&#45;&gt;cmd_plugin_research -->
<g id="edge10" class="edge">
<title>skill_co_project&#45;&gt;cmd_plugin_research</title>
<path fill="none" stroke="black" d="M94.77,-599.14C121.05,-607.64 155.43,-618.74 183.39,-627.77"/>
<polygon fill="black" stroke="black" points="182.4,-631.13 192.99,-630.87 184.55,-624.47 182.4,-631.13"/>
</g>
<!-- cmd_plugin_design -->
<g id="node12" class="node">
<title>cmd_plugin_design</title>
<polygon fill="#e3f2fd" stroke="black" points="271.57,-603.98 197.57,-603.98 197.57,-567.98 271.57,-567.98 271.57,-603.98"/>
<text text-anchor="middle" x="234.57" y="-588.98" font-family="Helvetica,sans-Serif" font-size="10.00">plugin&#45;design</text>
<text text-anchor="middle" x="234.57" y="-577.98" font-family="Helvetica,sans-Serif" font-size="10.00">(1,192 tok)</text>
</g>
<!-- skill_co_project&#45;&gt;cmd_plugin_design -->
<g id="edge11" class="edge">
<title>skill_co_project&#45;&gt;cmd_plugin_design</title>
<path fill="none" stroke="black" d="M106.44,-585.98C131.98,-585.98 162.43,-585.98 187.12,-585.98"/>
<polygon fill="black" stroke="black" points="187.32,-589.48 197.32,-585.98 187.32,-582.48 187.32,-589.48"/>
</g>
<!-- cmd_plugin_generate -->
<g id="node13" class="node">
<title>cmd_plugin_generate</title>
<polygon fill="#e3f2fd" stroke="black" points="276.07,-545.98 193.07,-545.98 193.07,-509.98 276.07,-509.98 276.07,-545.98"/>
<text text-anchor="middle" x="234.57" y="-530.98" font-family="Helvetica,sans-Serif" font-size="10.00">plugin&#45;generate</text>
<text text-anchor="middle" x="234.57" y="-519.98" font-family="Helvetica,sans-Serif" font-size="10.00">(2,082 tok)</text>
</g>
<!-- skill_co_project&#45;&gt;cmd_plugin_generate -->
<g id="edge12" class="edge">
<title>skill_co_project&#45;&gt;cmd_plugin_generate</title>
<path fill="none" stroke="black" d="M94.77,-572.82C121.05,-564.33 155.43,-553.23 183.39,-544.19"/>
<polygon fill="black" stroke="black" points="184.55,-547.5 192.99,-541.09 182.4,-540.84 184.55,-547.5"/>
</g>
<!-- cmd_plugin_migrate_analyze -->
<g id="node14" class="node">
<title>cmd_plugin_migrate_analyze</title>
<polygon fill="#e3f2fd" stroke="black" points="291.57,-487.98 177.57,-487.98 177.57,-451.98 291.57,-451.98 291.57,-487.98"/>
<text text-anchor="middle" x="234.57" y="-472.98" font-family="Helvetica,sans-Serif" font-size="10.00">plugin&#45;migrate&#45;analyze</text>
<text text-anchor="middle" x="234.57" y="-461.98" font-family="Helvetica,sans-Serif" font-size="10.00">(458 tok)</text>
</g>
<!-- skill_co_project&#45;&gt;cmd_plugin_migrate_analyze -->
<g id="edge13" class="edge">
<title>skill_co_project&#45;&gt;cmd_plugin_migrate_analyze</title>
<path fill="none" stroke="black" d="M75.08,-566.44C96.33,-547.43 130.7,-518.63 164.07,-498.98 167.91,-496.72 171.96,-494.55 176.1,-492.48"/>
<polygon fill="black" stroke="black" points="177.72,-495.58 185.25,-488.12 174.71,-489.26 177.72,-495.58"/>
</g>
<!-- cmd_plugin_diagnose -->
<g id="node15" class="node">
<title>cmd_plugin_diagnose</title>
<polygon fill="#e3f2fd" stroke="black" points="276.57,-429.98 192.57,-429.98 192.57,-393.98 276.57,-393.98 276.57,-429.98"/>
<text text-anchor="middle" x="234.57" y="-414.98" font-family="Helvetica,sans-Serif" font-size="10.00">plugin&#45;diagnose</text>
<text text-anchor="middle" x="234.57" y="-403.98" font-family="Helvetica,sans-Serif" font-size="10.00">(944 tok)</text>
</g>
<!-- skill_co_project&#45;&gt;cmd_plugin_diagnose -->
<g id="edge14" class="edge">
<title>skill_co_project&#45;&gt;cmd_plugin_diagnose</title>
<path fill="none" stroke="black" d="M65.04,-565.21C82.35,-534.3 118.7,-476.08 164.07,-440.98 169.82,-436.53 176.37,-432.64 183.08,-429.28"/>
<polygon fill="black" stroke="black" points="184.67,-432.4 192.28,-425.03 181.73,-426.05 184.67,-432.4"/>
</g>
<!-- cmd_plugin_fix -->
<g id="node16" class="node">
<title>cmd_plugin_fix</title>
<polygon fill="#e3f2fd" stroke="black" points="266.07,-371.98 203.07,-371.98 203.07,-335.98 266.07,-335.98 266.07,-371.98"/>
<text text-anchor="middle" x="234.57" y="-356.98" font-family="Helvetica,sans-Serif" font-size="10.00">plugin&#45;fix</text>
<text text-anchor="middle" x="234.57" y="-345.98" font-family="Helvetica,sans-Serif" font-size="10.00">(1,074 tok)</text>
</g>
<!-- skill_co_project&#45;&gt;cmd_plugin_fix -->
<g id="edge15" class="edge">
<title>skill_co_project&#45;&gt;cmd_plugin_fix</title>
<path fill="none" stroke="black" d="M60.21,-564.89C73.1,-524.35 106.51,-434.98 164.07,-382.98 172.46,-375.4 183.12,-369.63 193.55,-365.32"/>
<polygon fill="black" stroke="black" points="194.88,-368.56 203,-361.75 192.41,-362.01 194.88,-368.56"/>
</g>
<!-- cmd_plugin_verify -->
<g id="node17" class="node">
<title>cmd_plugin_verify</title>
<polygon fill="#e3f2fd" stroke="black" points="269.07,-313.98 200.07,-313.98 200.07,-277.98 269.07,-277.98 269.07,-313.98"/>
<text text-anchor="middle" x="234.57" y="-298.98" font-family="Helvetica,sans-Serif" font-size="10.00">plugin&#45;verify</text>
<text text-anchor="middle" x="234.57" y="-287.98" font-family="Helvetica,sans-Serif" font-size="10.00">(518 tok)</text>
</g>
<!-- skill_co_project&#45;&gt;cmd_plugin_verify -->
<g id="edge16" class="edge">
<title>skill_co_project&#45;&gt;cmd_plugin_verify</title>
<path fill="none" stroke="black" d="M57.39,-564.68C66.15,-515.86 94.05,-394.75 164.07,-324.98 171.43,-317.65 180.92,-312.07 190.51,-307.87"/>
<polygon fill="black" stroke="black" points="192.03,-311.03 200.06,-304.11 189.47,-304.52 192.03,-311.03"/>
</g>
<!-- cmd_plugin_phase_diagnose -->
<g id="node18" class="node">
<title>cmd_plugin_phase_diagnose</title>
<polygon fill="#bbdefb" stroke="black" points="291.07,-255.98 178.07,-255.98 178.07,-219.98 291.07,-219.98 291.07,-255.98"/>
<text text-anchor="middle" x="234.57" y="-240.98" font-family="Helvetica,sans-Serif" font-size="10.00">plugin&#45;phase&#45;diagnose</text>
<text text-anchor="middle" x="234.57" y="-229.98" font-family="Helvetica,sans-Serif" font-size="10.00">(631 tok)</text>
</g>
<!-- skill_co_project&#45;&gt;cmd_plugin_phase_diagnose -->
<g id="edge17" class="edge">
<title>skill_co_project&#45;&gt;cmd_plugin_phase_diagnose</title>
<path fill="none" stroke="black" d="M55.5,-564.71C60.45,-508.66 81.27,-355.18 164.07,-266.98 165.83,-265.11 167.73,-263.35 169.74,-261.7"/>
<polygon fill="black" stroke="black" points="171.83,-264.51 177.96,-255.87 167.78,-258.8 171.83,-264.51"/>
</g>
<!-- cmd_plugin_phase_verify -->
<g id="node19" class="node">
<title>cmd_plugin_phase_verify</title>
<polygon fill="#bbdefb" stroke="black" points="283.57,-197.98 185.57,-197.98 185.57,-161.98 283.57,-161.98 283.57,-197.98"/>
<text text-anchor="middle" x="234.57" y="-182.98" font-family="Helvetica,sans-Serif" font-size="10.00">plugin&#45;phase&#45;verify</text>
<text text-anchor="middle" x="234.57" y="-171.98" font-family="Helvetica,sans-Serif" font-size="10.00">(634 tok)</text>
</g>
<!-- skill_co_project&#45;&gt;cmd_plugin_phase_verify -->
<g id="edge18" class="edge">
<title>skill_co_project&#45;&gt;cmd_plugin_phase_verify</title>
<path fill="none" stroke="black" d="M54.16,-564.63C55.66,-501.91 68.38,-315.96 164.07,-208.98 167.72,-204.9 172.03,-201.38 176.7,-198.34"/>
<polygon fill="black" stroke="black" points="178.45,-201.38 185.4,-193.39 174.98,-195.29 178.45,-201.38"/>
</g>
<!-- skill_ref_types -->
<g id="node25" class="node">
<title>skill_ref_types</title>
<ellipse fill="none" stroke="black" cx="433.78" cy="-133.98" rx="47.19" ry="18"/>
<text text-anchor="middle" x="433.78" y="-131.48" font-family="Helvetica,sans-Serif" font-size="10.00">skill_ref_types</text>
</g>
<!-- skill_co_project&#45;&gt;skill_ref_types -->
<g id="edge19" class="edge">
<title>skill_co_project&#45;&gt;skill_ref_types</title>
<path fill="none" stroke="black" d="M56.15,-564.77C64.57,-485.08 98.45,-205.48 164.07,-150.98 225.93,-99.6 326.01,-109.6 384.99,-121.69"/>
<polygon fill="black" stroke="black" points="384.29,-125.12 394.8,-123.8 385.76,-118.28 384.29,-125.12"/>
</g>
<!-- skill_ref_practices -->
<g id="node26" class="node">
<title>skill_ref_practices</title>
<ellipse fill="none" stroke="black" cx="661.97" cy="-133.98" rx="55.85" ry="18"/>
<text text-anchor="middle" x="661.97" y="-131.48" font-family="Helvetica,sans-Serif" font-size="10.00">skill_ref_practices</text>
</g>
<!-- skill_co_project&#45;&gt;skill_ref_practices -->
<g id="edge20" class="edge">
<title>skill_co_project&#45;&gt;skill_ref_practices</title>
<path fill="none" stroke="black" d="M55.54,-564.6C62.04,-479.41 90.69,-166.02 164.07,-106.98 230.47,-53.56 489.66,-98.52 605.04,-121.95"/>
<polygon fill="black" stroke="black" points="604.59,-125.43 615.09,-124.01 605.99,-118.57 604.59,-125.43"/>
</g>
<!-- skill_ref_deps_format -->
<g id="node27" class="node">
<title>skill_ref_deps_format</title>
<ellipse fill="none" stroke="black" cx="884.21" cy="-133.98" rx="64.51" ry="18"/>
<text text-anchor="middle" x="884.21" y="-131.48" font-family="Helvetica,sans-Serif" font-size="10.00">skill_ref_deps_format</text>
</g>
<!-- skill_co_project&#45;&gt;skill_ref_deps_format -->
<g id="edge21" class="edge">
<title>skill_co_project&#45;&gt;skill_ref_deps_format</title>
<path fill="none" stroke="black" d="M55.21,-564.77C60.57,-476.5 85.97,-140 164.07,-76.98 369.52,88.8 724.21,-57.07 843.07,-113.77"/>
<polygon fill="black" stroke="black" points="841.67,-116.98 852.2,-118.17 844.71,-110.67 841.67,-116.98"/>
</g>
<!-- cmd_project_create&#45;&gt;cmd_project_governance -->
<!-- script_project_create -->
<g id="node23" class="node">
<title>script_project_create</title>
<polygon fill="#ff9800" stroke="black" points="495.88,-1165.98 464.83,-1190.47 402.72,-1190.47 371.67,-1165.98 402.72,-1141.49 464.83,-1141.49 495.88,-1165.98"/>
<text text-anchor="middle" x="433.78" y="-1168.98" font-family="Helvetica,sans-Serif" font-size="10.00">project&#45;create</text>
<text text-anchor="middle" x="433.78" y="-1157.98" font-family="Helvetica,sans-Serif" font-size="10.00">(4,935 tok)</text>
</g>
<!-- cmd_project_create&#45;&gt;script_project_create -->
<g id="edge22" class="edge">
<title>cmd_project_create&#45;&gt;script_project_create</title>
<path fill="none" stroke="black" d="M272.66,-1165.98C297.62,-1165.98 331.34,-1165.98 361.39,-1165.98"/>
<polygon fill="black" stroke="black" points="361.43,-1169.48 371.43,-1165.98 361.43,-1162.48 361.43,-1169.48"/>
</g>
<!-- cmd_project_governance&#45;&gt;cmd_project_migrate -->
<!-- cmd_project_migrate&#45;&gt;cmd_container_dependency_check -->
<!-- script_project_migrate -->
<g id="node24" class="node">
<title>script_project_migrate</title>
<polygon fill="#ff9800" stroke="black" points="500.05,-1049.98 466.91,-1074.47 400.64,-1074.47 367.5,-1049.98 400.64,-1025.49 466.91,-1025.49 500.05,-1049.98"/>
<text text-anchor="middle" x="433.78" y="-1052.98" font-family="Helvetica,sans-Serif" font-size="10.00">project&#45;migrate</text>
<text text-anchor="middle" x="433.78" y="-1041.98" font-family="Helvetica,sans-Serif" font-size="10.00">(2,333 tok)</text>
</g>
<!-- cmd_project_migrate&#45;&gt;script_project_migrate -->
<g id="edge23" class="edge">
<title>cmd_project_migrate&#45;&gt;script_project_migrate</title>
<path fill="none" stroke="black" d="M275.47,-1049.98C298.93,-1049.98 329.35,-1049.98 357.19,-1049.98"/>
<polygon fill="black" stroke="black" points="357.31,-1053.48 367.31,-1049.98 357.31,-1046.48 357.31,-1053.48"/>
</g>
<!-- cmd_container_dependency_check&#45;&gt;cmd_setup_crg -->
<!-- cmd_setup_crg&#45;&gt;cmd_snapshot_analyze -->
<!-- cmd_snapshot_analyze&#45;&gt;cmd_snapshot_classify -->
<!-- cmd_snapshot_classify&#45;&gt;cmd_snapshot_generate -->
<!-- cmd_snapshot_generate&#45;&gt;cmd_plugin_interview -->
<!-- cmd_plugin_interview&#45;&gt;cmd_plugin_research -->
<!-- cmd_plugin_research&#45;&gt;cmd_plugin_design -->
<!-- cmd_plugin_design&#45;&gt;cmd_plugin_generate -->
<!-- cmd_plugin_generate&#45;&gt;cmd_plugin_migrate_analyze -->
<!-- cmd_plugin_migrate_analyze&#45;&gt;cmd_plugin_diagnose -->
<!-- cmd_plugin_diagnose&#45;&gt;cmd_plugin_fix -->
<!-- cmd_plugin_fix&#45;&gt;cmd_plugin_verify -->
<!-- cmd_plugin_verify&#45;&gt;cmd_plugin_phase_diagnose -->
<!-- cmd_plugin_phase_diagnose&#45;&gt;cmd_plugin_phase_verify -->
<!-- agent_worker_structure -->
<g id="node20" class="node">
<title>agent_worker_structure</title>
<ellipse fill="#ede7f6" stroke="black" cx="433.78" cy="-414.98" rx="61.54" ry="21.43"/>
<text text-anchor="middle" x="433.78" y="-417.98" font-family="Helvetica,sans-Serif" font-size="10.00">worker&#45;structure</text>
<text text-anchor="middle" x="433.78" y="-406.98" font-family="Helvetica,sans-Serif" font-size="10.00">(1,244 tok)</text>
</g>
<!-- cmd_plugin_phase_diagnose&#45;&gt;agent_worker_structure -->
<g id="edge24" class="edge">
<title>cmd_plugin_phase_diagnose&#45;&gt;agent_worker_structure</title>
<path fill="none" stroke="black" stroke-dasharray="5,2" d="M289.92,-256.02C295.39,-259.16 300.57,-262.79 305.07,-266.98 347.19,-306.33 321.63,-342.91 363.07,-382.98 368.02,-387.77 373.82,-391.93 379.91,-395.52"/>
<polygon fill="black" stroke="black" points="378.53,-398.75 389,-400.38 381.83,-392.58 378.53,-398.75"/>
</g>
<!-- agent_worker_principles -->
<g id="node21" class="node">
<title>agent_worker_principles</title>
<ellipse fill="#ede7f6" stroke="black" cx="433.78" cy="-350.98" rx="63.78" ry="21.43"/>
<text text-anchor="middle" x="433.78" y="-353.98" font-family="Helvetica,sans-Serif" font-size="10.00">worker&#45;principles</text>
<text text-anchor="middle" x="433.78" y="-342.98" font-family="Helvetica,sans-Serif" font-size="10.00">(1,154 tok)</text>
</g>
<!-- cmd_plugin_phase_diagnose&#45;&gt;agent_worker_principles -->
<g id="edge25" class="edge">
<title>cmd_plugin_phase_diagnose&#45;&gt;agent_worker_principles</title>
<path fill="none" stroke="black" stroke-dasharray="5,2" d="M284.84,-256.1C291.82,-259.36 298.76,-263.01 305.07,-266.98 334.34,-285.46 334.12,-299.99 363.07,-318.98 369.27,-323.05 376.07,-326.86 382.92,-330.34"/>
<polygon fill="black" stroke="black" points="381.71,-333.64 392.23,-334.86 384.76,-327.35 381.71,-333.64"/>
</g>
<!-- agent_worker_architecture -->
<g id="node22" class="node">
<title>agent_worker_architecture</title>
<ellipse fill="#ede7f6" stroke="black" cx="433.78" cy="-286.98" rx="70.92" ry="21.43"/>
<text text-anchor="middle" x="433.78" y="-289.98" font-family="Helvetica,sans-Serif" font-size="10.00">worker&#45;architecture</text>
<text text-anchor="middle" x="433.78" y="-278.98" font-family="Helvetica,sans-Serif" font-size="10.00">(2,186 tok)</text>
</g>
<!-- cmd_plugin_phase_diagnose&#45;&gt;agent_worker_architecture -->
<g id="edge26" class="edge">
<title>cmd_plugin_phase_diagnose&#45;&gt;agent_worker_architecture</title>
<path fill="none" stroke="black" stroke-dasharray="5,2" d="M291.29,-251.83C315.52,-257.85 344.05,-264.94 369.11,-271.16"/>
<polygon fill="black" stroke="black" points="368.34,-274.58 378.89,-273.6 370.03,-267.79 368.34,-274.58"/>
</g>
<!-- skill_ref_specialist_output_schema -->
<g id="node28" class="node">
<title>skill_ref_specialist_output_schema</title>
<ellipse fill="none" stroke="black" cx="661.97" cy="-286.98" rx="99.47" ry="18"/>
<text text-anchor="middle" x="661.97" y="-284.48" font-family="Helvetica,sans-Serif" font-size="10.00">skill_ref_specialist_output_schema</text>
</g>
<!-- cmd_plugin_phase_diagnose&#45;&gt;skill_ref_specialist_output_schema -->
<g id="edge27" class="edge">
<title>cmd_plugin_phase_diagnose&#45;&gt;skill_ref_specialist_output_schema</title>
<path fill="none" stroke="black" d="M291.26,-255.78C296.35,-258.95 301.08,-262.65 305.07,-266.98 361.96,-328.85 295.13,-397.5 363.07,-446.98 413.87,-483.99 446.55,-471.36 504.49,-446.98 569.14,-419.78 620.43,-351.38 645.05,-313.41"/>
<polygon fill="black" stroke="black" points="648.04,-315.22 650.45,-304.9 642.13,-311.47 648.04,-315.22"/>
</g>
<!-- skill_ref_architecture -->
<g id="node29" class="node">
<title>skill_ref_architecture</title>
<ellipse fill="none" stroke="black" cx="884.21" cy="-286.98" rx="62.97" ry="18"/>
<text text-anchor="middle" x="884.21" y="-284.48" font-family="Helvetica,sans-Serif" font-size="10.00">skill_ref_architecture</text>
</g>
<!-- cmd_plugin_phase_diagnose&#45;&gt;skill_ref_architecture -->
<g id="edge28" class="edge">
<title>cmd_plugin_phase_diagnose&#45;&gt;skill_ref_architecture</title>
<path fill="none" stroke="black" d="M291.1,-255.41C296.29,-258.65 301.08,-262.48 305.07,-266.98 368.62,-338.9 286.63,-416.95 363.07,-474.98 526.09,-598.77 778.29,-386.03 858.1,-311.39"/>
<polygon fill="black" stroke="black" points="860.84,-313.62 865.7,-304.21 856.03,-308.54 860.84,-313.62"/>
</g>
<!-- cmd_plugin_phase_verify&#45;&gt;agent_worker_structure -->
<g id="edge29" class="edge">
<title>cmd_plugin_phase_verify&#45;&gt;agent_worker_structure</title>
<path fill="none" stroke="black" stroke-dasharray="5,2" d="M283.88,-193.75C291.73,-197.67 299.19,-202.66 305.07,-208.98 360.55,-268.7 308.64,-322.3 363.07,-382.98 367.55,-387.98 372.96,-392.25 378.78,-395.88"/>
<polygon fill="black" stroke="black" points="377.07,-398.94 387.51,-400.76 380.49,-392.83 377.07,-398.94"/>
</g>
<!-- cmd_plugin_phase_verify&#45;&gt;agent_worker_principles -->
<g id="edge30" class="edge">
<title>cmd_plugin_phase_verify&#45;&gt;agent_worker_principles</title>
<path fill="none" stroke="black" stroke-dasharray="5,2" d="M283.78,-194.93C291.46,-198.7 298.89,-203.34 305.07,-208.98 345.86,-246.27 322.93,-280.99 363.07,-318.98 367.94,-323.6 373.6,-327.63 379.54,-331.14"/>
<polygon fill="black" stroke="black" points="377.92,-334.25 388.39,-335.91 381.24,-328.09 377.92,-334.25"/>
</g>
<!-- cmd_plugin_phase_verify&#45;&gt;agent_worker_architecture -->
<g id="edge31" class="edge">
<title>cmd_plugin_phase_verify&#45;&gt;agent_worker_architecture</title>
<path fill="none" stroke="black" stroke-dasharray="5,2" d="M282.55,-198.01C290.2,-201.4 297.95,-205.1 305.07,-208.98 332.55,-223.98 336.39,-232.58 363.07,-248.98 371.26,-254.02 380.16,-259.14 388.78,-263.91"/>
<polygon fill="black" stroke="black" points="387.17,-267.02 397.62,-268.75 390.53,-260.88 387.17,-267.02"/>
</g>
<!-- cmd_plugin_phase_verify&#45;&gt;skill_ref_types -->
<!-- cmd_plugin_phase_verify&#45;&gt;skill_ref_specialist_output_schema -->
<g id="edge32" class="edge">
<title>cmd_plugin_phase_verify&#45;&gt;skill_ref_specialist_output_schema</title>
<path fill="none" stroke="black" d="M283.95,-192.15C359.86,-211.25 507.15,-248.29 593.45,-270"/>
<polygon fill="black" stroke="black" points="592.6,-273.4 603.15,-272.44 594.31,-266.61 592.6,-273.4"/>
</g>
<!-- cmd_plugin_phase_verify&#45;&gt;skill_ref_architecture -->
<g id="edge33" class="edge">
<title>cmd_plugin_phase_verify&#45;&gt;skill_ref_architecture</title>
<path fill="none" stroke="black" d="M283.67,-182.57C376.94,-188.33 588.4,-205.1 761.46,-245.98 786.7,-251.95 814.13,-260.95 836.56,-269.01"/>
<polygon fill="black" stroke="black" points="835.57,-272.37 846.16,-272.51 837.96,-265.79 835.57,-272.37"/>
</g>
<!-- agent_worker_structure&#45;&gt;agent_worker_principles -->
<!-- agent_worker_structure&#45;&gt;agent_worker_principles -->
<!-- agent_worker_structure&#45;&gt;agent_worker_principles -->
<!-- agent_worker_structure&#45;&gt;agent_worker_principles -->
<!-- agent_worker_structure&#45;&gt;skill_ref_specialist_output_schema -->
<g id="edge34" class="edge">
<title>agent_worker_structure&#45;&gt;skill_ref_specialist_output_schema</title>
<path fill="none" stroke="black" stroke-dasharray="1,5" d="M472.81,-398.53C483.2,-393.76 494.38,-388.38 504.49,-382.98 547.35,-360.1 594.66,-330.43 625.92,-310.17"/>
<polygon fill="black" stroke="black" points="628.21,-312.85 634.68,-304.46 624.39,-306.98 628.21,-312.85"/>
</g>
<!-- agent_worker_principles&#45;&gt;agent_worker_architecture -->
<!-- agent_worker_principles&#45;&gt;agent_worker_architecture -->
<!-- agent_worker_principles&#45;&gt;skill_ref_specialist_output_schema -->
<g id="edge35" class="edge">
<title>agent_worker_principles&#45;&gt;skill_ref_specialist_output_schema</title>
<path fill="none" stroke="black" stroke-dasharray="1,5" d="M482.75,-337.41C516.17,-327.95 561.12,-315.24 597.51,-304.94"/>
<polygon fill="black" stroke="black" points="598.86,-308.2 607.53,-302.1 596.95,-301.46 598.86,-308.2"/>
</g>
<!-- agent_worker_architecture&#45;&gt;skill_ref_specialist_output_schema -->
<g id="edge36" class="edge">
<title>agent_worker_architecture&#45;&gt;skill_ref_specialist_output_schema</title>
<path fill="none" stroke="black" stroke-dasharray="1,5" d="M469.62,-268.52C510.72,-260.42 578.87,-260.15 621.77,-267.71"/>
<polygon fill="black" stroke="black" points="621.35,-271.19 631.84,-269.74 622.73,-264.33 621.35,-271.19"/>
</g>
<!-- agent_worker_architecture&#45;&gt;skill_ref_specialist_output_schema -->
<!-- agent_worker_architecture&#45;&gt;skill_ref_specialist_output_schema -->
<!-- agent_worker_architecture&#45;&gt;skill_ref_specialist_output_schema -->
<!-- agent_worker_architecture&#45;&gt;skill_ref_architecture -->
<g id="edge37" class="edge">
<title>agent_worker_architecture&#45;&gt;skill_ref_architecture</title>
<path fill="none" stroke="black" stroke-dasharray="1,5" d="M485.9,-272.63C509.08,-266.83 536.96,-260.85 562.49,-257.98 650.37,-248.13 673.63,-247.67 761.46,-257.98 784.28,-260.66 809.02,-266.08 830.2,-271.51"/>
<polygon fill="black" stroke="black" points="829.42,-274.92 839.98,-274.08 831.2,-268.15 829.42,-274.92"/>
</g>
<!-- skill_ref_types&#45;&gt;skill_ref_practices -->
<!-- skill_ref_practices&#45;&gt;skill_ref_deps_format -->
<!-- skill_ref_specialist_output_schema&#45;&gt;skill_ref_architecture -->
<!-- skill_ref_specialist_output_schema&#45;&gt;skill_ref_architecture -->
</g>
</svg>
