<?xml version="1.0" encoding="UTF-8" standalone="no"?>
<!DOCTYPE svg PUBLIC "-//W3C//DTD SVG 1.1//EN"
 "http://www.w3.org/Graphics/SVG/1.1/DTD/svg11.dtd">
<!-- Generated by graphviz version 2.43.0 (0)
 -->
<!-- Title: Dependencies Pages: 1 -->
<svg width="2940pt" height="572pt"
 viewBox="0.00 0.00 2940.14 571.72" xmlns="http://www.w3.org/2000/svg" xmlns:xlink="http://www.w3.org/1999/xlink">
<g id="graph0" class="graph" transform="scale(1 1) rotate(0) translate(4 567.72)">
<title>Dependencies</title>
<polygon fill="white" stroke="transparent" points="-4,4 -4,-567.72 2936.14,-567.72 2936.14,4 -4,4"/>
<text text-anchor="middle" x="1466.07" y="-548.52" font-family="Helvetica,sans-Serif" font-size="14.00">co&#45;self&#45;improve</text>
<!-- skill_co_self_improve -->
<g id="node1" class="node">
<title>skill_co_self_improve</title>
<ellipse fill="#c8e6c9" stroke="black" cx="78.49" cy="-263.72" rx="78.48" ry="21.43"/>
<text text-anchor="middle" x="78.49" y="-266.72" font-family="Helvetica,sans-Serif" font-size="10.00">twl:co&#45;self&#45;improve</text>
<text text-anchor="middle" x="78.49" y="-255.72" font-family="Helvetica,sans-Serif" font-size="10.00">(1,171 tok)</text>
</g>
<!-- skill_workflow_observe_loop -->
<g id="node2" class="node">
<title>skill_workflow_observe_loop</title>
<ellipse fill="none" stroke="black" cx="307.4" cy="-522.72" rx="92.34" ry="18"/>
<text text-anchor="middle" x="307.4" y="-520.22" font-family="Helvetica,sans-Serif" font-size="10.00">skill_workflow_observe_loop</text>
</g>
<!-- skill_co_self_improve&#45;&gt;skill_workflow_observe_loop -->
<g id="edge1" class="edge">
<title>skill_co_self_improve&#45;&gt;skill_workflow_observe_loop</title>
<path fill="none" stroke="black" d="M86.94,-285.12C103.3,-329.12 146.45,-430.45 214.98,-487.72 222.98,-494.41 232.4,-499.91 242.1,-504.39"/>
<polygon fill="black" stroke="black" points="240.88,-507.68 251.45,-508.39 243.63,-501.24 240.88,-507.68"/>
</g>
<!-- cmd_test_project_init -->
<g id="node3" class="node">
<title>cmd_test_project_init</title>
<ellipse fill="none" stroke="black" cx="529.63" cy="-476.72" rx="71.63" ry="18"/>
<text text-anchor="middle" x="529.63" y="-474.22" font-family="Helvetica,sans-Serif" font-size="10.00">cmd_test_project_init</text>
</g>
<!-- skill_co_self_improve&#45;&gt;cmd_test_project_init -->
<g id="edge2" class="edge">
<title>skill_co_self_improve&#45;&gt;cmd_test_project_init</title>
<path fill="none" stroke="black" d="M88.64,-284.94C106.56,-323.64 150.28,-405.05 214.98,-441.72 288.2,-483.23 386.49,-487.52 453.39,-484.32"/>
<polygon fill="black" stroke="black" points="453.64,-487.81 463.44,-483.77 453.26,-480.82 453.64,-487.81"/>
</g>
<!-- cmd_test_project_reset -->
<g id="node4" class="node">
<title>cmd_test_project_reset</title>
<ellipse fill="none" stroke="black" cx="736.57" cy="-453.72" rx="77.23" ry="18"/>
<text text-anchor="middle" x="736.57" y="-451.22" font-family="Helvetica,sans-Serif" font-size="10.00">cmd_test_project_reset</text>
</g>
<!-- skill_co_self_improve&#45;&gt;cmd_test_project_reset -->
<g id="edge3" class="edge">
<title>skill_co_self_improve&#45;&gt;cmd_test_project_reset</title>
<path fill="none" stroke="black" d="M93.91,-284.78C116.01,-315.16 161.39,-370.39 214.98,-395.72 253.6,-413.98 516.05,-436.69 652.9,-447.47"/>
<polygon fill="black" stroke="black" points="652.69,-450.97 662.93,-448.26 653.23,-443.99 652.69,-450.97"/>
</g>
<!-- cmd_test_project_scenario_load -->
<g id="node5" class="node">
<title>cmd_test_project_scenario_load</title>
<ellipse fill="none" stroke="black" cx="973.52" cy="-453.72" rx="101.68" ry="18"/>
<text text-anchor="middle" x="973.52" y="-451.22" font-family="Helvetica,sans-Serif" font-size="10.00">cmd_test_project_scenario_load</text>
</g>
<!-- skill_co_self_improve&#45;&gt;cmd_test_project_scenario_load -->
<g id="edge4" class="edge">
<title>skill_co_self_improve&#45;&gt;cmd_test_project_scenario_load</title>
<path fill="none" stroke="black" d="M103.7,-283.82C129.53,-304.07 172.5,-334.45 214.98,-349.72 341.16,-395.08 681.15,-404.34 813.68,-424.72 839.98,-428.77 868.6,-433.8 894.22,-438.53"/>
<polygon fill="black" stroke="black" points="893.78,-442.01 904.25,-440.39 895.06,-435.12 893.78,-442.01"/>
</g>
<!-- cmd_observe_once -->
<g id="node6" class="node">
<title>cmd_observe_once</title>
<ellipse fill="none" stroke="black" cx="1198.11" cy="-453.72" rx="64.51" ry="18"/>
<text text-anchor="middle" x="1198.11" y="-451.22" font-family="Helvetica,sans-Serif" font-size="10.00">cmd_observe_once</text>
</g>
<!-- skill_co_self_improve&#45;&gt;cmd_observe_once -->
<g id="edge5" class="edge">
<title>skill_co_self_improve&#45;&gt;cmd_observe_once</title>
<path fill="none" stroke="black" d="M127.52,-280.39C153.18,-288.66 185.47,-298.06 214.98,-303.72 352.47,-330.11 388.64,-332.72 528.63,-332.72 528.63,-332.72 528.63,-332.72 737.57,-332.72 895.33,-332.72 1073.82,-400.24 1154.04,-434.4"/>
<polygon fill="black" stroke="black" points="1152.76,-437.66 1163.33,-438.4 1155.52,-431.23 1152.76,-437.66"/>
</g>
<!-- cmd_problem_detect -->
<g id="node7" class="node">
<title>cmd_problem_detect</title>
<ellipse fill="none" stroke="black" cx="1390.92" cy="-453.72" rx="70.1" ry="18"/>
<text text-anchor="middle" x="1390.92" y="-451.22" font-family="Helvetica,sans-Serif" font-size="10.00">cmd_problem_detect</text>
</g>
<!-- skill_co_self_improve&#45;&gt;cmd_problem_detect -->
<g id="edge6" class="edge">
<title>skill_co_self_improve&#45;&gt;cmd_problem_detect</title>
<path fill="none" stroke="black" d="M153.74,-269.86C242.75,-276.67 396.49,-286.72 528.63,-286.72 528.63,-286.72 528.63,-286.72 974.52,-286.72 1127.39,-286.72 1290.54,-385.29 1357.95,-430.97"/>
<polygon fill="black" stroke="black" points="1356.22,-434.02 1366.45,-436.79 1360.18,-428.25 1356.22,-434.02"/>
</g>
<!-- cmd_issue_draft_from_observation -->
<g id="node8" class="node">
<title>cmd_issue_draft_from_observation</title>
<ellipse fill="none" stroke="black" cx="1629.63" cy="-453.72" rx="110.84" ry="18"/>
<text text-anchor="middle" x="1629.63" y="-451.22" font-family="Helvetica,sans-Serif" font-size="10.00">cmd_issue_draft_from_observation</text>
</g>
<!-- skill_co_self_improve&#45;&gt;cmd_issue_draft_from_observation -->
<g id="edge7" class="edge">
<title>skill_co_self_improve&#45;&gt;cmd_issue_draft_from_observation</title>
<path fill="none" stroke="black" d="M153.74,-257.59C242.75,-250.78 396.49,-240.72 528.63,-240.72 528.63,-240.72 528.63,-240.72 1199.11,-240.72 1367.14,-240.72 1537.25,-373.16 1601.68,-429.18"/>
<polygon fill="black" stroke="black" points="1599.54,-431.95 1609.36,-435.93 1604.16,-426.7 1599.54,-431.95"/>
</g>
<!-- cmd_observe_retrospective -->
<g id="node9" class="node">
<title>cmd_observe_retrospective</title>
<ellipse fill="none" stroke="black" cx="1887.78" cy="-453.72" rx="89.45" ry="18"/>
<text text-anchor="middle" x="1887.78" y="-451.22" font-family="Helvetica,sans-Serif" font-size="10.00">cmd_observe_retrospective</text>
</g>
<!-- skill_co_self_improve&#45;&gt;cmd_observe_retrospective -->
<g id="edge8" class="edge">
<title>skill_co_self_improve&#45;&gt;cmd_observe_retrospective</title>
<path fill="none" stroke="black" d="M136.49,-249.26C221.36,-229.02 386.24,-194.72 528.63,-194.72 528.63,-194.72 528.63,-194.72 1391.92,-194.72 1592.66,-194.72 1792.35,-364.1 1861.41,-428.91"/>
<polygon fill="black" stroke="black" points="1859.14,-431.58 1868.81,-435.92 1863.96,-426.5 1859.14,-431.58"/>
</g>
<!-- agent_observer_evaluator -->
<g id="node10" class="node">
<title>agent_observer_evaluator</title>
<ellipse fill="none" stroke="black" cx="2120.02" cy="-453.72" rx="84.54" ry="18"/>
<text text-anchor="middle" x="2120.02" y="-451.22" font-family="Helvetica,sans-Serif" font-size="10.00">agent_observer_evaluator</text>
</g>
<!-- skill_co_self_improve&#45;&gt;agent_observer_evaluator -->
<g id="edge9" class="edge">
<title>skill_co_self_improve&#45;&gt;agent_observer_evaluator</title>
<path fill="none" stroke="black" stroke-dasharray="5,2" d="M112.03,-244.43C138.79,-229.43 178.16,-209.28 214.98,-197.72 349.6,-155.47 387.54,-148.72 528.63,-148.72 528.63,-148.72 528.63,-148.72 1630.63,-148.72 1840.95,-148.72 2035.45,-354.73 2098.07,-428.13"/>
<polygon fill="black" stroke="black" points="2095.59,-430.62 2104.72,-436.01 2100.94,-426.11 2095.59,-430.62"/>
</g>
<!-- skill_test_scenario_catalog -->
<g id="node11" class="node">
<title>skill_test_scenario_catalog</title>
<ellipse fill="none" stroke="black" cx="2350.5" cy="-453.72" rx="87.92" ry="18"/>
<text text-anchor="middle" x="2350.5" y="-451.22" font-family="Helvetica,sans-Serif" font-size="10.00">skill_test_scenario_catalog</text>
</g>
<!-- skill_co_self_improve&#45;&gt;skill_test_scenario_catalog -->
<g id="edge10" class="edge">
<title>skill_co_self_improve&#45;&gt;skill_test_scenario_catalog</title>
<path fill="none" stroke="black" d="M97.23,-242.69C121.05,-216.02 166.06,-170.84 214.98,-148.72 343.36,-90.67 387.74,-102.72 528.63,-102.72 528.63,-102.72 528.63,-102.72 1888.78,-102.72 2102.76,-102.72 2279.35,-345.25 2332.85,-427.11"/>
<polygon fill="black" stroke="black" points="2330.12,-429.33 2338.48,-435.83 2336,-425.53 2330.12,-429.33"/>
</g>
<!-- skill_observation_pattern_catalog -->
<g id="node12" class="node">
<title>skill_observation_pattern_catalog</title>
<ellipse fill="none" stroke="black" cx="2603.35" cy="-453.72" rx="107.27" ry="18"/>
<text text-anchor="middle" x="2603.35" y="-451.22" font-family="Helvetica,sans-Serif" font-size="10.00">skill_observation_pattern_catalog</text>
</g>
<!-- skill_co_self_improve&#45;&gt;skill_observation_pattern_catalog -->
<g id="edge11" class="edge">
<title>skill_co_self_improve&#45;&gt;skill_observation_pattern_catalog</title>
<path fill="none" stroke="black" d="M89.8,-242.45C108.86,-205.71 153.33,-131.05 214.98,-96.72 337.76,-28.36 388.1,-56.72 528.63,-56.72 528.63,-56.72 528.63,-56.72 2121.02,-56.72 2354.32,-56.72 2535.76,-337.73 2587.46,-426.91"/>
<polygon fill="black" stroke="black" points="2584.45,-428.69 2592.46,-435.63 2590.53,-425.22 2584.45,-428.69"/>
</g>
<!-- skill_load_test_baselines -->
<g id="node13" class="node">
<title>skill_load_test_baselines</title>
<ellipse fill="none" stroke="black" cx="2850.31" cy="-453.72" rx="81.65" ry="18"/>
<text text-anchor="middle" x="2850.31" y="-451.22" font-family="Helvetica,sans-Serif" font-size="10.00">skill_load_test_baselines</text>
</g>
<!-- skill_co_self_improve&#45;&gt;skill_load_test_baselines -->
<g id="edge12" class="edge">
<title>skill_co_self_improve&#45;&gt;skill_load_test_baselines</title>
<path fill="none" stroke="black" d="M85.71,-242.47C100.12,-197.47 140.36,-92.81 214.98,-45.72 333.6,29.13 388.37,-10.72 528.63,-10.72 528.63,-10.72 528.63,-10.72 2351.5,-10.72 2603.16,-10.72 2786.57,-330.58 2836.01,-426.72"/>
<polygon fill="black" stroke="black" points="2832.98,-428.48 2840.63,-435.81 2839.22,-425.31 2832.98,-428.48"/>
</g>
<!-- skill_workflow_observe_loop&#45;&gt;cmd_test_project_init -->
<!-- cmd_test_project_init&#45;&gt;cmd_test_project_reset -->
<!-- cmd_test_project_reset&#45;&gt;cmd_test_project_scenario_load -->
<!-- cmd_test_project_scenario_load&#45;&gt;cmd_observe_once -->
<!-- cmd_observe_once&#45;&gt;cmd_problem_detect -->
<!-- cmd_problem_detect&#45;&gt;cmd_issue_draft_from_observation -->
<!-- cmd_issue_draft_from_observation&#45;&gt;cmd_observe_retrospective -->
<!-- cmd_observe_retrospective&#45;&gt;agent_observer_evaluator -->
<!-- agent_observer_evaluator&#45;&gt;skill_test_scenario_catalog -->
<!-- skill_test_scenario_catalog&#45;&gt;skill_observation_pattern_catalog -->
<!-- skill_observation_pattern_catalog&#45;&gt;skill_load_test_baselines -->
</g>
</svg>
