<?xml version="1.0" encoding="UTF-8" standalone="no"?>
<!DOCTYPE svg PUBLIC "-//W3C//DTD SVG 1.1//EN"
 "http://www.w3.org/Graphics/SVG/1.1/DTD/svg11.dtd">
<!-- Generated by graphviz version 2.43.0 (0)
 -->
<!-- Title: Dependencies Pages: 1 -->
<svg width="725pt" height="1484pt"
 viewBox="0.00 0.00 725.49 1483.86" xmlns="http://www.w3.org/2000/svg" xmlns:xlink="http://www.w3.org/1999/xlink">
<g id="graph0" class="graph" transform="scale(1 1) rotate(0) translate(4 1479.86)">
<title>Dependencies</title>
<polygon fill="white" stroke="transparent" points="-4,4 -4,-1479.86 721.49,-1479.86 721.49,4 -4,4"/>
<text text-anchor="middle" x="358.74" y="-1460.66" font-family="Helvetica,sans-Serif" font-size="14.00">co&#45;project</text>
<!-- skill_co_project -->
<g id="node1" class="node">
<title>skill_co_project</title>
<ellipse fill="#c8e6c9" stroke="black" cx="53.03" cy="-825.37" rx="53.07" ry="21.43"/>
<text text-anchor="middle" x="53.03" y="-828.37" font-family="Helvetica,sans-Serif" font-size="10.00">twl:co&#45;project</text>
<text text-anchor="middle" x="53.03" y="-817.37" font-family="Helvetica,sans-Serif" font-size="10.00">(1,395 tok)</text>
</g>
<!-- skill_ref_types -->
<g id="node3" class="node">
<title>skill_ref_types</title>
<polygon fill="#e1f5fe" stroke="black" points="669.49,-405.37 604.49,-405.37 604.49,-369.37 675.49,-369.37 675.49,-399.37 669.49,-405.37"/>
<polyline fill="none" stroke="black" points="669.49,-405.37 669.49,-399.37 "/>
<polyline fill="none" stroke="black" points="675.49,-399.37 669.49,-399.37 "/>
<text text-anchor="middle" x="639.99" y="-390.37" font-family="Helvetica,sans-Serif" font-size="10.00">twl:ref&#45;types</text>
<text text-anchor="middle" x="639.99" y="-379.37" font-family="Helvetica,sans-Serif" font-size="10.00">(2,168 tok)</text>
</g>
<!-- skill_co_project&#45;&gt;skill_ref_types -->
<g id="edge20" class="edge">
<title>skill_co_project&#45;&gt;skill_ref_types</title>
<path fill="none" stroke="black" d="M55.1,-846.81C60.06,-936.83 84.14,-1282.53 164.07,-1347.37 212.73,-1386.84 244.38,-1362.99 305.07,-1347.37 403.09,-1322.12 446.35,-1320.22 504.49,-1237.37 601,-1099.82 631.75,-547.8 637.79,-415.82"/>
<polygon fill="black" stroke="black" points="641.29,-415.84 638.24,-405.7 634.3,-415.53 641.29,-415.84"/>
</g>
<!-- skill_ref_practices -->
<g id="node4" class="node">
<title>skill_ref_practices</title>
<polygon fill="#e1f5fe" stroke="black" points="676.99,-106.37 596.99,-106.37 596.99,-70.37 682.99,-70.37 682.99,-100.37 676.99,-106.37"/>
<polyline fill="none" stroke="black" points="676.99,-106.37 676.99,-100.37 "/>
<polyline fill="none" stroke="black" points="682.99,-100.37 676.99,-100.37 "/>
<text text-anchor="middle" x="639.99" y="-91.37" font-family="Helvetica,sans-Serif" font-size="10.00">twl:ref&#45;practices</text>
<text text-anchor="middle" x="639.99" y="-80.37" font-family="Helvetica,sans-Serif" font-size="10.00">(6,372 tok)</text>
</g>
<!-- skill_co_project&#45;&gt;skill_ref_practices -->
<g id="edge21" class="edge">
<title>skill_co_project&#45;&gt;skill_ref_practices</title>
<path fill="none" stroke="black" d="M54.91,-804.06C58.64,-730.73 77.33,-483.38 164.07,-303.37 224.36,-178.23 237.41,-121.57 363.07,-62.37 435.28,-28.34 529.78,-49.34 587.35,-68.33"/>
<polygon fill="black" stroke="black" points="586.36,-71.69 596.96,-71.59 588.61,-65.06 586.36,-71.69"/>
</g>
<!-- skill_ref_deps_format -->
<g id="node5" class="node">
<title>skill_ref_deps_format</title>
<polygon fill="#e1f5fe" stroke="black" points="682.99,-48.37 590.99,-48.37 590.99,-12.37 688.99,-12.37 688.99,-42.37 682.99,-48.37"/>
<polyline fill="none" stroke="black" points="682.99,-48.37 682.99,-42.37 "/>
<polyline fill="none" stroke="black" points="688.99,-42.37 682.99,-42.37 "/>
<text text-anchor="middle" x="639.99" y="-33.37" font-family="Helvetica,sans-Serif" font-size="10.00">twl:ref&#45;deps&#45;format</text>
<text text-anchor="middle" x="639.99" y="-22.37" font-family="Helvetica,sans-Serif" font-size="10.00">(1,832 tok)</text>
</g>
<!-- skill_co_project&#45;&gt;skill_ref_deps_format -->
<g id="edge22" class="edge">
<title>skill_co_project&#45;&gt;skill_ref_deps_format</title>
<path fill="none" stroke="black" d="M54.17,-804.12C55.33,-695.13 65.98,-199.55 164.07,-90.37 269.31,26.79 478.96,3.38 580.79,-16.69"/>
<polygon fill="black" stroke="black" points="580.39,-20.18 590.89,-18.74 581.79,-13.32 580.39,-20.18"/>
</g>
<!-- cmd_project_create -->
<g id="node7" class="node">
<title>cmd_project_create</title>
<polygon fill="#e3f2fd" stroke="black" points="272.57,-1440.37 196.57,-1440.37 196.57,-1404.37 272.57,-1404.37 272.57,-1440.37"/>
<text text-anchor="middle" x="234.57" y="-1425.37" font-family="Helvetica,sans-Serif" font-size="10.00">project&#45;create</text>
<text text-anchor="middle" x="234.57" y="-1414.37" font-family="Helvetica,sans-Serif" font-size="10.00">(450 tok)</text>
</g>
<!-- skill_co_project&#45;&gt;cmd_project_create -->
<g id="edge1" class="edge">
<title>skill_co_project&#45;&gt;cmd_project_create</title>
<path fill="none" stroke="black" d="M55.71,-846.57C63.3,-938.14 97.08,-1299.04 164.07,-1387.37 170.13,-1395.36 178.52,-1401.66 187.38,-1406.58"/>
<polygon fill="black" stroke="black" points="185.82,-1409.71 196.33,-1411.04 188.94,-1403.45 185.82,-1409.71"/>
</g>
<!-- cmd_project_board_configure -->
<g id="node8" class="node">
<title>cmd_project_board_configure</title>
<polygon fill="#e3f2fd" stroke="black" points="292.57,-1278.37 176.57,-1278.37 176.57,-1242.37 292.57,-1242.37 292.57,-1278.37"/>
<text text-anchor="middle" x="234.57" y="-1263.37" font-family="Helvetica,sans-Serif" font-size="10.00">project&#45;board&#45;configure</text>
<text text-anchor="middle" x="234.57" y="-1252.37" font-family="Helvetica,sans-Serif" font-size="10.00">(1,167 tok)</text>
</g>
<!-- skill_co_project&#45;&gt;cmd_project_board_configure -->
<g id="edge3" class="edge">
<title>skill_co_project&#45;&gt;cmd_project_board_configure</title>
<path fill="none" stroke="black" d="M53.62,-846.91C53.51,-912.93 61.97,-1114.98 164.07,-1231.37 165.57,-1233.08 167.2,-1234.7 168.92,-1236.22"/>
<polygon fill="black" stroke="black" points="166.9,-1239.09 176.99,-1242.32 171.12,-1233.5 166.9,-1239.09"/>
</g>
<!-- cmd_project_governance -->
<g id="node9" class="node">
<title>cmd_project_governance</title>
<polygon fill="#e3f2fd" stroke="black" points="284.07,-1336.37 185.07,-1336.37 185.07,-1300.37 284.07,-1300.37 284.07,-1336.37"/>
<text text-anchor="middle" x="234.57" y="-1321.37" font-family="Helvetica,sans-Serif" font-size="10.00">project&#45;governance</text>
<text text-anchor="middle" x="234.57" y="-1310.37" font-family="Helvetica,sans-Serif" font-size="10.00">(974 tok)</text>
</g>
<!-- skill_co_project&#45;&gt;cmd_project_governance -->
<g id="edge2" class="edge">
<title>skill_co_project&#45;&gt;cmd_project_governance</title>
<path fill="none" stroke="black" d="M56.52,-846.75C66.4,-928.5 105.24,-1220.12 164.07,-1289.37 167.47,-1293.37 171.52,-1296.84 175.93,-1299.83"/>
<polygon fill="black" stroke="black" points="174.38,-1302.98 184.77,-1305.02 177.92,-1296.94 174.38,-1302.98"/>
</g>
<!-- cmd_project_migrate -->
<g id="node10" class="node">
<title>cmd_project_migrate</title>
<polygon fill="#e3f2fd" stroke="black" points="275.07,-1220.37 194.07,-1220.37 194.07,-1184.37 275.07,-1184.37 275.07,-1220.37"/>
<text text-anchor="middle" x="234.57" y="-1205.37" font-family="Helvetica,sans-Serif" font-size="10.00">project&#45;migrate</text>
<text text-anchor="middle" x="234.57" y="-1194.37" font-family="Helvetica,sans-Serif" font-size="10.00">(472 tok)</text>
</g>
<!-- skill_co_project&#45;&gt;cmd_project_migrate -->
<g id="edge4" class="edge">
<title>skill_co_project&#45;&gt;cmd_project_migrate</title>
<path fill="none" stroke="black" d="M54.78,-846.79C57.99,-906.35 74.9,-1075.88 164.07,-1173.37 169.65,-1179.47 176.72,-1184.33 184.2,-1188.18"/>
<polygon fill="black" stroke="black" points="183.26,-1191.6 193.81,-1192.55 186.16,-1185.23 183.26,-1191.6"/>
</g>
<!-- cmd_container_dependency_check -->
<g id="node11" class="node">
<title>cmd_container_dependency_check</title>
<polygon fill="#e3f2fd" stroke="black" points="305.07,-1162.37 164.07,-1162.37 164.07,-1126.37 305.07,-1126.37 305.07,-1162.37"/>
<text text-anchor="middle" x="234.57" y="-1147.37" font-family="Helvetica,sans-Serif" font-size="10.00">container&#45;dependency&#45;check</text>
<text text-anchor="middle" x="234.57" y="-1136.37" font-family="Helvetica,sans-Serif" font-size="10.00">(493 tok)</text>
</g>
<!-- skill_co_project&#45;&gt;cmd_container_dependency_check -->
<g id="edge5" class="edge">
<title>skill_co_project&#45;&gt;cmd_container_dependency_check</title>
<path fill="none" stroke="black" d="M56.35,-846.63C63.16,-899.14 87.67,-1036.43 164.07,-1115.37 165.86,-1117.21 167.78,-1118.95 169.81,-1120.58"/>
<polygon fill="black" stroke="black" points="167.89,-1123.51 178.09,-1126.35 171.89,-1117.76 167.89,-1123.51"/>
</g>
<!-- cmd_setup_crg -->
<g id="node12" class="node">
<title>cmd_setup_crg</title>
<polygon fill="#e3f2fd" stroke="black" points="263.07,-1104.37 206.07,-1104.37 206.07,-1068.37 263.07,-1068.37 263.07,-1104.37"/>
<text text-anchor="middle" x="234.57" y="-1089.37" font-family="Helvetica,sans-Serif" font-size="10.00">setup&#45;crg</text>
<text text-anchor="middle" x="234.57" y="-1078.37" font-family="Helvetica,sans-Serif" font-size="10.00">(754 tok)</text>
</g>
<!-- skill_co_project&#45;&gt;cmd_setup_crg -->
<g id="edge6" class="edge">
<title>skill_co_project&#45;&gt;cmd_setup_crg</title>
<path fill="none" stroke="black" d="M58.66,-846.65C69.45,-891.51 100.35,-996.61 164.07,-1057.37 172.99,-1065.88 184.78,-1072.06 196.11,-1076.46"/>
<polygon fill="black" stroke="black" points="195.27,-1079.88 205.86,-1079.89 197.59,-1073.27 195.27,-1079.88"/>
</g>
<!-- cmd_snapshot_analyze -->
<g id="node13" class="node">
<title>cmd_snapshot_analyze</title>
<polygon fill="#e3f2fd" stroke="black" points="281.07,-1046.37 188.07,-1046.37 188.07,-1010.37 281.07,-1010.37 281.07,-1046.37"/>
<text text-anchor="middle" x="234.57" y="-1031.37" font-family="Helvetica,sans-Serif" font-size="10.00">snapshot&#45;analyze</text>
<text text-anchor="middle" x="234.57" y="-1020.37" font-family="Helvetica,sans-Serif" font-size="10.00">(600 tok)</text>
</g>
<!-- skill_co_project&#45;&gt;cmd_snapshot_analyze -->
<g id="edge7" class="edge">
<title>skill_co_project&#45;&gt;cmd_snapshot_analyze</title>
<path fill="none" stroke="black" d="M62.33,-846.5C77.45,-882.5 112.72,-956.02 164.07,-999.37 168.55,-1003.15 173.59,-1006.49 178.86,-1009.44"/>
<polygon fill="black" stroke="black" points="177.39,-1012.62 187.89,-1014.03 180.56,-1006.38 177.39,-1012.62"/>
</g>
<!-- cmd_snapshot_classify -->
<g id="node14" class="node">
<title>cmd_snapshot_classify</title>
<polygon fill="#e3f2fd" stroke="black" points="281.07,-988.37 188.07,-988.37 188.07,-952.37 281.07,-952.37 281.07,-988.37"/>
<text text-anchor="middle" x="234.57" y="-973.37" font-family="Helvetica,sans-Serif" font-size="10.00">snapshot&#45;classify</text>
<text text-anchor="middle" x="234.57" y="-962.37" font-family="Helvetica,sans-Serif" font-size="10.00">(870 tok)</text>
</g>
<!-- skill_co_project&#45;&gt;cmd_snapshot_classify -->
<g id="edge8" class="edge">
<title>skill_co_project&#45;&gt;cmd_snapshot_classify</title>
<path fill="none" stroke="black" d="M69.1,-845.88C88.6,-871.22 124.76,-914.27 164.07,-941.37 168.64,-944.52 173.61,-947.42 178.72,-950.08"/>
<polygon fill="black" stroke="black" points="177.49,-953.37 188.01,-954.58 180.54,-947.07 177.49,-953.37"/>
</g>
<!-- cmd_snapshot_generate -->
<g id="node15" class="node">
<title>cmd_snapshot_generate</title>
<polygon fill="#e3f2fd" stroke="black" points="283.07,-930.37 186.07,-930.37 186.07,-894.37 283.07,-894.37 283.07,-930.37"/>
<text text-anchor="middle" x="234.57" y="-915.37" font-family="Helvetica,sans-Serif" font-size="10.00">snapshot&#45;generate</text>
<text text-anchor="middle" x="234.57" y="-904.37" font-family="Helvetica,sans-Serif" font-size="10.00">(735 tok)</text>
</g>
<!-- skill_co_project&#45;&gt;cmd_snapshot_generate -->
<g id="edge9" class="edge">
<title>skill_co_project&#45;&gt;cmd_snapshot_generate</title>
<path fill="none" stroke="black" d="M84.96,-842.62C106.81,-854.57 136.91,-870.57 164.07,-883.37 168.94,-885.66 174.06,-887.97 179.2,-890.23"/>
<polygon fill="black" stroke="black" points="177.87,-893.47 188.44,-894.23 180.65,-887.05 177.87,-893.47"/>
</g>
<!-- cmd_plugin_interview -->
<g id="node16" class="node">
<title>cmd_plugin_interview</title>
<polygon fill="#e3f2fd" stroke="black" points="276.57,-872.37 192.57,-872.37 192.57,-836.37 276.57,-836.37 276.57,-872.37"/>
<text text-anchor="middle" x="234.57" y="-857.37" font-family="Helvetica,sans-Serif" font-size="10.00">plugin&#45;interview</text>
<text text-anchor="middle" x="234.57" y="-846.37" font-family="Helvetica,sans-Serif" font-size="10.00">(1,086 tok)</text>
</g>
<!-- skill_co_project&#45;&gt;cmd_plugin_interview -->
<g id="edge10" class="edge">
<title>skill_co_project&#45;&gt;cmd_plugin_interview</title>
<path fill="none" stroke="black" d="M102.62,-833.21C127.35,-837.21 157.41,-842.06 182.49,-846.12"/>
<polygon fill="black" stroke="black" points="182.12,-849.6 192.55,-847.74 183.23,-842.69 182.12,-849.6"/>
</g>
<!-- cmd_plugin_research -->
<g id="node17" class="node">
<title>cmd_plugin_research</title>
<polygon fill="#e3f2fd" stroke="black" points="276.07,-814.37 193.07,-814.37 193.07,-778.37 276.07,-778.37 276.07,-814.37"/>
<text text-anchor="middle" x="234.57" y="-799.37" font-family="Helvetica,sans-Serif" font-size="10.00">plugin&#45;research</text>
<text text-anchor="middle" x="234.57" y="-788.37" font-family="Helvetica,sans-Serif" font-size="10.00">(655 tok)</text>
</g>
<!-- skill_co_project&#45;&gt;cmd_plugin_research -->
<g id="edge11" class="edge">
<title>skill_co_project&#45;&gt;cmd_plugin_research</title>
<path fill="none" stroke="black" d="M102.62,-817.52C127.44,-813.51 157.63,-808.63 182.77,-804.57"/>
<polygon fill="black" stroke="black" points="183.53,-807.99 192.84,-802.94 182.41,-801.08 183.53,-807.99"/>
</g>
<!-- cmd_plugin_design -->
<g id="node18" class="node">
<title>cmd_plugin_design</title>
<polygon fill="#e3f2fd" stroke="black" points="271.57,-756.37 197.57,-756.37 197.57,-720.37 271.57,-720.37 271.57,-756.37"/>
<text text-anchor="middle" x="234.57" y="-741.37" font-family="Helvetica,sans-Serif" font-size="10.00">plugin&#45;design</text>
<text text-anchor="middle" x="234.57" y="-730.37" font-family="Helvetica,sans-Serif" font-size="10.00">(1,192 tok)</text>
</g>
<!-- skill_co_project&#45;&gt;cmd_plugin_design -->
<g id="edge12" class="edge">
<title>skill_co_project&#45;&gt;cmd_plugin_design</title>
<path fill="none" stroke="black" d="M84.96,-808.11C106.81,-796.16 136.91,-780.16 164.07,-767.37 171.72,-763.76 179.94,-760.13 187.96,-756.71"/>
<polygon fill="black" stroke="black" points="189.36,-759.91 197.22,-752.81 186.65,-753.46 189.36,-759.91"/>
</g>
<!-- cmd_plugin_generate -->
<g id="node19" class="node">
<title>cmd_plugin_generate</title>
<polygon fill="#e3f2fd" stroke="black" points="276.07,-698.37 193.07,-698.37 193.07,-662.37 276.07,-662.37 276.07,-698.37"/>
<text text-anchor="middle" x="234.57" y="-683.37" font-family="Helvetica,sans-Serif" font-size="10.00">plugin&#45;generate</text>
<text text-anchor="middle" x="234.57" y="-672.37" font-family="Helvetica,sans-Serif" font-size="10.00">(2,082 tok)</text>
</g>
<!-- skill_co_project&#45;&gt;cmd_plugin_generate -->
<g id="edge13" class="edge">
<title>skill_co_project&#45;&gt;cmd_plugin_generate</title>
<path fill="none" stroke="black" d="M69.1,-804.85C88.6,-779.51 124.76,-736.46 164.07,-709.37 170.06,-705.23 176.74,-701.53 183.51,-698.26"/>
<polygon fill="black" stroke="black" points="185.09,-701.38 192.76,-694.07 182.21,-695 185.09,-701.38"/>
</g>
<!-- cmd_plugin_migrate_analyze -->
<g id="node20" class="node">
<title>cmd_plugin_migrate_analyze</title>
<polygon fill="#e3f2fd" stroke="black" points="291.57,-640.37 177.57,-640.37 177.57,-604.37 291.57,-604.37 291.57,-640.37"/>
<text text-anchor="middle" x="234.57" y="-625.37" font-family="Helvetica,sans-Serif" font-size="10.00">plugin&#45;migrate&#45;analyze</text>
<text text-anchor="middle" x="234.57" y="-614.37" font-family="Helvetica,sans-Serif" font-size="10.00">(458 tok)</text>
</g>
<!-- skill_co_project&#45;&gt;cmd_plugin_migrate_analyze -->
<g id="edge14" class="edge">
<title>skill_co_project&#45;&gt;cmd_plugin_migrate_analyze</title>
<path fill="none" stroke="black" d="M62.33,-804.23C77.45,-768.23 112.72,-694.71 164.07,-651.37 166.44,-649.36 168.97,-647.48 171.6,-645.72"/>
<polygon fill="black" stroke="black" points="173.56,-648.63 180.33,-640.48 169.96,-642.63 173.56,-648.63"/>
</g>
<!-- cmd_plugin_diagnose -->
<g id="node21" class="node">
<title>cmd_plugin_diagnose</title>
<polygon fill="#e3f2fd" stroke="black" points="276.57,-582.37 192.57,-582.37 192.57,-546.37 276.57,-546.37 276.57,-582.37"/>
<text text-anchor="middle" x="234.57" y="-567.37" font-family="Helvetica,sans-Serif" font-size="10.00">plugin&#45;diagnose</text>
<text text-anchor="middle" x="234.57" y="-556.37" font-family="Helvetica,sans-Serif" font-size="10.00">(944 tok)</text>
</g>
<!-- skill_co_project&#45;&gt;cmd_plugin_diagnose -->
<g id="edge15" class="edge">
<title>skill_co_project&#45;&gt;cmd_plugin_diagnose</title>
<path fill="none" stroke="black" d="M58.66,-804.08C69.45,-759.22 100.35,-654.12 164.07,-593.37 169.53,-588.15 176.07,-583.82 182.91,-580.23"/>
<polygon fill="black" stroke="black" points="184.81,-583.21 192.37,-575.78 181.83,-576.87 184.81,-583.21"/>
</g>
<!-- cmd_plugin_fix -->
<g id="node22" class="node">
<title>cmd_plugin_fix</title>
<polygon fill="#e3f2fd" stroke="black" points="266.07,-524.37 203.07,-524.37 203.07,-488.37 266.07,-488.37 266.07,-524.37"/>
<text text-anchor="middle" x="234.57" y="-509.37" font-family="Helvetica,sans-Serif" font-size="10.00">plugin&#45;fix</text>
<text text-anchor="middle" x="234.57" y="-498.37" font-family="Helvetica,sans-Serif" font-size="10.00">(1,074 tok)</text>
</g>
<!-- skill_co_project&#45;&gt;cmd_plugin_fix -->
<g id="edge16" class="edge">
<title>skill_co_project&#45;&gt;cmd_plugin_fix</title>
<path fill="none" stroke="black" d="M56.35,-804.1C63.16,-751.59 87.67,-614.3 164.07,-535.37 172.07,-527.09 182.79,-521.08 193.41,-516.75"/>
<polygon fill="black" stroke="black" points="194.86,-519.95 203.06,-513.23 192.46,-513.37 194.86,-519.95"/>
</g>
<!-- cmd_plugin_verify -->
<g id="node23" class="node">
<title>cmd_plugin_verify</title>
<polygon fill="#e3f2fd" stroke="black" points="269.07,-466.37 200.07,-466.37 200.07,-430.37 269.07,-430.37 269.07,-466.37"/>
<text text-anchor="middle" x="234.57" y="-451.37" font-family="Helvetica,sans-Serif" font-size="10.00">plugin&#45;verify</text>
<text text-anchor="middle" x="234.57" y="-440.37" font-family="Helvetica,sans-Serif" font-size="10.00">(518 tok)</text>
</g>
<!-- skill_co_project&#45;&gt;cmd_plugin_verify -->
<g id="edge17" class="edge">
<title>skill_co_project&#45;&gt;cmd_plugin_verify</title>
<path fill="none" stroke="black" d="M54.78,-803.94C57.99,-744.38 74.9,-574.85 164.07,-477.37 171.22,-469.54 180.82,-463.77 190.59,-459.52"/>
<polygon fill="black" stroke="black" points="191.87,-462.78 199.94,-455.91 189.35,-456.25 191.87,-462.78"/>
</g>
<!-- cmd_plugin_phase_diagnose -->
<g id="node24" class="node">
<title>cmd_plugin_phase_diagnose</title>
<polygon fill="#bbdefb" stroke="black" points="291.07,-408.37 178.07,-408.37 178.07,-372.37 291.07,-372.37 291.07,-408.37"/>
<text text-anchor="middle" x="234.57" y="-393.37" font-family="Helvetica,sans-Serif" font-size="10.00">plugin&#45;phase&#45;diagnose</text>
<text text-anchor="middle" x="234.57" y="-382.37" font-family="Helvetica,sans-Serif" font-size="10.00">(631 tok)</text>
</g>
<!-- skill_co_project&#45;&gt;cmd_plugin_phase_diagnose -->
<g id="edge18" class="edge">
<title>skill_co_project&#45;&gt;cmd_plugin_phase_diagnose</title>
<path fill="none" stroke="black" d="M53.62,-803.82C53.51,-737.8 61.97,-535.75 164.07,-419.37 165.8,-417.39 167.69,-415.54 169.71,-413.82"/>
<polygon fill="black" stroke="black" points="171.98,-416.49 178,-407.77 167.86,-410.83 171.98,-416.49"/>
</g>
<!-- cmd_plugin_phase_verify -->
<g id="node25" class="node">
<title>cmd_plugin_phase_verify</title>
<polygon fill="#bbdefb" stroke="black" points="283.57,-350.37 185.57,-350.37 185.57,-314.37 283.57,-314.37 283.57,-350.37"/>
<text text-anchor="middle" x="234.57" y="-335.37" font-family="Helvetica,sans-Serif" font-size="10.00">plugin&#45;phase&#45;verify</text>
<text text-anchor="middle" x="234.57" y="-324.37" font-family="Helvetica,sans-Serif" font-size="10.00">(634 tok)</text>
</g>
<!-- skill_co_project&#45;&gt;cmd_plugin_phase_verify -->
<g id="edge19" class="edge">
<title>skill_co_project&#45;&gt;cmd_plugin_phase_verify</title>
<path fill="none" stroke="black" d="M56.52,-803.98C66.4,-722.23 105.24,-430.62 164.07,-361.37 167.66,-357.13 171.98,-353.5 176.68,-350.4"/>
<polygon fill="black" stroke="black" points="178.55,-353.36 185.48,-345.35 175.07,-347.29 178.55,-353.36"/>
</g>
<!-- skill_ref_specialist_output_schema -->
<g id="node2" class="node">
<title>skill_ref_specialist_output_schema</title>
<polygon fill="#e1f5fe" stroke="black" points="711.49,-222.37 562.49,-222.37 562.49,-186.37 717.49,-186.37 717.49,-216.37 711.49,-222.37"/>
<polyline fill="none" stroke="black" points="711.49,-222.37 711.49,-216.37 "/>
<polyline fill="none" stroke="black" points="717.49,-216.37 711.49,-216.37 "/>
<text text-anchor="middle" x="639.99" y="-207.37" font-family="Helvetica,sans-Serif" font-size="10.00">twl:ref&#45;specialist&#45;output&#45;schema</text>
<text text-anchor="middle" x="639.99" y="-196.37" font-family="Helvetica,sans-Serif" font-size="10.00">(2,563 tok)</text>
</g>
<!-- skill_ref_architecture -->
<g id="node6" class="node">
<title>skill_ref_architecture</title>
<polygon fill="#e1f5fe" stroke="black" points="682.99,-164.37 590.99,-164.37 590.99,-128.37 688.99,-128.37 688.99,-158.37 682.99,-164.37"/>
<polyline fill="none" stroke="black" points="682.99,-164.37 682.99,-158.37 "/>
<polyline fill="none" stroke="black" points="688.99,-158.37 682.99,-158.37 "/>
<text text-anchor="middle" x="639.99" y="-149.37" font-family="Helvetica,sans-Serif" font-size="10.00">twl:ref&#45;architecture</text>
<text text-anchor="middle" x="639.99" y="-138.37" font-family="Helvetica,sans-Serif" font-size="10.00">(2,273 tok)</text>
</g>
<!-- skill_ref_specialist_output_schema&#45;&gt;skill_ref_architecture -->
<!-- skill_ref_specialist_output_schema&#45;&gt;skill_ref_architecture -->
<!-- skill_ref_types&#45;&gt;skill_ref_practices -->
<!-- skill_ref_practices&#45;&gt;skill_ref_deps_format -->
<!-- cmd_project_create&#45;&gt;cmd_project_governance -->
<!-- script_project_create -->
<g id="node29" class="node">
<title>script_project_create</title>
<polygon fill="#ff9800" stroke="black" points="495.88,-1428.37 464.83,-1452.86 402.72,-1452.86 371.67,-1428.37 402.72,-1403.88 464.83,-1403.88 495.88,-1428.37"/>
<text text-anchor="middle" x="433.78" y="-1431.37" font-family="Helvetica,sans-Serif" font-size="10.00">project&#45;create</text>
<text text-anchor="middle" x="433.78" y="-1420.37" font-family="Helvetica,sans-Serif" font-size="10.00">(4,935 tok)</text>
</g>
<!-- cmd_project_create&#45;&gt;script_project_create -->
<g id="edge23" class="edge">
<title>cmd_project_create&#45;&gt;script_project_create</title>
<path fill="none" stroke="black" d="M272.66,-1423.49C298.22,-1424.27 332.97,-1425.33 363.56,-1426.26"/>
<polygon fill="black" stroke="black" points="363.65,-1429.76 373.76,-1426.57 363.87,-1422.77 363.65,-1429.76"/>
</g>
<!-- cmd_project_board_configure&#45;&gt;cmd_project_migrate -->
<!-- cmd_project_governance&#45;&gt;cmd_project_board_configure -->
<!-- cmd_project_migrate&#45;&gt;cmd_container_dependency_check -->
<!-- script_project_migrate -->
<g id="node30" class="node">
<title>script_project_migrate</title>
<polygon fill="#ff9800" stroke="black" points="500.05,-1202.37 466.91,-1226.86 400.64,-1226.86 367.5,-1202.37 400.64,-1177.88 466.91,-1177.88 500.05,-1202.37"/>
<text text-anchor="middle" x="433.78" y="-1205.37" font-family="Helvetica,sans-Serif" font-size="10.00">project&#45;migrate</text>
<text text-anchor="middle" x="433.78" y="-1194.37" font-family="Helvetica,sans-Serif" font-size="10.00">(2,333 tok)</text>
</g>
<!-- cmd_project_migrate&#45;&gt;script_project_migrate -->
<g id="edge24" class="edge">
<title>cmd_project_migrate&#45;&gt;script_project_migrate</title>
<path fill="none" stroke="black" d="M275.47,-1202.37C298.93,-1202.37 329.35,-1202.37 357.19,-1202.37"/>
<polygon fill="black" stroke="black" points="357.31,-1205.87 367.31,-1202.37 357.31,-1198.87 357.31,-1205.87"/>
</g>
<!-- cmd_container_dependency_check&#45;&gt;cmd_setup_crg -->
<!-- cmd_setup_crg&#45;&gt;cmd_snapshot_analyze -->
<!-- cmd_snapshot_analyze&#45;&gt;cmd_snapshot_classify -->
<!-- cmd_snapshot_classify&#45;&gt;cmd_snapshot_generate -->
<!-- cmd_snapshot_generate&#45;&gt;cmd_plugin_interview -->
<!-- cmd_plugin_interview&#45;&gt;cmd_plugin_research -->
<!-- cmd_plugin_research&#45;&gt;cmd_plugin_design -->
<!-- cmd_plugin_design&#45;&gt;cmd_plugin_generate -->
<!-- cmd_plugin_generate&#45;&gt;cmd_plugin_migrate_analyze -->
<!-- cmd_plugin_migrate_analyze&#45;&gt;cmd_plugin_diagnose -->
<!-- cmd_plugin_diagnose&#45;&gt;cmd_plugin_fix -->
<!-- cmd_plugin_fix&#45;&gt;cmd_plugin_verify -->
<!-- cmd_plugin_verify&#45;&gt;cmd_plugin_phase_diagnose -->
<!-- cmd_plugin_phase_diagnose&#45;&gt;skill_ref_specialist_output_schema -->
<g id="edge28" class="edge">
<title>cmd_plugin_phase_diagnose&#45;&gt;skill_ref_specialist_output_schema</title>
<path fill="none" stroke="black" d="M291.3,-396.78C348.24,-400.74 437.54,-399.57 504.49,-364.37 561.54,-334.37 604.17,-268.97 624.93,-231.74"/>
<polygon fill="black" stroke="black" points="628.26,-232.93 629.96,-222.48 622.11,-229.59 628.26,-232.93"/>
</g>
<!-- cmd_plugin_phase_diagnose&#45;&gt;skill_ref_architecture -->
<g id="edge29" class="edge">
<title>cmd_plugin_phase_diagnose&#45;&gt;skill_ref_architecture</title>
<path fill="none" stroke="black" d="M291.32,-372.62C296.4,-369.45 301.11,-365.72 305.07,-361.37 364.09,-296.28 294.94,-227.85 363.07,-172.37 423.99,-122.75 519.46,-125.85 580.62,-134.61"/>
<polygon fill="black" stroke="black" points="580.46,-138.12 590.87,-136.17 581.52,-131.2 580.46,-138.12"/>
</g>
<!-- cmd_plugin_phase_diagnose&#45;&gt;cmd_plugin_phase_verify -->
<!-- agent_worker_structure -->
<g id="node26" class="node">
<title>agent_worker_structure</title>
<ellipse fill="#ede7f6" stroke="black" cx="433.78" cy="-332.37" rx="61.54" ry="21.43"/>
<text text-anchor="middle" x="433.78" y="-335.37" font-family="Helvetica,sans-Serif" font-size="10.00">worker&#45;structure</text>
<text text-anchor="middle" x="433.78" y="-324.37" font-family="Helvetica,sans-Serif" font-size="10.00">(1,244 tok)</text>
</g>
<!-- cmd_plugin_phase_diagnose&#45;&gt;agent_worker_structure -->
<g id="edge25" class="edge">
<title>cmd_plugin_phase_diagnose&#45;&gt;agent_worker_structure</title>
<path fill="none" stroke="black" stroke-dasharray="5,2" d="M291.29,-373.98C318.07,-366.1 350.09,-356.68 376.89,-348.8"/>
<polygon fill="black" stroke="black" points="377.91,-352.15 386.51,-345.97 375.93,-345.44 377.91,-352.15"/>
</g>
<!-- agent_worker_principles -->
<g id="node27" class="node">
<title>agent_worker_principles</title>
<ellipse fill="#ede7f6" stroke="black" cx="433.78" cy="-268.37" rx="63.78" ry="21.43"/>
<text text-anchor="middle" x="433.78" y="-271.37" font-family="Helvetica,sans-Serif" font-size="10.00">worker&#45;principles</text>
<text text-anchor="middle" x="433.78" y="-260.37" font-family="Helvetica,sans-Serif" font-size="10.00">(1,154 tok)</text>
</g>
<!-- cmd_plugin_phase_diagnose&#45;&gt;agent_worker_principles -->
<g id="edge26" class="edge">
<title>cmd_plugin_phase_diagnose&#45;&gt;agent_worker_principles</title>
<path fill="none" stroke="black" stroke-dasharray="5,2" d="M285.87,-372.35C292.56,-369.11 299.14,-365.44 305.07,-361.37 335.88,-340.15 332.63,-322.12 363.07,-300.37 368.95,-296.16 375.48,-292.3 382.11,-288.82"/>
<polygon fill="black" stroke="black" points="383.76,-291.91 391.16,-284.33 380.65,-285.64 383.76,-291.91"/>
</g>
<!-- agent_worker_architecture -->
<g id="node28" class="node">
<title>agent_worker_architecture</title>
<ellipse fill="#ede7f6" stroke="black" cx="433.78" cy="-204.37" rx="70.92" ry="21.43"/>
<text text-anchor="middle" x="433.78" y="-207.37" font-family="Helvetica,sans-Serif" font-size="10.00">worker&#45;architecture</text>
<text text-anchor="middle" x="433.78" y="-196.37" font-family="Helvetica,sans-Serif" font-size="10.00">(2,186 tok)</text>
</g>
<!-- cmd_plugin_phase_diagnose&#45;&gt;agent_worker_architecture -->
<g id="edge27" class="edge">
<title>cmd_plugin_phase_diagnose&#45;&gt;agent_worker_architecture</title>
<path fill="none" stroke="black" stroke-dasharray="5,2" d="M290.39,-372.25C295.71,-369.14 300.73,-365.53 305.07,-361.37 349.21,-318.91 319.67,-279.58 363.07,-236.37 367.24,-232.21 372.05,-228.54 377.15,-225.3"/>
<polygon fill="black" stroke="black" points="379.01,-228.27 385.95,-220.27 375.53,-222.19 379.01,-228.27"/>
</g>
<!-- cmd_plugin_phase_verify&#45;&gt;skill_ref_specialist_output_schema -->
<g id="edge33" class="edge">
<title>cmd_plugin_phase_verify&#45;&gt;skill_ref_specialist_output_schema</title>
<path fill="none" stroke="black" d="M243.33,-314.29C259.56,-279.13 300.83,-202.35 363.07,-172.37 419.69,-145.08 442.06,-165.04 504.49,-172.37 524.88,-174.76 546.66,-179.12 566.63,-183.88"/>
<polygon fill="black" stroke="black" points="566.03,-187.34 576.58,-186.31 567.7,-180.54 566.03,-187.34"/>
</g>
<!-- cmd_plugin_phase_verify&#45;&gt;skill_ref_types -->
<!-- cmd_plugin_phase_verify&#45;&gt;skill_ref_architecture -->
<g id="edge34" class="edge">
<title>cmd_plugin_phase_verify&#45;&gt;skill_ref_architecture</title>
<path fill="none" stroke="black" d="M238.5,-314.12C247.28,-266.39 278.19,-137.97 363.07,-86.37 416.77,-53.71 443.52,-71.09 504.49,-86.37 532.84,-93.47 535.88,-105.27 562.49,-117.37 568.57,-120.13 575,-122.86 581.44,-125.47"/>
<polygon fill="black" stroke="black" points="580.27,-128.77 590.85,-129.2 582.85,-122.26 580.27,-128.77"/>
</g>
<!-- cmd_plugin_phase_verify&#45;&gt;agent_worker_structure -->
<g id="edge30" class="edge">
<title>cmd_plugin_phase_verify&#45;&gt;agent_worker_structure</title>
<path fill="none" stroke="black" stroke-dasharray="5,2" d="M283.81,-332.37C307.26,-332.37 335.92,-332.37 361.81,-332.37"/>
<polygon fill="black" stroke="black" points="361.95,-335.87 371.95,-332.37 361.95,-328.87 361.95,-335.87"/>
</g>
<!-- cmd_plugin_phase_verify&#45;&gt;agent_worker_principles -->
<g id="edge31" class="edge">
<title>cmd_plugin_phase_verify&#45;&gt;agent_worker_principles</title>
<path fill="none" stroke="black" stroke-dasharray="5,2" d="M283.81,-316.71C312.19,-307.5 348.17,-295.82 377.67,-286.25"/>
<polygon fill="black" stroke="black" points="378.97,-289.51 387.4,-283.09 376.81,-282.85 378.97,-289.51"/>
</g>
<!-- cmd_plugin_phase_verify&#45;&gt;agent_worker_architecture -->
<g id="edge32" class="edge">
<title>cmd_plugin_phase_verify&#45;&gt;agent_worker_architecture</title>
<path fill="none" stroke="black" stroke-dasharray="5,2" d="M256.67,-314.22C281.18,-293.7 323.33,-260.07 363.07,-236.37 369.2,-232.71 375.82,-229.18 382.46,-225.88"/>
<polygon fill="black" stroke="black" points="383.98,-229.03 391.48,-221.55 380.95,-222.73 383.98,-229.03"/>
</g>
<!-- agent_worker_structure&#45;&gt;skill_ref_specialist_output_schema -->
<g id="edge35" class="edge">
<title>agent_worker_structure&#45;&gt;skill_ref_specialist_output_schema</title>
<path fill="none" stroke="black" stroke-dasharray="1,5" d="M473.79,-316.03C483.98,-311.35 494.81,-305.97 504.49,-300.37 541.89,-278.69 581.87,-249.27 608.42,-228.73"/>
<polygon fill="black" stroke="black" points="610.82,-231.3 616.55,-222.4 606.51,-225.78 610.82,-231.3"/>
</g>
<!-- agent_worker_structure&#45;&gt;agent_worker_principles -->
<!-- agent_worker_structure&#45;&gt;agent_worker_principles -->
<!-- agent_worker_structure&#45;&gt;agent_worker_principles -->
<!-- agent_worker_structure&#45;&gt;agent_worker_principles -->
<!-- agent_worker_principles&#45;&gt;skill_ref_specialist_output_schema -->
<g id="edge36" class="edge">
<title>agent_worker_principles&#45;&gt;skill_ref_specialist_output_schema</title>
<path fill="none" stroke="black" stroke-dasharray="1,5" d="M480.86,-253.92C507.6,-245.54 541.76,-234.84 571.49,-225.52"/>
<polygon fill="black" stroke="black" points="572.89,-228.75 581.38,-222.42 570.79,-222.07 572.89,-228.75"/>
</g>
<!-- agent_worker_principles&#45;&gt;agent_worker_architecture -->
<!-- agent_worker_principles&#45;&gt;agent_worker_architecture -->
<!-- agent_worker_architecture&#45;&gt;skill_ref_specialist_output_schema -->
<g id="edge37" class="edge">
<title>agent_worker_architecture&#45;&gt;skill_ref_specialist_output_schema</title>
<path fill="none" stroke="black" stroke-dasharray="1,5" d="M467.59,-185.61C503.45,-178.08 560.91,-177.64 599.29,-184.3"/>
<polygon fill="black" stroke="black" points="599.08,-187.82 609.57,-186.36 600.46,-180.96 599.08,-187.82"/>
</g>
<!-- agent_worker_architecture&#45;&gt;skill_ref_specialist_output_schema -->
<!-- agent_worker_architecture&#45;&gt;skill_ref_specialist_output_schema -->
<!-- agent_worker_architecture&#45;&gt;skill_ref_specialist_output_schema -->
<!-- agent_worker_architecture&#45;&gt;skill_ref_architecture -->
<g id="edge38" class="edge">
<title>agent_worker_architecture&#45;&gt;skill_ref_architecture</title>
<path fill="none" stroke="black" stroke-dasharray="1,5" d="M485.78,-189.88C514.65,-181.68 550.86,-171.39 580.83,-162.88"/>
<polygon fill="black" stroke="black" points="582.07,-166.17 590.74,-160.07 580.16,-159.43 582.07,-166.17"/>
</g>
</g>
</svg>
