<?xml version="1.0" encoding="UTF-8" standalone="no"?>
<!DOCTYPE svg PUBLIC "-//W3C//DTD SVG 1.1//EN"
 "http://www.w3.org/Graphics/SVG/1.1/DTD/svg11.dtd">
<!-- Generated by graphviz version 2.43.0 (0)
 -->
<!-- Title: Dependencies Pages: 1 -->
<svg width="418pt" height="125pt"
 viewBox="0.00 0.00 417.72 125.00" xmlns="http://www.w3.org/2000/svg" xmlns:xlink="http://www.w3.org/1999/xlink">
<g id="graph0" class="graph" transform="scale(1 1) rotate(0) translate(4 121)">
<title>Dependencies</title>
<polygon fill="white" stroke="transparent" points="-4,4 -4,-121 413.72,-121 413.72,4 -4,4"/>
<text text-anchor="middle" x="204.86" y="-101.8" font-family="Helvetica,sans-Serif" font-size="14.00">workflow&#45;dead&#45;cleanup</text>
<!-- skill_workflow_dead_cleanup -->
<g id="node1" class="node">
<title>skill_workflow_dead_cleanup</title>
<ellipse fill="#e8f5e9" stroke="black" cx="105.36" cy="-47" rx="105.22" ry="21.43"/>
<text text-anchor="middle" x="105.36" y="-50" font-family="Helvetica,sans-Serif" font-size="10.00">twl:workflow&#45;dead&#45;cleanup</text>
<text text-anchor="middle" x="105.36" y="-39" font-family="Helvetica,sans-Serif" font-size="10.00">(249 tok)</text>
</g>
<!-- cmd_dead_component_detect -->
<g id="node2" class="node">
<title>cmd_dead_component_detect</title>
<polygon fill="#e3f2fd" stroke="black" points="406.22,-94 272.22,-94 272.22,-58 406.22,-58 406.22,-94"/>
<text text-anchor="middle" x="339.22" y="-79" font-family="Helvetica,sans-Serif" font-size="10.00">dead&#45;component&#45;detect</text>
<text text-anchor="middle" x="339.22" y="-68" font-family="Helvetica,sans-Serif" font-size="10.00">(916 tok)</text>
</g>
<!-- skill_workflow_dead_cleanup&#45;&gt;cmd_dead_component_detect -->
<g id="edge1" class="edge">
<title>skill_workflow_dead_cleanup&#45;&gt;cmd_dead_component_detect</title>
<path fill="none" stroke="black" d="M195.34,-58.13C217.39,-60.89 240.81,-63.82 262.18,-66.49"/>
<polygon fill="black" stroke="black" points="261.81,-69.97 272.16,-67.74 262.68,-63.02 261.81,-69.97"/>
</g>
<!-- cmd_dead_component_execute -->
<g id="node3" class="node">
<title>cmd_dead_component_execute</title>
<polygon fill="#e3f2fd" stroke="black" points="409.72,-36 268.72,-36 268.72,0 409.72,0 409.72,-36"/>
<text text-anchor="middle" x="339.22" y="-21" font-family="Helvetica,sans-Serif" font-size="10.00">dead&#45;component&#45;execute</text>
<text text-anchor="middle" x="339.22" y="-10" font-family="Helvetica,sans-Serif" font-size="10.00">(1,081 tok)</text>
</g>
<!-- skill_workflow_dead_cleanup&#45;&gt;cmd_dead_component_execute -->
<g id="edge2" class="edge">
<title>skill_workflow_dead_cleanup&#45;&gt;cmd_dead_component_execute</title>
<path fill="none" stroke="black" d="M195.34,-35.87C216.1,-33.27 238.07,-30.53 258.4,-27.98"/>
<polygon fill="black" stroke="black" points="259.07,-31.43 268.55,-26.71 258.2,-24.48 259.07,-31.43"/>
</g>
<!-- cmd_dead_component_detect&#45;&gt;cmd_dead_component_execute -->
</g>
</svg>
