<?xml version="1.0" encoding="UTF-8" standalone="no"?>
<!DOCTYPE svg PUBLIC "-//W3C//DTD SVG 1.1//EN"
 "http://www.w3.org/Graphics/SVG/1.1/DTD/svg11.dtd">
<!-- Generated by graphviz version 2.43.0 (0)
 -->
<!-- Title: Dependencies Pages: 1 -->
<svg width="577pt" height="738pt"
 viewBox="0.00 0.00 577.22 737.99" xmlns="http://www.w3.org/2000/svg" xmlns:xlink="http://www.w3.org/1999/xlink">
<g id="graph0" class="graph" transform="scale(1 1) rotate(0) translate(4 733.99)">
<title>Dependencies</title>
<polygon fill="white" stroke="transparent" points="-4,4 -4,-733.99 573.22,-733.99 573.22,4 -4,4"/>
<text text-anchor="middle" x="284.61" y="-714.79" font-family="Helvetica,sans-Serif" font-size="14.00">workflow&#45;setup</text>
<!-- skill_workflow_setup -->
<g id="node1" class="node">
<title>skill_workflow_setup</title>
<ellipse fill="#e8f5e9" stroke="black" cx="69.3" cy="-182.49" rx="69.09" ry="21.43"/>
<text text-anchor="middle" x="69.3" y="-185.49" font-family="Helvetica,sans-Serif" font-size="10.00">twl:workflow&#45;setup</text>
<text text-anchor="middle" x="69.3" y="-174.49" font-family="Helvetica,sans-Serif" font-size="10.00">(979 tok)</text>
</g>
<!-- cmd_init -->
<g id="node2" class="node">
<title>cmd_init</title>
<polygon fill="#e3f2fd" stroke="black" points="291.59,-403.49 236.59,-403.49 236.59,-367.49 291.59,-367.49 291.59,-403.49"/>
<text text-anchor="middle" x="264.09" y="-388.49" font-family="Helvetica,sans-Serif" font-size="10.00">init</text>
<text text-anchor="middle" x="264.09" y="-377.49" font-family="Helvetica,sans-Serif" font-size="10.00">(621 tok)</text>
</g>
<!-- skill_workflow_setup&#45;&gt;cmd_init -->
<g id="edge1" class="edge">
<title>skill_workflow_setup&#45;&gt;cmd_init</title>
<path fill="none" stroke="black" d="M80.72,-203.5C99.42,-239.3 141.9,-312.53 196.59,-356.49 205.54,-363.68 216.54,-369.43 227,-373.85"/>
<polygon fill="black" stroke="black" points="225.79,-377.13 236.38,-377.54 228.35,-370.62 225.79,-377.13"/>
</g>
<!-- cmd_worktree_create -->
<g id="node3" class="node">
<title>cmd_worktree_create</title>
<polygon fill="#e3f2fd" stroke="black" points="306.09,-345.49 222.09,-345.49 222.09,-309.49 306.09,-309.49 306.09,-345.49"/>
<text text-anchor="middle" x="264.09" y="-330.49" font-family="Helvetica,sans-Serif" font-size="10.00">worktree&#45;create</text>
<text text-anchor="middle" x="264.09" y="-319.49" font-family="Helvetica,sans-Serif" font-size="10.00">(448 tok)</text>
</g>
<!-- skill_workflow_setup&#45;&gt;cmd_worktree_create -->
<g id="edge2" class="edge">
<title>skill_workflow_setup&#45;&gt;cmd_worktree_create</title>
<path fill="none" stroke="black" d="M88.71,-203.18C111.91,-228.29 153.93,-270.72 196.59,-298.49 201.6,-301.75 207.03,-304.8 212.56,-307.6"/>
<polygon fill="black" stroke="black" points="211.36,-310.91 221.89,-312.07 214.39,-304.6 211.36,-310.91"/>
</g>
<!-- cmd_project_board_status_update -->
<g id="node4" class="node">
<title>cmd_project_board_status_update</title>
<polygon fill="#e3f2fd" stroke="black" points="331.59,-287.49 196.59,-287.49 196.59,-251.49 331.59,-251.49 331.59,-287.49"/>
<text text-anchor="middle" x="264.09" y="-272.49" font-family="Helvetica,sans-Serif" font-size="10.00">project&#45;board&#45;status&#45;update</text>
<text text-anchor="middle" x="264.09" y="-261.49" font-family="Helvetica,sans-Serif" font-size="10.00">(1,203 tok)</text>
</g>
<!-- skill_workflow_setup&#45;&gt;cmd_project_board_status_update -->
<g id="edge3" class="edge">
<title>skill_workflow_setup&#45;&gt;cmd_project_board_status_update</title>
<path fill="none" stroke="black" d="M108.34,-200.2C133.37,-211.79 166.86,-227.19 196.59,-240.49 201.55,-242.71 206.73,-245.01 211.9,-247.29"/>
<polygon fill="black" stroke="black" points="210.62,-250.55 221.18,-251.36 213.43,-244.14 210.62,-250.55"/>
</g>
<!-- cmd_crg_auto_build -->
<g id="node5" class="node">
<title>cmd_crg_auto_build</title>
<polygon fill="#e3f2fd" stroke="black" points="301.59,-229.49 226.59,-229.49 226.59,-193.49 301.59,-193.49 301.59,-229.49"/>
<text text-anchor="middle" x="264.09" y="-214.49" font-family="Helvetica,sans-Serif" font-size="10.00">crg&#45;auto&#45;build</text>
<text text-anchor="middle" x="264.09" y="-203.49" font-family="Helvetica,sans-Serif" font-size="10.00">(313 tok)</text>
</g>
<!-- skill_workflow_setup&#45;&gt;cmd_crg_auto_build -->
<g id="edge4" class="edge">
<title>skill_workflow_setup&#45;&gt;cmd_crg_auto_build</title>
<path fill="none" stroke="black" d="M131.83,-191.75C159.24,-195.87 191,-200.65 216.41,-204.47"/>
<polygon fill="black" stroke="black" points="216.11,-207.97 226.52,-205.99 217.15,-201.05 216.11,-207.97"/>
</g>
<!-- cmd_change_propose -->
<g id="node6" class="node">
<title>cmd_change_propose</title>
<polygon fill="#e3f2fd" stroke="black" points="307.09,-171.49 221.09,-171.49 221.09,-135.49 307.09,-135.49 307.09,-171.49"/>
<text text-anchor="middle" x="264.09" y="-156.49" font-family="Helvetica,sans-Serif" font-size="10.00">change&#45;propose</text>
<text text-anchor="middle" x="264.09" y="-145.49" font-family="Helvetica,sans-Serif" font-size="10.00">(1,344 tok)</text>
</g>
<!-- skill_workflow_setup&#45;&gt;cmd_change_propose -->
<g id="edge5" class="edge">
<title>skill_workflow_setup&#45;&gt;cmd_change_propose</title>
<path fill="none" stroke="black" d="M131.83,-173.24C157.29,-169.41 186.49,-165.02 210.88,-161.35"/>
<polygon fill="black" stroke="black" points="211.65,-164.77 221.01,-159.82 210.6,-157.85 211.65,-164.77"/>
</g>
<!-- cmd_ac_extract -->
<g id="node7" class="node">
<title>cmd_ac_extract</title>
<polygon fill="#e3f2fd" stroke="black" points="294.09,-113.49 234.09,-113.49 234.09,-77.49 294.09,-77.49 294.09,-113.49"/>
<text text-anchor="middle" x="264.09" y="-98.49" font-family="Helvetica,sans-Serif" font-size="10.00">ac&#45;extract</text>
<text text-anchor="middle" x="264.09" y="-87.49" font-family="Helvetica,sans-Serif" font-size="10.00">(368 tok)</text>
</g>
<!-- skill_workflow_setup&#45;&gt;cmd_ac_extract -->
<g id="edge6" class="edge">
<title>skill_workflow_setup&#45;&gt;cmd_ac_extract</title>
<path fill="none" stroke="black" d="M108.34,-164.79C133.37,-153.2 166.86,-137.8 196.59,-124.49 205.64,-120.45 215.4,-116.15 224.59,-112.13"/>
<polygon fill="black" stroke="black" points="226.14,-115.28 233.91,-108.08 223.34,-108.86 226.14,-115.28"/>
</g>
<!-- script_chain_runner -->
<g id="node10" class="node">
<title>script_chain_runner</title>
<polygon fill="#ff9800" stroke="black" points="536.72,-95.49 508.06,-119.98 450.75,-119.98 422.1,-95.49 450.75,-71.01 508.06,-71.01 536.72,-95.49"/>
<text text-anchor="middle" x="479.41" y="-98.49" font-family="Helvetica,sans-Serif" font-size="10.00">chain&#45;runner</text>
<text text-anchor="middle" x="479.41" y="-87.49" font-family="Helvetica,sans-Serif" font-size="10.00">(7,551 tok)</text>
</g>
<!-- skill_workflow_setup&#45;&gt;script_chain_runner -->
<g id="edge7" class="edge">
<title>skill_workflow_setup&#45;&gt;script_chain_runner</title>
<path fill="none" stroke="black" d="M84.93,-161.64C105.91,-133.75 147.49,-85.62 196.59,-66.49 274.14,-36.29 372.3,-58.68 429.94,-77.34"/>
<polygon fill="black" stroke="black" points="428.93,-80.69 439.52,-80.53 431.14,-74.05 428.93,-80.69"/>
</g>
<!-- script_compaction_resume -->
<g id="node15" class="node">
<title>script_compaction_resume</title>
<polygon fill="#ff9800" stroke="black" points="562.47,-24.49 520.94,-48.98 437.87,-48.98 396.34,-24.49 437.87,-0.01 520.94,-0.01 562.47,-24.49"/>
<text text-anchor="middle" x="479.41" y="-27.49" font-family="Helvetica,sans-Serif" font-size="10.00">compaction&#45;resume</text>
<text text-anchor="middle" x="479.41" y="-16.49" font-family="Helvetica,sans-Serif" font-size="10.00">(1,031 tok)</text>
</g>
<!-- skill_workflow_setup&#45;&gt;script_compaction_resume -->
<g id="edge8" class="edge">
<title>skill_workflow_setup&#45;&gt;script_compaction_resume</title>
<path fill="none" stroke="black" d="M82.46,-161.63C102,-130.3 143.65,-72.08 196.59,-46.49 260.08,-15.81 341.08,-12.64 399.94,-15.77"/>
<polygon fill="black" stroke="black" points="399.73,-19.26 409.92,-16.37 400.15,-12.27 399.73,-19.26"/>
</g>
<!-- cmd_init&#45;&gt;cmd_worktree_create -->
<!-- cmd_worktree_create&#45;&gt;cmd_project_board_status_update -->
<!-- script_worktree_create -->
<g id="node12" class="node">
<title>script_worktree_create</title>
<polygon fill="#ff9800" stroke="black" points="548.08,-327.49 513.74,-351.98 445.07,-351.98 410.74,-327.49 445.07,-303.01 513.74,-303.01 548.08,-327.49"/>
<text text-anchor="middle" x="479.41" y="-330.49" font-family="Helvetica,sans-Serif" font-size="10.00">worktree&#45;create</text>
<text text-anchor="middle" x="479.41" y="-319.49" font-family="Helvetica,sans-Serif" font-size="10.00">(6,529 tok)</text>
</g>
<!-- cmd_worktree_create&#45;&gt;script_worktree_create -->
<g id="edge9" class="edge">
<title>cmd_worktree_create&#45;&gt;script_worktree_create</title>
<path fill="none" stroke="black" d="M306.22,-327.49C332.88,-327.49 368.45,-327.49 400.34,-327.49"/>
<polygon fill="black" stroke="black" points="400.55,-330.99 410.55,-327.49 400.55,-323.99 400.55,-330.99"/>
</g>
<!-- cmd_project_board_status_update&#45;&gt;cmd_crg_auto_build -->
<!-- cmd_crg_auto_build&#45;&gt;cmd_change_propose -->
<!-- cmd_change_propose&#45;&gt;cmd_ac_extract -->
<!-- cmd_ac_extract&#45;&gt;script_chain_runner -->
<!-- script_autopilot_github -->
<g id="node13" class="node">
<title>script_autopilot_github</title>
<polygon fill="#ff9800" stroke="black" points="546.95,-166.49 513.18,-190.98 445.64,-190.98 411.87,-166.49 445.64,-142.01 513.18,-142.01 546.95,-166.49"/>
<text text-anchor="middle" x="479.41" y="-169.49" font-family="Helvetica,sans-Serif" font-size="10.00">autopilot&#45;github</text>
<text text-anchor="middle" x="479.41" y="-158.49" font-family="Helvetica,sans-Serif" font-size="10.00">(3,666 tok)</text>
</g>
<!-- cmd_ac_extract&#45;&gt;script_autopilot_github -->
<g id="edge10" class="edge">
<title>cmd_ac_extract&#45;&gt;script_autopilot_github</title>
<path fill="none" stroke="black" d="M294.31,-105.22C327.37,-116.22 381.98,-134.4 423.15,-148.1"/>
<polygon fill="black" stroke="black" points="422.18,-151.47 432.78,-151.31 424.4,-144.83 422.18,-151.47"/>
</g>
<!-- script_state_read -->
<g id="node8" class="node">
<title>script_state_read</title>
<polygon fill="#ff9800" stroke="black" points="530.79,-469.49 505.1,-493.98 453.72,-493.98 428.03,-469.49 453.72,-445.01 505.1,-445.01 530.79,-469.49"/>
<text text-anchor="middle" x="479.41" y="-472.49" font-family="Helvetica,sans-Serif" font-size="10.00">state&#45;read</text>
<text text-anchor="middle" x="479.41" y="-461.49" font-family="Helvetica,sans-Serif" font-size="10.00">(4,611 tok)</text>
</g>
<!-- script_state_write -->
<g id="node9" class="node">
<title>script_state_write</title>
<polygon fill="#ff9800" stroke="black" points="530.79,-398.49 505.1,-422.98 453.72,-422.98 428.03,-398.49 453.72,-374.01 505.1,-374.01 530.79,-398.49"/>
<text text-anchor="middle" x="479.41" y="-401.49" font-family="Helvetica,sans-Serif" font-size="10.00">state&#45;write</text>
<text text-anchor="middle" x="479.41" y="-390.49" font-family="Helvetica,sans-Serif" font-size="10.00">(4,611 tok)</text>
</g>
<!-- script_state_read&#45;&gt;script_state_write -->
<!-- script_state_read&#45;&gt;script_state_write -->
<!-- script_state_read&#45;&gt;script_state_write -->
<!-- script_chain_runner&#45;&gt;script_compaction_resume -->
<!-- script_chain_runner&#45;&gt;script_compaction_resume -->
<!-- script_chain_runner&#45;&gt;script_compaction_resume -->
<!-- script_chain_runner&#45;&gt;script_compaction_resume -->
<!-- script_worker_terminal_guard -->
<g id="node11" class="node">
<title>script_worker_terminal_guard</title>
<polygon fill="#ff9800" stroke="black" points="569.04,-540.49 524.22,-564.98 434.59,-564.98 389.78,-540.49 434.59,-516.01 524.22,-516.01 569.04,-540.49"/>
<text text-anchor="middle" x="479.41" y="-543.49" font-family="Helvetica,sans-Serif" font-size="10.00">worker&#45;terminal&#45;guard</text>
<text text-anchor="middle" x="479.41" y="-532.49" font-family="Helvetica,sans-Serif" font-size="10.00">(573 tok)</text>
</g>
<!-- script_chain_steps -->
<g id="node14" class="node">
<title>script_chain_steps</title>
<polygon fill="#ff9800" stroke="black" points="534.32,-611.49 506.86,-635.98 451.95,-635.98 424.5,-611.49 451.95,-587.01 506.86,-587.01 534.32,-611.49"/>
<text text-anchor="middle" x="479.41" y="-614.49" font-family="Helvetica,sans-Serif" font-size="10.00">chain&#45;steps</text>
<text text-anchor="middle" x="479.41" y="-603.49" font-family="Helvetica,sans-Serif" font-size="10.00">(7,551 tok)</text>
</g>
<!-- script_resolve_issue_num -->
<g id="node16" class="node">
<title>script_resolve_issue_num</title>
<polygon fill="#ff9800" stroke="black" points="557.68,-682.49 518.54,-706.98 440.27,-706.98 401.14,-682.49 440.27,-658.01 518.54,-658.01 557.68,-682.49"/>
<text text-anchor="middle" x="479.41" y="-685.49" font-family="Helvetica,sans-Serif" font-size="10.00">resolve&#45;issue&#45;num</text>
<text text-anchor="middle" x="479.41" y="-674.49" font-family="Helvetica,sans-Serif" font-size="10.00">(716 tok)</text>
</g>
</g>
</svg>
