<?xml version="1.0" encoding="UTF-8" standalone="no"?>
<!DOCTYPE svg PUBLIC "-//W3C//DTD SVG 1.1//EN"
 "http://www.w3.org/Graphics/SVG/1.1/DTD/svg11.dtd">
<!-- Generated by graphviz version 2.43.0 (0)
 -->
<!-- Title: Dependencies Pages: 1 -->
<svg width="554pt" height="494pt"
 viewBox="0.00 0.00 554.11 494.13" xmlns="http://www.w3.org/2000/svg" xmlns:xlink="http://www.w3.org/1999/xlink">
<g id="graph0" class="graph" transform="scale(1 1) rotate(0) translate(4 490.13)">
<title>Dependencies</title>
<polygon fill="white" stroke="transparent" points="-4,4 -4,-490.13 550.11,-490.13 550.11,4 -4,4"/>
<text text-anchor="middle" x="273.05" y="-470.93" font-family="Helvetica,sans-Serif" font-size="14.00">co&#45;architect</text>
<!-- skill_co_architect -->
<g id="node1" class="node">
<title>skill_co_architect</title>
<ellipse fill="#c8e6c9" stroke="black" cx="65.05" cy="-279" rx="65.11" ry="21.43"/>
<text text-anchor="middle" x="65.05" y="-282" font-family="Helvetica,sans-Serif" font-size="10.00">twl:co&#45;architect</text>
<text text-anchor="middle" x="65.05" y="-271" font-family="Helvetica,sans-Serif" font-size="10.00">(1,357 tok)</text>
</g>
<!-- skill_ref_architecture -->
<g id="node2" class="node">
<title>skill_ref_architecture</title>
<polygon fill="#e1f5fe" stroke="black" points="527.11,-36 423.11,-36 423.11,0 533.11,0 533.11,-30 527.11,-36"/>
<polyline fill="none" stroke="black" points="527.11,-36 527.11,-30 "/>
<polyline fill="none" stroke="black" points="533.11,-30 527.11,-30 "/>
<text text-anchor="middle" x="478.11" y="-21" font-family="Helvetica,sans-Serif" font-size="10.00">twl:ref&#45;architecture</text>
<text text-anchor="middle" x="478.11" y="-10" font-family="Helvetica,sans-Serif" font-size="10.00">(2,234 tok)</text>
</g>
<!-- skill_co_architect&#45;&gt;skill_ref_architecture -->
<g id="edge8" class="edge">
<title>skill_co_architect&#45;&gt;skill_ref_architecture</title>
<path fill="none" stroke="black" d="M80.02,-299.84C100.1,-327.7 140.06,-375.81 188.11,-395 255.8,-422.04 296.49,-442.11 352.11,-395 471.75,-293.65 313.51,-170.51 410.11,-47 411.57,-45.13 413.17,-43.39 414.89,-41.75"/>
<polygon fill="black" stroke="black" points="417.41,-44.21 423.07,-35.26 413.06,-38.73 417.41,-44.21"/>
</g>
<!-- skill_ref_architecture_spec -->
<g id="node3" class="node">
<title>skill_ref_architecture_spec</title>
<polygon fill="#e1f5fe" stroke="black" points="540.11,-94 410.11,-94 410.11,-58 546.11,-58 546.11,-88 540.11,-94"/>
<polyline fill="none" stroke="black" points="540.11,-94 540.11,-88 "/>
<polyline fill="none" stroke="black" points="546.11,-88 540.11,-88 "/>
<text text-anchor="middle" x="478.11" y="-79" font-family="Helvetica,sans-Serif" font-size="10.00">twl:ref&#45;architecture&#45;spec</text>
<text text-anchor="middle" x="478.11" y="-68" font-family="Helvetica,sans-Serif" font-size="10.00">(1,180 tok)</text>
</g>
<!-- skill_co_architect&#45;&gt;skill_ref_architecture_spec -->
<g id="edge7" class="edge">
<title>skill_co_architect&#45;&gt;skill_ref_architecture_spec</title>
<path fill="none" stroke="black" d="M75.01,-300.18C91.41,-335.82 129.99,-406.68 188.11,-435 253.63,-466.93 292.69,-477.22 352.11,-435 461.89,-356.98 476.08,-175.2 477.32,-104.68"/>
<polygon fill="black" stroke="black" points="480.82,-104.38 477.42,-94.35 473.82,-104.32 480.82,-104.38"/>
</g>
<!-- cmd_architect_completeness_check -->
<g id="node4" class="node">
<title>cmd_architect_completeness_check</title>
<polygon fill="#e3f2fd" stroke="black" points="352.11,-326 188.11,-326 188.11,-290 352.11,-290 352.11,-326"/>
<text text-anchor="middle" x="270.11" y="-311" font-family="Helvetica,sans-Serif" font-size="10.00">architect&#45;completeness&#45;check</text>
<text text-anchor="middle" x="270.11" y="-300" font-family="Helvetica,sans-Serif" font-size="10.00">(672 tok)</text>
</g>
<!-- skill_co_architect&#45;&gt;cmd_architect_completeness_check -->
<g id="edge2" class="edge">
<title>skill_co_architect&#45;&gt;cmd_architect_completeness_check</title>
<path fill="none" stroke="black" d="M125.06,-287.43C141.66,-289.8 160.11,-292.43 178.11,-295"/>
<polygon fill="black" stroke="black" points="177.65,-298.47 188.05,-296.42 178.64,-291.54 177.65,-298.47"/>
</g>
<!-- cmd_architect_decompose -->
<g id="node5" class="node">
<title>cmd_architect_decompose</title>
<polygon fill="#e3f2fd" stroke="black" points="329.61,-268 210.61,-268 210.61,-232 329.61,-232 329.61,-268"/>
<text text-anchor="middle" x="270.11" y="-253" font-family="Helvetica,sans-Serif" font-size="10.00">architect&#45;decompose</text>
<text text-anchor="middle" x="270.11" y="-242" font-family="Helvetica,sans-Serif" font-size="10.00">(1,056 tok)</text>
</g>
<!-- skill_co_architect&#45;&gt;cmd_architect_decompose -->
<g id="edge3" class="edge">
<title>skill_co_architect&#45;&gt;cmd_architect_decompose</title>
<path fill="none" stroke="black" d="M125.06,-270.57C148.63,-267.21 175.92,-263.31 200.38,-259.82"/>
<polygon fill="black" stroke="black" points="200.9,-263.28 210.31,-258.4 199.91,-256.35 200.9,-263.28"/>
</g>
<!-- cmd_architect_group_refine -->
<g id="node6" class="node">
<title>cmd_architect_group_refine</title>
<polygon fill="#e3f2fd" stroke="black" points="331.11,-210 209.11,-210 209.11,-174 331.11,-174 331.11,-210"/>
<text text-anchor="middle" x="270.11" y="-195" font-family="Helvetica,sans-Serif" font-size="10.00">architect&#45;group&#45;refine</text>
<text text-anchor="middle" x="270.11" y="-184" font-family="Helvetica,sans-Serif" font-size="10.00">(1,102 tok)</text>
</g>
<!-- skill_co_architect&#45;&gt;cmd_architect_group_refine -->
<g id="edge4" class="edge">
<title>skill_co_architect&#45;&gt;cmd_architect_group_refine</title>
<path fill="none" stroke="black" d="M101.15,-261.18C125.32,-249.19 158.32,-233.37 188.11,-221 193.99,-218.56 200.16,-216.12 206.36,-213.76"/>
<polygon fill="black" stroke="black" points="207.95,-216.9 216.09,-210.12 205.5,-210.35 207.95,-216.9"/>
</g>
<!-- cmd_architect_issue_create -->
<g id="node7" class="node">
<title>cmd_architect_issue_create</title>
<polygon fill="#e3f2fd" stroke="black" points="331.61,-152 208.61,-152 208.61,-116 331.61,-116 331.61,-152"/>
<text text-anchor="middle" x="270.11" y="-137" font-family="Helvetica,sans-Serif" font-size="10.00">architect&#45;issue&#45;create</text>
<text text-anchor="middle" x="270.11" y="-126" font-family="Helvetica,sans-Serif" font-size="10.00">(1,481 tok)</text>
</g>
<!-- skill_co_architect&#45;&gt;cmd_architect_issue_create -->
<g id="edge5" class="edge">
<title>skill_co_architect&#45;&gt;cmd_architect_issue_create</title>
<path fill="none" stroke="black" d="M83.02,-258.24C104.91,-232.66 145.29,-189.36 188.11,-163 191.93,-160.65 195.97,-158.44 200.13,-156.39"/>
<polygon fill="black" stroke="black" points="201.75,-159.5 209.38,-152.14 198.83,-153.14 201.75,-159.5"/>
</g>
<!-- cmd_evaluate_architecture -->
<g id="node8" class="node">
<title>cmd_evaluate_architecture</title>
<polygon fill="#e3f2fd" stroke="black" points="331.11,-94 209.11,-94 209.11,-58 331.11,-58 331.11,-94"/>
<text text-anchor="middle" x="270.11" y="-79" font-family="Helvetica,sans-Serif" font-size="10.00">evaluate&#45;architecture</text>
<text text-anchor="middle" x="270.11" y="-68" font-family="Helvetica,sans-Serif" font-size="10.00">(825 tok)</text>
</g>
<!-- skill_co_architect&#45;&gt;cmd_evaluate_architecture -->
<g id="edge6" class="edge">
<title>skill_co_architect&#45;&gt;cmd_evaluate_architecture</title>
<path fill="none" stroke="black" d="M75.5,-257.88C92.76,-221.58 132.8,-147.17 188.11,-105 191.75,-102.22 195.68,-99.7 199.77,-97.4"/>
<polygon fill="black" stroke="black" points="201.63,-100.38 208.96,-92.73 198.46,-94.14 201.63,-100.38"/>
</g>
<!-- cmd_explore -->
<g id="node9" class="node">
<title>cmd_explore</title>
<polygon fill="#e3f2fd" stroke="black" points="305.11,-384 235.11,-384 235.11,-348 305.11,-348 305.11,-384"/>
<text text-anchor="middle" x="270.11" y="-369" font-family="Helvetica,sans-Serif" font-size="10.00">explore</text>
<text text-anchor="middle" x="270.11" y="-358" font-family="Helvetica,sans-Serif" font-size="10.00">(1,211 tok)</text>
</g>
<!-- skill_co_architect&#45;&gt;cmd_explore -->
<g id="edge1" class="edge">
<title>skill_co_architect&#45;&gt;cmd_explore</title>
<path fill="none" stroke="black" d="M101.15,-296.82C125.32,-308.81 158.32,-324.63 188.11,-337 200.08,-341.97 213.25,-346.91 225.42,-351.26"/>
<polygon fill="black" stroke="black" points="224.33,-354.59 234.93,-354.61 226.66,-347.98 224.33,-354.59"/>
</g>
<!-- skill_ref_architecture_spec&#45;&gt;skill_ref_architecture -->
<!-- cmd_architect_completeness_check&#45;&gt;cmd_architect_decompose -->
<!-- cmd_architect_decompose&#45;&gt;cmd_architect_group_refine -->
<!-- cmd_architect_group_refine&#45;&gt;cmd_architect_issue_create -->
<!-- cmd_architect_issue_create&#45;&gt;cmd_evaluate_architecture -->
<!-- cmd_evaluate_architecture&#45;&gt;skill_ref_architecture_spec -->
<!-- cmd_explore&#45;&gt;cmd_architect_completeness_check -->
</g>
</svg>
