<?xml version="1.0" encoding="UTF-8" standalone="no"?>
<!DOCTYPE svg PUBLIC "-//W3C//DTD SVG 1.1//EN"
 "http://www.w3.org/Graphics/SVG/1.1/DTD/svg11.dtd">
<!-- Generated by graphviz version 2.43.0 (0)
 -->
<!-- Title: Dependencies Pages: 1 -->
<svg width="484pt" height="357pt"
 viewBox="0.00 0.00 484.44 357.00" xmlns="http://www.w3.org/2000/svg" xmlns:xlink="http://www.w3.org/1999/xlink">
<g id="graph0" class="graph" transform="scale(1 1) rotate(0) translate(4 353)">
<title>Dependencies</title>
<polygon fill="white" stroke="transparent" points="-4,4 -4,-353 480.44,-353 480.44,4 -4,4"/>
<text text-anchor="middle" x="238.22" y="-333.8" font-family="Helvetica,sans-Serif" font-size="14.00">co&#45;utility</text>
<!-- skill_co_utility -->
<g id="node1" class="node">
<title>skill_co_utility</title>
<ellipse fill="#c8e6c9" stroke="black" cx="55.15" cy="-163" rx="55.31" ry="21.43"/>
<text text-anchor="middle" x="55.15" y="-166" font-family="Helvetica,sans-Serif" font-size="10.00">twl:co&#45;utility</text>
<text text-anchor="middle" x="55.15" y="-155" font-family="Helvetica,sans-Serif" font-size="10.00">(777 tok)</text>
</g>
<!-- cmd_worktree_list -->
<g id="node2" class="node">
<title>cmd_worktree_list</title>
<polygon fill="#e3f2fd" stroke="black" points="255.31,-326 176.31,-326 176.31,-290 255.31,-290 255.31,-326"/>
<text text-anchor="middle" x="215.81" y="-311" font-family="Helvetica,sans-Serif" font-size="10.00">worktree&#45;list</text>
<text text-anchor="middle" x="215.81" y="-300" font-family="Helvetica,sans-Serif" font-size="10.00">(200 tok)</text>
</g>
<!-- skill_co_utility&#45;&gt;cmd_worktree_list -->
<g id="edge1" class="edge">
<title>skill_co_utility&#45;&gt;cmd_worktree_list</title>
<path fill="none" stroke="black" d="M73.08,-183.34C93.97,-207.73 131.28,-249.06 168.31,-279 170.53,-280.79 172.87,-282.57 175.26,-284.3"/>
<polygon fill="black" stroke="black" points="173.34,-287.22 183.56,-289.99 177.3,-281.45 173.34,-287.22"/>
</g>
<!-- cmd_twl_validate -->
<g id="node3" class="node">
<title>cmd_twl_validate</title>
<polygon fill="#e3f2fd" stroke="black" points="252.81,-210 178.81,-210 178.81,-174 252.81,-174 252.81,-210"/>
<text text-anchor="middle" x="215.81" y="-195" font-family="Helvetica,sans-Serif" font-size="10.00">twl&#45;validate</text>
<text text-anchor="middle" x="215.81" y="-184" font-family="Helvetica,sans-Serif" font-size="10.00">(886 tok)</text>
</g>
<!-- skill_co_utility&#45;&gt;cmd_twl_validate -->
<g id="edge3" class="edge">
<title>skill_co_utility&#45;&gt;cmd_twl_validate</title>
<path fill="none" stroke="black" d="M105.48,-172.02C125.62,-175.7 148.79,-179.93 168.6,-183.55"/>
<polygon fill="black" stroke="black" points="168.15,-187.03 178.62,-185.38 169.41,-180.14 168.15,-187.03"/>
</g>
<!-- cmd_services -->
<g id="node4" class="node">
<title>cmd_services</title>
<polygon fill="#e3f2fd" stroke="black" points="246.31,-152 185.31,-152 185.31,-116 246.31,-116 246.31,-152"/>
<text text-anchor="middle" x="215.81" y="-137" font-family="Helvetica,sans-Serif" font-size="10.00">services</text>
<text text-anchor="middle" x="215.81" y="-126" font-family="Helvetica,sans-Serif" font-size="10.00">(967 tok)</text>
</g>
<!-- skill_co_utility&#45;&gt;cmd_services -->
<g id="edge4" class="edge">
<title>skill_co_utility&#45;&gt;cmd_services</title>
<path fill="none" stroke="black" d="M105.48,-153.98C127.84,-149.9 153.93,-145.13 175.01,-141.28"/>
<polygon fill="black" stroke="black" points="175.71,-144.7 184.92,-139.46 174.45,-137.82 175.71,-144.7"/>
</g>
<!-- cmd_ui_capture -->
<g id="node5" class="node">
<title>cmd_ui_capture</title>
<polygon fill="#e3f2fd" stroke="black" points="248.81,-94 182.81,-94 182.81,-58 248.81,-58 248.81,-94"/>
<text text-anchor="middle" x="215.81" y="-79" font-family="Helvetica,sans-Serif" font-size="10.00">ui&#45;capture</text>
<text text-anchor="middle" x="215.81" y="-68" font-family="Helvetica,sans-Serif" font-size="10.00">(637 tok)</text>
</g>
<!-- skill_co_utility&#45;&gt;cmd_ui_capture -->
<g id="edge5" class="edge">
<title>skill_co_utility&#45;&gt;cmd_ui_capture</title>
<path fill="none" stroke="black" d="M87.5,-145.81C112.25,-132.24 146.97,-113.2 173.9,-98.43"/>
<polygon fill="black" stroke="black" points="175.63,-101.48 182.71,-93.6 172.26,-95.34 175.63,-101.48"/>
</g>
<!-- cmd_worktree_delete -->
<g id="node6" class="node">
<title>cmd_worktree_delete</title>
<polygon fill="#e3f2fd" stroke="black" points="263.31,-268 168.31,-268 168.31,-232 263.31,-232 263.31,-268"/>
<text text-anchor="middle" x="215.81" y="-253" font-family="Helvetica,sans-Serif" font-size="10.00">worktree&#45;delete</text>
<text text-anchor="middle" x="215.81" y="-242" font-family="Helvetica,sans-Serif" font-size="10.00">(408 tok)</text>
</g>
<!-- skill_co_utility&#45;&gt;cmd_worktree_delete -->
<g id="edge2" class="edge">
<title>skill_co_utility&#45;&gt;cmd_worktree_delete</title>
<path fill="none" stroke="black" d="M87.5,-180.19C112,-193.62 146.29,-212.43 173.11,-227.13"/>
<polygon fill="black" stroke="black" points="171.44,-230.21 181.89,-231.95 174.8,-224.07 171.44,-230.21"/>
</g>
<!-- cmd_schema_update -->
<g id="node7" class="node">
<title>cmd_schema_update</title>
<polygon fill="#e3f2fd" stroke="black" points="261.81,-36 169.81,-36 169.81,0 261.81,0 261.81,-36"/>
<text text-anchor="middle" x="215.81" y="-21" font-family="Helvetica,sans-Serif" font-size="10.00">schema&#45;update</text>
<text text-anchor="middle" x="215.81" y="-10" font-family="Helvetica,sans-Serif" font-size="10.00">(498 tok)</text>
</g>
<!-- skill_co_utility&#45;&gt;cmd_schema_update -->
<g id="edge6" class="edge">
<title>skill_co_utility&#45;&gt;cmd_schema_update</title>
<path fill="none" stroke="black" d="M73.08,-142.66C93.97,-118.27 131.28,-76.94 168.31,-47 170.53,-45.21 172.87,-43.43 175.26,-41.7"/>
<polygon fill="black" stroke="black" points="177.3,-44.55 183.56,-36.01 173.34,-38.78 177.3,-44.55"/>
</g>
<!-- cmd_worktree_list&#45;&gt;cmd_worktree_delete -->
<!-- cmd_twl_validate&#45;&gt;cmd_services -->
<!-- cmd_services&#45;&gt;cmd_ui_capture -->
<!-- cmd_ui_capture&#45;&gt;cmd_schema_update -->
<!-- cmd_worktree_delete&#45;&gt;cmd_twl_validate -->
<!-- script_worktree_delete -->
<g id="node8" class="node">
<title>script_worktree_delete</title>
<polygon fill="#ff9800" stroke="black" points="476.51,-250 437.69,-274.49 360.06,-274.49 321.24,-250 360.06,-225.51 437.69,-225.51 476.51,-250"/>
<text text-anchor="middle" x="398.88" y="-253" font-family="Helvetica,sans-Serif" font-size="10.00">worktree&#45;delete</text>
<text text-anchor="middle" x="398.88" y="-242" font-family="Helvetica,sans-Serif" font-size="10.00">(998 tok)</text>
</g>
<!-- cmd_worktree_delete&#45;&gt;script_worktree_delete -->
<g id="edge7" class="edge">
<title>cmd_worktree_delete&#45;&gt;script_worktree_delete</title>
<path fill="none" stroke="black" d="M263.44,-250C278.02,-250 294.6,-250 311.02,-250"/>
<polygon fill="black" stroke="black" points="311.2,-253.5 321.2,-250 311.2,-246.5 311.2,-253.5"/>
</g>
</g>
</svg>
