<?xml version="1.0" encoding="UTF-8" standalone="no"?>
<!DOCTYPE svg PUBLIC "-//W3C//DTD SVG 1.1//EN"
 "http://www.w3.org/Graphics/SVG/1.1/DTD/svg11.dtd">
<!-- Generated by graphviz version 2.43.0 (0)
 -->
<!-- Title: Dependencies Pages: 1 -->
<svg width="795pt" height="476pt"
 viewBox="0.00 0.00 794.94 475.99" xmlns="http://www.w3.org/2000/svg" xmlns:xlink="http://www.w3.org/1999/xlink">
<g id="graph0" class="graph" transform="scale(1 1) rotate(0) translate(4 471.99)">
<title>Dependencies</title>
<polygon fill="white" stroke="transparent" points="-4,4 -4,-471.99 790.94,-471.99 790.94,4 -4,4"/>
<text text-anchor="middle" x="393.47" y="-452.79" font-family="Helvetica,sans-Serif" font-size="14.00">workflow&#45;pr&#45;fix</text>
<!-- skill_workflow_pr_fix -->
<g id="node1" class="node">
<title>skill_workflow_pr_fix</title>
<ellipse fill="#e8f5e9" stroke="black" cx="76.37" cy="-198.49" rx="76.24" ry="21.43"/>
<text text-anchor="middle" x="76.37" y="-201.49" font-family="Helvetica,sans-Serif" font-size="10.00">twl:workflow&#45;pr&#45;fix</text>
<text text-anchor="middle" x="76.37" y="-190.49" font-family="Helvetica,sans-Serif" font-size="10.00">(1,433 tok)</text>
</g>
<!-- cmd_post_fix_verify -->
<g id="node2" class="node">
<title>cmd_post_fix_verify</title>
<polygon fill="#bbdefb" stroke="black" points="294.74,-216.49 210.74,-216.49 210.74,-180.49 294.74,-180.49 294.74,-216.49"/>
<text text-anchor="middle" x="252.74" y="-201.49" font-family="Helvetica,sans-Serif" font-size="10.00">post&#45;fix&#45;verify</text>
<text text-anchor="middle" x="252.74" y="-190.49" font-family="Helvetica,sans-Serif" font-size="10.00">(756 tok)</text>
</g>
<!-- skill_workflow_pr_fix&#45;&gt;cmd_post_fix_verify -->
<g id="edge2" class="edge">
<title>skill_workflow_pr_fix&#45;&gt;cmd_post_fix_verify</title>
<path fill="none" stroke="black" d="M152.83,-198.49C168.99,-198.49 185.69,-198.49 200.66,-198.49"/>
<polygon fill="black" stroke="black" points="200.72,-201.99 210.72,-198.49 200.72,-194.99 200.72,-201.99"/>
</g>
<!-- cmd_warning_fix -->
<g id="node3" class="node">
<title>cmd_warning_fix</title>
<polygon fill="#e3f2fd" stroke="black" points="288.24,-158.49 217.24,-158.49 217.24,-122.49 288.24,-122.49 288.24,-158.49"/>
<text text-anchor="middle" x="252.74" y="-143.49" font-family="Helvetica,sans-Serif" font-size="10.00">warning&#45;fix</text>
<text text-anchor="middle" x="252.74" y="-132.49" font-family="Helvetica,sans-Serif" font-size="10.00">(461 tok)</text>
</g>
<!-- skill_workflow_pr_fix&#45;&gt;cmd_warning_fix -->
<g id="edge3" class="edge">
<title>skill_workflow_pr_fix&#45;&gt;cmd_warning_fix</title>
<path fill="none" stroke="black" d="M125.94,-182.34C151.56,-173.82 182.75,-163.44 207.67,-155.15"/>
<polygon fill="black" stroke="black" points="208.85,-158.45 217.23,-151.97 206.64,-151.81 208.85,-158.45"/>
</g>
<!-- cmd_fix_phase -->
<g id="node4" class="node">
<title>cmd_fix_phase</title>
<polygon fill="#bbdefb" stroke="black" points="283.74,-274.49 221.74,-274.49 221.74,-238.49 283.74,-238.49 283.74,-274.49"/>
<text text-anchor="middle" x="252.74" y="-259.49" font-family="Helvetica,sans-Serif" font-size="10.00">fix&#45;phase</text>
<text text-anchor="middle" x="252.74" y="-248.49" font-family="Helvetica,sans-Serif" font-size="10.00">(552 tok)</text>
</g>
<!-- skill_workflow_pr_fix&#45;&gt;cmd_fix_phase -->
<g id="edge1" class="edge">
<title>skill_workflow_pr_fix&#45;&gt;cmd_fix_phase</title>
<path fill="none" stroke="black" d="M125.94,-214.65C152.98,-223.65 186.24,-234.71 211.76,-243.2"/>
<polygon fill="black" stroke="black" points="210.89,-246.6 221.49,-246.43 213.1,-239.96 210.89,-246.6"/>
</g>
<!-- cmd_post_fix_verify&#45;&gt;cmd_warning_fix -->
<!-- agent_worker_codex_reviewer -->
<g id="node5" class="node">
<title>agent_worker_codex_reviewer</title>
<ellipse fill="#ede7f6" stroke="black" cx="451.02" cy="-166.49" rx="91.43" ry="21.43"/>
<text text-anchor="middle" x="451.02" y="-169.49" font-family="Helvetica,sans-Serif" font-size="10.00">worker&#45;codex&#45;reviewer</text>
<text text-anchor="middle" x="451.02" y="-158.49" font-family="Helvetica,sans-Serif" font-size="10.00">(1,827 tok)</text>
</g>
<!-- cmd_post_fix_verify&#45;&gt;agent_worker_codex_reviewer -->
<g id="edge6" class="edge">
<title>cmd_post_fix_verify&#45;&gt;agent_worker_codex_reviewer</title>
<path fill="none" stroke="black" stroke-dasharray="5,2" d="M294.88,-191.79C315.43,-188.44 341.09,-184.25 365.58,-180.26"/>
<polygon fill="black" stroke="black" points="366.32,-183.69 375.62,-178.62 365.19,-176.78 366.32,-183.69"/>
</g>
<!-- agent_worker_code_reviewer -->
<g id="node6" class="node">
<title>agent_worker_code_reviewer</title>
<ellipse fill="#ede7f6" stroke="black" cx="451.02" cy="-294.49" rx="86.95" ry="21.43"/>
<text text-anchor="middle" x="451.02" y="-297.49" font-family="Helvetica,sans-Serif" font-size="10.00">worker&#45;code&#45;reviewer</text>
<text text-anchor="middle" x="451.02" y="-286.49" font-family="Helvetica,sans-Serif" font-size="10.00">(1,002 tok)</text>
</g>
<!-- cmd_post_fix_verify&#45;&gt;agent_worker_code_reviewer -->
<g id="edge4" class="edge">
<title>cmd_post_fix_verify&#45;&gt;agent_worker_code_reviewer</title>
<path fill="none" stroke="black" stroke-dasharray="5,2" d="M280.2,-216.7C304.29,-233.07 338.24,-255.57 352.74,-262.49 362.5,-267.16 373.12,-271.42 383.64,-275.2"/>
<polygon fill="black" stroke="black" points="382.65,-278.56 393.24,-278.53 384.94,-271.94 382.65,-278.56"/>
</g>
<!-- agent_worker_security_reviewer -->
<g id="node7" class="node">
<title>agent_worker_security_reviewer</title>
<ellipse fill="#ede7f6" stroke="black" cx="451.02" cy="-230.49" rx="98.08" ry="21.43"/>
<text text-anchor="middle" x="451.02" y="-233.49" font-family="Helvetica,sans-Serif" font-size="10.00">worker&#45;security&#45;reviewer</text>
<text text-anchor="middle" x="451.02" y="-222.49" font-family="Helvetica,sans-Serif" font-size="10.00">(866 tok)</text>
</g>
<!-- cmd_post_fix_verify&#45;&gt;agent_worker_security_reviewer -->
<g id="edge5" class="edge">
<title>cmd_post_fix_verify&#45;&gt;agent_worker_security_reviewer</title>
<path fill="none" stroke="black" stroke-dasharray="5,2" d="M294.88,-205.2C314.46,-208.39 338.66,-212.34 362.08,-216.16"/>
<polygon fill="black" stroke="black" points="361.62,-219.63 372.06,-217.78 362.75,-212.72 361.62,-219.63"/>
</g>
<!-- script_autopilot_parser -->
<g id="node9" class="node">
<title>script_autopilot_parser</title>
<polygon fill="#ff9800" stroke="black" points="774.76,-95.49 735.94,-119.98 658.31,-119.98 619.49,-95.49 658.31,-71.01 735.94,-71.01 774.76,-95.49"/>
<text text-anchor="middle" x="697.13" y="-98.49" font-family="Helvetica,sans-Serif" font-size="10.00">autopilot&#45;parser</text>
<text text-anchor="middle" x="697.13" y="-87.49" font-family="Helvetica,sans-Serif" font-size="10.00">(2,484 tok)</text>
</g>
<!-- cmd_post_fix_verify&#45;&gt;script_autopilot_parser -->
<g id="edge8" class="edge">
<title>cmd_post_fix_verify&#45;&gt;script_autopilot_parser</title>
<path fill="none" stroke="black" d="M280.56,-180.25C285.36,-176.78 290.25,-173.1 294.74,-169.49 321.93,-147.59 320.58,-130.12 352.74,-116.49 439.75,-79.63 550.37,-80.31 622.19,-86.21"/>
<polygon fill="black" stroke="black" points="622.22,-89.73 632.49,-87.12 622.84,-82.75 622.22,-89.73"/>
</g>
<!-- script_pr_review_manifest -->
<g id="node11" class="node">
<title>script_pr_review_manifest</title>
<polygon fill="#ff9800" stroke="black" points="786.76,-166.49 741.94,-190.98 652.31,-190.98 607.5,-166.49 652.31,-142.01 741.94,-142.01 786.76,-166.49"/>
<text text-anchor="middle" x="697.13" y="-169.49" font-family="Helvetica,sans-Serif" font-size="10.00">pr&#45;review&#45;manifest</text>
<text text-anchor="middle" x="697.13" y="-158.49" font-family="Helvetica,sans-Serif" font-size="10.00">(1,864 tok)</text>
</g>
<!-- cmd_post_fix_verify&#45;&gt;script_pr_review_manifest -->
<g id="edge7" class="edge">
<title>cmd_post_fix_verify&#45;&gt;script_pr_review_manifest</title>
<path fill="none" stroke="black" d="M280.27,-180.23C306.79,-162.16 344.74,-136.86 352.74,-134.49 446.19,-106.92 559.61,-127.34 629.83,-145.87"/>
<polygon fill="black" stroke="black" points="629.3,-149.35 639.87,-148.59 631.13,-142.6 629.3,-149.35"/>
</g>
<!-- cmd_fix_phase&#45;&gt;cmd_post_fix_verify -->
<!-- script_checkpoint_read -->
<g id="node12" class="node">
<title>script_checkpoint_read</title>
<polygon fill="#ff9800" stroke="black" points="774.76,-349.49 735.94,-373.98 658.31,-373.98 619.49,-349.49 658.31,-325.01 735.94,-325.01 774.76,-349.49"/>
<text text-anchor="middle" x="697.13" y="-352.49" font-family="Helvetica,sans-Serif" font-size="10.00">checkpoint&#45;read</text>
<text text-anchor="middle" x="697.13" y="-341.49" font-family="Helvetica,sans-Serif" font-size="10.00">(2,864 tok)</text>
</g>
<!-- cmd_fix_phase&#45;&gt;script_checkpoint_read -->
<g id="edge9" class="edge">
<title>cmd_fix_phase&#45;&gt;script_checkpoint_read</title>
<path fill="none" stroke="black" d="M272.37,-274.52C291.03,-291.31 321.39,-315.37 352.74,-326.49 439.94,-357.46 547.32,-359.37 618.54,-356.06"/>
<polygon fill="black" stroke="black" points="618.97,-359.54 628.78,-355.53 618.62,-352.55 618.97,-359.54"/>
</g>
<!-- agent_worker_codex_reviewer&#45;&gt;script_pr_review_manifest -->
<!-- agent_worker_code_reviewer&#45;&gt;agent_worker_security_reviewer -->
<!-- agent_worker_code_reviewer&#45;&gt;agent_worker_security_reviewer -->
<!-- agent_worker_code_reviewer&#45;&gt;agent_worker_security_reviewer -->
<!-- agent_worker_security_reviewer&#45;&gt;agent_worker_codex_reviewer -->
<!-- script_tech_stack_detect -->
<g id="node8" class="node">
<title>script_tech_stack_detect</title>
<polygon fill="#ff9800" stroke="black" points="780.19,-24.49 738.66,-48.98 655.59,-48.98 614.06,-24.49 655.59,-0.01 738.66,-0.01 780.19,-24.49"/>
<text text-anchor="middle" x="697.13" y="-27.49" font-family="Helvetica,sans-Serif" font-size="10.00">tech&#45;stack&#45;detect</text>
<text text-anchor="middle" x="697.13" y="-16.49" font-family="Helvetica,sans-Serif" font-size="10.00">(539 tok)</text>
</g>
<!-- script_autopilot_parser&#45;&gt;script_tech_stack_detect -->
<!-- script_autopilot_parser&#45;&gt;script_tech_stack_detect -->
<!-- script_resolve_issue_num -->
<g id="node10" class="node">
<title>script_resolve_issue_num</title>
<polygon fill="#ff9800" stroke="black" points="784.36,-420.49 740.74,-444.98 653.51,-444.98 609.89,-420.49 653.51,-396.01 740.74,-396.01 784.36,-420.49"/>
<text text-anchor="middle" x="697.13" y="-423.49" font-family="Helvetica,sans-Serif" font-size="10.00">resolve&#45;issue&#45;num</text>
<text text-anchor="middle" x="697.13" y="-412.49" font-family="Helvetica,sans-Serif" font-size="10.00">(716 tok)</text>
</g>
<!-- script_pr_review_manifest&#45;&gt;script_autopilot_parser -->
<!-- script_pr_review_manifest&#45;&gt;script_autopilot_parser -->
</g>
</svg>
