<?xml version="1.0" encoding="UTF-8" standalone="no"?>
<!DOCTYPE svg PUBLIC "-//W3C//DTD SVG 1.1//EN"
 "http://www.w3.org/Graphics/SVG/1.1/DTD/svg11.dtd">
<!-- Generated by graphviz version 2.43.0 (0)
 -->
<!-- Title: Dependencies Pages: 1 -->
<svg width="480pt" height="247pt"
 viewBox="0.00 0.00 480.20 247.49" xmlns="http://www.w3.org/2000/svg" xmlns:xlink="http://www.w3.org/1999/xlink">
<g id="graph0" class="graph" transform="scale(1 1) rotate(0) translate(4 243.49)">
<title>Dependencies</title>
<polygon fill="white" stroke="transparent" points="-4,4 -4,-243.49 476.2,-243.49 476.2,4 -4,4"/>
<text text-anchor="middle" x="236.1" y="-224.29" font-family="Helvetica,sans-Serif" font-size="14.00">workflow&#45;pr&#45;fix</text>
<!-- skill_workflow_pr_fix -->
<g id="node1" class="node">
<title>skill_workflow_pr_fix</title>
<ellipse fill="#e8f5e9" stroke="black" cx="67.88" cy="-105" rx="67.76" ry="21.43"/>
<text text-anchor="middle" x="67.88" y="-108" font-family="Helvetica,sans-Serif" font-size="10.00">twl:workflow&#45;pr&#45;fix</text>
<text text-anchor="middle" x="67.88" y="-97" font-family="Helvetica,sans-Serif" font-size="10.00">(863 tok)</text>
</g>
<!-- cmd_post_fix_verify -->
<g id="node2" class="node">
<title>cmd_post_fix_verify</title>
<polygon fill="#e3f2fd" stroke="black" points="271.76,-152 195.76,-152 195.76,-116 271.76,-116 271.76,-152"/>
<text text-anchor="middle" x="233.76" y="-137" font-family="Helvetica,sans-Serif" font-size="10.00">post&#45;fix&#45;verify</text>
<text text-anchor="middle" x="233.76" y="-126" font-family="Helvetica,sans-Serif" font-size="10.00">(353 tok)</text>
</g>
<!-- skill_workflow_pr_fix&#45;&gt;cmd_post_fix_verify -->
<g id="edge2" class="edge">
<title>skill_workflow_pr_fix&#45;&gt;cmd_post_fix_verify</title>
<path fill="none" stroke="black" d="M127.58,-115.39C146.56,-118.75 167.35,-122.42 185.4,-125.62"/>
<polygon fill="black" stroke="black" points="184.93,-129.09 195.39,-127.39 186.15,-122.2 184.93,-129.09"/>
</g>
<!-- cmd_warning_fix -->
<g id="node3" class="node">
<title>cmd_warning_fix</title>
<polygon fill="#e3f2fd" stroke="black" points="265.76,-94 201.76,-94 201.76,-58 265.76,-58 265.76,-94"/>
<text text-anchor="middle" x="233.76" y="-79" font-family="Helvetica,sans-Serif" font-size="10.00">warning&#45;fix</text>
<text text-anchor="middle" x="233.76" y="-68" font-family="Helvetica,sans-Serif" font-size="10.00">(363 tok)</text>
</g>
<!-- skill_workflow_pr_fix&#45;&gt;cmd_warning_fix -->
<g id="edge3" class="edge">
<title>skill_workflow_pr_fix&#45;&gt;cmd_warning_fix</title>
<path fill="none" stroke="black" d="M127.58,-94.61C148.76,-90.87 172.19,-86.72 191.56,-83.29"/>
<polygon fill="black" stroke="black" points="192.33,-86.71 201.57,-81.52 191.11,-79.82 192.33,-86.71"/>
</g>
<!-- cmd_fix_phase -->
<g id="node4" class="node">
<title>cmd_fix_phase</title>
<polygon fill="#bbdefb" stroke="black" points="261.76,-210 205.76,-210 205.76,-174 261.76,-174 261.76,-210"/>
<text text-anchor="middle" x="233.76" y="-195" font-family="Helvetica,sans-Serif" font-size="10.00">fix&#45;phase</text>
<text text-anchor="middle" x="233.76" y="-184" font-family="Helvetica,sans-Serif" font-size="10.00">(532 tok)</text>
</g>
<!-- skill_workflow_pr_fix&#45;&gt;cmd_fix_phase -->
<g id="edge1" class="edge">
<title>skill_workflow_pr_fix&#45;&gt;cmd_fix_phase</title>
<path fill="none" stroke="black" d="M103.24,-123.24C130.64,-137.79 168.92,-158.11 196.75,-172.88"/>
<polygon fill="black" stroke="black" points="195.28,-176.07 205.76,-177.66 198.57,-169.88 195.28,-176.07"/>
</g>
<!-- cmd_spec_diagnose -->
<g id="node5" class="node">
<title>cmd_spec_diagnose</title>
<polygon fill="#e3f2fd" stroke="black" points="273.76,-36 193.76,-36 193.76,0 273.76,0 273.76,-36"/>
<text text-anchor="middle" x="233.76" y="-21" font-family="Helvetica,sans-Serif" font-size="10.00">spec&#45;diagnose</text>
<text text-anchor="middle" x="233.76" y="-10" font-family="Helvetica,sans-Serif" font-size="10.00">(634 tok)</text>
</g>
<!-- skill_workflow_pr_fix&#45;&gt;cmd_spec_diagnose -->
<g id="edge4" class="edge">
<title>skill_workflow_pr_fix&#45;&gt;cmd_spec_diagnose</title>
<path fill="none" stroke="black" d="M103.24,-86.76C128.45,-73.38 162.86,-55.11 189.88,-40.77"/>
<polygon fill="black" stroke="black" points="191.54,-43.85 198.74,-36.06 188.26,-37.66 191.54,-43.85"/>
</g>
<!-- cmd_post_fix_verify&#45;&gt;cmd_warning_fix -->
<!-- cmd_warning_fix&#45;&gt;cmd_spec_diagnose -->
<!-- cmd_fix_phase&#45;&gt;cmd_post_fix_verify -->
<!-- script_checkpoint_read -->
<g id="node6" class="node">
<title>script_checkpoint_read</title>
<polygon fill="#ff9800" stroke="black" points="472.42,-192 437.2,-216.49 366.76,-216.49 331.55,-192 366.76,-167.51 437.2,-167.51 472.42,-192"/>
<text text-anchor="middle" x="401.98" y="-195" font-family="Helvetica,sans-Serif" font-size="10.00">checkpoint&#45;read</text>
<text text-anchor="middle" x="401.98" y="-184" font-family="Helvetica,sans-Serif" font-size="10.00">(2,418 tok)</text>
</g>
<!-- cmd_fix_phase&#45;&gt;script_checkpoint_read -->
<g id="edge5" class="edge">
<title>cmd_fix_phase&#45;&gt;script_checkpoint_read</title>
<path fill="none" stroke="black" d="M261.84,-192C278.2,-192 299.98,-192 321.44,-192"/>
<polygon fill="black" stroke="black" points="321.6,-195.5 331.6,-192 321.6,-188.5 321.6,-195.5"/>
</g>
</g>
</svg>
