<?xml version="1.0" encoding="UTF-8" standalone="no"?>
<!DOCTYPE svg PUBLIC "-//W3C//DTD SVG 1.1//EN"
 "http://www.w3.org/Graphics/SVG/1.1/DTD/svg11.dtd">
<!-- Generated by graphviz version 2.43.0 (0)
 -->
<!-- Title: Dependencies Pages: 1 -->
<svg width="793pt" height="417pt"
 viewBox="0.00 0.00 793.24 417.31" xmlns="http://www.w3.org/2000/svg" xmlns:xlink="http://www.w3.org/1999/xlink">
<g id="graph0" class="graph" transform="scale(1 1) rotate(0) translate(4 413.31)">
<title>Dependencies</title>
<polygon fill="white" stroke="transparent" points="-4,4 -4,-413.31 789.24,-413.31 789.24,4 -4,4"/>
<text text-anchor="middle" x="392.62" y="-394.11" font-family="Helvetica,sans-Serif" font-size="14.00">workflow&#45;plugin&#45;diagnose</text>
<!-- skill_workflow_plugin_diagnose -->
<g id="node1" class="node">
<title>skill_workflow_plugin_diagnose</title>
<ellipse fill="#e8f5e9" stroke="black" cx="100.41" cy="-223.31" rx="100.32" ry="21.43"/>
<text text-anchor="middle" x="100.41" y="-226.31" font-family="Helvetica,sans-Serif" font-size="10.00">twl:workflow&#45;plugin&#45;diagnose</text>
<text text-anchor="middle" x="100.41" y="-215.31" font-family="Helvetica,sans-Serif" font-size="10.00">(683 tok)</text>
</g>
<!-- cmd_plugin_migrate_analyze -->
<g id="node4" class="node">
<title>cmd_plugin_migrate_analyze</title>
<polygon fill="#e3f2fd" stroke="black" points="372.82,-386.31 258.82,-386.31 258.82,-350.31 372.82,-350.31 372.82,-386.31"/>
<text text-anchor="middle" x="315.82" y="-371.31" font-family="Helvetica,sans-Serif" font-size="10.00">plugin&#45;migrate&#45;analyze</text>
<text text-anchor="middle" x="315.82" y="-360.31" font-family="Helvetica,sans-Serif" font-size="10.00">(458 tok)</text>
</g>
<!-- skill_workflow_plugin_diagnose&#45;&gt;cmd_plugin_migrate_analyze -->
<g id="edge1" class="edge">
<title>skill_workflow_plugin_diagnose&#45;&gt;cmd_plugin_migrate_analyze</title>
<path fill="none" stroke="black" d="M126.71,-243.9C157.11,-268.16 210.1,-309.01 258.82,-339.31 262.12,-341.37 265.59,-343.41 269.11,-345.41"/>
<polygon fill="black" stroke="black" points="267.46,-348.49 277.91,-350.25 270.83,-342.36 267.46,-348.49"/>
</g>
<!-- cmd_plugin_diagnose -->
<g id="node5" class="node">
<title>cmd_plugin_diagnose</title>
<polygon fill="#e3f2fd" stroke="black" points="357.82,-328.31 273.82,-328.31 273.82,-292.31 357.82,-292.31 357.82,-328.31"/>
<text text-anchor="middle" x="315.82" y="-313.31" font-family="Helvetica,sans-Serif" font-size="10.00">plugin&#45;diagnose</text>
<text text-anchor="middle" x="315.82" y="-302.31" font-family="Helvetica,sans-Serif" font-size="10.00">(944 tok)</text>
</g>
<!-- skill_workflow_plugin_diagnose&#45;&gt;cmd_plugin_diagnose -->
<g id="edge2" class="edge">
<title>skill_workflow_plugin_diagnose&#45;&gt;cmd_plugin_diagnose</title>
<path fill="none" stroke="black" d="M147.45,-242.08C181.73,-256.05 228.5,-275.12 263.89,-289.55"/>
<polygon fill="black" stroke="black" points="262.97,-292.95 273.55,-293.49 265.61,-286.47 262.97,-292.95"/>
</g>
<!-- cmd_plugin_fix -->
<g id="node6" class="node">
<title>cmd_plugin_fix</title>
<polygon fill="#e3f2fd" stroke="black" points="347.32,-212.31 284.32,-212.31 284.32,-176.31 347.32,-176.31 347.32,-212.31"/>
<text text-anchor="middle" x="315.82" y="-197.31" font-family="Helvetica,sans-Serif" font-size="10.00">plugin&#45;fix</text>
<text text-anchor="middle" x="315.82" y="-186.31" font-family="Helvetica,sans-Serif" font-size="10.00">(1,074 tok)</text>
</g>
<!-- skill_workflow_plugin_diagnose&#45;&gt;cmd_plugin_fix -->
<g id="edge4" class="edge">
<title>skill_workflow_plugin_diagnose&#45;&gt;cmd_plugin_fix</title>
<path fill="none" stroke="black" d="M185.45,-211.89C215.86,-207.76 248.85,-203.27 273.91,-199.87"/>
<polygon fill="black" stroke="black" points="274.69,-203.3 284.13,-198.48 273.75,-196.36 274.69,-203.3"/>
</g>
<!-- cmd_plugin_verify -->
<g id="node7" class="node">
<title>cmd_plugin_verify</title>
<polygon fill="#e3f2fd" stroke="black" points="350.32,-154.31 281.32,-154.31 281.32,-118.31 350.32,-118.31 350.32,-154.31"/>
<text text-anchor="middle" x="315.82" y="-139.31" font-family="Helvetica,sans-Serif" font-size="10.00">plugin&#45;verify</text>
<text text-anchor="middle" x="315.82" y="-128.31" font-family="Helvetica,sans-Serif" font-size="10.00">(518 tok)</text>
</g>
<!-- skill_workflow_plugin_diagnose&#45;&gt;cmd_plugin_verify -->
<g id="edge5" class="edge">
<title>skill_workflow_plugin_diagnose&#45;&gt;cmd_plugin_verify</title>
<path fill="none" stroke="black" d="M147.45,-204.54C184.35,-189.5 235.73,-168.55 271.8,-153.85"/>
<polygon fill="black" stroke="black" points="273.14,-157.08 281.08,-150.06 270.5,-150.6 273.14,-157.08"/>
</g>
<!-- cmd_plugin_phase_diagnose -->
<g id="node8" class="node">
<title>cmd_plugin_phase_diagnose</title>
<polygon fill="#bbdefb" stroke="black" points="372.32,-270.31 259.32,-270.31 259.32,-234.31 372.32,-234.31 372.32,-270.31"/>
<text text-anchor="middle" x="315.82" y="-255.31" font-family="Helvetica,sans-Serif" font-size="10.00">plugin&#45;phase&#45;diagnose</text>
<text text-anchor="middle" x="315.82" y="-244.31" font-family="Helvetica,sans-Serif" font-size="10.00">(631 tok)</text>
</g>
<!-- skill_workflow_plugin_diagnose&#45;&gt;cmd_plugin_phase_diagnose -->
<g id="edge3" class="edge">
<title>skill_workflow_plugin_diagnose&#45;&gt;cmd_plugin_phase_diagnose</title>
<path fill="none" stroke="black" d="M185.45,-234.73C206.6,-237.61 229,-240.65 249.11,-243.38"/>
<polygon fill="black" stroke="black" points="248.71,-246.86 259.09,-244.74 249.65,-239.92 248.71,-246.86"/>
</g>
<!-- cmd_plugin_phase_verify -->
<g id="node9" class="node">
<title>cmd_plugin_phase_verify</title>
<polygon fill="#bbdefb" stroke="black" points="364.82,-96.31 266.82,-96.31 266.82,-60.31 364.82,-60.31 364.82,-96.31"/>
<text text-anchor="middle" x="315.82" y="-81.31" font-family="Helvetica,sans-Serif" font-size="10.00">plugin&#45;phase&#45;verify</text>
<text text-anchor="middle" x="315.82" y="-70.31" font-family="Helvetica,sans-Serif" font-size="10.00">(634 tok)</text>
</g>
<!-- skill_workflow_plugin_diagnose&#45;&gt;cmd_plugin_phase_verify -->
<g id="edge6" class="edge">
<title>skill_workflow_plugin_diagnose&#45;&gt;cmd_plugin_phase_verify</title>
<path fill="none" stroke="black" d="M126.71,-202.72C157.11,-178.46 210.1,-137.61 258.82,-107.31 262.12,-105.26 265.59,-103.21 269.11,-101.22"/>
<polygon fill="black" stroke="black" points="270.83,-104.26 277.91,-96.37 267.46,-98.13 270.83,-104.26"/>
</g>
<!-- skill_ref_specialist_output_schema -->
<g id="node2" class="node">
<title>skill_ref_specialist_output_schema</title>
<polygon fill="#e1f5fe" stroke="black" points="779.24,-147.31 630.24,-147.31 630.24,-111.31 785.24,-111.31 785.24,-141.31 779.24,-147.31"/>
<polyline fill="none" stroke="black" points="779.24,-147.31 779.24,-141.31 "/>
<polyline fill="none" stroke="black" points="785.24,-141.31 779.24,-141.31 "/>
<text text-anchor="middle" x="707.74" y="-132.31" font-family="Helvetica,sans-Serif" font-size="10.00">twl:ref&#45;specialist&#45;output&#45;schema</text>
<text text-anchor="middle" x="707.74" y="-121.31" font-family="Helvetica,sans-Serif" font-size="10.00">(2,563 tok)</text>
</g>
<!-- skill_ref_architecture -->
<g id="node3" class="node">
<title>skill_ref_architecture</title>
<polygon fill="#e1f5fe" stroke="black" points="750.74,-89.31 658.74,-89.31 658.74,-53.31 756.74,-53.31 756.74,-83.31 750.74,-89.31"/>
<polyline fill="none" stroke="black" points="750.74,-89.31 750.74,-83.31 "/>
<polyline fill="none" stroke="black" points="756.74,-83.31 750.74,-83.31 "/>
<text text-anchor="middle" x="707.74" y="-74.31" font-family="Helvetica,sans-Serif" font-size="10.00">twl:ref&#45;architecture</text>
<text text-anchor="middle" x="707.74" y="-63.31" font-family="Helvetica,sans-Serif" font-size="10.00">(2,234 tok)</text>
</g>
<!-- skill_ref_specialist_output_schema&#45;&gt;skill_ref_architecture -->
<!-- skill_ref_specialist_output_schema&#45;&gt;skill_ref_architecture -->
<!-- cmd_plugin_migrate_analyze&#45;&gt;cmd_plugin_diagnose -->
<!-- cmd_plugin_diagnose&#45;&gt;cmd_plugin_phase_diagnose -->
<!-- cmd_plugin_fix&#45;&gt;cmd_plugin_verify -->
<!-- cmd_plugin_verify&#45;&gt;cmd_plugin_phase_verify -->
<!-- cmd_plugin_phase_diagnose&#45;&gt;skill_ref_specialist_output_schema -->
<g id="edge10" class="edge">
<title>cmd_plugin_phase_diagnose&#45;&gt;skill_ref_specialist_output_schema</title>
<path fill="none" stroke="black" d="M354.68,-270.46C406.3,-292.46 500.55,-322.7 572.24,-289.31 631.22,-261.84 673.56,-194.36 693.64,-156.39"/>
<polygon fill="black" stroke="black" points="696.79,-157.91 698.26,-147.42 690.57,-154.7 696.79,-157.91"/>
</g>
<!-- cmd_plugin_phase_diagnose&#45;&gt;skill_ref_architecture -->
<g id="edge11" class="edge">
<title>cmd_plugin_phase_diagnose&#45;&gt;skill_ref_architecture</title>
<path fill="none" stroke="black" d="M359.34,-234.26C364.24,-231.07 368.89,-227.43 372.82,-223.31 415.39,-178.72 380.53,-132.96 430.82,-97.31 494.55,-52.13 588.42,-53.8 648.57,-61.07"/>
<polygon fill="black" stroke="black" points="648.29,-64.56 658.66,-62.38 649.2,-57.62 648.29,-64.56"/>
</g>
<!-- cmd_plugin_phase_diagnose&#45;&gt;cmd_plugin_fix -->
<!-- agent_worker_structure -->
<g id="node10" class="node">
<title>agent_worker_structure</title>
<ellipse fill="#ede7f6" stroke="black" cx="501.53" cy="-257.31" rx="61.54" ry="21.43"/>
<text text-anchor="middle" x="501.53" y="-260.31" font-family="Helvetica,sans-Serif" font-size="10.00">worker&#45;structure</text>
<text text-anchor="middle" x="501.53" y="-249.31" font-family="Helvetica,sans-Serif" font-size="10.00">(1,244 tok)</text>
</g>
<!-- cmd_plugin_phase_diagnose&#45;&gt;agent_worker_structure -->
<g id="edge7" class="edge">
<title>cmd_plugin_phase_diagnose&#45;&gt;agent_worker_structure</title>
<path fill="none" stroke="black" stroke-dasharray="5,2" d="M372.44,-253.82C390.52,-254.32 410.83,-254.87 429.86,-255.39"/>
<polygon fill="black" stroke="black" points="429.89,-258.89 439.98,-255.66 430.08,-251.89 429.89,-258.89"/>
</g>
<!-- agent_worker_principles -->
<g id="node11" class="node">
<title>agent_worker_principles</title>
<ellipse fill="#ede7f6" stroke="black" cx="501.53" cy="-193.31" rx="63.78" ry="21.43"/>
<text text-anchor="middle" x="501.53" y="-196.31" font-family="Helvetica,sans-Serif" font-size="10.00">worker&#45;principles</text>
<text text-anchor="middle" x="501.53" y="-185.31" font-family="Helvetica,sans-Serif" font-size="10.00">(1,154 tok)</text>
</g>
<!-- cmd_plugin_phase_diagnose&#45;&gt;agent_worker_principles -->
<g id="edge8" class="edge">
<title>cmd_plugin_phase_diagnose&#45;&gt;agent_worker_principles</title>
<path fill="none" stroke="black" stroke-dasharray="5,2" d="M372.44,-234.45C395.54,-227.03 422.28,-218.44 445.34,-211.04"/>
<polygon fill="black" stroke="black" points="446.52,-214.33 454.97,-207.94 444.38,-207.67 446.52,-214.33"/>
</g>
<!-- agent_worker_architecture -->
<g id="node12" class="node">
<title>agent_worker_architecture</title>
<ellipse fill="#ede7f6" stroke="black" cx="501.53" cy="-129.31" rx="70.92" ry="21.43"/>
<text text-anchor="middle" x="501.53" y="-132.31" font-family="Helvetica,sans-Serif" font-size="10.00">worker&#45;architecture</text>
<text text-anchor="middle" x="501.53" y="-121.31" font-family="Helvetica,sans-Serif" font-size="10.00">(2,186 tok)</text>
</g>
<!-- cmd_plugin_phase_diagnose&#45;&gt;agent_worker_architecture -->
<g id="edge9" class="edge">
<title>cmd_plugin_phase_diagnose&#45;&gt;agent_worker_architecture</title>
<path fill="none" stroke="black" stroke-dasharray="5,2" d="M356.12,-234.15C361.92,-230.85 367.67,-227.21 372.82,-223.31 402.9,-200.53 400.21,-183.37 430.82,-161.31 436.26,-157.39 442.26,-153.77 448.39,-150.49"/>
<polygon fill="black" stroke="black" points="450.07,-153.56 457.41,-145.92 446.91,-147.31 450.07,-153.56"/>
</g>
<!-- cmd_plugin_phase_verify&#45;&gt;skill_ref_specialist_output_schema -->
<g id="edge15" class="edge">
<title>cmd_plugin_phase_verify&#45;&gt;skill_ref_specialist_output_schema</title>
<path fill="none" stroke="black" d="M365.1,-79.61C416.65,-81.53 500.62,-86.2 572.24,-97.31 591.23,-100.26 611.49,-104.49 630.37,-108.91"/>
<polygon fill="black" stroke="black" points="629.57,-112.32 640.11,-111.24 631.2,-105.51 629.57,-112.32"/>
</g>
<!-- cmd_plugin_phase_verify&#45;&gt;skill_ref_architecture -->
<g id="edge16" class="edge">
<title>cmd_plugin_phase_verify&#45;&gt;skill_ref_architecture</title>
<path fill="none" stroke="black" d="M339.18,-60.25C361.04,-43.83 396.04,-20.77 430.82,-11.31 491.47,5.19 510.76,1.78 572.24,-11.31 605.91,-18.48 641.36,-34.7 667.41,-48.47"/>
<polygon fill="black" stroke="black" points="665.75,-51.55 676.22,-53.22 669.08,-45.39 665.75,-51.55"/>
</g>
<!-- cmd_plugin_phase_verify&#45;&gt;agent_worker_structure -->
<g id="edge12" class="edge">
<title>cmd_plugin_phase_verify&#45;&gt;agent_worker_structure</title>
<path fill="none" stroke="black" stroke-dasharray="5,2" d="M359.24,-96.46C364.16,-99.63 368.84,-103.24 372.82,-107.31 413.7,-149.06 388.95,-184.54 430.82,-225.31 435.75,-230.12 441.54,-234.29 447.64,-237.88"/>
<polygon fill="black" stroke="black" points="446.25,-241.11 456.72,-242.75 449.56,-234.94 446.25,-241.11"/>
</g>
<!-- cmd_plugin_phase_verify&#45;&gt;agent_worker_principles -->
<g id="edge13" class="edge">
<title>cmd_plugin_phase_verify&#45;&gt;agent_worker_principles</title>
<path fill="none" stroke="black" stroke-dasharray="5,2" d="M355.29,-96.46C361.32,-99.8 367.36,-103.46 372.82,-107.31 401.61,-127.6 401.55,-141.71 430.82,-161.31 436.9,-165.39 443.59,-169.19 450.34,-172.64"/>
<polygon fill="black" stroke="black" points="449.02,-175.89 459.54,-177.14 452.09,-169.6 449.02,-175.89"/>
</g>
<!-- cmd_plugin_phase_verify&#45;&gt;agent_worker_architecture -->
<g id="edge14" class="edge">
<title>cmd_plugin_phase_verify&#45;&gt;agent_worker_architecture</title>
<path fill="none" stroke="black" stroke-dasharray="5,2" d="M365.09,-91.71C387.79,-98.01 415.12,-105.6 439.27,-112.3"/>
<polygon fill="black" stroke="black" points="438.47,-115.72 449.05,-115.02 440.35,-108.97 438.47,-115.72"/>
</g>
<!-- agent_worker_structure&#45;&gt;skill_ref_specialist_output_schema -->
<g id="edge17" class="edge">
<title>agent_worker_structure&#45;&gt;skill_ref_specialist_output_schema</title>
<path fill="none" stroke="black" stroke-dasharray="1,5" d="M541.54,-240.98C551.73,-236.29 562.56,-230.92 572.24,-225.31 609.65,-203.64 649.62,-174.22 676.17,-153.68"/>
<polygon fill="black" stroke="black" points="678.57,-156.25 684.31,-147.34 674.27,-150.73 678.57,-156.25"/>
</g>
<!-- agent_worker_structure&#45;&gt;agent_worker_principles -->
<!-- agent_worker_structure&#45;&gt;agent_worker_principles -->
<!-- agent_worker_structure&#45;&gt;agent_worker_principles -->
<!-- agent_worker_structure&#45;&gt;agent_worker_principles -->
<!-- agent_worker_principles&#45;&gt;skill_ref_specialist_output_schema -->
<g id="edge18" class="edge">
<title>agent_worker_principles&#45;&gt;skill_ref_specialist_output_schema</title>
<path fill="none" stroke="black" stroke-dasharray="1,5" d="M548.61,-178.87C575.35,-170.49 609.52,-159.78 639.24,-150.46"/>
<polygon fill="black" stroke="black" points="640.64,-153.69 649.13,-147.36 638.55,-147.02 640.64,-153.69"/>
</g>
<!-- agent_worker_principles&#45;&gt;agent_worker_architecture -->
<!-- agent_worker_principles&#45;&gt;agent_worker_architecture -->
<!-- agent_worker_architecture&#45;&gt;skill_ref_specialist_output_schema -->
<g id="edge19" class="edge">
<title>agent_worker_architecture&#45;&gt;skill_ref_specialist_output_schema</title>
<path fill="none" stroke="black" stroke-dasharray="1,5" d="M535.34,-110.56C571.2,-103.03 628.66,-102.59 667.04,-109.24"/>
<polygon fill="black" stroke="black" points="666.83,-112.77 677.33,-111.31 668.21,-105.91 666.83,-112.77"/>
</g>
<!-- agent_worker_architecture&#45;&gt;skill_ref_specialist_output_schema -->
<!-- agent_worker_architecture&#45;&gt;skill_ref_specialist_output_schema -->
<!-- agent_worker_architecture&#45;&gt;skill_ref_specialist_output_schema -->
<!-- agent_worker_architecture&#45;&gt;skill_ref_architecture -->
<g id="edge20" class="edge">
<title>agent_worker_architecture&#45;&gt;skill_ref_architecture</title>
<path fill="none" stroke="black" stroke-dasharray="1,5" d="M553.53,-114.82C582.4,-106.62 618.62,-96.34 648.59,-87.83"/>
<polygon fill="black" stroke="black" points="649.83,-91.11 658.49,-85.01 647.91,-84.38 649.83,-91.11"/>
</g>
</g>
</svg>
