<?xml version="1.0" encoding="UTF-8" standalone="no"?>
<!DOCTYPE svg PUBLIC "-//W3C//DTD SVG 1.1//EN"
 "http://www.w3.org/Graphics/SVG/1.1/DTD/svg11.dtd">
<!-- Generated by graphviz version 2.43.0 (0)
 -->
<!-- Title: Dependencies Pages: 1 -->
<svg width="798pt" height="476pt"
 viewBox="0.00 0.00 797.94 475.99" xmlns="http://www.w3.org/2000/svg" xmlns:xlink="http://www.w3.org/1999/xlink">
<g id="graph0" class="graph" transform="scale(1 1) rotate(0) translate(4 471.99)">
<title>Dependencies</title>
<polygon fill="white" stroke="transparent" points="-4,4 -4,-471.99 793.94,-471.99 793.94,4 -4,4"/>
<text text-anchor="middle" x="394.97" y="-452.79" font-family="Helvetica,sans-Serif" font-size="14.00">workflow&#45;pr&#45;fix</text>
<!-- skill_workflow_pr_fix -->
<g id="node1" class="node">
<title>skill_workflow_pr_fix</title>
<ellipse fill="#e8f5e9" stroke="black" cx="76.37" cy="-169.49" rx="76.24" ry="21.43"/>
<text text-anchor="middle" x="76.37" y="-172.49" font-family="Helvetica,sans-Serif" font-size="10.00">twl:workflow&#45;pr&#45;fix</text>
<text text-anchor="middle" x="76.37" y="-161.49" font-family="Helvetica,sans-Serif" font-size="10.00">(785 tok)</text>
</g>
<!-- cmd_post_fix_verify -->
<g id="node2" class="node">
<title>cmd_post_fix_verify</title>
<polygon fill="#bbdefb" stroke="black" points="296.24,-216.49 212.24,-216.49 212.24,-180.49 296.24,-180.49 296.24,-216.49"/>
<text text-anchor="middle" x="254.24" y="-201.49" font-family="Helvetica,sans-Serif" font-size="10.00">post&#45;fix&#45;verify</text>
<text text-anchor="middle" x="254.24" y="-190.49" font-family="Helvetica,sans-Serif" font-size="10.00">(628 tok)</text>
</g>
<!-- skill_workflow_pr_fix&#45;&gt;cmd_post_fix_verify -->
<g id="edge2" class="edge">
<title>skill_workflow_pr_fix&#45;&gt;cmd_post_fix_verify</title>
<path fill="none" stroke="black" d="M142.35,-180.21C162.09,-183.46 183.48,-186.99 202.16,-190.07"/>
<polygon fill="black" stroke="black" points="201.79,-193.56 212.23,-191.73 202.93,-186.65 201.79,-193.56"/>
</g>
<!-- cmd_warning_fix -->
<g id="node3" class="node">
<title>cmd_warning_fix</title>
<polygon fill="#e3f2fd" stroke="black" points="289.74,-158.49 218.74,-158.49 218.74,-122.49 289.74,-122.49 289.74,-158.49"/>
<text text-anchor="middle" x="254.24" y="-143.49" font-family="Helvetica,sans-Serif" font-size="10.00">warning&#45;fix</text>
<text text-anchor="middle" x="254.24" y="-132.49" font-family="Helvetica,sans-Serif" font-size="10.00">(380 tok)</text>
</g>
<!-- skill_workflow_pr_fix&#45;&gt;cmd_warning_fix -->
<g id="edge3" class="edge">
<title>skill_workflow_pr_fix&#45;&gt;cmd_warning_fix</title>
<path fill="none" stroke="black" d="M142.35,-158.78C164.35,-155.15 188.41,-151.18 208.48,-147.88"/>
<polygon fill="black" stroke="black" points="209.28,-151.29 218.57,-146.21 208.14,-144.38 209.28,-151.29"/>
</g>
<!-- cmd_fix_phase -->
<g id="node4" class="node">
<title>cmd_fix_phase</title>
<polygon fill="#bbdefb" stroke="black" points="285.24,-274.49 223.24,-274.49 223.24,-238.49 285.24,-238.49 285.24,-274.49"/>
<text text-anchor="middle" x="254.24" y="-259.49" font-family="Helvetica,sans-Serif" font-size="10.00">fix&#45;phase</text>
<text text-anchor="middle" x="254.24" y="-248.49" font-family="Helvetica,sans-Serif" font-size="10.00">(552 tok)</text>
</g>
<!-- skill_workflow_pr_fix&#45;&gt;cmd_fix_phase -->
<g id="edge1" class="edge">
<title>skill_workflow_pr_fix&#45;&gt;cmd_fix_phase</title>
<path fill="none" stroke="black" d="M114.66,-187.95C143.78,-202.35 184.13,-222.31 213.78,-236.98"/>
<polygon fill="black" stroke="black" points="212.49,-240.24 223,-241.54 215.59,-233.97 212.49,-240.24"/>
</g>
<!-- cmd_spec_diagnose -->
<g id="node5" class="node">
<title>cmd_spec_diagnose</title>
<polygon fill="#e3f2fd" stroke="black" points="297.74,-100.49 210.74,-100.49 210.74,-64.49 297.74,-64.49 297.74,-100.49"/>
<text text-anchor="middle" x="254.24" y="-85.49" font-family="Helvetica,sans-Serif" font-size="10.00">spec&#45;diagnose</text>
<text text-anchor="middle" x="254.24" y="-74.49" font-family="Helvetica,sans-Serif" font-size="10.00">(651 tok)</text>
</g>
<!-- skill_workflow_pr_fix&#45;&gt;cmd_spec_diagnose -->
<g id="edge4" class="edge">
<title>skill_workflow_pr_fix&#45;&gt;cmd_spec_diagnose</title>
<path fill="none" stroke="black" d="M114.66,-151.04C141.78,-137.63 178.63,-119.4 207.52,-105.11"/>
<polygon fill="black" stroke="black" points="209.18,-108.19 216.59,-100.62 206.08,-101.92 209.18,-108.19"/>
</g>
<!-- cmd_post_fix_verify&#45;&gt;cmd_warning_fix -->
<!-- agent_worker_codex_reviewer -->
<g id="node6" class="node">
<title>agent_worker_codex_reviewer</title>
<ellipse fill="#ede7f6" stroke="black" cx="454.02" cy="-166.49" rx="91.43" ry="21.43"/>
<text text-anchor="middle" x="454.02" y="-169.49" font-family="Helvetica,sans-Serif" font-size="10.00">worker&#45;codex&#45;reviewer</text>
<text text-anchor="middle" x="454.02" y="-158.49" font-family="Helvetica,sans-Serif" font-size="10.00">(1,426 tok)</text>
</g>
<!-- cmd_post_fix_verify&#45;&gt;agent_worker_codex_reviewer -->
<g id="edge7" class="edge">
<title>cmd_post_fix_verify&#45;&gt;agent_worker_codex_reviewer</title>
<path fill="none" stroke="black" stroke-dasharray="5,2" d="M296.7,-191.79C317.51,-188.42 343.5,-184.21 368.29,-180.2"/>
<polygon fill="black" stroke="black" points="369.14,-183.61 378.45,-178.56 368.02,-176.7 369.14,-183.61"/>
</g>
<!-- agent_worker_code_reviewer -->
<g id="node7" class="node">
<title>agent_worker_code_reviewer</title>
<ellipse fill="#ede7f6" stroke="black" cx="454.02" cy="-294.49" rx="86.95" ry="21.43"/>
<text text-anchor="middle" x="454.02" y="-297.49" font-family="Helvetica,sans-Serif" font-size="10.00">worker&#45;code&#45;reviewer</text>
<text text-anchor="middle" x="454.02" y="-286.49" font-family="Helvetica,sans-Serif" font-size="10.00">(964 tok)</text>
</g>
<!-- cmd_post_fix_verify&#45;&gt;agent_worker_code_reviewer -->
<g id="edge5" class="edge">
<title>cmd_post_fix_verify&#45;&gt;agent_worker_code_reviewer</title>
<path fill="none" stroke="black" stroke-dasharray="5,2" d="M282.12,-216.69C306.59,-233.05 341.06,-255.54 355.74,-262.49 365.58,-267.16 376.28,-271.42 386.87,-275.21"/>
<polygon fill="black" stroke="black" points="385.93,-278.59 396.53,-278.55 388.22,-271.97 385.93,-278.59"/>
</g>
<!-- agent_worker_security_reviewer -->
<g id="node8" class="node">
<title>agent_worker_security_reviewer</title>
<ellipse fill="#ede7f6" stroke="black" cx="454.02" cy="-230.49" rx="98.08" ry="21.43"/>
<text text-anchor="middle" x="454.02" y="-233.49" font-family="Helvetica,sans-Serif" font-size="10.00">worker&#45;security&#45;reviewer</text>
<text text-anchor="middle" x="454.02" y="-222.49" font-family="Helvetica,sans-Serif" font-size="10.00">(866 tok)</text>
</g>
<!-- cmd_post_fix_verify&#45;&gt;agent_worker_security_reviewer -->
<g id="edge6" class="edge">
<title>cmd_post_fix_verify&#45;&gt;agent_worker_security_reviewer</title>
<path fill="none" stroke="black" stroke-dasharray="5,2" d="M296.7,-205.2C316.52,-208.41 341.06,-212.38 364.77,-216.22"/>
<polygon fill="black" stroke="black" points="364.43,-219.71 374.86,-217.85 365.55,-212.8 364.43,-219.71"/>
</g>
<!-- script_autopilot_parser -->
<g id="node10" class="node">
<title>script_autopilot_parser</title>
<polygon fill="#ff9800" stroke="black" points="777.76,-95.49 738.94,-119.98 661.31,-119.98 622.49,-95.49 661.31,-71.01 738.94,-71.01 777.76,-95.49"/>
<text text-anchor="middle" x="700.13" y="-98.49" font-family="Helvetica,sans-Serif" font-size="10.00">autopilot&#45;parser</text>
<text text-anchor="middle" x="700.13" y="-87.49" font-family="Helvetica,sans-Serif" font-size="10.00">(2,496 tok)</text>
</g>
<!-- cmd_post_fix_verify&#45;&gt;script_autopilot_parser -->
<g id="edge9" class="edge">
<title>cmd_post_fix_verify&#45;&gt;script_autopilot_parser</title>
<path fill="none" stroke="black" d="M283.08,-180.33C288.05,-176.85 293.11,-173.15 297.74,-169.49 325.11,-147.82 323.58,-130.12 355.74,-116.49 442.75,-79.63 553.37,-80.31 625.19,-86.21"/>
<polygon fill="black" stroke="black" points="625.22,-89.73 635.49,-87.12 625.84,-82.75 625.22,-89.73"/>
</g>
<!-- script_pr_review_manifest -->
<g id="node12" class="node">
<title>script_pr_review_manifest</title>
<polygon fill="#ff9800" stroke="black" points="789.76,-166.49 744.94,-190.98 655.31,-190.98 610.5,-166.49 655.31,-142.01 744.94,-142.01 789.76,-166.49"/>
<text text-anchor="middle" x="700.13" y="-169.49" font-family="Helvetica,sans-Serif" font-size="10.00">pr&#45;review&#45;manifest</text>
<text text-anchor="middle" x="700.13" y="-158.49" font-family="Helvetica,sans-Serif" font-size="10.00">(1,395 tok)</text>
</g>
<!-- cmd_post_fix_verify&#45;&gt;script_pr_review_manifest -->
<g id="edge8" class="edge">
<title>cmd_post_fix_verify&#45;&gt;script_pr_review_manifest</title>
<path fill="none" stroke="black" d="M282.18,-180.23C309.11,-162.15 347.64,-136.85 355.74,-134.49 449.29,-107.24 562.67,-127.57 632.87,-146"/>
<polygon fill="black" stroke="black" points="632.34,-149.48 642.9,-148.7 634.15,-142.72 632.34,-149.48"/>
</g>
<!-- cmd_warning_fix&#45;&gt;cmd_spec_diagnose -->
<!-- cmd_fix_phase&#45;&gt;cmd_post_fix_verify -->
<!-- script_checkpoint_read -->
<g id="node13" class="node">
<title>script_checkpoint_read</title>
<polygon fill="#ff9800" stroke="black" points="777.76,-349.49 738.94,-373.98 661.31,-373.98 622.49,-349.49 661.31,-325.01 738.94,-325.01 777.76,-349.49"/>
<text text-anchor="middle" x="700.13" y="-352.49" font-family="Helvetica,sans-Serif" font-size="10.00">checkpoint&#45;read</text>
<text text-anchor="middle" x="700.13" y="-341.49" font-family="Helvetica,sans-Serif" font-size="10.00">(2,418 tok)</text>
</g>
<!-- cmd_fix_phase&#45;&gt;script_checkpoint_read -->
<g id="edge10" class="edge">
<title>cmd_fix_phase&#45;&gt;script_checkpoint_read</title>
<path fill="none" stroke="black" d="M274.21,-274.52C293.18,-291.31 324.04,-315.37 355.74,-326.49 443.05,-357.15 550.41,-359.13 621.59,-355.91"/>
<polygon fill="black" stroke="black" points="622.01,-359.4 631.83,-355.4 621.67,-352.4 622.01,-359.4"/>
</g>
<!-- agent_worker_codex_reviewer&#45;&gt;script_pr_review_manifest -->
<!-- agent_worker_code_reviewer&#45;&gt;agent_worker_security_reviewer -->
<!-- agent_worker_code_reviewer&#45;&gt;agent_worker_security_reviewer -->
<!-- agent_worker_code_reviewer&#45;&gt;agent_worker_security_reviewer -->
<!-- agent_worker_security_reviewer&#45;&gt;agent_worker_codex_reviewer -->
<!-- script_tech_stack_detect -->
<g id="node9" class="node">
<title>script_tech_stack_detect</title>
<polygon fill="#ff9800" stroke="black" points="783.19,-24.49 741.66,-48.98 658.59,-48.98 617.06,-24.49 658.59,-0.01 741.66,-0.01 783.19,-24.49"/>
<text text-anchor="middle" x="700.13" y="-27.49" font-family="Helvetica,sans-Serif" font-size="10.00">tech&#45;stack&#45;detect</text>
<text text-anchor="middle" x="700.13" y="-16.49" font-family="Helvetica,sans-Serif" font-size="10.00">(539 tok)</text>
</g>
<!-- script_autopilot_parser&#45;&gt;script_tech_stack_detect -->
<!-- script_autopilot_parser&#45;&gt;script_tech_stack_detect -->
<!-- script_resolve_issue_num -->
<g id="node11" class="node">
<title>script_resolve_issue_num</title>
<polygon fill="#ff9800" stroke="black" points="787.36,-420.49 743.74,-444.98 656.51,-444.98 612.89,-420.49 656.51,-396.01 743.74,-396.01 787.36,-420.49"/>
<text text-anchor="middle" x="700.13" y="-423.49" font-family="Helvetica,sans-Serif" font-size="10.00">resolve&#45;issue&#45;num</text>
<text text-anchor="middle" x="700.13" y="-412.49" font-family="Helvetica,sans-Serif" font-size="10.00">(716 tok)</text>
</g>
<!-- script_pr_review_manifest&#45;&gt;script_autopilot_parser -->
</g>
</svg>
