<?xml version="1.0" encoding="UTF-8" standalone="no"?>
<!DOCTYPE svg PUBLIC "-//W3C//DTD SVG 1.1//EN"
 "http://www.w3.org/Graphics/SVG/1.1/DTD/svg11.dtd">
<!-- Generated by graphviz version 2.43.0 (0)
 -->
<!-- Title: Dependencies Pages: 1 -->
<svg width="624pt" height="125pt"
 viewBox="0.00 0.00 624.01 125.00" xmlns="http://www.w3.org/2000/svg" xmlns:xlink="http://www.w3.org/1999/xlink">
<g id="graph0" class="graph" transform="scale(1 1) rotate(0) translate(4 121)">
<title>Dependencies</title>
<polygon fill="white" stroke="transparent" points="-4,4 -4,-121 620.01,-121 620.01,4 -4,4"/>
<text text-anchor="middle" x="308.01" y="-101.8" font-family="Helvetica,sans-Serif" font-size="14.00">workflow&#45;observe&#45;loop</text>
<!-- skill_workflow_observe_loop -->
<g id="node1" class="node">
<title>skill_workflow_observe_loop</title>
<ellipse fill="#e8f5e9" stroke="black" cx="103.24" cy="-47" rx="103.48" ry="21.43"/>
<text text-anchor="middle" x="103.24" y="-50" font-family="Helvetica,sans-Serif" font-size="10.00">twl:workflow&#45;observe&#45;loop</text>
<text text-anchor="middle" x="103.24" y="-39" font-family="Helvetica,sans-Serif" font-size="10.00">(1,151 tok)</text>
</g>
<!-- cmd_observe_and_detect -->
<g id="node2" class="node">
<title>cmd_observe_and_detect</title>
<polygon fill="#bbdefb" stroke="black" points="382.48,-94 270.48,-94 270.48,-58 382.48,-58 382.48,-94"/>
<text text-anchor="middle" x="326.48" y="-79" font-family="Helvetica,sans-Serif" font-size="10.00">observe&#45;and&#45;detect</text>
<text text-anchor="middle" x="326.48" y="-68" font-family="Helvetica,sans-Serif" font-size="10.00">(461 tok)</text>
</g>
<!-- skill_workflow_observe_loop&#45;&gt;cmd_observe_and_detect -->
<g id="edge1" class="edge">
<title>skill_workflow_observe_loop&#45;&gt;cmd_observe_and_detect</title>
<path fill="none" stroke="black" d="M190.72,-58.34C213.85,-61.37 238.45,-64.59 260.21,-67.45"/>
<polygon fill="black" stroke="black" points="259.95,-70.94 270.32,-68.77 260.86,-64 259.95,-70.94"/>
</g>
<!-- cmd_observe_retrospective -->
<g id="node3" class="node">
<title>cmd_observe_retrospective</title>
<polygon fill="#e3f2fd" stroke="black" points="388.48,-36 264.48,-36 264.48,0 388.48,0 388.48,-36"/>
<text text-anchor="middle" x="326.48" y="-21" font-family="Helvetica,sans-Serif" font-size="10.00">observe&#45;retrospective</text>
<text text-anchor="middle" x="326.48" y="-10" font-family="Helvetica,sans-Serif" font-size="10.00">(521 tok)</text>
</g>
<!-- skill_workflow_observe_loop&#45;&gt;cmd_observe_retrospective -->
<g id="edge2" class="edge">
<title>skill_workflow_observe_loop&#45;&gt;cmd_observe_retrospective</title>
<path fill="none" stroke="black" d="M190.72,-35.66C211.77,-32.9 234.04,-29.99 254.29,-27.33"/>
<polygon fill="black" stroke="black" points="254.9,-30.78 264.36,-26.01 253.99,-23.84 254.9,-30.78"/>
</g>
<!-- cmd_observe_and_detect&#45;&gt;cmd_observe_retrospective -->
<!-- agent_observer_evaluator -->
<g id="node4" class="node">
<title>agent_observer_evaluator</title>
<ellipse fill="none" stroke="black" cx="531.24" cy="-18" rx="84.54" ry="18"/>
<text text-anchor="middle" x="531.24" y="-15.5" font-family="Helvetica,sans-Serif" font-size="10.00">agent_observer_evaluator</text>
</g>
<!-- cmd_observe_and_detect&#45;&gt;agent_observer_evaluator -->
<g id="edge3" class="edge">
<title>cmd_observe_and_detect&#45;&gt;agent_observer_evaluator</title>
<path fill="none" stroke="black" stroke-dasharray="5,2" d="M382.61,-60.23C409.67,-52.49 442.31,-43.15 470.01,-35.23"/>
<polygon fill="black" stroke="black" points="471.32,-38.49 479.98,-32.38 469.4,-31.76 471.32,-38.49"/>
</g>
<!-- cmd_observe_retrospective&#45;&gt;agent_observer_evaluator -->
</g>
</svg>
