<?xml version="1.0" encoding="UTF-8" standalone="no"?>
<!DOCTYPE svg PUBLIC "-//W3C//DTD SVG 1.1//EN"
 "http://www.w3.org/Graphics/SVG/1.1/DTD/svg11.dtd">
<!-- Generated by graphviz version 2.43.0 (0)
 -->
<!-- Title: Dependencies Pages: 1 -->
<svg width="383pt" height="125pt"
 viewBox="0.00 0.00 382.92 125.00" xmlns="http://www.w3.org/2000/svg" xmlns:xlink="http://www.w3.org/1999/xlink">
<g id="graph0" class="graph" transform="scale(1 1) rotate(0) translate(4 121)">
<title>Dependencies</title>
<polygon fill="white" stroke="transparent" points="-4,4 -4,-121 378.92,-121 378.92,4 -4,4"/>
<text text-anchor="middle" x="187.46" y="-101.8" font-family="Helvetica,sans-Serif" font-size="14.00">workflow&#45;dead&#45;cleanup</text>
<!-- skill_workflow_dead_cleanup -->
<g id="node1" class="node">
<title>skill_workflow_dead_cleanup</title>
<ellipse fill="#e8f5e9" stroke="black" cx="95.46" cy="-47" rx="95.42" ry="21.43"/>
<text text-anchor="middle" x="95.46" y="-50" font-family="Helvetica,sans-Serif" font-size="10.00">dev:workflow&#45;dead&#45;cleanup</text>
<text text-anchor="middle" x="95.46" y="-39" font-family="Helvetica,sans-Serif" font-size="10.00">(249 tok)</text>
</g>
<!-- cmd_dead_component_detect -->
<g id="node2" class="node">
<title>cmd_dead_component_detect</title>
<polygon fill="#e3f2fd" stroke="black" points="371.42,-94 252.42,-94 252.42,-58 371.42,-58 371.42,-94"/>
<text text-anchor="middle" x="311.92" y="-79" font-family="Helvetica,sans-Serif" font-size="10.00">dead&#45;component&#45;detect</text>
<text text-anchor="middle" x="311.92" y="-68" font-family="Helvetica,sans-Serif" font-size="10.00">(901 tok)</text>
</g>
<!-- skill_workflow_dead_cleanup&#45;&gt;cmd_dead_component_detect -->
<g id="edge1" class="edge">
<title>skill_workflow_dead_cleanup&#45;&gt;cmd_dead_component_detect</title>
<path fill="none" stroke="black" d="M177.54,-57.96C198.84,-60.84 221.61,-63.92 242.2,-66.71"/>
<polygon fill="black" stroke="black" points="241.74,-70.18 252.12,-68.05 242.67,-63.24 241.74,-70.18"/>
</g>
<!-- cmd_dead_component_execute -->
<g id="node3" class="node">
<title>cmd_dead_component_execute</title>
<polygon fill="#e3f2fd" stroke="black" points="374.92,-36 248.92,-36 248.92,0 374.92,0 374.92,-36"/>
<text text-anchor="middle" x="311.92" y="-21" font-family="Helvetica,sans-Serif" font-size="10.00">dead&#45;component&#45;execute</text>
<text text-anchor="middle" x="311.92" y="-10" font-family="Helvetica,sans-Serif" font-size="10.00">(1,082 tok)</text>
</g>
<!-- skill_workflow_dead_cleanup&#45;&gt;cmd_dead_component_execute -->
<g id="edge2" class="edge">
<title>skill_workflow_dead_cleanup&#45;&gt;cmd_dead_component_execute</title>
<path fill="none" stroke="black" d="M177.54,-36.04C197.64,-33.32 219.04,-30.42 238.69,-27.77"/>
<polygon fill="black" stroke="black" points="239.35,-31.21 248.79,-26.4 238.41,-24.27 239.35,-31.21"/>
</g>
<!-- cmd_dead_component_detect&#45;&gt;cmd_dead_component_execute -->
</g>
</svg>
