<?xml version="1.0" encoding="UTF-8" standalone="no"?>
<!DOCTYPE svg PUBLIC "-//W3C//DTD SVG 1.1//EN"
 "http://www.w3.org/Graphics/SVG/1.1/DTD/svg11.dtd">
<!-- Generated by graphviz version 2.43.0 (0)
 -->
<!-- Title: Dependencies Pages: 1 -->
<svg width="1074pt" height="1719pt"
 viewBox="0.00 0.00 1074.43 1719.49" xmlns="http://www.w3.org/2000/svg" xmlns:xlink="http://www.w3.org/1999/xlink">
<g id="graph0" class="graph" transform="scale(1 1) rotate(0) translate(4 1715.49)">
<title>Dependencies</title>
<polygon fill="white" stroke="transparent" points="-4,4 -4,-1715.49 1070.43,-1715.49 1070.43,4 -4,4"/>
<text text-anchor="middle" x="533.22" y="-1696.29" font-family="Helvetica,sans-Serif" font-size="14.00">workflow&#45;pr&#45;merge</text>
<!-- skill_workflow_pr_merge -->
<g id="node1" class="node">
<title>skill_workflow_pr_merge</title>
<ellipse fill="#e8f5e9" stroke="black" cx="79.9" cy="-1015" rx="79.81" ry="21.43"/>
<text text-anchor="middle" x="79.9" y="-1018" font-family="Helvetica,sans-Serif" font-size="10.00">twl:workflow&#45;pr&#45;merge</text>
<text text-anchor="middle" x="79.9" y="-1007" font-family="Helvetica,sans-Serif" font-size="10.00">(1,091 tok)</text>
</g>
<!-- cmd_pr_cycle_report -->
<g id="node6" class="node">
<title>cmd_pr_cycle_report</title>
<polygon fill="#e3f2fd" stroke="black" points="302.31,-1120 223.31,-1120 223.31,-1084 302.31,-1084 302.31,-1120"/>
<text text-anchor="middle" x="262.81" y="-1105" font-family="Helvetica,sans-Serif" font-size="10.00">pr&#45;cycle&#45;report</text>
<text text-anchor="middle" x="262.81" y="-1094" font-family="Helvetica,sans-Serif" font-size="10.00">(329 tok)</text>
</g>
<!-- skill_workflow_pr_merge&#45;&gt;cmd_pr_cycle_report -->
<g id="edge2" class="edge">
<title>skill_workflow_pr_merge&#45;&gt;cmd_pr_cycle_report</title>
<path fill="none" stroke="black" d="M119.71,-1033.66C147.63,-1047.09 185.42,-1065.26 215,-1079.49"/>
<polygon fill="black" stroke="black" points="213.77,-1082.78 224.3,-1083.96 216.81,-1076.47 213.77,-1082.78"/>
</g>
<!-- cmd_all_pass_check -->
<g id="node7" class="node">
<title>cmd_all_pass_check</title>
<polygon fill="#e3f2fd" stroke="black" points="302.81,-1004 222.81,-1004 222.81,-968 302.81,-968 302.81,-1004"/>
<text text-anchor="middle" x="262.81" y="-989" font-family="Helvetica,sans-Serif" font-size="10.00">all&#45;pass&#45;check</text>
<text text-anchor="middle" x="262.81" y="-978" font-family="Helvetica,sans-Serif" font-size="10.00">(817 tok)</text>
</g>
<!-- skill_workflow_pr_merge&#45;&gt;cmd_all_pass_check -->
<g id="edge4" class="edge">
<title>skill_workflow_pr_merge&#45;&gt;cmd_all_pass_check</title>
<path fill="none" stroke="black" d="M148.78,-1004.12C170.04,-1000.71 193.07,-997.02 212.77,-993.86"/>
<polygon fill="black" stroke="black" points="213.42,-997.3 222.74,-992.26 212.31,-990.39 213.42,-997.3"/>
</g>
<!-- cmd_e2e_screening -->
<g id="node8" class="node">
<title>cmd_e2e_screening</title>
<polygon fill="#bbdefb" stroke="black" points="301.31,-1178 224.31,-1178 224.31,-1142 301.31,-1142 301.31,-1178"/>
<text text-anchor="middle" x="262.81" y="-1163" font-family="Helvetica,sans-Serif" font-size="10.00">e2e&#45;screening</text>
<text text-anchor="middle" x="262.81" y="-1152" font-family="Helvetica,sans-Serif" font-size="10.00">(440 tok)</text>
</g>
<!-- skill_workflow_pr_merge&#45;&gt;cmd_e2e_screening -->
<g id="edge1" class="edge">
<title>skill_workflow_pr_merge&#45;&gt;cmd_e2e_screening</title>
<path fill="none" stroke="black" d="M103.46,-1035.58C130.05,-1059.47 175.92,-1099.63 217.81,-1131 219.92,-1132.58 222.12,-1134.18 224.35,-1135.76"/>
<polygon fill="black" stroke="black" points="222.84,-1138.97 233.06,-1141.77 226.82,-1133.21 222.84,-1138.97"/>
</g>
<!-- cmd_merge_gate -->
<g id="node9" class="node">
<title>cmd_merge_gate</title>
<polygon fill="#bbdefb" stroke="black" points="295.31,-946 230.31,-946 230.31,-910 295.31,-910 295.31,-946"/>
<text text-anchor="middle" x="262.81" y="-931" font-family="Helvetica,sans-Serif" font-size="10.00">merge&#45;gate</text>
<text text-anchor="middle" x="262.81" y="-920" font-family="Helvetica,sans-Serif" font-size="10.00">(1,861 tok)</text>
</g>
<!-- skill_workflow_pr_merge&#45;&gt;cmd_merge_gate -->
<g id="edge5" class="edge">
<title>skill_workflow_pr_merge&#45;&gt;cmd_merge_gate</title>
<path fill="none" stroke="black" d="M119.71,-996.34C149.63,-981.95 190.89,-962.11 221.24,-947.51"/>
<polygon fill="black" stroke="black" points="222.79,-950.65 230.28,-943.16 219.75,-944.34 222.79,-950.65"/>
</g>
<!-- cmd_auto_merge -->
<g id="node10" class="node">
<title>cmd_auto_merge</title>
<polygon fill="#e3f2fd" stroke="black" points="295.31,-888 230.31,-888 230.31,-852 295.31,-852 295.31,-888"/>
<text text-anchor="middle" x="262.81" y="-873" font-family="Helvetica,sans-Serif" font-size="10.00">auto&#45;merge</text>
<text text-anchor="middle" x="262.81" y="-862" font-family="Helvetica,sans-Serif" font-size="10.00">(296 tok)</text>
</g>
<!-- skill_workflow_pr_merge&#45;&gt;cmd_auto_merge -->
<g id="edge6" class="edge">
<title>skill_workflow_pr_merge&#45;&gt;cmd_auto_merge</title>
<path fill="none" stroke="black" d="M103.46,-994.42C130.05,-970.53 175.92,-930.37 217.81,-899 219.92,-897.42 222.12,-895.82 224.35,-894.24"/>
<polygon fill="black" stroke="black" points="226.82,-896.79 233.06,-888.23 222.84,-891.03 226.82,-896.79"/>
</g>
<!-- cmd_pr_cycle_analysis -->
<g id="node11" class="node">
<title>cmd_pr_cycle_analysis</title>
<polygon fill="#e3f2fd" stroke="black" points="307.81,-1062 217.81,-1062 217.81,-1026 307.81,-1026 307.81,-1062"/>
<text text-anchor="middle" x="262.81" y="-1047" font-family="Helvetica,sans-Serif" font-size="10.00">pr&#45;cycle&#45;analysis</text>
<text text-anchor="middle" x="262.81" y="-1036" font-family="Helvetica,sans-Serif" font-size="10.00">(974 tok)</text>
</g>
<!-- skill_workflow_pr_merge&#45;&gt;cmd_pr_cycle_analysis -->
<g id="edge3" class="edge">
<title>skill_workflow_pr_merge&#45;&gt;cmd_pr_cycle_analysis</title>
<path fill="none" stroke="black" d="M148.78,-1025.88C168.24,-1029 189.18,-1032.36 207.69,-1035.32"/>
<polygon fill="black" stroke="black" points="207.27,-1038.8 217.7,-1036.93 208.38,-1031.89 207.27,-1038.8"/>
</g>
<!-- skill_ref_specialist_output_schema -->
<g id="node2" class="node">
<title>skill_ref_specialist_output_schema</title>
<polygon fill="#e1f5fe" stroke="black" points="1060.43,-210 911.43,-210 911.43,-174 1066.43,-174 1066.43,-204 1060.43,-210"/>
<polyline fill="none" stroke="black" points="1060.43,-210 1060.43,-204 "/>
<polyline fill="none" stroke="black" points="1066.43,-204 1060.43,-204 "/>
<text text-anchor="middle" x="988.93" y="-195" font-family="Helvetica,sans-Serif" font-size="10.00">twl:ref&#45;specialist&#45;output&#45;schema</text>
<text text-anchor="middle" x="988.93" y="-184" font-family="Helvetica,sans-Serif" font-size="10.00">(2,563 tok)</text>
</g>
<!-- skill_baseline_coding_style -->
<g id="node3" class="node">
<title>skill_baseline_coding_style</title>
<polygon fill="#e1f5fe" stroke="black" points="1044.93,-152 926.93,-152 926.93,-116 1050.93,-116 1050.93,-146 1044.93,-152"/>
<polyline fill="none" stroke="black" points="1044.93,-152 1044.93,-146 "/>
<polyline fill="none" stroke="black" points="1050.93,-146 1044.93,-146 "/>
<text text-anchor="middle" x="988.93" y="-137" font-family="Helvetica,sans-Serif" font-size="10.00">twl:baseline&#45;coding&#45;style</text>
<text text-anchor="middle" x="988.93" y="-126" font-family="Helvetica,sans-Serif" font-size="10.00">(1,570 tok)</text>
</g>
<!-- skill_ref_specialist_output_schema&#45;&gt;skill_baseline_coding_style -->
<!-- skill_ref_specialist_output_schema&#45;&gt;skill_baseline_coding_style -->
<!-- skill_baseline_security_checklist -->
<g id="node4" class="node">
<title>skill_baseline_security_checklist</title>
<polygon fill="#e1f5fe" stroke="black" points="1056.93,-94 914.93,-94 914.93,-58 1062.93,-58 1062.93,-88 1056.93,-94"/>
<polyline fill="none" stroke="black" points="1056.93,-94 1056.93,-88 "/>
<polyline fill="none" stroke="black" points="1062.93,-88 1056.93,-88 "/>
<text text-anchor="middle" x="988.93" y="-79" font-family="Helvetica,sans-Serif" font-size="10.00">twl:baseline&#45;security&#45;checklist</text>
<text text-anchor="middle" x="988.93" y="-68" font-family="Helvetica,sans-Serif" font-size="10.00">(1,815 tok)</text>
</g>
<!-- skill_baseline_coding_style&#45;&gt;skill_baseline_security_checklist -->
<!-- skill_baseline_coding_style&#45;&gt;skill_baseline_security_checklist -->
<!-- skill_baseline_input_validation -->
<g id="node5" class="node">
<title>skill_baseline_input_validation</title>
<polygon fill="#e1f5fe" stroke="black" points="1051.43,-36 920.43,-36 920.43,0 1057.43,0 1057.43,-30 1051.43,-36"/>
<polyline fill="none" stroke="black" points="1051.43,-36 1051.43,-30 "/>
<polyline fill="none" stroke="black" points="1057.43,-30 1051.43,-30 "/>
<text text-anchor="middle" x="988.93" y="-21" font-family="Helvetica,sans-Serif" font-size="10.00">twl:baseline&#45;input&#45;validation</text>
<text text-anchor="middle" x="988.93" y="-10" font-family="Helvetica,sans-Serif" font-size="10.00">(1,408 tok)</text>
</g>
<!-- skill_baseline_security_checklist&#45;&gt;skill_baseline_input_validation -->
<!-- skill_baseline_security_checklist&#45;&gt;skill_baseline_input_validation -->
<!-- cmd_pr_cycle_report&#45;&gt;cmd_pr_cycle_analysis -->
<!-- cmd_all_pass_check&#45;&gt;cmd_merge_gate -->
<!-- script_state_write -->
<g id="node30" class="node">
<title>script_state_write</title>
<polygon fill="#ff9800" stroke="black" points="511.08,-1522 485.39,-1546.49 434.01,-1546.49 408.32,-1522 434.01,-1497.51 485.39,-1497.51 511.08,-1522"/>
<text text-anchor="middle" x="459.7" y="-1525" font-family="Helvetica,sans-Serif" font-size="10.00">state&#45;write</text>
<text text-anchor="middle" x="459.7" y="-1514" font-family="Helvetica,sans-Serif" font-size="10.00">(2,571 tok)</text>
</g>
<!-- cmd_all_pass_check&#45;&gt;script_state_write -->
<g id="edge7" class="edge">
<title>cmd_all_pass_check&#45;&gt;script_state_write</title>
<path fill="none" stroke="black" d="M298.32,-1004.2C301.99,-1007.36 305.3,-1010.96 307.81,-1015 419,-1194.22 236.19,-1319.61 365.81,-1486 375.57,-1498.54 390.29,-1506.71 405.16,-1512.04"/>
<polygon fill="black" stroke="black" points="404.3,-1515.44 414.89,-1515.15 406.43,-1508.77 404.3,-1515.44"/>
</g>
<!-- script_checkpoint_write -->
<g id="node35" class="node">
<title>script_checkpoint_write</title>
<polygon fill="#ff9800" stroke="black" points="531.41,-1380 495.56,-1404.49 423.85,-1404.49 388,-1380 423.85,-1355.51 495.56,-1355.51 531.41,-1380"/>
<text text-anchor="middle" x="459.7" y="-1383" font-family="Helvetica,sans-Serif" font-size="10.00">checkpoint&#45;write</text>
<text text-anchor="middle" x="459.7" y="-1372" font-family="Helvetica,sans-Serif" font-size="10.00">(646 tok)</text>
</g>
<!-- cmd_all_pass_check&#45;&gt;script_checkpoint_write -->
<g id="edge8" class="edge">
<title>cmd_all_pass_check&#45;&gt;script_checkpoint_write</title>
<path fill="none" stroke="black" d="M298.11,-1004.33C301.82,-1007.47 305.19,-1011.03 307.81,-1015 388.29,-1137.16 275.41,-1223.99 365.81,-1339 373.97,-1349.38 385.3,-1357.2 397.26,-1363.06"/>
<polygon fill="black" stroke="black" points="395.93,-1366.3 406.49,-1367.18 398.78,-1359.91 395.93,-1366.3"/>
</g>
<!-- cmd_e2e_screening&#45;&gt;cmd_pr_cycle_report -->
<!-- cmd_e2e_screening&#45;&gt;script_checkpoint_write -->
<g id="edge9" class="edge">
<title>cmd_e2e_screening&#45;&gt;script_checkpoint_write</title>
<path fill="none" stroke="black" d="M269.79,-1178.23C282.28,-1213.68 314.3,-1292.51 365.81,-1339 375.71,-1347.94 387.88,-1355.18 400.11,-1360.94"/>
<polygon fill="black" stroke="black" points="398.88,-1364.22 409.44,-1365.06 401.71,-1357.82 398.88,-1364.22"/>
</g>
<!-- cmd_merge_gate&#45;&gt;skill_ref_specialist_output_schema -->
<g id="edge35" class="edge">
<title>cmd_merge_gate&#45;&gt;skill_ref_specialist_output_schema</title>
<path fill="none" stroke="black" d="M295.44,-929.06C414.76,-932.9 831.9,-944.98 853.43,-927 964.58,-834.18 984.16,-344.23 987.35,-220.43"/>
<polygon fill="black" stroke="black" points="990.85,-220.33 987.59,-210.25 983.85,-220.16 990.85,-220.33"/>
</g>
<!-- cmd_merge_gate&#45;&gt;skill_baseline_coding_style -->
<g id="edge36" class="edge">
<title>cmd_merge_gate&#45;&gt;skill_baseline_coding_style</title>
<path fill="none" stroke="black" d="M295.46,-912.38C300.32,-908.64 304.73,-904.2 307.81,-899 390.69,-758.7 249.17,-281.8 365.81,-168 442.12,-93.54 769.84,-113.6 916.5,-126.76"/>
<polygon fill="black" stroke="black" points="916.46,-130.27 926.74,-127.69 917.1,-123.3 916.46,-130.27"/>
</g>
<!-- cmd_merge_gate&#45;&gt;skill_baseline_security_checklist -->
<g id="edge37" class="edge">
<title>cmd_merge_gate&#45;&gt;skill_baseline_security_checklist</title>
<path fill="none" stroke="black" d="M295.49,-912.39C300.34,-908.66 304.75,-904.21 307.81,-899 396.48,-747.96 241.08,-235.96 365.81,-113 439.76,-40.09 752.62,-55.72 904.51,-68.1"/>
<polygon fill="black" stroke="black" points="904.46,-71.61 914.72,-68.95 905.04,-64.63 904.46,-71.61"/>
</g>
<!-- cmd_merge_gate&#45;&gt;skill_baseline_input_validation -->
<g id="edge38" class="edge">
<title>cmd_merge_gate&#45;&gt;skill_baseline_input_validation</title>
<path fill="none" stroke="black" d="M295.51,-912.41C300.36,-908.67 304.76,-904.21 307.81,-899 402.26,-737.22 233.03,-190.16 365.81,-58 440.37,16.22 760.46,0.78 910.17,-10.94"/>
<polygon fill="black" stroke="black" points="909.97,-14.44 920.22,-11.74 910.53,-7.46 909.97,-14.44"/>
</g>
<!-- cmd_merge_gate&#45;&gt;cmd_auto_merge -->
<!-- agent_worker_structure -->
<g id="node12" class="node">
<title>agent_worker_structure</title>
<ellipse fill="#ede7f6" stroke="black" cx="732.52" cy="-1325" rx="61.54" ry="21.43"/>
<text text-anchor="middle" x="732.52" y="-1328" font-family="Helvetica,sans-Serif" font-size="10.00">worker&#45;structure</text>
<text text-anchor="middle" x="732.52" y="-1317" font-family="Helvetica,sans-Serif" font-size="10.00">(1,244 tok)</text>
</g>
<!-- cmd_merge_gate&#45;&gt;agent_worker_structure -->
<g id="edge17" class="edge">
<title>cmd_merge_gate&#45;&gt;agent_worker_structure</title>
<path fill="none" stroke="black" stroke-dasharray="5,2" d="M295.53,-944.19C300.26,-947.83 304.61,-952.1 307.81,-957 392.04,-1086.12 251.63,-1195.4 365.81,-1299 407.76,-1337.07 568.2,-1334.77 662.06,-1329.83"/>
<polygon fill="black" stroke="black" points="662.25,-1333.33 672.04,-1329.28 661.87,-1326.34 662.25,-1333.33"/>
</g>
<!-- agent_worker_principles -->
<g id="node13" class="node">
<title>agent_worker_principles</title>
<ellipse fill="#ede7f6" stroke="black" cx="732.52" cy="-1261" rx="63.78" ry="21.43"/>
<text text-anchor="middle" x="732.52" y="-1264" font-family="Helvetica,sans-Serif" font-size="10.00">worker&#45;principles</text>
<text text-anchor="middle" x="732.52" y="-1253" font-family="Helvetica,sans-Serif" font-size="10.00">(1,154 tok)</text>
</g>
<!-- cmd_merge_gate&#45;&gt;agent_worker_principles -->
<g id="edge18" class="edge">
<title>cmd_merge_gate&#45;&gt;agent_worker_principles</title>
<path fill="none" stroke="black" stroke-dasharray="5,2" d="M295.62,-945.46C300.11,-948.87 304.36,-952.73 307.81,-957 352.47,-1012.27 313.08,-1058.35 365.81,-1106 430.06,-1164.07 481.06,-1110.68 553.6,-1158 587.73,-1180.26 577.37,-1206.9 611.6,-1229 627.1,-1239.01 645.65,-1245.9 663.48,-1250.65"/>
<polygon fill="black" stroke="black" points="662.73,-1254.07 673.28,-1253.06 664.41,-1247.27 662.73,-1254.07"/>
</g>
<!-- agent_worker_env_validator -->
<g id="node14" class="node">
<title>agent_worker_env_validator</title>
<ellipse fill="#ede7f6" stroke="black" cx="732.52" cy="-319" rx="73.58" ry="21.43"/>
<text text-anchor="middle" x="732.52" y="-322" font-family="Helvetica,sans-Serif" font-size="10.00">worker&#45;env&#45;validator</text>
<text text-anchor="middle" x="732.52" y="-311" font-family="Helvetica,sans-Serif" font-size="10.00">(1,426 tok)</text>
</g>
<!-- cmd_merge_gate&#45;&gt;agent_worker_env_validator -->
<g id="edge32" class="edge">
<title>cmd_merge_gate&#45;&gt;agent_worker_env_validator</title>
<path fill="none" stroke="black" stroke-dasharray="5,2" d="M295.31,-912.29C300.18,-908.56 304.64,-904.14 307.81,-899 425.49,-707.71 214.72,-563.18 365.81,-397 403.34,-355.71 555.39,-334.7 651.22,-325.35"/>
<polygon fill="black" stroke="black" points="651.55,-328.84 661.18,-324.4 650.89,-321.87 651.55,-328.84"/>
</g>
<!-- agent_worker_rls_reviewer -->
<g id="node15" class="node">
<title>agent_worker_rls_reviewer</title>
<ellipse fill="#ede7f6" stroke="black" cx="732.52" cy="-639" rx="70.01" ry="21.43"/>
<text text-anchor="middle" x="732.52" y="-642" font-family="Helvetica,sans-Serif" font-size="10.00">worker&#45;rls&#45;reviewer</text>
<text text-anchor="middle" x="732.52" y="-631" font-family="Helvetica,sans-Serif" font-size="10.00">(1,517 tok)</text>
</g>
<!-- cmd_merge_gate&#45;&gt;agent_worker_rls_reviewer -->
<g id="edge27" class="edge">
<title>cmd_merge_gate&#45;&gt;agent_worker_rls_reviewer</title>
<path fill="none" stroke="black" stroke-dasharray="5,2" d="M295.53,-911.16C300.14,-907.63 304.45,-903.57 307.81,-899 363.33,-823.36 295.48,-758.12 365.81,-696 446.16,-625.01 577.14,-622.35 658.61,-629.1"/>
<polygon fill="black" stroke="black" points="658.51,-632.61 668.78,-630.01 659.13,-625.63 658.51,-632.61"/>
</g>
<!-- agent_worker_supabase_migration_checker -->
<g id="node16" class="node">
<title>agent_worker_supabase_migration_checker</title>
<ellipse fill="#ede7f6" stroke="black" cx="732.52" cy="-895" rx="120.83" ry="21.43"/>
<text text-anchor="middle" x="732.52" y="-898" font-family="Helvetica,sans-Serif" font-size="10.00">worker&#45;supabase&#45;migration&#45;checker</text>
<text text-anchor="middle" x="732.52" y="-887" font-family="Helvetica,sans-Serif" font-size="10.00">(1,338 tok)</text>
</g>
<!-- cmd_merge_gate&#45;&gt;agent_worker_supabase_migration_checker -->
<g id="edge23" class="edge">
<title>cmd_merge_gate&#45;&gt;agent_worker_supabase_migration_checker</title>
<path fill="none" stroke="black" stroke-dasharray="5,2" d="M295.5,-912.01C315.19,-902.99 341.32,-892.63 365.81,-888 451.77,-871.75 551.13,-875.01 624.56,-881.5"/>
<polygon fill="black" stroke="black" points="624.47,-885.01 634.75,-882.43 625.11,-878.04 624.47,-885.01"/>
</g>
<!-- agent_worker_data_validator -->
<g id="node17" class="node">
<title>agent_worker_data_validator</title>
<ellipse fill="#ede7f6" stroke="black" cx="732.52" cy="-383" rx="75.82" ry="21.43"/>
<text text-anchor="middle" x="732.52" y="-386" font-family="Helvetica,sans-Serif" font-size="10.00">worker&#45;data&#45;validator</text>
<text text-anchor="middle" x="732.52" y="-375" font-family="Helvetica,sans-Serif" font-size="10.00">(698 tok)</text>
</g>
<!-- cmd_merge_gate&#45;&gt;agent_worker_data_validator -->
<g id="edge31" class="edge">
<title>cmd_merge_gate&#45;&gt;agent_worker_data_validator</title>
<path fill="none" stroke="black" stroke-dasharray="5,2" d="M295.69,-911.91C300.4,-908.26 304.7,-903.96 307.81,-899 412.93,-731.06 230.64,-601.86 365.81,-457 403.42,-416.69 552.71,-397.27 648.53,-388.78"/>
<polygon fill="black" stroke="black" points="648.83,-392.27 658.49,-387.92 648.23,-385.29 648.83,-392.27"/>
</g>
<!-- agent_worker_e2e_reviewer -->
<g id="node18" class="node">
<title>agent_worker_e2e_reviewer</title>
<ellipse fill="#ede7f6" stroke="black" cx="732.52" cy="-767" rx="73.58" ry="21.43"/>
<text text-anchor="middle" x="732.52" y="-770" font-family="Helvetica,sans-Serif" font-size="10.00">worker&#45;e2e&#45;reviewer</text>
<text text-anchor="middle" x="732.52" y="-759" font-family="Helvetica,sans-Serif" font-size="10.00">(1,226 tok)</text>
</g>
<!-- cmd_merge_gate&#45;&gt;agent_worker_e2e_reviewer -->
<g id="edge25" class="edge">
<title>cmd_merge_gate&#45;&gt;agent_worker_e2e_reviewer</title>
<path fill="none" stroke="black" stroke-dasharray="5,2" d="M293.99,-909.75C298.78,-906.39 303.56,-902.76 307.81,-899 337.57,-872.7 331.31,-850.7 365.81,-831 453.52,-780.9 570.89,-768.16 648.74,-765.81"/>
<polygon fill="black" stroke="black" points="649.07,-769.3 658.98,-765.55 648.89,-762.3 649.07,-769.3"/>
</g>
<!-- agent_worker_spec_reviewer -->
<g id="node19" class="node">
<title>agent_worker_spec_reviewer</title>
<ellipse fill="#ede7f6" stroke="black" cx="732.52" cy="-575" rx="77.56" ry="21.43"/>
<text text-anchor="middle" x="732.52" y="-578" font-family="Helvetica,sans-Serif" font-size="10.00">worker&#45;spec&#45;reviewer</text>
<text text-anchor="middle" x="732.52" y="-567" font-family="Helvetica,sans-Serif" font-size="10.00">(1,094 tok)</text>
</g>
<!-- cmd_merge_gate&#45;&gt;agent_worker_spec_reviewer -->
<g id="edge28" class="edge">
<title>cmd_merge_gate&#45;&gt;agent_worker_spec_reviewer</title>
<path fill="none" stroke="black" stroke-dasharray="5,2" d="M295.37,-911.7C300.11,-908.07 304.51,-903.84 307.81,-899 378.33,-795.38 273.84,-708.17 365.81,-623 405.07,-586.63 548.99,-577.29 644.14,-575.19"/>
<polygon fill="black" stroke="black" points="644.41,-578.69 654.34,-574.99 644.27,-571.69 644.41,-578.69"/>
</g>
<!-- agent_worker_codex_reviewer -->
<g id="node20" class="node">
<title>agent_worker_codex_reviewer</title>
<ellipse fill="#ede7f6" stroke="black" cx="732.52" cy="-255" rx="81.13" ry="21.43"/>
<text text-anchor="middle" x="732.52" y="-258" font-family="Helvetica,sans-Serif" font-size="10.00">worker&#45;codex&#45;reviewer</text>
<text text-anchor="middle" x="732.52" y="-247" font-family="Helvetica,sans-Serif" font-size="10.00">(1,421 tok)</text>
</g>
<!-- cmd_merge_gate&#45;&gt;agent_worker_codex_reviewer -->
<g id="edge33" class="edge">
<title>cmd_merge_gate&#45;&gt;agent_worker_codex_reviewer</title>
<path fill="none" stroke="black" stroke-dasharray="5,2" d="M295.37,-912.32C300.24,-908.59 304.68,-904.16 307.81,-899 373.47,-790.69 281.1,-426.16 365.81,-332 435.65,-254.36 562.24,-243.91 646.6,-246.85"/>
<polygon fill="black" stroke="black" points="646.54,-250.36 656.68,-247.28 646.83,-243.36 646.54,-250.36"/>
</g>
<!-- agent_worker_code_reviewer -->
<g id="node21" class="node">
<title>agent_worker_code_reviewer</title>
<ellipse fill="#ede7f6" stroke="black" cx="732.52" cy="-1197" rx="77.56" ry="21.43"/>
<text text-anchor="middle" x="732.52" y="-1200" font-family="Helvetica,sans-Serif" font-size="10.00">worker&#45;code&#45;reviewer</text>
<text text-anchor="middle" x="732.52" y="-1189" font-family="Helvetica,sans-Serif" font-size="10.00">(964 tok)</text>
</g>
<!-- cmd_merge_gate&#45;&gt;agent_worker_code_reviewer -->
<g id="edge19" class="edge">
<title>cmd_merge_gate&#45;&gt;agent_worker_code_reviewer</title>
<path fill="none" stroke="black" stroke-dasharray="5,2" d="M295.57,-946.23C299.96,-949.5 304.2,-953.11 307.81,-957 343.82,-995.78 324.6,-1027.79 365.81,-1061 433.72,-1115.74 476.55,-1077.12 553.6,-1118 582.91,-1133.55 582.03,-1149.95 611.6,-1165 625.91,-1172.29 642.05,-1178.04 657.75,-1182.54"/>
<polygon fill="black" stroke="black" points="656.87,-1185.93 667.44,-1185.18 658.71,-1179.18 656.87,-1185.93"/>
</g>
<!-- agent_worker_security_reviewer -->
<g id="node22" class="node">
<title>agent_worker_security_reviewer</title>
<ellipse fill="#ede7f6" stroke="black" cx="732.52" cy="-1133" rx="86.95" ry="21.43"/>
<text text-anchor="middle" x="732.52" y="-1136" font-family="Helvetica,sans-Serif" font-size="10.00">worker&#45;security&#45;reviewer</text>
<text text-anchor="middle" x="732.52" y="-1125" font-family="Helvetica,sans-Serif" font-size="10.00">(866 tok)</text>
</g>
<!-- cmd_merge_gate&#45;&gt;agent_worker_security_reviewer -->
<g id="edge20" class="edge">
<title>cmd_merge_gate&#45;&gt;agent_worker_security_reviewer</title>
<path fill="none" stroke="black" stroke-dasharray="5,2" d="M293.33,-946.16C298.3,-949.58 303.3,-953.26 307.81,-957 336.35,-980.68 334.06,-997.82 365.81,-1017 440.24,-1061.98 472.65,-1040.2 553.6,-1072 580.43,-1082.54 584.65,-1090.79 611.6,-1101 626.53,-1106.66 642.87,-1111.72 658.55,-1116.06"/>
<polygon fill="black" stroke="black" points="657.64,-1119.44 668.21,-1118.67 659.47,-1112.69 657.64,-1119.44"/>
</g>
<!-- agent_worker_nextjs_reviewer -->
<g id="node23" class="node">
<title>agent_worker_nextjs_reviewer</title>
<ellipse fill="#ede7f6" stroke="black" cx="732.52" cy="-1069" rx="81.13" ry="21.43"/>
<text text-anchor="middle" x="732.52" y="-1072" font-family="Helvetica,sans-Serif" font-size="10.00">worker&#45;nextjs&#45;reviewer</text>
<text text-anchor="middle" x="732.52" y="-1061" font-family="Helvetica,sans-Serif" font-size="10.00">(642 tok)</text>
</g>
<!-- cmd_merge_gate&#45;&gt;agent_worker_nextjs_reviewer -->
<g id="edge21" class="edge">
<title>cmd_merge_gate&#45;&gt;agent_worker_nextjs_reviewer</title>
<path fill="none" stroke="black" stroke-dasharray="5,2" d="M295.65,-945.79C315.4,-956.26 341.54,-969.15 365.81,-978 379.86,-983.13 560.52,-1027.38 662.54,-1052.24"/>
<polygon fill="black" stroke="black" points="661.92,-1055.69 672.46,-1054.65 663.57,-1048.88 661.92,-1055.69"/>
</g>
<!-- agent_worker_fastapi_reviewer -->
<g id="node24" class="node">
<title>agent_worker_fastapi_reviewer</title>
<ellipse fill="#ede7f6" stroke="black" cx="732.52" cy="-1005" rx="83.38" ry="21.43"/>
<text text-anchor="middle" x="732.52" y="-1008" font-family="Helvetica,sans-Serif" font-size="10.00">worker&#45;fastapi&#45;reviewer</text>
<text text-anchor="middle" x="732.52" y="-997" font-family="Helvetica,sans-Serif" font-size="10.00">(639 tok)</text>
</g>
<!-- cmd_merge_gate&#45;&gt;agent_worker_fastapi_reviewer -->
<g id="edge22" class="edge">
<title>cmd_merge_gate&#45;&gt;agent_worker_fastapi_reviewer</title>
<path fill="none" stroke="black" stroke-dasharray="5,2" d="M295.59,-933.23C368.09,-945.17 547.5,-974.7 652.17,-991.94"/>
<polygon fill="black" stroke="black" points="651.62,-995.39 662.06,-993.57 652.76,-988.49 651.62,-995.39"/>
</g>
<!-- agent_worker_hono_reviewer -->
<g id="node25" class="node">
<title>agent_worker_hono_reviewer</title>
<ellipse fill="#ede7f6" stroke="black" cx="732.52" cy="-703" rx="77.56" ry="21.43"/>
<text text-anchor="middle" x="732.52" y="-706" font-family="Helvetica,sans-Serif" font-size="10.00">worker&#45;hono&#45;reviewer</text>
<text text-anchor="middle" x="732.52" y="-695" font-family="Helvetica,sans-Serif" font-size="10.00">(847 tok)</text>
</g>
<!-- cmd_merge_gate&#45;&gt;agent_worker_hono_reviewer -->
<g id="edge26" class="edge">
<title>cmd_merge_gate&#45;&gt;agent_worker_hono_reviewer</title>
<path fill="none" stroke="black" stroke-dasharray="5,2" d="M295.44,-910.39C299.95,-907 304.25,-903.18 307.81,-899 348.75,-850.77 316.01,-808.03 365.81,-769 446.15,-706.02 566.89,-695.68 647.39,-696.97"/>
<polygon fill="black" stroke="black" points="647.42,-700.47 657.5,-697.19 647.58,-693.47 647.42,-700.47"/>
</g>
<!-- agent_worker_r_reviewer -->
<g id="node26" class="node">
<title>agent_worker_r_reviewer</title>
<ellipse fill="#ede7f6" stroke="black" cx="732.52" cy="-831" rx="65.11" ry="21.43"/>
<text text-anchor="middle" x="732.52" y="-834" font-family="Helvetica,sans-Serif" font-size="10.00">worker&#45;r&#45;reviewer</text>
<text text-anchor="middle" x="732.52" y="-823" font-family="Helvetica,sans-Serif" font-size="10.00">(717 tok)</text>
</g>
<!-- cmd_merge_gate&#45;&gt;agent_worker_r_reviewer -->
<g id="edge24" class="edge">
<title>cmd_merge_gate&#45;&gt;agent_worker_r_reviewer</title>
<path fill="none" stroke="black" stroke-dasharray="5,2" d="M293.36,-909.74C317.91,-894.91 351.12,-875.69 365.81,-871 463.28,-839.86 581.99,-832.03 657.17,-830.53"/>
<polygon fill="black" stroke="black" points="657.54,-834.02 667.48,-830.36 657.43,-827.02 657.54,-834.02"/>
</g>
<!-- agent_worker_architecture -->
<g id="node27" class="node">
<title>agent_worker_architecture</title>
<ellipse fill="#ede7f6" stroke="black" cx="732.52" cy="-191" rx="70.92" ry="21.43"/>
<text text-anchor="middle" x="732.52" y="-194" font-family="Helvetica,sans-Serif" font-size="10.00">worker&#45;architecture</text>
<text text-anchor="middle" x="732.52" y="-183" font-family="Helvetica,sans-Serif" font-size="10.00">(2,186 tok)</text>
</g>
<!-- cmd_merge_gate&#45;&gt;agent_worker_architecture -->
<g id="edge34" class="edge">
<title>cmd_merge_gate&#45;&gt;agent_worker_architecture</title>
<path fill="none" stroke="black" stroke-dasharray="5,2" d="M295.43,-912.36C300.29,-908.62 304.71,-904.18 307.81,-899 382.6,-773.73 265.68,-351.12 365.81,-245 441.06,-165.23 578.79,-167.89 662.06,-178.48"/>
<polygon fill="black" stroke="black" points="661.81,-181.98 672.19,-179.84 662.74,-175.04 661.81,-181.98"/>
</g>
<!-- agent_worker_llm_output_reviewer -->
<g id="node28" class="node">
<title>agent_worker_llm_output_reviewer</title>
<ellipse fill="#ede7f6" stroke="black" cx="732.52" cy="-511" rx="92.76" ry="21.43"/>
<text text-anchor="middle" x="732.52" y="-514" font-family="Helvetica,sans-Serif" font-size="10.00">worker&#45;llm&#45;output&#45;reviewer</text>
<text text-anchor="middle" x="732.52" y="-503" font-family="Helvetica,sans-Serif" font-size="10.00">(1,162 tok)</text>
</g>
<!-- cmd_merge_gate&#45;&gt;agent_worker_llm_output_reviewer -->
<g id="edge29" class="edge">
<title>cmd_merge_gate&#45;&gt;agent_worker_llm_output_reviewer</title>
<path fill="none" stroke="black" stroke-dasharray="5,2" d="M295.5,-911.78C300.23,-908.15 304.59,-903.89 307.81,-899 388.5,-776.46 261.74,-677.44 365.81,-574 402.34,-537.68 535.95,-522.15 631.09,-515.61"/>
<polygon fill="black" stroke="black" points="631.58,-519.09 641.33,-514.93 631.12,-512.1 631.58,-519.09"/>
</g>
<!-- agent_worker_llm_eval_runner -->
<g id="node29" class="node">
<title>agent_worker_llm_eval_runner</title>
<ellipse fill="#ede7f6" stroke="black" cx="732.52" cy="-447" rx="79.81" ry="21.43"/>
<text text-anchor="middle" x="732.52" y="-450" font-family="Helvetica,sans-Serif" font-size="10.00">worker&#45;llm&#45;eval&#45;runner</text>
<text text-anchor="middle" x="732.52" y="-439" font-family="Helvetica,sans-Serif" font-size="10.00">(1,174 tok)</text>
</g>
<!-- cmd_merge_gate&#45;&gt;agent_worker_llm_eval_runner -->
<g id="edge30" class="edge">
<title>cmd_merge_gate&#45;&gt;agent_worker_llm_eval_runner</title>
<path fill="none" stroke="black" stroke-dasharray="5,2" d="M295.6,-911.85C300.32,-908.21 304.65,-903.93 307.81,-899 400.38,-754.37 246.74,-640.74 365.81,-517 403.36,-477.97 548.44,-460.05 644.19,-452.32"/>
<polygon fill="black" stroke="black" points="644.47,-455.81 654.17,-451.53 643.92,-448.83 644.47,-455.81"/>
</g>
<!-- cmd_merge_gate&#45;&gt;script_state_write -->
<g id="edge12" class="edge">
<title>cmd_merge_gate&#45;&gt;script_state_write</title>
<path fill="none" stroke="black" d="M295.34,-943.7C300.21,-947.42 304.66,-951.85 307.81,-957 431.16,-1158.81 221.7,-1298.45 365.81,-1486 375.57,-1498.71 390.45,-1506.94 405.45,-1512.26"/>
<polygon fill="black" stroke="black" points="404.68,-1515.69 415.27,-1515.36 406.79,-1509.01 404.68,-1515.69"/>
</g>
<!-- script_worktree_delete -->
<g id="node31" class="node">
<title>script_worktree_delete</title>
<polygon fill="#ff9800" stroke="black" points="527.24,-1451 493.47,-1475.49 425.93,-1475.49 392.16,-1451 425.93,-1426.51 493.47,-1426.51 527.24,-1451"/>
<text text-anchor="middle" x="459.7" y="-1454" font-family="Helvetica,sans-Serif" font-size="10.00">worktree&#45;delete</text>
<text text-anchor="middle" x="459.7" y="-1443" font-family="Helvetica,sans-Serif" font-size="10.00">(956 tok)</text>
</g>
<!-- cmd_merge_gate&#45;&gt;script_worktree_delete -->
<g id="edge13" class="edge">
<title>cmd_merge_gate&#45;&gt;script_worktree_delete</title>
<path fill="none" stroke="black" d="M295.71,-944.08C300.41,-947.73 304.71,-952.03 307.81,-957 416.28,-1131.17 239.43,-1253.35 365.81,-1415 373.54,-1424.89 384.36,-1432.07 395.89,-1437.27"/>
<polygon fill="black" stroke="black" points="394.66,-1440.55 405.24,-1441.04 397.27,-1434.06 394.66,-1440.55"/>
</g>
<!-- script_tech_stack_detect -->
<g id="node32" class="node">
<title>script_tech_stack_detect</title>
<polygon fill="#ff9800" stroke="black" points="534.94,-1593 497.32,-1617.49 422.09,-1617.49 384.47,-1593 422.09,-1568.51 497.32,-1568.51 534.94,-1593"/>
<text text-anchor="middle" x="459.7" y="-1596" font-family="Helvetica,sans-Serif" font-size="10.00">tech&#45;stack&#45;detect</text>
<text text-anchor="middle" x="459.7" y="-1585" font-family="Helvetica,sans-Serif" font-size="10.00">(539 tok)</text>
</g>
<!-- cmd_merge_gate&#45;&gt;script_tech_stack_detect -->
<g id="edge11" class="edge">
<title>cmd_merge_gate&#45;&gt;script_tech_stack_detect</title>
<path fill="none" stroke="black" d="M295.39,-943.66C300.26,-947.4 304.69,-951.83 307.81,-957 376.93,-1071.74 284.87,-1450.26 365.81,-1557 372.53,-1565.86 381.73,-1572.55 391.75,-1577.58"/>
<polygon fill="black" stroke="black" points="390.58,-1580.89 401.14,-1581.76 393.43,-1574.5 390.58,-1580.89"/>
</g>
<!-- script_specialist_output_parse -->
<g id="node33" class="node">
<title>script_specialist_output_parse</title>
<polygon fill="#ff9800" stroke="black" points="553.5,-1664 506.6,-1688.49 412.81,-1688.49 365.91,-1664 412.81,-1639.51 506.6,-1639.51 553.5,-1664"/>
<text text-anchor="middle" x="459.7" y="-1667" font-family="Helvetica,sans-Serif" font-size="10.00">specialist&#45;output&#45;parse</text>
<text text-anchor="middle" x="459.7" y="-1656" font-family="Helvetica,sans-Serif" font-size="10.00">(605 tok)</text>
</g>
<!-- cmd_merge_gate&#45;&gt;script_specialist_output_parse -->
<g id="edge10" class="edge">
<title>cmd_merge_gate&#45;&gt;script_specialist_output_parse</title>
<path fill="none" stroke="black" d="M295.43,-943.64C300.3,-947.37 304.72,-951.81 307.81,-957 384.39,-1085.59 275.99,-1508.28 365.81,-1628 370.77,-1634.62 377.12,-1640.02 384.16,-1644.42"/>
<polygon fill="black" stroke="black" points="382.96,-1647.75 393.41,-1649.49 386.32,-1641.62 382.96,-1647.75"/>
</g>
<!-- script_merge_gate_execute -->
<g id="node34" class="node">
<title>script_merge_gate_execute</title>
<polygon fill="#ff9800" stroke="black" points="543.9,-1193 501.8,-1217.49 417.6,-1217.49 375.5,-1193 417.6,-1168.51 501.8,-1168.51 543.9,-1193"/>
<text text-anchor="middle" x="459.7" y="-1196" font-family="Helvetica,sans-Serif" font-size="10.00">merge&#45;gate&#45;execute</text>
<text text-anchor="middle" x="459.7" y="-1185" font-family="Helvetica,sans-Serif" font-size="10.00">(2,434 tok)</text>
</g>
<!-- cmd_merge_gate&#45;&gt;script_merge_gate_execute -->
<g id="edge16" class="edge">
<title>cmd_merge_gate&#45;&gt;script_merge_gate_execute</title>
<path fill="none" stroke="black" d="M295.49,-944.87C300.1,-948.4 304.43,-952.45 307.81,-957 361.7,-1029.6 306.04,-1084.15 365.81,-1152 373.29,-1160.49 382.86,-1167.3 393,-1172.74"/>
<polygon fill="black" stroke="black" points="391.5,-1175.91 402.02,-1177.18 394.59,-1169.63 391.5,-1175.91"/>
</g>
<!-- cmd_merge_gate&#45;&gt;script_checkpoint_write -->
<g id="edge14" class="edge">
<title>cmd_merge_gate&#45;&gt;script_checkpoint_write</title>
<path fill="none" stroke="black" d="M295.6,-944.15C300.32,-947.79 304.65,-952.07 307.81,-957 400.38,-1101.63 261.48,-1202.6 365.81,-1339 373.83,-1349.49 385.11,-1357.35 397.06,-1363.22"/>
<polygon fill="black" stroke="black" points="395.72,-1366.46 406.28,-1367.34 398.57,-1360.07 395.72,-1366.46"/>
</g>
<!-- script_checkpoint_read -->
<g id="node36" class="node">
<title>script_checkpoint_read</title>
<polygon fill="#ff9800" stroke="black" points="530.14,-1264 494.92,-1288.49 424.48,-1288.49 389.27,-1264 424.48,-1239.51 494.92,-1239.51 530.14,-1264"/>
<text text-anchor="middle" x="459.7" y="-1267" font-family="Helvetica,sans-Serif" font-size="10.00">checkpoint&#45;read</text>
<text text-anchor="middle" x="459.7" y="-1256" font-family="Helvetica,sans-Serif" font-size="10.00">(470 tok)</text>
</g>
<!-- cmd_merge_gate&#45;&gt;script_checkpoint_read -->
<g id="edge15" class="edge">
<title>cmd_merge_gate&#45;&gt;script_checkpoint_read</title>
<path fill="none" stroke="black" d="M295.36,-944.31C300.1,-947.94 304.5,-952.17 307.81,-957 377.3,-1058.7 285.9,-1134.27 365.81,-1228 373.61,-1237.15 384.03,-1243.99 395.06,-1249.09"/>
<polygon fill="black" stroke="black" points="393.86,-1252.38 404.43,-1252.98 396.54,-1245.92 393.86,-1252.38"/>
</g>
<!-- cmd_pr_cycle_analysis&#45;&gt;cmd_all_pass_check -->
<!-- agent_worker_structure&#45;&gt;skill_ref_specialist_output_schema -->
<g id="edge39" class="edge">
<title>agent_worker_structure&#45;&gt;skill_ref_specialist_output_schema</title>
<path fill="none" stroke="black" stroke-dasharray="1,5" d="M793.65,-1322.61C815.53,-1318.6 838.51,-1310.15 853.43,-1293 926.16,-1209.37 976.85,-385.81 986.33,-220.72"/>
<polygon fill="black" stroke="black" points="989.84,-220.59 986.91,-210.4 982.85,-220.19 989.84,-220.59"/>
</g>
<!-- agent_worker_structure&#45;&gt;agent_worker_principles -->
<!-- agent_worker_structure&#45;&gt;agent_worker_principles -->
<!-- agent_worker_structure&#45;&gt;agent_worker_principles -->
<!-- agent_worker_structure&#45;&gt;agent_worker_principles -->
<!-- agent_worker_principles&#45;&gt;skill_ref_specialist_output_schema -->
<g id="edge40" class="edge">
<title>agent_worker_principles&#45;&gt;skill_ref_specialist_output_schema</title>
<path fill="none" stroke="black" stroke-dasharray="1,5" d="M795.77,-1258.14C816.97,-1253.97 838.95,-1245.53 853.43,-1229 989.99,-1073.14 989.95,-370.62 988.34,-220.35"/>
<polygon fill="black" stroke="black" points="991.84,-220.08 988.22,-210.12 984.84,-220.16 991.84,-220.08"/>
</g>
<!-- agent_worker_principles&#45;&gt;agent_worker_code_reviewer -->
<!-- agent_worker_principles&#45;&gt;agent_worker_code_reviewer -->
<!-- agent_worker_principles&#45;&gt;agent_worker_architecture -->
<!-- agent_worker_principles&#45;&gt;agent_worker_architecture -->
<!-- agent_worker_env_validator&#45;&gt;skill_ref_specialist_output_schema -->
<g id="edge41" class="edge">
<title>agent_worker_env_validator&#45;&gt;skill_ref_specialist_output_schema</title>
<path fill="none" stroke="black" stroke-dasharray="1,5" d="M794.15,-307.25C813.6,-302.32 834.89,-295.68 853.43,-287 892.91,-268.52 933.08,-238.34 959.11,-216.97"/>
<polygon fill="black" stroke="black" points="961.6,-219.45 967.05,-210.36 957.12,-214.07 961.6,-219.45"/>
</g>
<!-- agent_worker_env_validator&#45;&gt;agent_worker_codex_reviewer -->
<!-- agent_worker_env_validator&#45;&gt;agent_worker_codex_reviewer -->
<!-- agent_worker_rls_reviewer&#45;&gt;skill_ref_specialist_output_schema -->
<g id="edge42" class="edge">
<title>agent_worker_rls_reviewer&#45;&gt;skill_ref_specialist_output_schema</title>
<path fill="none" stroke="black" stroke-dasharray="1,5" d="M800.08,-633.3C819.31,-628.7 838.97,-620.72 853.43,-607 967.07,-499.19 984.88,-294.7 987.53,-220.12"/>
<polygon fill="black" stroke="black" points="991.03,-220.18 987.82,-210.08 984.03,-219.98 991.03,-220.18"/>
</g>
<!-- agent_worker_rls_reviewer&#45;&gt;agent_worker_spec_reviewer -->
<!-- agent_worker_rls_reviewer&#45;&gt;agent_worker_spec_reviewer -->
<!-- agent_worker_supabase_migration_checker&#45;&gt;skill_ref_specialist_output_schema -->
<g id="edge43" class="edge">
<title>agent_worker_supabase_migration_checker&#45;&gt;skill_ref_specialist_output_schema</title>
<path fill="none" stroke="black" stroke-dasharray="1,5" d="M826.87,-881.58C836.81,-876.98 845.98,-870.93 853.43,-863 943.44,-767.14 978.35,-335.36 986.15,-220.27"/>
<polygon fill="black" stroke="black" points="989.66,-220.35 986.82,-210.14 982.67,-219.89 989.66,-220.35"/>
</g>
<!-- agent_worker_supabase_migration_checker&#45;&gt;agent_worker_r_reviewer -->
<!-- agent_worker_supabase_migration_checker&#45;&gt;agent_worker_r_reviewer -->
<!-- agent_worker_data_validator&#45;&gt;skill_ref_specialist_output_schema -->
<g id="edge44" class="edge">
<title>agent_worker_data_validator&#45;&gt;skill_ref_specialist_output_schema</title>
<path fill="none" stroke="black" stroke-dasharray="1,5" d="M799.35,-373.02C817.8,-368.26 837.23,-361.26 853.43,-351 907.12,-316.98 950.5,-254.71 972.41,-219.03"/>
<polygon fill="black" stroke="black" points="975.6,-220.51 977.76,-210.14 969.6,-216.9 975.6,-220.51"/>
</g>
<!-- agent_worker_data_validator&#45;&gt;agent_worker_env_validator -->
<!-- agent_worker_data_validator&#45;&gt;agent_worker_env_validator -->
<!-- agent_worker_e2e_reviewer&#45;&gt;skill_ref_specialist_output_schema -->
<g id="edge45" class="edge">
<title>agent_worker_e2e_reviewer&#45;&gt;skill_ref_specialist_output_schema</title>
<path fill="none" stroke="black" stroke-dasharray="1,5" d="M803.5,-761.22C821.82,-756.54 840.14,-748.53 853.43,-735 927.38,-659.71 972.71,-320.91 984.71,-220.27"/>
<polygon fill="black" stroke="black" points="988.2,-220.58 985.89,-210.24 981.25,-219.77 988.2,-220.58"/>
</g>
<!-- agent_worker_e2e_reviewer&#45;&gt;agent_worker_hono_reviewer -->
<!-- agent_worker_e2e_reviewer&#45;&gt;agent_worker_hono_reviewer -->
<!-- agent_worker_spec_reviewer&#45;&gt;skill_ref_specialist_output_schema -->
<g id="edge46" class="edge">
<title>agent_worker_spec_reviewer&#45;&gt;skill_ref_specialist_output_schema</title>
<path fill="none" stroke="black" stroke-dasharray="1,5" d="M805.26,-567.39C822.65,-562.62 840.06,-555.04 853.43,-543 951.53,-454.71 978.57,-286.86 985.61,-220.25"/>
<polygon fill="black" stroke="black" points="989.11,-220.4 986.6,-210.1 982.14,-219.71 989.11,-220.4"/>
</g>
<!-- agent_worker_spec_reviewer&#45;&gt;agent_worker_llm_output_reviewer -->
<!-- agent_worker_spec_reviewer&#45;&gt;agent_worker_llm_output_reviewer -->
<!-- agent_worker_codex_reviewer&#45;&gt;skill_ref_specialist_output_schema -->
<g id="edge47" class="edge">
<title>agent_worker_codex_reviewer&#45;&gt;skill_ref_specialist_output_schema</title>
<path fill="none" stroke="black" stroke-dasharray="1,5" d="M778.41,-237.41C812.42,-227.25 860.18,-214.96 901.51,-205.54"/>
<polygon fill="black" stroke="black" points="902.33,-208.94 911.32,-203.33 900.8,-202.11 902.33,-208.94"/>
</g>
<!-- agent_worker_codex_reviewer&#45;&gt;skill_ref_specialist_output_schema -->
<!-- agent_worker_codex_reviewer&#45;&gt;agent_worker_architecture -->
<!-- agent_worker_code_reviewer&#45;&gt;skill_ref_specialist_output_schema -->
<g id="edge48" class="edge">
<title>agent_worker_code_reviewer&#45;&gt;skill_ref_specialist_output_schema</title>
<path fill="none" stroke="black" stroke-dasharray="1,5" d="M807.56,-1191.27C824.82,-1186.48 841.59,-1178.4 853.43,-1165 981.78,-1019.75 988.24,-365.21 988.08,-220.42"/>
<polygon fill="black" stroke="black" points="991.58,-220.15 988.05,-210.16 984.58,-220.16 991.58,-220.15"/>
</g>
<!-- agent_worker_code_reviewer&#45;&gt;agent_worker_security_reviewer -->
<!-- agent_worker_code_reviewer&#45;&gt;agent_worker_security_reviewer -->
<!-- agent_worker_security_reviewer&#45;&gt;skill_ref_specialist_output_schema -->
<g id="edge49" class="edge">
<title>agent_worker_security_reviewer&#45;&gt;skill_ref_specialist_output_schema</title>
<path fill="none" stroke="black" stroke-dasharray="1,5" d="M813.69,-1125.32C828.71,-1120.38 842.96,-1112.74 853.43,-1101 973.64,-966.26 986.42,-359.05 987.77,-220.3"/>
<polygon fill="black" stroke="black" points="991.28,-220.1 987.86,-210.07 984.28,-220.04 991.28,-220.1"/>
</g>
<!-- agent_worker_security_reviewer&#45;&gt;agent_worker_nextjs_reviewer -->
<!-- agent_worker_security_reviewer&#45;&gt;agent_worker_nextjs_reviewer -->
<!-- agent_worker_nextjs_reviewer&#45;&gt;skill_ref_specialist_output_schema -->
<g id="edge50" class="edge">
<title>agent_worker_nextjs_reviewer&#45;&gt;skill_ref_specialist_output_schema</title>
<path fill="none" stroke="black" stroke-dasharray="1,5" d="M809.87,-1062.39C826.25,-1057.53 842.03,-1049.64 853.43,-1037 965.45,-912.81 984.47,-353.36 987.42,-220.41"/>
<polygon fill="black" stroke="black" points="990.93,-220.3 987.64,-210.23 983.93,-220.15 990.93,-220.3"/>
</g>
<!-- agent_worker_nextjs_reviewer&#45;&gt;agent_worker_fastapi_reviewer -->
<!-- agent_worker_nextjs_reviewer&#45;&gt;agent_worker_fastapi_reviewer -->
<!-- agent_worker_fastapi_reviewer&#45;&gt;skill_ref_specialist_output_schema -->
<g id="edge51" class="edge">
<title>agent_worker_fastapi_reviewer&#45;&gt;skill_ref_specialist_output_schema</title>
<path fill="none" stroke="black" stroke-dasharray="1,5" d="M806.83,-995.3C824.31,-989.66 841.36,-980.82 853.43,-967 953.92,-851.93 981.5,-345.98 986.85,-220.33"/>
<polygon fill="black" stroke="black" points="990.36,-220.14 987.27,-210.01 983.37,-219.86 990.36,-220.14"/>
</g>
<!-- agent_worker_fastapi_reviewer&#45;&gt;agent_worker_supabase_migration_checker -->
<!-- agent_worker_fastapi_reviewer&#45;&gt;agent_worker_supabase_migration_checker -->
<!-- agent_worker_hono_reviewer&#45;&gt;skill_ref_specialist_output_schema -->
<g id="edge52" class="edge">
<title>agent_worker_hono_reviewer&#45;&gt;skill_ref_specialist_output_schema</title>
<path fill="none" stroke="black" stroke-dasharray="1,5" d="M806.35,-696.12C823.62,-691.34 840.7,-683.56 853.43,-671 919.44,-605.85 969.35,-312.94 983.72,-220.23"/>
<polygon fill="black" stroke="black" points="987.2,-220.6 985.26,-210.19 980.29,-219.54 987.2,-220.6"/>
</g>
<!-- agent_worker_hono_reviewer&#45;&gt;agent_worker_rls_reviewer -->
<!-- agent_worker_hono_reviewer&#45;&gt;agent_worker_rls_reviewer -->
<!-- agent_worker_r_reviewer&#45;&gt;skill_ref_specialist_output_schema -->
<g id="edge53" class="edge">
<title>agent_worker_r_reviewer&#45;&gt;skill_ref_specialist_output_schema</title>
<path fill="none" stroke="black" stroke-dasharray="1,5" d="M796.54,-827.1C817.18,-822.76 838.6,-814.48 853.43,-799 935.37,-713.48 975.67,-328.49 985.5,-220.34"/>
<polygon fill="black" stroke="black" points="989,-220.47 986.41,-210.2 982.03,-219.85 989,-220.47"/>
</g>
<!-- agent_worker_r_reviewer&#45;&gt;agent_worker_e2e_reviewer -->
<!-- agent_worker_r_reviewer&#45;&gt;agent_worker_e2e_reviewer -->
<!-- agent_worker_architecture&#45;&gt;skill_ref_specialist_output_schema -->
<g id="edge54" class="edge">
<title>agent_worker_architecture&#45;&gt;skill_ref_specialist_output_schema</title>
<path fill="none" stroke="black" stroke-dasharray="1,5" d="M770.51,-173.08C815.8,-164.89 892.52,-164.68 941.67,-172.21"/>
<polygon fill="black" stroke="black" points="941.27,-175.69 951.72,-173.93 942.45,-168.79 941.27,-175.69"/>
</g>
<!-- agent_worker_architecture&#45;&gt;skill_ref_specialist_output_schema -->
<!-- agent_worker_architecture&#45;&gt;skill_ref_specialist_output_schema -->
<!-- agent_worker_architecture&#45;&gt;skill_ref_specialist_output_schema -->
<!-- agent_worker_llm_output_reviewer&#45;&gt;skill_ref_specialist_output_schema -->
<g id="edge55" class="edge">
<title>agent_worker_llm_output_reviewer&#45;&gt;skill_ref_specialist_output_schema</title>
<path fill="none" stroke="black" stroke-dasharray="1,5" d="M812.8,-500.3C827.45,-495.55 841.78,-488.75 853.43,-479 936.47,-409.53 971.32,-277.31 983,-219.84"/>
<polygon fill="black" stroke="black" points="986.43,-220.49 984.91,-210.01 979.56,-219.15 986.43,-220.49"/>
</g>
<!-- agent_worker_llm_output_reviewer&#45;&gt;agent_worker_llm_eval_runner -->
<!-- agent_worker_llm_output_reviewer&#45;&gt;agent_worker_llm_eval_runner -->
<!-- agent_worker_llm_eval_runner&#45;&gt;skill_ref_specialist_output_schema -->
<g id="edge56" class="edge">
<title>agent_worker_llm_eval_runner&#45;&gt;skill_ref_specialist_output_schema</title>
<path fill="none" stroke="black" stroke-dasharray="1,5" d="M804.2,-437.63C821.5,-432.88 839.13,-425.74 853.43,-415 921.45,-363.89 962.15,-267.41 978.94,-219.89"/>
<polygon fill="black" stroke="black" points="982.31,-220.85 982.25,-210.26 975.69,-218.58 982.31,-220.85"/>
</g>
<!-- agent_worker_llm_eval_runner&#45;&gt;agent_worker_data_validator -->
<!-- agent_worker_llm_eval_runner&#45;&gt;agent_worker_data_validator -->
<!-- script_state_write&#45;&gt;script_worktree_delete -->
<!-- script_state_write&#45;&gt;script_checkpoint_write -->
<!-- script_worktree_delete&#45;&gt;script_checkpoint_write -->
<!-- script_tech_stack_detect&#45;&gt;script_state_write -->
<!-- script_tech_stack_detect&#45;&gt;script_checkpoint_write -->
<!-- script_specialist_output_parse&#45;&gt;script_tech_stack_detect -->
<!-- script_specialist_output_parse&#45;&gt;script_tech_stack_detect -->
<!-- script_merge_gate_execute&#45;&gt;agent_worker_structure -->
<!-- script_checkpoint_write&#45;&gt;agent_worker_structure -->
<!-- script_checkpoint_write&#45;&gt;script_checkpoint_read -->
<!-- script_checkpoint_read&#45;&gt;script_merge_gate_execute -->
</g>
</svg>
