<?xml version="1.0" encoding="UTF-8" standalone="no"?>
<!DOCTYPE svg PUBLIC "-//W3C//DTD SVG 1.1//EN"
 "http://www.w3.org/Graphics/SVG/1.1/DTD/svg11.dtd">
<!-- Generated by graphviz version 2.43.0 (0)
 -->
<!-- Title: Dependencies Pages: 1 -->
<svg width="1119pt" height="380pt"
 viewBox="0.00 0.00 1118.52 380.27" xmlns="http://www.w3.org/2000/svg" xmlns:xlink="http://www.w3.org/1999/xlink">
<g id="graph0" class="graph" transform="scale(1 1) rotate(0) translate(4 376.27)">
<title>Dependencies</title>
<polygon fill="white" stroke="transparent" points="-4,4 -4,-376.27 1114.52,-376.27 1114.52,4 -4,4"/>
<text text-anchor="middle" x="555.26" y="-357.07" font-family="Helvetica,sans-Serif" font-size="14.00">workflow&#45;plugin&#45;diagnose</text>
<!-- skill_workflow_plugin_diagnose -->
<g id="node1" class="node">
<title>skill_workflow_plugin_diagnose</title>
<ellipse fill="#e8f5e9" stroke="black" cx="113.84" cy="-186.27" rx="113.69" ry="21.43"/>
<text text-anchor="middle" x="113.84" y="-189.27" font-family="Helvetica,sans-Serif" font-size="10.00">twl:workflow&#45;plugin&#45;diagnose</text>
<text text-anchor="middle" x="113.84" y="-178.27" font-family="Helvetica,sans-Serif" font-size="10.00">(693 tok)</text>
</g>
<!-- cmd_plugin_migrate_analyze -->
<g id="node2" class="node">
<title>cmd_plugin_migrate_analyze</title>
<polygon fill="#e3f2fd" stroke="black" points="416.69,-349.27 285.69,-349.27 285.69,-313.27 416.69,-313.27 416.69,-349.27"/>
<text text-anchor="middle" x="351.19" y="-334.27" font-family="Helvetica,sans-Serif" font-size="10.00">plugin&#45;migrate&#45;analyze</text>
<text text-anchor="middle" x="351.19" y="-323.27" font-family="Helvetica,sans-Serif" font-size="10.00">(476 tok)</text>
</g>
<!-- skill_workflow_plugin_diagnose&#45;&gt;cmd_plugin_migrate_analyze -->
<g id="edge1" class="edge">
<title>skill_workflow_plugin_diagnose&#45;&gt;cmd_plugin_migrate_analyze</title>
<path fill="none" stroke="black" d="M142.01,-206.9C174.94,-231.39 232.64,-272.63 285.69,-302.27 289.65,-304.49 293.82,-306.67 298.05,-308.78"/>
<polygon fill="black" stroke="black" points="296.82,-312.07 307.34,-313.27 299.86,-305.77 296.82,-312.07"/>
</g>
<!-- cmd_plugin_diagnose -->
<g id="node3" class="node">
<title>cmd_plugin_diagnose</title>
<polygon fill="#e3f2fd" stroke="black" points="398.69,-291.27 303.69,-291.27 303.69,-255.27 398.69,-255.27 398.69,-291.27"/>
<text text-anchor="middle" x="351.19" y="-276.27" font-family="Helvetica,sans-Serif" font-size="10.00">plugin&#45;diagnose</text>
<text text-anchor="middle" x="351.19" y="-265.27" font-family="Helvetica,sans-Serif" font-size="10.00">(944 tok)</text>
</g>
<!-- skill_workflow_plugin_diagnose&#45;&gt;cmd_plugin_diagnose -->
<g id="edge2" class="edge">
<title>skill_workflow_plugin_diagnose&#45;&gt;cmd_plugin_diagnose</title>
<path fill="none" stroke="black" d="M165.91,-205.15C203.67,-219.11 255.08,-238.11 294,-252.5"/>
<polygon fill="black" stroke="black" points="293.02,-255.87 303.62,-256.05 295.45,-249.3 293.02,-255.87"/>
</g>
<!-- cmd_plugin_fix -->
<g id="node4" class="node">
<title>cmd_plugin_fix</title>
<polygon fill="#e3f2fd" stroke="black" points="386.19,-175.27 316.19,-175.27 316.19,-139.27 386.19,-139.27 386.19,-175.27"/>
<text text-anchor="middle" x="351.19" y="-160.27" font-family="Helvetica,sans-Serif" font-size="10.00">plugin&#45;fix</text>
<text text-anchor="middle" x="351.19" y="-149.27" font-family="Helvetica,sans-Serif" font-size="10.00">(1,092 tok)</text>
</g>
<!-- skill_workflow_plugin_diagnose&#45;&gt;cmd_plugin_fix -->
<g id="edge4" class="edge">
<title>skill_workflow_plugin_diagnose&#45;&gt;cmd_plugin_fix</title>
<path fill="none" stroke="black" d="M209.21,-174.64C242.66,-170.52 278.73,-166.08 306.01,-162.71"/>
<polygon fill="black" stroke="black" points="306.52,-166.18 316.01,-161.48 305.66,-159.23 306.52,-166.18"/>
</g>
<!-- cmd_plugin_verify -->
<g id="node5" class="node">
<title>cmd_plugin_verify</title>
<polygon fill="#e3f2fd" stroke="black" points="389.69,-117.27 312.69,-117.27 312.69,-81.27 389.69,-81.27 389.69,-117.27"/>
<text text-anchor="middle" x="351.19" y="-102.27" font-family="Helvetica,sans-Serif" font-size="10.00">plugin&#45;verify</text>
<text text-anchor="middle" x="351.19" y="-91.27" font-family="Helvetica,sans-Serif" font-size="10.00">(536 tok)</text>
</g>
<!-- skill_workflow_plugin_diagnose&#45;&gt;cmd_plugin_verify -->
<g id="edge5" class="edge">
<title>skill_workflow_plugin_diagnose&#45;&gt;cmd_plugin_verify</title>
<path fill="none" stroke="black" d="M165.91,-167.39C206.62,-152.34 263.2,-131.43 302.89,-116.75"/>
<polygon fill="black" stroke="black" points="304.18,-120.01 312.35,-113.26 301.75,-113.44 304.18,-120.01"/>
</g>
<!-- cmd_plugin_phase_diagnose -->
<g id="node6" class="node">
<title>cmd_plugin_phase_diagnose</title>
<polygon fill="#bbdefb" stroke="black" points="415.19,-233.27 287.19,-233.27 287.19,-197.27 415.19,-197.27 415.19,-233.27"/>
<text text-anchor="middle" x="351.19" y="-218.27" font-family="Helvetica,sans-Serif" font-size="10.00">plugin&#45;phase&#45;diagnose</text>
<text text-anchor="middle" x="351.19" y="-207.27" font-family="Helvetica,sans-Serif" font-size="10.00">(652 tok)</text>
</g>
<!-- skill_workflow_plugin_diagnose&#45;&gt;cmd_plugin_phase_diagnose -->
<g id="edge3" class="edge">
<title>skill_workflow_plugin_diagnose&#45;&gt;cmd_plugin_phase_diagnose</title>
<path fill="none" stroke="black" d="M209.21,-197.9C231.73,-200.67 255.44,-203.59 276.85,-206.23"/>
<polygon fill="black" stroke="black" points="276.49,-209.71 286.84,-207.46 277.34,-202.77 276.49,-209.71"/>
</g>
<!-- cmd_plugin_phase_verify -->
<g id="node7" class="node">
<title>cmd_plugin_phase_verify</title>
<polygon fill="#bbdefb" stroke="black" points="406.19,-59.27 296.19,-59.27 296.19,-23.27 406.19,-23.27 406.19,-59.27"/>
<text text-anchor="middle" x="351.19" y="-44.27" font-family="Helvetica,sans-Serif" font-size="10.00">plugin&#45;phase&#45;verify</text>
<text text-anchor="middle" x="351.19" y="-33.27" font-family="Helvetica,sans-Serif" font-size="10.00">(634 tok)</text>
</g>
<!-- skill_workflow_plugin_diagnose&#45;&gt;cmd_plugin_phase_verify -->
<g id="edge6" class="edge">
<title>skill_workflow_plugin_diagnose&#45;&gt;cmd_plugin_phase_verify</title>
<path fill="none" stroke="black" d="M142.01,-165.64C174.94,-141.15 232.64,-99.91 285.69,-70.27 289.65,-68.05 293.82,-65.87 298.05,-63.76"/>
<polygon fill="black" stroke="black" points="299.86,-66.77 307.34,-59.27 296.82,-60.47 299.86,-66.77"/>
</g>
<!-- cmd_plugin_migrate_analyze&#45;&gt;cmd_plugin_diagnose -->
<!-- cmd_plugin_diagnose&#45;&gt;cmd_plugin_phase_diagnose -->
<!-- cmd_plugin_fix&#45;&gt;cmd_plugin_verify -->
<!-- cmd_plugin_verify&#45;&gt;cmd_plugin_phase_verify -->
<!-- cmd_plugin_phase_diagnose&#45;&gt;cmd_plugin_fix -->
<!-- agent_worker_structure -->
<g id="node8" class="node">
<title>agent_worker_structure</title>
<ellipse fill="#ede7f6" stroke="black" cx="553.88" cy="-128.27" rx="68.68" ry="21.43"/>
<text text-anchor="middle" x="553.88" y="-131.27" font-family="Helvetica,sans-Serif" font-size="10.00">worker&#45;structure</text>
<text text-anchor="middle" x="553.88" y="-120.27" font-family="Helvetica,sans-Serif" font-size="10.00">(1,244 tok)</text>
</g>
<!-- cmd_plugin_phase_diagnose&#45;&gt;agent_worker_structure -->
<g id="edge7" class="edge">
<title>cmd_plugin_phase_diagnose&#45;&gt;agent_worker_structure</title>
<path fill="none" stroke="black" stroke-dasharray="5,2" d="M392.41,-197.17C426.51,-181.84 470.54,-162.05 474.69,-160.27 483.49,-156.49 492.89,-152.56 502.02,-148.8"/>
<polygon fill="black" stroke="black" points="503.46,-151.99 511.38,-144.95 500.8,-145.51 503.46,-151.99"/>
</g>
<!-- agent_worker_principles -->
<g id="node9" class="node">
<title>agent_worker_principles</title>
<ellipse fill="#ede7f6" stroke="black" cx="553.88" cy="-64.27" rx="71.34" ry="21.43"/>
<text text-anchor="middle" x="553.88" y="-67.27" font-family="Helvetica,sans-Serif" font-size="10.00">worker&#45;principles</text>
<text text-anchor="middle" x="553.88" y="-56.27" font-family="Helvetica,sans-Serif" font-size="10.00">(1,154 tok)</text>
</g>
<!-- cmd_plugin_phase_diagnose&#45;&gt;agent_worker_principles -->
<g id="edge8" class="edge">
<title>cmd_plugin_phase_diagnose&#45;&gt;agent_worker_principles</title>
<path fill="none" stroke="black" stroke-dasharray="5,2" d="M400.9,-197.12C406.53,-193.96 411.94,-190.35 416.69,-186.27 452.76,-155.24 438.09,-126.68 474.69,-96.27 480.43,-91.5 486.97,-87.36 493.78,-83.79"/>
<polygon fill="black" stroke="black" points="495.68,-86.77 503.17,-79.27 492.64,-80.46 495.68,-86.77"/>
</g>
<!-- agent_worker_architecture -->
<g id="node10" class="node">
<title>agent_worker_architecture</title>
<ellipse fill="#ede7f6" stroke="black" cx="553.88" cy="-192.27" rx="79.39" ry="21.43"/>
<text text-anchor="middle" x="553.88" y="-195.27" font-family="Helvetica,sans-Serif" font-size="10.00">worker&#45;architecture</text>
<text text-anchor="middle" x="553.88" y="-184.27" font-family="Helvetica,sans-Serif" font-size="10.00">(1,695 tok)</text>
</g>
<!-- cmd_plugin_phase_diagnose&#45;&gt;agent_worker_architecture -->
<g id="edge9" class="edge">
<title>cmd_plugin_phase_diagnose&#45;&gt;agent_worker_architecture</title>
<path fill="none" stroke="black" stroke-dasharray="5,2" d="M415.41,-208.02C432.96,-206.01 452.27,-203.8 470.73,-201.68"/>
<polygon fill="black" stroke="black" points="471.35,-205.14 480.88,-200.52 470.55,-198.18 471.35,-205.14"/>
</g>
<!-- skill_ref_specialist_output_schema -->
<g id="node11" class="node">
<title>skill_ref_specialist_output_schema</title>
<ellipse fill="none" stroke="black" cx="801.75" cy="-192.27" rx="110.84" ry="18"/>
<text text-anchor="middle" x="801.75" y="-189.77" font-family="Helvetica,sans-Serif" font-size="10.00">skill_ref_specialist_output_schema</text>
</g>
<!-- cmd_plugin_phase_diagnose&#45;&gt;skill_ref_specialist_output_schema -->
<g id="edge10" class="edge">
<title>cmd_plugin_phase_diagnose&#45;&gt;skill_ref_specialist_output_schema</title>
<path fill="none" stroke="black" d="M415.4,-220.8C434.44,-222.23 455.4,-223.56 474.69,-224.27 545.04,-226.85 563,-230.9 633.08,-224.27 664.49,-221.3 698.76,-215.27 728.1,-209.23"/>
<polygon fill="black" stroke="black" points="729.18,-212.58 738.25,-207.1 727.75,-205.73 729.18,-212.58"/>
</g>
<!-- skill_ref_architecture -->
<g id="node12" class="node">
<title>skill_ref_architecture</title>
<ellipse fill="none" stroke="black" cx="1040.47" cy="-192.27" rx="70.1" ry="18"/>
<text text-anchor="middle" x="1040.47" y="-189.77" font-family="Helvetica,sans-Serif" font-size="10.00">skill_ref_architecture</text>
</g>
<!-- cmd_plugin_phase_diagnose&#45;&gt;skill_ref_architecture -->
<g id="edge11" class="edge">
<title>cmd_plugin_phase_diagnose&#45;&gt;skill_ref_architecture</title>
<path fill="none" stroke="black" d="M415.33,-231.93C434.28,-236.18 455.2,-240.15 474.69,-242.27 531.06,-248.41 863.27,-250.51 912.42,-241.27 942.26,-235.66 974.14,-223.34 998.5,-212.46"/>
<polygon fill="black" stroke="black" points="1000.14,-215.56 1007.78,-208.22 997.23,-209.19 1000.14,-215.56"/>
</g>
<!-- cmd_plugin_phase_verify&#45;&gt;agent_worker_structure -->
<g id="edge12" class="edge">
<title>cmd_plugin_phase_verify&#45;&gt;agent_worker_structure</title>
<path fill="none" stroke="black" stroke-dasharray="5,2" d="M392.41,-59.37C426.51,-74.7 470.54,-94.49 474.69,-96.27 483.49,-100.05 492.89,-103.98 502.02,-107.74"/>
<polygon fill="black" stroke="black" points="500.8,-111.03 511.38,-111.59 503.46,-104.55 500.8,-111.03"/>
</g>
<!-- cmd_plugin_phase_verify&#45;&gt;agent_worker_principles -->
<g id="edge13" class="edge">
<title>cmd_plugin_phase_verify&#45;&gt;agent_worker_principles</title>
<path fill="none" stroke="black" stroke-dasharray="5,2" d="M406.24,-47.46C427.97,-49.96 453.43,-52.87 476.97,-55.57"/>
<polygon fill="black" stroke="black" points="476.59,-59.05 486.93,-56.71 477.39,-52.1 476.59,-59.05"/>
</g>
<!-- cmd_plugin_phase_verify&#45;&gt;agent_worker_architecture -->
<g id="edge14" class="edge">
<title>cmd_plugin_phase_verify&#45;&gt;agent_worker_architecture</title>
<path fill="none" stroke="black" stroke-dasharray="5,2" d="M400.9,-59.42C406.53,-62.58 411.94,-66.19 416.69,-70.27 452.76,-101.3 438.09,-129.86 474.69,-160.27 479.92,-164.62 485.82,-168.44 491.97,-171.78"/>
<polygon fill="black" stroke="black" points="490.62,-175.02 501.13,-176.35 493.74,-168.75 490.62,-175.02"/>
</g>
<!-- cmd_plugin_phase_verify&#45;&gt;skill_ref_specialist_output_schema -->
<g id="edge15" class="edge">
<title>cmd_plugin_phase_verify&#45;&gt;skill_ref_specialist_output_schema</title>
<path fill="none" stroke="black" d="M406.43,-27.03C464.7,-14.54 558.91,-2.56 633.08,-32.27 700.51,-59.28 756.22,-127.76 783.2,-165.79"/>
<polygon fill="black" stroke="black" points="780.55,-168.1 789.13,-174.32 786.3,-164.11 780.55,-168.1"/>
</g>
<!-- cmd_plugin_phase_verify&#45;&gt;skill_ref_architecture -->
<g id="edge16" class="edge">
<title>cmd_plugin_phase_verify&#45;&gt;skill_ref_architecture</title>
<path fill="none" stroke="black" d="M406.48,-23.9C427.55,-18.01 452.01,-12.18 474.69,-9.27 544.51,-0.3 564.25,5.51 633.08,-9.27 779.33,-40.68 936.44,-129.01 1004.61,-170.38"/>
<polygon fill="black" stroke="black" points="1002.89,-173.43 1013.25,-175.66 1006.54,-167.46 1002.89,-173.43"/>
</g>
<!-- agent_worker_structure&#45;&gt;agent_worker_principles -->
<!-- agent_worker_structure&#45;&gt;agent_worker_principles -->
<!-- agent_worker_structure&#45;&gt;agent_worker_principles -->
<!-- agent_worker_structure&#45;&gt;agent_worker_principles -->
<!-- agent_worker_structure&#45;&gt;agent_worker_principles -->
<!-- agent_worker_structure&#45;&gt;skill_ref_specialist_output_schema -->
<g id="edge17" class="edge">
<title>agent_worker_structure&#45;&gt;skill_ref_specialist_output_schema</title>
<path fill="none" stroke="black" stroke-dasharray="1,5" d="M607.03,-141.84C643.54,-151.35 692.7,-164.14 732.35,-174.47"/>
<polygon fill="black" stroke="black" points="731.66,-177.9 742.22,-177.03 733.42,-171.13 731.66,-177.9"/>
</g>
<!-- agent_worker_principles&#45;&gt;agent_worker_architecture -->
<!-- agent_worker_principles&#45;&gt;agent_worker_architecture -->
<!-- agent_worker_principles&#45;&gt;skill_ref_specialist_output_schema -->
<g id="edge18" class="edge">
<title>agent_worker_principles&#45;&gt;skill_ref_specialist_output_schema</title>
<path fill="none" stroke="black" stroke-dasharray="1,5" d="M613.33,-76.27C620.05,-79.12 626.75,-82.18 633.08,-85.27 684.82,-110.53 742.56,-145.08 774.99,-168.42"/>
<polygon fill="black" stroke="black" points="772.94,-171.25 783.06,-174.39 777.1,-165.63 772.94,-171.25"/>
</g>
<!-- agent_worker_principles&#45;&gt;skill_ref_specialist_output_schema -->
<!-- agent_worker_architecture&#45;&gt;agent_worker_structure -->
<!-- agent_worker_architecture&#45;&gt;skill_ref_specialist_output_schema -->
<g id="edge19" class="edge">
<title>agent_worker_architecture&#45;&gt;skill_ref_specialist_output_schema</title>
<path fill="none" stroke="black" stroke-dasharray="1,5" d="M612.84,-178.02C646.97,-175.41 690.47,-175.07 727.03,-177.01"/>
<polygon fill="black" stroke="black" points="726.95,-180.51 737.14,-177.61 727.37,-173.52 726.95,-180.51"/>
</g>
<!-- agent_worker_architecture&#45;&gt;skill_ref_specialist_output_schema -->
<!-- agent_worker_architecture&#45;&gt;skill_ref_specialist_output_schema -->
<!-- agent_worker_architecture&#45;&gt;skill_ref_architecture -->
<g id="edge20" class="edge">
<title>agent_worker_architecture&#45;&gt;skill_ref_architecture</title>
<path fill="none" stroke="black" stroke-dasharray="1,5" d="M611.11,-207.01C635.51,-212.69 664.51,-218.47 691.08,-221.27 788.91,-231.57 814.66,-232.28 912.42,-221.27 935.81,-218.63 961.18,-213.35 983.05,-208"/>
<polygon fill="black" stroke="black" points="983.99,-211.38 992.84,-205.55 982.29,-204.59 983.99,-211.38"/>
</g>
<!-- skill_ref_specialist_output_schema&#45;&gt;skill_ref_architecture -->
<!-- skill_ref_specialist_output_schema&#45;&gt;skill_ref_architecture -->
</g>
</svg>
