<?xml version="1.0" encoding="UTF-8" standalone="no"?>
<!DOCTYPE svg PUBLIC "-//W3C//DTD SVG 1.1//EN"
 "http://www.w3.org/Graphics/SVG/1.1/DTD/svg11.dtd">
<!-- Generated by graphviz version 2.43.0 (0)
 -->
<!-- Title: Dependencies Pages: 1 -->
<svg width="1122pt" height="1188pt"
 viewBox="0.00 0.00 1121.82 1188.32" xmlns="http://www.w3.org/2000/svg" xmlns:xlink="http://www.w3.org/1999/xlink">
<g id="graph0" class="graph" transform="scale(1 1) rotate(0) translate(4 1184.32)">
<title>Dependencies</title>
<polygon fill="white" stroke="transparent" points="-4,4 -4,-1184.32 1117.82,-1184.32 1117.82,4 -4,4"/>
<text text-anchor="middle" x="556.91" y="-1165.12" font-family="Helvetica,sans-Serif" font-size="14.00">co&#45;issue</text>
<!-- skill_co_issue -->
<g id="node1" class="node">
<title>skill_co_issue</title>
<ellipse fill="#c8e6c9" stroke="black" cx="53.03" cy="-110.83" rx="53.07" ry="21.43"/>
<text text-anchor="middle" x="53.03" y="-113.83" font-family="Helvetica,sans-Serif" font-size="10.00">twl:co&#45;issue</text>
<text text-anchor="middle" x="53.03" y="-102.83" font-family="Helvetica,sans-Serif" font-size="10.00">(5,635 tok)</text>
</g>
<!-- skill_workflow_issue_lifecycle -->
<g id="node2" class="node">
<title>skill_workflow_issue_lifecycle</title>
<ellipse fill="#e8f5e9" stroke="black" cx="272.25" cy="-229.83" rx="108.38" ry="21.43"/>
<text text-anchor="middle" x="272.25" y="-232.83" font-family="Helvetica,sans-Serif" font-size="10.00">twl:workflow&#45;issue&#45;lifecycle</text>
<text text-anchor="middle" x="272.25" y="-221.83" font-family="Helvetica,sans-Serif" font-size="10.00">(2,595 tok)</text>
</g>
<!-- skill_co_issue&#45;&gt;skill_workflow_issue_lifecycle -->
<g id="edge2" class="edge">
<title>skill_co_issue&#45;&gt;skill_workflow_issue_lifecycle</title>
<path fill="none" stroke="black" d="M73.87,-130.4C94.73,-149.99 129.28,-179.74 164.07,-197.83 173.14,-202.55 183.02,-206.68 192.98,-210.26"/>
<polygon fill="black" stroke="black" points="191.95,-213.61 202.54,-213.54 194.22,-206.99 191.95,-213.61"/>
</g>
<!-- skill_workflow_issue_refine -->
<g id="node3" class="node">
<title>skill_workflow_issue_refine</title>
<ellipse fill="#e8f5e9" stroke="black" cx="272.25" cy="-165.83" rx="98.99" ry="21.43"/>
<text text-anchor="middle" x="272.25" y="-168.83" font-family="Helvetica,sans-Serif" font-size="10.00">twl:workflow&#45;issue&#45;refine</text>
<text text-anchor="middle" x="272.25" y="-157.83" font-family="Helvetica,sans-Serif" font-size="10.00">(3,235 tok)</text>
</g>
<!-- skill_co_issue&#45;&gt;skill_workflow_issue_refine -->
<g id="edge3" class="edge">
<title>skill_co_issue&#45;&gt;skill_workflow_issue_refine</title>
<path fill="none" stroke="black" d="M98.25,-122.02C126.69,-129.22 164.36,-138.76 197.28,-147.1"/>
<polygon fill="black" stroke="black" points="196.77,-150.58 207.33,-149.64 198.49,-143.79 196.77,-150.58"/>
</g>
<!-- cmd_issue_glossary_check -->
<g id="node13" class="node">
<title>cmd_issue_glossary_check</title>
<polygon fill="#e3f2fd" stroke="black" points="563.94,-131.83 444.94,-131.83 444.94,-95.83 563.94,-95.83 563.94,-131.83"/>
<text text-anchor="middle" x="504.44" y="-116.83" font-family="Helvetica,sans-Serif" font-size="10.00">issue&#45;glossary&#45;check</text>
<text text-anchor="middle" x="504.44" y="-105.83" font-family="Helvetica,sans-Serif" font-size="10.00">(899 tok)</text>
</g>
<!-- skill_co_issue&#45;&gt;cmd_issue_glossary_check -->
<g id="edge1" class="edge">
<title>skill_co_issue&#45;&gt;cmd_issue_glossary_check</title>
<path fill="none" stroke="black" d="M106.47,-111.18C187.73,-111.72 344.12,-112.76 434.46,-113.37"/>
<polygon fill="black" stroke="black" points="434.57,-116.87 444.6,-113.43 434.62,-109.87 434.57,-116.87"/>
</g>
<!-- script_issue_lifecycle_orchestrator -->
<g id="node26" class="node">
<title>script_issue_lifecycle_orchestrator</title>
<polygon fill="#ff9800" stroke="black" points="1113.8,-165.83 1052.57,-190.32 930.12,-190.32 868.9,-165.83 930.12,-141.34 1052.57,-141.34 1113.8,-165.83"/>
<text text-anchor="middle" x="991.35" y="-168.83" font-family="Helvetica,sans-Serif" font-size="10.00">issue&#45;lifecycle&#45;orchestrator</text>
<text text-anchor="middle" x="991.35" y="-157.83" font-family="Helvetica,sans-Serif" font-size="10.00">(8,667 tok)</text>
</g>
<!-- skill_co_issue&#45;&gt;script_issue_lifecycle_orchestrator -->
<g id="edge4" class="edge">
<title>skill_co_issue&#45;&gt;script_issue_lifecycle_orchestrator</title>
<path fill="none" stroke="black" d="M97.02,-98.97C215.03,-68.59 552.47,3.66 810.87,-84.83 841.74,-95.4 839.84,-114.94 868.87,-129.83 879.84,-135.45 891.82,-140.34 903.85,-144.54"/>
<polygon fill="black" stroke="black" points="902.9,-147.91 913.49,-147.77 905.12,-141.27 902.9,-147.91"/>
</g>
<!-- script_co_issue_manual_fix_b -->
<g id="node27" class="node">
<title>script_co_issue_manual_fix_b</title>
<polygon fill="#ff9800" stroke="black" points="1091.71,-94.83 1041.53,-119.32 941.17,-119.32 890.99,-94.83 941.17,-70.34 1041.53,-70.34 1091.71,-94.83"/>
<text text-anchor="middle" x="991.35" y="-97.83" font-family="Helvetica,sans-Serif" font-size="10.00">co&#45;issue&#45;manual&#45;fix&#45;b</text>
<text text-anchor="middle" x="991.35" y="-86.83" font-family="Helvetica,sans-Serif" font-size="10.00">(462 tok)</text>
</g>
<!-- skill_co_issue&#45;&gt;script_co_issue_manual_fix_b -->
<g id="edge5" class="edge">
<title>skill_co_issue&#45;&gt;script_co_issue_manual_fix_b</title>
<path fill="none" stroke="black" d="M77.18,-91.79C98.33,-75.72 131.22,-53.92 164.07,-44.83 441.11,31.89 526.05,-5.89 810.87,-44.83 848.65,-49.99 889.68,-61 922.97,-71.37"/>
<polygon fill="black" stroke="black" points="922,-74.74 932.59,-74.42 924.11,-68.06 922,-74.74"/>
</g>
<!-- skill_workflow_issue_lifecycle&#45;&gt;skill_workflow_issue_refine -->
<!-- cmd_issue_structure -->
<g id="node9" class="node">
<title>cmd_issue_structure</title>
<polygon fill="#e3f2fd" stroke="black" points="548.94,-767.83 459.94,-767.83 459.94,-731.83 548.94,-731.83 548.94,-767.83"/>
<text text-anchor="middle" x="504.44" y="-752.83" font-family="Helvetica,sans-Serif" font-size="10.00">issue&#45;structure</text>
<text text-anchor="middle" x="504.44" y="-741.83" font-family="Helvetica,sans-Serif" font-size="10.00">(1,406 tok)</text>
</g>
<!-- skill_workflow_issue_lifecycle&#45;&gt;cmd_issue_structure -->
<g id="edge6" class="edge">
<title>skill_workflow_issue_lifecycle&#45;&gt;cmd_issue_structure</title>
<path fill="none" stroke="black" d="M274.5,-251.26C279.94,-325.78 307.61,-576.92 438.44,-720.83 442.13,-724.88 446.49,-728.41 451.18,-731.46"/>
<polygon fill="black" stroke="black" points="449.5,-734.52 459.91,-736.45 452.97,-728.45 449.5,-734.52"/>
</g>
<!-- cmd_issue_create -->
<g id="node10" class="node">
<title>cmd_issue_create</title>
<polygon fill="#e3f2fd" stroke="black" points="542.94,-709.83 465.94,-709.83 465.94,-673.83 542.94,-673.83 542.94,-709.83"/>
<text text-anchor="middle" x="504.44" y="-694.83" font-family="Helvetica,sans-Serif" font-size="10.00">issue&#45;create</text>
<text text-anchor="middle" x="504.44" y="-683.83" font-family="Helvetica,sans-Serif" font-size="10.00">(1,192 tok)</text>
</g>
<!-- skill_workflow_issue_lifecycle&#45;&gt;cmd_issue_create -->
<g id="edge10" class="edge">
<title>skill_workflow_issue_lifecycle&#45;&gt;cmd_issue_create</title>
<path fill="none" stroke="black" d="M276.19,-251.18C286.45,-318.58 326.42,-529.88 438.44,-656.83 443.69,-662.77 450.2,-667.89 457.05,-672.23"/>
<polygon fill="black" stroke="black" points="455.43,-675.34 465.84,-677.32 458.94,-669.28 455.43,-675.34"/>
</g>
<!-- cmd_issue_spec_review -->
<g id="node11" class="node">
<title>cmd_issue_spec_review</title>
<polygon fill="#bbdefb" stroke="black" points="556.94,-385.83 451.94,-385.83 451.94,-349.83 556.94,-349.83 556.94,-385.83"/>
<text text-anchor="middle" x="504.44" y="-370.83" font-family="Helvetica,sans-Serif" font-size="10.00">issue&#45;spec&#45;review</text>
<text text-anchor="middle" x="504.44" y="-359.83" font-family="Helvetica,sans-Serif" font-size="10.00">(1,870 tok)</text>
</g>
<!-- skill_workflow_issue_lifecycle&#45;&gt;cmd_issue_spec_review -->
<g id="edge7" class="edge">
<title>skill_workflow_issue_lifecycle&#45;&gt;cmd_issue_spec_review</title>
<path fill="none" stroke="black" d="M307.22,-250.19C349.22,-275.37 420.55,-318.14 464.66,-344.58"/>
<polygon fill="black" stroke="black" points="463,-347.66 473.37,-349.8 466.6,-341.66 463,-347.66"/>
</g>
<!-- cmd_issue_review_aggregate -->
<g id="node12" class="node">
<title>cmd_issue_review_aggregate</title>
<polygon fill="#e3f2fd" stroke="black" points="570.44,-547.83 438.44,-547.83 438.44,-511.83 570.44,-511.83 570.44,-547.83"/>
<text text-anchor="middle" x="504.44" y="-532.83" font-family="Helvetica,sans-Serif" font-size="10.00">issue&#45;review&#45;aggregate</text>
<text text-anchor="middle" x="504.44" y="-521.83" font-family="Helvetica,sans-Serif" font-size="10.00">(1,157 tok)</text>
</g>
<!-- skill_workflow_issue_lifecycle&#45;&gt;cmd_issue_review_aggregate -->
<g id="edge8" class="edge">
<title>skill_workflow_issue_lifecycle&#45;&gt;cmd_issue_review_aggregate</title>
<path fill="none" stroke="black" d="M281.05,-251.1C300.34,-301.08 354.87,-427.31 438.44,-500.83 440.62,-502.74 442.94,-504.55 445.36,-506.25"/>
<polygon fill="black" stroke="black" points="443.6,-509.27 453.92,-511.64 447.33,-503.35 443.6,-509.27"/>
</g>
<!-- cmd_issue_arch_drift -->
<g id="node14" class="node">
<title>cmd_issue_arch_drift</title>
<polygon fill="#e3f2fd" stroke="black" points="549.44,-489.83 459.44,-489.83 459.44,-453.83 549.44,-453.83 549.44,-489.83"/>
<text text-anchor="middle" x="504.44" y="-474.83" font-family="Helvetica,sans-Serif" font-size="10.00">issue&#45;arch&#45;drift</text>
<text text-anchor="middle" x="504.44" y="-463.83" font-family="Helvetica,sans-Serif" font-size="10.00">(1,079 tok)</text>
</g>
<!-- skill_workflow_issue_lifecycle&#45;&gt;cmd_issue_arch_drift -->
<g id="edge9" class="edge">
<title>skill_workflow_issue_lifecycle&#45;&gt;cmd_issue_arch_drift</title>
<path fill="none" stroke="black" d="M285.97,-250.93C311.02,-291.18 370.32,-379.96 438.44,-436.83 443.41,-440.98 448.95,-444.85 454.65,-448.4"/>
<polygon fill="black" stroke="black" points="453.26,-451.65 463.66,-453.7 456.81,-445.61 453.26,-451.65"/>
</g>
<!-- cmd_project_board_sync -->
<g id="node15" class="node">
<title>cmd_project_board_sync</title>
<polygon fill="#e3f2fd" stroke="black" points="558.44,-605.83 450.44,-605.83 450.44,-569.83 558.44,-569.83 558.44,-605.83"/>
<text text-anchor="middle" x="504.44" y="-590.83" font-family="Helvetica,sans-Serif" font-size="10.00">project&#45;board&#45;sync</text>
<text text-anchor="middle" x="504.44" y="-579.83" font-family="Helvetica,sans-Serif" font-size="10.00">(1,184 tok)</text>
</g>
<!-- skill_workflow_issue_lifecycle&#45;&gt;cmd_project_board_sync -->
<g id="edge11" class="edge">
<title>skill_workflow_issue_lifecycle&#45;&gt;cmd_project_board_sync</title>
<path fill="none" stroke="black" d="M278.58,-251.33C293.82,-308.73 342.78,-467.44 438.44,-558.83 440.36,-560.66 442.41,-562.38 444.56,-564.01"/>
<polygon fill="black" stroke="black" points="443,-567.18 453.26,-569.81 446.88,-561.35 443,-567.18"/>
</g>
<!-- script_spec_review_session_init -->
<g id="node25" class="node">
<title>script_spec_review_session_init</title>
<polygon fill="#ff9800" stroke="black" points="1102.44,-564.83 1046.89,-589.32 935.81,-589.32 880.26,-564.83 935.81,-540.34 1046.89,-540.34 1102.44,-564.83"/>
<text text-anchor="middle" x="991.35" y="-567.83" font-family="Helvetica,sans-Serif" font-size="10.00">spec&#45;review&#45;session&#45;init</text>
<text text-anchor="middle" x="991.35" y="-556.83" font-family="Helvetica,sans-Serif" font-size="10.00">(501 tok)</text>
</g>
<!-- skill_workflow_issue_lifecycle&#45;&gt;script_spec_review_session_init -->
<g id="edge12" class="edge">
<title>skill_workflow_issue_lifecycle&#45;&gt;script_spec_review_session_init</title>
<path fill="none" stroke="black" d="M274.64,-251.18C280.34,-319.12 308.3,-530.87 438.44,-616.83 513.85,-666.63 775.64,-615.38 909.77,-584.54"/>
<polygon fill="black" stroke="black" points="910.64,-587.93 919.59,-582.26 909.06,-581.11 910.64,-587.93"/>
</g>
<!-- skill_workflow_issue_refine&#45;&gt;cmd_issue_spec_review -->
<g id="edge13" class="edge">
<title>skill_workflow_issue_refine&#45;&gt;cmd_issue_spec_review</title>
<path fill="none" stroke="black" d="M345.19,-180.18C357.62,-184.6 369.91,-190.35 380.44,-197.83 433.21,-235.28 471.97,-302.6 490.75,-340.31"/>
<polygon fill="black" stroke="black" points="487.78,-342.21 495.3,-349.67 494.08,-339.15 487.78,-342.21"/>
</g>
<!-- skill_workflow_issue_refine&#45;&gt;cmd_issue_review_aggregate -->
<g id="edge14" class="edge">
<title>skill_workflow_issue_refine&#45;&gt;cmd_issue_review_aggregate</title>
<path fill="none" stroke="black" d="M352.34,-178.41C362.92,-183.04 372.76,-189.33 380.44,-197.83 472.38,-299.55 353.28,-393.37 438.44,-500.83 439.68,-502.39 441.02,-503.87 442.44,-505.27"/>
<polygon fill="black" stroke="black" points="440.24,-507.99 450.18,-511.66 444.69,-502.59 440.24,-507.99"/>
</g>
<!-- skill_workflow_issue_refine&#45;&gt;cmd_issue_arch_drift -->
<g id="edge15" class="edge">
<title>skill_workflow_issue_refine&#45;&gt;cmd_issue_arch_drift</title>
<path fill="none" stroke="black" d="M351.7,-178.63C362.44,-183.23 372.49,-189.45 380.44,-197.83 455.69,-277.1 371.64,-350.31 438.44,-436.83 441.92,-441.33 446.14,-445.32 450.75,-448.85"/>
<polygon fill="black" stroke="black" points="449.14,-451.98 459.38,-454.69 453.06,-446.19 449.14,-451.98"/>
</g>
<!-- skill_workflow_issue_refine&#45;&gt;script_spec_review_session_init -->
<g id="edge16" class="edge">
<title>skill_workflow_issue_refine&#45;&gt;script_spec_review_session_init</title>
<path fill="none" stroke="black" d="M351.09,-178.84C361.98,-183.41 372.23,-189.56 380.44,-197.83 445.37,-263.18 375.01,-330.02 438.44,-396.83 481.22,-441.88 513.37,-418.27 570.44,-442.83 597.1,-454.3 601.12,-463.04 628.44,-472.83 706.5,-500.79 730.52,-491.4 810.87,-511.83 845.69,-520.67 883.91,-531.77 916.1,-541.51"/>
<polygon fill="black" stroke="black" points="915.3,-544.93 925.88,-544.49 917.33,-538.23 915.3,-544.93"/>
</g>
<!-- skill_workflow_issue_refine&#45;&gt;script_issue_lifecycle_orchestrator -->
<!-- skill_co_issue_step0_5_modes&#45;&gt;skill_co_issue_phase2_bundles -->
<!-- skill_co_issue_phase2_bundles&#45;&gt;skill_co_issue_phase3_dispatch -->
<!-- skill_co_issue_phase3_dispatch&#45;&gt;skill_co_issue_phase4_aggregate -->
<!-- skill_co_issue_phase4_aggregate&#45;&gt;skill_co_issue_cleanup -->
<!-- skill_ref_glossary_criteria -->
<g id="node9" class="node">
<title>skill_ref_glossary_criteria</title>
<polygon fill="#e1f5fe" stroke="black" points="779.16,-131.83 654.16,-131.83 654.16,-95.83 785.16,-95.83 785.16,-125.83 779.16,-131.83"/>
<polyline fill="none" stroke="black" points="779.16,-131.83 779.16,-125.83 "/>
<polyline fill="none" stroke="black" points="785.16,-125.83 779.16,-125.83 "/>
<text text-anchor="middle" x="719.66" y="-116.83" font-family="Helvetica,sans-Serif" font-size="10.00">twl:ref&#45;glossary&#45;criteria</text>
<text text-anchor="middle" x="719.66" y="-105.83" font-family="Helvetica,sans-Serif" font-size="10.00">(873 tok)</text>
</g>
<!-- cmd_issue_structure&#45;&gt;cmd_issue_spec_review -->
<!-- cmd_issue_create&#45;&gt;cmd_project_board_sync -->
<!-- cmd_issue_spec_review&#45;&gt;cmd_issue_review_aggregate -->
<!-- cmd_issue_spec_review&#45;&gt;cmd_issue_review_aggregate -->
<!-- agent_issue_critic -->
<g id="node16" class="node">
<title>agent_issue_critic</title>
<ellipse fill="#ede7f6" stroke="black" cx="719.66" cy="-440.83" rx="49.49" ry="21.43"/>
<text text-anchor="middle" x="719.66" y="-443.83" font-family="Helvetica,sans-Serif" font-size="10.00">issue&#45;critic</text>
<text text-anchor="middle" x="719.66" y="-432.83" font-family="Helvetica,sans-Serif" font-size="10.00">(1,268 tok)</text>
</g>
<!-- cmd_issue_spec_review&#45;&gt;agent_issue_critic -->
<g id="edge17" class="edge">
<title>cmd_issue_spec_review&#45;&gt;agent_issue_critic</title>
<path fill="none" stroke="black" stroke-dasharray="5,2" d="M557.05,-385.5C591.72,-397.37 637.06,-412.89 670.89,-424.47"/>
<polygon fill="black" stroke="black" points="669.96,-427.85 680.55,-427.78 672.22,-421.23 669.96,-427.85"/>
</g>
<!-- agent_issue_feasibility -->
<g id="node17" class="node">
<title>agent_issue_feasibility</title>
<ellipse fill="#ede7f6" stroke="black" cx="719.66" cy="-376.83" rx="67.35" ry="21.43"/>
<text text-anchor="middle" x="719.66" y="-379.83" font-family="Helvetica,sans-Serif" font-size="10.00">issue&#45;feasibility</text>
<text text-anchor="middle" x="719.66" y="-368.83" font-family="Helvetica,sans-Serif" font-size="10.00">(1,175 tok)</text>
</g>
<!-- cmd_issue_spec_review&#45;&gt;agent_issue_feasibility -->
<g id="edge18" class="edge">
<title>cmd_issue_spec_review&#45;&gt;agent_issue_feasibility</title>
<path fill="none" stroke="black" stroke-dasharray="5,2" d="M557.05,-370.01C582.74,-371.09 614.29,-372.42 642.68,-373.62"/>
<polygon fill="black" stroke="black" points="642.83,-377.13 652.97,-374.05 643.13,-370.14 642.83,-377.13"/>
</g>
<!-- agent_worker_codex_reviewer -->
<g id="node18" class="node">
<title>agent_worker_codex_reviewer</title>
<ellipse fill="#ede7f6" stroke="black" cx="719.66" cy="-312.83" rx="91.43" ry="21.43"/>
<text text-anchor="middle" x="719.66" y="-315.83" font-family="Helvetica,sans-Serif" font-size="10.00">worker&#45;codex&#45;reviewer</text>
<text text-anchor="middle" x="719.66" y="-304.83" font-family="Helvetica,sans-Serif" font-size="10.00">(1,841 tok)</text>
</g>
<!-- cmd_issue_spec_review&#45;&gt;agent_worker_codex_reviewer -->
<g id="edge19" class="edge">
<title>cmd_issue_spec_review&#45;&gt;agent_worker_codex_reviewer</title>
<path fill="none" stroke="black" stroke-dasharray="5,2" d="M557.05,-354.51C584.29,-347.49 618.13,-338.76 647.79,-331.11"/>
<polygon fill="black" stroke="black" points="648.87,-334.44 657.67,-328.56 647.12,-327.67 648.87,-334.44"/>
</g>
<!-- script_escape_issue_body -->
<g id="node23" class="node">
<title>script_escape_issue_body</title>
<polygon fill="#ff9800" stroke="black" points="1079.71,-312.83 1035.53,-337.32 947.17,-337.32 902.99,-312.83 947.17,-288.34 1035.53,-288.34 1079.71,-312.83"/>
<text text-anchor="middle" x="991.35" y="-315.83" font-family="Helvetica,sans-Serif" font-size="10.00">escape&#45;issue&#45;body</text>
<text text-anchor="middle" x="991.35" y="-304.83" font-family="Helvetica,sans-Serif" font-size="10.00">(63 tok)</text>
</g>
<!-- cmd_issue_spec_review&#45;&gt;script_escape_issue_body -->
<g id="edge20" class="edge">
<title>cmd_issue_spec_review&#45;&gt;script_escape_issue_body</title>
<path fill="none" stroke="black" d="M523.41,-349.53C545.73,-328.24 586.07,-294.3 628.44,-280.83 728.48,-249.02 851.4,-272.09 925.17,-292.13"/>
<polygon fill="black" stroke="black" points="924.67,-295.63 935.25,-294.93 926.55,-288.88 924.67,-295.63"/>
</g>
<!-- script_spec_review_manifest -->
<g id="node24" class="node">
<title>script_spec_review_manifest</title>
<polygon fill="#ff9800" stroke="black" points="1091.71,-241.83 1041.53,-266.32 941.17,-266.32 890.99,-241.83 941.17,-217.34 1041.53,-217.34 1091.71,-241.83"/>
<text text-anchor="middle" x="991.35" y="-244.83" font-family="Helvetica,sans-Serif" font-size="10.00">spec&#45;review&#45;manifest</text>
<text text-anchor="middle" x="991.35" y="-233.83" font-family="Helvetica,sans-Serif" font-size="10.00">(169 tok)</text>
</g>
<!-- cmd_issue_spec_review&#45;&gt;script_spec_review_manifest -->
<g id="edge21" class="edge">
<title>cmd_issue_spec_review&#45;&gt;script_spec_review_manifest</title>
<path fill="none" stroke="black" d="M519.34,-349.58C539.95,-324.12 581.3,-278.94 628.44,-259.83 716.42,-224.16 826.43,-224.29 901.93,-230.4"/>
<polygon fill="black" stroke="black" points="902.08,-233.93 912.34,-231.3 902.68,-226.96 902.08,-233.93"/>
</g>
<!-- cmd_issue_review_aggregate&#45;&gt;cmd_issue_arch_drift -->
<!-- cmd_issue_review_aggregate&#45;&gt;cmd_issue_arch_drift -->
<!-- cmd_issue_glossary_check&#45;&gt;skill_workflow_issue_lifecycle -->
<!-- skill_ref_glossary_criteria -->
<g id="node32" class="node">
<title>skill_ref_glossary_criteria</title>
<ellipse fill="none" stroke="black" cx="719.66" cy="-339.54" rx="83.68" ry="18"/>
<text text-anchor="middle" x="719.66" y="-337.04" font-family="Helvetica,sans-Serif" font-size="10.00">skill_ref_glossary_criteria</text>
</g>
<!-- cmd_issue_glossary_check&#45;&gt;skill_ref_glossary_criteria -->
<g id="edge22" class="edge">
<title>cmd_issue_glossary_check&#45;&gt;skill_ref_glossary_criteria</title>
<path fill="none" stroke="black" d="M563.99,-113.83C588.58,-113.83 617.5,-113.83 643.63,-113.83"/>
<polygon fill="black" stroke="black" points="643.87,-117.33 653.87,-113.83 643.87,-110.33 643.87,-117.33"/>
</g>
<!-- cmd_issue_arch_drift&#45;&gt;cmd_issue_create -->
<!-- cmd_issue_arch_drift&#45;&gt;script_spec_review_session_init -->
<!-- cmd_project_board_sync&#45;&gt;script_spec_review_session_init -->
<!-- agent_issue_critic&#45;&gt;agent_issue_feasibility -->
<!-- agent_issue_feasibility&#45;&gt;agent_worker_codex_reviewer -->
<!-- agent_worker_codex_reviewer&#45;&gt;script_escape_issue_body -->
<!-- script_state_read -->
<g id="node15" class="node">
<title>script_state_read</title>
<polygon fill="#ff9800" stroke="black" points="1048.66,-706.83 1020,-731.32 962.69,-731.32 934.04,-706.83 962.69,-682.34 1020,-682.34 1048.66,-706.83"/>
<text text-anchor="middle" x="991.35" y="-709.83" font-family="Helvetica,sans-Serif" font-size="10.00">state&#45;read</text>
<text text-anchor="middle" x="991.35" y="-698.83" font-family="Helvetica,sans-Serif" font-size="10.00">(5,796 tok)</text>
</g>
<!-- script_state_write -->
<g id="node16" class="node">
<title>script_state_write</title>
<polygon fill="#ff9800" stroke="black" points="1048.66,-635.83 1020,-660.32 962.69,-660.32 934.04,-635.83 962.69,-611.34 1020,-611.34 1048.66,-635.83"/>
<text text-anchor="middle" x="991.35" y="-638.83" font-family="Helvetica,sans-Serif" font-size="10.00">state&#45;write</text>
<text text-anchor="middle" x="991.35" y="-627.83" font-family="Helvetica,sans-Serif" font-size="10.00">(5,796 tok)</text>
</g>
<!-- script_state_read&#45;&gt;script_state_write -->
<!-- script_state_read&#45;&gt;script_state_write -->
<!-- script_state_read&#45;&gt;script_state_write -->
<!-- script_state_read&#45;&gt;script_state_write -->
<!-- script_chain_runner -->
<g id="node17" class="node">
<title>script_chain_runner</title>
<polygon fill="#ff9800" stroke="black" points="1055.22,-777.83 1023.29,-802.32 959.41,-802.32 927.47,-777.83 959.41,-753.34 1023.29,-753.34 1055.22,-777.83"/>
<text text-anchor="middle" x="991.35" y="-780.83" font-family="Helvetica,sans-Serif" font-size="10.00">chain&#45;runner</text>
<text text-anchor="middle" x="991.35" y="-769.83" font-family="Helvetica,sans-Serif" font-size="10.00">(9,633 tok)</text>
</g>
<!-- script_worker_terminal_guard -->
<g id="node18" class="node">
<title>script_worker_terminal_guard</title>
<polygon fill="#ff9800" stroke="black" points="1094.11,-848.83 1042.73,-873.32 939.97,-873.32 888.59,-848.83 939.97,-824.34 1042.73,-824.34 1094.11,-848.83"/>
<text text-anchor="middle" x="991.35" y="-851.83" font-family="Helvetica,sans-Serif" font-size="10.00">worker&#45;terminal&#45;guard</text>
<text text-anchor="middle" x="991.35" y="-840.83" font-family="Helvetica,sans-Serif" font-size="10.00">(770 tok)</text>
</g>
<!-- script_worktree_create -->
<g id="node19" class="node">
<title>script_worktree_create</title>
<polygon fill="#ff9800" stroke="black" points="1068.98,-919.83 1030.17,-944.32 952.53,-944.32 913.71,-919.83 952.53,-895.34 1030.17,-895.34 1068.98,-919.83"/>
<text text-anchor="middle" x="991.35" y="-922.83" font-family="Helvetica,sans-Serif" font-size="10.00">worktree&#45;create</text>
<text text-anchor="middle" x="991.35" y="-911.83" font-family="Helvetica,sans-Serif" font-size="10.00">(6,686 tok)</text>
</g>
<!-- script_autopilot_github -->
<g id="node20" class="node">
<title>script_autopilot_github</title>
<polygon fill="#ff9800" stroke="black" points="1068.98,-990.83 1030.17,-1015.32 952.53,-1015.32 913.71,-990.83 952.53,-966.34 1030.17,-966.34 1068.98,-990.83"/>
<text text-anchor="middle" x="991.35" y="-993.83" font-family="Helvetica,sans-Serif" font-size="10.00">autopilot&#45;github</text>
<text text-anchor="middle" x="991.35" y="-982.83" font-family="Helvetica,sans-Serif" font-size="10.00">(3,666 tok)</text>
</g>
<!-- script_chain_steps -->
<g id="node21" class="node">
<title>script_chain_steps</title>
<polygon fill="#ff9800" stroke="black" points="1051.06,-1061.83 1021.2,-1086.32 961.49,-1086.32 931.64,-1061.83 961.49,-1037.34 1021.2,-1037.34 1051.06,-1061.83"/>
<text text-anchor="middle" x="991.35" y="-1064.83" font-family="Helvetica,sans-Serif" font-size="10.00">chain&#45;steps</text>
<text text-anchor="middle" x="991.35" y="-1053.83" font-family="Helvetica,sans-Serif" font-size="10.00">(9,633 tok)</text>
</g>
<!-- script_resolve_issue_num -->
<g id="node22" class="node">
<title>script_resolve_issue_num</title>
<polygon fill="#ff9800" stroke="black" points="1078.58,-1132.83 1034.96,-1157.32 947.73,-1157.32 904.12,-1132.83 947.73,-1108.34 1034.96,-1108.34 1078.58,-1132.83"/>
<text text-anchor="middle" x="991.35" y="-1135.83" font-family="Helvetica,sans-Serif" font-size="10.00">resolve&#45;issue&#45;num</text>
<text text-anchor="middle" x="991.35" y="-1124.83" font-family="Helvetica,sans-Serif" font-size="10.00">(716 tok)</text>
</g>
<!-- script_escape_issue_body&#45;&gt;script_spec_review_manifest -->
<!-- script_issue_lifecycle_orchestrator&#45;&gt;script_co_issue_manual_fix_b -->
</g>
</svg>
