<?xml version="1.0" encoding="UTF-8" standalone="no"?>
<!DOCTYPE svg PUBLIC "-//W3C//DTD SVG 1.1//EN"
 "http://www.w3.org/Graphics/SVG/1.1/DTD/svg11.dtd">
<!-- Generated by graphviz version 2.43.0 (0)
 -->
<!-- Title: Dependencies Pages: 1 -->
<svg width="379pt" height="125pt"
 viewBox="0.00 0.00 378.68 125.00" xmlns="http://www.w3.org/2000/svg" xmlns:xlink="http://www.w3.org/1999/xlink">
<g id="graph0" class="graph" transform="scale(1 1) rotate(0) translate(4 121)">
<title>Dependencies</title>
<polygon fill="white" stroke="transparent" points="-4,4 -4,-121 374.68,-121 374.68,4 -4,4"/>
<text text-anchor="middle" x="185.34" y="-101.8" font-family="Helvetica,sans-Serif" font-size="14.00">workflow&#45;dead&#45;cleanup</text>
<!-- skill_workflow_dead_cleanup -->
<g id="node1" class="node">
<title>skill_workflow_dead_cleanup</title>
<ellipse fill="#e8f5e9" stroke="black" cx="93.34" cy="-47" rx="93.18" ry="21.43"/>
<text text-anchor="middle" x="93.34" y="-50" font-family="Helvetica,sans-Serif" font-size="10.00">twl:workflow&#45;dead&#45;cleanup</text>
<text text-anchor="middle" x="93.34" y="-39" font-family="Helvetica,sans-Serif" font-size="10.00">(249 tok)</text>
</g>
<!-- cmd_dead_component_detect -->
<g id="node2" class="node">
<title>cmd_dead_component_detect</title>
<polygon fill="#e3f2fd" stroke="black" points="367.18,-94 248.18,-94 248.18,-58 367.18,-58 367.18,-94"/>
<text text-anchor="middle" x="307.68" y="-79" font-family="Helvetica,sans-Serif" font-size="10.00">dead&#45;component&#45;detect</text>
<text text-anchor="middle" x="307.68" y="-68" font-family="Helvetica,sans-Serif" font-size="10.00">(899 tok)</text>
</g>
<!-- skill_workflow_dead_cleanup&#45;&gt;cmd_dead_component_detect -->
<g id="edge1" class="edge">
<title>skill_workflow_dead_cleanup&#45;&gt;cmd_dead_component_detect</title>
<path fill="none" stroke="black" d="M173.71,-57.84C194.77,-60.72 217.33,-63.8 237.79,-66.59"/>
<polygon fill="black" stroke="black" points="237.57,-70.09 247.95,-67.98 238.52,-63.16 237.57,-70.09"/>
</g>
<!-- cmd_dead_component_execute -->
<g id="node3" class="node">
<title>cmd_dead_component_execute</title>
<polygon fill="#e3f2fd" stroke="black" points="370.68,-36 244.68,-36 244.68,0 370.68,0 370.68,-36"/>
<text text-anchor="middle" x="307.68" y="-21" font-family="Helvetica,sans-Serif" font-size="10.00">dead&#45;component&#45;execute</text>
<text text-anchor="middle" x="307.68" y="-10" font-family="Helvetica,sans-Serif" font-size="10.00">(1,081 tok)</text>
</g>
<!-- skill_workflow_dead_cleanup&#45;&gt;cmd_dead_component_execute -->
<g id="edge2" class="edge">
<title>skill_workflow_dead_cleanup&#45;&gt;cmd_dead_component_execute</title>
<path fill="none" stroke="black" d="M173.71,-36.16C193.67,-33.43 214.98,-30.52 234.57,-27.85"/>
<polygon fill="black" stroke="black" points="235.2,-31.29 244.64,-26.47 234.25,-24.36 235.2,-31.29"/>
</g>
<!-- cmd_dead_component_detect&#45;&gt;cmd_dead_component_execute -->
</g>
</svg>
