<?xml version="1.0" encoding="UTF-8" standalone="no"?>
<!DOCTYPE svg PUBLIC "-//W3C//DTD SVG 1.1//EN"
 "http://www.w3.org/Graphics/SVG/1.1/DTD/svg11.dtd">
<!-- Generated by graphviz version 2.43.0 (0)
 -->
<!-- Title: Dependencies Pages: 1 -->
<svg width="659pt" height="229pt"
 viewBox="0.00 0.00 658.60 229.49" xmlns="http://www.w3.org/2000/svg" xmlns:xlink="http://www.w3.org/1999/xlink">
<g id="graph0" class="graph" transform="scale(1 1) rotate(0) translate(4 225.49)">
<title>Dependencies</title>
<polygon fill="white" stroke="transparent" points="-4,4 -4,-225.49 654.6,-225.49 654.6,4 -4,4"/>
<text text-anchor="middle" x="325.3" y="-206.29" font-family="Helvetica,sans-Serif" font-size="14.00">workflow&#45;observe&#45;loop</text>
<!-- skill_workflow_observe_loop -->
<g id="node1" class="node">
<title>skill_workflow_observe_loop</title>
<ellipse fill="#e8f5e9" stroke="black" cx="103.24" cy="-96.49" rx="103.48" ry="21.43"/>
<text text-anchor="middle" x="103.24" y="-99.49" font-family="Helvetica,sans-Serif" font-size="10.00">twl:workflow&#45;observe&#45;loop</text>
<text text-anchor="middle" x="103.24" y="-88.49" font-family="Helvetica,sans-Serif" font-size="10.00">(1,964 tok)</text>
</g>
<!-- cmd_observe_and_detect -->
<g id="node2" class="node">
<title>cmd_observe_and_detect</title>
<polygon fill="#bbdefb" stroke="black" points="382.48,-198.49 270.48,-198.49 270.48,-162.49 382.48,-162.49 382.48,-198.49"/>
<text text-anchor="middle" x="326.48" y="-183.49" font-family="Helvetica,sans-Serif" font-size="10.00">observe&#45;and&#45;detect</text>
<text text-anchor="middle" x="326.48" y="-172.49" font-family="Helvetica,sans-Serif" font-size="10.00">(460 tok)</text>
</g>
<!-- skill_workflow_observe_loop&#45;&gt;cmd_observe_and_detect -->
<g id="edge1" class="edge">
<title>skill_workflow_observe_loop&#45;&gt;cmd_observe_and_detect</title>
<path fill="none" stroke="black" d="M153.34,-115.14C187.31,-128.04 232.65,-145.25 268.26,-158.77"/>
<polygon fill="black" stroke="black" points="267.44,-162.2 278.03,-162.48 269.92,-155.66 267.44,-162.2"/>
</g>
<!-- cmd_observe_retrospective -->
<g id="node3" class="node">
<title>cmd_observe_retrospective</title>
<polygon fill="#e3f2fd" stroke="black" points="388.48,-140.49 264.48,-140.49 264.48,-104.49 388.48,-104.49 388.48,-140.49"/>
<text text-anchor="middle" x="326.48" y="-125.49" font-family="Helvetica,sans-Serif" font-size="10.00">observe&#45;retrospective</text>
<text text-anchor="middle" x="326.48" y="-114.49" font-family="Helvetica,sans-Serif" font-size="10.00">(521 tok)</text>
</g>
<!-- skill_workflow_observe_loop&#45;&gt;cmd_observe_retrospective -->
<g id="edge2" class="edge">
<title>skill_workflow_observe_loop&#45;&gt;cmd_observe_retrospective</title>
<path fill="none" stroke="black" d="M193.27,-106.96C213.61,-109.35 234.98,-111.86 254.45,-114.15"/>
<polygon fill="black" stroke="black" points="254.11,-117.63 264.45,-115.32 254.92,-110.68 254.11,-117.63"/>
</g>
<!-- script_observe_wrapper -->
<g id="node5" class="node">
<title>script_observe_wrapper</title>
<polygon fill="#ff9800" stroke="black" points="629.2,-95.49 588.87,-119.98 508.2,-119.98 467.87,-95.49 508.2,-71.01 588.87,-71.01 629.2,-95.49"/>
<text text-anchor="middle" x="548.54" y="-98.49" font-family="Helvetica,sans-Serif" font-size="10.00">observe&#45;wrapper</text>
<text text-anchor="middle" x="548.54" y="-87.49" font-family="Helvetica,sans-Serif" font-size="10.00">(122 tok)</text>
</g>
<!-- skill_workflow_observe_loop&#45;&gt;script_observe_wrapper -->
<g id="edge3" class="edge">
<title>skill_workflow_observe_loop&#45;&gt;script_observe_wrapper</title>
<path fill="none" stroke="black" d="M205.95,-94.3C225.38,-93.97 245.56,-93.67 264.48,-93.49 319.58,-92.98 333.37,-93.15 388.48,-93.49 411.45,-93.64 436.29,-93.9 459.36,-94.19"/>
<polygon fill="black" stroke="black" points="459.42,-97.69 469.47,-94.32 459.51,-90.69 459.42,-97.69"/>
</g>
<!-- script_session_state_wrapper -->
<g id="node6" class="node">
<title>script_session_state_wrapper</title>
<polygon fill="#ff9800" stroke="black" points="650.66,-24.49 599.6,-48.98 497.48,-48.98 446.41,-24.49 497.48,-0.01 599.6,-0.01 650.66,-24.49"/>
<text text-anchor="middle" x="548.54" y="-27.49" font-family="Helvetica,sans-Serif" font-size="10.00">session&#45;state&#45;wrapper</text>
<text text-anchor="middle" x="548.54" y="-16.49" font-family="Helvetica,sans-Serif" font-size="10.00">(126 tok)</text>
</g>
<!-- skill_workflow_observe_loop&#45;&gt;script_session_state_wrapper -->
<g id="edge4" class="edge">
<title>skill_workflow_observe_loop&#45;&gt;script_session_state_wrapper</title>
<path fill="none" stroke="black" d="M184.77,-83.41C263.05,-70.7 381.52,-51.46 461.59,-38.45"/>
<polygon fill="black" stroke="black" points="462.34,-41.88 471.65,-36.82 461.22,-34.97 462.34,-41.88"/>
</g>
<!-- cmd_observe_and_detect&#45;&gt;cmd_observe_retrospective -->
<!-- agent_observer_evaluator -->
<g id="node4" class="node">
<title>agent_observer_evaluator</title>
<ellipse fill="#ede7f6" stroke="black" cx="548.54" cy="-163.49" rx="77.56" ry="21.43"/>
<text text-anchor="middle" x="548.54" y="-166.49" font-family="Helvetica,sans-Serif" font-size="10.00">observer&#45;evaluator</text>
<text text-anchor="middle" x="548.54" y="-155.49" font-family="Helvetica,sans-Serif" font-size="10.00">(1,469 tok)</text>
</g>
<!-- cmd_observe_and_detect&#45;&gt;agent_observer_evaluator -->
<g id="edge5" class="edge">
<title>cmd_observe_and_detect&#45;&gt;agent_observer_evaluator</title>
<path fill="none" stroke="black" stroke-dasharray="5,2" d="M382.72,-176.23C407.11,-174.34 436.31,-172.09 463.32,-170"/>
<polygon fill="black" stroke="black" points="463.85,-173.47 473.55,-169.21 463.31,-166.49 463.85,-173.47"/>
</g>
<!-- cmd_observe_retrospective&#45;&gt;agent_observer_evaluator -->
<!-- cmd_observe_retrospective&#45;&gt;script_observe_wrapper -->
<!-- script_observe_wrapper&#45;&gt;script_session_state_wrapper -->
<!-- script_observe_wrapper&#45;&gt;script_session_state_wrapper -->
</g>
</svg>
