<?xml version="1.0" encoding="UTF-8" standalone="no"?>
<!DOCTYPE svg PUBLIC "-//W3C//DTD SVG 1.1//EN"
 "http://www.w3.org/Graphics/SVG/1.1/DTD/svg11.dtd">
<!-- Generated by graphviz version 2.43.0 (0)
 -->
<!-- Title: Dependencies Pages: 1 -->
<svg width="389pt" height="183pt"
 viewBox="0.00 0.00 389.48 183.00" xmlns="http://www.w3.org/2000/svg" xmlns:xlink="http://www.w3.org/1999/xlink">
<g id="graph0" class="graph" transform="scale(1 1) rotate(0) translate(4 179)">
<title>Dependencies</title>
<polygon fill="white" stroke="transparent" points="-4,4 -4,-179 385.48,-179 385.48,4 -4,4"/>
<text text-anchor="middle" x="190.74" y="-159.8" font-family="Helvetica,sans-Serif" font-size="14.00">workflow&#45;prompt&#45;audit</text>
<!-- skill_workflow_prompt_audit -->
<g id="node1" class="node">
<title>skill_workflow_prompt_audit</title>
<ellipse fill="#e8f5e9" stroke="black" cx="103.24" cy="-76" rx="103.48" ry="21.43"/>
<text text-anchor="middle" x="103.24" y="-79" font-family="Helvetica,sans-Serif" font-size="10.00">twl:workflow&#45;prompt&#45;audit</text>
<text text-anchor="middle" x="103.24" y="-68" font-family="Helvetica,sans-Serif" font-size="10.00">(684 tok)</text>
</g>
<!-- cmd_prompt_audit_scan -->
<g id="node2" class="node">
<title>cmd_prompt_audit_scan</title>
<polygon fill="#e3f2fd" stroke="black" points="376.48,-152 269.48,-152 269.48,-116 376.48,-116 376.48,-152"/>
<text text-anchor="middle" x="322.98" y="-137" font-family="Helvetica,sans-Serif" font-size="10.00">prompt&#45;audit&#45;scan</text>
<text text-anchor="middle" x="322.98" y="-126" font-family="Helvetica,sans-Serif" font-size="10.00">(334 tok)</text>
</g>
<!-- skill_workflow_prompt_audit&#45;&gt;cmd_prompt_audit_scan -->
<g id="edge1" class="edge">
<title>skill_workflow_prompt_audit&#45;&gt;cmd_prompt_audit_scan</title>
<path fill="none" stroke="black" d="M166.92,-92.7C195.92,-100.42 230.28,-109.57 259.27,-117.3"/>
<polygon fill="black" stroke="black" points="258.73,-120.77 269.29,-119.97 260.53,-114.01 258.73,-120.77"/>
</g>
<!-- cmd_prompt_audit_review -->
<g id="node3" class="node">
<title>cmd_prompt_audit_review</title>
<polygon fill="#bbdefb" stroke="black" points="381.48,-94 264.48,-94 264.48,-58 381.48,-58 381.48,-94"/>
<text text-anchor="middle" x="322.98" y="-79" font-family="Helvetica,sans-Serif" font-size="10.00">prompt&#45;audit&#45;review</text>
<text text-anchor="middle" x="322.98" y="-68" font-family="Helvetica,sans-Serif" font-size="10.00">(458 tok)</text>
</g>
<!-- skill_workflow_prompt_audit&#45;&gt;cmd_prompt_audit_review -->
<g id="edge2" class="edge">
<title>skill_workflow_prompt_audit&#45;&gt;cmd_prompt_audit_review</title>
<path fill="none" stroke="black" d="M206.73,-76C222.77,-76 239,-76 254.01,-76"/>
<polygon fill="black" stroke="black" points="254.19,-79.5 264.19,-76 254.19,-72.5 254.19,-79.5"/>
</g>
<!-- cmd_prompt_audit_apply -->
<g id="node4" class="node">
<title>cmd_prompt_audit_apply</title>
<polygon fill="#e3f2fd" stroke="black" points="378.48,-36 267.48,-36 267.48,0 378.48,0 378.48,-36"/>
<text text-anchor="middle" x="322.98" y="-21" font-family="Helvetica,sans-Serif" font-size="10.00">prompt&#45;audit&#45;apply</text>
<text text-anchor="middle" x="322.98" y="-10" font-family="Helvetica,sans-Serif" font-size="10.00">(632 tok)</text>
</g>
<!-- skill_workflow_prompt_audit&#45;&gt;cmd_prompt_audit_apply -->
<g id="edge3" class="edge">
<title>skill_workflow_prompt_audit&#45;&gt;cmd_prompt_audit_apply</title>
<path fill="none" stroke="black" d="M166.92,-59.3C195.24,-51.76 228.68,-42.85 257.24,-35.24"/>
<polygon fill="black" stroke="black" points="258.36,-38.57 267.13,-32.61 256.56,-31.8 258.36,-38.57"/>
</g>
<!-- cmd_prompt_audit_scan&#45;&gt;cmd_prompt_audit_review -->
<!-- cmd_prompt_audit_review&#45;&gt;cmd_prompt_audit_apply -->
</g>
</svg>
