<?xml version="1.0" encoding="UTF-8" standalone="no"?>
<!DOCTYPE svg PUBLIC "-//W3C//DTD SVG 1.1//EN"
 "http://www.w3.org/Graphics/SVG/1.1/DTD/svg11.dtd">
<!-- Generated by graphviz version 2.43.0 (0)
 -->
<!-- Title: Dependencies Pages: 1 -->
<svg width="1118pt" height="404pt"
 viewBox="0.00 0.00 1117.51 404.22" xmlns="http://www.w3.org/2000/svg" xmlns:xlink="http://www.w3.org/1999/xlink">
<g id="graph0" class="graph" transform="scale(1 1) rotate(0) translate(4 400.22)">
<title>Dependencies</title>
<polygon fill="white" stroke="transparent" points="-4,4 -4,-400.22 1113.51,-400.22 1113.51,4 -4,4"/>
<text text-anchor="middle" x="554.76" y="-381.02" font-family="Helvetica,sans-Serif" font-size="14.00">workflow&#45;issue&#45;refine</text>
<!-- skill_workflow_issue_refine -->
<g id="node1" class="node">
<title>skill_workflow_issue_refine</title>
<ellipse fill="#e8f5e9" stroke="black" cx="98.99" cy="-108.05" rx="98.99" ry="21.43"/>
<text text-anchor="middle" x="98.99" y="-111.05" font-family="Helvetica,sans-Serif" font-size="10.00">twl:workflow&#45;issue&#45;refine</text>
<text text-anchor="middle" x="98.99" y="-100.05" font-family="Helvetica,sans-Serif" font-size="10.00">(578 tok)</text>
</g>
<!-- skill_refine_processing_flow -->
<g id="node2" class="node">
<title>skill_refine_processing_flow</title>
<polygon fill="#e1f5fe" stroke="black" points="1103.51,-68.05 966.51,-68.05 966.51,-32.05 1109.51,-32.05 1109.51,-62.05 1103.51,-68.05"/>
<polyline fill="none" stroke="black" points="1103.51,-68.05 1103.51,-62.05 "/>
<polyline fill="none" stroke="black" points="1109.51,-62.05 1103.51,-62.05 "/>
<text text-anchor="middle" x="1038.01" y="-53.05" font-family="Helvetica,sans-Serif" font-size="10.00">twl:refine&#45;processing&#45;flow</text>
<text text-anchor="middle" x="1038.01" y="-42.05" font-family="Helvetica,sans-Serif" font-size="10.00">(2,497 tok)</text>
</g>
<!-- skill_workflow_issue_refine&#45;&gt;skill_refine_processing_flow -->
<g id="edge5" class="edge">
<title>skill_workflow_issue_refine&#45;&gt;skill_refine_processing_flow</title>
<path fill="none" stroke="black" d="M119.24,-128.97C167.91,-180.11 302.3,-310.72 445.99,-357.05 523.16,-381.93 549.12,-373.95 628.42,-357.05 761.75,-328.65 803.19,-318.6 908.51,-232.05 962.09,-188.02 1003.65,-116.39 1023.75,-77.41"/>
<polygon fill="black" stroke="black" points="1027,-78.75 1028.39,-68.25 1020.75,-75.59 1027,-78.75"/>
</g>
<!-- cmd_issue_spec_review -->
<g id="node3" class="node">
<title>cmd_issue_spec_review</title>
<polygon fill="#bbdefb" stroke="black" points="374.49,-184.05 269.49,-184.05 269.49,-148.05 374.49,-148.05 374.49,-184.05"/>
<text text-anchor="middle" x="321.99" y="-169.05" font-family="Helvetica,sans-Serif" font-size="10.00">issue&#45;spec&#45;review</text>
<text text-anchor="middle" x="321.99" y="-158.05" font-family="Helvetica,sans-Serif" font-size="10.00">(1,870 tok)</text>
</g>
<!-- skill_workflow_issue_refine&#45;&gt;cmd_issue_spec_review -->
<g id="edge1" class="edge">
<title>skill_workflow_issue_refine&#45;&gt;cmd_issue_spec_review</title>
<path fill="none" stroke="black" d="M162.44,-124.44C192.71,-132.39 228.96,-141.9 259.16,-149.82"/>
<polygon fill="black" stroke="black" points="258.58,-153.29 269.15,-152.45 260.36,-146.52 258.58,-153.29"/>
</g>
<!-- cmd_issue_review_aggregate -->
<g id="node4" class="node">
<title>cmd_issue_review_aggregate</title>
<polygon fill="#e3f2fd" stroke="black" points="387.99,-126.05 255.99,-126.05 255.99,-90.05 387.99,-90.05 387.99,-126.05"/>
<text text-anchor="middle" x="321.99" y="-111.05" font-family="Helvetica,sans-Serif" font-size="10.00">issue&#45;review&#45;aggregate</text>
<text text-anchor="middle" x="321.99" y="-100.05" font-family="Helvetica,sans-Serif" font-size="10.00">(1,503 tok)</text>
</g>
<!-- skill_workflow_issue_refine&#45;&gt;cmd_issue_review_aggregate -->
<g id="edge2" class="edge">
<title>skill_workflow_issue_refine&#45;&gt;cmd_issue_review_aggregate</title>
<path fill="none" stroke="black" d="M198.21,-108.05C214.04,-108.05 230.21,-108.05 245.4,-108.05"/>
<polygon fill="black" stroke="black" points="245.74,-111.55 255.74,-108.05 245.74,-104.55 245.74,-111.55"/>
</g>
<!-- cmd_issue_arch_drift -->
<g id="node5" class="node">
<title>cmd_issue_arch_drift</title>
<polygon fill="#e3f2fd" stroke="black" points="366.99,-68.05 276.99,-68.05 276.99,-32.05 366.99,-32.05 366.99,-68.05"/>
<text text-anchor="middle" x="321.99" y="-53.05" font-family="Helvetica,sans-Serif" font-size="10.00">issue&#45;arch&#45;drift</text>
<text text-anchor="middle" x="321.99" y="-42.05" font-family="Helvetica,sans-Serif" font-size="10.00">(1,079 tok)</text>
</g>
<!-- skill_workflow_issue_refine&#45;&gt;cmd_issue_arch_drift -->
<g id="edge3" class="edge">
<title>skill_workflow_issue_refine&#45;&gt;cmd_issue_arch_drift</title>
<path fill="none" stroke="black" d="M162.44,-91.67C195.38,-83.02 235.39,-72.52 266.98,-64.23"/>
<polygon fill="black" stroke="black" points="268.14,-67.54 276.92,-61.62 266.36,-60.77 268.14,-67.54"/>
</g>
<!-- script_spec_review_session_init -->
<g id="node11" class="node">
<title>script_spec_review_session_init</title>
<polygon fill="#ff9800" stroke="black" points="908.55,-50.05 853.01,-74.54 741.92,-74.54 686.38,-50.05 741.92,-25.56 853.01,-25.56 908.55,-50.05"/>
<text text-anchor="middle" x="797.47" y="-53.05" font-family="Helvetica,sans-Serif" font-size="10.00">spec&#45;review&#45;session&#45;init</text>
<text text-anchor="middle" x="797.47" y="-42.05" font-family="Helvetica,sans-Serif" font-size="10.00">(501 tok)</text>
</g>
<!-- skill_workflow_issue_refine&#45;&gt;script_spec_review_session_init -->
<g id="edge4" class="edge">
<title>skill_workflow_issue_refine&#45;&gt;script_spec_review_session_init</title>
<path fill="none" stroke="black" d="M126.61,-87.57C156.29,-66.15 206.62,-33.89 255.99,-21.05 414.79,20.24 608.42,-8.29 715.48,-30.61"/>
<polygon fill="black" stroke="black" points="715.06,-34.09 725.56,-32.74 716.51,-27.25 715.06,-34.09"/>
</g>
<!-- cmd_issue_spec_review&#45;&gt;cmd_issue_review_aggregate -->
<!-- cmd_issue_spec_review&#45;&gt;cmd_issue_review_aggregate -->
<!-- agent_issue_critic -->
<g id="node6" class="node">
<title>agent_issue_critic</title>
<ellipse fill="#ede7f6" stroke="black" cx="537.21" cy="-325.05" rx="49.49" ry="21.43"/>
<text text-anchor="middle" x="537.21" y="-328.05" font-family="Helvetica,sans-Serif" font-size="10.00">issue&#45;critic</text>
<text text-anchor="middle" x="537.21" y="-317.05" font-family="Helvetica,sans-Serif" font-size="10.00">(1,268 tok)</text>
</g>
<!-- cmd_issue_spec_review&#45;&gt;agent_issue_critic -->
<g id="edge6" class="edge">
<title>cmd_issue_spec_review&#45;&gt;agent_issue_critic</title>
<path fill="none" stroke="black" stroke-dasharray="5,2" d="M336.1,-184.18C356.65,-211.4 398.99,-262.85 445.99,-293.05 457.58,-300.5 471.12,-306.48 484.13,-311.16"/>
<polygon fill="black" stroke="black" points="483.34,-314.59 493.94,-314.49 485.59,-307.96 483.34,-314.59"/>
</g>
<!-- agent_issue_feasibility -->
<g id="node7" class="node">
<title>agent_issue_feasibility</title>
<ellipse fill="#ede7f6" stroke="black" cx="537.21" cy="-261.05" rx="67.35" ry="21.43"/>
<text text-anchor="middle" x="537.21" y="-264.05" font-family="Helvetica,sans-Serif" font-size="10.00">issue&#45;feasibility</text>
<text text-anchor="middle" x="537.21" y="-253.05" font-family="Helvetica,sans-Serif" font-size="10.00">(1,175 tok)</text>
</g>
<!-- cmd_issue_spec_review&#45;&gt;agent_issue_feasibility -->
<g id="edge7" class="edge">
<title>cmd_issue_spec_review&#45;&gt;agent_issue_feasibility</title>
<path fill="none" stroke="black" stroke-dasharray="5,2" d="M355.31,-184.1C379.8,-197.4 414.49,-215.47 445.99,-229.05 456.96,-233.78 468.88,-238.38 480.35,-242.54"/>
<polygon fill="black" stroke="black" points="479.26,-245.87 489.86,-245.93 481.61,-239.28 479.26,-245.87"/>
</g>
<!-- agent_worker_codex_reviewer -->
<g id="node8" class="node">
<title>agent_worker_codex_reviewer</title>
<ellipse fill="#ede7f6" stroke="black" cx="537.21" cy="-197.05" rx="91.43" ry="21.43"/>
<text text-anchor="middle" x="537.21" y="-200.05" font-family="Helvetica,sans-Serif" font-size="10.00">worker&#45;codex&#45;reviewer</text>
<text text-anchor="middle" x="537.21" y="-189.05" font-family="Helvetica,sans-Serif" font-size="10.00">(2,121 tok)</text>
</g>
<!-- cmd_issue_spec_review&#45;&gt;agent_worker_codex_reviewer -->
<g id="edge8" class="edge">
<title>cmd_issue_spec_review&#45;&gt;agent_worker_codex_reviewer</title>
<path fill="none" stroke="black" stroke-dasharray="5,2" d="M374.6,-173.56C397.02,-176.82 423.9,-180.72 449.24,-184.41"/>
<polygon fill="black" stroke="black" points="448.84,-187.89 459.24,-185.86 449.85,-180.96 448.84,-187.89"/>
</g>
<!-- script_escape_issue_body -->
<g id="node9" class="node">
<title>script_escape_issue_body</title>
<polygon fill="#ff9800" stroke="black" points="885.83,-197.05 841.65,-221.54 753.29,-221.54 709.1,-197.05 753.29,-172.56 841.65,-172.56 885.83,-197.05"/>
<text text-anchor="middle" x="797.47" y="-200.05" font-family="Helvetica,sans-Serif" font-size="10.00">escape&#45;issue&#45;body</text>
<text text-anchor="middle" x="797.47" y="-189.05" font-family="Helvetica,sans-Serif" font-size="10.00">(63 tok)</text>
</g>
<!-- cmd_issue_spec_review&#45;&gt;script_escape_issue_body -->
<g id="edge9" class="edge">
<title>cmd_issue_spec_review&#45;&gt;script_escape_issue_body</title>
<path fill="none" stroke="black" d="M374.76,-165.54C396.72,-165.35 422.61,-165.15 445.99,-165.05 527.07,-164.72 547.7,-157.44 628.42,-165.05 660.43,-168.07 695.42,-174.26 725.15,-180.4"/>
<polygon fill="black" stroke="black" points="724.51,-183.84 735.01,-182.47 725.95,-176.99 724.51,-183.84"/>
</g>
<!-- script_spec_review_manifest -->
<g id="node10" class="node">
<title>script_spec_review_manifest</title>
<polygon fill="#ff9800" stroke="black" points="897.83,-126.05 847.65,-150.54 747.29,-150.54 697.11,-126.05 747.29,-101.56 847.65,-101.56 897.83,-126.05"/>
<text text-anchor="middle" x="797.47" y="-129.05" font-family="Helvetica,sans-Serif" font-size="10.00">spec&#45;review&#45;manifest</text>
<text text-anchor="middle" x="797.47" y="-118.05" font-family="Helvetica,sans-Serif" font-size="10.00">(169 tok)</text>
</g>
<!-- cmd_issue_spec_review&#45;&gt;script_spec_review_manifest -->
<g id="edge10" class="edge">
<title>cmd_issue_spec_review&#45;&gt;script_spec_review_manifest</title>
<path fill="none" stroke="black" d="M374.56,-161.7C452.8,-155.09 602.79,-142.42 701.22,-134.1"/>
<polygon fill="black" stroke="black" points="701.8,-137.56 711.47,-133.23 701.21,-130.59 701.8,-137.56"/>
</g>
<!-- cmd_issue_review_aggregate&#45;&gt;cmd_issue_arch_drift -->
<!-- cmd_issue_review_aggregate&#45;&gt;cmd_issue_arch_drift -->
<!-- cmd_issue_arch_drift&#45;&gt;script_spec_review_session_init -->
<!-- agent_issue_critic&#45;&gt;agent_issue_feasibility -->
<!-- agent_issue_feasibility&#45;&gt;agent_worker_codex_reviewer -->
<!-- agent_worker_codex_reviewer&#45;&gt;script_escape_issue_body -->
<!-- script_escape_issue_body&#45;&gt;script_spec_review_manifest -->
<!-- script_spec_review_session_init&#45;&gt;skill_refine_processing_flow -->
</g>
</svg>
