<?xml version="1.0" encoding="UTF-8" standalone="no"?>
<!DOCTYPE svg PUBLIC "-//W3C//DTD SVG 1.1//EN"
 "http://www.w3.org/Graphics/SVG/1.1/DTD/svg11.dtd">
<!-- Generated by graphviz version 2.43.0 (0)
 -->
<!-- Title: Dependencies Pages: 1 -->
<svg width="440pt" height="357pt"
 viewBox="0.00 0.00 440.12 357.00" xmlns="http://www.w3.org/2000/svg" xmlns:xlink="http://www.w3.org/1999/xlink">
<g id="graph0" class="graph" transform="scale(1 1) rotate(0) translate(4 353)">
<title>Dependencies</title>
<polygon fill="white" stroke="transparent" points="-4,4 -4,-353 436.12,-353 436.12,4 -4,4"/>
<text text-anchor="middle" x="216.06" y="-333.8" font-family="Helvetica,sans-Serif" font-size="14.00">co&#45;utility</text>
<!-- skill_co_utility -->
<g id="node1" class="node">
<title>skill_co_utility</title>
<ellipse fill="#c8e6c9" stroke="black" cx="48.79" cy="-163" rx="48.58" ry="21.43"/>
<text text-anchor="middle" x="48.79" y="-166" font-family="Helvetica,sans-Serif" font-size="10.00">twl:co&#45;utility</text>
<text text-anchor="middle" x="48.79" y="-155" font-family="Helvetica,sans-Serif" font-size="10.00">(777 tok)</text>
</g>
<!-- cmd_worktree_list -->
<g id="node2" class="node">
<title>cmd_worktree_list</title>
<polygon fill="#e3f2fd" stroke="black" points="232.08,-326 162.08,-326 162.08,-290 232.08,-290 232.08,-326"/>
<text text-anchor="middle" x="197.08" y="-311" font-family="Helvetica,sans-Serif" font-size="10.00">worktree&#45;list</text>
<text text-anchor="middle" x="197.08" y="-300" font-family="Helvetica,sans-Serif" font-size="10.00">(200 tok)</text>
</g>
<!-- skill_co_utility&#45;&gt;cmd_worktree_list -->
<g id="edge1" class="edge">
<title>skill_co_utility&#45;&gt;cmd_worktree_list</title>
<path fill="none" stroke="black" d="M65.86,-183.06C85.66,-207.17 120.94,-248.22 155.58,-279 157.26,-280.49 159.02,-281.98 160.82,-283.45"/>
<polygon fill="black" stroke="black" points="158.85,-286.35 168.89,-289.73 163.15,-280.83 158.85,-286.35"/>
</g>
<!-- cmd_twl_validate -->
<g id="node3" class="node">
<title>cmd_twl_validate</title>
<polygon fill="#e3f2fd" stroke="black" points="230.08,-210 164.08,-210 164.08,-174 230.08,-174 230.08,-210"/>
<text text-anchor="middle" x="197.08" y="-195" font-family="Helvetica,sans-Serif" font-size="10.00">twl&#45;validate</text>
<text text-anchor="middle" x="197.08" y="-184" font-family="Helvetica,sans-Serif" font-size="10.00">(869 tok)</text>
</g>
<!-- skill_co_utility&#45;&gt;cmd_twl_validate -->
<g id="edge3" class="edge">
<title>skill_co_utility&#45;&gt;cmd_twl_validate</title>
<path fill="none" stroke="black" d="M93.68,-171.7C112.8,-175.49 135.11,-179.91 154.02,-183.66"/>
<polygon fill="black" stroke="black" points="153.36,-187.1 163.85,-185.61 154.72,-180.23 153.36,-187.1"/>
</g>
<!-- cmd_services -->
<g id="node4" class="node">
<title>cmd_services</title>
<polygon fill="#e3f2fd" stroke="black" points="224.58,-152 169.58,-152 169.58,-116 224.58,-116 224.58,-152"/>
<text text-anchor="middle" x="197.08" y="-137" font-family="Helvetica,sans-Serif" font-size="10.00">services</text>
<text text-anchor="middle" x="197.08" y="-126" font-family="Helvetica,sans-Serif" font-size="10.00">(967 tok)</text>
</g>
<!-- skill_co_utility&#45;&gt;cmd_services -->
<g id="edge4" class="edge">
<title>skill_co_utility&#45;&gt;cmd_services</title>
<path fill="none" stroke="black" d="M93.68,-154.3C114.61,-150.15 139.36,-145.24 159.29,-141.29"/>
<polygon fill="black" stroke="black" points="160.09,-144.7 169.22,-139.32 158.73,-137.84 160.09,-144.7"/>
</g>
<!-- cmd_ui_capture -->
<g id="node5" class="node">
<title>cmd_ui_capture</title>
<polygon fill="#e3f2fd" stroke="black" points="226.58,-94 167.58,-94 167.58,-58 226.58,-58 226.58,-94"/>
<text text-anchor="middle" x="197.08" y="-79" font-family="Helvetica,sans-Serif" font-size="10.00">ui&#45;capture</text>
<text text-anchor="middle" x="197.08" y="-68" font-family="Helvetica,sans-Serif" font-size="10.00">(637 tok)</text>
</g>
<!-- skill_co_utility&#45;&gt;cmd_ui_capture -->
<g id="edge5" class="edge">
<title>skill_co_utility&#45;&gt;cmd_ui_capture</title>
<path fill="none" stroke="black" d="M78.34,-146.02C101.15,-132.45 133.32,-113.33 158.27,-98.49"/>
<polygon fill="black" stroke="black" points="160.29,-101.36 167.1,-93.24 156.72,-95.34 160.29,-101.36"/>
</g>
<!-- cmd_worktree_delete -->
<g id="node6" class="node">
<title>cmd_worktree_delete</title>
<polygon fill="#e3f2fd" stroke="black" points="238.58,-268 155.58,-268 155.58,-232 238.58,-232 238.58,-268"/>
<text text-anchor="middle" x="197.08" y="-253" font-family="Helvetica,sans-Serif" font-size="10.00">worktree&#45;delete</text>
<text text-anchor="middle" x="197.08" y="-242" font-family="Helvetica,sans-Serif" font-size="10.00">(390 tok)</text>
</g>
<!-- skill_co_utility&#45;&gt;cmd_worktree_delete -->
<g id="edge2" class="edge">
<title>skill_co_utility&#45;&gt;cmd_worktree_delete</title>
<path fill="none" stroke="black" d="M78.34,-179.98C100.71,-193.28 132.07,-211.93 156.8,-226.64"/>
<polygon fill="black" stroke="black" points="155.2,-229.76 165.58,-231.86 158.78,-223.74 155.2,-229.76"/>
</g>
<!-- cmd_schema_update -->
<g id="node7" class="node">
<title>cmd_schema_update</title>
<polygon fill="#e3f2fd" stroke="black" points="238.58,-36 155.58,-36 155.58,0 238.58,0 238.58,-36"/>
<text text-anchor="middle" x="197.08" y="-21" font-family="Helvetica,sans-Serif" font-size="10.00">schema&#45;update</text>
<text text-anchor="middle" x="197.08" y="-10" font-family="Helvetica,sans-Serif" font-size="10.00">(477 tok)</text>
</g>
<!-- skill_co_utility&#45;&gt;cmd_schema_update -->
<g id="edge6" class="edge">
<title>skill_co_utility&#45;&gt;cmd_schema_update</title>
<path fill="none" stroke="black" d="M65.86,-142.94C85.66,-118.83 120.94,-77.78 155.58,-47 157.26,-45.51 159.02,-44.02 160.82,-42.55"/>
<polygon fill="black" stroke="black" points="163.15,-45.17 168.89,-36.27 158.85,-39.65 163.15,-45.17"/>
</g>
<!-- cmd_worktree_list&#45;&gt;cmd_worktree_delete -->
<!-- cmd_twl_validate&#45;&gt;cmd_services -->
<!-- cmd_services&#45;&gt;cmd_ui_capture -->
<!-- cmd_ui_capture&#45;&gt;cmd_schema_update -->
<!-- cmd_worktree_delete&#45;&gt;cmd_twl_validate -->
<!-- script_worktree_delete -->
<g id="node8" class="node">
<title>script_worktree_delete</title>
<polygon fill="#ff9800" stroke="black" points="431.89,-250 398.12,-274.49 330.58,-274.49 296.81,-250 330.58,-225.51 398.12,-225.51 431.89,-250"/>
<text text-anchor="middle" x="364.35" y="-253" font-family="Helvetica,sans-Serif" font-size="10.00">worktree&#45;delete</text>
<text text-anchor="middle" x="364.35" y="-242" font-family="Helvetica,sans-Serif" font-size="10.00">(956 tok)</text>
</g>
<!-- cmd_worktree_delete&#45;&gt;script_worktree_delete -->
<g id="edge7" class="edge">
<title>cmd_worktree_delete&#45;&gt;script_worktree_delete</title>
<path fill="none" stroke="black" d="M238.93,-250C253.34,-250 270.05,-250 286.45,-250"/>
<polygon fill="black" stroke="black" points="286.6,-253.5 296.6,-250 286.6,-246.5 286.6,-253.5"/>
</g>
</g>
</svg>
