<?xml version="1.0" encoding="UTF-8" standalone="no"?>
<!DOCTYPE svg PUBLIC "-//W3C//DTD SVG 1.1//EN"
 "http://www.w3.org/Graphics/SVG/1.1/DTD/svg11.dtd">
<!-- Generated by graphviz version 2.43.0 (0)
 -->
<!-- Title: Dependencies Pages: 1 -->
<svg width="765pt" height="192pt"
 viewBox="0.00 0.00 764.51 192.21" xmlns="http://www.w3.org/2000/svg" xmlns:xlink="http://www.w3.org/1999/xlink">
<g id="graph0" class="graph" transform="scale(1 1) rotate(0) translate(4 188.21)">
<title>Dependencies</title>
<polygon fill="white" stroke="transparent" points="-4,4 -4,-188.21 760.51,-188.21 760.51,4 -4,4"/>
<text text-anchor="middle" x="378.25" y="-169.01" font-family="Helvetica,sans-Serif" font-size="14.00">workflow&#45;test&#45;ready</text>
<!-- skill_workflow_test_ready -->
<g id="node1" class="node">
<title>skill_workflow_test_ready</title>
<ellipse fill="#e8f5e9" stroke="black" cx="85.56" cy="-47" rx="85.62" ry="21.43"/>
<text text-anchor="middle" x="85.56" y="-50" font-family="Helvetica,sans-Serif" font-size="10.00">dev:workflow&#45;test&#45;ready</text>
<text text-anchor="middle" x="85.56" y="-39" font-family="Helvetica,sans-Serif" font-size="10.00">(2,089 tok)</text>
</g>
<!-- cmd_opsx_apply -->
<g id="node2" class="node">
<title>cmd_opsx_apply</title>
<polygon fill="#e3f2fd" stroke="black" points="296.62,-36 232.62,-36 232.62,0 296.62,0 296.62,-36"/>
<text text-anchor="middle" x="264.62" y="-21" font-family="Helvetica,sans-Serif" font-size="10.00">opsx&#45;apply</text>
<text text-anchor="middle" x="264.62" y="-10" font-family="Helvetica,sans-Serif" font-size="10.00">(249 tok)</text>
</g>
<!-- skill_workflow_test_ready&#45;&gt;cmd_opsx_apply -->
<g id="edge2" class="edge">
<title>skill_workflow_test_ready&#45;&gt;cmd_opsx_apply</title>
<path fill="none" stroke="black" d="M157.3,-35.41C179.35,-31.8 202.93,-27.94 222.27,-24.77"/>
<polygon fill="black" stroke="black" points="222.95,-28.21 232.25,-23.14 221.81,-21.3 222.95,-28.21"/>
</g>
<!-- cmd_test_scaffold -->
<g id="node3" class="node">
<title>cmd_test_scaffold</title>
<polygon fill="#bbdefb" stroke="black" points="300.12,-94 229.12,-94 229.12,-58 300.12,-58 300.12,-94"/>
<text text-anchor="middle" x="264.62" y="-79" font-family="Helvetica,sans-Serif" font-size="10.00">test&#45;scaffold</text>
<text text-anchor="middle" x="264.62" y="-68" font-family="Helvetica,sans-Serif" font-size="10.00">(718 tok)</text>
</g>
<!-- skill_workflow_test_ready&#45;&gt;cmd_test_scaffold -->
<g id="edge1" class="edge">
<title>skill_workflow_test_ready&#45;&gt;cmd_test_scaffold</title>
<path fill="none" stroke="black" d="M157.3,-58.59C178.11,-61.99 200.28,-65.63 218.97,-68.69"/>
<polygon fill="black" stroke="black" points="218.52,-72.16 228.96,-70.32 219.65,-65.25 218.52,-72.16"/>
</g>
<!-- cmd_test_scaffold&#45;&gt;cmd_opsx_apply -->
<!-- agent_spec_scaffold_tests -->
<g id="node4" class="node">
<title>agent_spec_scaffold_tests</title>
<ellipse fill="#ede7f6" stroke="black" cx="428.83" cy="-140" rx="70.92" ry="21.43"/>
<text text-anchor="middle" x="428.83" y="-143" font-family="Helvetica,sans-Serif" font-size="10.00">spec&#45;scaffold&#45;tests</text>
<text text-anchor="middle" x="428.83" y="-132" font-family="Helvetica,sans-Serif" font-size="10.00">(1,761 tok)</text>
</g>
<!-- cmd_test_scaffold&#45;&gt;agent_spec_scaffold_tests -->
<g id="edge3" class="edge">
<title>cmd_test_scaffold&#45;&gt;agent_spec_scaffold_tests</title>
<path fill="none" stroke="black" stroke-dasharray="5,2" d="M300.42,-89.73C322.36,-98.39 351.1,-109.73 375.74,-119.45"/>
<polygon fill="black" stroke="black" points="374.72,-122.81 385.3,-123.22 377.28,-116.29 374.72,-122.81"/>
</g>
<!-- agent_e2e_generate -->
<g id="node5" class="node">
<title>agent_e2e_generate</title>
<ellipse fill="#ede7f6" stroke="black" cx="428.83" cy="-76" rx="51.74" ry="21.43"/>
<text text-anchor="middle" x="428.83" y="-79" font-family="Helvetica,sans-Serif" font-size="10.00">e2e&#45;generate</text>
<text text-anchor="middle" x="428.83" y="-68" font-family="Helvetica,sans-Serif" font-size="10.00">(2,028 tok)</text>
</g>
<!-- cmd_test_scaffold&#45;&gt;agent_e2e_generate -->
<g id="edge4" class="edge">
<title>cmd_test_scaffold&#45;&gt;agent_e2e_generate</title>
<path fill="none" stroke="black" stroke-dasharray="5,2" d="M300.42,-76C319.79,-76 344.47,-76 366.94,-76"/>
<polygon fill="black" stroke="black" points="367.08,-79.5 377.08,-76 367.08,-72.5 367.08,-79.5"/>
</g>
<!-- skill_ref_specialist_output_schema -->
<g id="node6" class="node">
<title>skill_ref_specialist_output_schema</title>
<ellipse fill="none" stroke="black" cx="657.03" cy="-76" rx="99.47" ry="18"/>
<text text-anchor="middle" x="657.03" y="-73.5" font-family="Helvetica,sans-Serif" font-size="10.00">skill_ref_specialist_output_schema</text>
</g>
<!-- cmd_test_scaffold&#45;&gt;skill_ref_specialist_output_schema -->
<g id="edge5" class="edge">
<title>cmd_test_scaffold&#45;&gt;skill_ref_specialist_output_schema</title>
<path fill="none" stroke="black" d="M300.48,-60.86C317.51,-54.26 338.51,-47.3 358.12,-44 437.81,-30.6 530.49,-45.25 591.04,-58.84"/>
<polygon fill="black" stroke="black" points="590.32,-62.26 600.85,-61.09 591.89,-55.44 590.32,-62.26"/>
</g>
<!-- agent_spec_scaffold_tests&#45;&gt;agent_e2e_generate -->
<!-- agent_spec_scaffold_tests&#45;&gt;skill_ref_specialist_output_schema -->
<g id="edge6" class="edge">
<title>agent_spec_scaffold_tests&#45;&gt;skill_ref_specialist_output_schema</title>
<path fill="none" stroke="black" stroke-dasharray="1,5" d="M480.88,-125.56C513.99,-116.19 557.37,-103.91 592.68,-93.92"/>
<polygon fill="black" stroke="black" points="593.74,-97.26 602.41,-91.17 591.83,-90.52 593.74,-97.26"/>
</g>
<!-- agent_e2e_generate&#45;&gt;skill_ref_specialist_output_schema -->
<g id="edge7" class="edge">
<title>agent_e2e_generate&#45;&gt;skill_ref_specialist_output_schema</title>
<path fill="none" stroke="black" stroke-dasharray="1,5" d="M477.8,-69.11C501.13,-68.01 530.07,-67.57 557.8,-67.81"/>
<polygon fill="black" stroke="black" points="557.9,-71.32 567.95,-67.93 557.99,-64.32 557.9,-71.32"/>
</g>
<!-- agent_e2e_generate&#45;&gt;skill_ref_specialist_output_schema -->
</g>
</svg>
