<?xml version="1.0" encoding="UTF-8" standalone="no"?>
<!DOCTYPE svg PUBLIC "-//W3C//DTD SVG 1.1//EN"
 "http://www.w3.org/Graphics/SVG/1.1/DTD/svg11.dtd">
<!-- Generated by graphviz version 2.43.0 (0)
 -->
<!-- Title: Dependencies Pages: 1 -->
<svg width="1347pt" height="1415pt"
 viewBox="0.00 0.00 1346.82 1415.03" xmlns="http://www.w3.org/2000/svg" xmlns:xlink="http://www.w3.org/1999/xlink">
<g id="graph0" class="graph" transform="scale(1 1) rotate(0) translate(4 1411.03)">
<title>Dependencies</title>
<polygon fill="white" stroke="transparent" points="-4,4 -4,-1411.03 1342.82,-1411.03 1342.82,4 -4,4"/>
<text text-anchor="middle" x="669.41" y="-1391.83" font-family="Helvetica,sans-Serif" font-size="14.00">co&#45;issue</text>
<!-- skill_co_issue -->
<g id="node1" class="node">
<title>skill_co_issue</title>
<ellipse fill="#c8e6c9" stroke="black" cx="53.03" cy="-218.54" rx="53.07" ry="21.43"/>
<text text-anchor="middle" x="53.03" y="-221.54" font-family="Helvetica,sans-Serif" font-size="10.00">twl:co&#45;issue</text>
<text text-anchor="middle" x="53.03" y="-210.54" font-family="Helvetica,sans-Serif" font-size="10.00">(1,354 tok)</text>
</g>
<!-- skill_workflow_issue_lifecycle -->
<g id="node2" class="node">
<title>skill_workflow_issue_lifecycle</title>
<ellipse fill="#e8f5e9" stroke="black" cx="272.25" cy="-455.54" rx="108.38" ry="21.43"/>
<text text-anchor="middle" x="272.25" y="-458.54" font-family="Helvetica,sans-Serif" font-size="10.00">twl:workflow&#45;issue&#45;lifecycle</text>
<text text-anchor="middle" x="272.25" y="-447.54" font-family="Helvetica,sans-Serif" font-size="10.00">(2,595 tok)</text>
</g>
<!-- skill_co_issue&#45;&gt;skill_workflow_issue_lifecycle -->
<g id="edge2" class="edge">
<title>skill_co_issue&#45;&gt;skill_workflow_issue_lifecycle</title>
<path fill="none" stroke="black" d="M59.49,-239.75C71.3,-281.34 103.18,-373.88 164.07,-423.54 170.31,-428.63 177.34,-432.91 184.75,-436.51"/>
<polygon fill="black" stroke="black" points="183.73,-439.89 194.3,-440.72 186.56,-433.48 183.73,-439.89"/>
</g>
<!-- skill_workflow_issue_refine -->
<g id="node3" class="node">
<title>skill_workflow_issue_refine</title>
<ellipse fill="#e8f5e9" stroke="black" cx="272.25" cy="-391.54" rx="98.99" ry="21.43"/>
<text text-anchor="middle" x="272.25" y="-394.54" font-family="Helvetica,sans-Serif" font-size="10.00">twl:workflow&#45;issue&#45;refine</text>
<text text-anchor="middle" x="272.25" y="-383.54" font-family="Helvetica,sans-Serif" font-size="10.00">(3,235 tok)</text>
</g>
<!-- skill_co_issue&#45;&gt;skill_workflow_issue_refine -->
<g id="edge3" class="edge">
<title>skill_co_issue&#45;&gt;skill_workflow_issue_refine</title>
<path fill="none" stroke="black" d="M65.97,-239.16C83.82,-268.29 120.09,-321.4 164.07,-352.54 174.76,-360.1 187.08,-366.37 199.47,-371.49"/>
<polygon fill="black" stroke="black" points="198.35,-374.81 208.94,-375.19 200.9,-368.29 198.35,-374.81"/>
</g>
<!-- skill_co_issue_step0_5_modes -->
<g id="node4" class="node">
<title>skill_co_issue_step0_5_modes</title>
<polygon fill="#e1f5fe" stroke="black" points="1325.32,-277.54 1179.32,-277.54 1179.32,-241.54 1331.32,-241.54 1331.32,-271.54 1325.32,-277.54"/>
<polyline fill="none" stroke="black" points="1325.32,-277.54 1325.32,-271.54 "/>
<polyline fill="none" stroke="black" points="1331.32,-271.54 1325.32,-271.54 "/>
<text text-anchor="middle" x="1255.32" y="-262.54" font-family="Helvetica,sans-Serif" font-size="10.00">twl:co&#45;issue&#45;step0.5&#45;modes</text>
<text text-anchor="middle" x="1255.32" y="-251.54" font-family="Helvetica,sans-Serif" font-size="10.00">(734 tok)</text>
</g>
<!-- skill_co_issue&#45;&gt;skill_co_issue_step0_5_modes -->
<g id="edge6" class="edge">
<title>skill_co_issue&#45;&gt;skill_co_issue_step0_5_modes</title>
<path fill="none" stroke="black" d="M105.35,-222.04C264.27,-232.95 741.79,-266.38 810.87,-278.54 837.21,-283.17 842.38,-290.95 868.87,-294.54 976.76,-309.14 1005.77,-307.79 1113.82,-294.54 1137.51,-291.63 1162.96,-286.06 1185.6,-280.21"/>
<polygon fill="black" stroke="black" points="1186.68,-283.55 1195.45,-277.6 1184.89,-276.78 1186.68,-283.55"/>
</g>
<!-- skill_co_issue_phase2_bundles -->
<g id="node5" class="node">
<title>skill_co_issue_phase2_bundles</title>
<polygon fill="#e1f5fe" stroke="black" points="1327.32,-219.54 1177.32,-219.54 1177.32,-183.54 1333.32,-183.54 1333.32,-213.54 1327.32,-219.54"/>
<polyline fill="none" stroke="black" points="1327.32,-219.54 1327.32,-213.54 "/>
<polyline fill="none" stroke="black" points="1333.32,-213.54 1327.32,-213.54 "/>
<text text-anchor="middle" x="1255.32" y="-204.54" font-family="Helvetica,sans-Serif" font-size="10.00">twl:co&#45;issue&#45;phase2&#45;bundles</text>
<text text-anchor="middle" x="1255.32" y="-193.54" font-family="Helvetica,sans-Serif" font-size="10.00">(1,280 tok)</text>
</g>
<!-- skill_co_issue&#45;&gt;skill_co_issue_phase2_bundles -->
<g id="edge7" class="edge">
<title>skill_co_issue&#45;&gt;skill_co_issue_phase2_bundles</title>
<path fill="none" stroke="black" d="M98.02,-207.22C178.09,-187.64 353.26,-149.54 503.44,-149.54 503.44,-149.54 503.44,-149.54 720.66,-149.54 878.7,-149.54 1061.83,-172.41 1167.27,-187.81"/>
<polygon fill="black" stroke="black" points="1166.82,-191.28 1177.22,-189.28 1167.84,-184.36 1166.82,-191.28"/>
</g>
<!-- skill_co_issue_phase3_dispatch -->
<g id="node6" class="node">
<title>skill_co_issue_phase3_dispatch</title>
<polygon fill="#e1f5fe" stroke="black" points="1328.82,-161.54 1175.82,-161.54 1175.82,-125.54 1334.82,-125.54 1334.82,-155.54 1328.82,-161.54"/>
<polyline fill="none" stroke="black" points="1328.82,-161.54 1328.82,-155.54 "/>
<polyline fill="none" stroke="black" points="1334.82,-155.54 1328.82,-155.54 "/>
<text text-anchor="middle" x="1255.32" y="-146.54" font-family="Helvetica,sans-Serif" font-size="10.00">twl:co&#45;issue&#45;phase3&#45;dispatch</text>
<text text-anchor="middle" x="1255.32" y="-135.54" font-family="Helvetica,sans-Serif" font-size="10.00">(673 tok)</text>
</g>
<!-- skill_co_issue&#45;&gt;skill_co_issue_phase3_dispatch -->
<g id="edge8" class="edge">
<title>skill_co_issue&#45;&gt;skill_co_issue_phase3_dispatch</title>
<path fill="none" stroke="black" d="M78.81,-199.72C100.22,-184.47 132.59,-163.74 164.07,-152.54 307.65,-101.45 351.04,-103.54 503.44,-103.54 503.44,-103.54 503.44,-103.54 720.66,-103.54 877.72,-103.54 1060.06,-120.98 1165.8,-132.83"/>
<polygon fill="black" stroke="black" points="1165.46,-136.31 1175.79,-133.95 1166.25,-129.35 1165.46,-136.31"/>
</g>
<!-- skill_co_issue_phase4_aggregate -->
<g id="node7" class="node">
<title>skill_co_issue_phase4_aggregate</title>
<polygon fill="#e1f5fe" stroke="black" points="1332.82,-103.54 1171.82,-103.54 1171.82,-67.54 1338.82,-67.54 1338.82,-97.54 1332.82,-103.54"/>
<polyline fill="none" stroke="black" points="1332.82,-103.54 1332.82,-97.54 "/>
<polyline fill="none" stroke="black" points="1338.82,-97.54 1332.82,-97.54 "/>
<text text-anchor="middle" x="1255.32" y="-88.54" font-family="Helvetica,sans-Serif" font-size="10.00">twl:co&#45;issue&#45;phase4&#45;aggregate</text>
<text text-anchor="middle" x="1255.32" y="-77.54" font-family="Helvetica,sans-Serif" font-size="10.00">(1,397 tok)</text>
</g>
<!-- skill_co_issue&#45;&gt;skill_co_issue_phase4_aggregate -->
<g id="edge9" class="edge">
<title>skill_co_issue&#45;&gt;skill_co_issue_phase4_aggregate</title>
<path fill="none" stroke="black" d="M66.7,-197.75C84.63,-170.35 120.18,-123 164.07,-100.54 299.4,-31.25 351.4,-57.54 503.44,-57.54 503.44,-57.54 503.44,-57.54 720.66,-57.54 875.47,-57.54 1055.2,-69.43 1161.59,-77.72"/>
<polygon fill="black" stroke="black" points="1161.41,-81.21 1171.66,-78.51 1161.96,-74.23 1161.41,-81.21"/>
</g>
<!-- skill_co_issue_cleanup -->
<g id="node8" class="node">
<title>skill_co_issue_cleanup</title>
<polygon fill="#e1f5fe" stroke="black" points="1307.82,-45.54 1196.82,-45.54 1196.82,-9.54 1313.82,-9.54 1313.82,-39.54 1307.82,-45.54"/>
<polyline fill="none" stroke="black" points="1307.82,-45.54 1307.82,-39.54 "/>
<polyline fill="none" stroke="black" points="1313.82,-39.54 1307.82,-39.54 "/>
<text text-anchor="middle" x="1255.32" y="-30.54" font-family="Helvetica,sans-Serif" font-size="10.00">twl:co&#45;issue&#45;cleanup</text>
<text text-anchor="middle" x="1255.32" y="-19.54" font-family="Helvetica,sans-Serif" font-size="10.00">(327 tok)</text>
</g>
<!-- skill_co_issue&#45;&gt;skill_co_issue_cleanup -->
<g id="edge10" class="edge">
<title>skill_co_issue&#45;&gt;skill_co_issue_cleanup</title>
<path fill="none" stroke="black" d="M60.86,-197.45C74.14,-160.25 107.21,-83.59 164.07,-48.54 293.22,31.09 351.71,-11.54 503.44,-11.54 503.44,-11.54 503.44,-11.54 720.66,-11.54 888.24,-11.54 1085.28,-19.52 1186.6,-24.2"/>
<polygon fill="black" stroke="black" points="1186.54,-27.7 1196.69,-24.67 1186.87,-20.71 1186.54,-27.7"/>
</g>
<!-- cmd_issue_glossary_check -->
<g id="node13" class="node">
<title>cmd_issue_glossary_check</title>
<polygon fill="#e3f2fd" stroke="black" points="563.94,-357.54 444.94,-357.54 444.94,-321.54 563.94,-321.54 563.94,-357.54"/>
<text text-anchor="middle" x="504.44" y="-342.54" font-family="Helvetica,sans-Serif" font-size="10.00">issue&#45;glossary&#45;check</text>
<text text-anchor="middle" x="504.44" y="-331.54" font-family="Helvetica,sans-Serif" font-size="10.00">(899 tok)</text>
</g>
<!-- skill_co_issue&#45;&gt;cmd_issue_glossary_check -->
<g id="edge1" class="edge">
<title>skill_co_issue&#45;&gt;cmd_issue_glossary_check</title>
<path fill="none" stroke="black" d="M72.53,-238.49C92.82,-258.94 127.41,-289.76 164.07,-304.54 252.56,-340.2 364.05,-344.84 434.57,-343.38"/>
<polygon fill="black" stroke="black" points="434.76,-346.87 444.66,-343.12 434.58,-339.88 434.76,-346.87"/>
</g>
<!-- script_issue_lifecycle_orchestrator -->
<g id="node30" class="node">
<title>script_issue_lifecycle_orchestrator</title>
<polygon fill="#ff9800" stroke="black" points="1113.8,-375.54 1052.57,-400.03 930.12,-400.03 868.9,-375.54 930.12,-351.05 1052.57,-351.05 1113.8,-375.54"/>
<text text-anchor="middle" x="991.35" y="-378.54" font-family="Helvetica,sans-Serif" font-size="10.00">issue&#45;lifecycle&#45;orchestrator</text>
<text text-anchor="middle" x="991.35" y="-367.54" font-family="Helvetica,sans-Serif" font-size="10.00">(8,667 tok)</text>
</g>
<!-- skill_co_issue&#45;&gt;script_issue_lifecycle_orchestrator -->
<g id="edge4" class="edge">
<title>skill_co_issue&#45;&gt;script_issue_lifecycle_orchestrator</title>
<path fill="none" stroke="black" d="M89.49,-234.18C110.71,-242.84 138.45,-252.96 164.07,-258.54 445.86,-319.91 530.49,-243.02 810.87,-310.54 838,-317.07 842.75,-324.74 868.87,-334.54 883.23,-339.92 898.66,-345.38 913.55,-350.48"/>
<polygon fill="black" stroke="black" points="912.64,-353.87 923.23,-353.78 914.89,-347.24 912.64,-353.87"/>
</g>
<!-- script_co_issue_manual_fix_b -->
<g id="node31" class="node">
<title>script_co_issue_manual_fix_b</title>
<polygon fill="#ff9800" stroke="black" points="1091.71,-259.54 1041.53,-284.03 941.17,-284.03 890.99,-259.54 941.17,-235.05 1041.53,-235.05 1091.71,-259.54"/>
<text text-anchor="middle" x="991.35" y="-262.54" font-family="Helvetica,sans-Serif" font-size="10.00">co&#45;issue&#45;manual&#45;fix&#45;b</text>
<text text-anchor="middle" x="991.35" y="-251.54" font-family="Helvetica,sans-Serif" font-size="10.00">(462 tok)</text>
</g>
<!-- skill_co_issue&#45;&gt;script_co_issue_manual_fix_b -->
<g id="edge5" class="edge">
<title>skill_co_issue&#45;&gt;script_co_issue_manual_fix_b</title>
<path fill="none" stroke="black" d="M105.6,-215.68C228.23,-209.59 546.78,-197.97 810.87,-224.54 844.79,-227.95 881.83,-234.65 913.41,-241.29"/>
<polygon fill="black" stroke="black" points="912.95,-244.77 923.46,-243.44 914.41,-237.93 912.95,-244.77"/>
</g>
<!-- skill_workflow_issue_lifecycle&#45;&gt;skill_workflow_issue_refine -->
<!-- cmd_issue_structure -->
<g id="node9" class="node">
<title>cmd_issue_structure</title>
<polygon fill="#e3f2fd" stroke="black" points="548.94,-843.54 459.94,-843.54 459.94,-807.54 548.94,-807.54 548.94,-843.54"/>
<text text-anchor="middle" x="504.44" y="-828.54" font-family="Helvetica,sans-Serif" font-size="10.00">issue&#45;structure</text>
<text text-anchor="middle" x="504.44" y="-817.54" font-family="Helvetica,sans-Serif" font-size="10.00">(1,406 tok)</text>
</g>
<!-- skill_workflow_issue_lifecycle&#45;&gt;cmd_issue_structure -->
<g id="edge11" class="edge">
<title>skill_workflow_issue_lifecycle&#45;&gt;cmd_issue_structure</title>
<path fill="none" stroke="black" d="M278.13,-476.96C292.54,-535.72 340.18,-701.32 438.44,-796.54 442.17,-800.15 446.43,-803.36 450.94,-806.2"/>
<polygon fill="black" stroke="black" points="449.43,-809.37 459.86,-811.22 452.86,-803.27 449.43,-809.37"/>
</g>
<!-- cmd_issue_create -->
<g id="node10" class="node">
<title>cmd_issue_create</title>
<polygon fill="#e3f2fd" stroke="black" points="542.94,-565.54 465.94,-565.54 465.94,-529.54 542.94,-529.54 542.94,-565.54"/>
<text text-anchor="middle" x="504.44" y="-550.54" font-family="Helvetica,sans-Serif" font-size="10.00">issue&#45;create</text>
<text text-anchor="middle" x="504.44" y="-539.54" font-family="Helvetica,sans-Serif" font-size="10.00">(1,192 tok)</text>
</g>
<!-- skill_workflow_issue_lifecycle&#45;&gt;cmd_issue_create -->
<g id="edge15" class="edge">
<title>skill_workflow_issue_lifecycle&#45;&gt;cmd_issue_create</title>
<path fill="none" stroke="black" d="M320.95,-474.6C360.52,-490.42 416.52,-512.79 456.02,-528.58"/>
<polygon fill="black" stroke="black" points="455.1,-531.98 465.68,-532.44 457.7,-525.48 455.1,-531.98"/>
</g>
<!-- cmd_issue_spec_review -->
<g id="node11" class="node">
<title>cmd_issue_spec_review</title>
<polygon fill="#bbdefb" stroke="black" points="556.94,-785.54 451.94,-785.54 451.94,-749.54 556.94,-749.54 556.94,-785.54"/>
<text text-anchor="middle" x="504.44" y="-770.54" font-family="Helvetica,sans-Serif" font-size="10.00">issue&#45;spec&#45;review</text>
<text text-anchor="middle" x="504.44" y="-759.54" font-family="Helvetica,sans-Serif" font-size="10.00">(1,870 tok)</text>
</g>
<!-- skill_workflow_issue_lifecycle&#45;&gt;cmd_issue_spec_review -->
<g id="edge12" class="edge">
<title>skill_workflow_issue_lifecycle&#45;&gt;cmd_issue_spec_review</title>
<path fill="none" stroke="black" d="M281.3,-476.87C301.12,-527.08 356.73,-654.33 438.44,-732.54 442.77,-736.68 447.69,-740.48 452.83,-743.92"/>
<polygon fill="black" stroke="black" points="451.3,-747.08 461.64,-749.37 454.98,-741.13 451.3,-747.08"/>
</g>
<!-- cmd_issue_review_aggregate -->
<g id="node12" class="node">
<title>cmd_issue_review_aggregate</title>
<polygon fill="#e3f2fd" stroke="black" points="570.44,-681.54 438.44,-681.54 438.44,-645.54 570.44,-645.54 570.44,-681.54"/>
<text text-anchor="middle" x="504.44" y="-666.54" font-family="Helvetica,sans-Serif" font-size="10.00">issue&#45;review&#45;aggregate</text>
<text text-anchor="middle" x="504.44" y="-655.54" font-family="Helvetica,sans-Serif" font-size="10.00">(1,157 tok)</text>
</g>
<!-- skill_workflow_issue_lifecycle&#45;&gt;cmd_issue_review_aggregate -->
<g id="edge13" class="edge">
<title>skill_workflow_issue_lifecycle&#45;&gt;cmd_issue_review_aggregate</title>
<path fill="none" stroke="black" d="M288.14,-476.61C314.73,-512.97 373.69,-588.05 438.44,-634.54 441.43,-636.68 444.6,-638.72 447.87,-640.64"/>
<polygon fill="black" stroke="black" points="446.25,-643.75 456.7,-645.48 449.61,-637.61 446.25,-643.75"/>
</g>
<!-- cmd_issue_arch_drift -->
<g id="node14" class="node">
<title>cmd_issue_arch_drift</title>
<polygon fill="#e3f2fd" stroke="black" points="549.44,-623.54 459.44,-623.54 459.44,-587.54 549.44,-587.54 549.44,-623.54"/>
<text text-anchor="middle" x="504.44" y="-608.54" font-family="Helvetica,sans-Serif" font-size="10.00">issue&#45;arch&#45;drift</text>
<text text-anchor="middle" x="504.44" y="-597.54" font-family="Helvetica,sans-Serif" font-size="10.00">(1,079 tok)</text>
</g>
<!-- skill_workflow_issue_lifecycle&#45;&gt;cmd_issue_arch_drift -->
<g id="edge14" class="edge">
<title>skill_workflow_issue_lifecycle&#45;&gt;cmd_issue_arch_drift</title>
<path fill="none" stroke="black" d="M297.86,-476.15C329.17,-501.77 385.56,-545.84 438.44,-576.54 442.27,-578.76 446.3,-580.93 450.41,-583.02"/>
<polygon fill="black" stroke="black" points="448.93,-586.19 459.45,-587.44 452,-579.9 448.93,-586.19"/>
</g>
<!-- cmd_project_board_sync -->
<g id="node15" class="node">
<title>cmd_project_board_sync</title>
<polygon fill="#e3f2fd" stroke="black" points="558.44,-507.54 450.44,-507.54 450.44,-471.54 558.44,-471.54 558.44,-507.54"/>
<text text-anchor="middle" x="504.44" y="-492.54" font-family="Helvetica,sans-Serif" font-size="10.00">project&#45;board&#45;sync</text>
<text text-anchor="middle" x="504.44" y="-481.54" font-family="Helvetica,sans-Serif" font-size="10.00">(1,184 tok)</text>
</g>
<!-- skill_workflow_issue_lifecycle&#45;&gt;cmd_project_board_sync -->
<g id="edge16" class="edge">
<title>skill_workflow_issue_lifecycle&#45;&gt;cmd_project_board_sync</title>
<path fill="none" stroke="black" d="M359.29,-468.24C386.12,-472.21 415.19,-476.5 440.16,-480.19"/>
<polygon fill="black" stroke="black" points="439.83,-483.68 450.23,-481.68 440.85,-476.75 439.83,-483.68"/>
</g>
<!-- script_spec_review_session_init -->
<g id="node29" class="node">
<title>script_spec_review_session_init</title>
<polygon fill="#ff9800" stroke="black" points="1102.44,-546.54 1046.89,-571.03 935.81,-571.03 880.26,-546.54 935.81,-522.05 1046.89,-522.05 1102.44,-546.54"/>
<text text-anchor="middle" x="991.35" y="-549.54" font-family="Helvetica,sans-Serif" font-size="10.00">spec&#45;review&#45;session&#45;init</text>
<text text-anchor="middle" x="991.35" y="-538.54" font-family="Helvetica,sans-Serif" font-size="10.00">(501 tok)</text>
</g>
<!-- skill_workflow_issue_lifecycle&#45;&gt;script_spec_review_session_init -->
<g id="edge17" class="edge">
<title>skill_workflow_issue_lifecycle&#45;&gt;script_spec_review_session_init</title>
<path fill="none" stroke="black" d="M280.34,-476.83C297.95,-525.79 348.85,-645.77 438.44,-692.54 614.78,-784.57 853.83,-642.57 948.89,-576.92"/>
<polygon fill="black" stroke="black" points="950.9,-579.79 957.1,-571.19 946.89,-574.05 950.9,-579.79"/>
</g>
<!-- skill_workflow_issue_refine&#45;&gt;cmd_issue_spec_review -->
<g id="edge18" class="edge">
<title>skill_workflow_issue_refine&#45;&gt;cmd_issue_spec_review</title>
<path fill="none" stroke="black" d="M351.89,-404.16C362.6,-408.79 372.59,-415.05 380.44,-423.54 463.5,-513.31 383.79,-583.12 438.44,-692.54 447.73,-711.13 462.7,-728.86 475.94,-742.41"/>
<polygon fill="black" stroke="black" points="473.5,-744.92 483.06,-749.48 478.43,-739.95 473.5,-744.92"/>
</g>
<!-- skill_workflow_issue_refine&#45;&gt;cmd_issue_review_aggregate -->
<g id="edge19" class="edge">
<title>skill_workflow_issue_refine&#45;&gt;cmd_issue_review_aggregate</title>
<path fill="none" stroke="black" d="M351.21,-404.44C362.07,-409.02 372.29,-415.21 380.44,-423.54 448.46,-493.05 375.07,-560.76 438.44,-634.54 439.91,-636.25 441.51,-637.87 443.2,-639.39"/>
<polygon fill="black" stroke="black" points="441.08,-642.18 451.14,-645.51 445.35,-636.63 441.08,-642.18"/>
</g>
<!-- skill_workflow_issue_refine&#45;&gt;cmd_issue_arch_drift -->
<g id="edge20" class="edge">
<title>skill_workflow_issue_refine&#45;&gt;cmd_issue_arch_drift</title>
<path fill="none" stroke="black" d="M349.71,-404.79C360.97,-409.33 371.7,-415.4 380.44,-423.54 433.69,-473.07 388.51,-523.66 438.44,-576.54 442.01,-580.31 446.16,-583.63 450.6,-586.54"/>
<polygon fill="black" stroke="black" points="449.02,-589.67 459.43,-591.64 452.52,-583.61 449.02,-589.67"/>
</g>
<!-- skill_workflow_issue_refine&#45;&gt;script_spec_review_session_init -->
<g id="edge21" class="edge">
<title>skill_workflow_issue_refine&#45;&gt;script_spec_review_session_init</title>
<path fill="none" stroke="black" d="M348.34,-405.2C452.54,-424.48 646.7,-461.58 810.87,-499.54 844.29,-507.26 880.95,-516.69 912.39,-525.07"/>
<polygon fill="black" stroke="black" points="911.83,-528.54 922.4,-527.75 913.64,-521.78 911.83,-528.54"/>
</g>
<!-- skill_workflow_issue_refine&#45;&gt;script_issue_lifecycle_orchestrator -->
<!-- skill_co_issue_step0_5_modes&#45;&gt;skill_co_issue_phase2_bundles -->
<!-- skill_co_issue_phase2_bundles&#45;&gt;skill_co_issue_phase3_dispatch -->
<!-- skill_co_issue_phase3_dispatch&#45;&gt;skill_co_issue_phase4_aggregate -->
<!-- skill_co_issue_phase4_aggregate&#45;&gt;skill_co_issue_cleanup -->
<!-- cmd_issue_structure&#45;&gt;cmd_issue_spec_review -->
<!-- cmd_issue_create&#45;&gt;cmd_project_board_sync -->
<!-- cmd_issue_spec_review&#45;&gt;cmd_issue_review_aggregate -->
<!-- cmd_issue_spec_review&#45;&gt;cmd_issue_review_aggregate -->
<!-- agent_issue_critic -->
<g id="node16" class="node">
<title>agent_issue_critic</title>
<ellipse fill="#ede7f6" stroke="black" cx="719.66" cy="-919.54" rx="49.49" ry="21.43"/>
<text text-anchor="middle" x="719.66" y="-922.54" font-family="Helvetica,sans-Serif" font-size="10.00">issue&#45;critic</text>
<text text-anchor="middle" x="719.66" y="-911.54" font-family="Helvetica,sans-Serif" font-size="10.00">(1,268 tok)</text>
</g>
<!-- cmd_issue_spec_review&#45;&gt;agent_issue_critic -->
<g id="edge22" class="edge">
<title>cmd_issue_spec_review&#45;&gt;agent_issue_critic</title>
<path fill="none" stroke="black" stroke-dasharray="5,2" d="M554.55,-785.62C560.22,-788.79 565.67,-792.42 570.44,-796.54 606.77,-827.85 590.91,-857.67 628.44,-887.54 639.11,-896.03 652.22,-902.36 665.1,-907.05"/>
<polygon fill="black" stroke="black" points="664.26,-910.47 674.86,-910.33 666.49,-903.83 664.26,-910.47"/>
</g>
<!-- agent_issue_feasibility -->
<g id="node17" class="node">
<title>agent_issue_feasibility</title>
<ellipse fill="#ede7f6" stroke="black" cx="719.66" cy="-855.54" rx="67.35" ry="21.43"/>
<text text-anchor="middle" x="719.66" y="-858.54" font-family="Helvetica,sans-Serif" font-size="10.00">issue&#45;feasibility</text>
<text text-anchor="middle" x="719.66" y="-847.54" font-family="Helvetica,sans-Serif" font-size="10.00">(1,175 tok)</text>
</g>
<!-- cmd_issue_spec_review&#45;&gt;agent_issue_feasibility -->
<g id="edge23" class="edge">
<title>cmd_issue_spec_review&#45;&gt;agent_issue_feasibility</title>
<path fill="none" stroke="black" stroke-dasharray="5,2" d="M546.4,-785.69C554.38,-789.26 562.68,-793 570.44,-796.54 596.31,-808.33 602.12,-812.77 628.44,-823.54 639.62,-828.11 651.72,-832.66 663.31,-836.84"/>
<polygon fill="black" stroke="black" points="662.31,-840.2 672.91,-840.25 664.66,-833.6 662.31,-840.2"/>
</g>
<!-- agent_worker_codex_reviewer -->
<g id="node18" class="node">
<title>agent_worker_codex_reviewer</title>
<ellipse fill="#ede7f6" stroke="black" cx="719.66" cy="-791.54" rx="91.43" ry="21.43"/>
<text text-anchor="middle" x="719.66" y="-794.54" font-family="Helvetica,sans-Serif" font-size="10.00">worker&#45;codex&#45;reviewer</text>
<text text-anchor="middle" x="719.66" y="-783.54" font-family="Helvetica,sans-Serif" font-size="10.00">(1,841 tok)</text>
</g>
<!-- cmd_issue_spec_review&#45;&gt;agent_worker_codex_reviewer -->
<g id="edge24" class="edge">
<title>cmd_issue_spec_review&#45;&gt;agent_worker_codex_reviewer</title>
<path fill="none" stroke="black" stroke-dasharray="5,2" d="M557.05,-773.35C578.08,-775.71 603.04,-778.52 626.98,-781.22"/>
<polygon fill="black" stroke="black" points="626.83,-784.72 637.16,-782.36 627.61,-777.77 626.83,-784.72"/>
</g>
<!-- script_escape_issue_body -->
<g id="node27" class="node">
<title>script_escape_issue_body</title>
<polygon fill="#ff9800" stroke="black" points="1079.71,-791.54 1035.53,-816.03 947.17,-816.03 902.99,-791.54 947.17,-767.05 1035.53,-767.05 1079.71,-791.54"/>
<text text-anchor="middle" x="991.35" y="-794.54" font-family="Helvetica,sans-Serif" font-size="10.00">escape&#45;issue&#45;body</text>
<text text-anchor="middle" x="991.35" y="-783.54" font-family="Helvetica,sans-Serif" font-size="10.00">(63 tok)</text>
</g>
<!-- cmd_issue_spec_review&#45;&gt;script_escape_issue_body -->
<g id="edge25" class="edge">
<title>cmd_issue_spec_review&#45;&gt;script_escape_issue_body</title>
<path fill="none" stroke="black" d="M557.04,-785.7C561.95,-788.8 566.55,-792.39 570.44,-796.54 620.83,-850.12 568,-909.62 628.44,-951.54 695.07,-997.74 742.47,-995.06 810.87,-951.54 862.21,-918.88 822.76,-867.23 868.87,-827.54 880.84,-817.24 895.65,-809.88 910.76,-804.63"/>
<polygon fill="black" stroke="black" points="912.23,-807.84 920.71,-801.47 910.12,-801.16 912.23,-807.84"/>
</g>
<!-- script_spec_review_manifest -->
<g id="node28" class="node">
<title>script_spec_review_manifest</title>
<polygon fill="#ff9800" stroke="black" points="1091.71,-720.54 1041.53,-745.03 941.17,-745.03 890.99,-720.54 941.17,-696.05 1041.53,-696.05 1091.71,-720.54"/>
<text text-anchor="middle" x="991.35" y="-723.54" font-family="Helvetica,sans-Serif" font-size="10.00">spec&#45;review&#45;manifest</text>
<text text-anchor="middle" x="991.35" y="-712.54" font-family="Helvetica,sans-Serif" font-size="10.00">(169 tok)</text>
</g>
<!-- cmd_issue_spec_review&#45;&gt;script_spec_review_manifest -->
<g id="edge26" class="edge">
<title>cmd_issue_spec_review&#45;&gt;script_spec_review_manifest</title>
<path fill="none" stroke="black" d="M557.33,-762.51C638.35,-754.65 796.07,-739.37 897.14,-729.57"/>
<polygon fill="black" stroke="black" points="897.74,-733.03 907.35,-728.58 897.06,-726.06 897.74,-733.03"/>
</g>
<!-- cmd_issue_review_aggregate&#45;&gt;cmd_issue_arch_drift -->
<!-- cmd_issue_review_aggregate&#45;&gt;cmd_issue_arch_drift -->
<!-- cmd_issue_glossary_check&#45;&gt;skill_workflow_issue_lifecycle -->
<!-- skill_ref_glossary_criteria -->
<g id="node32" class="node">
<title>skill_ref_glossary_criteria</title>
<ellipse fill="none" stroke="black" cx="719.66" cy="-339.54" rx="83.68" ry="18"/>
<text text-anchor="middle" x="719.66" y="-337.04" font-family="Helvetica,sans-Serif" font-size="10.00">skill_ref_glossary_criteria</text>
</g>
<!-- cmd_issue_glossary_check&#45;&gt;skill_ref_glossary_criteria -->
<g id="edge27" class="edge">
<title>cmd_issue_glossary_check&#45;&gt;skill_ref_glossary_criteria</title>
<path fill="none" stroke="black" d="M563.99,-339.54C583.06,-339.54 604.72,-339.54 625.67,-339.54"/>
<polygon fill="black" stroke="black" points="625.89,-343.04 635.89,-339.54 625.89,-336.04 625.89,-343.04"/>
</g>
<!-- cmd_issue_arch_drift&#45;&gt;cmd_issue_create -->
<!-- cmd_issue_arch_drift&#45;&gt;script_spec_review_session_init -->
<!-- cmd_project_board_sync&#45;&gt;script_spec_review_session_init -->
<!-- agent_issue_critic&#45;&gt;agent_issue_feasibility -->
<!-- agent_issue_feasibility&#45;&gt;agent_worker_codex_reviewer -->
<!-- agent_worker_codex_reviewer&#45;&gt;script_escape_issue_body -->
<!-- script_state_read -->
<g id="node19" class="node">
<title>script_state_read</title>
<polygon fill="#ff9800" stroke="black" points="1048.66,-933.54 1020,-958.03 962.69,-958.03 934.04,-933.54 962.69,-909.05 1020,-909.05 1048.66,-933.54"/>
<text text-anchor="middle" x="991.35" y="-936.54" font-family="Helvetica,sans-Serif" font-size="10.00">state&#45;read</text>
<text text-anchor="middle" x="991.35" y="-925.54" font-family="Helvetica,sans-Serif" font-size="10.00">(5,796 tok)</text>
</g>
<!-- script_state_write -->
<g id="node20" class="node">
<title>script_state_write</title>
<polygon fill="#ff9800" stroke="black" points="1048.66,-862.54 1020,-887.03 962.69,-887.03 934.04,-862.54 962.69,-838.05 1020,-838.05 1048.66,-862.54"/>
<text text-anchor="middle" x="991.35" y="-865.54" font-family="Helvetica,sans-Serif" font-size="10.00">state&#45;write</text>
<text text-anchor="middle" x="991.35" y="-854.54" font-family="Helvetica,sans-Serif" font-size="10.00">(5,796 tok)</text>
</g>
<!-- script_state_read&#45;&gt;script_state_write -->
<!-- script_state_read&#45;&gt;script_state_write -->
<!-- script_state_read&#45;&gt;script_state_write -->
<!-- script_state_read&#45;&gt;script_state_write -->
<!-- script_chain_runner -->
<g id="node21" class="node">
<title>script_chain_runner</title>
<polygon fill="#ff9800" stroke="black" points="1055.22,-1004.54 1023.29,-1029.03 959.41,-1029.03 927.47,-1004.54 959.41,-980.05 1023.29,-980.05 1055.22,-1004.54"/>
<text text-anchor="middle" x="991.35" y="-1007.54" font-family="Helvetica,sans-Serif" font-size="10.00">chain&#45;runner</text>
<text text-anchor="middle" x="991.35" y="-996.54" font-family="Helvetica,sans-Serif" font-size="10.00">(9,633 tok)</text>
</g>
<!-- script_worker_terminal_guard -->
<g id="node22" class="node">
<title>script_worker_terminal_guard</title>
<polygon fill="#ff9800" stroke="black" points="1094.11,-1075.54 1042.73,-1100.03 939.97,-1100.03 888.59,-1075.54 939.97,-1051.05 1042.73,-1051.05 1094.11,-1075.54"/>
<text text-anchor="middle" x="991.35" y="-1078.54" font-family="Helvetica,sans-Serif" font-size="10.00">worker&#45;terminal&#45;guard</text>
<text text-anchor="middle" x="991.35" y="-1067.54" font-family="Helvetica,sans-Serif" font-size="10.00">(770 tok)</text>
</g>
<!-- script_worktree_create -->
<g id="node23" class="node">
<title>script_worktree_create</title>
<polygon fill="#ff9800" stroke="black" points="1068.98,-1146.54 1030.17,-1171.03 952.53,-1171.03 913.71,-1146.54 952.53,-1122.05 1030.17,-1122.05 1068.98,-1146.54"/>
<text text-anchor="middle" x="991.35" y="-1149.54" font-family="Helvetica,sans-Serif" font-size="10.00">worktree&#45;create</text>
<text text-anchor="middle" x="991.35" y="-1138.54" font-family="Helvetica,sans-Serif" font-size="10.00">(6,686 tok)</text>
</g>
<!-- script_autopilot_github -->
<g id="node24" class="node">
<title>script_autopilot_github</title>
<polygon fill="#ff9800" stroke="black" points="1068.98,-1217.54 1030.17,-1242.03 952.53,-1242.03 913.71,-1217.54 952.53,-1193.05 1030.17,-1193.05 1068.98,-1217.54"/>
<text text-anchor="middle" x="991.35" y="-1220.54" font-family="Helvetica,sans-Serif" font-size="10.00">autopilot&#45;github</text>
<text text-anchor="middle" x="991.35" y="-1209.54" font-family="Helvetica,sans-Serif" font-size="10.00">(3,666 tok)</text>
</g>
<!-- script_chain_steps -->
<g id="node25" class="node">
<title>script_chain_steps</title>
<polygon fill="#ff9800" stroke="black" points="1051.06,-1288.54 1021.2,-1313.03 961.49,-1313.03 931.64,-1288.54 961.49,-1264.05 1021.2,-1264.05 1051.06,-1288.54"/>
<text text-anchor="middle" x="991.35" y="-1291.54" font-family="Helvetica,sans-Serif" font-size="10.00">chain&#45;steps</text>
<text text-anchor="middle" x="991.35" y="-1280.54" font-family="Helvetica,sans-Serif" font-size="10.00">(9,633 tok)</text>
</g>
<!-- script_resolve_issue_num -->
<g id="node26" class="node">
<title>script_resolve_issue_num</title>
<polygon fill="#ff9800" stroke="black" points="1078.58,-1359.54 1034.96,-1384.03 947.73,-1384.03 904.12,-1359.54 947.73,-1335.05 1034.96,-1335.05 1078.58,-1359.54"/>
<text text-anchor="middle" x="991.35" y="-1362.54" font-family="Helvetica,sans-Serif" font-size="10.00">resolve&#45;issue&#45;num</text>
<text text-anchor="middle" x="991.35" y="-1351.54" font-family="Helvetica,sans-Serif" font-size="10.00">(716 tok)</text>
</g>
<!-- script_escape_issue_body&#45;&gt;script_spec_review_manifest -->
<!-- script_issue_lifecycle_orchestrator&#45;&gt;script_co_issue_manual_fix_b -->
<!-- script_co_issue_manual_fix_b&#45;&gt;skill_co_issue_step0_5_modes -->
</g>
</svg>
