<?xml version="1.0" encoding="UTF-8" standalone="no"?>
<!DOCTYPE svg PUBLIC "-//W3C//DTD SVG 1.1//EN"
 "http://www.w3.org/Graphics/SVG/1.1/DTD/svg11.dtd">
<!-- Generated by graphviz version 2.43.0 (0)
 -->
<!-- Title: Dependencies Pages: 1 -->
<svg width="729pt" height="420pt"
 viewBox="0.00 0.00 728.94 419.79" xmlns="http://www.w3.org/2000/svg" xmlns:xlink="http://www.w3.org/1999/xlink">
<g id="graph0" class="graph" transform="scale(1 1) rotate(0) translate(4 415.79)">
<title>Dependencies</title>
<polygon fill="white" stroke="transparent" points="-4,4 -4,-415.79 724.94,-415.79 724.94,4 -4,4"/>
<text text-anchor="middle" x="360.47" y="-396.59" font-family="Helvetica,sans-Serif" font-size="14.00">co&#45;architect</text>
<!-- skill_co_architect -->
<g id="node1" class="node">
<title>skill_co_architect</title>
<ellipse fill="#c8e6c9" stroke="black" cx="58.69" cy="-167.79" rx="58.88" ry="21.43"/>
<text text-anchor="middle" x="58.69" y="-170.79" font-family="Helvetica,sans-Serif" font-size="10.00">twl:co&#45;architect</text>
<text text-anchor="middle" x="58.69" y="-159.79" font-family="Helvetica,sans-Serif" font-size="10.00">(1,293 tok)</text>
</g>
<!-- cmd_architect_completeness_check -->
<g id="node2" class="node">
<title>cmd_architect_completeness_check</title>
<polygon fill="#e3f2fd" stroke="black" points="322.38,-330.79 175.38,-330.79 175.38,-294.79 322.38,-294.79 322.38,-330.79"/>
<text text-anchor="middle" x="248.88" y="-315.79" font-family="Helvetica,sans-Serif" font-size="10.00">architect&#45;completeness&#45;check</text>
<text text-anchor="middle" x="248.88" y="-304.79" font-family="Helvetica,sans-Serif" font-size="10.00">(653 tok)</text>
</g>
<!-- skill_co_architect&#45;&gt;cmd_architect_completeness_check -->
<g id="edge2" class="edge">
<title>skill_co_architect&#45;&gt;cmd_architect_completeness_check</title>
<path fill="none" stroke="black" d="M75.7,-188.35C96.37,-213.73 134.56,-256.83 175.38,-283.79 178.72,-285.99 182.26,-288.07 185.89,-290.03"/>
<polygon fill="black" stroke="black" points="184.6,-293.3 195.11,-294.65 187.73,-287.04 184.6,-293.3"/>
</g>
<!-- cmd_architect_decompose -->
<g id="node3" class="node">
<title>cmd_architect_decompose</title>
<polygon fill="#e3f2fd" stroke="black" points="302.38,-272.79 195.38,-272.79 195.38,-236.79 302.38,-236.79 302.38,-272.79"/>
<text text-anchor="middle" x="248.88" y="-257.79" font-family="Helvetica,sans-Serif" font-size="10.00">architect&#45;decompose</text>
<text text-anchor="middle" x="248.88" y="-246.79" font-family="Helvetica,sans-Serif" font-size="10.00">(1,056 tok)</text>
</g>
<!-- skill_co_architect&#45;&gt;cmd_architect_decompose -->
<g id="edge3" class="edge">
<title>skill_co_architect&#45;&gt;cmd_architect_decompose</title>
<path fill="none" stroke="black" d="M92.75,-185.29C115.69,-197.21 147.1,-213.07 175.38,-225.79 180.61,-228.14 186.09,-230.5 191.59,-232.81"/>
<polygon fill="black" stroke="black" points="190.26,-236.05 200.84,-236.64 192.93,-229.58 190.26,-236.05"/>
</g>
<!-- cmd_architect_group_refine -->
<g id="node4" class="node">
<title>cmd_architect_group_refine</title>
<polygon fill="#e3f2fd" stroke="black" points="302.88,-214.79 194.88,-214.79 194.88,-178.79 302.88,-178.79 302.88,-214.79"/>
<text text-anchor="middle" x="248.88" y="-199.79" font-family="Helvetica,sans-Serif" font-size="10.00">architect&#45;group&#45;refine</text>
<text text-anchor="middle" x="248.88" y="-188.79" font-family="Helvetica,sans-Serif" font-size="10.00">(1,084 tok)</text>
</g>
<!-- skill_co_architect&#45;&gt;cmd_architect_group_refine -->
<g id="edge4" class="edge">
<title>skill_co_architect&#45;&gt;cmd_architect_group_refine</title>
<path fill="none" stroke="black" d="M112.86,-175.98C135.21,-179.42 161.38,-183.45 184.69,-187.05"/>
<polygon fill="black" stroke="black" points="184.42,-190.55 194.84,-188.61 185.49,-183.63 184.42,-190.55"/>
</g>
<!-- cmd_architect_issue_create -->
<g id="node5" class="node">
<title>cmd_architect_issue_create</title>
<polygon fill="#e3f2fd" stroke="black" points="303.88,-156.79 193.88,-156.79 193.88,-120.79 303.88,-120.79 303.88,-156.79"/>
<text text-anchor="middle" x="248.88" y="-141.79" font-family="Helvetica,sans-Serif" font-size="10.00">architect&#45;issue&#45;create</text>
<text text-anchor="middle" x="248.88" y="-130.79" font-family="Helvetica,sans-Serif" font-size="10.00">(2,352 tok)</text>
</g>
<!-- skill_co_architect&#45;&gt;cmd_architect_issue_create -->
<g id="edge5" class="edge">
<title>skill_co_architect&#45;&gt;cmd_architect_issue_create</title>
<path fill="none" stroke="black" d="M112.86,-159.59C134.92,-156.19 160.71,-152.22 183.8,-148.66"/>
<polygon fill="black" stroke="black" points="184.51,-152.09 193.86,-147.11 183.44,-145.17 184.51,-152.09"/>
</g>
<!-- cmd_evaluate_architecture -->
<g id="node6" class="node">
<title>cmd_evaluate_architecture</title>
<polygon fill="#e3f2fd" stroke="black" points="302.38,-98.79 195.38,-98.79 195.38,-62.79 302.38,-62.79 302.38,-98.79"/>
<text text-anchor="middle" x="248.88" y="-83.79" font-family="Helvetica,sans-Serif" font-size="10.00">evaluate&#45;architecture</text>
<text text-anchor="middle" x="248.88" y="-72.79" font-family="Helvetica,sans-Serif" font-size="10.00">(796 tok)</text>
</g>
<!-- skill_co_architect&#45;&gt;cmd_evaluate_architecture -->
<g id="edge6" class="edge">
<title>skill_co_architect&#45;&gt;cmd_evaluate_architecture</title>
<path fill="none" stroke="black" d="M92.75,-150.28C115.69,-138.36 147.1,-122.5 175.38,-109.79 180.61,-107.43 186.09,-105.07 191.59,-102.76"/>
<polygon fill="black" stroke="black" points="192.93,-105.99 200.84,-98.93 190.26,-99.52 192.93,-105.99"/>
</g>
<!-- cmd_explore -->
<g id="node7" class="node">
<title>cmd_explore</title>
<polygon fill="#e3f2fd" stroke="black" points="280.38,-388.79 217.38,-388.79 217.38,-352.79 280.38,-352.79 280.38,-388.79"/>
<text text-anchor="middle" x="248.88" y="-373.79" font-family="Helvetica,sans-Serif" font-size="10.00">explore</text>
<text text-anchor="middle" x="248.88" y="-362.79" font-family="Helvetica,sans-Serif" font-size="10.00">(1,490 tok)</text>
</g>
<!-- skill_co_architect&#45;&gt;cmd_explore -->
<g id="edge1" class="edge">
<title>skill_co_architect&#45;&gt;cmd_explore</title>
<path fill="none" stroke="black" d="M68.51,-188.7C84.67,-224.71 122.31,-298.67 175.38,-341.79 184.74,-349.39 196.35,-355.21 207.51,-359.57"/>
<polygon fill="black" stroke="black" points="206.54,-362.94 217.14,-363.03 208.91,-356.35 206.54,-362.94"/>
</g>
<!-- skill_ref_architecture_spec -->
<g id="node8" class="node">
<title>skill_ref_architecture_spec</title>
<ellipse fill="none" stroke="black" cx="458.67" cy="-80.79" rx="78.08" ry="18"/>
<text text-anchor="middle" x="458.67" y="-78.29" font-family="Helvetica,sans-Serif" font-size="10.00">skill_ref_architecture_spec</text>
</g>
<!-- skill_co_architect&#45;&gt;skill_ref_architecture_spec -->
<g id="edge7" class="edge">
<title>skill_co_architect&#45;&gt;skill_ref_architecture_spec</title>
<path fill="none" stroke="black" d="M72.66,-146.98C91.38,-119.15 128.88,-71.08 175.38,-51.79 252.38,-19.83 350.92,-42.79 408.88,-62.03"/>
<polygon fill="black" stroke="black" points="407.93,-65.4 418.53,-65.32 410.19,-58.78 407.93,-65.4"/>
</g>
<!-- skill_ref_architecture -->
<g id="node9" class="node">
<title>skill_ref_architecture</title>
<ellipse fill="none" stroke="black" cx="657.95" cy="-80.79" rx="62.97" ry="18"/>
<text text-anchor="middle" x="657.95" y="-78.29" font-family="Helvetica,sans-Serif" font-size="10.00">skill_ref_architecture</text>
</g>
<!-- skill_co_architect&#45;&gt;skill_ref_architecture -->
<g id="edge8" class="edge">
<title>skill_co_architect&#45;&gt;skill_ref_architecture</title>
<path fill="none" stroke="black" d="M69.8,-146.83C86.59,-114.8 123.57,-54.85 175.38,-30.79 324.18,38.32 526.02,-27.02 613.52,-61.96"/>
<polygon fill="black" stroke="black" points="612.29,-65.24 622.87,-65.75 614.92,-58.75 612.29,-65.24"/>
</g>
<!-- cmd_architect_completeness_check&#45;&gt;cmd_architect_decompose -->
<!-- cmd_architect_decompose&#45;&gt;cmd_architect_group_refine -->
<!-- cmd_architect_group_refine&#45;&gt;cmd_architect_issue_create -->
<!-- cmd_architect_issue_create&#45;&gt;cmd_evaluate_architecture -->
<!-- cmd_evaluate_architecture&#45;&gt;skill_ref_architecture_spec -->
<!-- cmd_explore&#45;&gt;cmd_architect_completeness_check -->
<!-- skill_ref_architecture_spec&#45;&gt;skill_ref_architecture -->
</g>
</svg>
