<?xml version="1.0" encoding="UTF-8" standalone="no"?>
<!DOCTYPE svg PUBLIC "-//W3C//DTD SVG 1.1//EN"
 "http://www.w3.org/Graphics/SVG/1.1/DTD/svg11.dtd">
<!-- Generated by graphviz version 2.43.0 (0)
 -->
<!-- Title: Dependencies Pages: 1 -->
<svg width="1069pt" height="1607pt"
 viewBox="0.00 0.00 1069.19 1607.34" xmlns="http://www.w3.org/2000/svg" xmlns:xlink="http://www.w3.org/1999/xlink">
<g id="graph0" class="graph" transform="scale(1 1) rotate(0) translate(4 1603.34)">
<title>Dependencies</title>
<polygon fill="white" stroke="transparent" points="-4,4 -4,-1603.34 1065.19,-1603.34 1065.19,4 -4,4"/>
<text text-anchor="middle" x="530.59" y="-1584.14" font-family="Helvetica,sans-Serif" font-size="14.00">workflow&#45;pr&#45;verify</text>
<!-- skill_workflow_pr_verify -->
<g id="node1" class="node">
<title>skill_workflow_pr_verify</title>
<ellipse fill="#e8f5e9" stroke="black" cx="77.78" cy="-773.84" rx="77.56" ry="21.43"/>
<text text-anchor="middle" x="77.78" y="-776.84" font-family="Helvetica,sans-Serif" font-size="10.00">twl:workflow&#45;pr&#45;verify</text>
<text text-anchor="middle" x="77.78" y="-765.84" font-family="Helvetica,sans-Serif" font-size="10.00">(840 tok)</text>
</g>
<!-- cmd_ts_preflight -->
<g id="node6" class="node">
<title>cmd_ts_preflight</title>
<polygon fill="#e3f2fd" stroke="black" points="289.06,-849.84 227.06,-849.84 227.06,-813.84 289.06,-813.84 289.06,-849.84"/>
<text text-anchor="middle" x="258.06" y="-834.84" font-family="Helvetica,sans-Serif" font-size="10.00">ts&#45;preflight</text>
<text text-anchor="middle" x="258.06" y="-823.84" font-family="Helvetica,sans-Serif" font-size="10.00">(349 tok)</text>
</g>
<!-- skill_workflow_pr_verify&#45;&gt;cmd_ts_preflight -->
<g id="edge3" class="edge">
<title>skill_workflow_pr_verify&#45;&gt;cmd_ts_preflight</title>
<path fill="none" stroke="black" d="M128.44,-790C156.49,-799.13 191.07,-810.38 217.31,-818.91"/>
<polygon fill="black" stroke="black" points="216.34,-822.28 226.93,-822.04 218.5,-815.62 216.34,-822.28"/>
</g>
<!-- cmd_scope_judge -->
<g id="node7" class="node">
<title>cmd_scope_judge</title>
<polygon fill="#e3f2fd" stroke="black" points="292.56,-733.84 223.56,-733.84 223.56,-697.84 292.56,-697.84 292.56,-733.84"/>
<text text-anchor="middle" x="258.06" y="-718.84" font-family="Helvetica,sans-Serif" font-size="10.00">scope&#45;judge</text>
<text text-anchor="middle" x="258.06" y="-707.84" font-family="Helvetica,sans-Serif" font-size="10.00">(394 tok)</text>
</g>
<!-- skill_workflow_pr_verify&#45;&gt;cmd_scope_judge -->
<g id="edge5" class="edge">
<title>skill_workflow_pr_verify&#45;&gt;cmd_scope_judge</title>
<path fill="none" stroke="black" d="M128.44,-757.69C155.18,-748.99 187.87,-738.36 213.59,-729.99"/>
<polygon fill="black" stroke="black" points="215.02,-733.2 223.44,-726.78 212.85,-726.55 215.02,-733.2"/>
</g>
<!-- cmd_pr_test -->
<g id="node8" class="node">
<title>cmd_pr_test</title>
<polygon fill="#e3f2fd" stroke="black" points="285.56,-675.84 230.56,-675.84 230.56,-639.84 285.56,-639.84 285.56,-675.84"/>
<text text-anchor="middle" x="258.06" y="-660.84" font-family="Helvetica,sans-Serif" font-size="10.00">pr&#45;test</text>
<text text-anchor="middle" x="258.06" y="-649.84" font-family="Helvetica,sans-Serif" font-size="10.00">(359 tok)</text>
</g>
<!-- skill_workflow_pr_verify&#45;&gt;cmd_pr_test -->
<g id="edge6" class="edge">
<title>skill_workflow_pr_verify&#45;&gt;cmd_pr_test</title>
<path fill="none" stroke="black" d="M109.02,-754.17C140.3,-733.81 189.1,-702.07 222.04,-680.64"/>
<polygon fill="black" stroke="black" points="223.99,-683.54 230.46,-675.15 220.17,-677.67 223.99,-683.54"/>
</g>
<!-- cmd_ac_verify -->
<g id="node9" class="node">
<title>cmd_ac_verify</title>
<polygon fill="#e3f2fd" stroke="black" points="285.56,-907.84 230.56,-907.84 230.56,-871.84 285.56,-871.84 285.56,-907.84"/>
<text text-anchor="middle" x="258.06" y="-892.84" font-family="Helvetica,sans-Serif" font-size="10.00">ac&#45;verify</text>
<text text-anchor="middle" x="258.06" y="-881.84" font-family="Helvetica,sans-Serif" font-size="10.00">(375 tok)</text>
</g>
<!-- skill_workflow_pr_verify&#45;&gt;cmd_ac_verify -->
<g id="edge2" class="edge">
<title>skill_workflow_pr_verify&#45;&gt;cmd_ac_verify</title>
<path fill="none" stroke="black" d="M109.02,-793.52C140.3,-813.87 189.1,-845.62 222.04,-867.05"/>
<polygon fill="black" stroke="black" points="220.17,-870.02 230.46,-872.54 223.99,-864.15 220.17,-870.02"/>
</g>
<!-- cmd_phase_review -->
<g id="node10" class="node">
<title>cmd_phase_review</title>
<polygon fill="#bbdefb" stroke="black" points="295.06,-791.84 221.06,-791.84 221.06,-755.84 295.06,-755.84 295.06,-791.84"/>
<text text-anchor="middle" x="258.06" y="-776.84" font-family="Helvetica,sans-Serif" font-size="10.00">phase&#45;review</text>
<text text-anchor="middle" x="258.06" y="-765.84" font-family="Helvetica,sans-Serif" font-size="10.00">(915 tok)</text>
</g>
<!-- skill_workflow_pr_verify&#45;&gt;cmd_phase_review -->
<g id="edge4" class="edge">
<title>skill_workflow_pr_verify&#45;&gt;cmd_phase_review</title>
<path fill="none" stroke="black" d="M155.68,-773.84C174.41,-773.84 193.88,-773.84 210.69,-773.84"/>
<polygon fill="black" stroke="black" points="210.78,-777.34 220.78,-773.84 210.78,-770.34 210.78,-777.34"/>
</g>
<!-- cmd_ac_deploy_trigger -->
<g id="node11" class="node">
<title>cmd_ac_deploy_trigger</title>
<polygon fill="#e3f2fd" stroke="black" points="302.56,-965.84 213.56,-965.84 213.56,-929.84 302.56,-929.84 302.56,-965.84"/>
<text text-anchor="middle" x="258.06" y="-950.84" font-family="Helvetica,sans-Serif" font-size="10.00">ac&#45;deploy&#45;trigger</text>
<text text-anchor="middle" x="258.06" y="-939.84" font-family="Helvetica,sans-Serif" font-size="10.00">(457 tok)</text>
</g>
<!-- skill_workflow_pr_verify&#45;&gt;cmd_ac_deploy_trigger -->
<g id="edge1" class="edge">
<title>skill_workflow_pr_verify&#45;&gt;cmd_ac_deploy_trigger</title>
<path fill="none" stroke="black" d="M95.72,-794.98C120.01,-824.59 166.97,-879.2 213.56,-918.84 215.5,-920.49 217.53,-922.12 219.62,-923.73"/>
<polygon fill="black" stroke="black" points="217.69,-926.65 227.83,-929.73 221.82,-921 217.69,-926.65"/>
</g>
<!-- cmd_test_phase -->
<g id="node12" class="node">
<title>cmd_test_phase</title>
<polygon fill="#bbdefb" stroke="black" points="289.06,-617.84 227.06,-617.84 227.06,-581.84 289.06,-581.84 289.06,-617.84"/>
<text text-anchor="middle" x="258.06" y="-602.84" font-family="Helvetica,sans-Serif" font-size="10.00">test&#45;phase</text>
<text text-anchor="middle" x="258.06" y="-591.84" font-family="Helvetica,sans-Serif" font-size="10.00">(608 tok)</text>
</g>
<!-- skill_workflow_pr_verify&#45;&gt;cmd_test_phase -->
<g id="edge7" class="edge">
<title>skill_workflow_pr_verify&#45;&gt;cmd_test_phase</title>
<path fill="none" stroke="black" d="M95.72,-752.7C120.01,-723.1 166.97,-668.49 213.56,-628.84 215.5,-627.2 217.53,-625.56 219.62,-623.96"/>
<polygon fill="black" stroke="black" points="221.82,-626.69 227.83,-617.96 217.69,-621.04 221.82,-626.69"/>
</g>
<!-- skill_ref_specialist_output_schema -->
<g id="node2" class="node">
<title>skill_ref_specialist_output_schema</title>
<polygon fill="#e1f5fe" stroke="black" points="1055.19,-312.84 906.19,-312.84 906.19,-276.84 1061.19,-276.84 1061.19,-306.84 1055.19,-312.84"/>
<polyline fill="none" stroke="black" points="1055.19,-312.84 1055.19,-306.84 "/>
<polyline fill="none" stroke="black" points="1061.19,-306.84 1055.19,-306.84 "/>
<text text-anchor="middle" x="983.69" y="-297.84" font-family="Helvetica,sans-Serif" font-size="10.00">twl:ref&#45;specialist&#45;output&#45;schema</text>
<text text-anchor="middle" x="983.69" y="-286.84" font-family="Helvetica,sans-Serif" font-size="10.00">(2,563 tok)</text>
</g>
<!-- skill_baseline_coding_style -->
<g id="node3" class="node">
<title>skill_baseline_coding_style</title>
<polygon fill="#e1f5fe" stroke="black" points="1039.69,-254.84 921.69,-254.84 921.69,-218.84 1045.69,-218.84 1045.69,-248.84 1039.69,-254.84"/>
<polyline fill="none" stroke="black" points="1039.69,-254.84 1039.69,-248.84 "/>
<polyline fill="none" stroke="black" points="1045.69,-248.84 1039.69,-248.84 "/>
<text text-anchor="middle" x="983.69" y="-239.84" font-family="Helvetica,sans-Serif" font-size="10.00">twl:baseline&#45;coding&#45;style</text>
<text text-anchor="middle" x="983.69" y="-228.84" font-family="Helvetica,sans-Serif" font-size="10.00">(1,570 tok)</text>
</g>
<!-- skill_ref_specialist_output_schema&#45;&gt;skill_baseline_coding_style -->
<!-- skill_baseline_security_checklist -->
<g id="node4" class="node">
<title>skill_baseline_security_checklist</title>
<polygon fill="#e1f5fe" stroke="black" points="1051.69,-196.84 909.69,-196.84 909.69,-160.84 1057.69,-160.84 1057.69,-190.84 1051.69,-196.84"/>
<polyline fill="none" stroke="black" points="1051.69,-196.84 1051.69,-190.84 "/>
<polyline fill="none" stroke="black" points="1057.69,-190.84 1051.69,-190.84 "/>
<text text-anchor="middle" x="983.69" y="-181.84" font-family="Helvetica,sans-Serif" font-size="10.00">twl:baseline&#45;security&#45;checklist</text>
<text text-anchor="middle" x="983.69" y="-170.84" font-family="Helvetica,sans-Serif" font-size="10.00">(1,815 tok)</text>
</g>
<!-- skill_baseline_coding_style&#45;&gt;skill_baseline_security_checklist -->
<!-- skill_baseline_coding_style&#45;&gt;skill_baseline_security_checklist -->
<!-- skill_baseline_input_validation -->
<g id="node5" class="node">
<title>skill_baseline_input_validation</title>
<polygon fill="#e1f5fe" stroke="black" points="1046.19,-138.84 915.19,-138.84 915.19,-102.84 1052.19,-102.84 1052.19,-132.84 1046.19,-138.84"/>
<polyline fill="none" stroke="black" points="1046.19,-138.84 1046.19,-132.84 "/>
<polyline fill="none" stroke="black" points="1052.19,-132.84 1046.19,-132.84 "/>
<text text-anchor="middle" x="983.69" y="-123.84" font-family="Helvetica,sans-Serif" font-size="10.00">twl:baseline&#45;input&#45;validation</text>
<text text-anchor="middle" x="983.69" y="-112.84" font-family="Helvetica,sans-Serif" font-size="10.00">(1,408 tok)</text>
</g>
<!-- skill_baseline_security_checklist&#45;&gt;skill_baseline_input_validation -->
<!-- skill_baseline_security_checklist&#45;&gt;skill_baseline_input_validation -->
<!-- cmd_ts_preflight&#45;&gt;cmd_phase_review -->
<!-- cmd_scope_judge&#45;&gt;cmd_pr_test -->
<!-- cmd_pr_test&#45;&gt;cmd_test_phase -->
<!-- cmd_ac_verify&#45;&gt;cmd_ts_preflight -->
<!-- cmd_phase_review&#45;&gt;skill_ref_specialist_output_schema -->
<g id="edge28" class="edge">
<title>cmd_phase_review&#45;&gt;skill_ref_specialist_output_schema</title>
<path fill="none" stroke="black" d="M293.11,-792.14C296.75,-795.29 300.04,-798.85 302.56,-802.84 398.71,-955.11 245.33,-1065.47 360.56,-1203.84 430.9,-1288.31 765.41,-1359.16 848.19,-1286.84 923.12,-1221.38 971.62,-479.23 981.02,-323.43"/>
<polygon fill="black" stroke="black" points="984.52,-323.43 981.63,-313.24 977.53,-323.01 984.52,-323.43"/>
</g>
<!-- cmd_phase_review&#45;&gt;skill_baseline_coding_style -->
<g id="edge29" class="edge">
<title>cmd_phase_review&#45;&gt;skill_baseline_coding_style</title>
<path fill="none" stroke="black" d="M293.16,-755.58C296.8,-752.43 300.07,-748.85 302.56,-744.84 407.45,-576.24 252.07,-468.16 360.56,-301.84 484.38,-112.04 637.69,-68.91 848.19,-152.84 881.19,-166 876.1,-188.96 906.19,-207.84 909.94,-210.2 913.92,-212.42 918.01,-214.49"/>
<polygon fill="black" stroke="black" points="916.56,-217.67 927.1,-218.79 919.56,-211.35 916.56,-217.67"/>
</g>
<!-- cmd_phase_review&#45;&gt;skill_baseline_security_checklist -->
<g id="edge30" class="edge">
<title>cmd_phase_review&#45;&gt;skill_baseline_security_checklist</title>
<path fill="none" stroke="black" d="M293.3,-755.67C296.91,-752.5 300.14,-748.9 302.56,-744.84 373.06,-626.8 263.12,-225.84 360.56,-128.84 437.44,-52.32 745.19,-72.83 848.19,-106.84 878.66,-116.91 878.03,-134.46 906.19,-149.84 910.59,-152.25 915.24,-154.55 919.98,-156.72"/>
<polygon fill="black" stroke="black" points="918.6,-159.93 929.16,-160.73 921.4,-153.52 918.6,-159.93"/>
</g>
<!-- cmd_phase_review&#45;&gt;skill_baseline_input_validation -->
<g id="edge31" class="edge">
<title>cmd_phase_review&#45;&gt;skill_baseline_input_validation</title>
<path fill="none" stroke="black" d="M293.33,-755.69C296.94,-752.51 300.16,-748.91 302.56,-744.84 378.91,-615.86 250.32,-174.4 360.56,-72.84 524.28,77.96 825.97,-44.24 938.68,-98.35"/>
<polygon fill="black" stroke="black" points="937.21,-101.52 947.73,-102.74 940.27,-95.23 937.21,-101.52"/>
</g>
<!-- cmd_phase_review&#45;&gt;cmd_scope_judge -->
<!-- agent_worker_structure -->
<g id="node13" class="node">
<title>agent_worker_structure</title>
<ellipse fill="#ede7f6" stroke="black" cx="727.27" cy="-1364.84" rx="61.54" ry="21.43"/>
<text text-anchor="middle" x="727.27" y="-1367.84" font-family="Helvetica,sans-Serif" font-size="10.00">worker&#45;structure</text>
<text text-anchor="middle" x="727.27" y="-1356.84" font-family="Helvetica,sans-Serif" font-size="10.00">(1,244 tok)</text>
</g>
<!-- cmd_phase_review&#45;&gt;agent_worker_structure -->
<g id="edge11" class="edge">
<title>cmd_phase_review&#45;&gt;agent_worker_structure</title>
<path fill="none" stroke="black" stroke-dasharray="5,2" d="M293.29,-792.03C296.9,-795.2 300.14,-798.8 302.56,-802.84 371.07,-917.18 261.86,-1310.27 360.56,-1399.84 450.24,-1481.23 608.08,-1422.63 683.63,-1386.93"/>
<polygon fill="black" stroke="black" points="685.37,-1389.98 692.86,-1382.49 682.33,-1383.67 685.37,-1389.98"/>
</g>
<!-- agent_worker_principles -->
<g id="node14" class="node">
<title>agent_worker_principles</title>
<ellipse fill="#ede7f6" stroke="black" cx="727.27" cy="-1254.84" rx="63.78" ry="21.43"/>
<text text-anchor="middle" x="727.27" y="-1257.84" font-family="Helvetica,sans-Serif" font-size="10.00">worker&#45;principles</text>
<text text-anchor="middle" x="727.27" y="-1246.84" font-family="Helvetica,sans-Serif" font-size="10.00">(1,154 tok)</text>
</g>
<!-- cmd_phase_review&#45;&gt;agent_worker_principles -->
<g id="edge12" class="edge">
<title>cmd_phase_review&#45;&gt;agent_worker_principles</title>
<path fill="none" stroke="black" stroke-dasharray="5,2" d="M292.58,-791.85C296.41,-795.07 299.89,-798.74 302.56,-802.84 385.01,-929.48 262.68,-1022.73 360.56,-1137.84 433.49,-1223.61 569.36,-1247.14 653.38,-1253.22"/>
<polygon fill="black" stroke="black" points="653.16,-1256.71 663.36,-1253.87 653.62,-1249.72 653.16,-1256.71"/>
</g>
<!-- agent_worker_env_validator -->
<g id="node15" class="node">
<title>agent_worker_env_validator</title>
<ellipse fill="#ede7f6" stroke="black" cx="727.27" cy="-358.84" rx="73.58" ry="21.43"/>
<text text-anchor="middle" x="727.27" y="-361.84" font-family="Helvetica,sans-Serif" font-size="10.00">worker&#45;env&#45;validator</text>
<text text-anchor="middle" x="727.27" y="-350.84" font-family="Helvetica,sans-Serif" font-size="10.00">(1,426 tok)</text>
</g>
<!-- cmd_phase_review&#45;&gt;agent_worker_env_validator -->
<g id="edge26" class="edge">
<title>cmd_phase_review&#45;&gt;agent_worker_env_validator</title>
<path fill="none" stroke="black" stroke-dasharray="5,2" d="M292.51,-755.8C296.35,-752.58 299.85,-748.93 302.56,-744.84 378.18,-630.99 265.68,-541.21 360.56,-442.84 434.15,-366.55 561.94,-353.31 645.3,-353.79"/>
<polygon fill="black" stroke="black" points="645.44,-357.29 655.49,-353.91 645.53,-350.29 645.44,-357.29"/>
</g>
<!-- agent_worker_rls_reviewer -->
<g id="node16" class="node">
<title>agent_worker_rls_reviewer</title>
<ellipse fill="#ede7f6" stroke="black" cx="727.27" cy="-678.84" rx="70.01" ry="21.43"/>
<text text-anchor="middle" x="727.27" y="-681.84" font-family="Helvetica,sans-Serif" font-size="10.00">worker&#45;rls&#45;reviewer</text>
<text text-anchor="middle" x="727.27" y="-670.84" font-family="Helvetica,sans-Serif" font-size="10.00">(1,517 tok)</text>
</g>
<!-- cmd_phase_review&#45;&gt;agent_worker_rls_reviewer -->
<g id="edge21" class="edge">
<title>cmd_phase_review&#45;&gt;agent_worker_rls_reviewer</title>
<path fill="none" stroke="black" stroke-dasharray="5,2" d="M295.13,-764.47C314.47,-759.57 338.76,-753.61 360.56,-748.84 462.95,-726.45 582.33,-704.35 656.11,-691.15"/>
<polygon fill="black" stroke="black" points="656.98,-694.55 666.21,-689.34 655.75,-687.66 656.98,-694.55"/>
</g>
<!-- agent_worker_supabase_migration_checker -->
<g id="node17" class="node">
<title>agent_worker_supabase_migration_checker</title>
<ellipse fill="#ede7f6" stroke="black" cx="727.27" cy="-934.84" rx="120.83" ry="21.43"/>
<text text-anchor="middle" x="727.27" y="-937.84" font-family="Helvetica,sans-Serif" font-size="10.00">worker&#45;supabase&#45;migration&#45;checker</text>
<text text-anchor="middle" x="727.27" y="-926.84" font-family="Helvetica,sans-Serif" font-size="10.00">(1,338 tok)</text>
</g>
<!-- cmd_phase_review&#45;&gt;agent_worker_supabase_migration_checker -->
<g id="edge17" class="edge">
<title>cmd_phase_review&#45;&gt;agent_worker_supabase_migration_checker</title>
<path fill="none" stroke="black" stroke-dasharray="5,2" d="M286.4,-791.93C315.08,-810.86 356.57,-838.08 360.56,-839.84 447.59,-878.22 553.35,-903.6 628.7,-918.4"/>
<polygon fill="black" stroke="black" points="628.18,-921.86 638.66,-920.32 629.51,-914.99 628.18,-921.86"/>
</g>
<!-- agent_worker_data_validator -->
<g id="node18" class="node">
<title>agent_worker_data_validator</title>
<ellipse fill="#ede7f6" stroke="black" cx="727.27" cy="-422.84" rx="75.82" ry="21.43"/>
<text text-anchor="middle" x="727.27" y="-425.84" font-family="Helvetica,sans-Serif" font-size="10.00">worker&#45;data&#45;validator</text>
<text text-anchor="middle" x="727.27" y="-414.84" font-family="Helvetica,sans-Serif" font-size="10.00">(698 tok)</text>
</g>
<!-- cmd_phase_review&#45;&gt;agent_worker_data_validator -->
<g id="edge25" class="edge">
<title>cmd_phase_review&#45;&gt;agent_worker_data_validator</title>
<path fill="none" stroke="black" stroke-dasharray="5,2" d="M292.31,-755.66C296.18,-752.46 299.74,-748.85 302.56,-744.84 364.2,-657.2 284.54,-586.35 360.56,-510.84 400.41,-471.27 551.77,-445.15 646.83,-432.27"/>
<polygon fill="black" stroke="black" points="647.54,-435.71 656.99,-430.92 646.62,-428.77 647.54,-435.71"/>
</g>
<!-- agent_worker_e2e_reviewer -->
<g id="node19" class="node">
<title>agent_worker_e2e_reviewer</title>
<ellipse fill="#ede7f6" stroke="black" cx="727.27" cy="-806.84" rx="73.58" ry="21.43"/>
<text text-anchor="middle" x="727.27" y="-809.84" font-family="Helvetica,sans-Serif" font-size="10.00">worker&#45;e2e&#45;reviewer</text>
<text text-anchor="middle" x="727.27" y="-798.84" font-family="Helvetica,sans-Serif" font-size="10.00">(1,226 tok)</text>
</g>
<!-- cmd_phase_review&#45;&gt;agent_worker_e2e_reviewer -->
<g id="edge19" class="edge">
<title>cmd_phase_review&#45;&gt;agent_worker_e2e_reviewer</title>
<path fill="none" stroke="black" stroke-dasharray="5,2" d="M295.34,-776.41C370.14,-781.69 543.09,-793.91 645.7,-801.15"/>
<polygon fill="black" stroke="black" points="645.49,-804.65 655.71,-801.86 645.98,-797.66 645.49,-804.65"/>
</g>
<!-- agent_worker_spec_reviewer -->
<g id="node20" class="node">
<title>agent_worker_spec_reviewer</title>
<ellipse fill="#ede7f6" stroke="black" cx="727.27" cy="-614.84" rx="77.56" ry="21.43"/>
<text text-anchor="middle" x="727.27" y="-617.84" font-family="Helvetica,sans-Serif" font-size="10.00">worker&#45;spec&#45;reviewer</text>
<text text-anchor="middle" x="727.27" y="-606.84" font-family="Helvetica,sans-Serif" font-size="10.00">(1,094 tok)</text>
</g>
<!-- cmd_phase_review&#45;&gt;agent_worker_spec_reviewer -->
<g id="edge22" class="edge">
<title>cmd_phase_review&#45;&gt;agent_worker_spec_reviewer</title>
<path fill="none" stroke="black" stroke-dasharray="5,2" d="M286.34,-755.68C315.71,-736.14 358.54,-707.74 360.56,-706.84 455.32,-665.1 572.57,-639.82 648.36,-626.6"/>
<polygon fill="black" stroke="black" points="649.05,-630.03 658.31,-624.89 647.86,-623.13 649.05,-630.03"/>
</g>
<!-- agent_worker_codex_reviewer -->
<g id="node21" class="node">
<title>agent_worker_codex_reviewer</title>
<ellipse fill="#ede7f6" stroke="black" cx="727.27" cy="-294.84" rx="81.13" ry="21.43"/>
<text text-anchor="middle" x="727.27" y="-297.84" font-family="Helvetica,sans-Serif" font-size="10.00">worker&#45;codex&#45;reviewer</text>
<text text-anchor="middle" x="727.27" y="-286.84" font-family="Helvetica,sans-Serif" font-size="10.00">(1,421 tok)</text>
</g>
<!-- cmd_phase_review&#45;&gt;agent_worker_codex_reviewer -->
<g id="edge27" class="edge">
<title>cmd_phase_review&#45;&gt;agent_worker_codex_reviewer</title>
<path fill="none" stroke="black" stroke-dasharray="5,2" d="M293.09,-755.54C296.74,-752.39 300.03,-748.83 302.56,-744.84 396.21,-597.25 238.03,-480.51 360.56,-355.84 398,-317.75 540.59,-303.41 636.26,-298.04"/>
<polygon fill="black" stroke="black" points="636.73,-301.52 646.52,-297.49 636.35,-294.53 636.73,-301.52"/>
</g>
<!-- agent_worker_code_reviewer -->
<g id="node22" class="node">
<title>agent_worker_code_reviewer</title>
<ellipse fill="#ede7f6" stroke="black" cx="727.27" cy="-1190.84" rx="77.56" ry="21.43"/>
<text text-anchor="middle" x="727.27" y="-1193.84" font-family="Helvetica,sans-Serif" font-size="10.00">worker&#45;code&#45;reviewer</text>
<text text-anchor="middle" x="727.27" y="-1182.84" font-family="Helvetica,sans-Serif" font-size="10.00">(964 tok)</text>
</g>
<!-- cmd_phase_review&#45;&gt;agent_worker_code_reviewer -->
<g id="edge13" class="edge">
<title>cmd_phase_review&#45;&gt;agent_worker_code_reviewer</title>
<path fill="none" stroke="black" stroke-dasharray="5,2" d="M292.42,-791.95C296.28,-795.16 299.81,-798.79 302.56,-802.84 371.38,-903.95 279.78,-980.02 360.56,-1071.84 431.02,-1151.93 555.96,-1178.41 639.94,-1186.99"/>
<polygon fill="black" stroke="black" points="639.69,-1190.48 649.98,-1187.95 640.36,-1183.51 639.69,-1190.48"/>
</g>
<!-- agent_worker_security_reviewer -->
<g id="node23" class="node">
<title>agent_worker_security_reviewer</title>
<ellipse fill="#ede7f6" stroke="black" cx="727.27" cy="-1126.84" rx="86.95" ry="21.43"/>
<text text-anchor="middle" x="727.27" y="-1129.84" font-family="Helvetica,sans-Serif" font-size="10.00">worker&#45;security&#45;reviewer</text>
<text text-anchor="middle" x="727.27" y="-1118.84" font-family="Helvetica,sans-Serif" font-size="10.00">(866 tok)</text>
</g>
<!-- cmd_phase_review&#45;&gt;agent_worker_security_reviewer -->
<g id="edge14" class="edge">
<title>cmd_phase_review&#45;&gt;agent_worker_security_reviewer</title>
<path fill="none" stroke="black" stroke-dasharray="5,2" d="M292.19,-792.12C296.08,-795.3 299.68,-798.88 302.56,-802.84 358.29,-879.4 295.8,-938.77 360.56,-1007.84 430.99,-1082.97 549.3,-1110.77 632.23,-1120.99"/>
<polygon fill="black" stroke="black" points="631.82,-1124.47 642.16,-1122.16 632.64,-1117.52 631.82,-1124.47"/>
</g>
<!-- agent_worker_nextjs_reviewer -->
<g id="node24" class="node">
<title>agent_worker_nextjs_reviewer</title>
<ellipse fill="#ede7f6" stroke="black" cx="727.27" cy="-1062.84" rx="81.13" ry="21.43"/>
<text text-anchor="middle" x="727.27" y="-1065.84" font-family="Helvetica,sans-Serif" font-size="10.00">worker&#45;nextjs&#45;reviewer</text>
<text text-anchor="middle" x="727.27" y="-1054.84" font-family="Helvetica,sans-Serif" font-size="10.00">(642 tok)</text>
</g>
<!-- cmd_phase_review&#45;&gt;agent_worker_nextjs_reviewer -->
<g id="edge15" class="edge">
<title>cmd_phase_review&#45;&gt;agent_worker_nextjs_reviewer</title>
<path fill="none" stroke="black" stroke-dasharray="5,2" d="M291.34,-792.08C295.46,-795.31 299.35,-798.91 302.56,-802.84 345.71,-855.63 311.14,-897.89 360.56,-944.84 436.4,-1016.89 556.53,-1044.95 638.24,-1055.88"/>
<polygon fill="black" stroke="black" points="638.15,-1059.39 648.51,-1057.19 639.03,-1052.45 638.15,-1059.39"/>
</g>
<!-- agent_worker_fastapi_reviewer -->
<g id="node25" class="node">
<title>agent_worker_fastapi_reviewer</title>
<ellipse fill="#ede7f6" stroke="black" cx="727.27" cy="-998.84" rx="83.38" ry="21.43"/>
<text text-anchor="middle" x="727.27" y="-1001.84" font-family="Helvetica,sans-Serif" font-size="10.00">worker&#45;fastapi&#45;reviewer</text>
<text text-anchor="middle" x="727.27" y="-990.84" font-family="Helvetica,sans-Serif" font-size="10.00">(639 tok)</text>
</g>
<!-- cmd_phase_review&#45;&gt;agent_worker_fastapi_reviewer -->
<g id="edge16" class="edge">
<title>cmd_phase_review&#45;&gt;agent_worker_fastapi_reviewer</title>
<path fill="none" stroke="black" stroke-dasharray="5,2" d="M289.69,-792.1C294.23,-795.4 298.68,-799.02 302.56,-802.84 334.9,-834.66 324.19,-859.73 360.56,-886.84 443.4,-948.59 560.64,-976.66 639.86,-989.17"/>
<polygon fill="black" stroke="black" points="639.4,-992.64 649.81,-990.69 640.46,-985.72 639.4,-992.64"/>
</g>
<!-- agent_worker_hono_reviewer -->
<g id="node26" class="node">
<title>agent_worker_hono_reviewer</title>
<ellipse fill="#ede7f6" stroke="black" cx="727.27" cy="-742.84" rx="77.56" ry="21.43"/>
<text text-anchor="middle" x="727.27" y="-745.84" font-family="Helvetica,sans-Serif" font-size="10.00">worker&#45;hono&#45;reviewer</text>
<text text-anchor="middle" x="727.27" y="-734.84" font-family="Helvetica,sans-Serif" font-size="10.00">(847 tok)</text>
</g>
<!-- cmd_phase_review&#45;&gt;agent_worker_hono_reviewer -->
<g id="edge20" class="edge">
<title>cmd_phase_review&#45;&gt;agent_worker_hono_reviewer</title>
<path fill="none" stroke="black" stroke-dasharray="5,2" d="M295.34,-771.44C369.1,-766.54 538.31,-755.32 641.39,-748.48"/>
<polygon fill="black" stroke="black" points="641.72,-751.96 651.46,-747.81 641.25,-744.98 641.72,-751.96"/>
</g>
<!-- agent_worker_r_reviewer -->
<g id="node27" class="node">
<title>agent_worker_r_reviewer</title>
<ellipse fill="#ede7f6" stroke="black" cx="727.27" cy="-870.84" rx="65.11" ry="21.43"/>
<text text-anchor="middle" x="727.27" y="-873.84" font-family="Helvetica,sans-Serif" font-size="10.00">worker&#45;r&#45;reviewer</text>
<text text-anchor="middle" x="727.27" y="-862.84" font-family="Helvetica,sans-Serif" font-size="10.00">(717 tok)</text>
</g>
<!-- cmd_phase_review&#45;&gt;agent_worker_r_reviewer -->
<g id="edge18" class="edge">
<title>cmd_phase_review&#45;&gt;agent_worker_r_reviewer</title>
<path fill="none" stroke="black" stroke-dasharray="5,2" d="M295.42,-786.09C314.64,-792.27 338.72,-799.56 360.56,-804.84 462.82,-829.6 583.21,-849.6 657.12,-860.85"/>
<polygon fill="black" stroke="black" points="656.83,-864.35 667.24,-862.38 657.87,-857.43 656.83,-864.35"/>
</g>
<!-- agent_worker_llm_output_reviewer -->
<g id="node28" class="node">
<title>agent_worker_llm_output_reviewer</title>
<ellipse fill="#ede7f6" stroke="black" cx="727.27" cy="-550.84" rx="92.76" ry="21.43"/>
<text text-anchor="middle" x="727.27" y="-553.84" font-family="Helvetica,sans-Serif" font-size="10.00">worker&#45;llm&#45;output&#45;reviewer</text>
<text text-anchor="middle" x="727.27" y="-542.84" font-family="Helvetica,sans-Serif" font-size="10.00">(1,162 tok)</text>
</g>
<!-- cmd_phase_review&#45;&gt;agent_worker_llm_output_reviewer -->
<g id="edge23" class="edge">
<title>cmd_phase_review&#45;&gt;agent_worker_llm_output_reviewer</title>
<path fill="none" stroke="black" stroke-dasharray="5,2" d="M290.45,-755.56C294.79,-752.3 298.98,-748.7 302.56,-744.84 338.29,-706.33 318.77,-673.68 360.56,-641.84 403.94,-608.81 545.86,-580.21 639.62,-564.28"/>
<polygon fill="black" stroke="black" points="640.39,-567.7 649.67,-562.59 639.22,-560.8 640.39,-567.7"/>
</g>
<!-- agent_worker_llm_eval_runner -->
<g id="node29" class="node">
<title>agent_worker_llm_eval_runner</title>
<ellipse fill="#ede7f6" stroke="black" cx="727.27" cy="-486.84" rx="79.81" ry="21.43"/>
<text text-anchor="middle" x="727.27" y="-489.84" font-family="Helvetica,sans-Serif" font-size="10.00">worker&#45;llm&#45;eval&#45;runner</text>
<text text-anchor="middle" x="727.27" y="-478.84" font-family="Helvetica,sans-Serif" font-size="10.00">(1,174 tok)</text>
</g>
<!-- cmd_phase_review&#45;&gt;agent_worker_llm_eval_runner -->
<g id="edge24" class="edge">
<title>cmd_phase_review&#45;&gt;agent_worker_llm_eval_runner</title>
<path fill="none" stroke="black" stroke-dasharray="5,2" d="M291.55,-755.77C295.63,-752.52 299.46,-748.87 302.56,-744.84 351.04,-681.95 301.89,-629.36 360.56,-575.84 401.73,-538.3 550.34,-511.28 644.97,-497.42"/>
<polygon fill="black" stroke="black" points="645.7,-500.86 655.1,-495.96 644.7,-493.93 645.7,-500.86"/>
</g>
<!-- script_tech_stack_detect -->
<g id="node31" class="node">
<title>script_tech_stack_detect</title>
<polygon fill="#ff9800" stroke="black" points="529.7,-1480.84 492.08,-1505.33 416.84,-1505.33 379.23,-1480.84 416.84,-1456.35 492.08,-1456.35 529.7,-1480.84"/>
<text text-anchor="middle" x="454.46" y="-1483.84" font-family="Helvetica,sans-Serif" font-size="10.00">tech&#45;stack&#45;detect</text>
<text text-anchor="middle" x="454.46" y="-1472.84" font-family="Helvetica,sans-Serif" font-size="10.00">(539 tok)</text>
</g>
<!-- cmd_phase_review&#45;&gt;script_tech_stack_detect -->
<g id="edge9" class="edge">
<title>cmd_phase_review&#45;&gt;script_tech_stack_detect</title>
<path fill="none" stroke="black" d="M293.31,-792.01C296.92,-795.18 300.15,-798.79 302.56,-802.84 375.25,-924.99 277.63,-1324.41 360.56,-1439.84 367.87,-1450.01 378.27,-1457.69 389.49,-1463.49"/>
<polygon fill="black" stroke="black" points="388.07,-1466.69 398.61,-1467.74 391.03,-1460.34 388.07,-1466.69"/>
</g>
<!-- script_specialist_output_parse -->
<g id="node32" class="node">
<title>script_specialist_output_parse</title>
<polygon fill="#ff9800" stroke="black" points="548.25,-1551.84 501.36,-1576.33 407.56,-1576.33 360.67,-1551.84 407.56,-1527.35 501.36,-1527.35 548.25,-1551.84"/>
<text text-anchor="middle" x="454.46" y="-1554.84" font-family="Helvetica,sans-Serif" font-size="10.00">specialist&#45;output&#45;parse</text>
<text text-anchor="middle" x="454.46" y="-1543.84" font-family="Helvetica,sans-Serif" font-size="10.00">(605 tok)</text>
</g>
<!-- cmd_phase_review&#45;&gt;script_specialist_output_parse -->
<g id="edge8" class="edge">
<title>cmd_phase_review&#45;&gt;script_specialist_output_parse</title>
<path fill="none" stroke="black" d="M293.35,-791.99C296.95,-795.17 300.17,-798.78 302.56,-802.84 383.2,-939.84 265.48,-1388.44 360.56,-1515.84 365.51,-1522.47 371.85,-1527.88 378.89,-1532.29"/>
<polygon fill="black" stroke="black" points="377.68,-1535.62 388.13,-1537.37 381.05,-1529.48 377.68,-1535.62"/>
</g>
<!-- script_checkpoint_write -->
<g id="node33" class="node">
<title>script_checkpoint_write</title>
<polygon fill="#ff9800" stroke="black" points="526.16,-1364.84 490.31,-1389.33 418.61,-1389.33 382.76,-1364.84 418.61,-1340.35 490.31,-1340.35 526.16,-1364.84"/>
<text text-anchor="middle" x="454.46" y="-1367.84" font-family="Helvetica,sans-Serif" font-size="10.00">checkpoint&#45;write</text>
<text text-anchor="middle" x="454.46" y="-1356.84" font-family="Helvetica,sans-Serif" font-size="10.00">(646 tok)</text>
</g>
<!-- cmd_phase_review&#45;&gt;script_checkpoint_write -->
<g id="edge10" class="edge">
<title>cmd_phase_review&#45;&gt;script_checkpoint_write</title>
<path fill="none" stroke="black" d="M293.23,-792.06C296.86,-795.22 300.11,-798.81 302.56,-802.84 423.71,-1001.86 222.73,-1136 360.56,-1323.84 368.38,-1334.49 379.57,-1342.42 391.5,-1348.3"/>
<polygon fill="black" stroke="black" points="390.16,-1351.54 400.72,-1352.42 393.01,-1345.15 390.16,-1351.54"/>
</g>
<!-- cmd_ac_deploy_trigger&#45;&gt;cmd_ac_verify -->
<!-- cmd_test_phase&#45;&gt;skill_ref_specialist_output_schema -->
<g id="edge33" class="edge">
<title>cmd_test_phase&#45;&gt;skill_ref_specialist_output_schema</title>
<path fill="none" stroke="black" d="M259.13,-581.82C260.39,-529.09 271.82,-374.14 360.56,-299.84 523.29,-163.62 802.69,-233.55 923.82,-273.44"/>
<polygon fill="black" stroke="black" points="923.06,-276.87 933.65,-276.72 925.28,-270.23 923.06,-276.87"/>
</g>
<!-- agent_e2e_quality -->
<g id="node30" class="node">
<title>agent_e2e_quality</title>
<ellipse fill="#ede7f6" stroke="black" cx="727.27" cy="-184.84" rx="45.01" ry="21.43"/>
<text text-anchor="middle" x="727.27" y="-187.84" font-family="Helvetica,sans-Serif" font-size="10.00">e2e&#45;quality</text>
<text text-anchor="middle" x="727.27" y="-176.84" font-family="Helvetica,sans-Serif" font-size="10.00">(2,270 tok)</text>
</g>
<!-- cmd_test_phase&#45;&gt;agent_e2e_quality -->
<g id="edge32" class="edge">
<title>cmd_test_phase&#45;&gt;agent_e2e_quality</title>
<path fill="none" stroke="black" stroke-dasharray="5,2" d="M261.27,-581.51C269.95,-512.66 304.07,-270.98 360.56,-222.84 449.61,-146.97 598.59,-160.26 676.06,-173.93"/>
<polygon fill="black" stroke="black" points="675.58,-177.4 686.05,-175.77 676.84,-170.52 675.58,-177.4"/>
</g>
<!-- agent_worker_structure&#45;&gt;skill_ref_specialist_output_schema -->
<g id="edge34" class="edge">
<title>agent_worker_structure&#45;&gt;skill_ref_specialist_output_schema</title>
<path fill="none" stroke="black" stroke-dasharray="1,5" d="M786.99,-1359.56C809.34,-1354.52 833.05,-1344.93 848.19,-1326.84 980.4,-1168.84 983.79,-473.43 982.96,-323.43"/>
<polygon fill="black" stroke="black" points="986.46,-323.18 982.89,-313.21 979.46,-323.23 986.46,-323.18"/>
</g>
<!-- agent_worker_structure&#45;&gt;agent_worker_principles -->
<!-- agent_worker_structure&#45;&gt;agent_worker_principles -->
<!-- agent_worker_structure&#45;&gt;agent_worker_principles -->
<!-- agent_worker_structure&#45;&gt;agent_worker_principles -->
<!-- agent_worker_principles&#45;&gt;skill_ref_specialist_output_schema -->
<g id="edge35" class="edge">
<title>agent_worker_principles&#45;&gt;skill_ref_specialist_output_schema</title>
<path fill="none" stroke="black" stroke-dasharray="1,5" d="M790.39,-1251.86C811.58,-1247.68 833.58,-1239.27 848.19,-1222.84 970.78,-1085.02 981.73,-464.03 982.62,-323.27"/>
<polygon fill="black" stroke="black" points="986.13,-322.93 982.68,-312.91 979.13,-322.9 986.13,-322.93"/>
</g>
<!-- agent_worker_principles&#45;&gt;agent_worker_code_reviewer -->
<!-- agent_worker_principles&#45;&gt;agent_worker_code_reviewer -->
<!-- agent_worker_env_validator&#45;&gt;skill_ref_specialist_output_schema -->
<g id="edge36" class="edge">
<title>agent_worker_env_validator&#45;&gt;skill_ref_specialist_output_schema</title>
<path fill="none" stroke="black" stroke-dasharray="1,5" d="M783.16,-345.04C817.49,-336.4 862.34,-325.12 900.82,-315.44"/>
<polygon fill="black" stroke="black" points="902.13,-318.72 910.97,-312.88 900.42,-311.93 902.13,-318.72"/>
</g>
<!-- agent_worker_env_validator&#45;&gt;agent_worker_codex_reviewer -->
<!-- agent_worker_env_validator&#45;&gt;agent_worker_codex_reviewer -->
<!-- agent_worker_rls_reviewer&#45;&gt;skill_ref_specialist_output_schema -->
<g id="edge37" class="edge">
<title>agent_worker_rls_reviewer&#45;&gt;skill_ref_specialist_output_schema</title>
<path fill="none" stroke="black" stroke-dasharray="1,5" d="M794.41,-672.68C813.62,-668.06 833.38,-660.18 848.19,-646.84 946.49,-558.29 973.42,-389.97 980.39,-323.18"/>
<polygon fill="black" stroke="black" points="983.9,-323.29 981.38,-313 976.93,-322.61 983.9,-323.29"/>
</g>
<!-- agent_worker_rls_reviewer&#45;&gt;agent_worker_spec_reviewer -->
<!-- agent_worker_rls_reviewer&#45;&gt;agent_worker_spec_reviewer -->
<!-- agent_worker_supabase_migration_checker&#45;&gt;skill_ref_specialist_output_schema -->
<g id="edge38" class="edge">
<title>agent_worker_supabase_migration_checker&#45;&gt;skill_ref_specialist_output_schema</title>
<path fill="none" stroke="black" stroke-dasharray="1,5" d="M821.18,-921.42C831.26,-916.82 840.59,-910.78 848.19,-902.84 930.25,-817.17 970.46,-431.56 980.27,-323.23"/>
<polygon fill="black" stroke="black" points="983.77,-323.34 981.17,-313.07 976.8,-322.72 983.77,-323.34"/>
</g>
<!-- agent_worker_supabase_migration_checker&#45;&gt;agent_worker_r_reviewer -->
<!-- agent_worker_supabase_migration_checker&#45;&gt;agent_worker_r_reviewer -->
<!-- agent_worker_data_validator&#45;&gt;skill_ref_specialist_output_schema -->
<g id="edge39" class="edge">
<title>agent_worker_data_validator&#45;&gt;skill_ref_specialist_output_schema</title>
<path fill="none" stroke="black" stroke-dasharray="1,5" d="M789.85,-410.91C809.06,-406.01 829.96,-399.43 848.19,-390.84 888,-372.09 928.39,-341.34 954.38,-319.71"/>
<polygon fill="black" stroke="black" points="956.9,-322.15 962.29,-313.03 952.39,-316.8 956.9,-322.15"/>
</g>
<!-- agent_worker_data_validator&#45;&gt;agent_worker_env_validator -->
<!-- agent_worker_data_validator&#45;&gt;agent_worker_env_validator -->
<!-- agent_worker_e2e_reviewer&#45;&gt;skill_ref_specialist_output_schema -->
<g id="edge40" class="edge">
<title>agent_worker_e2e_reviewer&#45;&gt;skill_ref_specialist_output_schema</title>
<path fill="none" stroke="black" stroke-dasharray="1,5" d="M797.99,-800.8C816.31,-796.11 834.7,-788.17 848.19,-774.84 914.3,-709.55 964.14,-416.03 978.49,-323.13"/>
<polygon fill="black" stroke="black" points="981.97,-323.48 980.02,-313.07 975.05,-322.43 981.97,-323.48"/>
</g>
<!-- agent_worker_e2e_reviewer&#45;&gt;agent_worker_hono_reviewer -->
<!-- agent_worker_e2e_reviewer&#45;&gt;agent_worker_hono_reviewer -->
<!-- agent_worker_spec_reviewer&#45;&gt;skill_ref_specialist_output_schema -->
<g id="edge41" class="edge">
<title>agent_worker_spec_reviewer&#45;&gt;skill_ref_specialist_output_schema</title>
<path fill="none" stroke="black" stroke-dasharray="1,5" d="M799.14,-606.66C816.63,-601.91 834.31,-594.47 848.19,-582.84 931.42,-513.12 966.16,-380.45 977.78,-322.78"/>
<polygon fill="black" stroke="black" points="981.23,-323.4 979.69,-312.91 974.36,-322.07 981.23,-323.4"/>
</g>
<!-- agent_worker_spec_reviewer&#45;&gt;agent_worker_llm_output_reviewer -->
<!-- agent_worker_spec_reviewer&#45;&gt;agent_worker_llm_output_reviewer -->
<!-- agent_worker_codex_reviewer&#45;&gt;skill_ref_specialist_output_schema -->
<g id="edge42" class="edge">
<title>agent_worker_codex_reviewer&#45;&gt;skill_ref_specialist_output_schema</title>
<path fill="none" stroke="black" stroke-dasharray="1,5" d="M803.23,-287.25C832.33,-286.48 865.85,-286.39 895.99,-286.98"/>
<polygon fill="black" stroke="black" points="895.99,-290.48 906.06,-287.2 896.15,-283.48 895.99,-290.48"/>
</g>
<!-- agent_worker_codex_reviewer&#45;&gt;skill_ref_specialist_output_schema -->
<!-- agent_worker_code_reviewer&#45;&gt;skill_ref_specialist_output_schema -->
<g id="edge43" class="edge">
<title>agent_worker_code_reviewer&#45;&gt;skill_ref_specialist_output_schema</title>
<path fill="none" stroke="black" stroke-dasharray="1,5" d="M802.17,-1184.98C819.42,-1180.18 836.23,-1172.14 848.19,-1158.84 962.57,-1031.6 979.8,-458.57 982.29,-323.45"/>
<polygon fill="black" stroke="black" points="985.79,-323.17 982.46,-313.11 978.79,-323.05 985.79,-323.17"/>
</g>
<!-- agent_worker_code_reviewer&#45;&gt;agent_worker_security_reviewer -->
<!-- agent_worker_code_reviewer&#45;&gt;agent_worker_security_reviewer -->
<!-- agent_worker_security_reviewer&#45;&gt;skill_ref_specialist_output_schema -->
<g id="edge44" class="edge">
<title>agent_worker_security_reviewer&#45;&gt;skill_ref_specialist_output_schema</title>
<path fill="none" stroke="black" stroke-dasharray="1,5" d="M808.27,-1119C823.3,-1114.08 837.6,-1106.48 848.19,-1094.84 954.45,-978.07 977.75,-452.17 981.9,-323.38"/>
<polygon fill="black" stroke="black" points="985.4,-323.25 982.21,-313.15 978.41,-323.04 985.4,-323.25"/>
</g>
<!-- agent_worker_security_reviewer&#45;&gt;agent_worker_nextjs_reviewer -->
<!-- agent_worker_security_reviewer&#45;&gt;agent_worker_nextjs_reviewer -->
<!-- agent_worker_nextjs_reviewer&#45;&gt;skill_ref_specialist_output_schema -->
<g id="edge45" class="edge">
<title>agent_worker_nextjs_reviewer&#45;&gt;skill_ref_specialist_output_schema</title>
<path fill="none" stroke="black" stroke-dasharray="1,5" d="M804.42,-1056.04C820.8,-1051.19 836.64,-1043.35 848.19,-1030.84 946.43,-924.41 975.58,-444.84 981.46,-323.04"/>
<polygon fill="black" stroke="black" points="984.96,-323.17 981.93,-313.01 977.96,-322.84 984.96,-323.17"/>
</g>
<!-- agent_worker_nextjs_reviewer&#45;&gt;agent_worker_fastapi_reviewer -->
<!-- agent_worker_nextjs_reviewer&#45;&gt;agent_worker_fastapi_reviewer -->
<!-- agent_worker_fastapi_reviewer&#45;&gt;skill_ref_specialist_output_schema -->
<g id="edge46" class="edge">
<title>agent_worker_fastapi_reviewer&#45;&gt;skill_ref_specialist_output_schema</title>
<path fill="none" stroke="black" stroke-dasharray="1,5" d="M805.82,-991.44C821.66,-986.56 836.91,-978.86 848.19,-966.84 938.31,-870.83 973.14,-438.42 980.92,-323.15"/>
<polygon fill="black" stroke="black" points="984.42,-323.22 981.59,-313.01 977.44,-322.76 984.42,-323.22"/>
</g>
<!-- agent_worker_fastapi_reviewer&#45;&gt;agent_worker_supabase_migration_checker -->
<!-- agent_worker_fastapi_reviewer&#45;&gt;agent_worker_supabase_migration_checker -->
<!-- agent_worker_hono_reviewer&#45;&gt;skill_ref_specialist_output_schema -->
<g id="edge47" class="edge">
<title>agent_worker_hono_reviewer&#45;&gt;skill_ref_specialist_output_schema</title>
<path fill="none" stroke="black" stroke-dasharray="1,5" d="M800.78,-735.62C818.05,-730.85 835.22,-723.16 848.19,-710.84 962.04,-602.76 979.72,-397.78 982.31,-323.03"/>
<polygon fill="black" stroke="black" points="985.81,-323.07 982.59,-312.97 978.81,-322.87 985.81,-323.07"/>
</g>
<!-- agent_worker_hono_reviewer&#45;&gt;agent_worker_rls_reviewer -->
<!-- agent_worker_hono_reviewer&#45;&gt;agent_worker_rls_reviewer -->
<!-- agent_worker_r_reviewer&#45;&gt;skill_ref_specialist_output_schema -->
<g id="edge48" class="edge">
<title>agent_worker_r_reviewer&#45;&gt;skill_ref_specialist_output_schema</title>
<path fill="none" stroke="black" stroke-dasharray="1,5" d="M791.4,-866.68C811.92,-862.3 833.24,-854.07 848.19,-838.84 922.25,-763.41 967.5,-423.99 979.48,-323.17"/>
<polygon fill="black" stroke="black" points="982.97,-323.46 980.66,-313.12 976.02,-322.65 982.97,-323.46"/>
</g>
<!-- agent_worker_r_reviewer&#45;&gt;agent_worker_e2e_reviewer -->
<!-- agent_worker_r_reviewer&#45;&gt;agent_worker_e2e_reviewer -->
<!-- agent_worker_llm_output_reviewer&#45;&gt;skill_ref_specialist_output_schema -->
<g id="edge49" class="edge">
<title>agent_worker_llm_output_reviewer&#45;&gt;skill_ref_specialist_output_schema</title>
<path fill="none" stroke="black" stroke-dasharray="1,5" d="M805.86,-539.48C820.89,-534.79 835.79,-528.18 848.19,-518.84 916.55,-467.37 957.2,-370.11 973.85,-322.5"/>
<polygon fill="black" stroke="black" points="977.23,-323.46 977.14,-312.86 970.6,-321.2 977.23,-323.46"/>
</g>
<!-- agent_worker_llm_output_reviewer&#45;&gt;agent_worker_llm_eval_runner -->
<!-- agent_worker_llm_output_reviewer&#45;&gt;agent_worker_llm_eval_runner -->
<!-- agent_worker_llm_eval_runner&#45;&gt;skill_ref_specialist_output_schema -->
<g id="edge50" class="edge">
<title>agent_worker_llm_eval_runner&#45;&gt;skill_ref_specialist_output_schema</title>
<path fill="none" stroke="black" stroke-dasharray="1,5" d="M796.62,-476.24C814.32,-471.5 832.73,-464.67 848.19,-454.84 902.02,-420.62 945.34,-357.95 967.21,-322.04"/>
<polygon fill="black" stroke="black" points="970.43,-323.48 972.54,-313.1 964.41,-319.89 970.43,-323.48"/>
</g>
<!-- agent_worker_llm_eval_runner&#45;&gt;agent_worker_data_validator -->
<!-- agent_worker_llm_eval_runner&#45;&gt;agent_worker_data_validator -->
<!-- agent_e2e_quality&#45;&gt;skill_ref_specialist_output_schema -->
<g id="edge51" class="edge">
<title>agent_e2e_quality&#45;&gt;skill_ref_specialist_output_schema</title>
<path fill="none" stroke="black" stroke-dasharray="1,5" d="M772.66,-185.34C795.88,-190.45 824.37,-199.67 848.19,-211.84 876.76,-226.45 878.03,-239.46 906.19,-254.84 918.6,-261.63 932.94,-267.52 945.82,-272.84"/>
<polygon fill="black" stroke="black" points="944.76,-276.19 955.33,-276.8 947.45,-269.73 944.76,-276.19"/>
</g>
<!-- agent_e2e_quality&#45;&gt;skill_ref_specialist_output_schema -->
<!-- script_tech_stack_detect&#45;&gt;script_checkpoint_write -->
<!-- script_specialist_output_parse&#45;&gt;script_tech_stack_detect -->
<!-- script_specialist_output_parse&#45;&gt;script_tech_stack_detect -->
<!-- script_checkpoint_write&#45;&gt;agent_worker_structure -->
</g>
</svg>
