<?xml version="1.0" encoding="UTF-8" standalone="no"?>
<!DOCTYPE svg PUBLIC "-//W3C//DTD SVG 1.1//EN"
 "http://www.w3.org/Graphics/SVG/1.1/DTD/svg11.dtd">
<!-- Generated by graphviz version 2.43.0 (0)
 -->
<!-- Title: Dependencies Pages: 1 -->
<svg width="566pt" height="444pt"
 viewBox="0.00 0.00 566.23 444.49" xmlns="http://www.w3.org/2000/svg" xmlns:xlink="http://www.w3.org/1999/xlink">
<g id="graph0" class="graph" transform="scale(1 1) rotate(0) translate(4 440.49)">
<title>Dependencies</title>
<polygon fill="white" stroke="transparent" points="-4,4 -4,-440.49 562.23,-440.49 562.23,4 -4,4"/>
<text text-anchor="middle" x="279.12" y="-421.29" font-family="Helvetica,sans-Serif" font-size="14.00">co&#45;observer</text>
<!-- skill_co_observer -->
<g id="node1" class="node">
<title>skill_co_observer</title>
<ellipse fill="#c8e6c9" stroke="black" cx="65.05" cy="-192" rx="65.11" ry="21.43"/>
<text text-anchor="middle" x="65.05" y="-195" font-family="Helvetica,sans-Serif" font-size="10.00">twl:co&#45;observer</text>
<text text-anchor="middle" x="65.05" y="-184" font-family="Helvetica,sans-Serif" font-size="10.00">(407 tok)</text>
</g>
<!-- skill_observation_pattern_catalog -->
<g id="node2" class="node">
<title>skill_observation_pattern_catalog</title>
<polygon fill="#e1f5fe" stroke="black" points="535.67,-36 370.67,-36 370.67,0 541.67,0 541.67,-30 535.67,-36"/>
<polyline fill="none" stroke="black" points="535.67,-36 535.67,-30 "/>
<polyline fill="none" stroke="black" points="541.67,-30 535.67,-30 "/>
<text text-anchor="middle" x="456.17" y="-21" font-family="Helvetica,sans-Serif" font-size="10.00">twl:observation&#45;pattern&#45;catalog</text>
<text text-anchor="middle" x="456.17" y="-10" font-family="Helvetica,sans-Serif" font-size="10.00">(725 tok)</text>
</g>
<!-- skill_co_observer&#45;&gt;skill_observation_pattern_catalog -->
<g id="edge7" class="edge">
<title>skill_co_observer&#45;&gt;skill_observation_pattern_catalog</title>
<path fill="none" stroke="black" d="M76.76,-171.07C94.78,-138.26 134.53,-75.55 188.11,-47 240.5,-19.08 306.82,-11.75 360.26,-11.45"/>
<polygon fill="black" stroke="black" points="360.42,-14.95 370.43,-11.47 360.44,-7.95 360.42,-14.95"/>
</g>
<!-- skill_intervention_catalog -->
<g id="node3" class="node">
<title>skill_intervention_catalog</title>
<polygon fill="#e1f5fe" stroke="black" points="517.17,-94 389.17,-94 389.17,-58 523.17,-58 523.17,-88 517.17,-94"/>
<polyline fill="none" stroke="black" points="517.17,-94 517.17,-88 "/>
<polyline fill="none" stroke="black" points="523.17,-88 517.17,-88 "/>
<text text-anchor="middle" x="456.17" y="-79" font-family="Helvetica,sans-Serif" font-size="10.00">twl:intervention&#45;catalog</text>
<text text-anchor="middle" x="456.17" y="-68" font-family="Helvetica,sans-Serif" font-size="10.00">(1,673 tok)</text>
</g>
<!-- skill_co_observer&#45;&gt;skill_intervention_catalog -->
<g id="edge6" class="edge">
<title>skill_co_observer&#45;&gt;skill_intervention_catalog</title>
<path fill="none" stroke="black" d="M85.85,-212.2C108.33,-233.56 147.21,-265.92 188.11,-279 233.83,-293.63 252.95,-300.01 296.11,-279 372.02,-242.04 422.41,-149.37 443.68,-103.13"/>
<polygon fill="black" stroke="black" points="446.88,-104.56 447.78,-94 440.49,-101.69 446.88,-104.56"/>
</g>
<!-- cmd_observe_once -->
<g id="node4" class="node">
<title>cmd_observe_once</title>
<polygon fill="#e3f2fd" stroke="black" points="283.61,-372 200.61,-372 200.61,-336 283.61,-336 283.61,-372"/>
<text text-anchor="middle" x="242.11" y="-357" font-family="Helvetica,sans-Serif" font-size="10.00">observe&#45;once</text>
<text text-anchor="middle" x="242.11" y="-346" font-family="Helvetica,sans-Serif" font-size="10.00">(436 tok)</text>
</g>
<!-- skill_co_observer&#45;&gt;cmd_observe_once -->
<g id="edge1" class="edge">
<title>skill_co_observer&#45;&gt;cmd_observe_once</title>
<path fill="none" stroke="black" d="M83.4,-212.72C106.01,-239.05 147.46,-285.14 188.11,-319 192.67,-322.8 197.65,-326.54 202.68,-330.1"/>
<polygon fill="black" stroke="black" points="200.89,-333.11 211.12,-335.86 204.84,-327.33 200.89,-333.11"/>
</g>
<!-- cmd_problem_detect -->
<g id="node5" class="node">
<title>cmd_problem_detect</title>
<polygon fill="#e3f2fd" stroke="black" points="288.11,-268 196.11,-268 196.11,-232 288.11,-232 288.11,-268"/>
<text text-anchor="middle" x="242.11" y="-253" font-family="Helvetica,sans-Serif" font-size="10.00">problem&#45;detect</text>
<text text-anchor="middle" x="242.11" y="-242" font-family="Helvetica,sans-Serif" font-size="10.00">(678 tok)</text>
</g>
<!-- skill_co_observer&#45;&gt;cmd_problem_detect -->
<g id="edge2" class="edge">
<title>skill_co_observer&#45;&gt;cmd_problem_detect</title>
<path fill="none" stroke="black" d="M111.59,-207.09C134.47,-214.67 162.37,-223.91 186.41,-231.88"/>
<polygon fill="black" stroke="black" points="185.51,-235.27 196.1,-235.09 187.71,-228.62 185.51,-235.27"/>
</g>
<!-- cmd_intervene_auto -->
<g id="node6" class="node">
<title>cmd_intervene_auto</title>
<polygon fill="#e3f2fd" stroke="black" points="286.61,-210 197.61,-210 197.61,-174 286.61,-174 286.61,-210"/>
<text text-anchor="middle" x="242.11" y="-195" font-family="Helvetica,sans-Serif" font-size="10.00">intervene&#45;auto</text>
<text text-anchor="middle" x="242.11" y="-184" font-family="Helvetica,sans-Serif" font-size="10.00">(707 tok)</text>
</g>
<!-- skill_co_observer&#45;&gt;cmd_intervene_auto -->
<g id="edge3" class="edge">
<title>skill_co_observer&#45;&gt;cmd_intervene_auto</title>
<path fill="none" stroke="black" d="M130.24,-192C149.01,-192 169.32,-192 187.37,-192"/>
<polygon fill="black" stroke="black" points="187.42,-195.5 197.42,-192 187.42,-188.5 187.42,-195.5"/>
</g>
<!-- cmd_intervene_confirm -->
<g id="node7" class="node">
<title>cmd_intervene_confirm</title>
<polygon fill="#e3f2fd" stroke="black" points="294.11,-152 190.11,-152 190.11,-116 294.11,-116 294.11,-152"/>
<text text-anchor="middle" x="242.11" y="-137" font-family="Helvetica,sans-Serif" font-size="10.00">intervene&#45;confirm</text>
<text text-anchor="middle" x="242.11" y="-126" font-family="Helvetica,sans-Serif" font-size="10.00">(882 tok)</text>
</g>
<!-- skill_co_observer&#45;&gt;cmd_intervene_confirm -->
<g id="edge4" class="edge">
<title>skill_co_observer&#45;&gt;cmd_intervene_confirm</title>
<path fill="none" stroke="black" d="M111.59,-176.91C132.6,-169.95 157.84,-161.59 180.43,-154.1"/>
<polygon fill="black" stroke="black" points="181.54,-157.42 189.93,-150.96 179.34,-150.78 181.54,-157.42"/>
</g>
<!-- cmd_intervene_escalate -->
<g id="node8" class="node">
<title>cmd_intervene_escalate</title>
<polygon fill="#e3f2fd" stroke="black" points="296.11,-94 188.11,-94 188.11,-58 296.11,-58 296.11,-94"/>
<text text-anchor="middle" x="242.11" y="-79" font-family="Helvetica,sans-Serif" font-size="10.00">intervene&#45;escalate</text>
<text text-anchor="middle" x="242.11" y="-68" font-family="Helvetica,sans-Serif" font-size="10.00">(1,078 tok)</text>
</g>
<!-- skill_co_observer&#45;&gt;cmd_intervene_escalate -->
<g id="edge5" class="edge">
<title>skill_co_observer&#45;&gt;cmd_intervene_escalate</title>
<path fill="none" stroke="black" d="M91.63,-172.42C115.91,-154.15 153.71,-126.56 188.11,-105 191.22,-103.05 194.48,-101.08 197.78,-99.15"/>
<polygon fill="black" stroke="black" points="199.61,-102.14 206.55,-94.13 196.13,-96.06 199.61,-102.14"/>
</g>
<!-- skill_intervention_catalog&#45;&gt;skill_observation_pattern_catalog -->
<!-- cmd_observe_once&#45;&gt;cmd_problem_detect -->
<!-- cmd_observe_once&#45;&gt;cmd_problem_detect -->
<!-- script_observe_wrapper -->
<g id="node9" class="node">
<title>script_observe_wrapper</title>
<polygon fill="#ff9800" stroke="black" points="536.84,-389 496.5,-413.49 415.84,-413.49 375.5,-389 415.84,-364.51 496.5,-364.51 536.84,-389"/>
<text text-anchor="middle" x="456.17" y="-392" font-family="Helvetica,sans-Serif" font-size="10.00">observe&#45;wrapper</text>
<text text-anchor="middle" x="456.17" y="-381" font-family="Helvetica,sans-Serif" font-size="10.00">(122 tok)</text>
</g>
<!-- cmd_observe_once&#45;&gt;script_observe_wrapper -->
<g id="edge8" class="edge">
<title>cmd_observe_once&#45;&gt;script_observe_wrapper</title>
<path fill="none" stroke="black" d="M284,-360.75C311.81,-365.34 349.39,-371.54 382.25,-376.96"/>
<polygon fill="black" stroke="black" points="381.84,-380.44 392.28,-378.62 382.98,-373.54 381.84,-380.44"/>
</g>
<!-- script_session_state_wrapper -->
<g id="node10" class="node">
<title>script_session_state_wrapper</title>
<polygon fill="#ff9800" stroke="black" points="558.29,-318 507.23,-342.49 405.11,-342.49 354.05,-318 405.11,-293.51 507.23,-293.51 558.29,-318"/>
<text text-anchor="middle" x="456.17" y="-321" font-family="Helvetica,sans-Serif" font-size="10.00">session&#45;state&#45;wrapper</text>
<text text-anchor="middle" x="456.17" y="-310" font-family="Helvetica,sans-Serif" font-size="10.00">(126 tok)</text>
</g>
<!-- cmd_observe_once&#45;&gt;script_session_state_wrapper -->
<g id="edge9" class="edge">
<title>cmd_observe_once&#45;&gt;script_session_state_wrapper</title>
<path fill="none" stroke="black" d="M284,-347.06C308.43,-342.91 340.41,-337.48 370.1,-332.44"/>
<polygon fill="black" stroke="black" points="370.8,-335.87 380.07,-330.75 369.62,-328.97 370.8,-335.87"/>
</g>
<!-- cmd_problem_detect&#45;&gt;skill_observation_pattern_catalog -->
<g id="edge10" class="edge">
<title>cmd_problem_detect&#45;&gt;skill_observation_pattern_catalog</title>
<path fill="none" stroke="black" d="M284.04,-231.89C288.51,-228.73 292.68,-225.11 296.11,-221 348.37,-158.44 295.26,-103.41 354.11,-47 356.55,-44.66 359.16,-42.51 361.91,-40.53"/>
<polygon fill="black" stroke="black" points="363.94,-43.39 370.54,-35.1 360.21,-37.47 363.94,-43.39"/>
</g>
<!-- cmd_problem_detect&#45;&gt;cmd_intervene_auto -->
<!-- cmd_intervene_auto&#45;&gt;skill_intervention_catalog -->
<g id="edge11" class="edge">
<title>cmd_intervene_auto&#45;&gt;skill_intervention_catalog</title>
<path fill="none" stroke="black" d="M276.24,-173.88C313.09,-153.72 372.72,-121.1 412.9,-99.12"/>
<polygon fill="black" stroke="black" points="414.82,-102.06 421.92,-94.19 411.47,-95.92 414.82,-102.06"/>
</g>
<!-- cmd_intervene_auto&#45;&gt;cmd_intervene_confirm -->
<!-- cmd_intervene_confirm&#45;&gt;skill_intervention_catalog -->
<g id="edge12" class="edge">
<title>cmd_intervene_confirm&#45;&gt;skill_intervention_catalog</title>
<path fill="none" stroke="black" d="M294.17,-120.03C319.72,-113.05 351.14,-104.45 379.43,-96.72"/>
<polygon fill="black" stroke="black" points="380.57,-100.03 389.29,-94.02 378.72,-93.28 380.57,-100.03"/>
</g>
<!-- cmd_intervene_confirm&#45;&gt;cmd_intervene_escalate -->
<!-- cmd_intervene_escalate&#45;&gt;skill_intervention_catalog -->
<g id="edge13" class="edge">
<title>cmd_intervene_escalate&#45;&gt;skill_intervention_catalog</title>
<path fill="none" stroke="black" d="M296.35,-68.74C321.26,-67.72 351.39,-67.49 378.69,-68.04"/>
<polygon fill="black" stroke="black" points="378.91,-71.55 388.99,-68.29 379.08,-64.55 378.91,-71.55"/>
</g>
<!-- cmd_intervene_escalate&#45;&gt;skill_intervention_catalog -->
<!-- script_observe_wrapper&#45;&gt;script_session_state_wrapper -->
<!-- script_observe_wrapper&#45;&gt;script_session_state_wrapper -->
</g>
</svg>
