<?xml version="1.0" encoding="UTF-8" standalone="no"?>
<!DOCTYPE svg PUBLIC "-//W3C//DTD SVG 1.1//EN"
 "http://www.w3.org/Graphics/SVG/1.1/DTD/svg11.dtd">
<!-- Generated by graphviz version 2.43.0 (0)
 -->
<!-- Title: Dependencies Pages: 1 -->
<svg width="721pt" height="814pt"
 viewBox="0.00 0.00 721.25 814.24" xmlns="http://www.w3.org/2000/svg" xmlns:xlink="http://www.w3.org/1999/xlink">
<g id="graph0" class="graph" transform="scale(1 1) rotate(0) translate(4 810.24)">
<title>Dependencies</title>
<polygon fill="white" stroke="transparent" points="-4,4 -4,-810.24 717.25,-810.24 717.25,4 -4,4"/>
<text text-anchor="middle" x="356.62" y="-791.04" font-family="Helvetica,sans-Serif" font-size="14.00">co&#45;issue</text>
<!-- skill_co_issue -->
<g id="node1" class="node">
<title>skill_co_issue</title>
<ellipse fill="#c8e6c9" stroke="black" cx="48.79" cy="-453" rx="48.58" ry="21.43"/>
<text text-anchor="middle" x="48.79" y="-456" font-family="Helvetica,sans-Serif" font-size="10.00">twl:co&#45;issue</text>
<text text-anchor="middle" x="48.79" y="-445" font-family="Helvetica,sans-Serif" font-size="10.00">(1,595 tok)</text>
</g>
<!-- skill_ref_issue_template_bug -->
<g id="node2" class="node">
<title>skill_ref_issue_template_bug</title>
<polygon fill="#e1f5fe" stroke="black" points="691.73,-702 568.73,-702 568.73,-666 697.73,-666 697.73,-696 691.73,-702"/>
<polyline fill="none" stroke="black" points="691.73,-702 691.73,-696 "/>
<polyline fill="none" stroke="black" points="697.73,-696 691.73,-696 "/>
<text text-anchor="middle" x="633.23" y="-687" font-family="Helvetica,sans-Serif" font-size="10.00">twl:ref&#45;issue&#45;template&#45;bug</text>
<text text-anchor="middle" x="633.23" y="-676" font-family="Helvetica,sans-Serif" font-size="10.00">(136 tok)</text>
</g>
<!-- skill_co_issue&#45;&gt;skill_ref_issue_template_bug -->
<g id="edge12" class="edge">
<title>skill_co_issue&#45;&gt;skill_ref_issue_template_bug</title>
<path fill="none" stroke="black" d="M50.05,-474.41C52.03,-529.72 65.84,-677.44 155.58,-740 290.25,-833.89 499.97,-750.08 589.44,-706.49"/>
<polygon fill="black" stroke="black" points="591.07,-709.59 598.48,-702.03 587.97,-703.32 591.07,-709.59"/>
</g>
<!-- skill_ref_issue_template_feature -->
<g id="node3" class="node">
<title>skill_ref_issue_template_feature</title>
<polygon fill="#e1f5fe" stroke="black" points="698.73,-644 561.73,-644 561.73,-608 704.73,-608 704.73,-638 698.73,-644"/>
<polyline fill="none" stroke="black" points="698.73,-644 698.73,-638 "/>
<polyline fill="none" stroke="black" points="704.73,-638 698.73,-638 "/>
<text text-anchor="middle" x="633.23" y="-629" font-family="Helvetica,sans-Serif" font-size="10.00">twl:ref&#45;issue&#45;template&#45;feature</text>
<text text-anchor="middle" x="633.23" y="-618" font-family="Helvetica,sans-Serif" font-size="10.00">(120 tok)</text>
</g>
<!-- skill_co_issue&#45;&gt;skill_ref_issue_template_feature -->
<g id="edge13" class="edge">
<title>skill_co_issue&#45;&gt;skill_ref_issue_template_feature</title>
<path fill="none" stroke="black" d="M50.84,-474.57C54.69,-526.81 72.59,-659.93 155.58,-716 223.22,-761.7 461.73,-686.58 573.55,-647.42"/>
<polygon fill="black" stroke="black" points="574.73,-650.71 583,-644.09 572.4,-644.11 574.73,-650.71"/>
</g>
<!-- skill_ref_project_model -->
<g id="node4" class="node">
<title>skill_ref_project_model</title>
<polygon fill="#e1f5fe" stroke="black" points="679.73,-586 580.73,-586 580.73,-550 685.73,-550 685.73,-580 679.73,-586"/>
<polyline fill="none" stroke="black" points="679.73,-586 679.73,-580 "/>
<polyline fill="none" stroke="black" points="685.73,-580 679.73,-580 "/>
<text text-anchor="middle" x="633.23" y="-571" font-family="Helvetica,sans-Serif" font-size="10.00">twl:ref&#45;project&#45;model</text>
<text text-anchor="middle" x="633.23" y="-560" font-family="Helvetica,sans-Serif" font-size="10.00">(2,148 tok)</text>
</g>
<!-- skill_co_issue&#45;&gt;skill_ref_project_model -->
<g id="edge14" class="edge">
<title>skill_co_issue&#45;&gt;skill_ref_project_model</title>
<path fill="none" stroke="black" d="M51.76,-474.46C57.52,-523.28 79.14,-642.24 155.58,-692 199.91,-720.85 222.43,-700.78 274.58,-692 304.74,-686.92 480.17,-623.66 573.64,-589.52"/>
<polygon fill="black" stroke="black" points="575.05,-592.73 583.24,-586 572.65,-586.15 575.05,-592.73"/>
</g>
<!-- skill_ref_issue_quality_criteria -->
<g id="node5" class="node">
<title>skill_ref_issue_quality_criteria</title>
<polygon fill="#e1f5fe" stroke="black" points="694.23,-477 566.23,-477 566.23,-441 700.23,-441 700.23,-471 694.23,-477"/>
<polyline fill="none" stroke="black" points="694.23,-477 694.23,-471 "/>
<polyline fill="none" stroke="black" points="700.23,-471 694.23,-471 "/>
<text text-anchor="middle" x="633.23" y="-462" font-family="Helvetica,sans-Serif" font-size="10.00">twl:ref&#45;issue&#45;quality&#45;criteria</text>
<text text-anchor="middle" x="633.23" y="-451" font-family="Helvetica,sans-Serif" font-size="10.00">(1,002 tok)</text>
</g>
<!-- skill_co_issue&#45;&gt;skill_ref_issue_quality_criteria -->
<g id="edge15" class="edge">
<title>skill_co_issue&#45;&gt;skill_ref_issue_quality_criteria</title>
<path fill="none" stroke="black" d="M52.89,-474.31C60.71,-519.36 85.87,-623.7 155.58,-667 200.51,-694.91 224.64,-684.4 274.58,-667 305.65,-656.18 303.81,-636.96 332.58,-621 399.69,-583.77 427.72,-599.52 495.22,-563 536.16,-540.85 578.04,-507.12 604.54,-484.12"/>
<polygon fill="black" stroke="black" points="607.04,-486.58 612.25,-477.35 602.42,-481.31 607.04,-486.58"/>
</g>
<!-- skill_ref_glossary_criteria -->
<g id="node6" class="node">
<title>skill_ref_glossary_criteria</title>
<polygon fill="#e1f5fe" stroke="black" points="685.23,-317 575.23,-317 575.23,-281 691.23,-281 691.23,-311 685.23,-317"/>
<polyline fill="none" stroke="black" points="685.23,-317 685.23,-311 "/>
<polyline fill="none" stroke="black" points="691.23,-311 685.23,-311 "/>
<text text-anchor="middle" x="633.23" y="-302" font-family="Helvetica,sans-Serif" font-size="10.00">twl:ref&#45;glossary&#45;criteria</text>
<text text-anchor="middle" x="633.23" y="-291" font-family="Helvetica,sans-Serif" font-size="10.00">(873 tok)</text>
</g>
<!-- skill_co_issue&#45;&gt;skill_ref_glossary_criteria -->
<g id="edge16" class="edge">
<title>skill_co_issue&#45;&gt;skill_ref_glossary_criteria</title>
<path fill="none" stroke="black" d="M55.31,-474.25C66.65,-512.91 96.57,-593.82 155.58,-627 201.68,-652.92 226.31,-648.62 274.58,-627 309.92,-611.17 299.35,-581.87 332.58,-562 396.38,-523.86 441.26,-574.13 495.22,-523 560.85,-460.81 491.31,-393.91 553.22,-328 557.03,-323.94 561.46,-320.44 566.24,-317.44"/>
<polygon fill="black" stroke="black" points="568.08,-320.42 575.16,-312.54 564.71,-314.28 568.08,-320.42"/>
</g>
<!-- cmd_issue_structure -->
<g id="node7" class="node">
<title>cmd_issue_structure</title>
<polygon fill="#e3f2fd" stroke="black" points="255.58,-558 174.58,-558 174.58,-522 255.58,-522 255.58,-558"/>
<text text-anchor="middle" x="215.08" y="-543" font-family="Helvetica,sans-Serif" font-size="10.00">issue&#45;structure</text>
<text text-anchor="middle" x="215.08" y="-532" font-family="Helvetica,sans-Serif" font-size="10.00">(1,227 tok)</text>
</g>
<!-- skill_co_issue&#45;&gt;cmd_issue_structure -->
<g id="edge2" class="edge">
<title>skill_co_issue&#45;&gt;cmd_issue_structure</title>
<path fill="none" stroke="black" d="M79.25,-469.58C100.38,-481.36 129.58,-497.44 155.58,-511 159.59,-513.09 163.77,-515.24 167.97,-517.36"/>
<polygon fill="black" stroke="black" points="166.63,-520.61 177.14,-521.98 169.78,-514.36 166.63,-520.61"/>
</g>
<!-- cmd_issue_create -->
<g id="node8" class="node">
<title>cmd_issue_create</title>
<polygon fill="#e3f2fd" stroke="black" points="250.08,-442 180.08,-442 180.08,-406 250.08,-406 250.08,-442"/>
<text text-anchor="middle" x="215.08" y="-427" font-family="Helvetica,sans-Serif" font-size="10.00">issue&#45;create</text>
<text text-anchor="middle" x="215.08" y="-416" font-family="Helvetica,sans-Serif" font-size="10.00">(985 tok)</text>
</g>
<!-- skill_co_issue&#45;&gt;cmd_issue_create -->
<g id="edge4" class="edge">
<title>skill_co_issue&#45;&gt;cmd_issue_create</title>
<path fill="none" stroke="black" d="M94.25,-445.15C117.76,-441 146.53,-435.92 169.98,-431.78"/>
<polygon fill="black" stroke="black" points="170.77,-435.2 180.01,-430.01 169.56,-428.31 170.77,-435.2"/>
</g>
<!-- cmd_issue_bulk_create -->
<g id="node9" class="node">
<title>cmd_issue_bulk_create</title>
<polygon fill="#e3f2fd" stroke="black" points="260.58,-384 169.58,-384 169.58,-348 260.58,-348 260.58,-384"/>
<text text-anchor="middle" x="215.08" y="-369" font-family="Helvetica,sans-Serif" font-size="10.00">issue&#45;bulk&#45;create</text>
<text text-anchor="middle" x="215.08" y="-358" font-family="Helvetica,sans-Serif" font-size="10.00">(1,667 tok)</text>
</g>
<!-- skill_co_issue&#45;&gt;cmd_issue_bulk_create -->
<g id="edge5" class="edge">
<title>skill_co_issue&#45;&gt;cmd_issue_bulk_create</title>
<path fill="none" stroke="black" d="M79.25,-436.42C100.38,-424.64 129.58,-408.56 155.58,-395 159.59,-392.91 163.77,-390.76 167.97,-388.64"/>
<polygon fill="black" stroke="black" points="169.78,-391.64 177.14,-384.02 166.63,-385.39 169.78,-391.64"/>
</g>
<!-- cmd_issue_tech_debt_absorb -->
<g id="node10" class="node">
<title>cmd_issue_tech_debt_absorb</title>
<polygon fill="#e3f2fd" stroke="black" points="273.08,-500 157.08,-500 157.08,-464 273.08,-464 273.08,-500"/>
<text text-anchor="middle" x="215.08" y="-485" font-family="Helvetica,sans-Serif" font-size="10.00">issue&#45;tech&#45;debt&#45;absorb</text>
<text text-anchor="middle" x="215.08" y="-474" font-family="Helvetica,sans-Serif" font-size="10.00">(709 tok)</text>
</g>
<!-- skill_co_issue&#45;&gt;cmd_issue_tech_debt_absorb -->
<g id="edge3" class="edge">
<title>skill_co_issue&#45;&gt;cmd_issue_tech_debt_absorb</title>
<path fill="none" stroke="black" d="M94.25,-460.85C110.38,-463.69 128.98,-466.98 146.64,-470.1"/>
<polygon fill="black" stroke="black" points="146.45,-473.62 156.9,-471.91 147.66,-466.72 146.45,-473.62"/>
</g>
<!-- cmd_issue_spec_review -->
<g id="node11" class="node">
<title>cmd_issue_spec_review</title>
<polygon fill="#bbdefb" stroke="black" points="262.58,-326 167.58,-326 167.58,-290 262.58,-290 262.58,-326"/>
<text text-anchor="middle" x="215.08" y="-311" font-family="Helvetica,sans-Serif" font-size="10.00">issue&#45;spec&#45;review</text>
<text text-anchor="middle" x="215.08" y="-300" font-family="Helvetica,sans-Serif" font-size="10.00">(1,153 tok)</text>
</g>
<!-- skill_co_issue&#45;&gt;cmd_issue_spec_review -->
<g id="edge6" class="edge">
<title>skill_co_issue&#45;&gt;cmd_issue_spec_review</title>
<path fill="none" stroke="black" d="M64.39,-432.84C83.26,-407.88 118.14,-365.21 155.58,-337 158.21,-335.02 160.99,-333.12 163.86,-331.3"/>
<polygon fill="black" stroke="black" points="165.82,-334.21 172.65,-326.11 162.26,-328.18 165.82,-334.21"/>
</g>
<!-- cmd_issue_review_aggregate -->
<g id="node12" class="node">
<title>cmd_issue_review_aggregate</title>
<polygon fill="#e3f2fd" stroke="black" points="273.58,-268 156.58,-268 156.58,-232 273.58,-232 273.58,-268"/>
<text text-anchor="middle" x="215.08" y="-253" font-family="Helvetica,sans-Serif" font-size="10.00">issue&#45;review&#45;aggregate</text>
<text text-anchor="middle" x="215.08" y="-242" font-family="Helvetica,sans-Serif" font-size="10.00">(1,137 tok)</text>
</g>
<!-- skill_co_issue&#45;&gt;cmd_issue_review_aggregate -->
<g id="edge7" class="edge">
<title>skill_co_issue&#45;&gt;cmd_issue_review_aggregate</title>
<path fill="none" stroke="black" d="M57.97,-431.92C72.69,-396.32 106.74,-323.81 155.58,-279 157.52,-277.22 159.58,-275.53 161.74,-273.92"/>
<polygon fill="black" stroke="black" points="164.04,-276.59 170.42,-268.12 160.16,-270.77 164.04,-276.59"/>
</g>
<!-- cmd_issue_glossary_check -->
<g id="node13" class="node">
<title>cmd_issue_glossary_check</title>
<polygon fill="#e3f2fd" stroke="black" points="269.58,-210 160.58,-210 160.58,-174 269.58,-174 269.58,-210"/>
<text text-anchor="middle" x="215.08" y="-195" font-family="Helvetica,sans-Serif" font-size="10.00">issue&#45;glossary&#45;check</text>
<text text-anchor="middle" x="215.08" y="-184" font-family="Helvetica,sans-Serif" font-size="10.00">(836 tok)</text>
</g>
<!-- skill_co_issue&#45;&gt;cmd_issue_glossary_check -->
<g id="edge8" class="edge">
<title>skill_co_issue&#45;&gt;cmd_issue_glossary_check</title>
<path fill="none" stroke="black" d="M54.39,-431.7C64.97,-387.27 94.92,-283.66 155.58,-221 157.21,-219.31 158.97,-217.71 160.81,-216.18"/>
<polygon fill="black" stroke="black" points="163.3,-218.71 169.36,-210.02 159.2,-213.03 163.3,-218.71"/>
</g>
<!-- cmd_issue_arch_drift -->
<g id="node14" class="node">
<title>cmd_issue_arch_drift</title>
<polygon fill="#e3f2fd" stroke="black" points="255.58,-152 174.58,-152 174.58,-116 255.58,-116 255.58,-152"/>
<text text-anchor="middle" x="215.08" y="-137" font-family="Helvetica,sans-Serif" font-size="10.00">issue&#45;arch&#45;drift</text>
<text text-anchor="middle" x="215.08" y="-126" font-family="Helvetica,sans-Serif" font-size="10.00">(770 tok)</text>
</g>
<!-- skill_co_issue&#45;&gt;cmd_issue_arch_drift -->
<g id="edge9" class="edge">
<title>skill_co_issue&#45;&gt;cmd_issue_arch_drift</title>
<path fill="none" stroke="black" d="M52.13,-431.67C58.9,-379.58 82.84,-244.26 155.58,-163 158.6,-159.63 162.09,-156.61 165.85,-153.9"/>
<polygon fill="black" stroke="black" points="167.82,-156.8 174.39,-148.49 164.07,-150.89 167.82,-156.8"/>
</g>
<!-- cmd_issue_cross_repo_create -->
<g id="node15" class="node">
<title>cmd_issue_cross_repo_create</title>
<polygon fill="#e3f2fd" stroke="black" points="274.58,-94 155.58,-94 155.58,-58 274.58,-58 274.58,-94"/>
<text text-anchor="middle" x="215.08" y="-79" font-family="Helvetica,sans-Serif" font-size="10.00">issue&#45;cross&#45;repo&#45;create</text>
<text text-anchor="middle" x="215.08" y="-68" font-family="Helvetica,sans-Serif" font-size="10.00">(1,406 tok)</text>
</g>
<!-- skill_co_issue&#45;&gt;cmd_issue_cross_repo_create -->
<g id="edge10" class="edge">
<title>skill_co_issue&#45;&gt;cmd_issue_cross_repo_create</title>
<path fill="none" stroke="black" d="M50.6,-431.45C53.9,-372.32 70.68,-205.22 155.58,-105 156.9,-103.44 158.32,-101.96 159.83,-100.55"/>
<polygon fill="black" stroke="black" points="162.29,-103.06 167.94,-94.1 157.94,-97.58 162.29,-103.06"/>
</g>
<!-- cmd_project_board_sync -->
<g id="node16" class="node">
<title>cmd_project_board_sync</title>
<polygon fill="#e3f2fd" stroke="black" points="263.58,-36 166.58,-36 166.58,0 263.58,0 263.58,-36"/>
<text text-anchor="middle" x="215.08" y="-21" font-family="Helvetica,sans-Serif" font-size="10.00">project&#45;board&#45;sync</text>
<text text-anchor="middle" x="215.08" y="-10" font-family="Helvetica,sans-Serif" font-size="10.00">(1,167 tok)</text>
</g>
<!-- skill_co_issue&#45;&gt;cmd_project_board_sync -->
<g id="edge11" class="edge">
<title>skill_co_issue&#45;&gt;cmd_project_board_sync</title>
<path fill="none" stroke="black" d="M49.46,-431.76C49.54,-366.61 58.15,-166.81 155.58,-47 156.84,-45.45 158.21,-43.98 159.65,-42.57"/>
<polygon fill="black" stroke="black" points="161.97,-45.2 167.49,-36.16 157.54,-39.78 161.97,-45.2"/>
</g>
<!-- cmd_explore -->
<g id="node17" class="node">
<title>cmd_explore</title>
<polygon fill="#e3f2fd" stroke="black" points="246.58,-616 183.58,-616 183.58,-580 246.58,-580 246.58,-616"/>
<text text-anchor="middle" x="215.08" y="-601" font-family="Helvetica,sans-Serif" font-size="10.00">explore</text>
<text text-anchor="middle" x="215.08" y="-590" font-family="Helvetica,sans-Serif" font-size="10.00">(1,490 tok)</text>
</g>
<!-- skill_co_issue&#45;&gt;cmd_explore -->
<g id="edge1" class="edge">
<title>skill_co_issue&#45;&gt;cmd_explore</title>
<path fill="none" stroke="black" d="M64.39,-473.16C83.26,-498.12 118.14,-540.79 155.58,-569 161.24,-573.26 167.62,-577.17 174.03,-580.65"/>
<polygon fill="black" stroke="black" points="172.87,-583.99 183.37,-585.42 176.06,-577.75 172.87,-583.99"/>
</g>
<!-- skill_ref_issue_template_bug&#45;&gt;skill_ref_issue_template_feature -->
<!-- skill_ref_issue_template_feature&#45;&gt;skill_ref_project_model -->
<!-- skill_ref_project_model&#45;&gt;skill_ref_issue_quality_criteria -->
<!-- skill_ref_issue_quality_criteria&#45;&gt;skill_ref_glossary_criteria -->
<!-- cmd_issue_structure&#45;&gt;cmd_issue_tech_debt_absorb -->
<!-- cmd_issue_create&#45;&gt;cmd_issue_bulk_create -->
<!-- cmd_issue_bulk_create&#45;&gt;cmd_issue_spec_review -->
<!-- cmd_issue_tech_debt_absorb&#45;&gt;cmd_issue_create -->
<!-- cmd_issue_spec_review&#45;&gt;cmd_issue_review_aggregate -->
<!-- agent_issue_critic -->
<g id="node18" class="node">
<title>agent_issue_critic</title>
<ellipse fill="#ede7f6" stroke="black" cx="413.9" cy="-491" rx="45.01" ry="21.43"/>
<text text-anchor="middle" x="413.9" y="-494" font-family="Helvetica,sans-Serif" font-size="10.00">issue&#45;critic</text>
<text text-anchor="middle" x="413.9" y="-483" font-family="Helvetica,sans-Serif" font-size="10.00">(1,268 tok)</text>
</g>
<!-- cmd_issue_spec_review&#45;&gt;agent_issue_critic -->
<g id="edge17" class="edge">
<title>cmd_issue_spec_review&#45;&gt;agent_issue_critic</title>
<path fill="none" stroke="black" stroke-dasharray="5,2" d="M260.74,-326.08C265.77,-329.25 270.53,-332.88 274.58,-337 316.68,-379.8 288.78,-417.94 332.58,-459 341.39,-467.26 352.6,-473.49 363.83,-478.15"/>
<polygon fill="black" stroke="black" points="362.62,-481.43 373.21,-481.7 365.1,-474.89 362.62,-481.43"/>
</g>
<!-- agent_issue_feasibility -->
<g id="node19" class="node">
<title>agent_issue_feasibility</title>
<ellipse fill="#ede7f6" stroke="black" cx="413.9" cy="-427" rx="59.29" ry="21.43"/>
<text text-anchor="middle" x="413.9" y="-430" font-family="Helvetica,sans-Serif" font-size="10.00">issue&#45;feasibility</text>
<text text-anchor="middle" x="413.9" y="-419" font-family="Helvetica,sans-Serif" font-size="10.00">(1,175 tok)</text>
</g>
<!-- cmd_issue_spec_review&#45;&gt;agent_issue_feasibility -->
<g id="edge18" class="edge">
<title>cmd_issue_spec_review&#45;&gt;agent_issue_feasibility</title>
<path fill="none" stroke="black" stroke-dasharray="5,2" d="M257.04,-326.16C263.11,-329.46 269.15,-333.1 274.58,-337 304.19,-358.27 302.13,-374.95 332.58,-395 340.85,-400.45 350.2,-405.21 359.52,-409.29"/>
<polygon fill="black" stroke="black" points="358.2,-412.53 368.78,-413.13 360.88,-406.07 358.2,-412.53"/>
</g>
<!-- agent_worker_codex_reviewer -->
<g id="node20" class="node">
<title>agent_worker_codex_reviewer</title>
<ellipse fill="#ede7f6" stroke="black" cx="413.9" cy="-363" rx="81.13" ry="21.43"/>
<text text-anchor="middle" x="413.9" y="-366" font-family="Helvetica,sans-Serif" font-size="10.00">worker&#45;codex&#45;reviewer</text>
<text text-anchor="middle" x="413.9" y="-355" font-family="Helvetica,sans-Serif" font-size="10.00">(1,421 tok)</text>
</g>
<!-- cmd_issue_spec_review&#45;&gt;agent_worker_codex_reviewer -->
<g id="edge19" class="edge">
<title>cmd_issue_spec_review&#45;&gt;agent_worker_codex_reviewer</title>
<path fill="none" stroke="black" stroke-dasharray="5,2" d="M262.72,-321.03C288.25,-328.17 320.26,-337.11 348.17,-344.91"/>
<polygon fill="black" stroke="black" points="347.28,-348.3 357.85,-347.62 349.17,-341.56 347.28,-348.3"/>
</g>
<!-- script_escape_issue_body -->
<g id="node21" class="node">
<title>script_escape_issue_body</title>
<polygon fill="#ff9800" stroke="black" points="713.27,-363 673.25,-387.49 593.22,-387.49 553.2,-363 593.22,-338.51 673.25,-338.51 713.27,-363"/>
<text text-anchor="middle" x="633.23" y="-366" font-family="Helvetica,sans-Serif" font-size="10.00">escape&#45;issue&#45;body</text>
<text text-anchor="middle" x="633.23" y="-355" font-family="Helvetica,sans-Serif" font-size="10.00">(63 tok)</text>
</g>
<!-- cmd_issue_spec_review&#45;&gt;script_escape_issue_body -->
<g id="edge20" class="edge">
<title>cmd_issue_spec_review&#45;&gt;script_escape_issue_body</title>
<path fill="none" stroke="black" d="M262.76,-309.74C318.39,-312.31 414.03,-318.25 495.22,-331 518.97,-334.73 544.71,-340.32 567.41,-345.8"/>
<polygon fill="black" stroke="black" points="566.72,-349.23 577.26,-348.21 568.38,-342.43 566.72,-349.23"/>
</g>
<!-- cmd_issue_review_aggregate&#45;&gt;cmd_issue_glossary_check -->
<!-- cmd_issue_glossary_check&#45;&gt;skill_ref_glossary_criteria -->
<g id="edge21" class="edge">
<title>cmd_issue_glossary_check&#45;&gt;skill_ref_glossary_criteria</title>
<path fill="none" stroke="black" d="M269.63,-205.77C345.26,-225.21 483.27,-260.7 565.48,-281.84"/>
<polygon fill="black" stroke="black" points="564.66,-285.24 575.22,-284.34 566.41,-278.46 564.66,-285.24"/>
</g>
<!-- cmd_issue_glossary_check&#45;&gt;cmd_issue_arch_drift -->
<!-- cmd_issue_arch_drift&#45;&gt;cmd_issue_cross_repo_create -->
<!-- cmd_issue_cross_repo_create&#45;&gt;cmd_project_board_sync -->
<!-- cmd_project_board_sync&#45;&gt;skill_ref_issue_template_bug -->
<!-- cmd_explore&#45;&gt;cmd_issue_structure -->
<!-- agent_issue_critic&#45;&gt;skill_ref_issue_quality_criteria -->
<g id="edge22" class="edge">
<title>agent_issue_critic&#45;&gt;skill_ref_issue_quality_criteria</title>
<path fill="none" stroke="black" stroke-dasharray="1,5" d="M457.32,-484.75C485.31,-480.63 522.77,-475.12 555.85,-470.25"/>
<polygon fill="black" stroke="black" points="556.58,-473.68 565.96,-468.76 555.56,-466.75 556.58,-473.68"/>
</g>
<!-- agent_issue_critic&#45;&gt;agent_issue_feasibility -->
<!-- agent_issue_feasibility&#45;&gt;skill_ref_issue_quality_criteria -->
<g id="edge23" class="edge">
<title>agent_issue_feasibility&#45;&gt;skill_ref_issue_quality_criteria</title>
<path fill="none" stroke="black" stroke-dasharray="1,5" d="M469.18,-434.99C495.38,-438.85 527.27,-443.55 555.88,-447.76"/>
<polygon fill="black" stroke="black" points="555.44,-451.23 565.84,-449.23 556.46,-444.31 555.44,-451.23"/>
</g>
<!-- agent_issue_feasibility&#45;&gt;agent_worker_codex_reviewer -->
<!-- agent_worker_codex_reviewer&#45;&gt;skill_ref_issue_quality_criteria -->
<g id="edge24" class="edge">
<title>agent_worker_codex_reviewer&#45;&gt;skill_ref_issue_quality_criteria</title>
<path fill="none" stroke="black" stroke-dasharray="1,5" d="M460.12,-380.48C471.62,-385.08 483.92,-390.12 495.22,-395 525.59,-408.13 559.26,-423.84 585.62,-436.41"/>
<polygon fill="black" stroke="black" points="584.46,-439.73 594.99,-440.89 587.48,-433.42 584.46,-439.73"/>
</g>
<!-- agent_worker_codex_reviewer&#45;&gt;script_escape_issue_body -->
</g>
</svg>
