<?xml version="1.0" encoding="UTF-8" standalone="no"?>
<!DOCTYPE svg PUBLIC "-//W3C//DTD SVG 1.1//EN"
 "http://www.w3.org/Graphics/SVG/1.1/DTD/svg11.dtd">
<!-- Generated by graphviz version 2.43.0 (0)
 -->
<!-- Title: Dependencies Pages: 1 -->
<svg width="1074pt" height="1638pt"
 viewBox="0.00 0.00 1074.43 1638.49" xmlns="http://www.w3.org/2000/svg" xmlns:xlink="http://www.w3.org/1999/xlink">
<g id="graph0" class="graph" transform="scale(1 1) rotate(0) translate(4 1634.49)">
<title>Dependencies</title>
<polygon fill="white" stroke="transparent" points="-4,4 -4,-1634.49 1070.43,-1634.49 1070.43,4 -4,4"/>
<text text-anchor="middle" x="533.22" y="-1615.29" font-family="Helvetica,sans-Serif" font-size="14.00">workflow&#45;pr&#45;merge</text>
<!-- skill_workflow_pr_merge -->
<g id="node1" class="node">
<title>skill_workflow_pr_merge</title>
<ellipse fill="#e8f5e9" stroke="black" cx="79.9" cy="-949" rx="79.81" ry="21.43"/>
<text text-anchor="middle" x="79.9" y="-952" font-family="Helvetica,sans-Serif" font-size="10.00">twl:workflow&#45;pr&#45;merge</text>
<text text-anchor="middle" x="79.9" y="-941" font-family="Helvetica,sans-Serif" font-size="10.00">(1,091 tok)</text>
</g>
<!-- cmd_pr_cycle_report -->
<g id="node6" class="node">
<title>cmd_pr_cycle_report</title>
<polygon fill="#e3f2fd" stroke="black" points="302.31,-1054 223.31,-1054 223.31,-1018 302.31,-1018 302.31,-1054"/>
<text text-anchor="middle" x="262.81" y="-1039" font-family="Helvetica,sans-Serif" font-size="10.00">pr&#45;cycle&#45;report</text>
<text text-anchor="middle" x="262.81" y="-1028" font-family="Helvetica,sans-Serif" font-size="10.00">(329 tok)</text>
</g>
<!-- skill_workflow_pr_merge&#45;&gt;cmd_pr_cycle_report -->
<g id="edge2" class="edge">
<title>skill_workflow_pr_merge&#45;&gt;cmd_pr_cycle_report</title>
<path fill="none" stroke="black" d="M119.71,-967.66C147.63,-981.09 185.42,-999.26 215,-1013.49"/>
<polygon fill="black" stroke="black" points="213.77,-1016.78 224.3,-1017.96 216.81,-1010.47 213.77,-1016.78"/>
</g>
<!-- cmd_all_pass_check -->
<g id="node7" class="node">
<title>cmd_all_pass_check</title>
<polygon fill="#e3f2fd" stroke="black" points="302.81,-938 222.81,-938 222.81,-902 302.81,-902 302.81,-938"/>
<text text-anchor="middle" x="262.81" y="-923" font-family="Helvetica,sans-Serif" font-size="10.00">all&#45;pass&#45;check</text>
<text text-anchor="middle" x="262.81" y="-912" font-family="Helvetica,sans-Serif" font-size="10.00">(817 tok)</text>
</g>
<!-- skill_workflow_pr_merge&#45;&gt;cmd_all_pass_check -->
<g id="edge4" class="edge">
<title>skill_workflow_pr_merge&#45;&gt;cmd_all_pass_check</title>
<path fill="none" stroke="black" d="M148.78,-938.12C170.04,-934.71 193.07,-931.02 212.77,-927.86"/>
<polygon fill="black" stroke="black" points="213.42,-931.3 222.74,-926.26 212.31,-924.39 213.42,-931.3"/>
</g>
<!-- cmd_e2e_screening -->
<g id="node8" class="node">
<title>cmd_e2e_screening</title>
<polygon fill="#bbdefb" stroke="black" points="301.31,-1112 224.31,-1112 224.31,-1076 301.31,-1076 301.31,-1112"/>
<text text-anchor="middle" x="262.81" y="-1097" font-family="Helvetica,sans-Serif" font-size="10.00">e2e&#45;screening</text>
<text text-anchor="middle" x="262.81" y="-1086" font-family="Helvetica,sans-Serif" font-size="10.00">(440 tok)</text>
</g>
<!-- skill_workflow_pr_merge&#45;&gt;cmd_e2e_screening -->
<g id="edge1" class="edge">
<title>skill_workflow_pr_merge&#45;&gt;cmd_e2e_screening</title>
<path fill="none" stroke="black" d="M103.46,-969.58C130.05,-993.47 175.92,-1033.63 217.81,-1065 219.92,-1066.58 222.12,-1068.18 224.35,-1069.76"/>
<polygon fill="black" stroke="black" points="222.84,-1072.97 233.06,-1075.77 226.82,-1067.21 222.84,-1072.97"/>
</g>
<!-- cmd_merge_gate -->
<g id="node9" class="node">
<title>cmd_merge_gate</title>
<polygon fill="#bbdefb" stroke="black" points="295.31,-880 230.31,-880 230.31,-844 295.31,-844 295.31,-880"/>
<text text-anchor="middle" x="262.81" y="-865" font-family="Helvetica,sans-Serif" font-size="10.00">merge&#45;gate</text>
<text text-anchor="middle" x="262.81" y="-854" font-family="Helvetica,sans-Serif" font-size="10.00">(1,861 tok)</text>
</g>
<!-- skill_workflow_pr_merge&#45;&gt;cmd_merge_gate -->
<g id="edge5" class="edge">
<title>skill_workflow_pr_merge&#45;&gt;cmd_merge_gate</title>
<path fill="none" stroke="black" d="M119.71,-930.34C149.63,-915.95 190.89,-896.11 221.24,-881.51"/>
<polygon fill="black" stroke="black" points="222.79,-884.65 230.28,-877.16 219.75,-878.34 222.79,-884.65"/>
</g>
<!-- cmd_auto_merge -->
<g id="node10" class="node">
<title>cmd_auto_merge</title>
<polygon fill="#e3f2fd" stroke="black" points="295.31,-822 230.31,-822 230.31,-786 295.31,-786 295.31,-822"/>
<text text-anchor="middle" x="262.81" y="-807" font-family="Helvetica,sans-Serif" font-size="10.00">auto&#45;merge</text>
<text text-anchor="middle" x="262.81" y="-796" font-family="Helvetica,sans-Serif" font-size="10.00">(296 tok)</text>
</g>
<!-- skill_workflow_pr_merge&#45;&gt;cmd_auto_merge -->
<g id="edge6" class="edge">
<title>skill_workflow_pr_merge&#45;&gt;cmd_auto_merge</title>
<path fill="none" stroke="black" d="M103.46,-928.42C130.05,-904.53 175.92,-864.37 217.81,-833 219.92,-831.42 222.12,-829.82 224.35,-828.24"/>
<polygon fill="black" stroke="black" points="226.82,-830.79 233.06,-822.23 222.84,-825.03 226.82,-830.79"/>
</g>
<!-- cmd_pr_cycle_analysis -->
<g id="node11" class="node">
<title>cmd_pr_cycle_analysis</title>
<polygon fill="#e3f2fd" stroke="black" points="307.81,-996 217.81,-996 217.81,-960 307.81,-960 307.81,-996"/>
<text text-anchor="middle" x="262.81" y="-981" font-family="Helvetica,sans-Serif" font-size="10.00">pr&#45;cycle&#45;analysis</text>
<text text-anchor="middle" x="262.81" y="-970" font-family="Helvetica,sans-Serif" font-size="10.00">(974 tok)</text>
</g>
<!-- skill_workflow_pr_merge&#45;&gt;cmd_pr_cycle_analysis -->
<g id="edge3" class="edge">
<title>skill_workflow_pr_merge&#45;&gt;cmd_pr_cycle_analysis</title>
<path fill="none" stroke="black" d="M148.78,-959.88C168.24,-963 189.18,-966.36 207.69,-969.32"/>
<polygon fill="black" stroke="black" points="207.27,-972.8 217.7,-970.93 208.38,-965.89 207.27,-972.8"/>
</g>
<!-- skill_ref_specialist_output_schema -->
<g id="node2" class="node">
<title>skill_ref_specialist_output_schema</title>
<polygon fill="#e1f5fe" stroke="black" points="1060.43,-210 911.43,-210 911.43,-174 1066.43,-174 1066.43,-204 1060.43,-210"/>
<polyline fill="none" stroke="black" points="1060.43,-210 1060.43,-204 "/>
<polyline fill="none" stroke="black" points="1066.43,-204 1060.43,-204 "/>
<text text-anchor="middle" x="988.93" y="-195" font-family="Helvetica,sans-Serif" font-size="10.00">twl:ref&#45;specialist&#45;output&#45;schema</text>
<text text-anchor="middle" x="988.93" y="-184" font-family="Helvetica,sans-Serif" font-size="10.00">(2,563 tok)</text>
</g>
<!-- skill_baseline_coding_style -->
<g id="node3" class="node">
<title>skill_baseline_coding_style</title>
<polygon fill="#e1f5fe" stroke="black" points="1044.93,-152 926.93,-152 926.93,-116 1050.93,-116 1050.93,-146 1044.93,-152"/>
<polyline fill="none" stroke="black" points="1044.93,-152 1044.93,-146 "/>
<polyline fill="none" stroke="black" points="1050.93,-146 1044.93,-146 "/>
<text text-anchor="middle" x="988.93" y="-137" font-family="Helvetica,sans-Serif" font-size="10.00">twl:baseline&#45;coding&#45;style</text>
<text text-anchor="middle" x="988.93" y="-126" font-family="Helvetica,sans-Serif" font-size="10.00">(1,570 tok)</text>
</g>
<!-- skill_ref_specialist_output_schema&#45;&gt;skill_baseline_coding_style -->
<!-- skill_ref_specialist_output_schema&#45;&gt;skill_baseline_coding_style -->
<!-- skill_baseline_security_checklist -->
<g id="node4" class="node">
<title>skill_baseline_security_checklist</title>
<polygon fill="#e1f5fe" stroke="black" points="1056.93,-94 914.93,-94 914.93,-58 1062.93,-58 1062.93,-88 1056.93,-94"/>
<polyline fill="none" stroke="black" points="1056.93,-94 1056.93,-88 "/>
<polyline fill="none" stroke="black" points="1062.93,-88 1056.93,-88 "/>
<text text-anchor="middle" x="988.93" y="-79" font-family="Helvetica,sans-Serif" font-size="10.00">twl:baseline&#45;security&#45;checklist</text>
<text text-anchor="middle" x="988.93" y="-68" font-family="Helvetica,sans-Serif" font-size="10.00">(1,815 tok)</text>
</g>
<!-- skill_baseline_coding_style&#45;&gt;skill_baseline_security_checklist -->
<!-- skill_baseline_coding_style&#45;&gt;skill_baseline_security_checklist -->
<!-- skill_baseline_input_validation -->
<g id="node5" class="node">
<title>skill_baseline_input_validation</title>
<polygon fill="#e1f5fe" stroke="black" points="1051.43,-36 920.43,-36 920.43,0 1057.43,0 1057.43,-30 1051.43,-36"/>
<polyline fill="none" stroke="black" points="1051.43,-36 1051.43,-30 "/>
<polyline fill="none" stroke="black" points="1057.43,-30 1051.43,-30 "/>
<text text-anchor="middle" x="988.93" y="-21" font-family="Helvetica,sans-Serif" font-size="10.00">twl:baseline&#45;input&#45;validation</text>
<text text-anchor="middle" x="988.93" y="-10" font-family="Helvetica,sans-Serif" font-size="10.00">(1,408 tok)</text>
</g>
<!-- skill_baseline_security_checklist&#45;&gt;skill_baseline_input_validation -->
<!-- skill_baseline_security_checklist&#45;&gt;skill_baseline_input_validation -->
<!-- cmd_pr_cycle_report&#45;&gt;cmd_pr_cycle_analysis -->
<!-- cmd_all_pass_check&#45;&gt;cmd_merge_gate -->
<!-- script_state_write -->
<g id="node30" class="node">
<title>script_state_write</title>
<polygon fill="#ff9800" stroke="black" points="511.08,-1583 485.39,-1607.49 434.01,-1607.49 408.32,-1583 434.01,-1558.51 485.39,-1558.51 511.08,-1583"/>
<text text-anchor="middle" x="459.7" y="-1586" font-family="Helvetica,sans-Serif" font-size="10.00">state&#45;write</text>
<text text-anchor="middle" x="459.7" y="-1575" font-family="Helvetica,sans-Serif" font-size="10.00">(2,571 tok)</text>
</g>
<!-- cmd_all_pass_check&#45;&gt;script_state_write -->
<g id="edge7" class="edge">
<title>cmd_all_pass_check&#45;&gt;script_state_write</title>
<path fill="none" stroke="black" d="M298.42,-938.13C302.08,-941.31 305.35,-944.93 307.81,-949 376.72,-1063.35 285.12,-1440.62 365.81,-1547 375.5,-1559.77 390.35,-1568.02 405.35,-1573.34"/>
<polygon fill="black" stroke="black" points="404.59,-1576.77 415.18,-1576.43 406.69,-1570.09 404.59,-1576.77"/>
</g>
<!-- cmd_e2e_screening&#45;&gt;cmd_pr_cycle_report -->
<!-- cmd_merge_gate&#45;&gt;skill_ref_specialist_output_schema -->
<g id="edge31" class="edge">
<title>cmd_merge_gate&#45;&gt;skill_ref_specialist_output_schema</title>
<path fill="none" stroke="black" d="M295.56,-879.51C300.05,-882.91 304.32,-886.76 307.81,-891 351.09,-943.67 316.38,-986.04 365.81,-1033 445.58,-1108.79 770.23,-1191 853.43,-1119 923.54,-1058.33 975.47,-370.16 985.98,-220.58"/>
<polygon fill="black" stroke="black" points="989.48,-220.6 986.69,-210.38 982.5,-220.11 989.48,-220.6"/>
</g>
<!-- cmd_merge_gate&#45;&gt;skill_baseline_coding_style -->
<g id="edge32" class="edge">
<title>cmd_merge_gate&#45;&gt;skill_baseline_coding_style</title>
<path fill="none" stroke="black" d="M295.43,-846.36C300.29,-842.63 304.71,-838.19 307.81,-833 383.44,-706.17 259.93,-273.95 365.81,-171 442.27,-96.65 769.91,-114.87 916.52,-127.18"/>
<polygon fill="black" stroke="black" points="916.5,-130.69 926.76,-128.05 917.1,-123.71 916.5,-130.69"/>
</g>
<!-- cmd_merge_gate&#45;&gt;skill_baseline_security_checklist -->
<g id="edge33" class="edge">
<title>cmd_merge_gate&#45;&gt;skill_baseline_security_checklist</title>
<path fill="none" stroke="black" d="M295.46,-846.38C300.32,-842.64 304.73,-838.2 307.81,-833 389.33,-695.24 251.6,-227.17 365.81,-115 439.91,-42.22 752.69,-56.66 904.54,-68.44"/>
<polygon fill="black" stroke="black" points="904.5,-71.95 914.74,-69.24 905.05,-64.97 904.5,-71.95"/>
</g>
<!-- cmd_merge_gate&#45;&gt;skill_baseline_input_validation -->
<g id="edge34" class="edge">
<title>cmd_merge_gate&#45;&gt;skill_baseline_input_validation</title>
<path fill="none" stroke="black" d="M295.48,-846.39C300.34,-842.65 304.75,-838.21 307.81,-833 395.21,-684.31 243.3,-180.41 365.81,-59 440.54,15.06 760.54,0.28 910.2,-11.12"/>
<polygon fill="black" stroke="black" points="910,-14.61 920.24,-11.9 910.54,-7.63 910,-14.61"/>
</g>
<!-- cmd_merge_gate&#45;&gt;cmd_auto_merge -->
<!-- agent_worker_structure -->
<g id="node12" class="node">
<title>agent_worker_structure</title>
<ellipse fill="#ede7f6" stroke="black" cx="732.52" cy="-1325" rx="61.54" ry="21.43"/>
<text text-anchor="middle" x="732.52" y="-1328" font-family="Helvetica,sans-Serif" font-size="10.00">worker&#45;structure</text>
<text text-anchor="middle" x="732.52" y="-1317" font-family="Helvetica,sans-Serif" font-size="10.00">(1,244 tok)</text>
</g>
<!-- cmd_merge_gate&#45;&gt;agent_worker_structure -->
<g id="edge13" class="edge">
<title>cmd_merge_gate&#45;&gt;agent_worker_structure</title>
<path fill="none" stroke="black" stroke-dasharray="5,2" d="M295.72,-878.07C300.42,-881.73 304.72,-886.03 307.81,-891 363.19,-980.22 287.12,-1290.45 365.81,-1360 456.43,-1440.11 613.47,-1382.32 688.8,-1346.98"/>
<polygon fill="black" stroke="black" points="690.49,-1350.06 698.01,-1342.59 687.48,-1343.74 690.49,-1350.06"/>
</g>
<!-- agent_worker_principles -->
<g id="node13" class="node">
<title>agent_worker_principles</title>
<ellipse fill="#ede7f6" stroke="black" cx="732.52" cy="-1261" rx="63.78" ry="21.43"/>
<text text-anchor="middle" x="732.52" y="-1264" font-family="Helvetica,sans-Serif" font-size="10.00">worker&#45;principles</text>
<text text-anchor="middle" x="732.52" y="-1253" font-family="Helvetica,sans-Serif" font-size="10.00">(1,154 tok)</text>
</g>
<!-- cmd_merge_gate&#45;&gt;agent_worker_principles -->
<g id="edge14" class="edge">
<title>cmd_merge_gate&#45;&gt;agent_worker_principles</title>
<path fill="none" stroke="black" stroke-dasharray="5,2" d="M295.37,-878.3C300.11,-881.93 304.51,-886.16 307.81,-891 378.13,-994.24 279.55,-1075.65 365.81,-1166 371.16,-1171.61 568.36,-1220.82 670.9,-1246.12"/>
<polygon fill="black" stroke="black" points="670.27,-1249.57 680.82,-1248.56 671.95,-1242.77 670.27,-1249.57"/>
</g>
<!-- agent_worker_env_validator -->
<g id="node14" class="node">
<title>agent_worker_env_validator</title>
<ellipse fill="#ede7f6" stroke="black" cx="732.52" cy="-319" rx="73.58" ry="21.43"/>
<text text-anchor="middle" x="732.52" y="-322" font-family="Helvetica,sans-Serif" font-size="10.00">worker&#45;env&#45;validator</text>
<text text-anchor="middle" x="732.52" y="-311" font-family="Helvetica,sans-Serif" font-size="10.00">(1,426 tok)</text>
</g>
<!-- cmd_merge_gate&#45;&gt;agent_worker_env_validator -->
<g id="edge28" class="edge">
<title>cmd_merge_gate&#45;&gt;agent_worker_env_validator</title>
<path fill="none" stroke="black" stroke-dasharray="5,2" d="M295.66,-845.89C300.37,-842.24 304.68,-837.95 307.81,-833 408.32,-673.61 240.39,-553.64 365.81,-413 403.78,-370.41 559.23,-342.28 654.82,-328.63"/>
<polygon fill="black" stroke="black" points="655.32,-332.1 664.73,-327.24 654.34,-325.16 655.32,-332.1"/>
</g>
<!-- agent_worker_rls_reviewer -->
<g id="node15" class="node">
<title>agent_worker_rls_reviewer</title>
<ellipse fill="#ede7f6" stroke="black" cx="732.52" cy="-639" rx="70.01" ry="21.43"/>
<text text-anchor="middle" x="732.52" y="-642" font-family="Helvetica,sans-Serif" font-size="10.00">worker&#45;rls&#45;reviewer</text>
<text text-anchor="middle" x="732.52" y="-631" font-family="Helvetica,sans-Serif" font-size="10.00">(1,517 tok)</text>
</g>
<!-- cmd_merge_gate&#45;&gt;agent_worker_rls_reviewer -->
<g id="edge23" class="edge">
<title>cmd_merge_gate&#45;&gt;agent_worker_rls_reviewer</title>
<path fill="none" stroke="black" stroke-dasharray="5,2" d="M295.56,-843.76C299.95,-840.49 304.19,-836.88 307.81,-833 343.63,-794.58 324.01,-761.83 365.81,-730 449.66,-666.13 572.81,-646.61 652.59,-640.91"/>
<polygon fill="black" stroke="black" points="652.83,-644.41 662.58,-640.26 652.37,-637.42 652.83,-644.41"/>
</g>
<!-- agent_worker_supabase_migration_checker -->
<g id="node16" class="node">
<title>agent_worker_supabase_migration_checker</title>
<ellipse fill="#ede7f6" stroke="black" cx="732.52" cy="-895" rx="120.83" ry="21.43"/>
<text text-anchor="middle" x="732.52" y="-898" font-family="Helvetica,sans-Serif" font-size="10.00">worker&#45;supabase&#45;migration&#45;checker</text>
<text text-anchor="middle" x="732.52" y="-887" font-family="Helvetica,sans-Serif" font-size="10.00">(1,338 tok)</text>
</g>
<!-- cmd_merge_gate&#45;&gt;agent_worker_supabase_migration_checker -->
<g id="edge19" class="edge">
<title>cmd_merge_gate&#45;&gt;agent_worker_supabase_migration_checker</title>
<path fill="none" stroke="black" stroke-dasharray="5,2" d="M295.59,-864.24C359.02,-868.72 504.32,-878.97 609.77,-886.41"/>
<polygon fill="black" stroke="black" points="609.62,-889.91 619.85,-887.12 610.12,-882.93 609.62,-889.91"/>
</g>
<!-- agent_worker_data_validator -->
<g id="node17" class="node">
<title>agent_worker_data_validator</title>
<ellipse fill="#ede7f6" stroke="black" cx="732.52" cy="-383" rx="75.82" ry="21.43"/>
<text text-anchor="middle" x="732.52" y="-386" font-family="Helvetica,sans-Serif" font-size="10.00">worker&#45;data&#45;validator</text>
<text text-anchor="middle" x="732.52" y="-375" font-family="Helvetica,sans-Serif" font-size="10.00">(698 tok)</text>
</g>
<!-- cmd_merge_gate&#45;&gt;agent_worker_data_validator -->
<g id="edge27" class="edge">
<title>cmd_merge_gate&#45;&gt;agent_worker_data_validator</title>
<path fill="none" stroke="black" stroke-dasharray="5,2" d="M295.57,-845.83C300.29,-842.19 304.63,-837.92 307.81,-833 396,-696.51 255.55,-591.38 365.81,-472 385.71,-450.45 557.65,-415.34 658.53,-396.3"/>
<polygon fill="black" stroke="black" points="659.48,-399.68 668.66,-394.39 658.19,-392.8 659.48,-399.68"/>
</g>
<!-- agent_worker_e2e_reviewer -->
<g id="node18" class="node">
<title>agent_worker_e2e_reviewer</title>
<ellipse fill="#ede7f6" stroke="black" cx="732.52" cy="-767" rx="73.58" ry="21.43"/>
<text text-anchor="middle" x="732.52" y="-770" font-family="Helvetica,sans-Serif" font-size="10.00">worker&#45;e2e&#45;reviewer</text>
<text text-anchor="middle" x="732.52" y="-759" font-family="Helvetica,sans-Serif" font-size="10.00">(1,226 tok)</text>
</g>
<!-- cmd_merge_gate&#45;&gt;agent_worker_e2e_reviewer -->
<g id="edge21" class="edge">
<title>cmd_merge_gate&#45;&gt;agent_worker_e2e_reviewer</title>
<path fill="none" stroke="black" stroke-dasharray="5,2" d="M295.41,-853.81C315.51,-848.71 342.11,-842.17 365.81,-837 467.15,-814.9 585.12,-793 659.06,-779.74"/>
<polygon fill="black" stroke="black" points="659.97,-783.13 669.2,-777.92 658.74,-776.24 659.97,-783.13"/>
</g>
<!-- agent_worker_spec_reviewer -->
<g id="node19" class="node">
<title>agent_worker_spec_reviewer</title>
<ellipse fill="#ede7f6" stroke="black" cx="732.52" cy="-575" rx="77.56" ry="21.43"/>
<text text-anchor="middle" x="732.52" y="-578" font-family="Helvetica,sans-Serif" font-size="10.00">worker&#45;spec&#45;reviewer</text>
<text text-anchor="middle" x="732.52" y="-567" font-family="Helvetica,sans-Serif" font-size="10.00">(1,094 tok)</text>
</g>
<!-- cmd_merge_gate&#45;&gt;agent_worker_spec_reviewer -->
<g id="edge24" class="edge">
<title>cmd_merge_gate&#45;&gt;agent_worker_spec_reviewer</title>
<path fill="none" stroke="black" stroke-dasharray="5,2" d="M295.43,-845.08C300.05,-841.56 304.39,-837.53 307.81,-833 359.47,-764.57 302.06,-706.34 365.81,-649 406.52,-612.37 553,-591.85 647.76,-582.13"/>
<polygon fill="black" stroke="black" points="648.31,-585.59 657.91,-581.11 647.61,-578.63 648.31,-585.59"/>
</g>
<!-- agent_worker_codex_reviewer -->
<g id="node20" class="node">
<title>agent_worker_codex_reviewer</title>
<ellipse fill="#ede7f6" stroke="black" cx="732.52" cy="-255" rx="81.13" ry="21.43"/>
<text text-anchor="middle" x="732.52" y="-258" font-family="Helvetica,sans-Serif" font-size="10.00">worker&#45;codex&#45;reviewer</text>
<text text-anchor="middle" x="732.52" y="-247" font-family="Helvetica,sans-Serif" font-size="10.00">(1,421 tok)</text>
</g>
<!-- cmd_merge_gate&#45;&gt;agent_worker_codex_reviewer -->
<g id="edge29" class="edge">
<title>cmd_merge_gate&#45;&gt;agent_worker_codex_reviewer</title>
<path fill="none" stroke="black" stroke-dasharray="5,2" d="M295.74,-845.94C300.45,-842.29 304.73,-837.98 307.81,-833 423.4,-645.6 219.21,-505.28 365.81,-341 434.87,-263.61 559.26,-249.18 643.59,-249.36"/>
<polygon fill="black" stroke="black" points="643.63,-252.86 653.66,-249.45 643.7,-245.86 643.63,-252.86"/>
</g>
<!-- agent_worker_code_reviewer -->
<g id="node21" class="node">
<title>agent_worker_code_reviewer</title>
<ellipse fill="#ede7f6" stroke="black" cx="732.52" cy="-1197" rx="77.56" ry="21.43"/>
<text text-anchor="middle" x="732.52" y="-1200" font-family="Helvetica,sans-Serif" font-size="10.00">worker&#45;code&#45;reviewer</text>
<text text-anchor="middle" x="732.52" y="-1189" font-family="Helvetica,sans-Serif" font-size="10.00">(964 tok)</text>
</g>
<!-- cmd_merge_gate&#45;&gt;agent_worker_code_reviewer -->
<g id="edge15" class="edge">
<title>cmd_merge_gate&#45;&gt;agent_worker_code_reviewer</title>
<path fill="none" stroke="black" stroke-dasharray="5,2" d="M295.66,-878.75C300.25,-882.29 304.52,-886.38 307.81,-891 368.85,-976.95 289.71,-1048.04 365.81,-1121 405.44,-1159 552.64,-1179.98 647.77,-1189.83"/>
<polygon fill="black" stroke="black" points="647.66,-1193.34 657.96,-1190.86 648.36,-1186.37 647.66,-1193.34"/>
</g>
<!-- agent_worker_security_reviewer -->
<g id="node22" class="node">
<title>agent_worker_security_reviewer</title>
<ellipse fill="#ede7f6" stroke="black" cx="732.52" cy="-1087" rx="86.95" ry="21.43"/>
<text text-anchor="middle" x="732.52" y="-1090" font-family="Helvetica,sans-Serif" font-size="10.00">worker&#45;security&#45;reviewer</text>
<text text-anchor="middle" x="732.52" y="-1079" font-family="Helvetica,sans-Serif" font-size="10.00">(866 tok)</text>
</g>
<!-- cmd_merge_gate&#45;&gt;agent_worker_security_reviewer -->
<g id="edge16" class="edge">
<title>cmd_merge_gate&#45;&gt;agent_worker_security_reviewer</title>
<path fill="none" stroke="black" stroke-dasharray="5,2" d="M294.79,-880.22C299.38,-883.53 303.88,-887.16 307.81,-891 340.23,-922.73 329.43,-947.89 365.81,-975 447.75,-1036.08 563.36,-1064.2 642.53,-1076.91"/>
<polygon fill="black" stroke="black" points="642.06,-1080.38 652.48,-1078.46 643.14,-1073.47 642.06,-1080.38"/>
</g>
<!-- agent_worker_nextjs_reviewer -->
<g id="node23" class="node">
<title>agent_worker_nextjs_reviewer</title>
<ellipse fill="#ede7f6" stroke="black" cx="732.52" cy="-1023" rx="81.13" ry="21.43"/>
<text text-anchor="middle" x="732.52" y="-1026" font-family="Helvetica,sans-Serif" font-size="10.00">worker&#45;nextjs&#45;reviewer</text>
<text text-anchor="middle" x="732.52" y="-1015" font-family="Helvetica,sans-Serif" font-size="10.00">(642 tok)</text>
</g>
<!-- cmd_merge_gate&#45;&gt;agent_worker_nextjs_reviewer -->
<g id="edge17" class="edge">
<title>cmd_merge_gate&#45;&gt;agent_worker_nextjs_reviewer</title>
<path fill="none" stroke="black" stroke-dasharray="5,2" d="M291.28,-880.08C320.1,-899.01 361.8,-926.24 365.81,-928 460.49,-969.63 577.27,-996.02 653.01,-1010.14"/>
<polygon fill="black" stroke="black" points="652.49,-1013.61 662.96,-1011.97 653.75,-1006.72 652.49,-1013.61"/>
</g>
<!-- agent_worker_fastapi_reviewer -->
<g id="node24" class="node">
<title>agent_worker_fastapi_reviewer</title>
<ellipse fill="#ede7f6" stroke="black" cx="732.52" cy="-959" rx="83.38" ry="21.43"/>
<text text-anchor="middle" x="732.52" y="-962" font-family="Helvetica,sans-Serif" font-size="10.00">worker&#45;fastapi&#45;reviewer</text>
<text text-anchor="middle" x="732.52" y="-951" font-family="Helvetica,sans-Serif" font-size="10.00">(639 tok)</text>
</g>
<!-- cmd_merge_gate&#45;&gt;agent_worker_fastapi_reviewer -->
<g id="edge18" class="edge">
<title>cmd_merge_gate&#45;&gt;agent_worker_fastapi_reviewer</title>
<path fill="none" stroke="black" stroke-dasharray="5,2" d="M295.7,-872.74C315.68,-879.21 342.06,-887.27 365.81,-893 462.24,-916.27 574.77,-935.4 649.27,-946.96"/>
<polygon fill="black" stroke="black" points="649.11,-950.48 659.52,-948.55 650.17,-943.56 649.11,-950.48"/>
</g>
<!-- agent_worker_hono_reviewer -->
<g id="node25" class="node">
<title>agent_worker_hono_reviewer</title>
<ellipse fill="#ede7f6" stroke="black" cx="732.52" cy="-703" rx="77.56" ry="21.43"/>
<text text-anchor="middle" x="732.52" y="-706" font-family="Helvetica,sans-Serif" font-size="10.00">worker&#45;hono&#45;reviewer</text>
<text text-anchor="middle" x="732.52" y="-695" font-family="Helvetica,sans-Serif" font-size="10.00">(847 tok)</text>
</g>
<!-- cmd_merge_gate&#45;&gt;agent_worker_hono_reviewer -->
<g id="edge22" class="edge">
<title>cmd_merge_gate&#45;&gt;agent_worker_hono_reviewer</title>
<path fill="none" stroke="black" stroke-dasharray="5,2" d="M291.32,-843.85C321.18,-824.16 364.79,-795.45 365.81,-795 460.75,-753.3 578.2,-727.98 653.97,-714.74"/>
<polygon fill="black" stroke="black" points="654.65,-718.17 663.91,-713.03 653.46,-711.27 654.65,-718.17"/>
</g>
<!-- agent_worker_r_reviewer -->
<g id="node26" class="node">
<title>agent_worker_r_reviewer</title>
<ellipse fill="#ede7f6" stroke="black" cx="732.52" cy="-831" rx="65.11" ry="21.43"/>
<text text-anchor="middle" x="732.52" y="-834" font-family="Helvetica,sans-Serif" font-size="10.00">worker&#45;r&#45;reviewer</text>
<text text-anchor="middle" x="732.52" y="-823" font-family="Helvetica,sans-Serif" font-size="10.00">(717 tok)</text>
</g>
<!-- cmd_merge_gate&#45;&gt;agent_worker_r_reviewer -->
<g id="edge20" class="edge">
<title>cmd_merge_gate&#45;&gt;agent_worker_r_reviewer</title>
<path fill="none" stroke="black" stroke-dasharray="5,2" d="M295.59,-859.89C369.61,-854.99 555.06,-842.7 658.65,-835.83"/>
<polygon fill="black" stroke="black" points="658.97,-839.32 668.72,-835.16 658.51,-832.33 658.97,-839.32"/>
</g>
<!-- agent_worker_architecture -->
<g id="node27" class="node">
<title>agent_worker_architecture</title>
<ellipse fill="#ede7f6" stroke="black" cx="732.52" cy="-191" rx="70.92" ry="21.43"/>
<text text-anchor="middle" x="732.52" y="-194" font-family="Helvetica,sans-Serif" font-size="10.00">worker&#45;architecture</text>
<text text-anchor="middle" x="732.52" y="-183" font-family="Helvetica,sans-Serif" font-size="10.00">(2,186 tok)</text>
</g>
<!-- cmd_merge_gate&#45;&gt;agent_worker_architecture -->
<g id="edge30" class="edge">
<title>cmd_merge_gate&#45;&gt;agent_worker_architecture</title>
<path fill="none" stroke="black" stroke-dasharray="5,2" d="M295.38,-846.33C300.25,-842.6 304.68,-838.17 307.81,-833 375.15,-721.57 276.58,-344.82 365.81,-250 440.59,-170.53 576.89,-170.49 660.31,-179.49"/>
<polygon fill="black" stroke="black" points="660.13,-182.99 670.47,-180.66 660.93,-176.04 660.13,-182.99"/>
</g>
<!-- agent_worker_llm_output_reviewer -->
<g id="node28" class="node">
<title>agent_worker_llm_output_reviewer</title>
<ellipse fill="#ede7f6" stroke="black" cx="732.52" cy="-511" rx="92.76" ry="21.43"/>
<text text-anchor="middle" x="732.52" y="-514" font-family="Helvetica,sans-Serif" font-size="10.00">worker&#45;llm&#45;output&#45;reviewer</text>
<text text-anchor="middle" x="732.52" y="-503" font-family="Helvetica,sans-Serif" font-size="10.00">(1,162 tok)</text>
</g>
<!-- cmd_merge_gate&#45;&gt;agent_worker_llm_output_reviewer -->
<g id="edge25" class="edge">
<title>cmd_merge_gate&#45;&gt;agent_worker_llm_output_reviewer</title>
<path fill="none" stroke="black" stroke-dasharray="5,2" d="M295.71,-845.28C300.3,-841.74 304.55,-837.65 307.81,-833 371.73,-741.68 286.08,-666.9 365.81,-589 403.53,-552.14 540.72,-530.65 635.9,-519.86"/>
<polygon fill="black" stroke="black" points="636.28,-523.34 645.84,-518.76 635.51,-516.38 636.28,-523.34"/>
</g>
<!-- agent_worker_llm_eval_runner -->
<g id="node29" class="node">
<title>agent_worker_llm_eval_runner</title>
<ellipse fill="#ede7f6" stroke="black" cx="732.52" cy="-447" rx="79.81" ry="21.43"/>
<text text-anchor="middle" x="732.52" y="-450" font-family="Helvetica,sans-Serif" font-size="10.00">worker&#45;llm&#45;eval&#45;runner</text>
<text text-anchor="middle" x="732.52" y="-439" font-family="Helvetica,sans-Serif" font-size="10.00">(1,174 tok)</text>
</g>
<!-- cmd_merge_gate&#45;&gt;agent_worker_llm_eval_runner -->
<g id="edge26" class="edge">
<title>cmd_merge_gate&#45;&gt;agent_worker_llm_eval_runner</title>
<path fill="none" stroke="black" stroke-dasharray="5,2" d="M295.46,-845.76C300.19,-842.12 304.56,-837.87 307.81,-833 384.76,-717.42 268.9,-625.46 365.81,-526 385.79,-505.49 551.84,-475.74 653.19,-459.22"/>
<polygon fill="black" stroke="black" points="653.78,-462.67 663.09,-457.61 652.66,-455.76 653.78,-462.67"/>
</g>
<!-- cmd_merge_gate&#45;&gt;script_state_write -->
<g id="edge10" class="edge">
<title>cmd_merge_gate&#45;&gt;script_state_write</title>
<path fill="none" stroke="black" d="M295.43,-877.64C300.29,-881.38 304.71,-885.82 307.81,-891 382.81,-1016.66 277.87,-1430.02 365.81,-1547 375.44,-1559.82 390.28,-1568.07 405.29,-1573.39"/>
<polygon fill="black" stroke="black" points="404.53,-1576.82 415.12,-1576.47 406.63,-1570.14 404.53,-1576.82"/>
</g>
<!-- script_worktree_delete -->
<g id="node31" class="node">
<title>script_worktree_delete</title>
<polygon fill="#ff9800" stroke="black" points="527.24,-1512 493.47,-1536.49 425.93,-1536.49 392.16,-1512 425.93,-1487.51 493.47,-1487.51 527.24,-1512"/>
<text text-anchor="middle" x="459.7" y="-1515" font-family="Helvetica,sans-Serif" font-size="10.00">worktree&#45;delete</text>
<text text-anchor="middle" x="459.7" y="-1504" font-family="Helvetica,sans-Serif" font-size="10.00">(956 tok)</text>
</g>
<!-- cmd_merge_gate&#45;&gt;script_worktree_delete -->
<g id="edge11" class="edge">
<title>cmd_merge_gate&#45;&gt;script_worktree_delete</title>
<path fill="none" stroke="black" d="M295.38,-877.67C300.25,-881.4 304.68,-885.83 307.81,-891 442.91,-1114.63 207.7,-1268 365.81,-1476 373.4,-1486 384.16,-1493.22 395.68,-1498.44"/>
<polygon fill="black" stroke="black" points="394.45,-1501.71 405.03,-1502.2 397.07,-1495.22 394.45,-1501.71"/>
</g>
<!-- script_tech_stack_detect -->
<g id="node32" class="node">
<title>script_tech_stack_detect</title>
<polygon fill="#ff9800" stroke="black" points="534.94,-1325 497.32,-1349.49 422.09,-1349.49 384.47,-1325 422.09,-1300.51 497.32,-1300.51 534.94,-1325"/>
<text text-anchor="middle" x="459.7" y="-1328" font-family="Helvetica,sans-Serif" font-size="10.00">tech&#45;stack&#45;detect</text>
<text text-anchor="middle" x="459.7" y="-1317" font-family="Helvetica,sans-Serif" font-size="10.00">(539 tok)</text>
</g>
<!-- cmd_merge_gate&#45;&gt;script_tech_stack_detect -->
<g id="edge9" class="edge">
<title>cmd_merge_gate&#45;&gt;script_tech_stack_detect</title>
<path fill="none" stroke="black" d="M295.63,-878.13C300.34,-881.78 304.66,-886.06 307.81,-891 403.72,-1041.84 254.39,-1149.21 365.81,-1289 372.74,-1297.7 382.05,-1304.3 392.11,-1309.31"/>
<polygon fill="black" stroke="black" points="390.95,-1312.62 401.51,-1313.47 393.79,-1306.22 390.95,-1312.62"/>
</g>
<!-- script_specialist_output_parse -->
<g id="node33" class="node">
<title>script_specialist_output_parse</title>
<polygon fill="#ff9800" stroke="black" points="553.5,-1441 506.6,-1465.49 412.81,-1465.49 365.91,-1441 412.81,-1416.51 506.6,-1416.51 553.5,-1441"/>
<text text-anchor="middle" x="459.7" y="-1444" font-family="Helvetica,sans-Serif" font-size="10.00">specialist&#45;output&#45;parse</text>
<text text-anchor="middle" x="459.7" y="-1433" font-family="Helvetica,sans-Serif" font-size="10.00">(605 tok)</text>
</g>
<!-- cmd_merge_gate&#45;&gt;script_specialist_output_parse -->
<g id="edge8" class="edge">
<title>cmd_merge_gate&#45;&gt;script_specialist_output_parse</title>
<path fill="none" stroke="black" d="M295.32,-877.71C300.19,-881.43 304.65,-885.85 307.81,-891 426.96,-1085.02 230.87,-1216.6 365.81,-1400 371.68,-1407.99 379.46,-1414.44 388.02,-1419.66"/>
<polygon fill="black" stroke="black" points="386.35,-1422.73 396.81,-1424.47 389.72,-1416.59 386.35,-1422.73"/>
</g>
<!-- script_merge_gate_execute -->
<g id="node34" class="node">
<title>script_merge_gate_execute</title>
<polygon fill="#ff9800" stroke="black" points="543.9,-1254 501.8,-1278.49 417.6,-1278.49 375.5,-1254 417.6,-1229.51 501.8,-1229.51 543.9,-1254"/>
<text text-anchor="middle" x="459.7" y="-1257" font-family="Helvetica,sans-Serif" font-size="10.00">merge&#45;gate&#45;execute</text>
<text text-anchor="middle" x="459.7" y="-1246" font-family="Helvetica,sans-Serif" font-size="10.00">(2,434 tok)</text>
</g>
<!-- cmd_merge_gate&#45;&gt;script_merge_gate_execute -->
<g id="edge12" class="edge">
<title>cmd_merge_gate&#45;&gt;script_merge_gate_execute</title>
<path fill="none" stroke="black" d="M295.49,-878.22C300.22,-881.86 304.58,-886.11 307.81,-891 387.88,-1012.38 275.88,-1098.72 365.81,-1213 372.8,-1221.89 382.13,-1228.91 392.19,-1234.42"/>
<polygon fill="black" stroke="black" points="390.65,-1237.57 401.17,-1238.89 393.77,-1231.3 390.65,-1237.57"/>
</g>
<!-- cmd_pr_cycle_analysis&#45;&gt;cmd_all_pass_check -->
<!-- agent_worker_structure&#45;&gt;skill_ref_specialist_output_schema -->
<g id="edge35" class="edge">
<title>agent_worker_structure&#45;&gt;skill_ref_specialist_output_schema</title>
<path fill="none" stroke="black" stroke-dasharray="1,5" d="M793.65,-1322.61C815.53,-1318.6 838.51,-1310.15 853.43,-1293 926.16,-1209.37 976.85,-385.81 986.33,-220.72"/>
<polygon fill="black" stroke="black" points="989.84,-220.59 986.91,-210.4 982.85,-220.19 989.84,-220.59"/>
</g>
<!-- agent_worker_structure&#45;&gt;agent_worker_principles -->
<!-- agent_worker_structure&#45;&gt;agent_worker_principles -->
<!-- agent_worker_structure&#45;&gt;agent_worker_principles -->
<!-- agent_worker_structure&#45;&gt;agent_worker_principles -->
<!-- agent_worker_principles&#45;&gt;skill_ref_specialist_output_schema -->
<g id="edge36" class="edge">
<title>agent_worker_principles&#45;&gt;skill_ref_specialist_output_schema</title>
<path fill="none" stroke="black" stroke-dasharray="1,5" d="M795.77,-1258.14C816.97,-1253.97 838.95,-1245.53 853.43,-1229 989.99,-1073.14 989.95,-370.62 988.34,-220.35"/>
<polygon fill="black" stroke="black" points="991.84,-220.08 988.22,-210.12 984.84,-220.16 991.84,-220.08"/>
</g>
<!-- agent_worker_principles&#45;&gt;agent_worker_code_reviewer -->
<!-- agent_worker_principles&#45;&gt;agent_worker_code_reviewer -->
<!-- agent_worker_principles&#45;&gt;agent_worker_architecture -->
<!-- agent_worker_principles&#45;&gt;agent_worker_architecture -->
<!-- agent_worker_env_validator&#45;&gt;skill_ref_specialist_output_schema -->
<g id="edge37" class="edge">
<title>agent_worker_env_validator&#45;&gt;skill_ref_specialist_output_schema</title>
<path fill="none" stroke="black" stroke-dasharray="1,5" d="M794.15,-307.25C813.6,-302.32 834.89,-295.68 853.43,-287 892.91,-268.52 933.08,-238.34 959.11,-216.97"/>
<polygon fill="black" stroke="black" points="961.6,-219.45 967.05,-210.36 957.12,-214.07 961.6,-219.45"/>
</g>
<!-- agent_worker_env_validator&#45;&gt;agent_worker_codex_reviewer -->
<!-- agent_worker_env_validator&#45;&gt;agent_worker_codex_reviewer -->
<!-- agent_worker_rls_reviewer&#45;&gt;skill_ref_specialist_output_schema -->
<g id="edge38" class="edge">
<title>agent_worker_rls_reviewer&#45;&gt;skill_ref_specialist_output_schema</title>
<path fill="none" stroke="black" stroke-dasharray="1,5" d="M800.08,-633.3C819.31,-628.7 838.97,-620.72 853.43,-607 967.07,-499.19 984.88,-294.7 987.53,-220.12"/>
<polygon fill="black" stroke="black" points="991.03,-220.18 987.82,-210.08 984.03,-219.98 991.03,-220.18"/>
</g>
<!-- agent_worker_rls_reviewer&#45;&gt;agent_worker_spec_reviewer -->
<!-- agent_worker_rls_reviewer&#45;&gt;agent_worker_spec_reviewer -->
<!-- agent_worker_supabase_migration_checker&#45;&gt;skill_ref_specialist_output_schema -->
<g id="edge39" class="edge">
<title>agent_worker_supabase_migration_checker&#45;&gt;skill_ref_specialist_output_schema</title>
<path fill="none" stroke="black" stroke-dasharray="1,5" d="M826.87,-881.58C836.81,-876.98 845.98,-870.93 853.43,-863 943.44,-767.14 978.35,-335.36 986.15,-220.27"/>
<polygon fill="black" stroke="black" points="989.66,-220.35 986.82,-210.14 982.67,-219.89 989.66,-220.35"/>
</g>
<!-- agent_worker_supabase_migration_checker&#45;&gt;agent_worker_r_reviewer -->
<!-- agent_worker_supabase_migration_checker&#45;&gt;agent_worker_r_reviewer -->
<!-- agent_worker_data_validator&#45;&gt;skill_ref_specialist_output_schema -->
<g id="edge40" class="edge">
<title>agent_worker_data_validator&#45;&gt;skill_ref_specialist_output_schema</title>
<path fill="none" stroke="black" stroke-dasharray="1,5" d="M799.35,-373.02C817.8,-368.26 837.23,-361.26 853.43,-351 907.12,-316.98 950.5,-254.71 972.41,-219.03"/>
<polygon fill="black" stroke="black" points="975.6,-220.51 977.76,-210.14 969.6,-216.9 975.6,-220.51"/>
</g>
<!-- agent_worker_data_validator&#45;&gt;agent_worker_env_validator -->
<!-- agent_worker_data_validator&#45;&gt;agent_worker_env_validator -->
<!-- agent_worker_e2e_reviewer&#45;&gt;skill_ref_specialist_output_schema -->
<g id="edge41" class="edge">
<title>agent_worker_e2e_reviewer&#45;&gt;skill_ref_specialist_output_schema</title>
<path fill="none" stroke="black" stroke-dasharray="1,5" d="M803.5,-761.22C821.82,-756.54 840.14,-748.53 853.43,-735 927.38,-659.71 972.71,-320.91 984.71,-220.27"/>
<polygon fill="black" stroke="black" points="988.2,-220.58 985.89,-210.24 981.25,-219.77 988.2,-220.58"/>
</g>
<!-- agent_worker_e2e_reviewer&#45;&gt;agent_worker_hono_reviewer -->
<!-- agent_worker_e2e_reviewer&#45;&gt;agent_worker_hono_reviewer -->
<!-- agent_worker_spec_reviewer&#45;&gt;skill_ref_specialist_output_schema -->
<g id="edge42" class="edge">
<title>agent_worker_spec_reviewer&#45;&gt;skill_ref_specialist_output_schema</title>
<path fill="none" stroke="black" stroke-dasharray="1,5" d="M805.26,-567.39C822.65,-562.62 840.06,-555.04 853.43,-543 951.53,-454.71 978.57,-286.86 985.61,-220.25"/>
<polygon fill="black" stroke="black" points="989.11,-220.4 986.6,-210.1 982.14,-219.71 989.11,-220.4"/>
</g>
<!-- agent_worker_spec_reviewer&#45;&gt;agent_worker_llm_output_reviewer -->
<!-- agent_worker_spec_reviewer&#45;&gt;agent_worker_llm_output_reviewer -->
<!-- agent_worker_codex_reviewer&#45;&gt;skill_ref_specialist_output_schema -->
<g id="edge43" class="edge">
<title>agent_worker_codex_reviewer&#45;&gt;skill_ref_specialist_output_schema</title>
<path fill="none" stroke="black" stroke-dasharray="1,5" d="M778.41,-237.41C812.42,-227.25 860.18,-214.96 901.51,-205.54"/>
<polygon fill="black" stroke="black" points="902.33,-208.94 911.32,-203.33 900.8,-202.11 902.33,-208.94"/>
</g>
<!-- agent_worker_codex_reviewer&#45;&gt;skill_ref_specialist_output_schema -->
<!-- agent_worker_codex_reviewer&#45;&gt;agent_worker_architecture -->
<!-- agent_worker_code_reviewer&#45;&gt;skill_ref_specialist_output_schema -->
<g id="edge44" class="edge">
<title>agent_worker_code_reviewer&#45;&gt;skill_ref_specialist_output_schema</title>
<path fill="none" stroke="black" stroke-dasharray="1,5" d="M804.02,-1188.55C822.58,-1182.97 840.89,-1173.85 853.43,-1159 977.57,-1011.94 987.31,-364.89 987.92,-220.6"/>
<polygon fill="black" stroke="black" points="991.42,-220.37 987.95,-210.36 984.42,-220.35 991.42,-220.37"/>
</g>
<!-- agent_worker_code_reviewer&#45;&gt;agent_worker_security_reviewer -->
<!-- agent_worker_code_reviewer&#45;&gt;agent_worker_security_reviewer -->
<!-- agent_worker_security_reviewer&#45;&gt;skill_ref_specialist_output_schema -->
<g id="edge45" class="edge">
<title>agent_worker_security_reviewer&#45;&gt;skill_ref_specialist_output_schema</title>
<path fill="none" stroke="black" stroke-dasharray="1,5" d="M813.62,-1079.25C828.64,-1074.32 842.91,-1066.7 853.43,-1055 967.69,-927.91 985.02,-355.53 987.52,-220.57"/>
<polygon fill="black" stroke="black" points="991.03,-220.31 987.7,-210.25 984.03,-220.19 991.03,-220.31"/>
</g>
<!-- agent_worker_security_reviewer&#45;&gt;agent_worker_nextjs_reviewer -->
<!-- agent_worker_security_reviewer&#45;&gt;agent_worker_nextjs_reviewer -->
<!-- agent_worker_nextjs_reviewer&#45;&gt;skill_ref_specialist_output_schema -->
<g id="edge46" class="edge">
<title>agent_worker_nextjs_reviewer&#45;&gt;skill_ref_specialist_output_schema</title>
<path fill="none" stroke="black" stroke-dasharray="1,5" d="M809.79,-1016.32C826.17,-1011.46 841.97,-1003.59 853.43,-991 959.58,-874.37 982.96,-349.13 987.13,-220.5"/>
<polygon fill="black" stroke="black" points="990.64,-220.39 987.45,-210.28 983.64,-220.17 990.64,-220.39"/>
</g>
<!-- agent_worker_nextjs_reviewer&#45;&gt;agent_worker_fastapi_reviewer -->
<!-- agent_worker_nextjs_reviewer&#45;&gt;agent_worker_fastapi_reviewer -->
<!-- agent_worker_fastapi_reviewer&#45;&gt;skill_ref_specialist_output_schema -->
<g id="edge47" class="edge">
<title>agent_worker_fastapi_reviewer&#45;&gt;skill_ref_specialist_output_schema</title>
<path fill="none" stroke="black" stroke-dasharray="1,5" d="M811.21,-951.73C827.04,-946.84 842.25,-939.11 853.43,-927 951.56,-820.72 980.79,-341.8 986.69,-220.16"/>
<polygon fill="black" stroke="black" points="990.19,-220.3 987.17,-210.15 983.2,-219.97 990.19,-220.3"/>
</g>
<!-- agent_worker_fastapi_reviewer&#45;&gt;agent_worker_supabase_migration_checker -->
<!-- agent_worker_fastapi_reviewer&#45;&gt;agent_worker_supabase_migration_checker -->
<!-- agent_worker_hono_reviewer&#45;&gt;skill_ref_specialist_output_schema -->
<g id="edge48" class="edge">
<title>agent_worker_hono_reviewer&#45;&gt;skill_ref_specialist_output_schema</title>
<path fill="none" stroke="black" stroke-dasharray="1,5" d="M806.35,-696.12C823.62,-691.34 840.7,-683.56 853.43,-671 919.44,-605.85 969.35,-312.94 983.72,-220.23"/>
<polygon fill="black" stroke="black" points="987.2,-220.6 985.26,-210.19 980.29,-219.54 987.2,-220.6"/>
</g>
<!-- agent_worker_hono_reviewer&#45;&gt;agent_worker_rls_reviewer -->
<!-- agent_worker_hono_reviewer&#45;&gt;agent_worker_rls_reviewer -->
<!-- agent_worker_r_reviewer&#45;&gt;skill_ref_specialist_output_schema -->
<g id="edge49" class="edge">
<title>agent_worker_r_reviewer&#45;&gt;skill_ref_specialist_output_schema</title>
<path fill="none" stroke="black" stroke-dasharray="1,5" d="M796.54,-827.1C817.18,-822.76 838.6,-814.48 853.43,-799 935.37,-713.48 975.67,-328.49 985.5,-220.34"/>
<polygon fill="black" stroke="black" points="989,-220.47 986.41,-210.2 982.03,-219.85 989,-220.47"/>
</g>
<!-- agent_worker_r_reviewer&#45;&gt;agent_worker_e2e_reviewer -->
<!-- agent_worker_r_reviewer&#45;&gt;agent_worker_e2e_reviewer -->
<!-- agent_worker_architecture&#45;&gt;skill_ref_specialist_output_schema -->
<g id="edge50" class="edge">
<title>agent_worker_architecture&#45;&gt;skill_ref_specialist_output_schema</title>
<path fill="none" stroke="black" stroke-dasharray="1,5" d="M770.51,-173.08C815.8,-164.89 892.52,-164.68 941.67,-172.21"/>
<polygon fill="black" stroke="black" points="941.27,-175.69 951.72,-173.93 942.45,-168.79 941.27,-175.69"/>
</g>
<!-- agent_worker_architecture&#45;&gt;skill_ref_specialist_output_schema -->
<!-- agent_worker_architecture&#45;&gt;skill_ref_specialist_output_schema -->
<!-- agent_worker_architecture&#45;&gt;skill_ref_specialist_output_schema -->
<!-- agent_worker_llm_output_reviewer&#45;&gt;skill_ref_specialist_output_schema -->
<g id="edge51" class="edge">
<title>agent_worker_llm_output_reviewer&#45;&gt;skill_ref_specialist_output_schema</title>
<path fill="none" stroke="black" stroke-dasharray="1,5" d="M812.8,-500.3C827.45,-495.55 841.78,-488.75 853.43,-479 936.47,-409.53 971.32,-277.31 983,-219.84"/>
<polygon fill="black" stroke="black" points="986.43,-220.49 984.91,-210.01 979.56,-219.15 986.43,-220.49"/>
</g>
<!-- agent_worker_llm_output_reviewer&#45;&gt;agent_worker_llm_eval_runner -->
<!-- agent_worker_llm_output_reviewer&#45;&gt;agent_worker_llm_eval_runner -->
<!-- agent_worker_llm_eval_runner&#45;&gt;skill_ref_specialist_output_schema -->
<g id="edge52" class="edge">
<title>agent_worker_llm_eval_runner&#45;&gt;skill_ref_specialist_output_schema</title>
<path fill="none" stroke="black" stroke-dasharray="1,5" d="M804.2,-437.63C821.5,-432.88 839.13,-425.74 853.43,-415 921.45,-363.89 962.15,-267.41 978.94,-219.89"/>
<polygon fill="black" stroke="black" points="982.31,-220.85 982.25,-210.26 975.69,-218.58 982.31,-220.85"/>
</g>
<!-- agent_worker_llm_eval_runner&#45;&gt;agent_worker_data_validator -->
<!-- agent_worker_llm_eval_runner&#45;&gt;agent_worker_data_validator -->
<!-- script_state_write&#45;&gt;script_worktree_delete -->
<!-- script_worktree_delete&#45;&gt;script_merge_gate_execute -->
<!-- script_tech_stack_detect&#45;&gt;agent_worker_structure -->
<!-- script_tech_stack_detect&#45;&gt;script_state_write -->
<!-- script_specialist_output_parse&#45;&gt;script_tech_stack_detect -->
<!-- script_specialist_output_parse&#45;&gt;script_tech_stack_detect -->
<!-- script_merge_gate_execute&#45;&gt;agent_worker_structure -->
</g>
</svg>
