<?xml version="1.0" encoding="UTF-8" standalone="no"?>
<!DOCTYPE svg PUBLIC "-//W3C//DTD SVG 1.1//EN"
 "http://www.w3.org/Graphics/SVG/1.1/DTD/svg11.dtd">
<!-- Generated by graphviz version 2.43.0 (0)
 -->
<!-- Title: Dependencies Pages: 1 -->
<svg width="399pt" height="241pt"
 viewBox="0.00 0.00 399.23 241.00" xmlns="http://www.w3.org/2000/svg" xmlns:xlink="http://www.w3.org/1999/xlink">
<g id="graph0" class="graph" transform="scale(1 1) rotate(0) translate(4 237)">
<title>Dependencies</title>
<polygon fill="white" stroke="transparent" points="-4,4 -4,-237 395.23,-237 395.23,4 -4,4"/>
<text text-anchor="middle" x="195.62" y="-217.8" font-family="Helvetica,sans-Serif" font-size="14.00">workflow&#45;issue&#45;create</text>
<!-- skill_workflow_issue_create -->
<g id="node1" class="node">
<title>skill_workflow_issue_create</title>
<ellipse fill="#e8f5e9" stroke="black" cx="101.12" cy="-105" rx="101.23" ry="21.43"/>
<text text-anchor="middle" x="101.12" y="-108" font-family="Helvetica,sans-Serif" font-size="10.00">twl:workflow&#45;issue&#45;create</text>
<text text-anchor="middle" x="101.12" y="-97" font-family="Helvetica,sans-Serif" font-size="10.00">(930 tok)</text>
</g>
<!-- cmd_issue_create -->
<g id="node2" class="node">
<title>cmd_issue_create</title>
<polygon fill="#e3f2fd" stroke="black" points="364.23,-210 287.23,-210 287.23,-174 364.23,-174 364.23,-210"/>
<text text-anchor="middle" x="325.73" y="-195" font-family="Helvetica,sans-Serif" font-size="10.00">issue&#45;create</text>
<text text-anchor="middle" x="325.73" y="-184" font-family="Helvetica,sans-Serif" font-size="10.00">(1,002 tok)</text>
</g>
<!-- skill_workflow_issue_create&#45;&gt;cmd_issue_create -->
<g id="edge1" class="edge">
<title>skill_workflow_issue_create&#45;&gt;cmd_issue_create</title>
<path fill="none" stroke="black" d="M149.87,-123.66C187.52,-138.38 239.75,-158.79 277.31,-173.47"/>
<polygon fill="black" stroke="black" points="276.42,-176.88 287.01,-177.26 278.97,-170.36 276.42,-176.88"/>
</g>
<!-- cmd_issue_bulk_create -->
<g id="node3" class="node">
<title>cmd_issue_bulk_create</title>
<polygon fill="#e3f2fd" stroke="black" points="376.23,-152 275.23,-152 275.23,-116 376.23,-116 376.23,-152"/>
<text text-anchor="middle" x="325.73" y="-137" font-family="Helvetica,sans-Serif" font-size="10.00">issue&#45;bulk&#45;create</text>
<text text-anchor="middle" x="325.73" y="-126" font-family="Helvetica,sans-Serif" font-size="10.00">(1,457 tok)</text>
</g>
<!-- skill_workflow_issue_create&#45;&gt;cmd_issue_bulk_create -->
<g id="edge2" class="edge">
<title>skill_workflow_issue_create&#45;&gt;cmd_issue_bulk_create</title>
<path fill="none" stroke="black" d="M187.55,-116.13C213.41,-119.5 241.23,-123.12 265.02,-126.22"/>
<polygon fill="black" stroke="black" points="264.59,-129.69 274.95,-127.52 265.49,-122.75 264.59,-129.69"/>
</g>
<!-- cmd_issue_cross_repo_create -->
<g id="node4" class="node">
<title>cmd_issue_cross_repo_create</title>
<polygon fill="#e3f2fd" stroke="black" points="391.23,-94 260.23,-94 260.23,-58 391.23,-58 391.23,-94"/>
<text text-anchor="middle" x="325.73" y="-79" font-family="Helvetica,sans-Serif" font-size="10.00">issue&#45;cross&#45;repo&#45;create</text>
<text text-anchor="middle" x="325.73" y="-68" font-family="Helvetica,sans-Serif" font-size="10.00">(1,425 tok)</text>
</g>
<!-- skill_workflow_issue_create&#45;&gt;cmd_issue_cross_repo_create -->
<g id="edge3" class="edge">
<title>skill_workflow_issue_create&#45;&gt;cmd_issue_cross_repo_create</title>
<path fill="none" stroke="black" d="M187.55,-93.87C208.11,-91.19 229.91,-88.35 249.95,-85.74"/>
<polygon fill="black" stroke="black" points="250.47,-89.2 259.93,-84.44 249.56,-82.26 250.47,-89.2"/>
</g>
<!-- cmd_project_board_sync -->
<g id="node5" class="node">
<title>cmd_project_board_sync</title>
<polygon fill="#e3f2fd" stroke="black" points="379.73,-36 271.73,-36 271.73,0 379.73,0 379.73,-36"/>
<text text-anchor="middle" x="325.73" y="-21" font-family="Helvetica,sans-Serif" font-size="10.00">project&#45;board&#45;sync</text>
<text text-anchor="middle" x="325.73" y="-10" font-family="Helvetica,sans-Serif" font-size="10.00">(1,184 tok)</text>
</g>
<!-- skill_workflow_issue_create&#45;&gt;cmd_project_board_sync -->
<g id="edge4" class="edge">
<title>skill_workflow_issue_create&#45;&gt;cmd_project_board_sync</title>
<path fill="none" stroke="black" d="M149.87,-86.34C184.82,-72.68 232.34,-54.11 269.02,-39.77"/>
<polygon fill="black" stroke="black" points="270.54,-42.94 278.58,-36.04 267.99,-36.42 270.54,-42.94"/>
</g>
<!-- cmd_issue_create&#45;&gt;cmd_issue_bulk_create -->
<!-- cmd_issue_bulk_create&#45;&gt;cmd_issue_cross_repo_create -->
<!-- cmd_issue_cross_repo_create&#45;&gt;cmd_project_board_sync -->
</g>
</svg>
