<?xml version="1.0" encoding="UTF-8" standalone="no"?>
<!DOCTYPE svg PUBLIC "-//W3C//DTD SVG 1.1//EN"
 "http://www.w3.org/Graphics/SVG/1.1/DTD/svg11.dtd">
<!-- Generated by graphviz version 2.43.0 (0)
 -->
<!-- Title: Dependencies Pages: 1 -->
<svg width="1347pt" height="1599pt"
 viewBox="0.00 0.00 1346.82 1599.49" xmlns="http://www.w3.org/2000/svg" xmlns:xlink="http://www.w3.org/1999/xlink">
<g id="graph0" class="graph" transform="scale(1 1) rotate(0) translate(4 1595.49)">
<title>Dependencies</title>
<polygon fill="white" stroke="transparent" points="-4,4 -4,-1595.49 1342.82,-1595.49 1342.82,4 -4,4"/>
<text text-anchor="middle" x="669.41" y="-1576.29" font-family="Helvetica,sans-Serif" font-size="14.00">co&#45;issue</text>
<!-- skill_co_issue -->
<g id="node1" class="node">
<title>skill_co_issue</title>
<ellipse fill="#c8e6c9" stroke="black" cx="53.03" cy="-261" rx="53.07" ry="21.43"/>
<text text-anchor="middle" x="53.03" y="-264" font-family="Helvetica,sans-Serif" font-size="10.00">twl:co&#45;issue</text>
<text text-anchor="middle" x="53.03" y="-253" font-family="Helvetica,sans-Serif" font-size="10.00">(1,354 tok)</text>
</g>
<!-- skill_workflow_issue_lifecycle -->
<g id="node2" class="node">
<title>skill_workflow_issue_lifecycle</title>
<ellipse fill="#e8f5e9" stroke="black" cx="272.25" cy="-495" rx="108.38" ry="21.43"/>
<text text-anchor="middle" x="272.25" y="-498" font-family="Helvetica,sans-Serif" font-size="10.00">twl:workflow&#45;issue&#45;lifecycle</text>
<text text-anchor="middle" x="272.25" y="-487" font-family="Helvetica,sans-Serif" font-size="10.00">(481 tok)</text>
</g>
<!-- skill_co_issue&#45;&gt;skill_workflow_issue_lifecycle -->
<g id="edge2" class="edge">
<title>skill_co_issue&#45;&gt;skill_workflow_issue_lifecycle</title>
<path fill="none" stroke="black" d="M59.68,-282.22C71.72,-323.37 103.88,-414.22 164.07,-463 170.33,-468.07 177.37,-472.34 184.78,-475.93"/>
<polygon fill="black" stroke="black" points="183.77,-479.31 194.34,-480.13 186.59,-472.9 183.77,-479.31"/>
</g>
<!-- skill_workflow_issue_refine -->
<g id="node3" class="node">
<title>skill_workflow_issue_refine</title>
<ellipse fill="#e8f5e9" stroke="black" cx="272.25" cy="-431" rx="98.99" ry="21.43"/>
<text text-anchor="middle" x="272.25" y="-434" font-family="Helvetica,sans-Serif" font-size="10.00">twl:workflow&#45;issue&#45;refine</text>
<text text-anchor="middle" x="272.25" y="-423" font-family="Helvetica,sans-Serif" font-size="10.00">(578 tok)</text>
</g>
<!-- skill_co_issue&#45;&gt;skill_workflow_issue_refine -->
<g id="edge3" class="edge">
<title>skill_co_issue&#45;&gt;skill_workflow_issue_refine</title>
<path fill="none" stroke="black" d="M66.32,-281.84C84.31,-310.69 120.49,-362.65 164.07,-393 174.42,-400.21 186.29,-406.19 198.26,-411.1"/>
<polygon fill="black" stroke="black" points="197.28,-414.47 207.87,-414.82 199.8,-407.95 197.28,-414.47"/>
</g>
<!-- skill_co_issue_step0_5_modes -->
<g id="node4" class="node">
<title>skill_co_issue_step0_5_modes</title>
<polygon fill="#e1f5fe" stroke="black" points="1325.32,-268 1179.32,-268 1179.32,-232 1331.32,-232 1331.32,-262 1325.32,-268"/>
<polyline fill="none" stroke="black" points="1325.32,-268 1325.32,-262 "/>
<polyline fill="none" stroke="black" points="1331.32,-262 1325.32,-262 "/>
<text text-anchor="middle" x="1255.32" y="-253" font-family="Helvetica,sans-Serif" font-size="10.00">twl:co&#45;issue&#45;step0.5&#45;modes</text>
<text text-anchor="middle" x="1255.32" y="-242" font-family="Helvetica,sans-Serif" font-size="10.00">(734 tok)</text>
</g>
<!-- skill_co_issue&#45;&gt;skill_co_issue_step0_5_modes -->
<g id="edge6" class="edge">
<title>skill_co_issue&#45;&gt;skill_co_issue_step0_5_modes</title>
<path fill="none" stroke="black" d="M103.95,-267.22C256.14,-285.1 727.48,-332.4 1113.82,-285 1137.51,-282.09 1162.96,-276.53 1185.6,-270.68"/>
<polygon fill="black" stroke="black" points="1186.68,-274.01 1195.45,-268.07 1184.89,-267.24 1186.68,-274.01"/>
</g>
<!-- skill_co_issue_phase2_bundles -->
<g id="node5" class="node">
<title>skill_co_issue_phase2_bundles</title>
<polygon fill="#e1f5fe" stroke="black" points="1327.32,-210 1177.32,-210 1177.32,-174 1333.32,-174 1333.32,-204 1327.32,-210"/>
<polyline fill="none" stroke="black" points="1327.32,-210 1327.32,-204 "/>
<polyline fill="none" stroke="black" points="1333.32,-204 1327.32,-204 "/>
<text text-anchor="middle" x="1255.32" y="-195" font-family="Helvetica,sans-Serif" font-size="10.00">twl:co&#45;issue&#45;phase2&#45;bundles</text>
<text text-anchor="middle" x="1255.32" y="-184" font-family="Helvetica,sans-Serif" font-size="10.00">(1,280 tok)</text>
</g>
<!-- skill_co_issue&#45;&gt;skill_co_issue_phase2_bundles -->
<g id="edge7" class="edge">
<title>skill_co_issue&#45;&gt;skill_co_issue_phase2_bundles</title>
<path fill="none" stroke="black" d="M98.02,-249.68C178.09,-230.11 353.26,-192 503.44,-192 503.44,-192 503.44,-192 720.66,-192 877.79,-192 1060.96,-192 1166.69,-192"/>
<polygon fill="black" stroke="black" points="1166.99,-195.5 1176.99,-192 1166.99,-188.5 1166.99,-195.5"/>
</g>
<!-- skill_co_issue_phase3_dispatch -->
<g id="node6" class="node">
<title>skill_co_issue_phase3_dispatch</title>
<polygon fill="#e1f5fe" stroke="black" points="1328.82,-152 1175.82,-152 1175.82,-116 1334.82,-116 1334.82,-146 1328.82,-152"/>
<polyline fill="none" stroke="black" points="1328.82,-152 1328.82,-146 "/>
<polyline fill="none" stroke="black" points="1334.82,-146 1328.82,-146 "/>
<text text-anchor="middle" x="1255.32" y="-137" font-family="Helvetica,sans-Serif" font-size="10.00">twl:co&#45;issue&#45;phase3&#45;dispatch</text>
<text text-anchor="middle" x="1255.32" y="-126" font-family="Helvetica,sans-Serif" font-size="10.00">(673 tok)</text>
</g>
<!-- skill_co_issue&#45;&gt;skill_co_issue_phase3_dispatch -->
<g id="edge8" class="edge">
<title>skill_co_issue&#45;&gt;skill_co_issue_phase3_dispatch</title>
<path fill="none" stroke="black" d="M78.85,-242.28C100.27,-227.09 132.65,-206.38 164.07,-195 307.6,-143 350.78,-142 503.44,-142 503.44,-142 503.44,-142 720.66,-142 877.3,-142 1059.77,-138.51 1165.66,-136.14"/>
<polygon fill="black" stroke="black" points="1165.74,-139.64 1175.66,-135.92 1165.58,-132.64 1165.74,-139.64"/>
</g>
<!-- skill_co_issue_phase4_aggregate -->
<g id="node7" class="node">
<title>skill_co_issue_phase4_aggregate</title>
<polygon fill="#e1f5fe" stroke="black" points="1332.82,-94 1171.82,-94 1171.82,-58 1338.82,-58 1338.82,-88 1332.82,-94"/>
<polyline fill="none" stroke="black" points="1332.82,-94 1332.82,-88 "/>
<polyline fill="none" stroke="black" points="1338.82,-88 1332.82,-88 "/>
<text text-anchor="middle" x="1255.32" y="-79" font-family="Helvetica,sans-Serif" font-size="10.00">twl:co&#45;issue&#45;phase4&#45;aggregate</text>
<text text-anchor="middle" x="1255.32" y="-68" font-family="Helvetica,sans-Serif" font-size="10.00">(1,397 tok)</text>
</g>
<!-- skill_co_issue&#45;&gt;skill_co_issue_phase4_aggregate -->
<g id="edge9" class="edge">
<title>skill_co_issue&#45;&gt;skill_co_issue_phase4_aggregate</title>
<path fill="none" stroke="black" d="M66.36,-240.35C84.15,-212.55 119.81,-163.82 164.07,-140 298.48,-67.63 350.78,-87 503.44,-87 503.44,-87 503.44,-87 720.66,-87 875.29,-87 1055.08,-82.33 1161.53,-79.07"/>
<polygon fill="black" stroke="black" points="1161.71,-82.57 1171.6,-78.76 1161.49,-75.57 1161.71,-82.57"/>
</g>
<!-- skill_co_issue_cleanup -->
<g id="node8" class="node">
<title>skill_co_issue_cleanup</title>
<polygon fill="#e1f5fe" stroke="black" points="1307.82,-36 1196.82,-36 1196.82,0 1313.82,0 1313.82,-30 1307.82,-36"/>
<polyline fill="none" stroke="black" points="1307.82,-36 1307.82,-30 "/>
<polyline fill="none" stroke="black" points="1313.82,-30 1307.82,-30 "/>
<text text-anchor="middle" x="1255.32" y="-21" font-family="Helvetica,sans-Serif" font-size="10.00">twl:co&#45;issue&#45;cleanup</text>
<text text-anchor="middle" x="1255.32" y="-10" font-family="Helvetica,sans-Serif" font-size="10.00">(327 tok)</text>
</g>
<!-- skill_co_issue&#45;&gt;skill_co_issue_cleanup -->
<g id="edge10" class="edge">
<title>skill_co_issue&#45;&gt;skill_co_issue_cleanup</title>
<path fill="none" stroke="black" d="M60.37,-239.84C73.12,-201.19 105.76,-119.5 164.07,-80 290.69,5.79 350.49,-23 503.44,-23 503.44,-23 503.44,-23 720.66,-23 888.17,-23 1085.24,-20.51 1186.58,-19.04"/>
<polygon fill="black" stroke="black" points="1186.73,-22.54 1196.68,-18.89 1186.63,-15.54 1186.73,-22.54"/>
</g>
<!-- cmd_issue_glossary_check -->
<g id="node16" class="node">
<title>cmd_issue_glossary_check</title>
<polygon fill="#e3f2fd" stroke="black" points="563.94,-513 444.94,-513 444.94,-477 563.94,-477 563.94,-513"/>
<text text-anchor="middle" x="504.44" y="-498" font-family="Helvetica,sans-Serif" font-size="10.00">issue&#45;glossary&#45;check</text>
<text text-anchor="middle" x="504.44" y="-487" font-family="Helvetica,sans-Serif" font-size="10.00">(899 tok)</text>
</g>
<!-- skill_co_issue&#45;&gt;cmd_issue_glossary_check -->
<g id="edge1" class="edge">
<title>skill_co_issue&#45;&gt;cmd_issue_glossary_check</title>
<path fill="none" stroke="black" d="M73.72,-280.73C94.45,-300.39 128.91,-330.03 164.07,-347 253.14,-389.99 291.35,-356.04 380.44,-399 417.93,-417.08 454.72,-448.03 478.15,-469.9"/>
<polygon fill="black" stroke="black" points="475.9,-472.59 485.56,-476.93 480.72,-467.51 475.9,-472.59"/>
</g>
<!-- script_issue_lifecycle_orchestrator -->
<g id="node33" class="node">
<title>script_issue_lifecycle_orchestrator</title>
<polygon fill="#ff9800" stroke="black" points="1113.8,-366 1052.57,-390.49 930.12,-390.49 868.9,-366 930.12,-341.51 1052.57,-341.51 1113.8,-366"/>
<text text-anchor="middle" x="991.35" y="-369" font-family="Helvetica,sans-Serif" font-size="10.00">issue&#45;lifecycle&#45;orchestrator</text>
<text text-anchor="middle" x="991.35" y="-358" font-family="Helvetica,sans-Serif" font-size="10.00">(9,324 tok)</text>
</g>
<!-- skill_co_issue&#45;&gt;script_issue_lifecycle_orchestrator -->
<g id="edge4" class="edge">
<title>skill_co_issue&#45;&gt;script_issue_lifecycle_orchestrator</title>
<path fill="none" stroke="black" d="M89.49,-276.66C110.7,-285.33 138.44,-295.44 164.07,-301 405.97,-353.47 695.87,-364.77 860.03,-366.54"/>
<polygon fill="black" stroke="black" points="860.15,-370.04 870.18,-366.64 860.21,-363.05 860.15,-370.04"/>
</g>
<!-- script_co_issue_manual_fix_b -->
<g id="node34" class="node">
<title>script_co_issue_manual_fix_b</title>
<polygon fill="#ff9800" stroke="black" points="1091.71,-250 1041.53,-274.49 941.17,-274.49 890.99,-250 941.17,-225.51 1041.53,-225.51 1091.71,-250"/>
<text text-anchor="middle" x="991.35" y="-253" font-family="Helvetica,sans-Serif" font-size="10.00">co&#45;issue&#45;manual&#45;fix&#45;b</text>
<text text-anchor="middle" x="991.35" y="-242" font-family="Helvetica,sans-Serif" font-size="10.00">(462 tok)</text>
</g>
<!-- skill_co_issue&#45;&gt;script_co_issue_manual_fix_b -->
<g id="edge5" class="edge">
<title>skill_co_issue&#45;&gt;script_co_issue_manual_fix_b</title>
<path fill="none" stroke="black" d="M106.38,-260.39C254.96,-258.64 681.51,-253.63 882.78,-251.26"/>
<polygon fill="black" stroke="black" points="883.11,-254.76 893.07,-251.14 883.03,-247.76 883.11,-254.76"/>
</g>
<!-- skill_workflow_issue_lifecycle&#45;&gt;skill_workflow_issue_refine -->
<!-- skill_lifecycle_processing_flow -->
<g id="node10" class="node">
<title>skill_lifecycle_processing_flow</title>
<polygon fill="#e1f5fe" stroke="black" points="1327.32,-915 1177.32,-915 1177.32,-879 1333.32,-879 1333.32,-909 1327.32,-915"/>
<polyline fill="none" stroke="black" points="1327.32,-915 1327.32,-909 "/>
<polyline fill="none" stroke="black" points="1333.32,-909 1327.32,-909 "/>
<text text-anchor="middle" x="1255.32" y="-900" font-family="Helvetica,sans-Serif" font-size="10.00">twl:lifecycle&#45;processing&#45;flow</text>
<text text-anchor="middle" x="1255.32" y="-889" font-family="Helvetica,sans-Serif" font-size="10.00">(2,320 tok)</text>
</g>
<!-- skill_workflow_issue_lifecycle&#45;&gt;skill_lifecycle_processing_flow -->
<g id="edge18" class="edge">
<title>skill_workflow_issue_lifecycle&#45;&gt;skill_lifecycle_processing_flow</title>
<path fill="none" stroke="black" d="M273.25,-516.29C274.53,-591.78 290.02,-848.04 438.44,-960 551.55,-1045.32 983.67,-959.45 1169.05,-917.35"/>
<polygon fill="black" stroke="black" points="1170.06,-920.71 1179.03,-915.07 1168.5,-913.89 1170.06,-920.71"/>
</g>
<!-- cmd_issue_structure -->
<g id="node12" class="node">
<title>cmd_issue_structure</title>
<polygon fill="#e3f2fd" stroke="black" points="548.94,-1117 459.94,-1117 459.94,-1081 548.94,-1081 548.94,-1117"/>
<text text-anchor="middle" x="504.44" y="-1102" font-family="Helvetica,sans-Serif" font-size="10.00">issue&#45;structure</text>
<text text-anchor="middle" x="504.44" y="-1091" font-family="Helvetica,sans-Serif" font-size="10.00">(1,406 tok)</text>
</g>
<!-- skill_workflow_issue_lifecycle&#45;&gt;cmd_issue_structure -->
<g id="edge11" class="edge">
<title>skill_workflow_issue_lifecycle&#45;&gt;cmd_issue_structure</title>
<path fill="none" stroke="black" d="M273.25,-516.24C274.36,-598.21 288.89,-897.92 438.44,-1070 442.04,-1074.14 446.34,-1077.71 451,-1080.8"/>
<polygon fill="black" stroke="black" points="449.28,-1083.84 459.68,-1085.83 452.78,-1077.79 449.28,-1083.84"/>
</g>
<!-- cmd_issue_create -->
<g id="node13" class="node">
<title>cmd_issue_create</title>
<polygon fill="#e3f2fd" stroke="black" points="542.94,-1059 465.94,-1059 465.94,-1023 542.94,-1023 542.94,-1059"/>
<text text-anchor="middle" x="504.44" y="-1044" font-family="Helvetica,sans-Serif" font-size="10.00">issue&#45;create</text>
<text text-anchor="middle" x="504.44" y="-1033" font-family="Helvetica,sans-Serif" font-size="10.00">(1,440 tok)</text>
</g>
<!-- skill_workflow_issue_lifecycle&#45;&gt;cmd_issue_create -->
<g id="edge15" class="edge">
<title>skill_workflow_issue_lifecycle&#45;&gt;cmd_issue_create</title>
<path fill="none" stroke="black" d="M274.59,-516.4C280.35,-592.08 309.06,-850.75 438.44,-1006 443.58,-1012.16 450.08,-1017.4 456.99,-1021.8"/>
<polygon fill="black" stroke="black" points="455.46,-1024.96 465.87,-1026.94 458.96,-1018.9 455.46,-1024.96"/>
</g>
<!-- cmd_issue_spec_review -->
<g id="node14" class="node">
<title>cmd_issue_spec_review</title>
<polygon fill="#bbdefb" stroke="black" points="556.94,-735 451.94,-735 451.94,-699 556.94,-699 556.94,-735"/>
<text text-anchor="middle" x="504.44" y="-720" font-family="Helvetica,sans-Serif" font-size="10.00">issue&#45;spec&#45;review</text>
<text text-anchor="middle" x="504.44" y="-709" font-family="Helvetica,sans-Serif" font-size="10.00">(1,870 tok)</text>
</g>
<!-- skill_workflow_issue_lifecycle&#45;&gt;cmd_issue_spec_review -->
<g id="edge12" class="edge">
<title>skill_workflow_issue_lifecycle&#45;&gt;cmd_issue_spec_review</title>
<path fill="none" stroke="black" d="M294.91,-515.89C337.33,-556.8 431.24,-647.37 477.15,-691.64"/>
<polygon fill="black" stroke="black" points="474.99,-694.42 484.61,-698.84 479.85,-689.38 474.99,-694.42"/>
</g>
<!-- cmd_issue_review_aggregate -->
<g id="node15" class="node">
<title>cmd_issue_review_aggregate</title>
<polygon fill="#e3f2fd" stroke="black" points="570.44,-851 438.44,-851 438.44,-815 570.44,-815 570.44,-851"/>
<text text-anchor="middle" x="504.44" y="-836" font-family="Helvetica,sans-Serif" font-size="10.00">issue&#45;review&#45;aggregate</text>
<text text-anchor="middle" x="504.44" y="-825" font-family="Helvetica,sans-Serif" font-size="10.00">(1,157 tok)</text>
</g>
<!-- skill_workflow_issue_lifecycle&#45;&gt;cmd_issue_review_aggregate -->
<g id="edge13" class="edge">
<title>skill_workflow_issue_lifecycle&#45;&gt;cmd_issue_review_aggregate</title>
<path fill="none" stroke="black" d="M279.32,-516.38C295.9,-571.28 346.95,-718.81 438.44,-804 440.38,-805.81 442.45,-807.51 444.61,-809.12"/>
<polygon fill="black" stroke="black" points="443.09,-812.31 453.37,-814.87 446.93,-806.46 443.09,-812.31"/>
</g>
<!-- cmd_issue_arch_drift -->
<g id="node17" class="node">
<title>cmd_issue_arch_drift</title>
<polygon fill="#e3f2fd" stroke="black" points="549.44,-793 459.44,-793 459.44,-757 549.44,-757 549.44,-793"/>
<text text-anchor="middle" x="504.44" y="-778" font-family="Helvetica,sans-Serif" font-size="10.00">issue&#45;arch&#45;drift</text>
<text text-anchor="middle" x="504.44" y="-767" font-family="Helvetica,sans-Serif" font-size="10.00">(1,079 tok)</text>
</g>
<!-- skill_workflow_issue_lifecycle&#45;&gt;cmd_issue_arch_drift -->
<g id="edge14" class="edge">
<title>skill_workflow_issue_lifecycle&#45;&gt;cmd_issue_arch_drift</title>
<path fill="none" stroke="black" d="M282.25,-516.44C303.11,-563.83 359.12,-678.62 438.44,-746 442.08,-749.09 446.09,-751.9 450.29,-754.46"/>
<polygon fill="black" stroke="black" points="448.66,-757.56 459.11,-759.34 452.06,-751.44 448.66,-757.56"/>
</g>
<!-- cmd_project_board_sync -->
<g id="node18" class="node">
<title>cmd_project_board_sync</title>
<polygon fill="#e3f2fd" stroke="black" points="558.44,-909 450.44,-909 450.44,-873 558.44,-873 558.44,-909"/>
<text text-anchor="middle" x="504.44" y="-894" font-family="Helvetica,sans-Serif" font-size="10.00">project&#45;board&#45;sync</text>
<text text-anchor="middle" x="504.44" y="-883" font-family="Helvetica,sans-Serif" font-size="10.00">(1,184 tok)</text>
</g>
<!-- skill_workflow_issue_lifecycle&#45;&gt;cmd_project_board_sync -->
<g id="edge16" class="edge">
<title>skill_workflow_issue_lifecycle&#45;&gt;cmd_project_board_sync</title>
<path fill="none" stroke="black" d="M277.27,-516.26C289.94,-577.82 334.52,-758.42 438.44,-862 440.28,-863.83 442.25,-865.56 444.33,-867.18"/>
<polygon fill="black" stroke="black" points="442.53,-870.2 452.76,-872.97 446.49,-864.43 442.53,-870.2"/>
</g>
<!-- script_spec_review_session_init -->
<g id="node32" class="node">
<title>script_spec_review_session_init</title>
<polygon fill="#ff9800" stroke="black" points="1102.44,-868 1046.89,-892.49 935.81,-892.49 880.26,-868 935.81,-843.51 1046.89,-843.51 1102.44,-868"/>
<text text-anchor="middle" x="991.35" y="-871" font-family="Helvetica,sans-Serif" font-size="10.00">spec&#45;review&#45;session&#45;init</text>
<text text-anchor="middle" x="991.35" y="-860" font-family="Helvetica,sans-Serif" font-size="10.00">(501 tok)</text>
</g>
<!-- skill_workflow_issue_lifecycle&#45;&gt;script_spec_review_session_init -->
<g id="edge17" class="edge">
<title>skill_workflow_issue_lifecycle&#45;&gt;script_spec_review_session_init</title>
<path fill="none" stroke="black" d="M273.78,-516.31C276.84,-588.36 297.65,-823.67 438.44,-920 589.91,-1023.63 821.95,-944.02 930.49,-896.66"/>
<polygon fill="black" stroke="black" points="931.93,-899.85 939.66,-892.61 929.1,-893.45 931.93,-899.85"/>
</g>
<!-- skill_refine_processing_flow -->
<g id="node11" class="node">
<title>skill_refine_processing_flow</title>
<polygon fill="#e1f5fe" stroke="black" points="1320.82,-857 1183.82,-857 1183.82,-821 1326.82,-821 1326.82,-851 1320.82,-857"/>
<polyline fill="none" stroke="black" points="1320.82,-857 1320.82,-851 "/>
<polyline fill="none" stroke="black" points="1326.82,-851 1320.82,-851 "/>
<text text-anchor="middle" x="1255.32" y="-842" font-family="Helvetica,sans-Serif" font-size="10.00">twl:refine&#45;processing&#45;flow</text>
<text text-anchor="middle" x="1255.32" y="-831" font-family="Helvetica,sans-Serif" font-size="10.00">(2,840 tok)</text>
</g>
<!-- skill_workflow_issue_refine&#45;&gt;skill_refine_processing_flow -->
<g id="edge23" class="edge">
<title>skill_workflow_issue_refine&#45;&gt;skill_refine_processing_flow</title>
<path fill="none" stroke="black" d="M342.71,-445.97C355.78,-450.36 368.94,-455.94 380.44,-463 412.33,-482.57 404.42,-508.44 438.44,-524 711.72,-648.99 862.24,-391.65 1113.82,-556 1204.61,-615.31 1238.97,-751.79 1249.91,-810.88"/>
<polygon fill="black" stroke="black" points="1246.5,-811.73 1251.69,-820.97 1253.4,-810.52 1246.5,-811.73"/>
</g>
<!-- skill_workflow_issue_refine&#45;&gt;cmd_issue_spec_review -->
<g id="edge19" class="edge">
<title>skill_workflow_issue_refine&#45;&gt;cmd_issue_spec_review</title>
<path fill="none" stroke="black" d="M350.1,-444.25C361.24,-448.78 371.83,-454.86 380.44,-463 435.7,-515.26 403.46,-556.46 438.44,-624 450.74,-647.75 468.28,-672.47 482.04,-690.45"/>
<polygon fill="black" stroke="black" points="479.55,-692.95 488.45,-698.7 485.08,-688.65 479.55,-692.95"/>
</g>
<!-- skill_workflow_issue_refine&#45;&gt;cmd_issue_review_aggregate -->
<g id="edge20" class="edge">
<title>skill_workflow_issue_refine&#45;&gt;cmd_issue_review_aggregate</title>
<path fill="none" stroke="black" d="M352.49,-443.44C363.06,-448.1 372.85,-454.42 380.44,-463 482.34,-578.11 344.21,-682.53 438.44,-804 439.66,-805.57 440.99,-807.07 442.4,-808.48"/>
<polygon fill="black" stroke="black" points="440.17,-811.18 450.09,-814.9 444.66,-805.8 440.17,-811.18"/>
</g>
<!-- skill_workflow_issue_refine&#45;&gt;cmd_issue_arch_drift -->
<g id="edge21" class="edge">
<title>skill_workflow_issue_refine&#45;&gt;cmd_issue_arch_drift</title>
<path fill="none" stroke="black" d="M352.24,-443.67C362.84,-448.29 372.7,-454.55 380.44,-463 467.15,-557.69 358.04,-645.9 438.44,-746 441.87,-750.28 446.07,-753.94 450.66,-757.08"/>
<polygon fill="black" stroke="black" points="448.88,-760.09 459.27,-762.17 452.45,-754.07 448.88,-760.09"/>
</g>
<!-- skill_workflow_issue_refine&#45;&gt;script_spec_review_session_init -->
<g id="edge22" class="edge">
<title>skill_workflow_issue_refine&#45;&gt;script_spec_review_session_init</title>
<path fill="none" stroke="black" d="M347.25,-444.98C359.13,-449.43 370.7,-455.28 380.44,-463 421.02,-495.14 396.09,-534.24 438.44,-564 575.99,-660.64 667.56,-542.13 810.87,-630 832.26,-643.11 924.19,-772.87 967.55,-835.08"/>
<polygon fill="black" stroke="black" points="964.75,-837.18 973.34,-843.39 970.5,-833.18 964.75,-837.18"/>
</g>
<!-- skill_workflow_issue_refine&#45;&gt;script_issue_lifecycle_orchestrator -->
<!-- skill_co_issue_step0_5_modes&#45;&gt;skill_co_issue_phase2_bundles -->
<!-- skill_co_issue_phase2_bundles&#45;&gt;skill_co_issue_phase3_dispatch -->
<!-- skill_co_issue_phase3_dispatch&#45;&gt;skill_co_issue_phase4_aggregate -->
<!-- skill_co_issue_phase4_aggregate&#45;&gt;skill_co_issue_cleanup -->
<!-- skill_ref_glossary_criteria -->
<g id="node9" class="node">
<title>skill_ref_glossary_criteria</title>
<polygon fill="#e1f5fe" stroke="black" points="1314.82,-442 1189.82,-442 1189.82,-406 1320.82,-406 1320.82,-436 1314.82,-442"/>
<polyline fill="none" stroke="black" points="1314.82,-442 1314.82,-436 "/>
<polyline fill="none" stroke="black" points="1320.82,-436 1314.82,-436 "/>
<text text-anchor="middle" x="1255.32" y="-427" font-family="Helvetica,sans-Serif" font-size="10.00">twl:ref&#45;glossary&#45;criteria</text>
<text text-anchor="middle" x="1255.32" y="-416" font-family="Helvetica,sans-Serif" font-size="10.00">(873 tok)</text>
</g>
<!-- cmd_issue_structure&#45;&gt;cmd_issue_spec_review -->
<!-- cmd_issue_create&#45;&gt;cmd_project_board_sync -->
<!-- cmd_issue_spec_review&#45;&gt;cmd_issue_review_aggregate -->
<!-- cmd_issue_spec_review&#45;&gt;cmd_issue_review_aggregate -->
<!-- agent_issue_critic -->
<g id="node19" class="node">
<title>agent_issue_critic</title>
<ellipse fill="#ede7f6" stroke="black" cx="719.66" cy="-790" rx="49.49" ry="21.43"/>
<text text-anchor="middle" x="719.66" y="-793" font-family="Helvetica,sans-Serif" font-size="10.00">issue&#45;critic</text>
<text text-anchor="middle" x="719.66" y="-782" font-family="Helvetica,sans-Serif" font-size="10.00">(1,268 tok)</text>
</g>
<!-- cmd_issue_spec_review&#45;&gt;agent_issue_critic -->
<g id="edge24" class="edge">
<title>cmd_issue_spec_review&#45;&gt;agent_issue_critic</title>
<path fill="none" stroke="black" stroke-dasharray="5,2" d="M557.05,-734.67C591.72,-746.54 637.06,-762.06 670.89,-773.65"/>
<polygon fill="black" stroke="black" points="669.96,-777.03 680.55,-776.95 672.22,-770.4 669.96,-777.03"/>
</g>
<!-- agent_issue_feasibility -->
<g id="node20" class="node">
<title>agent_issue_feasibility</title>
<ellipse fill="#ede7f6" stroke="black" cx="719.66" cy="-726" rx="67.35" ry="21.43"/>
<text text-anchor="middle" x="719.66" y="-729" font-family="Helvetica,sans-Serif" font-size="10.00">issue&#45;feasibility</text>
<text text-anchor="middle" x="719.66" y="-718" font-family="Helvetica,sans-Serif" font-size="10.00">(1,175 tok)</text>
</g>
<!-- cmd_issue_spec_review&#45;&gt;agent_issue_feasibility -->
<g id="edge25" class="edge">
<title>cmd_issue_spec_review&#45;&gt;agent_issue_feasibility</title>
<path fill="none" stroke="black" stroke-dasharray="5,2" d="M557.05,-719.18C582.74,-720.26 614.29,-721.59 642.68,-722.79"/>
<polygon fill="black" stroke="black" points="642.83,-726.3 652.97,-723.23 643.13,-719.31 642.83,-726.3"/>
</g>
<!-- agent_worker_codex_reviewer -->
<g id="node21" class="node">
<title>agent_worker_codex_reviewer</title>
<ellipse fill="#ede7f6" stroke="black" cx="719.66" cy="-662" rx="91.43" ry="21.43"/>
<text text-anchor="middle" x="719.66" y="-665" font-family="Helvetica,sans-Serif" font-size="10.00">worker&#45;codex&#45;reviewer</text>
<text text-anchor="middle" x="719.66" y="-654" font-family="Helvetica,sans-Serif" font-size="10.00">(1,841 tok)</text>
</g>
<!-- cmd_issue_spec_review&#45;&gt;agent_worker_codex_reviewer -->
<g id="edge26" class="edge">
<title>cmd_issue_spec_review&#45;&gt;agent_worker_codex_reviewer</title>
<path fill="none" stroke="black" stroke-dasharray="5,2" d="M557.05,-703.69C584.29,-696.66 618.13,-687.93 647.79,-680.28"/>
<polygon fill="black" stroke="black" points="648.87,-683.62 657.67,-677.73 647.12,-676.84 648.87,-683.62"/>
</g>
<!-- script_escape_issue_body -->
<g id="node30" class="node">
<title>script_escape_issue_body</title>
<polygon fill="#ff9800" stroke="black" points="1079.71,-662 1035.53,-686.49 947.17,-686.49 902.99,-662 947.17,-637.51 1035.53,-637.51 1079.71,-662"/>
<text text-anchor="middle" x="991.35" y="-665" font-family="Helvetica,sans-Serif" font-size="10.00">escape&#45;issue&#45;body</text>
<text text-anchor="middle" x="991.35" y="-654" font-family="Helvetica,sans-Serif" font-size="10.00">(63 tok)</text>
</g>
<!-- cmd_issue_spec_review&#45;&gt;script_escape_issue_body -->
<g id="edge27" class="edge">
<title>cmd_issue_spec_review&#45;&gt;script_escape_issue_body</title>
<path fill="none" stroke="black" d="M523.41,-698.7C545.73,-677.42 586.07,-643.47 628.44,-630 728.48,-598.2 851.4,-621.27 925.17,-641.31"/>
<polygon fill="black" stroke="black" points="924.67,-644.8 935.25,-644.11 926.55,-638.06 924.67,-644.8"/>
</g>
<!-- script_spec_review_manifest -->
<g id="node31" class="node">
<title>script_spec_review_manifest</title>
<polygon fill="#ff9800" stroke="black" points="1091.71,-591 1041.53,-615.49 941.17,-615.49 890.99,-591 941.17,-566.51 1041.53,-566.51 1091.71,-591"/>
<text text-anchor="middle" x="991.35" y="-594" font-family="Helvetica,sans-Serif" font-size="10.00">spec&#45;review&#45;manifest</text>
<text text-anchor="middle" x="991.35" y="-583" font-family="Helvetica,sans-Serif" font-size="10.00">(169 tok)</text>
</g>
<!-- cmd_issue_spec_review&#45;&gt;script_spec_review_manifest -->
<g id="edge28" class="edge">
<title>cmd_issue_spec_review&#45;&gt;script_spec_review_manifest</title>
<path fill="none" stroke="black" d="M519.34,-698.75C539.95,-673.3 581.3,-628.11 628.44,-609 716.42,-573.34 826.43,-573.46 901.93,-579.58"/>
<polygon fill="black" stroke="black" points="902.08,-583.1 912.34,-580.48 902.68,-576.13 902.08,-583.1"/>
</g>
<!-- cmd_issue_review_aggregate&#45;&gt;cmd_issue_arch_drift -->
<!-- cmd_issue_review_aggregate&#45;&gt;cmd_issue_arch_drift -->
<!-- cmd_issue_glossary_check&#45;&gt;skill_workflow_issue_lifecycle -->
<!-- cmd_issue_glossary_check&#45;&gt;skill_ref_glossary_criteria -->
<g id="edge29" class="edge">
<title>cmd_issue_glossary_check&#45;&gt;skill_ref_glossary_criteria</title>
<path fill="none" stroke="black" d="M547.29,-476.95C570.7,-467.73 600.68,-457.35 628.44,-452 824.58,-414.18 1061.4,-416.21 1179.6,-420.38"/>
<polygon fill="black" stroke="black" points="1179.51,-423.88 1189.63,-420.75 1179.77,-416.88 1179.51,-423.88"/>
</g>
<!-- cmd_issue_arch_drift&#45;&gt;cmd_issue_create -->
<!-- cmd_issue_arch_drift&#45;&gt;script_spec_review_session_init -->
<!-- cmd_project_board_sync&#45;&gt;script_spec_review_session_init -->
<!-- agent_issue_critic&#45;&gt;agent_issue_feasibility -->
<!-- agent_issue_feasibility&#45;&gt;agent_worker_codex_reviewer -->
<!-- agent_worker_codex_reviewer&#45;&gt;script_escape_issue_body -->
<!-- script_state_read -->
<g id="node22" class="node">
<title>script_state_read</title>
<polygon fill="#ff9800" stroke="black" points="1048.66,-1118 1020,-1142.49 962.69,-1142.49 934.04,-1118 962.69,-1093.51 1020,-1093.51 1048.66,-1118"/>
<text text-anchor="middle" x="991.35" y="-1121" font-family="Helvetica,sans-Serif" font-size="10.00">state&#45;read</text>
<text text-anchor="middle" x="991.35" y="-1110" font-family="Helvetica,sans-Serif" font-size="10.00">(5,796 tok)</text>
</g>
<!-- script_state_write -->
<g id="node23" class="node">
<title>script_state_write</title>
<polygon fill="#ff9800" stroke="black" points="1048.66,-1047 1020,-1071.49 962.69,-1071.49 934.04,-1047 962.69,-1022.51 1020,-1022.51 1048.66,-1047"/>
<text text-anchor="middle" x="991.35" y="-1050" font-family="Helvetica,sans-Serif" font-size="10.00">state&#45;write</text>
<text text-anchor="middle" x="991.35" y="-1039" font-family="Helvetica,sans-Serif" font-size="10.00">(5,796 tok)</text>
</g>
<!-- script_state_read&#45;&gt;script_state_write -->
<!-- script_state_read&#45;&gt;script_state_write -->
<!-- script_state_read&#45;&gt;script_state_write -->
<!-- script_state_read&#45;&gt;script_state_write -->
<!-- script_state_read&#45;&gt;script_state_write -->
<!-- script_chain_runner -->
<g id="node24" class="node">
<title>script_chain_runner</title>
<polygon fill="#ff9800" stroke="black" points="1055.22,-1189 1023.29,-1213.49 959.41,-1213.49 927.47,-1189 959.41,-1164.51 1023.29,-1164.51 1055.22,-1189"/>
<text text-anchor="middle" x="991.35" y="-1192" font-family="Helvetica,sans-Serif" font-size="10.00">chain&#45;runner</text>
<text text-anchor="middle" x="991.35" y="-1181" font-family="Helvetica,sans-Serif" font-size="10.00">(9,633 tok)</text>
</g>
<!-- script_worker_terminal_guard -->
<g id="node25" class="node">
<title>script_worker_terminal_guard</title>
<polygon fill="#ff9800" stroke="black" points="1094.11,-1260 1042.73,-1284.49 939.97,-1284.49 888.59,-1260 939.97,-1235.51 1042.73,-1235.51 1094.11,-1260"/>
<text text-anchor="middle" x="991.35" y="-1263" font-family="Helvetica,sans-Serif" font-size="10.00">worker&#45;terminal&#45;guard</text>
<text text-anchor="middle" x="991.35" y="-1252" font-family="Helvetica,sans-Serif" font-size="10.00">(770 tok)</text>
</g>
<!-- script_worktree_create -->
<g id="node26" class="node">
<title>script_worktree_create</title>
<polygon fill="#ff9800" stroke="black" points="1068.98,-1331 1030.17,-1355.49 952.53,-1355.49 913.71,-1331 952.53,-1306.51 1030.17,-1306.51 1068.98,-1331"/>
<text text-anchor="middle" x="991.35" y="-1334" font-family="Helvetica,sans-Serif" font-size="10.00">worktree&#45;create</text>
<text text-anchor="middle" x="991.35" y="-1323" font-family="Helvetica,sans-Serif" font-size="10.00">(6,686 tok)</text>
</g>
<!-- script_autopilot_github -->
<g id="node27" class="node">
<title>script_autopilot_github</title>
<polygon fill="#ff9800" stroke="black" points="1068.98,-1402 1030.17,-1426.49 952.53,-1426.49 913.71,-1402 952.53,-1377.51 1030.17,-1377.51 1068.98,-1402"/>
<text text-anchor="middle" x="991.35" y="-1405" font-family="Helvetica,sans-Serif" font-size="10.00">autopilot&#45;github</text>
<text text-anchor="middle" x="991.35" y="-1394" font-family="Helvetica,sans-Serif" font-size="10.00">(6,371 tok)</text>
</g>
<!-- script_chain_steps -->
<g id="node28" class="node">
<title>script_chain_steps</title>
<polygon fill="#ff9800" stroke="black" points="1051.06,-1473 1021.2,-1497.49 961.49,-1497.49 931.64,-1473 961.49,-1448.51 1021.2,-1448.51 1051.06,-1473"/>
<text text-anchor="middle" x="991.35" y="-1476" font-family="Helvetica,sans-Serif" font-size="10.00">chain&#45;steps</text>
<text text-anchor="middle" x="991.35" y="-1465" font-family="Helvetica,sans-Serif" font-size="10.00">(9,633 tok)</text>
</g>
<!-- script_resolve_issue_num -->
<g id="node29" class="node">
<title>script_resolve_issue_num</title>
<polygon fill="#ff9800" stroke="black" points="1078.58,-1544 1034.96,-1568.49 947.73,-1568.49 904.12,-1544 947.73,-1519.51 1034.96,-1519.51 1078.58,-1544"/>
<text text-anchor="middle" x="991.35" y="-1547" font-family="Helvetica,sans-Serif" font-size="10.00">resolve&#45;issue&#45;num</text>
<text text-anchor="middle" x="991.35" y="-1536" font-family="Helvetica,sans-Serif" font-size="10.00">(716 tok)</text>
</g>
<!-- script_escape_issue_body&#45;&gt;script_spec_review_manifest -->
<!-- script_spec_review_session_init&#45;&gt;skill_lifecycle_processing_flow -->
<!-- script_spec_review_session_init&#45;&gt;skill_refine_processing_flow -->
<!-- script_issue_lifecycle_orchestrator&#45;&gt;script_co_issue_manual_fix_b -->
<!-- script_co_issue_manual_fix_b&#45;&gt;skill_co_issue_step0_5_modes -->
</g>
</svg>
