<?xml version="1.0" encoding="UTF-8" standalone="no"?>
<!DOCTYPE svg PUBLIC "-//W3C//DTD SVG 1.1//EN"
 "http://www.w3.org/Graphics/SVG/1.1/DTD/svg11.dtd">
<!-- Generated by graphviz version 2.43.0 (0)
 -->
<!-- Title: Dependencies Pages: 1 -->
<svg width="984pt" height="1307pt"
 viewBox="0.00 0.00 984.31 1307.00" xmlns="http://www.w3.org/2000/svg" xmlns:xlink="http://www.w3.org/1999/xlink">
<g id="graph0" class="graph" transform="scale(1 1) rotate(0) translate(4 1303)">
<title>Dependencies</title>
<polygon fill="white" stroke="transparent" points="-4,4 -4,-1303 980.31,-1303 980.31,4 -4,4"/>
<text text-anchor="middle" x="488.15" y="-1283.8" font-family="Helvetica,sans-Serif" font-size="14.00">co&#45;project</text>
<!-- skill_co_project -->
<g id="node1" class="node">
<title>skill_co_project</title>
<ellipse fill="#c8e6c9" stroke="black" cx="53.03" cy="-409" rx="53.07" ry="21.43"/>
<text text-anchor="middle" x="53.03" y="-412" font-family="Helvetica,sans-Serif" font-size="10.00">twl:co&#45;project</text>
<text text-anchor="middle" x="53.03" y="-401" font-family="Helvetica,sans-Serif" font-size="10.00">(1,456 tok)</text>
</g>
<!-- skill_workflow_plugin_create -->
<g id="node2" class="node">
<title>skill_workflow_plugin_create</title>
<ellipse fill="#e8f5e9" stroke="black" cx="264.48" cy="-758" rx="91.85" ry="21.43"/>
<text text-anchor="middle" x="264.48" y="-761" font-family="Helvetica,sans-Serif" font-size="10.00">twl:workflow&#45;plugin&#45;create</text>
<text text-anchor="middle" x="264.48" y="-750" font-family="Helvetica,sans-Serif" font-size="10.00">(558 tok)</text>
</g>
<!-- skill_co_project&#45;&gt;skill_workflow_plugin_create -->
<g id="edge10" class="edge">
<title>skill_co_project&#45;&gt;skill_workflow_plugin_create</title>
<path fill="none" stroke="black" d="M55.14,-430.54C59.2,-487.22 78.04,-641.91 164.07,-726 169.81,-731.61 176.54,-736.24 183.75,-740.06"/>
<polygon fill="black" stroke="black" points="182.55,-743.37 193.09,-744.48 185.54,-737.04 182.55,-743.37"/>
</g>
<!-- skill_workflow_plugin_diagnose -->
<g id="node3" class="node">
<title>skill_workflow_plugin_diagnose</title>
<ellipse fill="#e8f5e9" stroke="black" cx="264.48" cy="-694" rx="100.32" ry="21.43"/>
<text text-anchor="middle" x="264.48" y="-697" font-family="Helvetica,sans-Serif" font-size="10.00">twl:workflow&#45;plugin&#45;diagnose</text>
<text text-anchor="middle" x="264.48" y="-686" font-family="Helvetica,sans-Serif" font-size="10.00">(683 tok)</text>
</g>
<!-- skill_co_project&#45;&gt;skill_workflow_plugin_diagnose -->
<g id="edge11" class="edge">
<title>skill_co_project&#45;&gt;skill_workflow_plugin_diagnose</title>
<path fill="none" stroke="black" d="M57.81,-430.37C67.23,-477.56 96.08,-591.59 164.07,-656 171.54,-663.08 180.46,-668.87 189.86,-673.61"/>
<polygon fill="black" stroke="black" points="188.43,-676.81 198.97,-677.84 191.37,-670.46 188.43,-676.81"/>
</g>
<!-- skill_ref_types -->
<g id="node5" class="node">
<title>skill_ref_types</title>
<polygon fill="#e1f5fe" stroke="black" points="928.31,-650 863.31,-650 863.31,-614 934.31,-614 934.31,-644 928.31,-650"/>
<polyline fill="none" stroke="black" points="928.31,-650 928.31,-644 "/>
<polyline fill="none" stroke="black" points="934.31,-644 928.31,-644 "/>
<text text-anchor="middle" x="898.81" y="-635" font-family="Helvetica,sans-Serif" font-size="10.00">twl:ref&#45;types</text>
<text text-anchor="middle" x="898.81" y="-624" font-family="Helvetica,sans-Serif" font-size="10.00">(2,144 tok)</text>
</g>
<!-- skill_co_project&#45;&gt;skill_ref_types -->
<g id="edge13" class="edge">
<title>skill_co_project&#45;&gt;skill_ref_types</title>
<path fill="none" stroke="black" d="M59.51,-430.13C71.25,-471.02 102.9,-560.89 164.07,-606 258.71,-675.8 305.93,-648.71 422.88,-661 485.21,-667.55 501.25,-662.88 563.88,-661 652.64,-658.33 674.9,-657.24 763.31,-649 793.3,-646.2 826.93,-641.95 853.06,-638.4"/>
<polygon fill="black" stroke="black" points="853.61,-641.86 863.04,-637.03 852.66,-634.93 853.61,-641.86"/>
</g>
<!-- skill_ref_practices -->
<g id="node6" class="node">
<title>skill_ref_practices</title>
<polygon fill="#e1f5fe" stroke="black" points="935.81,-592 855.81,-592 855.81,-556 941.81,-556 941.81,-586 935.81,-592"/>
<polyline fill="none" stroke="black" points="935.81,-592 935.81,-586 "/>
<polyline fill="none" stroke="black" points="941.81,-586 935.81,-586 "/>
<text text-anchor="middle" x="898.81" y="-577" font-family="Helvetica,sans-Serif" font-size="10.00">twl:ref&#45;practices</text>
<text text-anchor="middle" x="898.81" y="-566" font-family="Helvetica,sans-Serif" font-size="10.00">(6,471 tok)</text>
</g>
<!-- skill_co_project&#45;&gt;skill_ref_practices -->
<g id="edge14" class="edge">
<title>skill_co_project&#45;&gt;skill_ref_practices</title>
<path fill="none" stroke="black" d="M70.76,-429.16C90.55,-451.48 125.67,-486.61 164.07,-504 286.01,-559.22 698.75,-570.94 845.49,-573.37"/>
<polygon fill="black" stroke="black" points="845.53,-576.87 855.59,-573.53 845.65,-569.88 845.53,-576.87"/>
</g>
<!-- skill_ref_deps_format -->
<g id="node7" class="node">
<title>skill_ref_deps_format</title>
<polygon fill="#e1f5fe" stroke="black" points="941.81,-534 849.81,-534 849.81,-498 947.81,-498 947.81,-528 941.81,-534"/>
<polyline fill="none" stroke="black" points="941.81,-534 941.81,-528 "/>
<polyline fill="none" stroke="black" points="947.81,-528 941.81,-528 "/>
<text text-anchor="middle" x="898.81" y="-519" font-family="Helvetica,sans-Serif" font-size="10.00">twl:ref&#45;deps&#45;format</text>
<text text-anchor="middle" x="898.81" y="-508" font-family="Helvetica,sans-Serif" font-size="10.00">(1,804 tok)</text>
</g>
<!-- skill_co_project&#45;&gt;skill_ref_deps_format -->
<g id="edge15" class="edge">
<title>skill_co_project&#45;&gt;skill_ref_deps_format</title>
<path fill="none" stroke="black" d="M82.89,-426.67C104.51,-439.16 135.21,-455.33 164.07,-465 404.01,-545.4 712.18,-531.88 839.14,-521.68"/>
<polygon fill="black" stroke="black" points="839.74,-525.14 849.42,-520.82 839.16,-518.16 839.74,-525.14"/>
</g>
<!-- cmd_label_sync -->
<g id="node9" class="node">
<title>cmd_label_sync</title>
<polygon fill="#e3f2fd" stroke="black" points="524.88,-650 461.88,-650 461.88,-614 524.88,-614 524.88,-650"/>
<text text-anchor="middle" x="493.38" y="-635" font-family="Helvetica,sans-Serif" font-size="10.00">label&#45;sync</text>
<text text-anchor="middle" x="493.38" y="-624" font-family="Helvetica,sans-Serif" font-size="10.00">(1,185 tok)</text>
</g>
<!-- skill_co_project&#45;&gt;cmd_label_sync -->
<g id="edge12" class="edge">
<title>skill_co_project&#45;&gt;cmd_label_sync</title>
<path fill="none" stroke="black" d="M62.69,-429.9C77.88,-463.81 112.68,-530.42 164.07,-564 211.19,-594.79 374.5,-617.87 451.55,-627.31"/>
<polygon fill="black" stroke="black" points="451.48,-630.83 461.82,-628.56 452.32,-623.88 451.48,-630.83"/>
</g>
<!-- cmd_project_create -->
<g id="node10" class="node">
<title>cmd_project_create</title>
<polygon fill="#e3f2fd" stroke="black" points="531.38,-500 455.38,-500 455.38,-464 531.38,-464 531.38,-500"/>
<text text-anchor="middle" x="493.38" y="-485" font-family="Helvetica,sans-Serif" font-size="10.00">project&#45;create</text>
<text text-anchor="middle" x="493.38" y="-474" font-family="Helvetica,sans-Serif" font-size="10.00">(440 tok)</text>
</g>
<!-- skill_co_project&#45;&gt;cmd_project_create -->
<g id="edge1" class="edge">
<title>skill_co_project&#45;&gt;cmd_project_create</title>
<path fill="none" stroke="black" d="M99.13,-419.55C118.99,-424.01 142.62,-429.07 164.07,-433 263.67,-451.27 381.22,-467.55 445.16,-475.96"/>
<polygon fill="black" stroke="black" points="444.95,-479.46 455.32,-477.29 445.86,-472.52 444.95,-479.46"/>
</g>
<!-- cmd_project_board_configure -->
<g id="node11" class="node">
<title>cmd_project_board_configure</title>
<polygon fill="#e3f2fd" stroke="black" points="551.38,-384 435.38,-384 435.38,-348 551.38,-348 551.38,-384"/>
<text text-anchor="middle" x="493.38" y="-369" font-family="Helvetica,sans-Serif" font-size="10.00">project&#45;board&#45;configure</text>
<text text-anchor="middle" x="493.38" y="-358" font-family="Helvetica,sans-Serif" font-size="10.00">(1,167 tok)</text>
</g>
<!-- skill_co_project&#45;&gt;cmd_project_board_configure -->
<g id="edge3" class="edge">
<title>skill_co_project&#45;&gt;cmd_project_board_configure</title>
<path fill="none" stroke="black" d="M104.75,-404.03C183.87,-396.26 336.76,-381.27 425.04,-372.61"/>
<polygon fill="black" stroke="black" points="425.6,-376.07 435.21,-371.61 424.92,-369.1 425.6,-376.07"/>
</g>
<!-- cmd_project_governance -->
<g id="node12" class="node">
<title>cmd_project_governance</title>
<polygon fill="#e3f2fd" stroke="black" points="542.88,-442 443.88,-442 443.88,-406 542.88,-406 542.88,-442"/>
<text text-anchor="middle" x="493.38" y="-427" font-family="Helvetica,sans-Serif" font-size="10.00">project&#45;governance</text>
<text text-anchor="middle" x="493.38" y="-416" font-family="Helvetica,sans-Serif" font-size="10.00">(974 tok)</text>
</g>
<!-- skill_co_project&#45;&gt;cmd_project_governance -->
<g id="edge2" class="edge">
<title>skill_co_project&#45;&gt;cmd_project_governance</title>
<path fill="none" stroke="black" d="M106.04,-410.78C188.2,-413.59 347.51,-419.04 433.67,-421.99"/>
<polygon fill="black" stroke="black" points="433.69,-425.49 443.8,-422.34 433.93,-418.5 433.69,-425.49"/>
</g>
<!-- cmd_project_migrate -->
<g id="node13" class="node">
<title>cmd_project_migrate</title>
<polygon fill="#e3f2fd" stroke="black" points="533.88,-326 452.88,-326 452.88,-290 533.88,-290 533.88,-326"/>
<text text-anchor="middle" x="493.38" y="-311" font-family="Helvetica,sans-Serif" font-size="10.00">project&#45;migrate</text>
<text text-anchor="middle" x="493.38" y="-300" font-family="Helvetica,sans-Serif" font-size="10.00">(462 tok)</text>
</g>
<!-- skill_co_project&#45;&gt;cmd_project_migrate -->
<g id="edge4" class="edge">
<title>skill_co_project&#45;&gt;cmd_project_migrate</title>
<path fill="none" stroke="black" d="M93.71,-395.22C114.5,-388.29 140.49,-380.1 164.07,-374 261.84,-348.7 378.09,-327.35 442.73,-316.23"/>
<polygon fill="black" stroke="black" points="443.38,-319.67 452.65,-314.54 442.2,-312.77 443.38,-319.67"/>
</g>
<!-- cmd_container_dependency_check -->
<g id="node14" class="node">
<title>cmd_container_dependency_check</title>
<polygon fill="#e3f2fd" stroke="black" points="563.88,-268 422.88,-268 422.88,-232 563.88,-232 563.88,-268"/>
<text text-anchor="middle" x="493.38" y="-253" font-family="Helvetica,sans-Serif" font-size="10.00">container&#45;dependency&#45;check</text>
<text text-anchor="middle" x="493.38" y="-242" font-family="Helvetica,sans-Serif" font-size="10.00">(493 tok)</text>
</g>
<!-- skill_co_project&#45;&gt;cmd_container_dependency_check -->
<g id="edge5" class="edge">
<title>skill_co_project&#45;&gt;cmd_container_dependency_check</title>
<path fill="none" stroke="black" d="M74.66,-389.48C95.59,-370.74 129.72,-342.98 164.07,-327 244.22,-289.71 344.04,-269.62 412.45,-259.42"/>
<polygon fill="black" stroke="black" points="413.33,-262.82 422.73,-257.92 412.33,-255.9 413.33,-262.82"/>
</g>
<!-- cmd_setup_crg -->
<g id="node15" class="node">
<title>cmd_setup_crg</title>
<polygon fill="#e3f2fd" stroke="black" points="521.88,-210 464.88,-210 464.88,-174 521.88,-174 521.88,-210"/>
<text text-anchor="middle" x="493.38" y="-195" font-family="Helvetica,sans-Serif" font-size="10.00">setup&#45;crg</text>
<text text-anchor="middle" x="493.38" y="-184" font-family="Helvetica,sans-Serif" font-size="10.00">(754 tok)</text>
</g>
<!-- skill_co_project&#45;&gt;cmd_setup_crg -->
<g id="edge6" class="edge">
<title>skill_co_project&#45;&gt;cmd_setup_crg</title>
<path fill="none" stroke="black" d="M63.7,-388.05C79.74,-355.79 115,-294.38 164.07,-263 256.21,-204.07 389.57,-193.38 454.29,-191.87"/>
<polygon fill="black" stroke="black" points="454.5,-195.37 464.44,-191.7 454.38,-188.37 454.5,-195.37"/>
</g>
<!-- cmd_snapshot_analyze -->
<g id="node16" class="node">
<title>cmd_snapshot_analyze</title>
<polygon fill="#e3f2fd" stroke="black" points="539.88,-152 446.88,-152 446.88,-116 539.88,-116 539.88,-152"/>
<text text-anchor="middle" x="493.38" y="-137" font-family="Helvetica,sans-Serif" font-size="10.00">snapshot&#45;analyze</text>
<text text-anchor="middle" x="493.38" y="-126" font-family="Helvetica,sans-Serif" font-size="10.00">(600 tok)</text>
</g>
<!-- skill_co_project&#45;&gt;cmd_snapshot_analyze -->
<g id="edge7" class="edge">
<title>skill_co_project&#45;&gt;cmd_snapshot_analyze</title>
<path fill="none" stroke="black" d="M58.43,-387.64C68.63,-343.87 98.21,-244.01 164.07,-195 244.63,-135.04 366.5,-128.3 436.88,-130.2"/>
<polygon fill="black" stroke="black" points="436.77,-133.7 446.88,-130.54 437.01,-126.7 436.77,-133.7"/>
</g>
<!-- cmd_snapshot_classify -->
<g id="node17" class="node">
<title>cmd_snapshot_classify</title>
<polygon fill="#e3f2fd" stroke="black" points="539.88,-94 446.88,-94 446.88,-58 539.88,-58 539.88,-94"/>
<text text-anchor="middle" x="493.38" y="-79" font-family="Helvetica,sans-Serif" font-size="10.00">snapshot&#45;classify</text>
<text text-anchor="middle" x="493.38" y="-68" font-family="Helvetica,sans-Serif" font-size="10.00">(870 tok)</text>
</g>
<!-- skill_co_project&#45;&gt;cmd_snapshot_classify -->
<g id="edge8" class="edge">
<title>skill_co_project&#45;&gt;cmd_snapshot_classify</title>
<path fill="none" stroke="black" d="M55.43,-387.52C60.13,-334.02 80.26,-194.28 164.07,-127 242.2,-64.27 365.47,-63.19 436.64,-68.98"/>
<polygon fill="black" stroke="black" points="436.48,-72.48 446.75,-69.87 437.1,-65.5 436.48,-72.48"/>
</g>
<!-- cmd_snapshot_generate -->
<g id="node18" class="node">
<title>cmd_snapshot_generate</title>
<polygon fill="#e3f2fd" stroke="black" points="541.88,-36 444.88,-36 444.88,0 541.88,0 541.88,-36"/>
<text text-anchor="middle" x="493.38" y="-21" font-family="Helvetica,sans-Serif" font-size="10.00">snapshot&#45;generate</text>
<text text-anchor="middle" x="493.38" y="-10" font-family="Helvetica,sans-Serif" font-size="10.00">(735 tok)</text>
</g>
<!-- skill_co_project&#45;&gt;cmd_snapshot_generate -->
<g id="edge9" class="edge">
<title>skill_co_project&#45;&gt;cmd_snapshot_generate</title>
<path fill="none" stroke="black" d="M53.6,-387.76C53.63,-326.46 62.79,-148.23 164.07,-63 240.01,0.91 362.69,-0.88 434.64,-8.85"/>
<polygon fill="black" stroke="black" points="434.53,-12.36 444.87,-10.06 435.35,-5.41 434.53,-12.36"/>
</g>
<!-- skill_workflow_plugin_create&#45;&gt;skill_workflow_plugin_diagnose -->
<!-- cmd_plugin_interview -->
<g id="node19" class="node">
<title>cmd_plugin_interview</title>
<polygon fill="#e3f2fd" stroke="black" points="535.38,-1276 451.38,-1276 451.38,-1240 535.38,-1240 535.38,-1276"/>
<text text-anchor="middle" x="493.38" y="-1261" font-family="Helvetica,sans-Serif" font-size="10.00">plugin&#45;interview</text>
<text text-anchor="middle" x="493.38" y="-1250" font-family="Helvetica,sans-Serif" font-size="10.00">(1,086 tok)</text>
</g>
<!-- skill_workflow_plugin_create&#45;&gt;cmd_plugin_interview -->
<g id="edge16" class="edge">
<title>skill_workflow_plugin_create&#45;&gt;cmd_plugin_interview</title>
<path fill="none" stroke="black" d="M266.55,-779.42C271.31,-852.19 296.37,-1092.93 422.88,-1229 428.27,-1234.79 434.99,-1239.46 442.11,-1243.22"/>
<polygon fill="black" stroke="black" points="440.73,-1246.44 451.27,-1247.51 443.7,-1240.1 440.73,-1246.44"/>
</g>
<!-- cmd_plugin_research -->
<g id="node20" class="node">
<title>cmd_plugin_research</title>
<polygon fill="#e3f2fd" stroke="black" points="534.88,-1218 451.88,-1218 451.88,-1182 534.88,-1182 534.88,-1218"/>
<text text-anchor="middle" x="493.38" y="-1203" font-family="Helvetica,sans-Serif" font-size="10.00">plugin&#45;research</text>
<text text-anchor="middle" x="493.38" y="-1192" font-family="Helvetica,sans-Serif" font-size="10.00">(655 tok)</text>
</g>
<!-- skill_workflow_plugin_create&#45;&gt;cmd_plugin_research -->
<g id="edge17" class="edge">
<title>skill_workflow_plugin_create&#45;&gt;cmd_plugin_research</title>
<path fill="none" stroke="black" d="M267.74,-779.58C275.86,-846.64 309.4,-1053.92 422.88,-1171 428.45,-1176.74 435.33,-1181.4 442.57,-1185.15"/>
<polygon fill="black" stroke="black" points="441.31,-1188.43 451.86,-1189.45 444.25,-1182.08 441.31,-1188.43"/>
</g>
<!-- cmd_plugin_design -->
<g id="node21" class="node">
<title>cmd_plugin_design</title>
<polygon fill="#e3f2fd" stroke="black" points="530.38,-1160 456.38,-1160 456.38,-1124 530.38,-1124 530.38,-1160"/>
<text text-anchor="middle" x="493.38" y="-1145" font-family="Helvetica,sans-Serif" font-size="10.00">plugin&#45;design</text>
<text text-anchor="middle" x="493.38" y="-1134" font-family="Helvetica,sans-Serif" font-size="10.00">(1,192 tok)</text>
</g>
<!-- skill_workflow_plugin_create&#45;&gt;cmd_plugin_design -->
<g id="edge18" class="edge">
<title>skill_workflow_plugin_create&#45;&gt;cmd_plugin_design</title>
<path fill="none" stroke="black" d="M269.26,-779.54C280.98,-840.21 322.16,-1014.47 422.88,-1113 429.61,-1119.58 438.05,-1124.75 446.7,-1128.79"/>
<polygon fill="black" stroke="black" points="445.53,-1132.09 456.11,-1132.73 448.24,-1125.64 445.53,-1132.09"/>
</g>
<!-- cmd_plugin_generate -->
<g id="node22" class="node">
<title>cmd_plugin_generate</title>
<polygon fill="#e3f2fd" stroke="black" points="534.88,-1102 451.88,-1102 451.88,-1066 534.88,-1066 534.88,-1102"/>
<text text-anchor="middle" x="493.38" y="-1087" font-family="Helvetica,sans-Serif" font-size="10.00">plugin&#45;generate</text>
<text text-anchor="middle" x="493.38" y="-1076" font-family="Helvetica,sans-Serif" font-size="10.00">(1,419 tok)</text>
</g>
<!-- skill_workflow_plugin_create&#45;&gt;cmd_plugin_generate -->
<g id="edge19" class="edge">
<title>skill_workflow_plugin_create&#45;&gt;cmd_plugin_generate</title>
<path fill="none" stroke="black" d="M271.32,-779.46C286.96,-833.12 334.71,-974.59 422.88,-1055 428.66,-1060.27 435.52,-1064.65 442.66,-1068.29"/>
<polygon fill="black" stroke="black" points="441.23,-1071.48 451.77,-1072.49 444.16,-1065.12 441.23,-1071.48"/>
</g>
<!-- skill_workflow_plugin_diagnose&#45;&gt;cmd_label_sync -->
<!-- cmd_plugin_migrate_analyze -->
<g id="node23" class="node">
<title>cmd_plugin_migrate_analyze</title>
<polygon fill="#e3f2fd" stroke="black" points="550.38,-1044 436.38,-1044 436.38,-1008 550.38,-1008 550.38,-1044"/>
<text text-anchor="middle" x="493.38" y="-1029" font-family="Helvetica,sans-Serif" font-size="10.00">plugin&#45;migrate&#45;analyze</text>
<text text-anchor="middle" x="493.38" y="-1018" font-family="Helvetica,sans-Serif" font-size="10.00">(458 tok)</text>
</g>
<!-- skill_workflow_plugin_diagnose&#45;&gt;cmd_plugin_migrate_analyze -->
<g id="edge20" class="edge">
<title>skill_workflow_plugin_diagnose&#45;&gt;cmd_plugin_migrate_analyze</title>
<path fill="none" stroke="black" d="M339.73,-708.05C349.18,-712.5 357.95,-718.33 364.88,-726 447.49,-817.36 344.18,-902.25 422.88,-997 424.53,-998.98 426.33,-1000.83 428.26,-1002.55"/>
<polygon fill="black" stroke="black" points="426.15,-1005.34 436.23,-1008.6 430.38,-999.77 426.15,-1005.34"/>
</g>
<!-- cmd_plugin_diagnose -->
<g id="node24" class="node">
<title>cmd_plugin_diagnose</title>
<polygon fill="#e3f2fd" stroke="black" points="535.38,-986 451.38,-986 451.38,-950 535.38,-950 535.38,-986"/>
<text text-anchor="middle" x="493.38" y="-971" font-family="Helvetica,sans-Serif" font-size="10.00">plugin&#45;diagnose</text>
<text text-anchor="middle" x="493.38" y="-960" font-family="Helvetica,sans-Serif" font-size="10.00">(944 tok)</text>
</g>
<!-- skill_workflow_plugin_diagnose&#45;&gt;cmd_plugin_diagnose -->
<g id="edge21" class="edge">
<title>skill_workflow_plugin_diagnose&#45;&gt;cmd_plugin_diagnose</title>
<path fill="none" stroke="black" d="M339.1,-708.29C348.7,-712.7 357.68,-718.46 364.88,-726 432.66,-796.94 358.14,-865.28 422.88,-939 428.16,-945.01 434.89,-949.8 442.06,-953.62"/>
<polygon fill="black" stroke="black" points="440.78,-956.88 451.32,-957.95 443.75,-950.54 440.78,-956.88"/>
</g>
<!-- cmd_plugin_fix -->
<g id="node25" class="node">
<title>cmd_plugin_fix</title>
<polygon fill="#e3f2fd" stroke="black" points="524.88,-870 461.88,-870 461.88,-834 524.88,-834 524.88,-870"/>
<text text-anchor="middle" x="493.38" y="-855" font-family="Helvetica,sans-Serif" font-size="10.00">plugin&#45;fix</text>
<text text-anchor="middle" x="493.38" y="-844" font-family="Helvetica,sans-Serif" font-size="10.00">(1,074 tok)</text>
</g>
<!-- skill_workflow_plugin_diagnose&#45;&gt;cmd_plugin_fix -->
<g id="edge23" class="edge">
<title>skill_workflow_plugin_diagnose&#45;&gt;cmd_plugin_fix</title>
<path fill="none" stroke="black" d="M335.06,-709.23C345.72,-713.52 356.08,-719 364.88,-726 404.2,-757.26 384.91,-790.12 422.88,-823 431.36,-830.34 441.96,-836.01 452.3,-840.32"/>
<polygon fill="black" stroke="black" points="451.07,-843.6 461.66,-843.89 453.57,-837.06 451.07,-843.6"/>
</g>
<!-- cmd_plugin_verify -->
<g id="node26" class="node">
<title>cmd_plugin_verify</title>
<polygon fill="#e3f2fd" stroke="black" points="527.88,-812 458.88,-812 458.88,-776 527.88,-776 527.88,-812"/>
<text text-anchor="middle" x="493.38" y="-797" font-family="Helvetica,sans-Serif" font-size="10.00">plugin&#45;verify</text>
<text text-anchor="middle" x="493.38" y="-786" font-family="Helvetica,sans-Serif" font-size="10.00">(518 tok)</text>
</g>
<!-- skill_workflow_plugin_diagnose&#45;&gt;cmd_plugin_verify -->
<g id="edge24" class="edge">
<title>skill_workflow_plugin_diagnose&#45;&gt;cmd_plugin_verify</title>
<path fill="none" stroke="black" d="M326.73,-710.73C339.6,-715.07 352.89,-720.18 364.88,-726 392.83,-739.56 395.53,-750.28 422.88,-765 431.17,-769.46 440.29,-773.7 449.12,-777.5"/>
<polygon fill="black" stroke="black" points="447.96,-780.81 458.54,-781.43 450.66,-774.35 447.96,-780.81"/>
</g>
<!-- cmd_plugin_phase_diagnose -->
<g id="node27" class="node">
<title>cmd_plugin_phase_diagnose</title>
<polygon fill="#bbdefb" stroke="black" points="549.88,-928 436.88,-928 436.88,-892 549.88,-892 549.88,-928"/>
<text text-anchor="middle" x="493.38" y="-913" font-family="Helvetica,sans-Serif" font-size="10.00">plugin&#45;phase&#45;diagnose</text>
<text text-anchor="middle" x="493.38" y="-902" font-family="Helvetica,sans-Serif" font-size="10.00">(631 tok)</text>
</g>
<!-- skill_workflow_plugin_diagnose&#45;&gt;cmd_plugin_phase_diagnose -->
<g id="edge22" class="edge">
<title>skill_workflow_plugin_diagnose&#45;&gt;cmd_plugin_phase_diagnose</title>
<path fill="none" stroke="black" d="M337.73,-708.56C347.69,-712.93 357.15,-718.61 364.88,-726 418.09,-776.78 371.85,-828.03 422.88,-881 424.51,-882.68 426.24,-884.27 428.06,-885.77"/>
<polygon fill="black" stroke="black" points="426.37,-888.86 436.55,-891.8 430.42,-883.16 426.37,-888.86"/>
</g>
<!-- cmd_plugin_phase_verify -->
<g id="node28" class="node">
<title>cmd_plugin_phase_verify</title>
<polygon fill="#bbdefb" stroke="black" points="542.38,-754 444.38,-754 444.38,-718 542.38,-718 542.38,-754"/>
<text text-anchor="middle" x="493.38" y="-739" font-family="Helvetica,sans-Serif" font-size="10.00">plugin&#45;phase&#45;verify</text>
<text text-anchor="middle" x="493.38" y="-728" font-family="Helvetica,sans-Serif" font-size="10.00">(634 tok)</text>
</g>
<!-- skill_workflow_plugin_diagnose&#45;&gt;cmd_plugin_phase_verify -->
<g id="edge25" class="edge">
<title>skill_workflow_plugin_diagnose&#45;&gt;cmd_plugin_phase_verify</title>
<path fill="none" stroke="black" d="M340.72,-707.93C371.05,-713.54 405.51,-719.92 433.91,-725.18"/>
<polygon fill="black" stroke="black" points="433.61,-728.68 444.08,-727.06 434.88,-721.8 433.61,-728.68"/>
</g>
<!-- skill_ref_specialist_output_schema -->
<g id="node4" class="node">
<title>skill_ref_specialist_output_schema</title>
<polygon fill="#e1f5fe" stroke="black" points="970.31,-889 821.31,-889 821.31,-853 976.31,-853 976.31,-883 970.31,-889"/>
<polyline fill="none" stroke="black" points="970.31,-889 970.31,-883 "/>
<polyline fill="none" stroke="black" points="976.31,-883 970.31,-883 "/>
<text text-anchor="middle" x="898.81" y="-874" font-family="Helvetica,sans-Serif" font-size="10.00">twl:ref&#45;specialist&#45;output&#45;schema</text>
<text text-anchor="middle" x="898.81" y="-863" font-family="Helvetica,sans-Serif" font-size="10.00">(2,884 tok)</text>
</g>
<!-- skill_ref_architecture -->
<g id="node8" class="node">
<title>skill_ref_architecture</title>
<polygon fill="#e1f5fe" stroke="black" points="941.81,-831 849.81,-831 849.81,-795 947.81,-795 947.81,-825 941.81,-831"/>
<polyline fill="none" stroke="black" points="941.81,-831 941.81,-825 "/>
<polyline fill="none" stroke="black" points="947.81,-825 941.81,-825 "/>
<text text-anchor="middle" x="898.81" y="-816" font-family="Helvetica,sans-Serif" font-size="10.00">twl:ref&#45;architecture</text>
<text text-anchor="middle" x="898.81" y="-805" font-family="Helvetica,sans-Serif" font-size="10.00">(2,234 tok)</text>
</g>
<!-- skill_ref_specialist_output_schema&#45;&gt;skill_ref_architecture -->
<!-- skill_ref_specialist_output_schema&#45;&gt;skill_ref_architecture -->
<!-- skill_ref_types&#45;&gt;skill_ref_practices -->
<!-- skill_ref_practices&#45;&gt;skill_ref_deps_format -->
<!-- cmd_label_sync&#45;&gt;skill_ref_types -->
<!-- cmd_project_create&#45;&gt;cmd_project_governance -->
<!-- cmd_project_board_configure&#45;&gt;cmd_project_migrate -->
<!-- cmd_project_governance&#45;&gt;cmd_project_board_configure -->
<!-- cmd_project_migrate&#45;&gt;cmd_container_dependency_check -->
<!-- cmd_container_dependency_check&#45;&gt;cmd_setup_crg -->
<!-- cmd_setup_crg&#45;&gt;cmd_snapshot_analyze -->
<!-- cmd_snapshot_analyze&#45;&gt;cmd_snapshot_classify -->
<!-- cmd_snapshot_classify&#45;&gt;cmd_snapshot_generate -->
<!-- cmd_snapshot_generate&#45;&gt;skill_workflow_plugin_create -->
<!-- cmd_plugin_interview&#45;&gt;cmd_plugin_research -->
<!-- cmd_plugin_research&#45;&gt;cmd_plugin_design -->
<!-- cmd_plugin_design&#45;&gt;cmd_plugin_generate -->
<!-- cmd_plugin_migrate_analyze&#45;&gt;cmd_plugin_diagnose -->
<!-- cmd_plugin_diagnose&#45;&gt;cmd_plugin_phase_diagnose -->
<!-- cmd_plugin_fix&#45;&gt;cmd_plugin_verify -->
<!-- cmd_plugin_verify&#45;&gt;cmd_plugin_phase_verify -->
<!-- cmd_plugin_phase_diagnose&#45;&gt;skill_ref_specialist_output_schema -->
<g id="edge29" class="edge">
<title>cmd_plugin_phase_diagnose&#45;&gt;skill_ref_specialist_output_schema</title>
<path fill="none" stroke="black" d="M547.62,-928.11C553.43,-931.25 558.99,-934.86 563.88,-939 600.8,-970.21 579.56,-1007.65 621.88,-1031 676.92,-1061.36 706.33,-1057.54 763.31,-1031 822.29,-1003.53 864.63,-936.05 884.71,-898.08"/>
<polygon fill="black" stroke="black" points="887.86,-899.6 889.33,-889.11 881.64,-896.39 887.86,-899.6"/>
</g>
<!-- cmd_plugin_phase_diagnose&#45;&gt;skill_ref_architecture -->
<g id="edge30" class="edge">
<title>cmd_plugin_phase_diagnose&#45;&gt;skill_ref_architecture</title>
<path fill="none" stroke="black" d="M541.82,-891.94C549.34,-888.59 556.93,-884.9 563.88,-881 591.65,-865.43 592.1,-850.22 621.88,-839 693.31,-812.09 782.16,-808.54 839.41,-809.74"/>
<polygon fill="black" stroke="black" points="839.64,-813.25 849.73,-810.02 839.82,-806.25 839.64,-813.25"/>
</g>
<!-- cmd_plugin_phase_diagnose&#45;&gt;cmd_plugin_fix -->
<!-- agent_worker_structure -->
<g id="node29" class="node">
<title>agent_worker_structure</title>
<ellipse fill="#ede7f6" stroke="black" cx="692.6" cy="-999" rx="61.54" ry="21.43"/>
<text text-anchor="middle" x="692.6" y="-1002" font-family="Helvetica,sans-Serif" font-size="10.00">worker&#45;structure</text>
<text text-anchor="middle" x="692.6" y="-991" font-family="Helvetica,sans-Serif" font-size="10.00">(1,244 tok)</text>
</g>
<!-- cmd_plugin_phase_diagnose&#45;&gt;agent_worker_structure -->
<g id="edge26" class="edge">
<title>cmd_plugin_phase_diagnose&#45;&gt;agent_worker_structure</title>
<path fill="none" stroke="black" stroke-dasharray="5,2" d="M538.66,-928.05C547.07,-931.6 555.78,-935.35 563.88,-939 589.99,-950.74 595.99,-954.81 621.88,-967 629.5,-970.59 637.61,-974.36 645.51,-978"/>
<polygon fill="black" stroke="black" points="644.08,-981.19 654.63,-982.19 647.01,-974.84 644.08,-981.19"/>
</g>
<!-- agent_worker_principles -->
<g id="node30" class="node">
<title>agent_worker_principles</title>
<ellipse fill="#ede7f6" stroke="black" cx="692.6" cy="-935" rx="63.78" ry="21.43"/>
<text text-anchor="middle" x="692.6" y="-938" font-family="Helvetica,sans-Serif" font-size="10.00">worker&#45;principles</text>
<text text-anchor="middle" x="692.6" y="-927" font-family="Helvetica,sans-Serif" font-size="10.00">(1,154 tok)</text>
</g>
<!-- cmd_plugin_phase_diagnose&#45;&gt;agent_worker_principles -->
<g id="edge27" class="edge">
<title>cmd_plugin_phase_diagnose&#45;&gt;agent_worker_principles</title>
<path fill="none" stroke="black" stroke-dasharray="5,2" d="M550.11,-917.06C572.73,-919.93 599.09,-923.27 622.89,-926.29"/>
<polygon fill="black" stroke="black" points="622.55,-929.78 632.91,-927.56 623.43,-922.83 622.55,-929.78"/>
</g>
<!-- agent_worker_architecture -->
<g id="node31" class="node">
<title>agent_worker_architecture</title>
<ellipse fill="#ede7f6" stroke="black" cx="692.6" cy="-871" rx="70.92" ry="21.43"/>
<text text-anchor="middle" x="692.6" y="-874" font-family="Helvetica,sans-Serif" font-size="10.00">worker&#45;architecture</text>
<text text-anchor="middle" x="692.6" y="-863" font-family="Helvetica,sans-Serif" font-size="10.00">(1,695 tok)</text>
</g>
<!-- cmd_plugin_phase_diagnose&#45;&gt;agent_worker_architecture -->
<g id="edge28" class="edge">
<title>cmd_plugin_phase_diagnose&#45;&gt;agent_worker_architecture</title>
<path fill="none" stroke="black" stroke-dasharray="5,2" d="M550.11,-898.98C572.73,-894.51 599.09,-889.29 622.89,-884.59"/>
<polygon fill="black" stroke="black" points="623.78,-887.98 632.91,-882.6 622.43,-881.11 623.78,-887.98"/>
</g>
<!-- cmd_plugin_phase_verify&#45;&gt;skill_ref_specialist_output_schema -->
<g id="edge34" class="edge">
<title>cmd_plugin_phase_verify&#45;&gt;skill_ref_specialist_output_schema</title>
<path fill="none" stroke="black" d="M542.65,-752.15C615.4,-776.5 753.24,-822.62 834.14,-849.69"/>
<polygon fill="black" stroke="black" points="833.12,-853.04 843.71,-852.9 835.34,-846.41 833.12,-853.04"/>
</g>
<!-- cmd_plugin_phase_verify&#45;&gt;skill_ref_architecture -->
<g id="edge35" class="edge">
<title>cmd_plugin_phase_verify&#45;&gt;skill_ref_architecture</title>
<path fill="none" stroke="black" d="M542.77,-733.94C597.21,-732.8 687.9,-734.44 763.31,-753 796.14,-761.08 830.95,-776.83 856.93,-790.16"/>
<polygon fill="black" stroke="black" points="855.59,-793.41 866.08,-794.95 858.84,-787.21 855.59,-793.41"/>
</g>
<!-- cmd_plugin_phase_verify&#45;&gt;agent_worker_structure -->
<g id="edge31" class="edge">
<title>cmd_plugin_phase_verify&#45;&gt;agent_worker_structure</title>
<path fill="none" stroke="black" stroke-dasharray="5,2" d="M542.57,-749.38C550.52,-753.35 558.06,-758.46 563.88,-765 626,-834.76 561,-896.17 621.88,-967 626.16,-971.97 631.36,-976.21 636.99,-979.82"/>
<polygon fill="black" stroke="black" points="635.67,-983.1 646.09,-984.99 639.12,-977.01 635.67,-983.1"/>
</g>
<!-- cmd_plugin_phase_verify&#45;&gt;agent_worker_principles -->
<g id="edge32" class="edge">
<title>cmd_plugin_phase_verify&#45;&gt;agent_worker_principles</title>
<path fill="none" stroke="black" stroke-dasharray="5,2" d="M542.67,-750.32C550.43,-754.18 557.87,-759 563.88,-765 610.99,-811.98 575.61,-855.2 621.88,-903 626.38,-907.65 631.68,-911.68 637.32,-915.17"/>
<polygon fill="black" stroke="black" points="635.94,-918.41 646.38,-920.21 639.35,-912.29 635.94,-918.41"/>
</g>
<!-- cmd_plugin_phase_verify&#45;&gt;agent_worker_architecture -->
<g id="edge33" class="edge">
<title>cmd_plugin_phase_verify&#45;&gt;agent_worker_architecture</title>
<path fill="none" stroke="black" stroke-dasharray="5,2" d="M542.71,-752.67C550.12,-756.2 557.44,-760.3 563.88,-765 595.98,-788.4 591.04,-807.97 621.88,-833 628.73,-838.55 636.5,-843.7 644.31,-848.31"/>
<polygon fill="black" stroke="black" points="642.67,-851.4 653.1,-853.26 646.11,-845.3 642.67,-851.4"/>
</g>
<!-- agent_worker_structure&#45;&gt;skill_ref_specialist_output_schema -->
<g id="edge36" class="edge">
<title>agent_worker_structure&#45;&gt;skill_ref_specialist_output_schema</title>
<path fill="none" stroke="black" stroke-dasharray="1,5" d="M732.61,-982.67C742.79,-977.98 753.63,-972.61 763.31,-967 800.71,-945.33 840.68,-915.91 867.24,-895.37"/>
<polygon fill="black" stroke="black" points="869.63,-897.94 875.37,-889.03 865.33,-892.42 869.63,-897.94"/>
</g>
<!-- agent_worker_structure&#45;&gt;agent_worker_principles -->
<!-- agent_worker_structure&#45;&gt;agent_worker_principles -->
<!-- agent_worker_structure&#45;&gt;agent_worker_principles -->
<!-- agent_worker_structure&#45;&gt;agent_worker_principles -->
<!-- agent_worker_principles&#45;&gt;skill_ref_specialist_output_schema -->
<g id="edge37" class="edge">
<title>agent_worker_principles&#45;&gt;skill_ref_specialist_output_schema</title>
<path fill="none" stroke="black" stroke-dasharray="1,5" d="M739.68,-920.56C766.42,-912.18 800.58,-901.47 830.31,-892.15"/>
<polygon fill="black" stroke="black" points="831.7,-895.38 840.2,-889.05 829.61,-888.7 831.7,-895.38"/>
</g>
<!-- agent_worker_principles&#45;&gt;agent_worker_architecture -->
<!-- agent_worker_principles&#45;&gt;agent_worker_architecture -->
<!-- agent_worker_architecture&#45;&gt;skill_ref_specialist_output_schema -->
<g id="edge38" class="edge">
<title>agent_worker_architecture&#45;&gt;skill_ref_specialist_output_schema</title>
<path fill="none" stroke="black" stroke-dasharray="1,5" d="M744.34,-856.52C764.5,-854.79 788.29,-854.17 811.03,-854.67"/>
<polygon fill="black" stroke="black" points="810.95,-858.17 821.05,-854.96 811.15,-851.17 810.95,-858.17"/>
</g>
<!-- agent_worker_architecture&#45;&gt;skill_ref_specialist_output_schema -->
<!-- agent_worker_architecture&#45;&gt;skill_ref_specialist_output_schema -->
<!-- agent_worker_architecture&#45;&gt;skill_ref_architecture -->
<g id="edge39" class="edge">
<title>agent_worker_architecture&#45;&gt;skill_ref_architecture</title>
<path fill="none" stroke="black" stroke-dasharray="1,5" d="M744.6,-856.51C773.47,-848.31 809.68,-838.03 839.65,-829.52"/>
<polygon fill="black" stroke="black" points="840.89,-832.8 849.56,-826.7 838.98,-826.07 840.89,-832.8"/>
</g>
</g>
</svg>
