<?xml version="1.0" encoding="UTF-8" standalone="no"?>
<!DOCTYPE svg PUBLIC "-//W3C//DTD SVG 1.1//EN"
 "http://www.w3.org/Graphics/SVG/1.1/DTD/svg11.dtd">
<!-- Generated by graphviz version 2.43.0 (0)
 -->
<!-- Title: Dependencies Pages: 1 -->
<svg width="334pt" height="241pt"
 viewBox="0.00 0.00 333.85 241.00" xmlns="http://www.w3.org/2000/svg" xmlns:xlink="http://www.w3.org/1999/xlink">
<g id="graph0" class="graph" transform="scale(1 1) rotate(0) translate(4 237)">
<title>Dependencies</title>
<polygon fill="white" stroke="transparent" points="-4,4 -4,-237 329.85,-237 329.85,4 -4,4"/>
<text text-anchor="middle" x="162.92" y="-217.8" font-family="Helvetica,sans-Serif" font-size="14.00">workflow&#45;plugin&#45;create</text>
<!-- skill_workflow_plugin_create -->
<g id="node1" class="node">
<title>skill_workflow_plugin_create</title>
<ellipse fill="#e8f5e9" stroke="black" cx="91.92" cy="-105" rx="91.85" ry="21.43"/>
<text text-anchor="middle" x="91.92" y="-108" font-family="Helvetica,sans-Serif" font-size="10.00">twl:workflow&#45;plugin&#45;create</text>
<text text-anchor="middle" x="91.92" y="-97" font-family="Helvetica,sans-Serif" font-size="10.00">(558 tok)</text>
</g>
<!-- cmd_plugin_interview -->
<g id="node2" class="node">
<title>cmd_plugin_interview</title>
<polygon fill="#e3f2fd" stroke="black" points="325.85,-210 241.85,-210 241.85,-174 325.85,-174 325.85,-210"/>
<text text-anchor="middle" x="283.85" y="-195" font-family="Helvetica,sans-Serif" font-size="10.00">plugin&#45;interview</text>
<text text-anchor="middle" x="283.85" y="-184" font-family="Helvetica,sans-Serif" font-size="10.00">(1,086 tok)</text>
</g>
<!-- skill_workflow_plugin_create&#45;&gt;cmd_plugin_interview -->
<g id="edge1" class="edge">
<title>skill_workflow_plugin_create&#45;&gt;cmd_plugin_interview</title>
<path fill="none" stroke="black" d="M134.13,-123.88C163.5,-137.33 203.09,-155.46 234.04,-169.64"/>
<polygon fill="black" stroke="black" points="232.79,-172.92 243.34,-173.9 235.71,-166.56 232.79,-172.92"/>
</g>
<!-- cmd_plugin_research -->
<g id="node3" class="node">
<title>cmd_plugin_research</title>
<polygon fill="#e3f2fd" stroke="black" points="325.35,-152 242.35,-152 242.35,-116 325.35,-116 325.35,-152"/>
<text text-anchor="middle" x="283.85" y="-137" font-family="Helvetica,sans-Serif" font-size="10.00">plugin&#45;research</text>
<text text-anchor="middle" x="283.85" y="-126" font-family="Helvetica,sans-Serif" font-size="10.00">(655 tok)</text>
</g>
<!-- skill_workflow_plugin_create&#45;&gt;cmd_plugin_research -->
<g id="edge2" class="edge">
<title>skill_workflow_plugin_create&#45;&gt;cmd_plugin_research</title>
<path fill="none" stroke="black" d="M169.08,-116.63C190.25,-119.86 212.72,-123.29 232.05,-126.24"/>
<polygon fill="black" stroke="black" points="231.72,-129.73 242.14,-127.78 232.78,-122.81 231.72,-129.73"/>
</g>
<!-- cmd_plugin_design -->
<g id="node4" class="node">
<title>cmd_plugin_design</title>
<polygon fill="#e3f2fd" stroke="black" points="320.85,-94 246.85,-94 246.85,-58 320.85,-58 320.85,-94"/>
<text text-anchor="middle" x="283.85" y="-79" font-family="Helvetica,sans-Serif" font-size="10.00">plugin&#45;design</text>
<text text-anchor="middle" x="283.85" y="-68" font-family="Helvetica,sans-Serif" font-size="10.00">(1,192 tok)</text>
</g>
<!-- skill_workflow_plugin_create&#45;&gt;cmd_plugin_design -->
<g id="edge3" class="edge">
<title>skill_workflow_plugin_create&#45;&gt;cmd_plugin_design</title>
<path fill="none" stroke="black" d="M169.08,-93.37C192.03,-89.87 216.51,-86.13 236.86,-83.02"/>
<polygon fill="black" stroke="black" points="237.44,-86.47 246.8,-81.5 236.38,-79.55 237.44,-86.47"/>
</g>
<!-- cmd_plugin_generate -->
<g id="node5" class="node">
<title>cmd_plugin_generate</title>
<polygon fill="#e3f2fd" stroke="black" points="325.35,-36 242.35,-36 242.35,0 325.35,0 325.35,-36"/>
<text text-anchor="middle" x="283.85" y="-21" font-family="Helvetica,sans-Serif" font-size="10.00">plugin&#45;generate</text>
<text text-anchor="middle" x="283.85" y="-10" font-family="Helvetica,sans-Serif" font-size="10.00">(2,082 tok)</text>
</g>
<!-- skill_workflow_plugin_create&#45;&gt;cmd_plugin_generate -->
<g id="edge4" class="edge">
<title>skill_workflow_plugin_create&#45;&gt;cmd_plugin_generate</title>
<path fill="none" stroke="black" d="M134.13,-86.12C163.5,-72.67 203.09,-54.54 234.04,-40.36"/>
<polygon fill="black" stroke="black" points="235.71,-43.44 243.34,-36.1 232.79,-37.08 235.71,-43.44"/>
</g>
<!-- cmd_plugin_interview&#45;&gt;cmd_plugin_research -->
<!-- cmd_plugin_research&#45;&gt;cmd_plugin_design -->
<!-- cmd_plugin_design&#45;&gt;cmd_plugin_generate -->
</g>
</svg>
