<?xml version="1.0" encoding="UTF-8" standalone="no"?>
<!DOCTYPE svg PUBLIC "-//W3C//DTD SVG 1.1//EN"
 "http://www.w3.org/Graphics/SVG/1.1/DTD/svg11.dtd">
<!-- Generated by graphviz version 2.43.0 (0)
 -->
<!-- Title: Dependencies Pages: 1 -->
<svg width="458pt" height="821pt"
 viewBox="0.00 0.00 458.12 821.00" xmlns="http://www.w3.org/2000/svg" xmlns:xlink="http://www.w3.org/1999/xlink">
<g id="graph0" class="graph" transform="scale(1 1) rotate(0) translate(4 817)">
<title>Dependencies</title>
<polygon fill="white" stroke="transparent" points="-4,4 -4,-817 454.12,-817 454.12,4 -4,4"/>
<text text-anchor="middle" x="225.06" y="-797.8" font-family="Helvetica,sans-Serif" font-size="14.00">co&#45;utility</text>
<!-- skill_co_utility -->
<g id="node1" class="node">
<title>skill_co_utility</title>
<ellipse fill="#c8e6c9" stroke="black" cx="48.79" cy="-395" rx="48.58" ry="21.43"/>
<text text-anchor="middle" x="48.79" y="-398" font-family="Helvetica,sans-Serif" font-size="10.00">twl:co&#45;utility</text>
<text text-anchor="middle" x="48.79" y="-387" font-family="Helvetica,sans-Serif" font-size="10.00">(1,033 tok)</text>
</g>
<!-- cmd_self_improve_review -->
<g id="node2" class="node">
<title>cmd_self_improve_review</title>
<polygon fill="#e3f2fd" stroke="black" points="256.58,-36 155.58,-36 155.58,0 256.58,0 256.58,-36"/>
<text text-anchor="middle" x="206.08" y="-21" font-family="Helvetica,sans-Serif" font-size="10.00">self&#45;improve&#45;review</text>
<text text-anchor="middle" x="206.08" y="-10" font-family="Helvetica,sans-Serif" font-size="10.00">(1,086 tok)</text>
</g>
<!-- skill_co_utility&#45;&gt;cmd_self_improve_review -->
<g id="edge14" class="edge">
<title>skill_co_utility&#45;&gt;cmd_self_improve_review</title>
<path fill="none" stroke="black" d="M50.97,-373.76C55.23,-315.4 74.23,-150.12 155.58,-47 156.68,-45.6 157.87,-44.26 159.13,-42.97"/>
<polygon fill="black" stroke="black" points="161.73,-45.35 166.99,-36.15 157.14,-40.06 161.73,-45.35"/>
</g>
<!-- cmd_worktree_list -->
<g id="node3" class="node">
<title>cmd_worktree_list</title>
<polygon fill="#e3f2fd" stroke="black" points="241.08,-558 171.08,-558 171.08,-522 241.08,-522 241.08,-558"/>
<text text-anchor="middle" x="206.08" y="-543" font-family="Helvetica,sans-Serif" font-size="10.00">worktree&#45;list</text>
<text text-anchor="middle" x="206.08" y="-532" font-family="Helvetica,sans-Serif" font-size="10.00">(200 tok)</text>
</g>
<!-- skill_co_utility&#45;&gt;cmd_worktree_list -->
<g id="edge5" class="edge">
<title>skill_co_utility&#45;&gt;cmd_worktree_list</title>
<path fill="none" stroke="black" d="M65.05,-415.17C84.33,-439.76 119.36,-481.67 155.58,-511 157.83,-512.82 160.21,-514.6 162.65,-516.33"/>
<polygon fill="black" stroke="black" points="160.89,-519.36 171.15,-521.97 164.76,-513.53 160.89,-519.36"/>
</g>
<!-- cmd_opsx_archive -->
<g id="node4" class="node">
<title>cmd_opsx_archive</title>
<polygon fill="#e3f2fd" stroke="black" points="242.08,-616 170.08,-616 170.08,-580 242.08,-580 242.08,-616"/>
<text text-anchor="middle" x="206.08" y="-601" font-family="Helvetica,sans-Serif" font-size="10.00">opsx&#45;archive</text>
<text text-anchor="middle" x="206.08" y="-590" font-family="Helvetica,sans-Serif" font-size="10.00">(238 tok)</text>
</g>
<!-- skill_co_utility&#45;&gt;cmd_opsx_archive -->
<g id="edge4" class="edge">
<title>skill_co_utility&#45;&gt;cmd_opsx_archive</title>
<path fill="none" stroke="black" d="M58.43,-416C73.73,-451.16 108.45,-522.64 155.58,-569 157.44,-570.83 159.45,-572.6 161.54,-574.28"/>
<polygon fill="black" stroke="black" points="159.81,-577.35 169.95,-580.4 163.93,-571.69 159.81,-577.35"/>
</g>
<!-- cmd_propose -->
<g id="node5" class="node">
<title>cmd_propose</title>
<polygon fill="#e3f2fd" stroke="black" points="237.58,-790 174.58,-790 174.58,-754 237.58,-754 237.58,-790"/>
<text text-anchor="middle" x="206.08" y="-775" font-family="Helvetica,sans-Serif" font-size="10.00">propose</text>
<text text-anchor="middle" x="206.08" y="-764" font-family="Helvetica,sans-Serif" font-size="10.00">(1,052 tok)</text>
</g>
<!-- skill_co_utility&#45;&gt;cmd_propose -->
<g id="edge1" class="edge">
<title>skill_co_utility&#45;&gt;cmd_propose</title>
<path fill="none" stroke="black" d="M50.97,-416.24C55.23,-474.6 74.23,-639.88 155.58,-743 158.58,-746.81 162.24,-750.21 166.18,-753.24"/>
<polygon fill="black" stroke="black" points="164.33,-756.21 174.57,-758.91 168.25,-750.41 164.33,-756.21"/>
</g>
<!-- cmd_apply -->
<g id="node6" class="node">
<title>cmd_apply</title>
<polygon fill="#e3f2fd" stroke="black" points="233.58,-732 178.58,-732 178.58,-696 233.58,-696 233.58,-732"/>
<text text-anchor="middle" x="206.08" y="-717" font-family="Helvetica,sans-Serif" font-size="10.00">apply</text>
<text text-anchor="middle" x="206.08" y="-706" font-family="Helvetica,sans-Serif" font-size="10.00">(852 tok)</text>
</g>
<!-- skill_co_utility&#45;&gt;cmd_apply -->
<g id="edge2" class="edge">
<title>skill_co_utility&#45;&gt;cmd_apply</title>
<path fill="none" stroke="black" d="M52.55,-416.4C60.2,-468.06 85.88,-601.46 155.58,-685 159.5,-689.7 164.4,-693.82 169.57,-697.36"/>
<polygon fill="black" stroke="black" points="168.07,-700.54 178.42,-702.78 171.72,-694.57 168.07,-700.54"/>
</g>
<!-- cmd_archive -->
<g id="node7" class="node">
<title>cmd_archive</title>
<polygon fill="#e3f2fd" stroke="black" points="233.58,-674 178.58,-674 178.58,-638 233.58,-638 233.58,-674"/>
<text text-anchor="middle" x="206.08" y="-659" font-family="Helvetica,sans-Serif" font-size="10.00">archive</text>
<text text-anchor="middle" x="206.08" y="-648" font-family="Helvetica,sans-Serif" font-size="10.00">(808 tok)</text>
</g>
<!-- skill_co_utility&#45;&gt;cmd_archive -->
<g id="edge3" class="edge">
<title>skill_co_utility&#45;&gt;cmd_archive</title>
<path fill="none" stroke="black" d="M54.83,-416.31C66.16,-460.3 97.29,-562.43 155.58,-627 159.64,-631.5 164.57,-635.5 169.72,-638.98"/>
<polygon fill="black" stroke="black" points="168.14,-642.11 178.49,-644.35 171.79,-636.14 168.14,-642.11"/>
</g>
<!-- cmd_check -->
<g id="node8" class="node">
<title>cmd_check</title>
<polygon fill="#e3f2fd" stroke="black" points="237.58,-384 174.58,-384 174.58,-348 237.58,-348 237.58,-384"/>
<text text-anchor="middle" x="206.08" y="-369" font-family="Helvetica,sans-Serif" font-size="10.00">check</text>
<text text-anchor="middle" x="206.08" y="-358" font-family="Helvetica,sans-Serif" font-size="10.00">(1,948 tok)</text>
</g>
<!-- skill_co_utility&#45;&gt;cmd_check -->
<g id="edge8" class="edge">
<title>skill_co_utility&#45;&gt;cmd_check</title>
<path fill="none" stroke="black" d="M93.87,-386.77C116.01,-382.63 142.66,-377.66 164.32,-373.61"/>
<polygon fill="black" stroke="black" points="165.01,-377.04 174.2,-371.77 163.72,-370.16 165.01,-377.04"/>
</g>
<!-- cmd_twl_validate -->
<g id="node9" class="node">
<title>cmd_twl_validate</title>
<polygon fill="#e3f2fd" stroke="black" points="239.08,-442 173.08,-442 173.08,-406 239.08,-406 239.08,-442"/>
<text text-anchor="middle" x="206.08" y="-427" font-family="Helvetica,sans-Serif" font-size="10.00">twl&#45;validate</text>
<text text-anchor="middle" x="206.08" y="-416" font-family="Helvetica,sans-Serif" font-size="10.00">(869 tok)</text>
</g>
<!-- skill_co_utility&#45;&gt;cmd_twl_validate -->
<g id="edge7" class="edge">
<title>skill_co_utility&#45;&gt;cmd_twl_validate</title>
<path fill="none" stroke="black" d="M93.87,-403.23C115.45,-407.26 141.31,-412.09 162.66,-416.08"/>
<polygon fill="black" stroke="black" points="162.27,-419.57 172.74,-417.96 163.55,-412.68 162.27,-419.57"/>
</g>
<!-- cmd_services -->
<g id="node10" class="node">
<title>cmd_services</title>
<polygon fill="#e3f2fd" stroke="black" points="233.58,-268 178.58,-268 178.58,-232 233.58,-232 233.58,-268"/>
<text text-anchor="middle" x="206.08" y="-253" font-family="Helvetica,sans-Serif" font-size="10.00">services</text>
<text text-anchor="middle" x="206.08" y="-242" font-family="Helvetica,sans-Serif" font-size="10.00">(967 tok)</text>
</g>
<!-- skill_co_utility&#45;&gt;cmd_services -->
<g id="edge10" class="edge">
<title>skill_co_utility&#45;&gt;cmd_services</title>
<path fill="none" stroke="black" d="M65.05,-374.83C84.33,-350.24 119.36,-308.33 155.58,-279 159.93,-275.47 164.77,-272.1 169.65,-268.98"/>
<polygon fill="black" stroke="black" points="171.69,-271.83 178.42,-263.65 168.06,-265.85 171.69,-271.83"/>
</g>
<!-- cmd_ui_capture -->
<g id="node11" class="node">
<title>cmd_ui_capture</title>
<polygon fill="#e3f2fd" stroke="black" points="235.58,-210 176.58,-210 176.58,-174 235.58,-174 235.58,-210"/>
<text text-anchor="middle" x="206.08" y="-195" font-family="Helvetica,sans-Serif" font-size="10.00">ui&#45;capture</text>
<text text-anchor="middle" x="206.08" y="-184" font-family="Helvetica,sans-Serif" font-size="10.00">(637 tok)</text>
</g>
<!-- skill_co_utility&#45;&gt;cmd_ui_capture -->
<g id="edge11" class="edge">
<title>skill_co_utility&#45;&gt;cmd_ui_capture</title>
<path fill="none" stroke="black" d="M58.43,-374C73.73,-338.84 108.45,-267.36 155.58,-221 159.26,-217.38 163.47,-214.04 167.86,-211.01"/>
<polygon fill="black" stroke="black" points="169.84,-213.9 176.41,-205.58 166.09,-207.99 169.84,-213.9"/>
</g>
<!-- cmd_e2e_plan -->
<g id="node12" class="node">
<title>cmd_e2e_plan</title>
<polygon fill="#e3f2fd" stroke="black" points="233.58,-152 178.58,-152 178.58,-116 233.58,-116 233.58,-152"/>
<text text-anchor="middle" x="206.08" y="-137" font-family="Helvetica,sans-Serif" font-size="10.00">e2e&#45;plan</text>
<text text-anchor="middle" x="206.08" y="-126" font-family="Helvetica,sans-Serif" font-size="10.00">(435 tok)</text>
</g>
<!-- skill_co_utility&#45;&gt;cmd_e2e_plan -->
<g id="edge12" class="edge">
<title>skill_co_utility&#45;&gt;cmd_e2e_plan</title>
<path fill="none" stroke="black" d="M54.83,-373.69C66.16,-329.7 97.29,-227.57 155.58,-163 159.64,-158.5 164.57,-154.5 169.72,-151.02"/>
<polygon fill="black" stroke="black" points="171.79,-153.86 178.49,-145.65 168.14,-147.89 171.79,-153.86"/>
</g>
<!-- cmd_worktree_delete -->
<g id="node13" class="node">
<title>cmd_worktree_delete</title>
<polygon fill="#e3f2fd" stroke="black" points="247.58,-500 164.58,-500 164.58,-464 247.58,-464 247.58,-500"/>
<text text-anchor="middle" x="206.08" y="-485" font-family="Helvetica,sans-Serif" font-size="10.00">worktree&#45;delete</text>
<text text-anchor="middle" x="206.08" y="-474" font-family="Helvetica,sans-Serif" font-size="10.00">(390 tok)</text>
</g>
<!-- skill_co_utility&#45;&gt;cmd_worktree_delete -->
<g id="edge6" class="edge">
<title>skill_co_utility&#45;&gt;cmd_worktree_delete</title>
<path fill="none" stroke="black" d="M79.36,-411.57C103.3,-424.98 137.27,-444.01 163.87,-458.91"/>
<polygon fill="black" stroke="black" points="162.5,-462.16 172.94,-463.99 165.93,-456.05 162.5,-462.16"/>
</g>
<!-- cmd_schema_update -->
<g id="node14" class="node">
<title>cmd_schema_update</title>
<polygon fill="#e3f2fd" stroke="black" points="247.58,-94 164.58,-94 164.58,-58 247.58,-58 247.58,-94"/>
<text text-anchor="middle" x="206.08" y="-79" font-family="Helvetica,sans-Serif" font-size="10.00">schema&#45;update</text>
<text text-anchor="middle" x="206.08" y="-68" font-family="Helvetica,sans-Serif" font-size="10.00">(477 tok)</text>
</g>
<!-- skill_co_utility&#45;&gt;cmd_schema_update -->
<g id="edge13" class="edge">
<title>skill_co_utility&#45;&gt;cmd_schema_update</title>
<path fill="none" stroke="black" d="M52.55,-373.6C60.2,-321.94 85.88,-188.54 155.58,-105 156.72,-103.63 157.94,-102.32 159.23,-101.05"/>
<polygon fill="black" stroke="black" points="161.82,-103.45 167.2,-94.32 157.3,-98.1 161.82,-103.45"/>
</g>
<!-- cmd_spec_diagnose -->
<g id="node15" class="node">
<title>cmd_spec_diagnose</title>
<polygon fill="#e3f2fd" stroke="black" points="246.08,-326 166.08,-326 166.08,-290 246.08,-290 246.08,-326"/>
<text text-anchor="middle" x="206.08" y="-311" font-family="Helvetica,sans-Serif" font-size="10.00">spec&#45;diagnose</text>
<text text-anchor="middle" x="206.08" y="-300" font-family="Helvetica,sans-Serif" font-size="10.00">(634 tok)</text>
</g>
<!-- skill_co_utility&#45;&gt;cmd_spec_diagnose -->
<g id="edge9" class="edge">
<title>skill_co_utility&#45;&gt;cmd_spec_diagnose</title>
<path fill="none" stroke="black" d="M79.36,-378.43C103.3,-365.02 137.27,-345.99 163.87,-331.09"/>
<polygon fill="black" stroke="black" points="165.93,-333.95 172.94,-326.01 162.5,-327.84 165.93,-333.95"/>
</g>
<!-- cmd_worktree_list&#45;&gt;cmd_worktree_delete -->
<!-- cmd_opsx_archive&#45;&gt;cmd_worktree_list -->
<!-- cmd_propose&#45;&gt;cmd_apply -->
<!-- cmd_apply&#45;&gt;cmd_archive -->
<!-- cmd_archive&#45;&gt;cmd_opsx_archive -->
<!-- cmd_check&#45;&gt;cmd_spec_diagnose -->
<!-- cmd_twl_validate&#45;&gt;cmd_check -->
<!-- cmd_services&#45;&gt;cmd_ui_capture -->
<!-- cmd_ui_capture&#45;&gt;cmd_e2e_plan -->
<!-- cmd_e2e_plan&#45;&gt;cmd_schema_update -->
<!-- cmd_worktree_delete&#45;&gt;cmd_twl_validate -->
<!-- script_worktree_delete -->
<g id="node16" class="node">
<title>script_worktree_delete</title>
<polygon fill="#ff9800" stroke="black" points="449.89,-482 416.12,-506.49 348.58,-506.49 314.81,-482 348.58,-457.51 416.12,-457.51 449.89,-482"/>
<text text-anchor="middle" x="382.35" y="-485" font-family="Helvetica,sans-Serif" font-size="10.00">worktree&#45;delete</text>
<text text-anchor="middle" x="382.35" y="-474" font-family="Helvetica,sans-Serif" font-size="10.00">(956 tok)</text>
</g>
<!-- cmd_worktree_delete&#45;&gt;script_worktree_delete -->
<g id="edge15" class="edge">
<title>cmd_worktree_delete&#45;&gt;script_worktree_delete</title>
<path fill="none" stroke="black" d="M247.94,-482C264.82,-482 284.96,-482 304.41,-482"/>
<polygon fill="black" stroke="black" points="304.5,-485.5 314.5,-482 304.5,-478.5 304.5,-485.5"/>
</g>
<!-- cmd_schema_update&#45;&gt;cmd_self_improve_review -->
<!-- cmd_spec_diagnose&#45;&gt;cmd_services -->
</g>
</svg>
