<?xml version="1.0" encoding="UTF-8" standalone="no"?>
<!DOCTYPE svg PUBLIC "-//W3C//DTD SVG 1.1//EN"
 "http://www.w3.org/Graphics/SVG/1.1/DTD/svg11.dtd">
<!-- Generated by graphviz version 2.43.0 (0)
 -->
<!-- Title: Dependencies Pages: 1 -->
<svg width="564pt" height="667pt"
 viewBox="0.00 0.00 564.16 666.99" xmlns="http://www.w3.org/2000/svg" xmlns:xlink="http://www.w3.org/1999/xlink">
<g id="graph0" class="graph" transform="scale(1 1) rotate(0) translate(4 662.99)">
<title>Dependencies</title>
<polygon fill="white" stroke="transparent" points="-4,4 -4,-662.99 560.16,-662.99 560.16,4 -4,4"/>
<text text-anchor="middle" x="278.08" y="-643.79" font-family="Helvetica,sans-Serif" font-size="14.00">workflow&#45;setup</text>
<!-- skill_workflow_setup -->
<g id="node1" class="node">
<title>skill_workflow_setup</title>
<ellipse fill="#e8f5e9" stroke="black" cx="69.3" cy="-182.49" rx="69.09" ry="21.43"/>
<text text-anchor="middle" x="69.3" y="-185.49" font-family="Helvetica,sans-Serif" font-size="10.00">twl:workflow&#45;setup</text>
<text text-anchor="middle" x="69.3" y="-174.49" font-family="Helvetica,sans-Serif" font-size="10.00">(2,089 tok)</text>
</g>
<!-- cmd_init -->
<g id="node2" class="node">
<title>cmd_init</title>
<polygon fill="#e3f2fd" stroke="black" points="291.59,-403.49 236.59,-403.49 236.59,-367.49 291.59,-367.49 291.59,-403.49"/>
<text text-anchor="middle" x="264.09" y="-388.49" font-family="Helvetica,sans-Serif" font-size="10.00">init</text>
<text text-anchor="middle" x="264.09" y="-377.49" font-family="Helvetica,sans-Serif" font-size="10.00">(621 tok)</text>
</g>
<!-- skill_workflow_setup&#45;&gt;cmd_init -->
<g id="edge1" class="edge">
<title>skill_workflow_setup&#45;&gt;cmd_init</title>
<path fill="none" stroke="black" d="M80.72,-203.5C99.42,-239.3 141.9,-312.53 196.59,-356.49 205.54,-363.68 216.54,-369.43 227,-373.85"/>
<polygon fill="black" stroke="black" points="225.79,-377.13 236.38,-377.54 228.35,-370.62 225.79,-377.13"/>
</g>
<!-- cmd_worktree_create -->
<g id="node3" class="node">
<title>cmd_worktree_create</title>
<polygon fill="#e3f2fd" stroke="black" points="306.09,-345.49 222.09,-345.49 222.09,-309.49 306.09,-309.49 306.09,-345.49"/>
<text text-anchor="middle" x="264.09" y="-330.49" font-family="Helvetica,sans-Serif" font-size="10.00">worktree&#45;create</text>
<text text-anchor="middle" x="264.09" y="-319.49" font-family="Helvetica,sans-Serif" font-size="10.00">(448 tok)</text>
</g>
<!-- skill_workflow_setup&#45;&gt;cmd_worktree_create -->
<g id="edge2" class="edge">
<title>skill_workflow_setup&#45;&gt;cmd_worktree_create</title>
<path fill="none" stroke="black" d="M88.71,-203.18C111.91,-228.29 153.93,-270.72 196.59,-298.49 201.6,-301.75 207.03,-304.8 212.56,-307.6"/>
<polygon fill="black" stroke="black" points="211.36,-310.91 221.89,-312.07 214.39,-304.6 211.36,-310.91"/>
</g>
<!-- cmd_project_board_status_update -->
<g id="node4" class="node">
<title>cmd_project_board_status_update</title>
<polygon fill="#e3f2fd" stroke="black" points="331.59,-287.49 196.59,-287.49 196.59,-251.49 331.59,-251.49 331.59,-287.49"/>
<text text-anchor="middle" x="264.09" y="-272.49" font-family="Helvetica,sans-Serif" font-size="10.00">project&#45;board&#45;status&#45;update</text>
<text text-anchor="middle" x="264.09" y="-261.49" font-family="Helvetica,sans-Serif" font-size="10.00">(1,203 tok)</text>
</g>
<!-- skill_workflow_setup&#45;&gt;cmd_project_board_status_update -->
<g id="edge3" class="edge">
<title>skill_workflow_setup&#45;&gt;cmd_project_board_status_update</title>
<path fill="none" stroke="black" d="M108.34,-200.2C133.37,-211.79 166.86,-227.19 196.59,-240.49 201.55,-242.71 206.73,-245.01 211.9,-247.29"/>
<polygon fill="black" stroke="black" points="210.62,-250.55 221.18,-251.36 213.43,-244.14 210.62,-250.55"/>
</g>
<!-- cmd_crg_auto_build -->
<g id="node5" class="node">
<title>cmd_crg_auto_build</title>
<polygon fill="#e3f2fd" stroke="black" points="301.59,-229.49 226.59,-229.49 226.59,-193.49 301.59,-193.49 301.59,-229.49"/>
<text text-anchor="middle" x="264.09" y="-214.49" font-family="Helvetica,sans-Serif" font-size="10.00">crg&#45;auto&#45;build</text>
<text text-anchor="middle" x="264.09" y="-203.49" font-family="Helvetica,sans-Serif" font-size="10.00">(313 tok)</text>
</g>
<!-- skill_workflow_setup&#45;&gt;cmd_crg_auto_build -->
<g id="edge4" class="edge">
<title>skill_workflow_setup&#45;&gt;cmd_crg_auto_build</title>
<path fill="none" stroke="black" d="M131.83,-191.75C159.24,-195.87 191,-200.65 216.41,-204.47"/>
<polygon fill="black" stroke="black" points="216.11,-207.97 226.52,-205.99 217.15,-201.05 216.11,-207.97"/>
</g>
<!-- cmd_change_propose -->
<g id="node6" class="node">
<title>cmd_change_propose</title>
<polygon fill="#e3f2fd" stroke="black" points="307.09,-171.49 221.09,-171.49 221.09,-135.49 307.09,-135.49 307.09,-171.49"/>
<text text-anchor="middle" x="264.09" y="-156.49" font-family="Helvetica,sans-Serif" font-size="10.00">change&#45;propose</text>
<text text-anchor="middle" x="264.09" y="-145.49" font-family="Helvetica,sans-Serif" font-size="10.00">(1,343 tok)</text>
</g>
<!-- skill_workflow_setup&#45;&gt;cmd_change_propose -->
<g id="edge5" class="edge">
<title>skill_workflow_setup&#45;&gt;cmd_change_propose</title>
<path fill="none" stroke="black" d="M131.83,-173.24C157.29,-169.41 186.49,-165.02 210.88,-161.35"/>
<polygon fill="black" stroke="black" points="211.65,-164.77 221.01,-159.82 210.6,-157.85 211.65,-164.77"/>
</g>
<!-- cmd_ac_extract -->
<g id="node7" class="node">
<title>cmd_ac_extract</title>
<polygon fill="#e3f2fd" stroke="black" points="294.09,-113.49 234.09,-113.49 234.09,-77.49 294.09,-77.49 294.09,-113.49"/>
<text text-anchor="middle" x="264.09" y="-98.49" font-family="Helvetica,sans-Serif" font-size="10.00">ac&#45;extract</text>
<text text-anchor="middle" x="264.09" y="-87.49" font-family="Helvetica,sans-Serif" font-size="10.00">(368 tok)</text>
</g>
<!-- skill_workflow_setup&#45;&gt;cmd_ac_extract -->
<g id="edge6" class="edge">
<title>skill_workflow_setup&#45;&gt;cmd_ac_extract</title>
<path fill="none" stroke="black" d="M108.34,-164.79C133.37,-153.2 166.86,-137.8 196.59,-124.49 205.64,-120.45 215.4,-116.15 224.59,-112.13"/>
<polygon fill="black" stroke="black" points="226.14,-115.28 233.91,-108.08 223.34,-108.86 226.14,-115.28"/>
</g>
<!-- script_chain_runner -->
<g id="node10" class="node">
<title>script_chain_runner</title>
<polygon fill="#ff9800" stroke="black" points="530.19,-95.49 501.53,-119.98 444.22,-119.98 415.57,-95.49 444.22,-71.01 501.53,-71.01 530.19,-95.49"/>
<text text-anchor="middle" x="472.88" y="-98.49" font-family="Helvetica,sans-Serif" font-size="10.00">chain&#45;runner</text>
<text text-anchor="middle" x="472.88" y="-87.49" font-family="Helvetica,sans-Serif" font-size="10.00">(7,161 tok)</text>
</g>
<!-- skill_workflow_setup&#45;&gt;script_chain_runner -->
<g id="edge7" class="edge">
<title>skill_workflow_setup&#45;&gt;script_chain_runner</title>
<path fill="none" stroke="black" d="M84.93,-161.64C105.91,-133.75 147.49,-85.62 196.59,-66.49 271.78,-37.2 366.77,-58.82 423.24,-77.16"/>
<polygon fill="black" stroke="black" points="422.39,-80.56 432.98,-80.41 424.61,-73.92 422.39,-80.56"/>
</g>
<!-- script_compaction_resume -->
<g id="node14" class="node">
<title>script_compaction_resume</title>
<polygon fill="#ff9800" stroke="black" points="555.94,-24.49 514.41,-48.98 431.34,-48.98 389.81,-24.49 431.34,-0.01 514.41,-0.01 555.94,-24.49"/>
<text text-anchor="middle" x="472.88" y="-27.49" font-family="Helvetica,sans-Serif" font-size="10.00">compaction&#45;resume</text>
<text text-anchor="middle" x="472.88" y="-16.49" font-family="Helvetica,sans-Serif" font-size="10.00">(1,031 tok)</text>
</g>
<!-- skill_workflow_setup&#45;&gt;script_compaction_resume -->
<g id="edge8" class="edge">
<title>skill_workflow_setup&#45;&gt;script_compaction_resume</title>
<path fill="none" stroke="black" d="M82.46,-161.64C102.02,-130.33 143.67,-72.13 196.59,-46.49 257.75,-16.87 335.58,-13.31 392.86,-16.03"/>
<polygon fill="black" stroke="black" points="392.77,-19.53 402.95,-16.58 393.16,-12.54 392.77,-19.53"/>
</g>
<!-- cmd_init&#45;&gt;cmd_worktree_create -->
<!-- cmd_worktree_create&#45;&gt;cmd_project_board_status_update -->
<!-- script_worktree_create -->
<g id="node11" class="node">
<title>script_worktree_create</title>
<polygon fill="#ff9800" stroke="black" points="541.55,-327.49 507.21,-351.98 438.54,-351.98 404.2,-327.49 438.54,-303.01 507.21,-303.01 541.55,-327.49"/>
<text text-anchor="middle" x="472.88" y="-330.49" font-family="Helvetica,sans-Serif" font-size="10.00">worktree&#45;create</text>
<text text-anchor="middle" x="472.88" y="-319.49" font-family="Helvetica,sans-Serif" font-size="10.00">(3,307 tok)</text>
</g>
<!-- cmd_worktree_create&#45;&gt;script_worktree_create -->
<g id="edge9" class="edge">
<title>cmd_worktree_create&#45;&gt;script_worktree_create</title>
<path fill="none" stroke="black" d="M306.44,-327.49C331.43,-327.49 364.09,-327.49 393.78,-327.49"/>
<polygon fill="black" stroke="black" points="394.14,-330.99 404.14,-327.49 394.14,-323.99 394.14,-330.99"/>
</g>
<!-- cmd_project_board_status_update&#45;&gt;cmd_crg_auto_build -->
<!-- cmd_crg_auto_build&#45;&gt;cmd_change_propose -->
<!-- cmd_change_propose&#45;&gt;cmd_ac_extract -->
<!-- cmd_ac_extract&#45;&gt;script_chain_runner -->
<!-- script_autopilot_github -->
<g id="node12" class="node">
<title>script_autopilot_github</title>
<polygon fill="#ff9800" stroke="black" points="540.41,-166.49 506.65,-190.98 439.11,-190.98 405.34,-166.49 439.11,-142.01 506.65,-142.01 540.41,-166.49"/>
<text text-anchor="middle" x="472.88" y="-169.49" font-family="Helvetica,sans-Serif" font-size="10.00">autopilot&#45;github</text>
<text text-anchor="middle" x="472.88" y="-158.49" font-family="Helvetica,sans-Serif" font-size="10.00">(3,666 tok)</text>
</g>
<!-- cmd_ac_extract&#45;&gt;script_autopilot_github -->
<g id="edge10" class="edge">
<title>cmd_ac_extract&#45;&gt;script_autopilot_github</title>
<path fill="none" stroke="black" d="M294.28,-105.52C325.99,-116.41 377.39,-134.05 416.75,-147.57"/>
<polygon fill="black" stroke="black" points="415.89,-150.97 426.48,-150.91 418.16,-144.35 415.89,-150.97"/>
</g>
<!-- script_state_read -->
<g id="node8" class="node">
<title>script_state_read</title>
<polygon fill="#ff9800" stroke="black" points="524.25,-469.49 498.56,-493.98 447.19,-493.98 421.5,-469.49 447.19,-445.01 498.56,-445.01 524.25,-469.49"/>
<text text-anchor="middle" x="472.88" y="-472.49" font-family="Helvetica,sans-Serif" font-size="10.00">state&#45;read</text>
<text text-anchor="middle" x="472.88" y="-461.49" font-family="Helvetica,sans-Serif" font-size="10.00">(4,288 tok)</text>
</g>
<!-- script_state_write -->
<g id="node9" class="node">
<title>script_state_write</title>
<polygon fill="#ff9800" stroke="black" points="524.25,-398.49 498.56,-422.98 447.19,-422.98 421.5,-398.49 447.19,-374.01 498.56,-374.01 524.25,-398.49"/>
<text text-anchor="middle" x="472.88" y="-401.49" font-family="Helvetica,sans-Serif" font-size="10.00">state&#45;write</text>
<text text-anchor="middle" x="472.88" y="-390.49" font-family="Helvetica,sans-Serif" font-size="10.00">(4,288 tok)</text>
</g>
<!-- script_state_read&#45;&gt;script_state_write -->
<!-- script_state_read&#45;&gt;script_state_write -->
<!-- script_state_read&#45;&gt;script_state_write -->
<!-- script_chain_runner&#45;&gt;script_compaction_resume -->
<!-- script_chain_runner&#45;&gt;script_compaction_resume -->
<!-- script_chain_runner&#45;&gt;script_compaction_resume -->
<!-- script_chain_runner&#45;&gt;script_compaction_resume -->
<!-- script_chain_steps -->
<g id="node13" class="node">
<title>script_chain_steps</title>
<polygon fill="#ff9800" stroke="black" points="527.79,-540.49 500.33,-564.98 445.42,-564.98 417.96,-540.49 445.42,-516.01 500.33,-516.01 527.79,-540.49"/>
<text text-anchor="middle" x="472.88" y="-543.49" font-family="Helvetica,sans-Serif" font-size="10.00">chain&#45;steps</text>
<text text-anchor="middle" x="472.88" y="-532.49" font-family="Helvetica,sans-Serif" font-size="10.00">(7,161 tok)</text>
</g>
<!-- script_resolve_issue_num -->
<g id="node15" class="node">
<title>script_resolve_issue_num</title>
<polygon fill="#ff9800" stroke="black" points="551.14,-611.49 512.01,-635.98 433.74,-635.98 394.61,-611.49 433.74,-587.01 512.01,-587.01 551.14,-611.49"/>
<text text-anchor="middle" x="472.88" y="-614.49" font-family="Helvetica,sans-Serif" font-size="10.00">resolve&#45;issue&#45;num</text>
<text text-anchor="middle" x="472.88" y="-603.49" font-family="Helvetica,sans-Serif" font-size="10.00">(716 tok)</text>
</g>
</g>
</svg>
