<?xml version="1.0" encoding="UTF-8" standalone="no"?>
<!DOCTYPE svg PUBLIC "-//W3C//DTD SVG 1.1//EN"
 "http://www.w3.org/Graphics/SVG/1.1/DTD/svg11.dtd">
<!-- Generated by graphviz version 2.43.0 (0)
 -->
<!-- Title: Dependencies Pages: 1 -->
<svg width="510pt" height="492pt"
 viewBox="0.00 0.00 510.38 491.66" xmlns="http://www.w3.org/2000/svg" xmlns:xlink="http://www.w3.org/1999/xlink">
<g id="graph0" class="graph" transform="scale(1 1) rotate(0) translate(4 487.66)">
<title>Dependencies</title>
<polygon fill="white" stroke="transparent" points="-4,4 -4,-487.66 506.38,-487.66 506.38,4 -4,4"/>
<text text-anchor="middle" x="251.19" y="-468.46" font-family="Helvetica,sans-Serif" font-size="14.00">co&#45;architect</text>
<!-- skill_co_architect -->
<g id="node1" class="node">
<title>skill_co_architect</title>
<ellipse fill="#c8e6c9" stroke="black" cx="58.69" cy="-279" rx="58.88" ry="21.43"/>
<text text-anchor="middle" x="58.69" y="-282" font-family="Helvetica,sans-Serif" font-size="10.00">twl:co&#45;architect</text>
<text text-anchor="middle" x="58.69" y="-271" font-family="Helvetica,sans-Serif" font-size="10.00">(1,293 tok)</text>
</g>
<!-- skill_ref_architecture -->
<g id="node2" class="node">
<title>skill_ref_architecture</title>
<polygon fill="#e1f5fe" stroke="black" points="484.38,-36 392.38,-36 392.38,0 490.38,0 490.38,-30 484.38,-36"/>
<polyline fill="none" stroke="black" points="484.38,-36 484.38,-30 "/>
<polyline fill="none" stroke="black" points="490.38,-30 484.38,-30 "/>
<text text-anchor="middle" x="441.38" y="-21" font-family="Helvetica,sans-Serif" font-size="10.00">twl:ref&#45;architecture</text>
<text text-anchor="middle" x="441.38" y="-10" font-family="Helvetica,sans-Serif" font-size="10.00">(2,273 tok)</text>
</g>
<!-- skill_co_architect&#45;&gt;skill_ref_architecture -->
<g id="edge8" class="edge">
<title>skill_co_architect&#45;&gt;skill_ref_architecture</title>
<path fill="none" stroke="black" d="M72.66,-299.81C91.38,-327.64 128.88,-375.7 175.38,-395 235.72,-420.04 272.53,-437.23 322.38,-395 442.02,-293.65 286.38,-172.5 380.38,-47 381.6,-45.37 382.94,-43.82 384.37,-42.36"/>
<polygon fill="black" stroke="black" points="386.85,-44.85 392.22,-35.72 382.33,-39.51 386.85,-44.85"/>
</g>
<!-- skill_ref_architecture_spec -->
<g id="node3" class="node">
<title>skill_ref_architecture_spec</title>
<polygon fill="#e1f5fe" stroke="black" points="496.38,-94 380.38,-94 380.38,-58 502.38,-58 502.38,-88 496.38,-94"/>
<polyline fill="none" stroke="black" points="496.38,-94 496.38,-88 "/>
<polyline fill="none" stroke="black" points="502.38,-88 496.38,-88 "/>
<text text-anchor="middle" x="441.38" y="-79" font-family="Helvetica,sans-Serif" font-size="10.00">twl:ref&#45;architecture&#45;spec</text>
<text text-anchor="middle" x="441.38" y="-68" font-family="Helvetica,sans-Serif" font-size="10.00">(1,179 tok)</text>
</g>
<!-- skill_co_architect&#45;&gt;skill_ref_architecture_spec -->
<g id="edge7" class="edge">
<title>skill_co_architect&#45;&gt;skill_ref_architecture_spec</title>
<path fill="none" stroke="black" d="M67.86,-300.14C82.91,-335.73 118.76,-406.5 175.38,-435 233.74,-464.38 269.46,-473.31 322.38,-435 430.83,-356.49 441.36,-175 441.17,-104.62"/>
<polygon fill="black" stroke="black" points="444.67,-104.27 441.06,-94.31 437.67,-104.35 444.67,-104.27"/>
</g>
<!-- cmd_architect_completeness_check -->
<g id="node4" class="node">
<title>cmd_architect_completeness_check</title>
<polygon fill="#e3f2fd" stroke="black" points="322.38,-326 175.38,-326 175.38,-290 322.38,-290 322.38,-326"/>
<text text-anchor="middle" x="248.88" y="-311" font-family="Helvetica,sans-Serif" font-size="10.00">architect&#45;completeness&#45;check</text>
<text text-anchor="middle" x="248.88" y="-300" font-family="Helvetica,sans-Serif" font-size="10.00">(653 tok)</text>
</g>
<!-- skill_co_architect&#45;&gt;cmd_architect_completeness_check -->
<g id="edge2" class="edge">
<title>skill_co_architect&#45;&gt;cmd_architect_completeness_check</title>
<path fill="none" stroke="black" d="M112.86,-287.19C129.04,-289.69 147.21,-292.49 164.86,-295.21"/>
<polygon fill="black" stroke="black" points="164.76,-298.73 175.17,-296.8 165.82,-291.81 164.76,-298.73"/>
</g>
<!-- cmd_architect_decompose -->
<g id="node5" class="node">
<title>cmd_architect_decompose</title>
<polygon fill="#e3f2fd" stroke="black" points="302.38,-268 195.38,-268 195.38,-232 302.38,-232 302.38,-268"/>
<text text-anchor="middle" x="248.88" y="-253" font-family="Helvetica,sans-Serif" font-size="10.00">architect&#45;decompose</text>
<text text-anchor="middle" x="248.88" y="-242" font-family="Helvetica,sans-Serif" font-size="10.00">(1,056 tok)</text>
</g>
<!-- skill_co_architect&#45;&gt;cmd_architect_decompose -->
<g id="edge3" class="edge">
<title>skill_co_architect&#45;&gt;cmd_architect_decompose</title>
<path fill="none" stroke="black" d="M112.86,-270.81C135.3,-267.35 161.6,-263.3 184.99,-259.69"/>
<polygon fill="black" stroke="black" points="185.81,-263.11 195.16,-258.12 184.75,-256.19 185.81,-263.11"/>
</g>
<!-- cmd_architect_group_refine -->
<g id="node6" class="node">
<title>cmd_architect_group_refine</title>
<polygon fill="#e3f2fd" stroke="black" points="302.88,-210 194.88,-210 194.88,-174 302.88,-174 302.88,-210"/>
<text text-anchor="middle" x="248.88" y="-195" font-family="Helvetica,sans-Serif" font-size="10.00">architect&#45;group&#45;refine</text>
<text text-anchor="middle" x="248.88" y="-184" font-family="Helvetica,sans-Serif" font-size="10.00">(1,084 tok)</text>
</g>
<!-- skill_co_architect&#45;&gt;cmd_architect_group_refine -->
<g id="edge4" class="edge">
<title>skill_co_architect&#45;&gt;cmd_architect_group_refine</title>
<path fill="none" stroke="black" d="M92.75,-261.5C115.69,-249.58 147.1,-233.72 175.38,-221 180.61,-218.65 186.09,-216.28 191.59,-213.97"/>
<polygon fill="black" stroke="black" points="192.93,-217.2 200.84,-210.15 190.26,-210.74 192.93,-217.2"/>
</g>
<!-- cmd_architect_issue_create -->
<g id="node7" class="node">
<title>cmd_architect_issue_create</title>
<polygon fill="#e3f2fd" stroke="black" points="303.88,-152 193.88,-152 193.88,-116 303.88,-116 303.88,-152"/>
<text text-anchor="middle" x="248.88" y="-137" font-family="Helvetica,sans-Serif" font-size="10.00">architect&#45;issue&#45;create</text>
<text text-anchor="middle" x="248.88" y="-126" font-family="Helvetica,sans-Serif" font-size="10.00">(2,352 tok)</text>
</g>
<!-- skill_co_architect&#45;&gt;cmd_architect_issue_create -->
<g id="edge5" class="edge">
<title>skill_co_architect&#45;&gt;cmd_architect_issue_create</title>
<path fill="none" stroke="black" d="M75.7,-258.44C96.37,-233.06 134.56,-189.96 175.38,-163 178.72,-160.79 182.26,-158.71 185.89,-156.75"/>
<polygon fill="black" stroke="black" points="187.73,-159.75 195.11,-152.14 184.6,-153.49 187.73,-159.75"/>
</g>
<!-- cmd_evaluate_architecture -->
<g id="node8" class="node">
<title>cmd_evaluate_architecture</title>
<polygon fill="#e3f2fd" stroke="black" points="302.38,-94 195.38,-94 195.38,-58 302.38,-58 302.38,-94"/>
<text text-anchor="middle" x="248.88" y="-79" font-family="Helvetica,sans-Serif" font-size="10.00">evaluate&#45;architecture</text>
<text text-anchor="middle" x="248.88" y="-68" font-family="Helvetica,sans-Serif" font-size="10.00">(796 tok)</text>
</g>
<!-- skill_co_architect&#45;&gt;cmd_evaluate_architecture -->
<g id="edge6" class="edge">
<title>skill_co_architect&#45;&gt;cmd_evaluate_architecture</title>
<path fill="none" stroke="black" d="M68.51,-258.08C84.67,-222.08 122.31,-148.12 175.38,-105 178.69,-102.31 182.29,-99.84 186.05,-97.58"/>
<polygon fill="black" stroke="black" points="187.95,-100.53 195.06,-92.68 184.6,-94.38 187.95,-100.53"/>
</g>
<!-- cmd_explore -->
<g id="node9" class="node">
<title>cmd_explore</title>
<polygon fill="#e3f2fd" stroke="black" points="280.38,-384 217.38,-384 217.38,-348 280.38,-348 280.38,-384"/>
<text text-anchor="middle" x="248.88" y="-369" font-family="Helvetica,sans-Serif" font-size="10.00">explore</text>
<text text-anchor="middle" x="248.88" y="-358" font-family="Helvetica,sans-Serif" font-size="10.00">(1,490 tok)</text>
</g>
<!-- skill_co_architect&#45;&gt;cmd_explore -->
<g id="edge1" class="edge">
<title>skill_co_architect&#45;&gt;cmd_explore</title>
<path fill="none" stroke="black" d="M92.75,-296.5C115.69,-308.42 147.1,-324.28 175.38,-337 185.79,-341.68 197.2,-346.42 207.82,-350.68"/>
<polygon fill="black" stroke="black" points="206.72,-354 217.3,-354.43 209.29,-347.49 206.72,-354"/>
</g>
<!-- skill_ref_architecture_spec&#45;&gt;skill_ref_architecture -->
<!-- cmd_architect_completeness_check&#45;&gt;cmd_architect_decompose -->
<!-- cmd_architect_decompose&#45;&gt;cmd_architect_group_refine -->
<!-- cmd_architect_group_refine&#45;&gt;cmd_architect_issue_create -->
<!-- cmd_architect_issue_create&#45;&gt;cmd_evaluate_architecture -->
<!-- cmd_evaluate_architecture&#45;&gt;skill_ref_architecture_spec -->
<!-- cmd_explore&#45;&gt;cmd_architect_completeness_check -->
</g>
</svg>
