<?xml version="1.0" encoding="UTF-8" standalone="no"?>
<!DOCTYPE svg PUBLIC "-//W3C//DTD SVG 1.1//EN"
 "http://www.w3.org/Graphics/SVG/1.1/DTD/svg11.dtd">
<!-- Generated by graphviz version 2.43.0 (0)
 -->
<!-- Title: Dependencies Pages: 1 -->
<svg width="1324pt" height="1532pt"
 viewBox="0.00 0.00 1324.43 1532.39" xmlns="http://www.w3.org/2000/svg" xmlns:xlink="http://www.w3.org/1999/xlink">
<g id="graph0" class="graph" transform="scale(1 1) rotate(0) translate(4 1528.39)">
<title>Dependencies</title>
<polygon fill="white" stroke="transparent" points="-4,4 -4,-1528.39 1320.43,-1528.39 1320.43,4 -4,4"/>
<text text-anchor="middle" x="658.22" y="-1509.19" font-family="Helvetica,sans-Serif" font-size="14.00">co&#45;project</text>
<!-- skill_co_project -->
<g id="node1" class="node">
<title>skill_co_project</title>
<ellipse fill="#c8e6c9" stroke="black" cx="58.69" cy="-438.39" rx="58.88" ry="21.43"/>
<text text-anchor="middle" x="58.69" y="-441.39" font-family="Helvetica,sans-Serif" font-size="10.00">twl:co&#45;project</text>
<text text-anchor="middle" x="58.69" y="-430.39" font-family="Helvetica,sans-Serif" font-size="10.00">(1,625 tok)</text>
</g>
<!-- skill_workflow_plugin_create -->
<g id="node2" class="node">
<title>skill_workflow_plugin_create</title>
<ellipse fill="#e8f5e9" stroke="black" cx="289.22" cy="-810.39" rx="103.89" ry="21.43"/>
<text text-anchor="middle" x="289.22" y="-813.39" font-family="Helvetica,sans-Serif" font-size="10.00">twl:workflow&#45;plugin&#45;create</text>
<text text-anchor="middle" x="289.22" y="-802.39" font-family="Helvetica,sans-Serif" font-size="10.00">(558 tok)</text>
</g>
<!-- skill_co_project&#45;&gt;skill_workflow_plugin_create -->
<g id="edge10" class="edge">
<title>skill_co_project&#45;&gt;skill_workflow_plugin_create</title>
<path fill="none" stroke="black" d="M60.42,-459.91C63.66,-519.63 81.11,-688.87 175.38,-778.39 181.76,-784.45 189.21,-789.38 197.18,-793.38"/>
<polygon fill="black" stroke="black" points="195.81,-796.6 206.36,-797.52 198.68,-790.22 195.81,-796.6"/>
</g>
<!-- skill_workflow_plugin_diagnose -->
<g id="node3" class="node">
<title>skill_workflow_plugin_diagnose</title>
<ellipse fill="#e8f5e9" stroke="black" cx="289.22" cy="-746.39" rx="113.69" ry="21.43"/>
<text text-anchor="middle" x="289.22" y="-749.39" font-family="Helvetica,sans-Serif" font-size="10.00">twl:workflow&#45;plugin&#45;diagnose</text>
<text text-anchor="middle" x="289.22" y="-738.39" font-family="Helvetica,sans-Serif" font-size="10.00">(693 tok)</text>
</g>
<!-- skill_co_project&#45;&gt;skill_workflow_plugin_diagnose -->
<g id="edge11" class="edge">
<title>skill_co_project&#45;&gt;skill_workflow_plugin_diagnose</title>
<path fill="none" stroke="black" d="M62.79,-459.66C71.28,-510.17 99.5,-638.34 175.38,-708.39 183.4,-715.79 192.92,-721.76 202.98,-726.57"/>
<polygon fill="black" stroke="black" points="201.77,-729.86 212.33,-730.67 204.58,-723.45 201.77,-729.86"/>
</g>
<!-- skill_workflow_prompt_audit -->
<g id="node4" class="node">
<title>skill_workflow_prompt_audit</title>
<ellipse fill="#e8f5e9" stroke="black" cx="289.22" cy="-268.39" rx="103.48" ry="21.43"/>
<text text-anchor="middle" x="289.22" y="-271.39" font-family="Helvetica,sans-Serif" font-size="10.00">twl:workflow&#45;prompt&#45;audit</text>
<text text-anchor="middle" x="289.22" y="-260.39" font-family="Helvetica,sans-Serif" font-size="10.00">(684 tok)</text>
</g>
<!-- skill_co_project&#45;&gt;skill_workflow_prompt_audit -->
<g id="edge12" class="edge">
<title>skill_co_project&#45;&gt;skill_workflow_prompt_audit</title>
<path fill="none" stroke="black" d="M72.8,-417.47C91.95,-388.54 130.25,-336.47 175.38,-306.39 186.41,-299.03 199,-292.98 211.68,-288.03"/>
<polygon fill="black" stroke="black" points="213.19,-291.21 221.36,-284.46 210.77,-284.64 213.19,-291.21"/>
</g>
<!-- cmd_label_sync -->
<g id="node5" class="node">
<title>cmd_label_sync</title>
<polygon fill="#e3f2fd" stroke="black" points="575.07,-179.39 505.07,-179.39 505.07,-143.39 575.07,-143.39 575.07,-179.39"/>
<text text-anchor="middle" x="540.07" y="-164.39" font-family="Helvetica,sans-Serif" font-size="10.00">label&#45;sync</text>
<text text-anchor="middle" x="540.07" y="-153.39" font-family="Helvetica,sans-Serif" font-size="10.00">(1,205 tok)</text>
</g>
<!-- skill_co_project&#45;&gt;cmd_label_sync -->
<g id="edge13" class="edge">
<title>skill_co_project&#45;&gt;cmd_label_sync</title>
<path fill="none" stroke="black" d="M62.79,-417.11C71.1,-368.63 98.68,-250.04 175.38,-196.39 272.36,-128.55 421.15,-141 494.73,-152.75"/>
<polygon fill="black" stroke="black" points="494.58,-156.27 505.02,-154.46 495.74,-149.37 494.58,-156.27"/>
</g>
<!-- cmd_project_create -->
<g id="node6" class="node">
<title>cmd_project_create</title>
<polygon fill="#e3f2fd" stroke="black" points="582.57,-921.39 497.57,-921.39 497.57,-885.39 582.57,-885.39 582.57,-921.39"/>
<text text-anchor="middle" x="540.07" y="-906.39" font-family="Helvetica,sans-Serif" font-size="10.00">project&#45;create</text>
<text text-anchor="middle" x="540.07" y="-895.39" font-family="Helvetica,sans-Serif" font-size="10.00">(455 tok)</text>
</g>
<!-- skill_co_project&#45;&gt;cmd_project_create -->
<g id="edge1" class="edge">
<title>skill_co_project&#45;&gt;cmd_project_create</title>
<path fill="none" stroke="black" d="M64.35,-459.84C75.29,-504.86 107.05,-609.43 175.38,-662.39 257.43,-725.97 325.29,-645.65 403.07,-714.39 459.75,-764.48 407.8,-820.68 461.07,-874.39 468.47,-881.85 477.96,-887.41 487.76,-891.55"/>
<polygon fill="black" stroke="black" points="486.6,-894.86 497.19,-895.1 489.07,-888.3 486.6,-894.86"/>
</g>
<!-- cmd_project_board_configure -->
<g id="node7" class="node">
<title>cmd_project_board_configure</title>
<polygon fill="#e3f2fd" stroke="black" points="605.57,-805.39 474.57,-805.39 474.57,-769.39 605.57,-769.39 605.57,-805.39"/>
<text text-anchor="middle" x="540.07" y="-790.39" font-family="Helvetica,sans-Serif" font-size="10.00">project&#45;board&#45;configure</text>
<text text-anchor="middle" x="540.07" y="-779.39" font-family="Helvetica,sans-Serif" font-size="10.00">(1,213 tok)</text>
</g>
<!-- skill_co_project&#45;&gt;cmd_project_board_configure -->
<g id="edge3" class="edge">
<title>skill_co_project&#45;&gt;cmd_project_board_configure</title>
<path fill="none" stroke="black" d="M72.12,-459.47C90.73,-489.14 128.68,-542.75 175.38,-571.39 264.31,-625.92 323.16,-561.33 403.07,-628.39 451.53,-669.06 414.93,-715.1 461.07,-758.39 463,-760.2 465.06,-761.91 467.22,-763.51"/>
<polygon fill="black" stroke="black" points="465.66,-766.67 475.95,-769.18 469.47,-760.8 465.66,-766.67"/>
</g>
<!-- cmd_project_governance -->
<g id="node8" class="node">
<title>cmd_project_governance</title>
<polygon fill="#e3f2fd" stroke="black" points="595.57,-863.39 484.57,-863.39 484.57,-827.39 595.57,-827.39 595.57,-863.39"/>
<text text-anchor="middle" x="540.07" y="-848.39" font-family="Helvetica,sans-Serif" font-size="10.00">project&#45;governance</text>
<text text-anchor="middle" x="540.07" y="-837.39" font-family="Helvetica,sans-Serif" font-size="10.00">(974 tok)</text>
</g>
<!-- skill_co_project&#45;&gt;cmd_project_governance -->
<g id="edge2" class="edge">
<title>skill_co_project&#45;&gt;cmd_project_governance</title>
<path fill="none" stroke="black" d="M67.44,-459.64C82.31,-497.3 118.47,-575.59 175.38,-616.39 260.25,-677.23 324.3,-605.83 403.07,-674.39 454.49,-719.15 412.1,-768.95 461.07,-816.39 465.32,-820.51 470.22,-824.05 475.43,-827.1"/>
<polygon fill="black" stroke="black" points="473.97,-830.29 484.46,-831.77 477.19,-824.07 473.97,-830.29"/>
</g>
<!-- cmd_project_migrate -->
<g id="node9" class="node">
<title>cmd_project_migrate</title>
<polygon fill="#e3f2fd" stroke="black" points="586.07,-747.39 494.07,-747.39 494.07,-711.39 586.07,-711.39 586.07,-747.39"/>
<text text-anchor="middle" x="540.07" y="-732.39" font-family="Helvetica,sans-Serif" font-size="10.00">project&#45;migrate</text>
<text text-anchor="middle" x="540.07" y="-721.39" font-family="Helvetica,sans-Serif" font-size="10.00">(463 tok)</text>
</g>
<!-- skill_co_project&#45;&gt;cmd_project_migrate -->
<g id="edge4" class="edge">
<title>skill_co_project&#45;&gt;cmd_project_migrate</title>
<path fill="none" stroke="black" d="M80.05,-458.41C101.86,-478.73 138.35,-509.66 175.38,-527.39 269.28,-572.33 321.82,-517.29 403.07,-582.39 448.67,-618.93 417.72,-661.2 461.07,-700.39 467.84,-706.51 476.01,-711.37 484.49,-715.23"/>
<polygon fill="black" stroke="black" points="483.18,-718.47 493.76,-719.03 485.83,-711.99 483.18,-718.47"/>
</g>
<!-- cmd_container_dependency_check -->
<g id="node10" class="node">
<title>cmd_container_dependency_check</title>
<polygon fill="#e3f2fd" stroke="black" points="619.07,-689.39 461.07,-689.39 461.07,-653.39 619.07,-653.39 619.07,-689.39"/>
<text text-anchor="middle" x="540.07" y="-674.39" font-family="Helvetica,sans-Serif" font-size="10.00">container&#45;dependency&#45;check</text>
<text text-anchor="middle" x="540.07" y="-663.39" font-family="Helvetica,sans-Serif" font-size="10.00">(509 tok)</text>
</g>
<!-- skill_co_project&#45;&gt;cmd_container_dependency_check -->
<g id="edge5" class="edge">
<title>skill_co_project&#45;&gt;cmd_container_dependency_check</title>
<path fill="none" stroke="black" d="M96.42,-454.67C118.91,-464.22 148.45,-476.01 175.38,-484.39 274.5,-515.21 320.27,-473.79 403.07,-536.39 445.91,-568.77 420.45,-607.26 461.07,-642.39 463.32,-644.34 465.72,-646.16 468.22,-647.86"/>
<polygon fill="black" stroke="black" points="466.71,-651.04 477.08,-653.22 470.33,-645.05 466.71,-651.04"/>
</g>
<!-- cmd_setup_crg -->
<g id="node11" class="node">
<title>cmd_setup_crg</title>
<polygon fill="#e3f2fd" stroke="black" points="571.07,-631.39 509.07,-631.39 509.07,-595.39 571.07,-595.39 571.07,-631.39"/>
<text text-anchor="middle" x="540.07" y="-616.39" font-family="Helvetica,sans-Serif" font-size="10.00">setup&#45;crg</text>
<text text-anchor="middle" x="540.07" y="-605.39" font-family="Helvetica,sans-Serif" font-size="10.00">(754 tok)</text>
</g>
<!-- skill_co_project&#45;&gt;cmd_setup_crg -->
<g id="edge6" class="edge">
<title>skill_co_project&#45;&gt;cmd_setup_crg</title>
<path fill="none" stroke="black" d="M117,-441.28C202.2,-446.54 357.17,-460.05 403.07,-490.39 444.02,-517.46 423.11,-553.25 461.07,-584.39 472.02,-593.37 486.02,-599.72 499.12,-604.15"/>
<polygon fill="black" stroke="black" points="498.32,-607.56 508.91,-607.16 500.39,-600.87 498.32,-607.56"/>
</g>
<!-- cmd_snapshot_analyze -->
<g id="node12" class="node">
<title>cmd_snapshot_analyze</title>
<polygon fill="#e3f2fd" stroke="black" points="591.57,-573.39 488.57,-573.39 488.57,-537.39 591.57,-537.39 591.57,-573.39"/>
<text text-anchor="middle" x="540.07" y="-558.39" font-family="Helvetica,sans-Serif" font-size="10.00">snapshot&#45;analyze</text>
<text text-anchor="middle" x="540.07" y="-547.39" font-family="Helvetica,sans-Serif" font-size="10.00">(617 tok)</text>
</g>
<!-- skill_co_project&#45;&gt;cmd_snapshot_analyze -->
<g id="edge7" class="edge">
<title>skill_co_project&#45;&gt;cmd_snapshot_analyze</title>
<path fill="none" stroke="black" d="M107.43,-426.4C176.97,-411.64 308.19,-394.23 403.07,-444.39 442.53,-465.25 425.68,-499.17 461.07,-526.39 466.53,-530.59 472.67,-534.23 479.03,-537.38"/>
<polygon fill="black" stroke="black" points="477.92,-540.72 488.48,-541.64 480.8,-534.34 477.92,-540.72"/>
</g>
<!-- cmd_snapshot_classify -->
<g id="node13" class="node">
<title>cmd_snapshot_classify</title>
<polygon fill="#e3f2fd" stroke="black" points="590.57,-515.39 489.57,-515.39 489.57,-479.39 590.57,-479.39 590.57,-515.39"/>
<text text-anchor="middle" x="540.07" y="-500.39" font-family="Helvetica,sans-Serif" font-size="10.00">snapshot&#45;classify</text>
<text text-anchor="middle" x="540.07" y="-489.39" font-family="Helvetica,sans-Serif" font-size="10.00">(891 tok)</text>
</g>
<!-- skill_co_project&#45;&gt;cmd_snapshot_classify -->
<g id="edge8" class="edge">
<title>skill_co_project&#45;&gt;cmd_snapshot_classify</title>
<path fill="none" stroke="black" d="M96.07,-422C161.08,-395.29 300.01,-349.94 403.07,-398.39 439.63,-415.58 428.12,-445 461.07,-468.39 466.9,-472.53 473.39,-476.15 480.07,-479.3"/>
<polygon fill="black" stroke="black" points="478.69,-482.52 489.25,-483.31 481.49,-476.1 478.69,-482.52"/>
</g>
<!-- cmd_snapshot_generate -->
<g id="node14" class="node">
<title>cmd_snapshot_generate</title>
<polygon fill="#e3f2fd" stroke="black" points="594.07,-457.39 486.07,-457.39 486.07,-421.39 594.07,-421.39 594.07,-457.39"/>
<text text-anchor="middle" x="540.07" y="-442.39" font-family="Helvetica,sans-Serif" font-size="10.00">snapshot&#45;generate</text>
<text text-anchor="middle" x="540.07" y="-431.39" font-family="Helvetica,sans-Serif" font-size="10.00">(752 tok)</text>
</g>
<!-- skill_co_project&#45;&gt;cmd_snapshot_generate -->
<g id="edge9" class="edge">
<title>skill_co_project&#45;&gt;cmd_snapshot_generate</title>
<path fill="none" stroke="black" d="M78.68,-418.05C99.89,-396.95 136.41,-365.28 175.38,-352.39 271.45,-320.59 309.58,-313.66 403.07,-352.39 436.75,-366.34 430.39,-390.69 461.07,-410.39 465.97,-413.54 471.27,-416.41 476.72,-419.03"/>
<polygon fill="black" stroke="black" points="475.42,-422.28 485.98,-423.18 478.28,-415.89 475.42,-422.28"/>
</g>
<!-- skill_ref_types -->
<g id="node31" class="node">
<title>skill_ref_types</title>
<ellipse fill="none" stroke="black" cx="756.26" cy="-161.39" rx="51.61" ry="18"/>
<text text-anchor="middle" x="756.26" y="-158.89" font-family="Helvetica,sans-Serif" font-size="10.00">skill_ref_types</text>
</g>
<!-- skill_co_project&#45;&gt;skill_ref_types -->
<g id="edge14" class="edge">
<title>skill_co_project&#45;&gt;skill_ref_types</title>
<path fill="none" stroke="black" d="M60.39,-416.92C63.53,-359.94 80.79,-204.76 175.38,-138.39 336.81,-25.11 422.94,-111.74 619.07,-132.39 647.83,-135.41 679.45,-141.95 704.98,-148.04"/>
<polygon fill="black" stroke="black" points="704.25,-151.47 714.8,-150.44 705.91,-144.67 704.25,-151.47"/>
</g>
<!-- skill_ref_practices -->
<g id="node32" class="node">
<title>skill_ref_practices</title>
<ellipse fill="none" stroke="black" cx="1004.13" cy="-161.39" rx="61.62" ry="18"/>
<text text-anchor="middle" x="1004.13" y="-158.89" font-family="Helvetica,sans-Serif" font-size="10.00">skill_ref_practices</text>
</g>
<!-- skill_co_project&#45;&gt;skill_ref_practices -->
<g id="edge15" class="edge">
<title>skill_co_project&#45;&gt;skill_ref_practices</title>
<path fill="none" stroke="black" d="M63.26,-416.9C75.55,-345.88 118.48,-120.83 175.38,-79.39 425.63,102.89 837.25,-77.63 964.46,-141.14"/>
<polygon fill="black" stroke="black" points="962.96,-144.31 973.47,-145.68 966.11,-138.06 962.96,-144.31"/>
</g>
<!-- skill_ref_deps_format -->
<g id="node33" class="node">
<title>skill_ref_deps_format</title>
<ellipse fill="none" stroke="black" cx="1244.61" cy="-161.39" rx="71.63" ry="18"/>
<text text-anchor="middle" x="1244.61" y="-158.89" font-family="Helvetica,sans-Serif" font-size="10.00">skill_ref_deps_format</text>
</g>
<!-- skill_co_project&#45;&gt;skill_ref_deps_format -->
<g id="edge16" class="edge">
<title>skill_co_project&#45;&gt;skill_ref_deps_format</title>
<path fill="none" stroke="black" d="M64.7,-417.2C76.05,-374.42 108.14,-278.26 175.38,-236.39 312.87,-150.78 377.11,-213.39 539.07,-213.39 539.07,-213.39 539.07,-213.39 757.26,-213.39 916.5,-213.39 957.19,-213.05 1114.8,-190.39 1137.82,-187.08 1162.83,-181.83 1184.63,-176.71"/>
<polygon fill="black" stroke="black" points="1185.49,-180.1 1194.4,-174.37 1183.86,-173.3 1185.49,-180.1"/>
</g>
<!-- skill_workflow_plugin_create&#45;&gt;skill_workflow_plugin_diagnose -->
<!-- cmd_plugin_interview -->
<g id="node15" class="node">
<title>cmd_plugin_interview</title>
<polygon fill="#e3f2fd" stroke="black" points="588.07,-1501.39 492.07,-1501.39 492.07,-1465.39 588.07,-1465.39 588.07,-1501.39"/>
<text text-anchor="middle" x="540.07" y="-1486.39" font-family="Helvetica,sans-Serif" font-size="10.00">plugin&#45;interview</text>
<text text-anchor="middle" x="540.07" y="-1475.39" font-family="Helvetica,sans-Serif" font-size="10.00">(1,118 tok)</text>
</g>
<!-- skill_workflow_plugin_create&#45;&gt;cmd_plugin_interview -->
<g id="edge17" class="edge">
<title>skill_workflow_plugin_create&#45;&gt;cmd_plugin_interview</title>
<path fill="none" stroke="black" d="M293.24,-831.85C307.77,-932.63 373.51,-1357.93 461.07,-1454.39 466.99,-1460.92 474.53,-1465.98 482.57,-1469.91"/>
<polygon fill="black" stroke="black" points="481.23,-1473.14 491.8,-1473.87 483.99,-1466.71 481.23,-1473.14"/>
</g>
<!-- cmd_plugin_research -->
<g id="node16" class="node">
<title>cmd_plugin_research</title>
<polygon fill="#e3f2fd" stroke="black" points="586.07,-1443.39 494.07,-1443.39 494.07,-1407.39 586.07,-1407.39 586.07,-1443.39"/>
<text text-anchor="middle" x="540.07" y="-1428.39" font-family="Helvetica,sans-Serif" font-size="10.00">plugin&#45;research</text>
<text text-anchor="middle" x="540.07" y="-1417.39" font-family="Helvetica,sans-Serif" font-size="10.00">(678 tok)</text>
</g>
<!-- skill_workflow_plugin_create&#45;&gt;cmd_plugin_research -->
<g id="edge18" class="edge">
<title>skill_workflow_plugin_create&#45;&gt;cmd_plugin_research</title>
<path fill="none" stroke="black" d="M289.99,-831.77C290.24,-915.6 302.28,-1225.69 461.07,-1396.39 467.57,-1403.37 475.91,-1408.69 484.7,-1412.72"/>
<polygon fill="black" stroke="black" points="483.39,-1415.97 493.98,-1416.48 486.02,-1409.48 483.39,-1415.97"/>
</g>
<!-- cmd_plugin_design -->
<g id="node17" class="node">
<title>cmd_plugin_design</title>
<polygon fill="#e3f2fd" stroke="black" points="581.57,-1385.39 498.57,-1385.39 498.57,-1349.39 581.57,-1349.39 581.57,-1385.39"/>
<text text-anchor="middle" x="540.07" y="-1370.39" font-family="Helvetica,sans-Serif" font-size="10.00">plugin&#45;design</text>
<text text-anchor="middle" x="540.07" y="-1359.39" font-family="Helvetica,sans-Serif" font-size="10.00">(1,192 tok)</text>
</g>
<!-- skill_workflow_plugin_create&#45;&gt;cmd_plugin_design -->
<g id="edge19" class="edge">
<title>skill_workflow_plugin_create&#45;&gt;cmd_plugin_design</title>
<path fill="none" stroke="black" d="M290.8,-831.81C294.05,-910.47 315.78,-1186.71 461.07,-1338.39 468.64,-1346.29 478.57,-1352.06 488.79,-1356.26"/>
<polygon fill="black" stroke="black" points="487.61,-1359.56 498.2,-1359.7 490.01,-1352.98 487.61,-1359.56"/>
</g>
<!-- cmd_plugin_generate -->
<g id="node18" class="node">
<title>cmd_plugin_generate</title>
<polygon fill="#e3f2fd" stroke="black" points="587.07,-1327.39 493.07,-1327.39 493.07,-1291.39 587.07,-1291.39 587.07,-1327.39"/>
<text text-anchor="middle" x="540.07" y="-1312.39" font-family="Helvetica,sans-Serif" font-size="10.00">plugin&#45;generate</text>
<text text-anchor="middle" x="540.07" y="-1301.39" font-family="Helvetica,sans-Serif" font-size="10.00">(1,419 tok)</text>
</g>
<!-- skill_workflow_plugin_create&#45;&gt;cmd_plugin_generate -->
<g id="edge20" class="edge">
<title>skill_workflow_plugin_create&#45;&gt;cmd_plugin_generate</title>
<path fill="none" stroke="black" d="M291.78,-831.73C298.23,-904.76 329.1,-1147.45 461.07,-1280.39 467.35,-1286.72 475.15,-1291.68 483.35,-1295.57"/>
<polygon fill="black" stroke="black" points="482.16,-1298.87 492.74,-1299.52 484.88,-1292.42 482.16,-1298.87"/>
</g>
<!-- skill_workflow_plugin_diagnose&#45;&gt;skill_workflow_prompt_audit -->
<!-- cmd_plugin_migrate_analyze -->
<g id="node19" class="node">
<title>cmd_plugin_migrate_analyze</title>
<polygon fill="#e3f2fd" stroke="black" points="605.57,-1269.39 474.57,-1269.39 474.57,-1233.39 605.57,-1233.39 605.57,-1269.39"/>
<text text-anchor="middle" x="540.07" y="-1254.39" font-family="Helvetica,sans-Serif" font-size="10.00">plugin&#45;migrate&#45;analyze</text>
<text text-anchor="middle" x="540.07" y="-1243.39" font-family="Helvetica,sans-Serif" font-size="10.00">(476 tok)</text>
</g>
<!-- skill_workflow_plugin_diagnose&#45;&gt;cmd_plugin_migrate_analyze -->
<g id="edge21" class="edge">
<title>skill_workflow_plugin_diagnose&#45;&gt;cmd_plugin_migrate_analyze</title>
<path fill="none" stroke="black" d="M378.09,-759.83C387.55,-764.41 396.21,-770.45 403.07,-778.39 533.12,-929.02 337.12,-1066.69 461.07,-1222.39 462.57,-1224.27 464.2,-1226.03 465.95,-1227.68"/>
<polygon fill="black" stroke="black" points="464.21,-1230.76 474.24,-1234.19 468.53,-1225.26 464.21,-1230.76"/>
</g>
<!-- cmd_plugin_diagnose -->
<g id="node23" class="node">
<title>cmd_plugin_diagnose</title>
<polygon fill="#e3f2fd" stroke="black" points="587.57,-1211.39 492.57,-1211.39 492.57,-1175.39 587.57,-1175.39 587.57,-1211.39"/>
<text text-anchor="middle" x="540.07" y="-1196.39" font-family="Helvetica,sans-Serif" font-size="10.00">plugin&#45;diagnose</text>
<text text-anchor="middle" x="540.07" y="-1185.39" font-family="Helvetica,sans-Serif" font-size="10.00">(944 tok)</text>
</g>
<!-- skill_workflow_plugin_diagnose&#45;&gt;cmd_plugin_diagnose -->
<g id="edge22" class="edge">
<title>skill_workflow_plugin_diagnose&#45;&gt;cmd_plugin_diagnose</title>
<path fill="none" stroke="black" d="M377.66,-759.82C387.26,-764.4 396.07,-770.44 403.07,-778.39 517.69,-908.6 351.72,-1029.71 461.07,-1164.39 466.89,-1171.55 474.66,-1176.95 483.05,-1181.01"/>
<polygon fill="black" stroke="black" points="481.75,-1184.26 492.33,-1184.92 484.47,-1177.81 481.75,-1184.26"/>
</g>
<!-- cmd_plugin_fix -->
<g id="node24" class="node">
<title>cmd_plugin_fix</title>
<polygon fill="#e3f2fd" stroke="black" points="575.07,-1095.39 505.07,-1095.39 505.07,-1059.39 575.07,-1059.39 575.07,-1095.39"/>
<text text-anchor="middle" x="540.07" y="-1080.39" font-family="Helvetica,sans-Serif" font-size="10.00">plugin&#45;fix</text>
<text text-anchor="middle" x="540.07" y="-1069.39" font-family="Helvetica,sans-Serif" font-size="10.00">(1,092 tok)</text>
</g>
<!-- skill_workflow_plugin_diagnose&#45;&gt;cmd_plugin_fix -->
<g id="edge24" class="edge">
<title>skill_workflow_plugin_diagnose&#45;&gt;cmd_plugin_fix</title>
<path fill="none" stroke="black" d="M376.64,-759.99C386.53,-764.53 395.69,-770.51 403.07,-778.39 487,-867.94 380.76,-955.57 461.07,-1048.39 469.79,-1058.47 482.37,-1065.06 494.89,-1069.35"/>
<polygon fill="black" stroke="black" points="494.25,-1072.81 504.83,-1072.33 496.26,-1066.11 494.25,-1072.81"/>
</g>
<!-- cmd_plugin_verify -->
<g id="node25" class="node">
<title>cmd_plugin_verify</title>
<polygon fill="#e3f2fd" stroke="black" points="578.57,-1037.39 501.57,-1037.39 501.57,-1001.39 578.57,-1001.39 578.57,-1037.39"/>
<text text-anchor="middle" x="540.07" y="-1022.39" font-family="Helvetica,sans-Serif" font-size="10.00">plugin&#45;verify</text>
<text text-anchor="middle" x="540.07" y="-1011.39" font-family="Helvetica,sans-Serif" font-size="10.00">(536 tok)</text>
</g>
<!-- skill_workflow_plugin_diagnose&#45;&gt;cmd_plugin_verify -->
<g id="edge25" class="edge">
<title>skill_workflow_plugin_diagnose&#45;&gt;cmd_plugin_verify</title>
<path fill="none" stroke="black" d="M375.95,-760.25C386.01,-764.75 395.4,-770.65 403.07,-778.39 471.82,-847.78 395.13,-918.31 461.07,-990.39 469.3,-999.38 480.57,-1005.6 492,-1009.89"/>
<polygon fill="black" stroke="black" points="490.97,-1013.23 501.56,-1013.06 493.17,-1006.59 490.97,-1013.23"/>
</g>
<!-- cmd_plugin_phase_diagnose -->
<g id="node26" class="node">
<title>cmd_plugin_phase_diagnose</title>
<polygon fill="#bbdefb" stroke="black" points="604.07,-1153.39 476.07,-1153.39 476.07,-1117.39 604.07,-1117.39 604.07,-1153.39"/>
<text text-anchor="middle" x="540.07" y="-1138.39" font-family="Helvetica,sans-Serif" font-size="10.00">plugin&#45;phase&#45;diagnose</text>
<text text-anchor="middle" x="540.07" y="-1127.39" font-family="Helvetica,sans-Serif" font-size="10.00">(652 tok)</text>
</g>
<!-- skill_workflow_plugin_diagnose&#45;&gt;cmd_plugin_phase_diagnose -->
<g id="edge23" class="edge">
<title>skill_workflow_plugin_diagnose&#45;&gt;cmd_plugin_phase_diagnose</title>
<path fill="none" stroke="black" d="M377.19,-759.86C386.93,-764.43 395.9,-770.45 403.07,-778.39 502.31,-888.23 366.27,-992.68 461.07,-1106.39 463.02,-1108.73 465.18,-1110.88 467.5,-1112.86"/>
<polygon fill="black" stroke="black" points="465.78,-1115.93 475.94,-1118.94 469.87,-1110.25 465.78,-1115.93"/>
</g>
<!-- cmd_plugin_phase_verify -->
<g id="node27" class="node">
<title>cmd_plugin_phase_verify</title>
<polygon fill="#bbdefb" stroke="black" points="595.07,-979.39 485.07,-979.39 485.07,-943.39 595.07,-943.39 595.07,-979.39"/>
<text text-anchor="middle" x="540.07" y="-964.39" font-family="Helvetica,sans-Serif" font-size="10.00">plugin&#45;phase&#45;verify</text>
<text text-anchor="middle" x="540.07" y="-953.39" font-family="Helvetica,sans-Serif" font-size="10.00">(634 tok)</text>
</g>
<!-- skill_workflow_plugin_diagnose&#45;&gt;cmd_plugin_phase_verify -->
<g id="edge26" class="edge">
<title>skill_workflow_plugin_diagnose&#45;&gt;cmd_plugin_phase_verify</title>
<path fill="none" stroke="black" d="M374.43,-760.57C384.91,-765.01 394.82,-770.81 403.07,-778.39 456.91,-827.89 409.24,-880.78 461.07,-932.39 465.33,-936.63 470.27,-940.26 475.55,-943.37"/>
<polygon fill="black" stroke="black" points="474.22,-946.62 484.71,-948.11 477.44,-940.4 474.22,-946.62"/>
</g>
<!-- skill_workflow_prompt_audit&#45;&gt;cmd_label_sync -->
<!-- cmd_prompt_audit_scan -->
<g id="node20" class="node">
<title>cmd_prompt_audit_scan</title>
<polygon fill="#e3f2fd" stroke="black" points="593.57,-399.39 486.57,-399.39 486.57,-363.39 593.57,-363.39 593.57,-399.39"/>
<text text-anchor="middle" x="540.07" y="-384.39" font-family="Helvetica,sans-Serif" font-size="10.00">prompt&#45;audit&#45;scan</text>
<text text-anchor="middle" x="540.07" y="-373.39" font-family="Helvetica,sans-Serif" font-size="10.00">(334 tok)</text>
</g>
<!-- skill_workflow_prompt_audit&#45;&gt;cmd_prompt_audit_scan -->
<g id="edge27" class="edge">
<title>skill_workflow_prompt_audit&#45;&gt;cmd_prompt_audit_scan</title>
<path fill="none" stroke="black" d="M352.75,-285.18C369.59,-290.83 387.45,-297.9 403.07,-306.39 431.98,-322.09 432.41,-336.23 461.07,-352.39 466.15,-355.25 471.56,-357.93 477.09,-360.42"/>
<polygon fill="black" stroke="black" points="475.86,-363.7 486.43,-364.41 478.61,-357.26 475.86,-363.7"/>
</g>
<!-- cmd_prompt_audit_review -->
<g id="node21" class="node">
<title>cmd_prompt_audit_review</title>
<polygon fill="#bbdefb" stroke="black" points="598.57,-341.39 481.57,-341.39 481.57,-305.39 598.57,-305.39 598.57,-341.39"/>
<text text-anchor="middle" x="540.07" y="-326.39" font-family="Helvetica,sans-Serif" font-size="10.00">prompt&#45;audit&#45;review</text>
<text text-anchor="middle" x="540.07" y="-315.39" font-family="Helvetica,sans-Serif" font-size="10.00">(458 tok)</text>
</g>
<!-- skill_workflow_prompt_audit&#45;&gt;cmd_prompt_audit_review -->
<g id="edge28" class="edge">
<title>skill_workflow_prompt_audit&#45;&gt;cmd_prompt_audit_review</title>
<path fill="none" stroke="black" d="M360.2,-283.85C395.01,-291.55 436.89,-300.8 471.37,-308.42"/>
<polygon fill="black" stroke="black" points="470.84,-311.89 481.36,-310.63 472.35,-305.06 470.84,-311.89"/>
</g>
<!-- cmd_prompt_audit_apply -->
<g id="node22" class="node">
<title>cmd_prompt_audit_apply</title>
<polygon fill="#e3f2fd" stroke="black" points="595.57,-283.39 484.57,-283.39 484.57,-247.39 595.57,-247.39 595.57,-283.39"/>
<text text-anchor="middle" x="540.07" y="-268.39" font-family="Helvetica,sans-Serif" font-size="10.00">prompt&#45;audit&#45;apply</text>
<text text-anchor="middle" x="540.07" y="-257.39" font-family="Helvetica,sans-Serif" font-size="10.00">(710 tok)</text>
</g>
<!-- skill_workflow_prompt_audit&#45;&gt;cmd_prompt_audit_apply -->
<g id="edge29" class="edge">
<title>skill_workflow_prompt_audit&#45;&gt;cmd_prompt_audit_apply</title>
<path fill="none" stroke="black" d="M392.52,-267.15C420.2,-266.82 449.4,-266.47 474.39,-266.17"/>
<polygon fill="black" stroke="black" points="474.5,-269.67 484.46,-266.05 474.42,-262.67 474.5,-269.67"/>
</g>
<!-- cmd_label_sync&#45;&gt;skill_ref_types -->
<!-- cmd_project_create&#45;&gt;cmd_project_governance -->
<!-- cmd_project_board_configure&#45;&gt;cmd_project_migrate -->
<!-- cmd_project_governance&#45;&gt;cmd_project_board_configure -->
<!-- cmd_project_migrate&#45;&gt;cmd_container_dependency_check -->
<!-- cmd_container_dependency_check&#45;&gt;cmd_setup_crg -->
<!-- cmd_setup_crg&#45;&gt;cmd_snapshot_analyze -->
<!-- cmd_snapshot_analyze&#45;&gt;cmd_snapshot_classify -->
<!-- cmd_snapshot_classify&#45;&gt;cmd_snapshot_generate -->
<!-- cmd_snapshot_generate&#45;&gt;skill_workflow_plugin_create -->
<!-- cmd_plugin_interview&#45;&gt;cmd_plugin_research -->
<!-- cmd_plugin_research&#45;&gt;cmd_plugin_design -->
<!-- cmd_plugin_design&#45;&gt;cmd_plugin_generate -->
<!-- cmd_plugin_migrate_analyze&#45;&gt;cmd_plugin_diagnose -->
<!-- cmd_prompt_audit_scan&#45;&gt;cmd_prompt_audit_review -->
<!-- cmd_prompt_audit_review&#45;&gt;cmd_prompt_audit_apply -->
<!-- cmd_plugin_diagnose&#45;&gt;cmd_plugin_phase_diagnose -->
<!-- cmd_plugin_fix&#45;&gt;cmd_plugin_verify -->
<!-- cmd_plugin_verify&#45;&gt;cmd_plugin_phase_verify -->
<!-- cmd_plugin_phase_diagnose&#45;&gt;cmd_plugin_fix -->
<!-- agent_worker_structure -->
<g id="node28" class="node">
<title>agent_worker_structure</title>
<ellipse fill="#ede7f6" stroke="black" cx="756.26" cy="-1048.39" rx="68.68" ry="21.43"/>
<text text-anchor="middle" x="756.26" y="-1051.39" font-family="Helvetica,sans-Serif" font-size="10.00">worker&#45;structure</text>
<text text-anchor="middle" x="756.26" y="-1040.39" font-family="Helvetica,sans-Serif" font-size="10.00">(1,244 tok)</text>
</g>
<!-- cmd_plugin_phase_diagnose&#45;&gt;agent_worker_structure -->
<g id="edge30" class="edge">
<title>cmd_plugin_phase_diagnose&#45;&gt;agent_worker_structure</title>
<path fill="none" stroke="black" stroke-dasharray="5,2" d="M591.19,-1117.3C600.5,-1113.79 610.11,-1110.06 619.07,-1106.39 645.21,-1095.68 651.1,-1091.52 677.07,-1080.39 685.87,-1076.61 695.28,-1072.68 704.4,-1068.92"/>
<polygon fill="black" stroke="black" points="705.84,-1072.11 713.76,-1065.07 703.18,-1065.63 705.84,-1072.11"/>
</g>
<!-- agent_worker_principles -->
<g id="node29" class="node">
<title>agent_worker_principles</title>
<ellipse fill="#ede7f6" stroke="black" cx="756.26" cy="-984.39" rx="71.34" ry="21.43"/>
<text text-anchor="middle" x="756.26" y="-987.39" font-family="Helvetica,sans-Serif" font-size="10.00">worker&#45;principles</text>
<text text-anchor="middle" x="756.26" y="-976.39" font-family="Helvetica,sans-Serif" font-size="10.00">(1,154 tok)</text>
</g>
<!-- cmd_plugin_phase_diagnose&#45;&gt;agent_worker_principles -->
<g id="edge31" class="edge">
<title>cmd_plugin_phase_diagnose&#45;&gt;agent_worker_principles</title>
<path fill="none" stroke="black" stroke-dasharray="5,2" d="M601.96,-1117.27C608.05,-1114.15 613.89,-1110.55 619.07,-1106.39 656.16,-1076.57 640.47,-1046.8 677.07,-1016.39 682.81,-1011.62 689.35,-1007.48 696.16,-1003.91"/>
<polygon fill="black" stroke="black" points="698.06,-1006.88 705.55,-999.39 695.02,-1000.57 698.06,-1006.88"/>
</g>
<!-- agent_worker_architecture -->
<g id="node30" class="node">
<title>agent_worker_architecture</title>
<ellipse fill="#ede7f6" stroke="black" cx="756.26" cy="-1112.39" rx="79.39" ry="21.43"/>
<text text-anchor="middle" x="756.26" y="-1115.39" font-family="Helvetica,sans-Serif" font-size="10.00">worker&#45;architecture</text>
<text text-anchor="middle" x="756.26" y="-1104.39" font-family="Helvetica,sans-Serif" font-size="10.00">(1,695 tok)</text>
</g>
<!-- cmd_plugin_phase_diagnose&#45;&gt;agent_worker_architecture -->
<g id="edge32" class="edge">
<title>cmd_plugin_phase_diagnose&#45;&gt;agent_worker_architecture</title>
<path fill="none" stroke="black" stroke-dasharray="5,2" d="M604.18,-1128.61C625.57,-1126.31 649.79,-1123.71 672.48,-1121.28"/>
<polygon fill="black" stroke="black" points="672.87,-1124.75 682.44,-1120.21 672.12,-1117.79 672.87,-1124.75"/>
</g>
<!-- skill_ref_specialist_output_schema -->
<g id="node34" class="node">
<title>skill_ref_specialist_output_schema</title>
<ellipse fill="none" stroke="black" cx="1004.13" cy="-1112.39" rx="110.84" ry="18"/>
<text text-anchor="middle" x="1004.13" y="-1109.89" font-family="Helvetica,sans-Serif" font-size="10.00">skill_ref_specialist_output_schema</text>
</g>
<!-- cmd_plugin_phase_diagnose&#45;&gt;skill_ref_specialist_output_schema -->
<g id="edge33" class="edge">
<title>cmd_plugin_phase_diagnose&#45;&gt;skill_ref_specialist_output_schema</title>
<path fill="none" stroke="black" d="M604.34,-1140.45C627.23,-1142.05 653.3,-1143.6 677.07,-1144.39 747.43,-1146.71 765.38,-1151.01 835.46,-1144.39 866.87,-1141.42 901.14,-1135.38 930.48,-1129.35"/>
<polygon fill="black" stroke="black" points="931.56,-1132.7 940.63,-1127.22 930.13,-1125.85 931.56,-1132.7"/>
</g>
<!-- skill_ref_architecture -->
<g id="node35" class="node">
<title>skill_ref_architecture</title>
<ellipse fill="none" stroke="black" cx="1244.61" cy="-1112.39" rx="70.1" ry="18"/>
<text text-anchor="middle" x="1244.61" y="-1109.89" font-family="Helvetica,sans-Serif" font-size="10.00">skill_ref_architecture</text>
</g>
<!-- cmd_plugin_phase_diagnose&#45;&gt;skill_ref_architecture -->
<g id="edge34" class="edge">
<title>cmd_plugin_phase_diagnose&#45;&gt;skill_ref_architecture</title>
<path fill="none" stroke="black" d="M604.34,-1150.62C627.12,-1155.4 653.11,-1160.03 677.07,-1162.39 735.3,-1168.11 1068.94,-1169.9 1114.8,-1161.39 1145.02,-1155.78 1177.34,-1143.46 1202.05,-1132.58"/>
<polygon fill="black" stroke="black" points="1203.78,-1135.64 1211.46,-1128.34 1200.91,-1129.26 1203.78,-1135.64"/>
</g>
<!-- cmd_plugin_phase_verify&#45;&gt;agent_worker_structure -->
<g id="edge35" class="edge">
<title>cmd_plugin_phase_verify&#45;&gt;agent_worker_structure</title>
<path fill="none" stroke="black" stroke-dasharray="5,2" d="M591.19,-979.47C600.5,-982.98 610.11,-986.72 619.07,-990.39 645.21,-1001.09 651.1,-1005.26 677.07,-1016.39 685.87,-1020.16 695.28,-1024.09 704.4,-1027.85"/>
<polygon fill="black" stroke="black" points="703.18,-1031.14 713.76,-1031.7 705.84,-1024.67 703.18,-1031.14"/>
</g>
<!-- cmd_plugin_phase_verify&#45;&gt;agent_worker_principles -->
<g id="edge36" class="edge">
<title>cmd_plugin_phase_verify&#45;&gt;agent_worker_principles</title>
<path fill="none" stroke="black" stroke-dasharray="5,2" d="M595.12,-967.19C620.51,-969.92 651.21,-973.21 678.92,-976.19"/>
<polygon fill="black" stroke="black" points="678.66,-979.68 688.98,-977.27 679.41,-972.72 678.66,-979.68"/>
</g>
<!-- cmd_plugin_phase_verify&#45;&gt;agent_worker_architecture -->
<g id="edge37" class="edge">
<title>cmd_plugin_phase_verify&#45;&gt;agent_worker_architecture</title>
<path fill="none" stroke="black" stroke-dasharray="5,2" d="M595.13,-976.26C603.65,-980.03 611.97,-984.68 619.07,-990.39 656.16,-1020.2 640.47,-1049.97 677.07,-1080.39 682.3,-1084.73 688.2,-1088.55 694.35,-1091.9"/>
<polygon fill="black" stroke="black" points="693,-1095.13 703.51,-1096.46 696.12,-1088.87 693,-1095.13"/>
</g>
<!-- cmd_plugin_phase_verify&#45;&gt;skill_ref_specialist_output_schema -->
<g id="edge38" class="edge">
<title>cmd_plugin_phase_verify&#45;&gt;skill_ref_specialist_output_schema</title>
<path fill="none" stroke="black" d="M595.15,-947.19C655.97,-934.02 756.55,-920.78 835.46,-952.39 902.89,-979.4 958.6,-1047.88 985.58,-1085.91"/>
<polygon fill="black" stroke="black" points="982.93,-1088.22 991.51,-1094.43 988.68,-1084.22 982.93,-1088.22"/>
</g>
<!-- cmd_plugin_phase_verify&#45;&gt;skill_ref_architecture -->
<g id="edge39" class="edge">
<title>cmd_plugin_phase_verify&#45;&gt;skill_ref_architecture</title>
<path fill="none" stroke="black" d="M595.31,-944.61C654.77,-928.65 752.73,-909.51 835.46,-927.39 982.47,-959.15 1140.2,-1048.44 1208.63,-1090.26"/>
<polygon fill="black" stroke="black" points="1206.95,-1093.33 1217.3,-1095.6 1210.62,-1087.37 1206.95,-1093.33"/>
</g>
<!-- agent_worker_structure&#45;&gt;agent_worker_principles -->
<!-- agent_worker_structure&#45;&gt;agent_worker_principles -->
<!-- agent_worker_structure&#45;&gt;agent_worker_principles -->
<!-- agent_worker_structure&#45;&gt;agent_worker_principles -->
<!-- agent_worker_structure&#45;&gt;agent_worker_principles -->
<!-- agent_worker_structure&#45;&gt;skill_ref_specialist_output_schema -->
<g id="edge40" class="edge">
<title>agent_worker_structure&#45;&gt;skill_ref_specialist_output_schema</title>
<path fill="none" stroke="black" stroke-dasharray="1,5" d="M809.41,-1061.96C845.92,-1071.46 895.08,-1084.26 934.73,-1094.58"/>
<polygon fill="black" stroke="black" points="934.04,-1098.02 944.6,-1097.15 935.8,-1091.25 934.04,-1098.02"/>
</g>
<!-- agent_worker_principles&#45;&gt;agent_worker_architecture -->
<!-- agent_worker_principles&#45;&gt;agent_worker_architecture -->
<!-- agent_worker_principles&#45;&gt;skill_ref_specialist_output_schema -->
<g id="edge41" class="edge">
<title>agent_worker_principles&#45;&gt;skill_ref_specialist_output_schema</title>
<path fill="none" stroke="black" stroke-dasharray="1,5" d="M815.71,-996.39C822.43,-999.24 829.13,-1002.3 835.46,-1005.39 887.2,-1030.65 944.94,-1065.2 977.37,-1088.54"/>
<polygon fill="black" stroke="black" points="975.32,-1091.37 985.44,-1094.51 979.48,-1085.75 975.32,-1091.37"/>
</g>
<!-- agent_worker_principles&#45;&gt;skill_ref_specialist_output_schema -->
<!-- agent_worker_architecture&#45;&gt;agent_worker_structure -->
<!-- agent_worker_architecture&#45;&gt;skill_ref_specialist_output_schema -->
<g id="edge42" class="edge">
<title>agent_worker_architecture&#45;&gt;skill_ref_specialist_output_schema</title>
<path fill="none" stroke="black" stroke-dasharray="1,5" d="M815.22,-1098.14C849.35,-1095.53 892.85,-1095.19 929.41,-1097.12"/>
<polygon fill="black" stroke="black" points="929.33,-1100.62 939.52,-1097.73 929.75,-1093.64 929.33,-1100.62"/>
</g>
<!-- agent_worker_architecture&#45;&gt;skill_ref_specialist_output_schema -->
<!-- agent_worker_architecture&#45;&gt;skill_ref_specialist_output_schema -->
<!-- agent_worker_architecture&#45;&gt;skill_ref_architecture -->
<g id="edge43" class="edge">
<title>agent_worker_architecture&#45;&gt;skill_ref_architecture</title>
<path fill="none" stroke="black" stroke-dasharray="1,5" d="M813.49,-1127.13C837.89,-1132.8 866.89,-1138.59 893.46,-1141.39 991.29,-1151.69 1017.03,-1152.26 1114.8,-1141.39 1138.61,-1138.74 1164.44,-1133.42 1186.68,-1128.05"/>
<polygon fill="black" stroke="black" points="1187.76,-1131.39 1196.63,-1125.59 1186.08,-1124.6 1187.76,-1131.39"/>
</g>
<!-- skill_ref_types&#45;&gt;skill_ref_practices -->
<!-- skill_ref_practices&#45;&gt;skill_ref_deps_format -->
<!-- skill_ref_specialist_output_schema&#45;&gt;skill_ref_architecture -->
<!-- skill_ref_specialist_output_schema&#45;&gt;skill_ref_architecture -->
</g>
</svg>
