<?xml version="1.0" encoding="UTF-8" standalone="no"?>
<!DOCTYPE svg PUBLIC "-//W3C//DTD SVG 1.1//EN"
 "http://www.w3.org/Graphics/SVG/1.1/DTD/svg11.dtd">
<!-- Generated by graphviz version 2.43.0 (0)
 -->
<!-- Title: Dependencies Pages: 1 -->
<svg width="1149pt" height="472pt"
 viewBox="0.00 0.00 1148.90 471.73" xmlns="http://www.w3.org/2000/svg" xmlns:xlink="http://www.w3.org/1999/xlink">
<g id="graph0" class="graph" transform="scale(1 1) rotate(0) translate(4 467.73)">
<title>Dependencies</title>
<polygon fill="white" stroke="transparent" points="-4,4 -4,-467.73 1144.9,-467.73 1144.9,4 -4,4"/>
<text text-anchor="middle" x="570.45" y="-448.53" font-family="Helvetica,sans-Serif" font-size="14.00">workflow&#45;issue&#45;lifecycle</text>
<!-- skill_workflow_issue_lifecycle -->
<g id="node1" class="node">
<title>skill_workflow_issue_lifecycle</title>
<ellipse fill="#e8f5e9" stroke="black" cx="108.19" cy="-206.43" rx="108.38" ry="21.43"/>
<text text-anchor="middle" x="108.19" y="-209.43" font-family="Helvetica,sans-Serif" font-size="10.00">twl:workflow&#45;issue&#45;lifecycle</text>
<text text-anchor="middle" x="108.19" y="-198.43" font-family="Helvetica,sans-Serif" font-size="10.00">(481 tok)</text>
</g>
<!-- skill_lifecycle_processing_flow -->
<g id="node2" class="node">
<title>skill_lifecycle_processing_flow</title>
<polygon fill="#e1f5fe" stroke="black" points="1134.9,-102.43 984.9,-102.43 984.9,-66.43 1140.9,-66.43 1140.9,-96.43 1134.9,-102.43"/>
<polyline fill="none" stroke="black" points="1134.9,-102.43 1134.9,-96.43 "/>
<polyline fill="none" stroke="black" points="1140.9,-96.43 1134.9,-96.43 "/>
<text text-anchor="middle" x="1062.9" y="-87.43" font-family="Helvetica,sans-Serif" font-size="10.00">twl:lifecycle&#45;processing&#45;flow</text>
<text text-anchor="middle" x="1062.9" y="-76.43" font-family="Helvetica,sans-Serif" font-size="10.00">(2,320 tok)</text>
</g>
<!-- skill_workflow_issue_lifecycle&#45;&gt;skill_lifecycle_processing_flow -->
<g id="edge8" class="edge">
<title>skill_workflow_issue_lifecycle&#45;&gt;skill_lifecycle_processing_flow</title>
<path fill="none" stroke="black" d="M122.57,-227.68C147.46,-265.23 204.7,-342.89 274.37,-380.43 420.7,-459.27 484.24,-449.06 646.81,-414.43 780.13,-386.03 823,-377.68 926.9,-289.43 986.71,-238.63 1030.33,-154.83 1050.1,-111.8"/>
<polygon fill="black" stroke="black" points="1053.36,-113.08 1054.28,-102.52 1046.98,-110.2 1053.36,-113.08"/>
</g>
<!-- cmd_issue_structure -->
<g id="node3" class="node">
<title>cmd_issue_structure</title>
<polygon fill="#e3f2fd" stroke="black" points="384.87,-369.43 295.87,-369.43 295.87,-333.43 384.87,-333.43 384.87,-369.43"/>
<text text-anchor="middle" x="340.37" y="-354.43" font-family="Helvetica,sans-Serif" font-size="10.00">issue&#45;structure</text>
<text text-anchor="middle" x="340.37" y="-343.43" font-family="Helvetica,sans-Serif" font-size="10.00">(1,406 tok)</text>
</g>
<!-- skill_workflow_issue_lifecycle&#45;&gt;cmd_issue_structure -->
<g id="edge1" class="edge">
<title>skill_workflow_issue_lifecycle&#45;&gt;cmd_issue_structure</title>
<path fill="none" stroke="black" d="M135.32,-227.18C167.04,-251.77 222.71,-293.13 274.37,-322.43 278.29,-324.65 282.41,-326.83 286.59,-328.93"/>
<polygon fill="black" stroke="black" points="285.27,-332.17 295.79,-333.38 288.32,-325.88 285.27,-332.17"/>
</g>
<!-- cmd_issue_create -->
<g id="node4" class="node">
<title>cmd_issue_create</title>
<polygon fill="#e3f2fd" stroke="black" points="378.87,-137.43 301.87,-137.43 301.87,-101.43 378.87,-101.43 378.87,-137.43"/>
<text text-anchor="middle" x="340.37" y="-122.43" font-family="Helvetica,sans-Serif" font-size="10.00">issue&#45;create</text>
<text text-anchor="middle" x="340.37" y="-111.43" font-family="Helvetica,sans-Serif" font-size="10.00">(1,440 tok)</text>
</g>
<!-- skill_workflow_issue_lifecycle&#45;&gt;cmd_issue_create -->
<g id="edge5" class="edge">
<title>skill_workflow_issue_lifecycle&#45;&gt;cmd_issue_create</title>
<path fill="none" stroke="black" d="M158.85,-187.66C198.33,-172.74 253.18,-152.01 292.04,-137.32"/>
<polygon fill="black" stroke="black" points="293.43,-140.54 301.55,-133.73 290.96,-133.99 293.43,-140.54"/>
</g>
<!-- cmd_issue_spec_review -->
<g id="node5" class="node">
<title>cmd_issue_spec_review</title>
<polygon fill="#bbdefb" stroke="black" points="392.87,-311.43 287.87,-311.43 287.87,-275.43 392.87,-275.43 392.87,-311.43"/>
<text text-anchor="middle" x="340.37" y="-296.43" font-family="Helvetica,sans-Serif" font-size="10.00">issue&#45;spec&#45;review</text>
<text text-anchor="middle" x="340.37" y="-285.43" font-family="Helvetica,sans-Serif" font-size="10.00">(1,870 tok)</text>
</g>
<!-- skill_workflow_issue_lifecycle&#45;&gt;cmd_issue_spec_review -->
<g id="edge2" class="edge">
<title>skill_workflow_issue_lifecycle&#45;&gt;cmd_issue_spec_review</title>
<path fill="none" stroke="black" d="M158.85,-225.2C195.04,-238.88 244.15,-257.44 282.01,-271.75"/>
<polygon fill="black" stroke="black" points="280.78,-275.03 291.38,-275.29 283.26,-268.48 280.78,-275.03"/>
</g>
<!-- cmd_issue_review_aggregate -->
<g id="node6" class="node">
<title>cmd_issue_review_aggregate</title>
<polygon fill="#e3f2fd" stroke="black" points="406.37,-253.43 274.37,-253.43 274.37,-217.43 406.37,-217.43 406.37,-253.43"/>
<text text-anchor="middle" x="340.37" y="-238.43" font-family="Helvetica,sans-Serif" font-size="10.00">issue&#45;review&#45;aggregate</text>
<text text-anchor="middle" x="340.37" y="-227.43" font-family="Helvetica,sans-Serif" font-size="10.00">(1,157 tok)</text>
</g>
<!-- skill_workflow_issue_lifecycle&#45;&gt;cmd_issue_review_aggregate -->
<g id="edge3" class="edge">
<title>skill_workflow_issue_lifecycle&#45;&gt;cmd_issue_review_aggregate</title>
<path fill="none" stroke="black" d="M199.5,-217.81C220.93,-220.51 243.57,-223.36 264.24,-225.97"/>
<polygon fill="black" stroke="black" points="263.86,-229.44 274.22,-227.22 264.73,-222.5 263.86,-229.44"/>
</g>
<!-- cmd_issue_arch_drift -->
<g id="node7" class="node">
<title>cmd_issue_arch_drift</title>
<polygon fill="#e3f2fd" stroke="black" points="385.37,-195.43 295.37,-195.43 295.37,-159.43 385.37,-159.43 385.37,-195.43"/>
<text text-anchor="middle" x="340.37" y="-180.43" font-family="Helvetica,sans-Serif" font-size="10.00">issue&#45;arch&#45;drift</text>
<text text-anchor="middle" x="340.37" y="-169.43" font-family="Helvetica,sans-Serif" font-size="10.00">(1,079 tok)</text>
</g>
<!-- skill_workflow_issue_lifecycle&#45;&gt;cmd_issue_arch_drift -->
<g id="edge4" class="edge">
<title>skill_workflow_issue_lifecycle&#45;&gt;cmd_issue_arch_drift</title>
<path fill="none" stroke="black" d="M199.5,-195.05C228.4,-191.41 259.48,-187.5 284.98,-184.28"/>
<polygon fill="black" stroke="black" points="285.71,-187.72 295.19,-183 284.83,-180.78 285.71,-187.72"/>
</g>
<!-- cmd_project_board_sync -->
<g id="node8" class="node">
<title>cmd_project_board_sync</title>
<polygon fill="#e3f2fd" stroke="black" points="394.37,-79.43 286.37,-79.43 286.37,-43.43 394.37,-43.43 394.37,-79.43"/>
<text text-anchor="middle" x="340.37" y="-64.43" font-family="Helvetica,sans-Serif" font-size="10.00">project&#45;board&#45;sync</text>
<text text-anchor="middle" x="340.37" y="-53.43" font-family="Helvetica,sans-Serif" font-size="10.00">(1,184 tok)</text>
</g>
<!-- skill_workflow_issue_lifecycle&#45;&gt;cmd_project_board_sync -->
<g id="edge6" class="edge">
<title>skill_workflow_issue_lifecycle&#45;&gt;cmd_project_board_sync</title>
<path fill="none" stroke="black" d="M135.32,-185.69C167.04,-161.09 222.71,-119.74 274.37,-90.43 278.29,-88.21 282.41,-86.03 286.59,-83.94"/>
<polygon fill="black" stroke="black" points="288.32,-86.99 295.79,-79.48 285.27,-80.69 288.32,-86.99"/>
</g>
<!-- script_spec_review_session_init -->
<g id="node14" class="node">
<title>script_spec_review_session_init</title>
<polygon fill="#ff9800" stroke="black" points="926.94,-84.43 871.4,-108.92 760.31,-108.92 704.76,-84.43 760.31,-59.94 871.4,-59.94 926.94,-84.43"/>
<text text-anchor="middle" x="815.85" y="-87.43" font-family="Helvetica,sans-Serif" font-size="10.00">spec&#45;review&#45;session&#45;init</text>
<text text-anchor="middle" x="815.85" y="-76.43" font-family="Helvetica,sans-Serif" font-size="10.00">(501 tok)</text>
</g>
<!-- skill_workflow_issue_lifecycle&#45;&gt;script_spec_review_session_init -->
<g id="edge7" class="edge">
<title>skill_workflow_issue_lifecycle&#45;&gt;script_spec_review_session_init</title>
<path fill="none" stroke="black" d="M121.22,-185.16C144.72,-146.09 200.89,-63.99 274.37,-32.43 433.12,35.75 641.59,-20.35 747.22,-57.72"/>
<polygon fill="black" stroke="black" points="746.21,-61.08 756.81,-61.16 748.58,-54.49 746.21,-61.08"/>
</g>
<!-- cmd_issue_structure&#45;&gt;cmd_issue_spec_review -->
<!-- cmd_issue_create&#45;&gt;cmd_project_board_sync -->
<!-- cmd_issue_spec_review&#45;&gt;cmd_issue_review_aggregate -->
<!-- cmd_issue_spec_review&#45;&gt;cmd_issue_review_aggregate -->
<!-- agent_issue_critic -->
<g id="node9" class="node">
<title>agent_issue_critic</title>
<ellipse fill="#ede7f6" stroke="black" cx="555.59" cy="-382.43" rx="49.49" ry="21.43"/>
<text text-anchor="middle" x="555.59" y="-385.43" font-family="Helvetica,sans-Serif" font-size="10.00">issue&#45;critic</text>
<text text-anchor="middle" x="555.59" y="-374.43" font-family="Helvetica,sans-Serif" font-size="10.00">(1,268 tok)</text>
</g>
<!-- cmd_issue_spec_review&#45;&gt;agent_issue_critic -->
<g id="edge9" class="edge">
<title>cmd_issue_spec_review&#45;&gt;agent_issue_critic</title>
<path fill="none" stroke="black" stroke-dasharray="5,2" d="M382.37,-311.5C390.35,-315.08 398.64,-318.84 406.37,-322.43 432.34,-334.49 437.96,-339.41 464.37,-350.43 477.7,-355.99 492.38,-361.47 505.95,-366.27"/>
<polygon fill="black" stroke="black" points="505.01,-369.65 515.61,-369.64 507.32,-363.04 505.01,-369.65"/>
</g>
<!-- agent_issue_feasibility -->
<g id="node10" class="node">
<title>agent_issue_feasibility</title>
<ellipse fill="#ede7f6" stroke="black" cx="555.59" cy="-318.43" rx="67.35" ry="21.43"/>
<text text-anchor="middle" x="555.59" y="-321.43" font-family="Helvetica,sans-Serif" font-size="10.00">issue&#45;feasibility</text>
<text text-anchor="middle" x="555.59" y="-310.43" font-family="Helvetica,sans-Serif" font-size="10.00">(1,175 tok)</text>
</g>
<!-- cmd_issue_spec_review&#45;&gt;agent_issue_feasibility -->
<g id="edge10" class="edge">
<title>cmd_issue_spec_review&#45;&gt;agent_issue_feasibility</title>
<path fill="none" stroke="black" stroke-dasharray="5,2" d="M392.99,-299.48C419.78,-302.62 452.95,-306.51 482.25,-309.95"/>
<polygon fill="black" stroke="black" points="482.1,-313.46 492.44,-311.14 482.92,-306.5 482.1,-313.46"/>
</g>
<!-- agent_worker_codex_reviewer -->
<g id="node11" class="node">
<title>agent_worker_codex_reviewer</title>
<ellipse fill="#ede7f6" stroke="black" cx="555.59" cy="-254.43" rx="91.43" ry="21.43"/>
<text text-anchor="middle" x="555.59" y="-257.43" font-family="Helvetica,sans-Serif" font-size="10.00">worker&#45;codex&#45;reviewer</text>
<text text-anchor="middle" x="555.59" y="-246.43" font-family="Helvetica,sans-Serif" font-size="10.00">(1,841 tok)</text>
</g>
<!-- cmd_issue_spec_review&#45;&gt;agent_worker_codex_reviewer -->
<g id="edge11" class="edge">
<title>cmd_issue_spec_review&#45;&gt;agent_worker_codex_reviewer</title>
<path fill="none" stroke="black" stroke-dasharray="5,2" d="M392.99,-283.99C417.03,-279.59 446.21,-274.25 473.13,-269.33"/>
<polygon fill="black" stroke="black" points="474.11,-272.71 483.32,-267.47 472.85,-265.82 474.11,-272.71"/>
</g>
<!-- script_escape_issue_body -->
<g id="node12" class="node">
<title>script_escape_issue_body</title>
<polygon fill="#ff9800" stroke="black" points="904.22,-254.43 860.03,-278.92 771.67,-278.92 727.49,-254.43 771.67,-229.94 860.03,-229.94 904.22,-254.43"/>
<text text-anchor="middle" x="815.85" y="-257.43" font-family="Helvetica,sans-Serif" font-size="10.00">escape&#45;issue&#45;body</text>
<text text-anchor="middle" x="815.85" y="-246.43" font-family="Helvetica,sans-Serif" font-size="10.00">(63 tok)</text>
</g>
<!-- cmd_issue_spec_review&#45;&gt;script_escape_issue_body -->
<g id="edge12" class="edge">
<title>cmd_issue_spec_review&#45;&gt;script_escape_issue_body</title>
<path fill="none" stroke="black" d="M385.35,-275.3C392.5,-271.93 399.74,-268.26 406.37,-264.43 433.94,-248.53 434.1,-232.24 464.37,-222.43 560.41,-191.31 678.48,-213.69 750.13,-233.48"/>
<polygon fill="black" stroke="black" points="749.35,-236.89 759.93,-236.25 751.26,-230.16 749.35,-236.89"/>
</g>
<!-- script_spec_review_manifest -->
<g id="node13" class="node">
<title>script_spec_review_manifest</title>
<polygon fill="#ff9800" stroke="black" points="916.21,-183.43 866.03,-207.92 765.67,-207.92 715.49,-183.43 765.67,-158.94 866.03,-158.94 916.21,-183.43"/>
<text text-anchor="middle" x="815.85" y="-186.43" font-family="Helvetica,sans-Serif" font-size="10.00">spec&#45;review&#45;manifest</text>
<text text-anchor="middle" x="815.85" y="-175.43" font-family="Helvetica,sans-Serif" font-size="10.00">(169 tok)</text>
</g>
<!-- cmd_issue_spec_review&#45;&gt;script_spec_review_manifest -->
<g id="edge13" class="edge">
<title>cmd_issue_spec_review&#45;&gt;script_spec_review_manifest</title>
<path fill="none" stroke="black" d="M388.09,-275.34C394.46,-272.09 400.74,-268.45 406.37,-264.43 437.1,-242.53 430.18,-218.38 464.37,-202.43 547.97,-163.44 655.25,-163.92 728.98,-170.82"/>
<polygon fill="black" stroke="black" points="728.85,-174.32 739.15,-171.83 729.55,-167.36 728.85,-174.32"/>
</g>
<!-- cmd_issue_review_aggregate&#45;&gt;cmd_issue_arch_drift -->
<!-- cmd_issue_review_aggregate&#45;&gt;cmd_issue_arch_drift -->
<!-- cmd_issue_arch_drift&#45;&gt;cmd_issue_create -->
<!-- cmd_issue_arch_drift&#45;&gt;script_spec_review_session_init -->
<!-- cmd_project_board_sync&#45;&gt;script_spec_review_session_init -->
<!-- agent_issue_critic&#45;&gt;agent_issue_feasibility -->
<!-- agent_issue_feasibility&#45;&gt;agent_worker_codex_reviewer -->
<!-- agent_worker_codex_reviewer&#45;&gt;script_escape_issue_body -->
<!-- script_escape_issue_body&#45;&gt;script_spec_review_manifest -->
<!-- script_spec_review_session_init&#45;&gt;skill_lifecycle_processing_flow -->
</g>
</svg>
