<?xml version="1.0" encoding="UTF-8" standalone="no"?>
<!DOCTYPE svg PUBLIC "-//W3C//DTD SVG 1.1//EN"
 "http://www.w3.org/Graphics/SVG/1.1/DTD/svg11.dtd">
<!-- Generated by graphviz version 2.43.0 (0)
 -->
<!-- Title: Dependencies Pages: 1 -->
<svg width="638pt" height="680pt"
 viewBox="0.00 0.00 638.32 679.99" xmlns="http://www.w3.org/2000/svg" xmlns:xlink="http://www.w3.org/1999/xlink">
<g id="graph0" class="graph" transform="scale(1 1) rotate(0) translate(4 675.99)">
<title>Dependencies</title>
<polygon fill="white" stroke="transparent" points="-4,4 -4,-675.99 634.32,-675.99 634.32,4 -4,4"/>
<text text-anchor="middle" x="315.16" y="-656.79" font-family="Helvetica,sans-Serif" font-size="14.00">workflow&#45;setup</text>
<!-- skill_workflow_setup -->
<g id="node1" class="node">
<title>skill_workflow_setup</title>
<ellipse fill="#e8f5e9" stroke="black" cx="77.78" cy="-153.49" rx="77.56" ry="21.43"/>
<text text-anchor="middle" x="77.78" y="-156.49" font-family="Helvetica,sans-Serif" font-size="10.00">twl:workflow&#45;setup</text>
<text text-anchor="middle" x="77.78" y="-145.49" font-family="Helvetica,sans-Serif" font-size="10.00">(1,322 tok)</text>
</g>
<!-- cmd_init -->
<g id="node2" class="node">
<title>cmd_init</title>
<polygon fill="#e3f2fd" stroke="black" points="320.56,-345.49 259.56,-345.49 259.56,-309.49 320.56,-309.49 320.56,-345.49"/>
<text text-anchor="middle" x="290.06" y="-330.49" font-family="Helvetica,sans-Serif" font-size="10.00">init</text>
<text text-anchor="middle" x="290.06" y="-319.49" font-family="Helvetica,sans-Serif" font-size="10.00">(481 tok)</text>
</g>
<!-- skill_workflow_setup&#45;&gt;cmd_init -->
<g id="edge1" class="edge">
<title>skill_workflow_setup&#45;&gt;cmd_init</title>
<path fill="none" stroke="black" d="M93.25,-174.31C115.73,-205.28 161.88,-263.57 213.56,-298.49 224.49,-305.88 237.56,-311.75 249.72,-316.22"/>
<polygon fill="black" stroke="black" points="248.64,-319.55 259.23,-319.51 250.93,-312.93 248.64,-319.55"/>
</g>
<!-- cmd_worktree_create -->
<g id="node3" class="node">
<title>cmd_worktree_create</title>
<polygon fill="#e3f2fd" stroke="black" points="337.56,-287.49 242.56,-287.49 242.56,-251.49 337.56,-251.49 337.56,-287.49"/>
<text text-anchor="middle" x="290.06" y="-272.49" font-family="Helvetica,sans-Serif" font-size="10.00">worktree&#45;create</text>
<text text-anchor="middle" x="290.06" y="-261.49" font-family="Helvetica,sans-Serif" font-size="10.00">(464 tok)</text>
</g>
<!-- skill_workflow_setup&#45;&gt;cmd_worktree_create -->
<g id="edge2" class="edge">
<title>skill_workflow_setup&#45;&gt;cmd_worktree_create</title>
<path fill="none" stroke="black" d="M105.92,-173.4C132.45,-192.28 174.45,-220.63 213.56,-240.49 219.7,-243.61 226.26,-246.6 232.85,-249.39"/>
<polygon fill="black" stroke="black" points="231.91,-252.79 242.49,-253.34 234.56,-246.31 231.91,-252.79"/>
</g>
<!-- cmd_project_board_status_update -->
<g id="node4" class="node">
<title>cmd_project_board_status_update</title>
<polygon fill="#e3f2fd" stroke="black" points="366.56,-229.49 213.56,-229.49 213.56,-193.49 366.56,-193.49 366.56,-229.49"/>
<text text-anchor="middle" x="290.06" y="-214.49" font-family="Helvetica,sans-Serif" font-size="10.00">project&#45;board&#45;status&#45;update</text>
<text text-anchor="middle" x="290.06" y="-203.49" font-family="Helvetica,sans-Serif" font-size="10.00">(1,221 tok)</text>
</g>
<!-- skill_workflow_setup&#45;&gt;cmd_project_board_status_update -->
<g id="edge3" class="edge">
<title>skill_workflow_setup&#45;&gt;cmd_project_board_status_update</title>
<path fill="none" stroke="black" d="M133.21,-168.51C157.81,-175.29 187.28,-183.42 213.95,-190.78"/>
<polygon fill="black" stroke="black" points="213.06,-194.16 223.63,-193.45 214.92,-187.41 213.06,-194.16"/>
</g>
<!-- cmd_crg_auto_build -->
<g id="node5" class="node">
<title>cmd_crg_auto_build</title>
<polygon fill="#e3f2fd" stroke="black" points="332.56,-171.49 247.56,-171.49 247.56,-135.49 332.56,-135.49 332.56,-171.49"/>
<text text-anchor="middle" x="290.06" y="-156.49" font-family="Helvetica,sans-Serif" font-size="10.00">crg&#45;auto&#45;build</text>
<text text-anchor="middle" x="290.06" y="-145.49" font-family="Helvetica,sans-Serif" font-size="10.00">(537 tok)</text>
</g>
<!-- skill_workflow_setup&#45;&gt;cmd_crg_auto_build -->
<g id="edge4" class="edge">
<title>skill_workflow_setup&#45;&gt;cmd_crg_auto_build</title>
<path fill="none" stroke="black" d="M155.59,-153.49C182.8,-153.49 212.73,-153.49 237.35,-153.49"/>
<polygon fill="black" stroke="black" points="237.55,-156.99 247.55,-153.49 237.55,-149.99 237.55,-156.99"/>
</g>
<!-- cmd_ac_extract -->
<g id="node6" class="node">
<title>cmd_ac_extract</title>
<polygon fill="#e3f2fd" stroke="black" points="323.06,-113.49 257.06,-113.49 257.06,-77.49 323.06,-77.49 323.06,-113.49"/>
<text text-anchor="middle" x="290.06" y="-98.49" font-family="Helvetica,sans-Serif" font-size="10.00">ac&#45;extract</text>
<text text-anchor="middle" x="290.06" y="-87.49" font-family="Helvetica,sans-Serif" font-size="10.00">(384 tok)</text>
</g>
<!-- skill_workflow_setup&#45;&gt;cmd_ac_extract -->
<g id="edge5" class="edge">
<title>skill_workflow_setup&#45;&gt;cmd_ac_extract</title>
<path fill="none" stroke="black" d="M133.21,-138.48C168.72,-128.69 214.38,-116.09 247.08,-107.07"/>
<polygon fill="black" stroke="black" points="248.08,-110.43 256.79,-104.4 246.22,-103.68 248.08,-110.43"/>
</g>
<!-- script_chain_runner -->
<g id="node9" class="node">
<title>script_chain_runner</title>
<polygon fill="#ff9800" stroke="black" points="591.32,-95.49 559.38,-119.98 495.51,-119.98 463.57,-95.49 495.51,-71.01 559.38,-71.01 591.32,-95.49"/>
<text text-anchor="middle" x="527.44" y="-98.49" font-family="Helvetica,sans-Serif" font-size="10.00">chain&#45;runner</text>
<text text-anchor="middle" x="527.44" y="-87.49" font-family="Helvetica,sans-Serif" font-size="10.00">(9,633 tok)</text>
</g>
<!-- skill_workflow_setup&#45;&gt;script_chain_runner -->
<g id="edge6" class="edge">
<title>skill_workflow_setup&#45;&gt;script_chain_runner</title>
<path fill="none" stroke="black" d="M101.52,-132.87C126.76,-111.48 169.75,-79.41 213.56,-66.49 301.6,-40.55 409.06,-61.23 472.39,-78.46"/>
<polygon fill="black" stroke="black" points="471.59,-81.87 482.17,-81.19 473.47,-75.13 471.59,-81.87"/>
</g>
<!-- script_compaction_resume -->
<g id="node14" class="node">
<title>script_compaction_resume</title>
<polygon fill="#ff9800" stroke="black" points="620.6,-24.49 574.02,-48.98 480.86,-48.98 434.28,-24.49 480.86,-0.01 574.02,-0.01 620.6,-24.49"/>
<text text-anchor="middle" x="527.44" y="-27.49" font-family="Helvetica,sans-Serif" font-size="10.00">compaction&#45;resume</text>
<text text-anchor="middle" x="527.44" y="-16.49" font-family="Helvetica,sans-Serif" font-size="10.00">(927 tok)</text>
</g>
<!-- skill_workflow_setup&#45;&gt;script_compaction_resume -->
<g id="edge7" class="edge">
<title>skill_workflow_setup&#45;&gt;script_compaction_resume</title>
<path fill="none" stroke="black" d="M97.42,-132.95C121.5,-107.98 165.98,-66.91 213.56,-48.49 284.82,-20.92 371.91,-16.36 436.09,-17.87"/>
<polygon fill="black" stroke="black" points="436.09,-21.37 446.19,-18.16 436.3,-14.37 436.09,-21.37"/>
</g>
<!-- cmd_init&#45;&gt;cmd_worktree_create -->
<!-- cmd_worktree_create&#45;&gt;cmd_project_board_status_update -->
<!-- script_worktree_create -->
<g id="node11" class="node">
<title>script_worktree_create</title>
<polygon fill="#ff9800" stroke="black" points="605.08,-269.49 566.26,-293.98 488.62,-293.98 449.81,-269.49 488.62,-245.01 566.26,-245.01 605.08,-269.49"/>
<text text-anchor="middle" x="527.44" y="-272.49" font-family="Helvetica,sans-Serif" font-size="10.00">worktree&#45;create</text>
<text text-anchor="middle" x="527.44" y="-261.49" font-family="Helvetica,sans-Serif" font-size="10.00">(6,686 tok)</text>
</g>
<!-- cmd_worktree_create&#45;&gt;script_worktree_create -->
<g id="edge8" class="edge">
<title>cmd_worktree_create&#45;&gt;script_worktree_create</title>
<path fill="none" stroke="black" d="M337.57,-269.49C366.59,-269.49 404.86,-269.49 439.36,-269.49"/>
<polygon fill="black" stroke="black" points="439.46,-272.99 449.46,-269.49 439.46,-265.99 439.46,-272.99"/>
</g>
<!-- cmd_project_board_status_update&#45;&gt;cmd_crg_auto_build -->
<!-- cmd_crg_auto_build&#45;&gt;cmd_ac_extract -->
<!-- cmd_ac_extract&#45;&gt;script_chain_runner -->
<!-- script_autopilot_github -->
<g id="node12" class="node">
<title>script_autopilot_github</title>
<polygon fill="#ff9800" stroke="black" points="605.08,-166.49 566.26,-190.98 488.62,-190.98 449.81,-166.49 488.62,-142.01 566.26,-142.01 605.08,-166.49"/>
<text text-anchor="middle" x="527.44" y="-169.49" font-family="Helvetica,sans-Serif" font-size="10.00">autopilot&#45;github</text>
<text text-anchor="middle" x="527.44" y="-158.49" font-family="Helvetica,sans-Serif" font-size="10.00">(3,666 tok)</text>
</g>
<!-- cmd_ac_extract&#45;&gt;script_autopilot_github -->
<g id="edge9" class="edge">
<title>cmd_ac_extract&#45;&gt;script_autopilot_github</title>
<path fill="none" stroke="black" d="M323.3,-105.22C359.54,-116.15 419.25,-134.16 464.58,-147.83"/>
<polygon fill="black" stroke="black" points="463.73,-151.23 474.31,-150.77 465.75,-144.53 463.73,-151.23"/>
</g>
<!-- script_state_read -->
<g id="node7" class="node">
<title>script_state_read</title>
<polygon fill="#ff9800" stroke="black" points="584.75,-411.49 556.1,-435.98 498.79,-435.98 470.13,-411.49 498.79,-387.01 556.1,-387.01 584.75,-411.49"/>
<text text-anchor="middle" x="527.44" y="-414.49" font-family="Helvetica,sans-Serif" font-size="10.00">state&#45;read</text>
<text text-anchor="middle" x="527.44" y="-403.49" font-family="Helvetica,sans-Serif" font-size="10.00">(5,796 tok)</text>
</g>
<!-- script_state_write -->
<g id="node8" class="node">
<title>script_state_write</title>
<polygon fill="#ff9800" stroke="black" points="584.75,-340.49 556.1,-364.98 498.79,-364.98 470.13,-340.49 498.79,-316.01 556.1,-316.01 584.75,-340.49"/>
<text text-anchor="middle" x="527.44" y="-343.49" font-family="Helvetica,sans-Serif" font-size="10.00">state&#45;write</text>
<text text-anchor="middle" x="527.44" y="-332.49" font-family="Helvetica,sans-Serif" font-size="10.00">(5,796 tok)</text>
</g>
<!-- script_state_read&#45;&gt;script_state_write -->
<!-- script_state_read&#45;&gt;script_state_write -->
<!-- script_state_read&#45;&gt;script_state_write -->
<!-- script_state_read&#45;&gt;script_state_write -->
<!-- script_chain_runner&#45;&gt;script_compaction_resume -->
<!-- script_chain_runner&#45;&gt;script_compaction_resume -->
<!-- script_chain_runner&#45;&gt;script_compaction_resume -->
<!-- script_chain_runner&#45;&gt;script_compaction_resume -->
<!-- script_worker_terminal_guard -->
<g id="node10" class="node">
<title>script_worker_terminal_guard</title>
<polygon fill="#ff9800" stroke="black" points="630.2,-482.49 578.82,-506.98 476.06,-506.98 424.68,-482.49 476.06,-458.01 578.82,-458.01 630.2,-482.49"/>
<text text-anchor="middle" x="527.44" y="-485.49" font-family="Helvetica,sans-Serif" font-size="10.00">worker&#45;terminal&#45;guard</text>
<text text-anchor="middle" x="527.44" y="-474.49" font-family="Helvetica,sans-Serif" font-size="10.00">(770 tok)</text>
</g>
<!-- script_chain_steps -->
<g id="node13" class="node">
<title>script_chain_steps</title>
<polygon fill="#ff9800" stroke="black" points="587.15,-553.49 557.3,-577.98 497.59,-577.98 467.73,-553.49 497.59,-529.01 557.3,-529.01 587.15,-553.49"/>
<text text-anchor="middle" x="527.44" y="-556.49" font-family="Helvetica,sans-Serif" font-size="10.00">chain&#45;steps</text>
<text text-anchor="middle" x="527.44" y="-545.49" font-family="Helvetica,sans-Serif" font-size="10.00">(9,633 tok)</text>
</g>
<!-- script_resolve_issue_num -->
<g id="node15" class="node">
<title>script_resolve_issue_num</title>
<polygon fill="#ff9800" stroke="black" points="614.67,-624.49 571.06,-648.98 483.83,-648.98 440.21,-624.49 483.83,-600.01 571.06,-600.01 614.67,-624.49"/>
<text text-anchor="middle" x="527.44" y="-627.49" font-family="Helvetica,sans-Serif" font-size="10.00">resolve&#45;issue&#45;num</text>
<text text-anchor="middle" x="527.44" y="-616.49" font-family="Helvetica,sans-Serif" font-size="10.00">(716 tok)</text>
</g>
</g>
</svg>
