<?xml version="1.0" encoding="UTF-8" standalone="no"?>
<!DOCTYPE svg PUBLIC "-//W3C//DTD SVG 1.1//EN"
 "http://www.w3.org/Graphics/SVG/1.1/DTD/svg11.dtd">
<!-- Generated by graphviz version 2.43.0 (0)
 -->
<!-- Title: Dependencies Pages: 1 -->
<svg width="730pt" height="476pt"
 viewBox="0.00 0.00 730.11 475.99" xmlns="http://www.w3.org/2000/svg" xmlns:xlink="http://www.w3.org/1999/xlink">
<g id="graph0" class="graph" transform="scale(1 1) rotate(0) translate(4 471.99)">
<title>Dependencies</title>
<polygon fill="white" stroke="transparent" points="-4,4 -4,-471.99 726.11,-471.99 726.11,4 -4,4"/>
<text text-anchor="middle" x="361.06" y="-452.79" font-family="Helvetica,sans-Serif" font-size="14.00">workflow&#45;pr&#45;fix</text>
<!-- skill_workflow_pr_fix -->
<g id="node1" class="node">
<title>skill_workflow_pr_fix</title>
<ellipse fill="#e8f5e9" stroke="black" cx="67.88" cy="-169.49" rx="67.76" ry="21.43"/>
<text text-anchor="middle" x="67.88" y="-172.49" font-family="Helvetica,sans-Serif" font-size="10.00">twl:workflow&#45;pr&#45;fix</text>
<text text-anchor="middle" x="67.88" y="-161.49" font-family="Helvetica,sans-Serif" font-size="10.00">(775 tok)</text>
</g>
<!-- cmd_post_fix_verify -->
<g id="node2" class="node">
<title>cmd_post_fix_verify</title>
<polygon fill="#bbdefb" stroke="black" points="271.76,-216.49 195.76,-216.49 195.76,-180.49 271.76,-180.49 271.76,-216.49"/>
<text text-anchor="middle" x="233.76" y="-201.49" font-family="Helvetica,sans-Serif" font-size="10.00">post&#45;fix&#45;verify</text>
<text text-anchor="middle" x="233.76" y="-190.49" font-family="Helvetica,sans-Serif" font-size="10.00">(605 tok)</text>
</g>
<!-- skill_workflow_pr_fix&#45;&gt;cmd_post_fix_verify -->
<g id="edge2" class="edge">
<title>skill_workflow_pr_fix&#45;&gt;cmd_post_fix_verify</title>
<path fill="none" stroke="black" d="M127.58,-179.88C146.56,-183.24 167.35,-186.92 185.4,-190.11"/>
<polygon fill="black" stroke="black" points="184.93,-193.59 195.39,-191.88 186.15,-186.69 184.93,-193.59"/>
</g>
<!-- cmd_warning_fix -->
<g id="node3" class="node">
<title>cmd_warning_fix</title>
<polygon fill="#e3f2fd" stroke="black" points="265.76,-158.49 201.76,-158.49 201.76,-122.49 265.76,-122.49 265.76,-158.49"/>
<text text-anchor="middle" x="233.76" y="-143.49" font-family="Helvetica,sans-Serif" font-size="10.00">warning&#45;fix</text>
<text text-anchor="middle" x="233.76" y="-132.49" font-family="Helvetica,sans-Serif" font-size="10.00">(363 tok)</text>
</g>
<!-- skill_workflow_pr_fix&#45;&gt;cmd_warning_fix -->
<g id="edge3" class="edge">
<title>skill_workflow_pr_fix&#45;&gt;cmd_warning_fix</title>
<path fill="none" stroke="black" d="M127.58,-159.11C148.76,-155.36 172.19,-151.21 191.56,-147.79"/>
<polygon fill="black" stroke="black" points="192.33,-151.2 201.57,-146.02 191.11,-144.31 192.33,-151.2"/>
</g>
<!-- cmd_fix_phase -->
<g id="node4" class="node">
<title>cmd_fix_phase</title>
<polygon fill="#bbdefb" stroke="black" points="261.76,-274.49 205.76,-274.49 205.76,-238.49 261.76,-238.49 261.76,-274.49"/>
<text text-anchor="middle" x="233.76" y="-259.49" font-family="Helvetica,sans-Serif" font-size="10.00">fix&#45;phase</text>
<text text-anchor="middle" x="233.76" y="-248.49" font-family="Helvetica,sans-Serif" font-size="10.00">(532 tok)</text>
</g>
<!-- skill_workflow_pr_fix&#45;&gt;cmd_fix_phase -->
<g id="edge1" class="edge">
<title>skill_workflow_pr_fix&#45;&gt;cmd_fix_phase</title>
<path fill="none" stroke="black" d="M103.24,-187.73C130.64,-202.28 168.92,-222.6 196.75,-237.38"/>
<polygon fill="black" stroke="black" points="195.28,-240.56 205.76,-242.16 198.57,-234.38 195.28,-240.56"/>
</g>
<!-- cmd_spec_diagnose -->
<g id="node5" class="node">
<title>cmd_spec_diagnose</title>
<polygon fill="#e3f2fd" stroke="black" points="273.76,-100.49 193.76,-100.49 193.76,-64.49 273.76,-64.49 273.76,-100.49"/>
<text text-anchor="middle" x="233.76" y="-85.49" font-family="Helvetica,sans-Serif" font-size="10.00">spec&#45;diagnose</text>
<text text-anchor="middle" x="233.76" y="-74.49" font-family="Helvetica,sans-Serif" font-size="10.00">(634 tok)</text>
</g>
<!-- skill_workflow_pr_fix&#45;&gt;cmd_spec_diagnose -->
<g id="edge4" class="edge">
<title>skill_workflow_pr_fix&#45;&gt;cmd_spec_diagnose</title>
<path fill="none" stroke="black" d="M103.24,-151.26C128.45,-137.87 162.86,-119.6 189.88,-105.26"/>
<polygon fill="black" stroke="black" points="191.54,-108.34 198.74,-100.56 188.26,-102.16 191.54,-108.34"/>
</g>
<!-- cmd_post_fix_verify&#45;&gt;cmd_warning_fix -->
<!-- agent_worker_codex_reviewer -->
<g id="node6" class="node">
<title>agent_worker_codex_reviewer</title>
<ellipse fill="#ede7f6" stroke="black" cx="418.74" cy="-166.49" rx="81.13" ry="21.43"/>
<text text-anchor="middle" x="418.74" y="-169.49" font-family="Helvetica,sans-Serif" font-size="10.00">worker&#45;codex&#45;reviewer</text>
<text text-anchor="middle" x="418.74" y="-158.49" font-family="Helvetica,sans-Serif" font-size="10.00">(1,421 tok)</text>
</g>
<!-- cmd_post_fix_verify&#45;&gt;agent_worker_codex_reviewer -->
<g id="edge7" class="edge">
<title>cmd_post_fix_verify&#45;&gt;agent_worker_codex_reviewer</title>
<path fill="none" stroke="black" stroke-dasharray="5,2" d="M271.79,-192.02C291.62,-188.55 316.81,-184.15 340.67,-179.97"/>
<polygon fill="black" stroke="black" points="341.54,-183.37 350.79,-178.2 340.33,-176.48 341.54,-183.37"/>
</g>
<!-- agent_worker_code_reviewer -->
<g id="node7" class="node">
<title>agent_worker_code_reviewer</title>
<ellipse fill="#ede7f6" stroke="black" cx="418.74" cy="-294.49" rx="77.56" ry="21.43"/>
<text text-anchor="middle" x="418.74" y="-297.49" font-family="Helvetica,sans-Serif" font-size="10.00">worker&#45;code&#45;reviewer</text>
<text text-anchor="middle" x="418.74" y="-286.49" font-family="Helvetica,sans-Serif" font-size="10.00">(964 tok)</text>
</g>
<!-- cmd_post_fix_verify&#45;&gt;agent_worker_code_reviewer -->
<g id="edge5" class="edge">
<title>cmd_post_fix_verify&#45;&gt;agent_worker_code_reviewer</title>
<path fill="none" stroke="black" stroke-dasharray="5,2" d="M258.95,-216.69C278.02,-230.48 305.68,-249.25 331.76,-262.49 340.3,-266.83 349.57,-270.89 358.76,-274.57"/>
<polygon fill="black" stroke="black" points="357.68,-277.91 368.27,-278.27 360.21,-271.38 357.68,-277.91"/>
</g>
<!-- agent_worker_security_reviewer -->
<g id="node8" class="node">
<title>agent_worker_security_reviewer</title>
<ellipse fill="#ede7f6" stroke="black" cx="418.74" cy="-230.49" rx="86.95" ry="21.43"/>
<text text-anchor="middle" x="418.74" y="-233.49" font-family="Helvetica,sans-Serif" font-size="10.00">worker&#45;security&#45;reviewer</text>
<text text-anchor="middle" x="418.74" y="-222.49" font-family="Helvetica,sans-Serif" font-size="10.00">(866 tok)</text>
</g>
<!-- cmd_post_fix_verify&#45;&gt;agent_worker_security_reviewer -->
<g id="edge6" class="edge">
<title>cmd_post_fix_verify&#45;&gt;agent_worker_security_reviewer</title>
<path fill="none" stroke="black" stroke-dasharray="5,2" d="M271.79,-204.97C290.71,-208.28 314.52,-212.44 337.38,-216.44"/>
<polygon fill="black" stroke="black" points="337,-219.93 347.45,-218.2 338.21,-213.03 337,-219.93"/>
</g>
<!-- script_autopilot_parser -->
<g id="node10" class="node">
<title>script_autopilot_parser</title>
<polygon fill="#ff9800" stroke="black" points="710.45,-95.49 676.68,-119.98 609.14,-119.98 575.37,-95.49 609.14,-71.01 676.68,-71.01 710.45,-95.49"/>
<text text-anchor="middle" x="642.91" y="-98.49" font-family="Helvetica,sans-Serif" font-size="10.00">autopilot&#45;parser</text>
<text text-anchor="middle" x="642.91" y="-87.49" font-family="Helvetica,sans-Serif" font-size="10.00">(2,496 tok)</text>
</g>
<!-- cmd_post_fix_verify&#45;&gt;script_autopilot_parser -->
<g id="edge9" class="edge">
<title>cmd_post_fix_verify&#45;&gt;script_autopilot_parser</title>
<path fill="none" stroke="black" d="M259.78,-180.42C264.49,-176.87 269.32,-173.13 273.76,-169.49 300.57,-147.59 299.89,-131 331.76,-117.49 410.08,-84.3 509.49,-83.64 574.35,-88.03"/>
<polygon fill="black" stroke="black" points="574.23,-91.53 584.46,-88.78 574.74,-84.55 574.23,-91.53"/>
</g>
<!-- script_pr_review_manifest -->
<g id="node12" class="node">
<title>script_pr_review_manifest</title>
<polygon fill="#ff9800" stroke="black" points="722.31,-166.49 682.61,-190.98 603.21,-190.98 563.51,-166.49 603.21,-142.01 682.61,-142.01 722.31,-166.49"/>
<text text-anchor="middle" x="642.91" y="-169.49" font-family="Helvetica,sans-Serif" font-size="10.00">pr&#45;review&#45;manifest</text>
<text text-anchor="middle" x="642.91" y="-158.49" font-family="Helvetica,sans-Serif" font-size="10.00">(1,232 tok)</text>
</g>
<!-- cmd_post_fix_verify&#45;&gt;script_pr_review_manifest -->
<g id="edge8" class="edge">
<title>cmd_post_fix_verify&#45;&gt;script_pr_review_manifest</title>
<path fill="none" stroke="black" d="M260.75,-180.23C286.72,-162.16 323.89,-136.86 331.76,-134.49 415.8,-109.27 517.74,-128.81 581.24,-146.55"/>
<polygon fill="black" stroke="black" points="580.51,-149.98 591.09,-149.37 582.44,-143.25 580.51,-149.98"/>
</g>
<!-- cmd_warning_fix&#45;&gt;cmd_spec_diagnose -->
<!-- cmd_fix_phase&#45;&gt;cmd_post_fix_verify -->
<!-- script_checkpoint_read -->
<g id="node13" class="node">
<title>script_checkpoint_read</title>
<polygon fill="#ff9800" stroke="black" points="713.35,-349.49 678.13,-373.98 607.69,-373.98 572.47,-349.49 607.69,-325.01 678.13,-325.01 713.35,-349.49"/>
<text text-anchor="middle" x="642.91" y="-352.49" font-family="Helvetica,sans-Serif" font-size="10.00">checkpoint&#45;read</text>
<text text-anchor="middle" x="642.91" y="-341.49" font-family="Helvetica,sans-Serif" font-size="10.00">(2,418 tok)</text>
</g>
<!-- cmd_fix_phase&#45;&gt;script_checkpoint_read -->
<g id="edge10" class="edge">
<title>cmd_fix_phase&#45;&gt;script_checkpoint_read</title>
<path fill="none" stroke="black" d="M253.32,-274.79C271.59,-291.53 301.13,-315.33 331.76,-326.49 409.53,-354.84 505.38,-357.49 569.76,-355.05"/>
<polygon fill="black" stroke="black" points="569.98,-358.54 579.82,-354.61 569.68,-351.55 569.98,-358.54"/>
</g>
<!-- agent_worker_codex_reviewer&#45;&gt;script_pr_review_manifest -->
<!-- agent_worker_code_reviewer&#45;&gt;agent_worker_security_reviewer -->
<!-- agent_worker_code_reviewer&#45;&gt;agent_worker_security_reviewer -->
<!-- agent_worker_code_reviewer&#45;&gt;agent_worker_security_reviewer -->
<!-- agent_worker_security_reviewer&#45;&gt;agent_worker_codex_reviewer -->
<!-- script_tech_stack_detect -->
<g id="node9" class="node">
<title>script_tech_stack_detect</title>
<polygon fill="#ff9800" stroke="black" points="718.15,-24.49 680.53,-48.98 605.3,-48.98 567.68,-24.49 605.3,-0.01 680.53,-0.01 718.15,-24.49"/>
<text text-anchor="middle" x="642.91" y="-27.49" font-family="Helvetica,sans-Serif" font-size="10.00">tech&#45;stack&#45;detect</text>
<text text-anchor="middle" x="642.91" y="-16.49" font-family="Helvetica,sans-Serif" font-size="10.00">(539 tok)</text>
</g>
<!-- script_autopilot_parser&#45;&gt;script_tech_stack_detect -->
<!-- script_autopilot_parser&#45;&gt;script_tech_stack_detect -->
<!-- script_resolve_issue_num -->
<g id="node11" class="node">
<title>script_resolve_issue_num</title>
<polygon fill="#ff9800" stroke="black" points="721.18,-420.49 682.05,-444.98 603.78,-444.98 564.65,-420.49 603.78,-396.01 682.05,-396.01 721.18,-420.49"/>
<text text-anchor="middle" x="642.91" y="-423.49" font-family="Helvetica,sans-Serif" font-size="10.00">resolve&#45;issue&#45;num</text>
<text text-anchor="middle" x="642.91" y="-412.49" font-family="Helvetica,sans-Serif" font-size="10.00">(716 tok)</text>
</g>
<!-- script_pr_review_manifest&#45;&gt;script_autopilot_parser -->
</g>
</svg>
