<?xml version="1.0" encoding="UTF-8" standalone="no"?>
<!DOCTYPE svg PUBLIC "-//W3C//DTD SVG 1.1//EN"
 "http://www.w3.org/Graphics/SVG/1.1/DTD/svg11.dtd">
<!-- Generated by graphviz version 2.43.0 (0)
 -->
<!-- Title: Dependencies Pages: 1 -->
<svg width="571pt" height="247pt"
 viewBox="0.00 0.00 571.12 247.49" xmlns="http://www.w3.org/2000/svg" xmlns:xlink="http://www.w3.org/1999/xlink">
<g id="graph0" class="graph" transform="scale(1 1) rotate(0) translate(4 243.49)">
<title>Dependencies</title>
<polygon fill="white" stroke="transparent" points="-4,4 -4,-243.49 567.12,-243.49 567.12,4 -4,4"/>
<text text-anchor="middle" x="281.56" y="-224.29" font-family="Helvetica,sans-Serif" font-size="14.00">workflow&#45;self&#45;improve</text>
<!-- skill_workflow_self_improve -->
<g id="node1" class="node">
<title>skill_workflow_self_improve</title>
<ellipse fill="#e8f5e9" stroke="black" cx="101.82" cy="-111.49" rx="101.65" ry="21.43"/>
<text text-anchor="middle" x="101.82" y="-114.49" font-family="Helvetica,sans-Serif" font-size="10.00">twl:workflow&#45;self&#45;improve</text>
<text text-anchor="middle" x="101.82" y="-103.49" font-family="Helvetica,sans-Serif" font-size="10.00">(878 tok)</text>
</g>
<!-- cmd_self_improve_collect -->
<g id="node2" class="node">
<title>cmd_self_improve_collect</title>
<polygon fill="#e3f2fd" stroke="black" points="379.15,-216.49 265.15,-216.49 265.15,-180.49 379.15,-180.49 379.15,-216.49"/>
<text text-anchor="middle" x="322.15" y="-201.49" font-family="Helvetica,sans-Serif" font-size="10.00">self&#45;improve&#45;collect</text>
<text text-anchor="middle" x="322.15" y="-190.49" font-family="Helvetica,sans-Serif" font-size="10.00">(929 tok)</text>
</g>
<!-- skill_workflow_self_improve&#45;&gt;cmd_self_improve_collect -->
<g id="edge1" class="edge">
<title>skill_workflow_self_improve&#45;&gt;cmd_self_improve_collect</title>
<path fill="none" stroke="black" d="M149.93,-130.27C184.1,-143.88 230.43,-162.35 266.28,-176.63"/>
<polygon fill="black" stroke="black" points="265.04,-179.9 275.62,-180.35 267.63,-173.4 265.04,-179.9"/>
</g>
<!-- cmd_self_improve_propose -->
<g id="node3" class="node">
<title>cmd_self_improve_propose</title>
<polygon fill="#e3f2fd" stroke="black" points="382.65,-158.49 261.65,-158.49 261.65,-122.49 382.65,-122.49 382.65,-158.49"/>
<text text-anchor="middle" x="322.15" y="-143.49" font-family="Helvetica,sans-Serif" font-size="10.00">self&#45;improve&#45;propose</text>
<text text-anchor="middle" x="322.15" y="-132.49" font-family="Helvetica,sans-Serif" font-size="10.00">(1,324 tok)</text>
</g>
<!-- skill_workflow_self_improve&#45;&gt;cmd_self_improve_propose -->
<g id="edge2" class="edge">
<title>skill_workflow_self_improve&#45;&gt;cmd_self_improve_propose</title>
<path fill="none" stroke="black" d="M188.17,-122.83C209.14,-125.62 231.35,-128.57 251.49,-131.24"/>
<polygon fill="black" stroke="black" points="251.12,-134.72 261.5,-132.57 252.05,-127.79 251.12,-134.72"/>
</g>
<!-- cmd_self_improve_close -->
<g id="node4" class="node">
<title>cmd_self_improve_close</title>
<polygon fill="#e3f2fd" stroke="black" points="375.65,-100.49 268.65,-100.49 268.65,-64.49 375.65,-64.49 375.65,-100.49"/>
<text text-anchor="middle" x="322.15" y="-85.49" font-family="Helvetica,sans-Serif" font-size="10.00">self&#45;improve&#45;close</text>
<text text-anchor="middle" x="322.15" y="-74.49" font-family="Helvetica,sans-Serif" font-size="10.00">(707 tok)</text>
</g>
<!-- skill_workflow_self_improve&#45;&gt;cmd_self_improve_close -->
<g id="edge3" class="edge">
<title>skill_workflow_self_improve&#45;&gt;cmd_self_improve_close</title>
<path fill="none" stroke="black" d="M188.17,-100.16C211.61,-97.05 236.58,-93.73 258.49,-90.82"/>
<polygon fill="black" stroke="black" points="259.19,-94.26 268.65,-89.47 258.27,-87.32 259.19,-94.26"/>
</g>
<!-- cmd_ecc_monitor -->
<g id="node5" class="node">
<title>cmd_ecc_monitor</title>
<polygon fill="#e3f2fd" stroke="black" points="359.65,-42.49 284.65,-42.49 284.65,-6.49 359.65,-6.49 359.65,-42.49"/>
<text text-anchor="middle" x="322.15" y="-27.49" font-family="Helvetica,sans-Serif" font-size="10.00">ecc&#45;monitor</text>
<text text-anchor="middle" x="322.15" y="-16.49" font-family="Helvetica,sans-Serif" font-size="10.00">(1,126 tok)</text>
</g>
<!-- skill_workflow_self_improve&#45;&gt;cmd_ecc_monitor -->
<g id="edge4" class="edge">
<title>skill_workflow_self_improve&#45;&gt;cmd_ecc_monitor</title>
<path fill="none" stroke="black" d="M149.93,-92.72C186.98,-77.96 238.32,-57.5 275.1,-42.85"/>
<polygon fill="black" stroke="black" points="276.59,-46.02 284.59,-39.06 274,-39.51 276.59,-46.02"/>
</g>
<!-- cmd_self_improve_collect&#45;&gt;cmd_self_improve_propose -->
<!-- cmd_self_improve_propose&#45;&gt;cmd_self_improve_close -->
<!-- cmd_self_improve_close&#45;&gt;cmd_ecc_monitor -->
<!-- script_ecc_monitor -->
<g id="node6" class="node">
<title>script_ecc_monitor</title>
<polygon fill="#ff9800" stroke="black" points="563.36,-24.49 532.62,-48.98 471.15,-48.98 440.41,-24.49 471.15,-0.01 532.62,-0.01 563.36,-24.49"/>
<text text-anchor="middle" x="501.88" y="-27.49" font-family="Helvetica,sans-Serif" font-size="10.00">ecc&#45;monitor</text>
<text text-anchor="middle" x="501.88" y="-16.49" font-family="Helvetica,sans-Serif" font-size="10.00">(1,137 tok)</text>
</g>
<!-- cmd_ecc_monitor&#45;&gt;script_ecc_monitor -->
<g id="edge5" class="edge">
<title>cmd_ecc_monitor&#45;&gt;script_ecc_monitor</title>
<path fill="none" stroke="black" d="M359.97,-24.49C380.26,-24.49 406.13,-24.49 430.15,-24.49"/>
<polygon fill="black" stroke="black" points="430.31,-27.99 440.31,-24.49 430.31,-20.99 430.31,-27.99"/>
</g>
</g>
</svg>
