<?xml version="1.0" encoding="UTF-8" standalone="no"?>
<!DOCTYPE svg PUBLIC "-//W3C//DTD SVG 1.1//EN"
 "http://www.w3.org/Graphics/SVG/1.1/DTD/svg11.dtd">
<!-- Generated by graphviz version 2.43.0 (0)
 -->
<!-- Title: Dependencies Pages: 1 -->
<svg width="874pt" height="418pt"
 viewBox="0.00 0.00 874.08 417.93" xmlns="http://www.w3.org/2000/svg" xmlns:xlink="http://www.w3.org/1999/xlink">
<g id="graph0" class="graph" transform="scale(1 1) rotate(0) translate(4 413.93)">
<title>Dependencies</title>
<polygon fill="white" stroke="transparent" points="-4,4 -4,-413.93 870.08,-413.93 870.08,4 -4,4"/>
<text text-anchor="middle" x="433.04" y="-394.73" font-family="Helvetica,sans-Serif" font-size="14.00">workflow&#45;plugin&#45;diagnose</text>
<!-- skill_workflow_plugin_diagnose -->
<g id="node1" class="node">
<title>skill_workflow_plugin_diagnose</title>
<ellipse fill="#e8f5e9" stroke="black" cx="113.84" cy="-223.93" rx="113.69" ry="21.43"/>
<text text-anchor="middle" x="113.84" y="-226.93" font-family="Helvetica,sans-Serif" font-size="10.00">twl:workflow&#45;plugin&#45;diagnose</text>
<text text-anchor="middle" x="113.84" y="-215.93" font-family="Helvetica,sans-Serif" font-size="10.00">(693 tok)</text>
</g>
<!-- cmd_plugin_migrate_analyze -->
<g id="node4" class="node">
<title>cmd_plugin_migrate_analyze</title>
<polygon fill="#e3f2fd" stroke="black" points="416.69,-386.93 285.69,-386.93 285.69,-350.93 416.69,-350.93 416.69,-386.93"/>
<text text-anchor="middle" x="351.19" y="-371.93" font-family="Helvetica,sans-Serif" font-size="10.00">plugin&#45;migrate&#45;analyze</text>
<text text-anchor="middle" x="351.19" y="-360.93" font-family="Helvetica,sans-Serif" font-size="10.00">(476 tok)</text>
</g>
<!-- skill_workflow_plugin_diagnose&#45;&gt;cmd_plugin_migrate_analyze -->
<g id="edge1" class="edge">
<title>skill_workflow_plugin_diagnose&#45;&gt;cmd_plugin_migrate_analyze</title>
<path fill="none" stroke="black" d="M142.01,-244.56C174.94,-269.05 232.64,-310.29 285.69,-339.93 289.65,-342.14 293.82,-344.32 298.05,-346.43"/>
<polygon fill="black" stroke="black" points="296.82,-349.73 307.34,-350.93 299.86,-343.42 296.82,-349.73"/>
</g>
<!-- cmd_plugin_diagnose -->
<g id="node5" class="node">
<title>cmd_plugin_diagnose</title>
<polygon fill="#e3f2fd" stroke="black" points="398.69,-328.93 303.69,-328.93 303.69,-292.93 398.69,-292.93 398.69,-328.93"/>
<text text-anchor="middle" x="351.19" y="-313.93" font-family="Helvetica,sans-Serif" font-size="10.00">plugin&#45;diagnose</text>
<text text-anchor="middle" x="351.19" y="-302.93" font-family="Helvetica,sans-Serif" font-size="10.00">(944 tok)</text>
</g>
<!-- skill_workflow_plugin_diagnose&#45;&gt;cmd_plugin_diagnose -->
<g id="edge2" class="edge">
<title>skill_workflow_plugin_diagnose&#45;&gt;cmd_plugin_diagnose</title>
<path fill="none" stroke="black" d="M165.91,-242.81C203.67,-256.77 255.08,-275.77 294,-290.16"/>
<polygon fill="black" stroke="black" points="293.02,-293.53 303.62,-293.71 295.45,-286.96 293.02,-293.53"/>
</g>
<!-- cmd_plugin_fix -->
<g id="node6" class="node">
<title>cmd_plugin_fix</title>
<polygon fill="#e3f2fd" stroke="black" points="386.19,-212.93 316.19,-212.93 316.19,-176.93 386.19,-176.93 386.19,-212.93"/>
<text text-anchor="middle" x="351.19" y="-197.93" font-family="Helvetica,sans-Serif" font-size="10.00">plugin&#45;fix</text>
<text text-anchor="middle" x="351.19" y="-186.93" font-family="Helvetica,sans-Serif" font-size="10.00">(1,092 tok)</text>
</g>
<!-- skill_workflow_plugin_diagnose&#45;&gt;cmd_plugin_fix -->
<g id="edge4" class="edge">
<title>skill_workflow_plugin_diagnose&#45;&gt;cmd_plugin_fix</title>
<path fill="none" stroke="black" d="M209.21,-212.3C242.66,-208.18 278.73,-203.73 306.01,-200.37"/>
<polygon fill="black" stroke="black" points="306.52,-203.84 316.01,-199.14 305.66,-196.89 306.52,-203.84"/>
</g>
<!-- cmd_plugin_verify -->
<g id="node7" class="node">
<title>cmd_plugin_verify</title>
<polygon fill="#e3f2fd" stroke="black" points="389.69,-154.93 312.69,-154.93 312.69,-118.93 389.69,-118.93 389.69,-154.93"/>
<text text-anchor="middle" x="351.19" y="-139.93" font-family="Helvetica,sans-Serif" font-size="10.00">plugin&#45;verify</text>
<text text-anchor="middle" x="351.19" y="-128.93" font-family="Helvetica,sans-Serif" font-size="10.00">(536 tok)</text>
</g>
<!-- skill_workflow_plugin_diagnose&#45;&gt;cmd_plugin_verify -->
<g id="edge5" class="edge">
<title>skill_workflow_plugin_diagnose&#45;&gt;cmd_plugin_verify</title>
<path fill="none" stroke="black" d="M165.91,-205.05C206.62,-190 263.2,-169.08 302.89,-154.41"/>
<polygon fill="black" stroke="black" points="304.18,-157.67 312.35,-150.92 301.75,-151.1 304.18,-157.67"/>
</g>
<!-- cmd_plugin_phase_diagnose -->
<g id="node8" class="node">
<title>cmd_plugin_phase_diagnose</title>
<polygon fill="#bbdefb" stroke="black" points="415.19,-270.93 287.19,-270.93 287.19,-234.93 415.19,-234.93 415.19,-270.93"/>
<text text-anchor="middle" x="351.19" y="-255.93" font-family="Helvetica,sans-Serif" font-size="10.00">plugin&#45;phase&#45;diagnose</text>
<text text-anchor="middle" x="351.19" y="-244.93" font-family="Helvetica,sans-Serif" font-size="10.00">(652 tok)</text>
</g>
<!-- skill_workflow_plugin_diagnose&#45;&gt;cmd_plugin_phase_diagnose -->
<g id="edge3" class="edge">
<title>skill_workflow_plugin_diagnose&#45;&gt;cmd_plugin_phase_diagnose</title>
<path fill="none" stroke="black" d="M209.21,-235.56C231.73,-238.33 255.44,-241.25 276.85,-243.89"/>
<polygon fill="black" stroke="black" points="276.49,-247.37 286.84,-245.12 277.34,-240.43 276.49,-247.37"/>
</g>
<!-- cmd_plugin_phase_verify -->
<g id="node9" class="node">
<title>cmd_plugin_phase_verify</title>
<polygon fill="#bbdefb" stroke="black" points="406.19,-96.93 296.19,-96.93 296.19,-60.93 406.19,-60.93 406.19,-96.93"/>
<text text-anchor="middle" x="351.19" y="-81.93" font-family="Helvetica,sans-Serif" font-size="10.00">plugin&#45;phase&#45;verify</text>
<text text-anchor="middle" x="351.19" y="-70.93" font-family="Helvetica,sans-Serif" font-size="10.00">(634 tok)</text>
</g>
<!-- skill_workflow_plugin_diagnose&#45;&gt;cmd_plugin_phase_verify -->
<g id="edge6" class="edge">
<title>skill_workflow_plugin_diagnose&#45;&gt;cmd_plugin_phase_verify</title>
<path fill="none" stroke="black" d="M142.01,-203.3C174.94,-178.81 232.64,-137.57 285.69,-107.93 289.65,-105.71 293.82,-103.53 298.05,-101.42"/>
<polygon fill="black" stroke="black" points="299.86,-104.43 307.34,-96.93 296.82,-98.13 299.86,-104.43"/>
</g>
<!-- skill_ref_specialist_output_schema -->
<g id="node2" class="node">
<title>skill_ref_specialist_output_schema</title>
<polygon fill="#e1f5fe" stroke="black" points="860.08,-147.93 691.08,-147.93 691.08,-111.93 866.08,-111.93 866.08,-141.93 860.08,-147.93"/>
<polyline fill="none" stroke="black" points="860.08,-147.93 860.08,-141.93 "/>
<polyline fill="none" stroke="black" points="866.08,-141.93 860.08,-141.93 "/>
<text text-anchor="middle" x="778.58" y="-132.93" font-family="Helvetica,sans-Serif" font-size="10.00">twl:ref&#45;specialist&#45;output&#45;schema</text>
<text text-anchor="middle" x="778.58" y="-121.93" font-family="Helvetica,sans-Serif" font-size="10.00">(1,283 tok)</text>
</g>
<!-- skill_ref_architecture -->
<g id="node3" class="node">
<title>skill_ref_architecture</title>
<polygon fill="#e1f5fe" stroke="black" points="827.58,-89.93 723.58,-89.93 723.58,-53.93 833.58,-53.93 833.58,-83.93 827.58,-89.93"/>
<polyline fill="none" stroke="black" points="827.58,-89.93 827.58,-83.93 "/>
<polyline fill="none" stroke="black" points="833.58,-83.93 827.58,-83.93 "/>
<text text-anchor="middle" x="778.58" y="-74.93" font-family="Helvetica,sans-Serif" font-size="10.00">twl:ref&#45;architecture</text>
<text text-anchor="middle" x="778.58" y="-63.93" font-family="Helvetica,sans-Serif" font-size="10.00">(2,234 tok)</text>
</g>
<!-- skill_ref_specialist_output_schema&#45;&gt;skill_ref_architecture -->
<!-- skill_ref_specialist_output_schema&#45;&gt;skill_ref_architecture -->
<!-- cmd_plugin_migrate_analyze&#45;&gt;cmd_plugin_diagnose -->
<!-- cmd_plugin_diagnose&#45;&gt;cmd_plugin_phase_diagnose -->
<!-- cmd_plugin_fix&#45;&gt;cmd_plugin_verify -->
<!-- cmd_plugin_verify&#45;&gt;cmd_plugin_phase_verify -->
<!-- cmd_plugin_phase_diagnose&#45;&gt;skill_ref_specialist_output_schema -->
<g id="edge10" class="edge">
<title>cmd_plugin_phase_diagnose&#45;&gt;skill_ref_specialist_output_schema</title>
<path fill="none" stroke="black" d="M392.24,-271.04C448.52,-293.7 553.07,-325.48 633.08,-289.93 694.41,-262.68 740.72,-195.11 762.96,-157.07"/>
<polygon fill="black" stroke="black" points="766.17,-158.5 768.09,-148.08 760.09,-155.03 766.17,-158.5"/>
</g>
<!-- cmd_plugin_phase_diagnose&#45;&gt;skill_ref_architecture -->
<g id="edge11" class="edge">
<title>cmd_plugin_phase_diagnose&#45;&gt;skill_ref_architecture</title>
<path fill="none" stroke="black" d="M402.45,-234.82C407.62,-231.69 412.5,-228.08 416.69,-223.93 460.47,-180.53 424.25,-133.37 474.69,-97.93 544.58,-48.82 647.16,-51.41 713.16,-59.96"/>
<polygon fill="black" stroke="black" points="713.04,-63.48 723.43,-61.38 714,-56.54 713.04,-63.48"/>
</g>
<!-- cmd_plugin_phase_diagnose&#45;&gt;cmd_plugin_fix -->
<!-- agent_worker_structure -->
<g id="node10" class="node">
<title>agent_worker_structure</title>
<ellipse fill="#ede7f6" stroke="black" cx="553.88" cy="-257.93" rx="68.68" ry="21.43"/>
<text text-anchor="middle" x="553.88" y="-260.93" font-family="Helvetica,sans-Serif" font-size="10.00">worker&#45;structure</text>
<text text-anchor="middle" x="553.88" y="-249.93" font-family="Helvetica,sans-Serif" font-size="10.00">(1,244 tok)</text>
</g>
<!-- cmd_plugin_phase_diagnose&#45;&gt;agent_worker_structure -->
<g id="edge7" class="edge">
<title>cmd_plugin_phase_diagnose&#45;&gt;agent_worker_structure</title>
<path fill="none" stroke="black" stroke-dasharray="5,2" d="M415.41,-254.5C434.4,-254.98 455.44,-255.5 475.24,-255.99"/>
<polygon fill="black" stroke="black" points="475.38,-259.5 485.46,-256.25 475.55,-252.5 475.38,-259.5"/>
</g>
<!-- agent_worker_principles -->
<g id="node11" class="node">
<title>agent_worker_principles</title>
<ellipse fill="#ede7f6" stroke="black" cx="553.88" cy="-193.93" rx="71.34" ry="21.43"/>
<text text-anchor="middle" x="553.88" y="-196.93" font-family="Helvetica,sans-Serif" font-size="10.00">worker&#45;principles</text>
<text text-anchor="middle" x="553.88" y="-185.93" font-family="Helvetica,sans-Serif" font-size="10.00">(1,154 tok)</text>
</g>
<!-- cmd_plugin_phase_diagnose&#45;&gt;agent_worker_principles -->
<g id="edge8" class="edge">
<title>cmd_plugin_phase_diagnose&#45;&gt;agent_worker_principles</title>
<path fill="none" stroke="black" stroke-dasharray="5,2" d="M413.49,-234.91C438.63,-227.52 467.64,-218.99 492.66,-211.63"/>
<polygon fill="black" stroke="black" points="493.79,-214.95 502.4,-208.77 491.82,-208.23 493.79,-214.95"/>
</g>
<!-- agent_worker_architecture -->
<g id="node12" class="node">
<title>agent_worker_architecture</title>
<ellipse fill="#ede7f6" stroke="black" cx="553.88" cy="-129.93" rx="79.39" ry="21.43"/>
<text text-anchor="middle" x="553.88" y="-132.93" font-family="Helvetica,sans-Serif" font-size="10.00">worker&#45;architecture</text>
<text text-anchor="middle" x="553.88" y="-121.93" font-family="Helvetica,sans-Serif" font-size="10.00">(1,695 tok)</text>
</g>
<!-- cmd_plugin_phase_diagnose&#45;&gt;agent_worker_architecture -->
<g id="edge9" class="edge">
<title>cmd_plugin_phase_diagnose&#45;&gt;agent_worker_architecture</title>
<path fill="none" stroke="black" stroke-dasharray="5,2" d="M398.54,-234.81C404.86,-231.56 411.1,-227.93 416.69,-223.93 447.38,-201.98 443.62,-183.35 474.69,-161.93 480.67,-157.81 487.26,-154.08 494,-150.76"/>
<polygon fill="black" stroke="black" points="495.64,-153.85 503.24,-146.47 492.7,-147.5 495.64,-153.85"/>
</g>
<!-- cmd_plugin_phase_verify&#45;&gt;skill_ref_specialist_output_schema -->
<g id="edge15" class="edge">
<title>cmd_plugin_phase_verify&#45;&gt;skill_ref_specialist_output_schema</title>
<path fill="none" stroke="black" d="M406.29,-80.18C463.04,-82.05 554.7,-86.66 633.08,-97.93 653.73,-100.9 675.83,-105.2 696.37,-109.7"/>
<polygon fill="black" stroke="black" points="695.79,-113.15 706.31,-111.91 697.31,-106.32 695.79,-113.15"/>
</g>
<!-- cmd_plugin_phase_verify&#45;&gt;skill_ref_architecture -->
<g id="edge16" class="edge">
<title>cmd_plugin_phase_verify&#45;&gt;skill_ref_architecture</title>
<path fill="none" stroke="black" d="M376.44,-60.85C400.1,-44.42 437.82,-21.35 474.69,-11.93 542.89,5.51 564.04,1.84 633.08,-11.93 669.1,-19.11 707.38,-35.44 735.49,-49.26"/>
<polygon fill="black" stroke="black" points="734.1,-52.48 744.61,-53.83 737.24,-46.22 734.1,-52.48"/>
</g>
<!-- cmd_plugin_phase_verify&#45;&gt;agent_worker_structure -->
<g id="edge12" class="edge">
<title>cmd_plugin_phase_verify&#45;&gt;agent_worker_structure</title>
<path fill="none" stroke="black" stroke-dasharray="5,2" d="M402.02,-96.95C407.33,-100.11 412.36,-103.75 416.69,-107.93 458.71,-148.53 431.98,-186.04 474.69,-225.93 480.14,-231.02 486.52,-235.35 493.23,-239.03"/>
<polygon fill="black" stroke="black" points="492.03,-242.34 502.54,-243.64 495.13,-236.06 492.03,-242.34"/>
</g>
<!-- cmd_plugin_phase_verify&#45;&gt;agent_worker_principles -->
<g id="edge13" class="edge">
<title>cmd_plugin_phase_verify&#45;&gt;agent_worker_principles</title>
<path fill="none" stroke="black" stroke-dasharray="5,2" d="M397.61,-97.07C404.2,-100.35 410.76,-103.99 416.69,-107.93 446.03,-127.41 445.02,-142.95 474.69,-161.93 481.54,-166.31 489.09,-170.3 496.72,-173.85"/>
<polygon fill="black" stroke="black" points="495.46,-177.12 506.02,-177.97 498.3,-170.72 495.46,-177.12"/>
</g>
<!-- cmd_plugin_phase_verify&#45;&gt;agent_worker_architecture -->
<g id="edge14" class="edge">
<title>cmd_plugin_phase_verify&#45;&gt;agent_worker_architecture</title>
<path fill="none" stroke="black" stroke-dasharray="5,2" d="M406.24,-92.66C430.84,-98.91 460.2,-106.38 486.17,-112.97"/>
<polygon fill="black" stroke="black" points="485.38,-116.39 495.93,-115.46 487.1,-109.6 485.38,-116.39"/>
</g>
<!-- agent_worker_structure&#45;&gt;skill_ref_specialist_output_schema -->
<g id="edge17" class="edge">
<title>agent_worker_structure&#45;&gt;skill_ref_specialist_output_schema</title>
<path fill="none" stroke="black" stroke-dasharray="1,5" d="M598.61,-241.82C610.03,-237.13 622.19,-231.7 633.08,-225.93 673.48,-204.52 716.77,-174.74 745.32,-154.05"/>
<polygon fill="black" stroke="black" points="747.68,-156.67 753.69,-147.94 743.55,-151.01 747.68,-156.67"/>
</g>
<!-- agent_worker_structure&#45;&gt;agent_worker_principles -->
<!-- agent_worker_structure&#45;&gt;agent_worker_principles -->
<!-- agent_worker_structure&#45;&gt;agent_worker_principles -->
<!-- agent_worker_structure&#45;&gt;agent_worker_principles -->
<!-- agent_worker_principles&#45;&gt;skill_ref_specialist_output_schema -->
<g id="edge18" class="edge">
<title>agent_worker_principles&#45;&gt;skill_ref_specialist_output_schema</title>
<path fill="none" stroke="black" stroke-dasharray="1,5" d="M605.7,-179.33C635.01,-170.9 672.37,-160.16 704.77,-150.85"/>
<polygon fill="black" stroke="black" points="706.01,-154.14 714.65,-148.01 704.07,-147.41 706.01,-154.14"/>
</g>
<!-- agent_worker_principles&#45;&gt;agent_worker_architecture -->
<!-- agent_worker_principles&#45;&gt;agent_worker_architecture -->
<!-- agent_worker_architecture&#45;&gt;skill_ref_specialist_output_schema -->
<g id="edge19" class="edge">
<title>agent_worker_architecture&#45;&gt;skill_ref_specialist_output_schema</title>
<path fill="none" stroke="black" stroke-dasharray="1,5" d="M611.66,-115.33C632.74,-113.73 657.3,-113.14 680.95,-113.56"/>
<polygon fill="black" stroke="black" points="680.94,-117.06 691.02,-113.8 681.1,-110.06 680.94,-117.06"/>
</g>
<!-- agent_worker_architecture&#45;&gt;skill_ref_specialist_output_schema -->
<!-- agent_worker_architecture&#45;&gt;skill_ref_specialist_output_schema -->
<!-- agent_worker_architecture&#45;&gt;skill_ref_architecture -->
<g id="edge20" class="edge">
<title>agent_worker_architecture&#45;&gt;skill_ref_architecture</title>
<path fill="none" stroke="black" stroke-dasharray="1,5" d="M611.37,-115.22C642.55,-107.1 681.38,-96.98 713.67,-88.57"/>
<polygon fill="black" stroke="black" points="714.67,-91.93 723.46,-86.02 712.9,-85.16 714.67,-91.93"/>
</g>
</g>
</svg>
