<?xml version="1.0" encoding="UTF-8" standalone="no"?>
<!DOCTYPE svg PUBLIC "-//W3C//DTD SVG 1.1//EN"
 "http://www.w3.org/Graphics/SVG/1.1/DTD/svg11.dtd">
<!-- Generated by graphviz version 2.43.0 (0)
 -->
<!-- Title: Dependencies Pages: 1 -->
<svg width="1048pt" height="2049pt"
 viewBox="0.00 0.00 1047.96 2048.99" xmlns="http://www.w3.org/2000/svg" xmlns:xlink="http://www.w3.org/1999/xlink">
<g id="graph0" class="graph" transform="scale(1 1) rotate(0) translate(4 2044.99)">
<title>Dependencies</title>
<polygon fill="white" stroke="transparent" points="-4,4 -4,-2044.99 1043.96,-2044.99 1043.96,4 -4,4"/>
<text text-anchor="middle" x="519.98" y="-2025.79" font-family="Helvetica,sans-Serif" font-size="14.00">workflow&#45;pr&#45;verify</text>
<!-- skill_workflow_pr_verify -->
<g id="node1" class="node">
<title>skill_workflow_pr_verify</title>
<ellipse fill="#e8f5e9" stroke="black" cx="77.78" cy="-425.49" rx="77.56" ry="21.43"/>
<text text-anchor="middle" x="77.78" y="-428.49" font-family="Helvetica,sans-Serif" font-size="10.00">twl:workflow&#45;pr&#45;verify</text>
<text text-anchor="middle" x="77.78" y="-417.49" font-family="Helvetica,sans-Serif" font-size="10.00">(842 tok)</text>
</g>
<!-- cmd_ts_preflight -->
<g id="node6" class="node">
<title>cmd_ts_preflight</title>
<polygon fill="#e3f2fd" stroke="black" points="289.06,-559.49 227.06,-559.49 227.06,-523.49 289.06,-523.49 289.06,-559.49"/>
<text text-anchor="middle" x="258.06" y="-544.49" font-family="Helvetica,sans-Serif" font-size="10.00">ts&#45;preflight</text>
<text text-anchor="middle" x="258.06" y="-533.49" font-family="Helvetica,sans-Serif" font-size="10.00">(349 tok)</text>
</g>
<!-- skill_workflow_pr_verify&#45;&gt;cmd_ts_preflight -->
<g id="edge3" class="edge">
<title>skill_workflow_pr_verify&#45;&gt;cmd_ts_preflight</title>
<path fill="none" stroke="black" d="M109.02,-445.17C139.94,-465.29 187.96,-496.53 220.88,-517.95"/>
<polygon fill="black" stroke="black" points="219.02,-520.92 229.32,-523.44 222.84,-515.05 219.02,-520.92"/>
</g>
<!-- cmd_scope_judge -->
<g id="node7" class="node">
<title>cmd_scope_judge</title>
<polygon fill="#e3f2fd" stroke="black" points="292.56,-443.49 223.56,-443.49 223.56,-407.49 292.56,-407.49 292.56,-443.49"/>
<text text-anchor="middle" x="258.06" y="-428.49" font-family="Helvetica,sans-Serif" font-size="10.00">scope&#45;judge</text>
<text text-anchor="middle" x="258.06" y="-417.49" font-family="Helvetica,sans-Serif" font-size="10.00">(394 tok)</text>
</g>
<!-- skill_workflow_pr_verify&#45;&gt;cmd_scope_judge -->
<g id="edge5" class="edge">
<title>skill_workflow_pr_verify&#45;&gt;cmd_scope_judge</title>
<path fill="none" stroke="black" d="M155.68,-425.49C175.35,-425.49 195.83,-425.49 213.19,-425.49"/>
<polygon fill="black" stroke="black" points="213.56,-428.99 223.56,-425.49 213.56,-421.99 213.56,-428.99"/>
</g>
<!-- cmd_pr_test -->
<g id="node8" class="node">
<title>cmd_pr_test</title>
<polygon fill="#e3f2fd" stroke="black" points="285.56,-385.49 230.56,-385.49 230.56,-349.49 285.56,-349.49 285.56,-385.49"/>
<text text-anchor="middle" x="258.06" y="-370.49" font-family="Helvetica,sans-Serif" font-size="10.00">pr&#45;test</text>
<text text-anchor="middle" x="258.06" y="-359.49" font-family="Helvetica,sans-Serif" font-size="10.00">(359 tok)</text>
</g>
<!-- skill_workflow_pr_verify&#45;&gt;cmd_pr_test -->
<g id="edge6" class="edge">
<title>skill_workflow_pr_verify&#45;&gt;cmd_pr_test</title>
<path fill="none" stroke="black" d="M128.44,-409.34C157.68,-399.83 194.01,-388.01 220.6,-379.36"/>
<polygon fill="black" stroke="black" points="221.85,-382.63 230.28,-376.21 219.68,-375.97 221.85,-382.63"/>
</g>
<!-- cmd_ac_verify -->
<g id="node9" class="node">
<title>cmd_ac_verify</title>
<polygon fill="#e3f2fd" stroke="black" points="285.56,-617.49 230.56,-617.49 230.56,-581.49 285.56,-581.49 285.56,-617.49"/>
<text text-anchor="middle" x="258.06" y="-602.49" font-family="Helvetica,sans-Serif" font-size="10.00">ac&#45;verify</text>
<text text-anchor="middle" x="258.06" y="-591.49" font-family="Helvetica,sans-Serif" font-size="10.00">(375 tok)</text>
</g>
<!-- skill_workflow_pr_verify&#45;&gt;cmd_ac_verify -->
<g id="edge2" class="edge">
<title>skill_workflow_pr_verify&#45;&gt;cmd_ac_verify</title>
<path fill="none" stroke="black" d="M95.72,-446.63C120.01,-476.24 166.97,-530.85 213.56,-570.49 216.2,-572.74 219.02,-574.96 221.9,-577.11"/>
<polygon fill="black" stroke="black" points="219.95,-580.01 230.12,-582.96 224.01,-574.31 219.95,-580.01"/>
</g>
<!-- cmd_phase_review -->
<g id="node10" class="node">
<title>cmd_phase_review</title>
<polygon fill="#bbdefb" stroke="black" points="295.06,-501.49 221.06,-501.49 221.06,-465.49 295.06,-465.49 295.06,-501.49"/>
<text text-anchor="middle" x="258.06" y="-486.49" font-family="Helvetica,sans-Serif" font-size="10.00">phase&#45;review</text>
<text text-anchor="middle" x="258.06" y="-475.49" font-family="Helvetica,sans-Serif" font-size="10.00">(910 tok)</text>
</g>
<!-- skill_workflow_pr_verify&#45;&gt;cmd_phase_review -->
<g id="edge4" class="edge">
<title>skill_workflow_pr_verify&#45;&gt;cmd_phase_review</title>
<path fill="none" stroke="black" d="M128.44,-441.65C154.37,-450.08 185.87,-460.33 211.21,-468.58"/>
<polygon fill="black" stroke="black" points="210.36,-471.98 220.95,-471.75 212.52,-465.32 210.36,-471.98"/>
</g>
<!-- cmd_ac_deploy_trigger -->
<g id="node11" class="node">
<title>cmd_ac_deploy_trigger</title>
<polygon fill="#e3f2fd" stroke="black" points="302.56,-675.49 213.56,-675.49 213.56,-639.49 302.56,-639.49 302.56,-675.49"/>
<text text-anchor="middle" x="258.06" y="-660.49" font-family="Helvetica,sans-Serif" font-size="10.00">ac&#45;deploy&#45;trigger</text>
<text text-anchor="middle" x="258.06" y="-649.49" font-family="Helvetica,sans-Serif" font-size="10.00">(457 tok)</text>
</g>
<!-- skill_workflow_pr_verify&#45;&gt;cmd_ac_deploy_trigger -->
<g id="edge1" class="edge">
<title>skill_workflow_pr_verify&#45;&gt;cmd_ac_deploy_trigger</title>
<path fill="none" stroke="black" d="M89.24,-446.74C109.3,-486.01 156.33,-571.16 213.56,-628.49 215.13,-630.06 216.79,-631.59 218.51,-633.08"/>
<polygon fill="black" stroke="black" points="216.36,-635.84 226.38,-639.31 220.71,-630.36 216.36,-635.84"/>
</g>
<!-- cmd_test_phase -->
<g id="node12" class="node">
<title>cmd_test_phase</title>
<polygon fill="#bbdefb" stroke="black" points="289.06,-309.49 227.06,-309.49 227.06,-273.49 289.06,-273.49 289.06,-309.49"/>
<text text-anchor="middle" x="258.06" y="-294.49" font-family="Helvetica,sans-Serif" font-size="10.00">test&#45;phase</text>
<text text-anchor="middle" x="258.06" y="-283.49" font-family="Helvetica,sans-Serif" font-size="10.00">(608 tok)</text>
</g>
<!-- skill_workflow_pr_verify&#45;&gt;cmd_test_phase -->
<g id="edge7" class="edge">
<title>skill_workflow_pr_verify&#45;&gt;cmd_test_phase</title>
<path fill="none" stroke="black" d="M105.47,-405.43C137.35,-381.47 190.65,-341.42 224.8,-315.74"/>
<polygon fill="black" stroke="black" points="227.16,-318.35 233.05,-309.54 222.95,-312.75 227.16,-318.35"/>
</g>
<!-- script_chain_runner -->
<g id="node35" class="node">
<title>script_chain_runner</title>
<polygon fill="#ff9800" stroke="black" points="501.16,-95.49 472.5,-119.98 415.19,-119.98 386.54,-95.49 415.19,-71.01 472.5,-71.01 501.16,-95.49"/>
<text text-anchor="middle" x="443.85" y="-98.49" font-family="Helvetica,sans-Serif" font-size="10.00">chain&#45;runner</text>
<text text-anchor="middle" x="443.85" y="-87.49" font-family="Helvetica,sans-Serif" font-size="10.00">(7,161 tok)</text>
</g>
<!-- skill_workflow_pr_verify&#45;&gt;script_chain_runner -->
<g id="edge8" class="edge">
<title>skill_workflow_pr_verify&#45;&gt;script_chain_runner</title>
<path fill="none" stroke="black" d="M94.12,-404.72C118.1,-372.78 166.6,-310.3 213.56,-262.49 273.87,-201.11 288.84,-184.04 360.56,-136.49 371.69,-129.12 384.34,-122.18 396.32,-116.19"/>
<polygon fill="black" stroke="black" points="397.86,-119.33 405.31,-111.8 394.79,-113.04 397.86,-119.33"/>
</g>
<!-- script_compaction_resume -->
<g id="node39" class="node">
<title>script_compaction_resume</title>
<polygon fill="#ff9800" stroke="black" points="526.91,-24.49 485.38,-48.98 402.31,-48.98 360.78,-24.49 402.31,-0.01 485.38,-0.01 526.91,-24.49"/>
<text text-anchor="middle" x="443.85" y="-27.49" font-family="Helvetica,sans-Serif" font-size="10.00">compaction&#45;resume</text>
<text text-anchor="middle" x="443.85" y="-16.49" font-family="Helvetica,sans-Serif" font-size="10.00">(1,031 tok)</text>
</g>
<!-- skill_workflow_pr_verify&#45;&gt;script_compaction_resume -->
<g id="edge9" class="edge">
<title>skill_workflow_pr_verify&#45;&gt;script_compaction_resume</title>
<path fill="none" stroke="black" d="M86.62,-404.09C104.15,-358.19 150.03,-248.42 213.56,-173.49 266.86,-110.64 289.63,-102.43 360.56,-60.49 367.9,-56.16 375.85,-52.04 383.81,-48.23"/>
<polygon fill="black" stroke="black" points="385.54,-51.29 393.14,-43.92 382.6,-44.94 385.54,-51.29"/>
</g>
<!-- skill_ref_specialist_output_schema -->
<g id="node2" class="node">
<title>skill_ref_specialist_output_schema</title>
<polygon fill="#e1f5fe" stroke="black" points="1033.96,-373.49 884.96,-373.49 884.96,-337.49 1039.96,-337.49 1039.96,-367.49 1033.96,-373.49"/>
<polyline fill="none" stroke="black" points="1033.96,-373.49 1033.96,-367.49 "/>
<polyline fill="none" stroke="black" points="1039.96,-367.49 1033.96,-367.49 "/>
<text text-anchor="middle" x="962.46" y="-358.49" font-family="Helvetica,sans-Serif" font-size="10.00">twl:ref&#45;specialist&#45;output&#45;schema</text>
<text text-anchor="middle" x="962.46" y="-347.49" font-family="Helvetica,sans-Serif" font-size="10.00">(2,563 tok)</text>
</g>
<!-- skill_baseline_coding_style -->
<g id="node3" class="node">
<title>skill_baseline_coding_style</title>
<polygon fill="#e1f5fe" stroke="black" points="1018.46,-315.49 900.46,-315.49 900.46,-279.49 1024.46,-279.49 1024.46,-309.49 1018.46,-315.49"/>
<polyline fill="none" stroke="black" points="1018.46,-315.49 1018.46,-309.49 "/>
<polyline fill="none" stroke="black" points="1024.46,-309.49 1018.46,-309.49 "/>
<text text-anchor="middle" x="962.46" y="-300.49" font-family="Helvetica,sans-Serif" font-size="10.00">twl:baseline&#45;coding&#45;style</text>
<text text-anchor="middle" x="962.46" y="-289.49" font-family="Helvetica,sans-Serif" font-size="10.00">(1,570 tok)</text>
</g>
<!-- skill_ref_specialist_output_schema&#45;&gt;skill_baseline_coding_style -->
<!-- skill_baseline_security_checklist -->
<g id="node4" class="node">
<title>skill_baseline_security_checklist</title>
<polygon fill="#e1f5fe" stroke="black" points="1030.46,-257.49 888.46,-257.49 888.46,-221.49 1036.46,-221.49 1036.46,-251.49 1030.46,-257.49"/>
<polyline fill="none" stroke="black" points="1030.46,-257.49 1030.46,-251.49 "/>
<polyline fill="none" stroke="black" points="1036.46,-251.49 1030.46,-251.49 "/>
<text text-anchor="middle" x="962.46" y="-242.49" font-family="Helvetica,sans-Serif" font-size="10.00">twl:baseline&#45;security&#45;checklist</text>
<text text-anchor="middle" x="962.46" y="-231.49" font-family="Helvetica,sans-Serif" font-size="10.00">(1,815 tok)</text>
</g>
<!-- skill_baseline_coding_style&#45;&gt;skill_baseline_security_checklist -->
<!-- skill_baseline_coding_style&#45;&gt;skill_baseline_security_checklist -->
<!-- skill_baseline_input_validation -->
<g id="node5" class="node">
<title>skill_baseline_input_validation</title>
<polygon fill="#e1f5fe" stroke="black" points="1024.96,-199.49 893.96,-199.49 893.96,-163.49 1030.96,-163.49 1030.96,-193.49 1024.96,-199.49"/>
<polyline fill="none" stroke="black" points="1024.96,-199.49 1024.96,-193.49 "/>
<polyline fill="none" stroke="black" points="1030.96,-193.49 1024.96,-193.49 "/>
<text text-anchor="middle" x="962.46" y="-184.49" font-family="Helvetica,sans-Serif" font-size="10.00">twl:baseline&#45;input&#45;validation</text>
<text text-anchor="middle" x="962.46" y="-173.49" font-family="Helvetica,sans-Serif" font-size="10.00">(1,408 tok)</text>
</g>
<!-- skill_baseline_security_checklist&#45;&gt;skill_baseline_input_validation -->
<!-- skill_baseline_security_checklist&#45;&gt;skill_baseline_input_validation -->
<!-- cmd_ts_preflight&#45;&gt;cmd_phase_review -->
<!-- cmd_scope_judge&#45;&gt;cmd_pr_test -->
<!-- cmd_pr_test&#45;&gt;cmd_test_phase -->
<!-- cmd_ac_verify&#45;&gt;cmd_ts_preflight -->
<!-- cmd_phase_review&#45;&gt;skill_ref_specialist_output_schema -->
<g id="edge30" class="edge">
<title>cmd_phase_review&#45;&gt;skill_ref_specialist_output_schema</title>
<path fill="none" stroke="black" d="M293.3,-501.67C296.91,-504.84 300.15,-508.44 302.56,-512.49 373.58,-631.52 276.78,-1023.08 360.56,-1133.49 424.27,-1217.45 746.91,-1288.05 826.96,-1219.49 957.19,-1107.97 962.32,-520.59 961.72,-383.93"/>
<polygon fill="black" stroke="black" points="965.22,-383.81 961.66,-373.83 958.22,-383.85 965.22,-383.81"/>
</g>
<!-- cmd_phase_review&#45;&gt;skill_baseline_coding_style -->
<g id="edge31" class="edge">
<title>cmd_phase_review&#45;&gt;skill_baseline_coding_style</title>
<path fill="none" stroke="black" d="M288.34,-465.43C293.24,-462 298.16,-458.29 302.56,-454.49 331.64,-429.44 330.75,-414.67 360.56,-390.49 450.31,-317.72 473.59,-289.65 585.13,-259.49 688.88,-231.44 720.5,-244.74 826.96,-259.49 851.35,-262.87 877.54,-269.55 900.27,-276.37"/>
<polygon fill="black" stroke="black" points="899.53,-279.8 910.11,-279.4 901.59,-273.11 899.53,-279.8"/>
</g>
<!-- cmd_phase_review&#45;&gt;skill_baseline_security_checklist -->
<g id="edge32" class="edge">
<title>cmd_phase_review&#45;&gt;skill_baseline_security_checklist</title>
<path fill="none" stroke="black" d="M291.62,-465.48C295.7,-462.22 299.5,-458.55 302.56,-454.49 353.45,-387.07 296.49,-328.55 360.56,-273.49 510.45,-144.71 766.84,-187.65 890.56,-218.88"/>
<polygon fill="black" stroke="black" points="889.76,-222.29 900.31,-221.39 891.5,-215.51 889.76,-222.29"/>
</g>
<!-- cmd_phase_review&#45;&gt;skill_baseline_input_validation -->
<g id="edge33" class="edge">
<title>cmd_phase_review&#45;&gt;skill_baseline_input_validation</title>
<path fill="none" stroke="black" d="M292.4,-465.38C296.26,-462.17 299.79,-458.54 302.56,-454.49 369.94,-356.08 269.59,-269.61 360.56,-192.49 437.27,-127.47 739.11,-154.13 883.59,-171.27"/>
<polygon fill="black" stroke="black" points="883.37,-174.77 893.71,-172.49 884.2,-167.82 883.37,-174.77"/>
</g>
<!-- cmd_phase_review&#45;&gt;cmd_scope_judge -->
<!-- agent_worker_structure -->
<g id="node13" class="node">
<title>agent_worker_structure</title>
<ellipse fill="#ede7f6" stroke="black" cx="706.04" cy="-1425.49" rx="61.54" ry="21.43"/>
<text text-anchor="middle" x="706.04" y="-1428.49" font-family="Helvetica,sans-Serif" font-size="10.00">worker&#45;structure</text>
<text text-anchor="middle" x="706.04" y="-1417.49" font-family="Helvetica,sans-Serif" font-size="10.00">(1,244 tok)</text>
</g>
<!-- cmd_phase_review&#45;&gt;agent_worker_structure -->
<g id="edge13" class="edge">
<title>cmd_phase_review&#45;&gt;agent_worker_structure</title>
<path fill="none" stroke="black" stroke-dasharray="5,2" d="M293.39,-501.62C296.99,-504.8 300.19,-508.42 302.56,-512.49 394.08,-669.83 245.83,-1188.2 360.56,-1329.49 378.59,-1351.7 549.18,-1391.68 643.33,-1412.34"/>
<polygon fill="black" stroke="black" points="642.79,-1415.81 653.31,-1414.52 644.29,-1408.97 642.79,-1415.81"/>
</g>
<!-- agent_worker_principles -->
<g id="node14" class="node">
<title>agent_worker_principles</title>
<ellipse fill="#ede7f6" stroke="black" cx="706.04" cy="-1361.49" rx="63.78" ry="21.43"/>
<text text-anchor="middle" x="706.04" y="-1364.49" font-family="Helvetica,sans-Serif" font-size="10.00">worker&#45;principles</text>
<text text-anchor="middle" x="706.04" y="-1353.49" font-family="Helvetica,sans-Serif" font-size="10.00">(1,154 tok)</text>
</g>
<!-- cmd_phase_review&#45;&gt;agent_worker_principles -->
<g id="edge14" class="edge">
<title>cmd_phase_review&#45;&gt;agent_worker_principles</title>
<path fill="none" stroke="black" stroke-dasharray="5,2" d="M293.37,-501.63C296.97,-504.8 300.18,-508.42 302.56,-512.49 389.47,-661.22 247.72,-1155.34 360.56,-1285.49 395.62,-1325.93 543.36,-1346.58 633.59,-1355.61"/>
<polygon fill="black" stroke="black" points="633.46,-1359.11 643.75,-1356.6 634.14,-1352.15 633.46,-1359.11"/>
</g>
<!-- agent_worker_env_validator -->
<g id="node15" class="node">
<title>agent_worker_env_validator</title>
<ellipse fill="#ede7f6" stroke="black" cx="706.04" cy="-419.49" rx="73.58" ry="21.43"/>
<text text-anchor="middle" x="706.04" y="-422.49" font-family="Helvetica,sans-Serif" font-size="10.00">worker&#45;env&#45;validator</text>
<text text-anchor="middle" x="706.04" y="-411.49" font-family="Helvetica,sans-Serif" font-size="10.00">(1,426 tok)</text>
</g>
<!-- cmd_phase_review&#45;&gt;agent_worker_env_validator -->
<g id="edge28" class="edge">
<title>cmd_phase_review&#45;&gt;agent_worker_env_validator</title>
<path fill="none" stroke="black" stroke-dasharray="5,2" d="M295.18,-478.31C367.78,-467.89 532.74,-444.22 629.8,-430.29"/>
<polygon fill="black" stroke="black" points="630.44,-433.74 639.84,-428.85 629.45,-426.81 630.44,-433.74"/>
</g>
<!-- agent_worker_rls_reviewer -->
<g id="node16" class="node">
<title>agent_worker_rls_reviewer</title>
<ellipse fill="#ede7f6" stroke="black" cx="706.04" cy="-739.49" rx="70.01" ry="21.43"/>
<text text-anchor="middle" x="706.04" y="-742.49" font-family="Helvetica,sans-Serif" font-size="10.00">worker&#45;rls&#45;reviewer</text>
<text text-anchor="middle" x="706.04" y="-731.49" font-family="Helvetica,sans-Serif" font-size="10.00">(1,517 tok)</text>
</g>
<!-- cmd_phase_review&#45;&gt;agent_worker_rls_reviewer -->
<g id="edge23" class="edge">
<title>cmd_phase_review&#45;&gt;agent_worker_rls_reviewer</title>
<path fill="none" stroke="black" stroke-dasharray="5,2" d="M290.49,-501.74C294.83,-505 299.01,-508.61 302.56,-512.49 338.84,-552.09 320.32,-582.93 360.56,-618.49 437.5,-686.48 554.99,-716.88 630.91,-730.03"/>
<polygon fill="black" stroke="black" points="630.44,-733.5 640.88,-731.7 631.59,-726.6 630.44,-733.5"/>
</g>
<!-- agent_worker_supabase_migration_checker -->
<g id="node17" class="node">
<title>agent_worker_supabase_migration_checker</title>
<ellipse fill="#ede7f6" stroke="black" cx="706.04" cy="-995.49" rx="120.83" ry="21.43"/>
<text text-anchor="middle" x="706.04" y="-998.49" font-family="Helvetica,sans-Serif" font-size="10.00">worker&#45;supabase&#45;migration&#45;checker</text>
<text text-anchor="middle" x="706.04" y="-987.49" font-family="Helvetica,sans-Serif" font-size="10.00">(1,338 tok)</text>
</g>
<!-- cmd_phase_review&#45;&gt;agent_worker_supabase_migration_checker -->
<g id="edge19" class="edge">
<title>cmd_phase_review&#45;&gt;agent_worker_supabase_migration_checker</title>
<path fill="none" stroke="black" stroke-dasharray="5,2" d="M293.05,-501.83C296.7,-504.97 300.01,-508.53 302.56,-512.49 389.98,-648.44 260.06,-744.92 360.56,-871.49 414.94,-939.98 510.36,-970.67 587,-984.4"/>
<polygon fill="black" stroke="black" points="586.76,-987.91 597.2,-986.15 587.94,-981.01 586.76,-987.91"/>
</g>
<!-- agent_worker_data_validator -->
<g id="node18" class="node">
<title>agent_worker_data_validator</title>
<ellipse fill="#ede7f6" stroke="black" cx="706.04" cy="-483.49" rx="75.82" ry="21.43"/>
<text text-anchor="middle" x="706.04" y="-486.49" font-family="Helvetica,sans-Serif" font-size="10.00">worker&#45;data&#45;validator</text>
<text text-anchor="middle" x="706.04" y="-475.49" font-family="Helvetica,sans-Serif" font-size="10.00">(698 tok)</text>
</g>
<!-- cmd_phase_review&#45;&gt;agent_worker_data_validator -->
<g id="edge27" class="edge">
<title>cmd_phase_review&#45;&gt;agent_worker_data_validator</title>
<path fill="none" stroke="black" stroke-dasharray="5,2" d="M295.18,-483.49C365.38,-483.49 521.92,-483.49 619.95,-483.49"/>
<polygon fill="black" stroke="black" points="620.13,-486.99 630.13,-483.49 620.13,-479.99 620.13,-486.99"/>
</g>
<!-- agent_worker_e2e_reviewer -->
<g id="node19" class="node">
<title>agent_worker_e2e_reviewer</title>
<ellipse fill="#ede7f6" stroke="black" cx="706.04" cy="-867.49" rx="73.58" ry="21.43"/>
<text text-anchor="middle" x="706.04" y="-870.49" font-family="Helvetica,sans-Serif" font-size="10.00">worker&#45;e2e&#45;reviewer</text>
<text text-anchor="middle" x="706.04" y="-859.49" font-family="Helvetica,sans-Serif" font-size="10.00">(1,226 tok)</text>
</g>
<!-- cmd_phase_review&#45;&gt;agent_worker_e2e_reviewer -->
<g id="edge21" class="edge">
<title>cmd_phase_review&#45;&gt;agent_worker_e2e_reviewer</title>
<path fill="none" stroke="black" stroke-dasharray="5,2" d="M292.29,-501.69C296.16,-504.89 299.73,-508.49 302.56,-512.49 363.18,-598.22 292.03,-661.96 360.56,-741.49 427.33,-818.99 545.94,-848.84 625.04,-860.33"/>
<polygon fill="black" stroke="black" points="624.58,-863.8 634.96,-861.7 625.54,-856.86 624.58,-863.8"/>
</g>
<!-- agent_worker_spec_reviewer -->
<g id="node20" class="node">
<title>agent_worker_spec_reviewer</title>
<ellipse fill="#ede7f6" stroke="black" cx="706.04" cy="-675.49" rx="77.56" ry="21.43"/>
<text text-anchor="middle" x="706.04" y="-678.49" font-family="Helvetica,sans-Serif" font-size="10.00">worker&#45;spec&#45;reviewer</text>
<text text-anchor="middle" x="706.04" y="-667.49" font-family="Helvetica,sans-Serif" font-size="10.00">(1,094 tok)</text>
</g>
<!-- cmd_phase_review&#45;&gt;agent_worker_spec_reviewer -->
<g id="edge24" class="edge">
<title>cmd_phase_review&#45;&gt;agent_worker_spec_reviewer</title>
<path fill="none" stroke="black" stroke-dasharray="5,2" d="M287.64,-501.53C292.72,-505.02 297.88,-508.76 302.56,-512.49 330.33,-534.65 330.14,-549.15 360.56,-567.49 445.28,-618.57 556.47,-647.72 629.29,-662.56"/>
<polygon fill="black" stroke="black" points="628.81,-666.04 639.31,-664.56 630.19,-659.17 628.81,-666.04"/>
</g>
<!-- agent_worker_codex_reviewer -->
<g id="node21" class="node">
<title>agent_worker_codex_reviewer</title>
<ellipse fill="#ede7f6" stroke="black" cx="706.04" cy="-355.49" rx="81.13" ry="21.43"/>
<text text-anchor="middle" x="706.04" y="-358.49" font-family="Helvetica,sans-Serif" font-size="10.00">worker&#45;codex&#45;reviewer</text>
<text text-anchor="middle" x="706.04" y="-347.49" font-family="Helvetica,sans-Serif" font-size="10.00">(1,421 tok)</text>
</g>
<!-- cmd_phase_review&#45;&gt;agent_worker_codex_reviewer -->
<g id="edge29" class="edge">
<title>cmd_phase_review&#45;&gt;agent_worker_codex_reviewer</title>
<path fill="none" stroke="black" stroke-dasharray="5,2" d="M295.17,-466.55C314.32,-457.98 338.41,-447.87 360.56,-440.49 451.92,-410.09 560.15,-385.12 630.58,-370.29"/>
<polygon fill="black" stroke="black" points="631.62,-373.65 640.69,-368.18 630.19,-366.8 631.62,-373.65"/>
</g>
<!-- agent_worker_code_reviewer -->
<g id="node22" class="node">
<title>agent_worker_code_reviewer</title>
<ellipse fill="#ede7f6" stroke="black" cx="706.04" cy="-1297.49" rx="77.56" ry="21.43"/>
<text text-anchor="middle" x="706.04" y="-1300.49" font-family="Helvetica,sans-Serif" font-size="10.00">worker&#45;code&#45;reviewer</text>
<text text-anchor="middle" x="706.04" y="-1289.49" font-family="Helvetica,sans-Serif" font-size="10.00">(964 tok)</text>
</g>
<!-- cmd_phase_review&#45;&gt;agent_worker_code_reviewer -->
<g id="edge15" class="edge">
<title>cmd_phase_review&#45;&gt;agent_worker_code_reviewer</title>
<path fill="none" stroke="black" stroke-dasharray="5,2" d="M293.36,-501.64C296.96,-504.81 300.17,-508.42 302.56,-512.49 385.39,-653.6 248.87,-1126.93 360.56,-1246.49 394.54,-1282.87 527.32,-1293.55 617.74,-1296.54"/>
<polygon fill="black" stroke="black" points="617.9,-1300.05 628,-1296.85 618.11,-1293.05 617.9,-1300.05"/>
</g>
<!-- agent_worker_security_reviewer -->
<g id="node23" class="node">
<title>agent_worker_security_reviewer</title>
<ellipse fill="#ede7f6" stroke="black" cx="706.04" cy="-1187.49" rx="86.95" ry="21.43"/>
<text text-anchor="middle" x="706.04" y="-1190.49" font-family="Helvetica,sans-Serif" font-size="10.00">worker&#45;security&#45;reviewer</text>
<text text-anchor="middle" x="706.04" y="-1179.49" font-family="Helvetica,sans-Serif" font-size="10.00">(866 tok)</text>
</g>
<!-- cmd_phase_review&#45;&gt;agent_worker_security_reviewer -->
<g id="edge16" class="edge">
<title>cmd_phase_review&#45;&gt;agent_worker_security_reviewer</title>
<path fill="none" stroke="black" stroke-dasharray="5,2" d="M293.26,-501.7C296.88,-504.86 300.12,-508.45 302.56,-512.49 431.02,-725.16 209.7,-871.09 360.56,-1068.49 419.15,-1145.15 530.15,-1172.71 610.35,-1182.46"/>
<polygon fill="black" stroke="black" points="610.13,-1185.96 620.46,-1183.62 610.93,-1179 610.13,-1185.96"/>
</g>
<!-- agent_worker_nextjs_reviewer -->
<g id="node24" class="node">
<title>agent_worker_nextjs_reviewer</title>
<ellipse fill="#ede7f6" stroke="black" cx="706.04" cy="-1123.49" rx="81.13" ry="21.43"/>
<text text-anchor="middle" x="706.04" y="-1126.49" font-family="Helvetica,sans-Serif" font-size="10.00">worker&#45;nextjs&#45;reviewer</text>
<text text-anchor="middle" x="706.04" y="-1115.49" font-family="Helvetica,sans-Serif" font-size="10.00">(642 tok)</text>
</g>
<!-- cmd_phase_review&#45;&gt;agent_worker_nextjs_reviewer -->
<g id="edge17" class="edge">
<title>cmd_phase_review&#45;&gt;agent_worker_nextjs_reviewer</title>
<path fill="none" stroke="black" stroke-dasharray="5,2" d="M293.21,-501.73C296.84,-504.89 300.1,-508.47 302.56,-512.49 417.45,-699.81 226.28,-829.56 360.56,-1003.49 420.87,-1081.61 535.41,-1109.09 615.8,-1118.64"/>
<polygon fill="black" stroke="black" points="615.6,-1122.13 625.92,-1119.76 616.37,-1115.18 615.6,-1122.13"/>
</g>
<!-- agent_worker_fastapi_reviewer -->
<g id="node25" class="node">
<title>agent_worker_fastapi_reviewer</title>
<ellipse fill="#ede7f6" stroke="black" cx="706.04" cy="-1059.49" rx="83.38" ry="21.43"/>
<text text-anchor="middle" x="706.04" y="-1062.49" font-family="Helvetica,sans-Serif" font-size="10.00">worker&#45;fastapi&#45;reviewer</text>
<text text-anchor="middle" x="706.04" y="-1051.49" font-family="Helvetica,sans-Serif" font-size="10.00">(639 tok)</text>
</g>
<!-- cmd_phase_review&#45;&gt;agent_worker_fastapi_reviewer -->
<g id="edge18" class="edge">
<title>cmd_phase_review&#45;&gt;agent_worker_fastapi_reviewer</title>
<path fill="none" stroke="black" stroke-dasharray="5,2" d="M293.14,-501.77C296.78,-504.92 300.06,-508.49 302.56,-512.49 403.7,-674.1 243.28,-787.2 360.56,-937.49 420.92,-1014.84 534.05,-1043.26 614.18,-1053.64"/>
<polygon fill="black" stroke="black" points="613.92,-1057.13 624.27,-1054.88 614.77,-1050.19 613.92,-1057.13"/>
</g>
<!-- agent_worker_hono_reviewer -->
<g id="node26" class="node">
<title>agent_worker_hono_reviewer</title>
<ellipse fill="#ede7f6" stroke="black" cx="706.04" cy="-803.49" rx="77.56" ry="21.43"/>
<text text-anchor="middle" x="706.04" y="-806.49" font-family="Helvetica,sans-Serif" font-size="10.00">worker&#45;hono&#45;reviewer</text>
<text text-anchor="middle" x="706.04" y="-795.49" font-family="Helvetica,sans-Serif" font-size="10.00">(847 tok)</text>
</g>
<!-- cmd_phase_review&#45;&gt;agent_worker_hono_reviewer -->
<g id="edge22" class="edge">
<title>cmd_phase_review&#45;&gt;agent_worker_hono_reviewer</title>
<path fill="none" stroke="black" stroke-dasharray="5,2" d="M291.53,-501.58C295.62,-504.83 299.45,-508.48 302.56,-512.49 350.45,-574.26 306.88,-621.69 360.56,-678.49 429.57,-751.51 544.51,-782.01 622.47,-794.66"/>
<polygon fill="black" stroke="black" points="622.32,-798.18 632.74,-796.26 623.4,-791.26 622.32,-798.18"/>
</g>
<!-- agent_worker_r_reviewer -->
<g id="node27" class="node">
<title>agent_worker_r_reviewer</title>
<ellipse fill="#ede7f6" stroke="black" cx="706.04" cy="-931.49" rx="65.11" ry="21.43"/>
<text text-anchor="middle" x="706.04" y="-934.49" font-family="Helvetica,sans-Serif" font-size="10.00">worker&#45;r&#45;reviewer</text>
<text text-anchor="middle" x="706.04" y="-923.49" font-family="Helvetica,sans-Serif" font-size="10.00">(717 tok)</text>
</g>
<!-- cmd_phase_review&#45;&gt;agent_worker_r_reviewer -->
<g id="edge20" class="edge">
<title>cmd_phase_review&#45;&gt;agent_worker_r_reviewer</title>
<path fill="none" stroke="black" stroke-dasharray="5,2" d="M292.49,-501.56C296.33,-504.77 299.84,-508.42 302.56,-512.49 376.32,-622.87 276.59,-702.68 360.56,-805.49 427.49,-887.44 552.64,-916.09 632.25,-926.11"/>
<polygon fill="black" stroke="black" points="631.87,-929.59 642.21,-927.29 632.69,-922.64 631.87,-929.59"/>
</g>
<!-- agent_worker_llm_output_reviewer -->
<g id="node28" class="node">
<title>agent_worker_llm_output_reviewer</title>
<ellipse fill="#ede7f6" stroke="black" cx="706.04" cy="-611.49" rx="92.76" ry="21.43"/>
<text text-anchor="middle" x="706.04" y="-614.49" font-family="Helvetica,sans-Serif" font-size="10.00">worker&#45;llm&#45;output&#45;reviewer</text>
<text text-anchor="middle" x="706.04" y="-603.49" font-family="Helvetica,sans-Serif" font-size="10.00">(1,162 tok)</text>
</g>
<!-- cmd_phase_review&#45;&gt;agent_worker_llm_output_reviewer -->
<g id="edge25" class="edge">
<title>cmd_phase_review&#45;&gt;agent_worker_llm_output_reviewer</title>
<path fill="none" stroke="black" stroke-dasharray="5,2" d="M295.07,-501.37C314.2,-510.37 338.29,-520.94 360.56,-528.49 448.72,-558.38 553,-581.93 623.56,-596.2"/>
<polygon fill="black" stroke="black" points="623.22,-599.7 633.72,-598.24 624.6,-592.84 623.22,-599.7"/>
</g>
<!-- agent_worker_llm_eval_runner -->
<g id="node29" class="node">
<title>agent_worker_llm_eval_runner</title>
<ellipse fill="#ede7f6" stroke="black" cx="706.04" cy="-547.49" rx="79.81" ry="21.43"/>
<text text-anchor="middle" x="706.04" y="-550.49" font-family="Helvetica,sans-Serif" font-size="10.00">worker&#45;llm&#45;eval&#45;runner</text>
<text text-anchor="middle" x="706.04" y="-539.49" font-family="Helvetica,sans-Serif" font-size="10.00">(1,174 tok)</text>
</g>
<!-- cmd_phase_review&#45;&gt;agent_worker_llm_eval_runner -->
<g id="edge26" class="edge">
<title>cmd_phase_review&#45;&gt;agent_worker_llm_eval_runner</title>
<path fill="none" stroke="black" stroke-dasharray="5,2" d="M295.19,-489.82C314.56,-493.14 338.84,-497.19 360.56,-500.49 450.43,-514.15 553.77,-528 623.64,-537.1"/>
<polygon fill="black" stroke="black" points="623.33,-540.59 633.7,-538.4 624.23,-533.64 623.33,-540.59"/>
</g>
<!-- script_tech_stack_detect -->
<g id="node33" class="node">
<title>script_tech_stack_detect</title>
<polygon fill="#ff9800" stroke="black" points="519.08,-1638.49 481.46,-1662.98 406.23,-1662.98 368.61,-1638.49 406.23,-1614.01 481.46,-1614.01 519.08,-1638.49"/>
<text text-anchor="middle" x="443.85" y="-1641.49" font-family="Helvetica,sans-Serif" font-size="10.00">tech&#45;stack&#45;detect</text>
<text text-anchor="middle" x="443.85" y="-1630.49" font-family="Helvetica,sans-Serif" font-size="10.00">(539 tok)</text>
</g>
<!-- cmd_phase_review&#45;&gt;script_tech_stack_detect -->
<g id="edge11" class="edge">
<title>cmd_phase_review&#45;&gt;script_tech_stack_detect</title>
<path fill="none" stroke="black" d="M293.46,-501.58C297.04,-504.76 300.23,-508.39 302.56,-512.49 422.66,-723.24 222.45,-1403.09 360.56,-1602.49 365.54,-1609.68 372.28,-1615.45 379.78,-1620.07"/>
<polygon fill="black" stroke="black" points="378.41,-1623.3 388.87,-1624.99 381.74,-1617.15 378.41,-1623.3"/>
</g>
<!-- script_autopilot_parser -->
<g id="node34" class="node">
<title>script_autopilot_parser</title>
<polygon fill="#ff9800" stroke="black" points="511.39,-1709.49 477.62,-1733.98 410.08,-1733.98 376.31,-1709.49 410.08,-1685.01 477.62,-1685.01 511.39,-1709.49"/>
<text text-anchor="middle" x="443.85" y="-1712.49" font-family="Helvetica,sans-Serif" font-size="10.00">autopilot&#45;parser</text>
<text text-anchor="middle" x="443.85" y="-1701.49" font-family="Helvetica,sans-Serif" font-size="10.00">(1,580 tok)</text>
</g>
<!-- cmd_phase_review&#45;&gt;script_autopilot_parser -->
<g id="edge10" class="edge">
<title>cmd_phase_review&#45;&gt;script_autopilot_parser</title>
<path fill="none" stroke="black" d="M293.47,-501.57C297.05,-504.76 300.23,-508.39 302.56,-512.49 430.1,-737.14 213.82,-1460.9 360.56,-1673.49 366.28,-1681.77 374.33,-1688.16 383.19,-1693.09"/>
<polygon fill="black" stroke="black" points="381.74,-1696.28 392.26,-1697.55 384.83,-1690 381.74,-1696.28"/>
</g>
<!-- script_checkpoint_write -->
<g id="node41" class="node">
<title>script_checkpoint_write</title>
<polygon fill="#ff9800" stroke="black" points="515.55,-1425.49 479.7,-1449.98 407.99,-1449.98 372.14,-1425.49 407.99,-1401.01 479.7,-1401.01 515.55,-1425.49"/>
<text text-anchor="middle" x="443.85" y="-1428.49" font-family="Helvetica,sans-Serif" font-size="10.00">checkpoint&#45;write</text>
<text text-anchor="middle" x="443.85" y="-1417.49" font-family="Helvetica,sans-Serif" font-size="10.00">(2,418 tok)</text>
</g>
<!-- cmd_phase_review&#45;&gt;script_checkpoint_write -->
<g id="edge12" class="edge">
<title>cmd_phase_review&#45;&gt;script_checkpoint_write</title>
<path fill="none" stroke="black" d="M293.4,-501.61C297,-504.79 300.2,-508.41 302.56,-512.49 399.84,-680.58 252.92,-1222.85 360.56,-1384.49 366.46,-1393.35 374.87,-1400.38 384.08,-1405.93"/>
<polygon fill="black" stroke="black" points="382.64,-1409.13 393.11,-1410.8 385.97,-1402.97 382.64,-1409.13"/>
</g>
<!-- cmd_ac_deploy_trigger&#45;&gt;cmd_ac_verify -->
<!-- cmd_test_phase&#45;&gt;skill_ref_specialist_output_schema -->
<g id="edge35" class="edge">
<title>cmd_test_phase&#45;&gt;skill_ref_specialist_output_schema</title>
<path fill="none" stroke="black" d="M289.21,-280.42C377.03,-250.05 638.35,-173.3 826.96,-259.49 862.78,-275.86 852.67,-303.94 884.96,-326.49 888.21,-328.76 891.65,-330.88 895.22,-332.86"/>
<polygon fill="black" stroke="black" points="893.78,-336.05 904.28,-337.47 896.96,-329.81 893.78,-336.05"/>
</g>
<!-- agent_e2e_quality -->
<g id="node30" class="node">
<title>agent_e2e_quality</title>
<ellipse fill="#ede7f6" stroke="black" cx="706.04" cy="-291.49" rx="45.01" ry="21.43"/>
<text text-anchor="middle" x="706.04" y="-294.49" font-family="Helvetica,sans-Serif" font-size="10.00">e2e&#45;quality</text>
<text text-anchor="middle" x="706.04" y="-283.49" font-family="Helvetica,sans-Serif" font-size="10.00">(2,270 tok)</text>
</g>
<!-- cmd_test_phase&#45;&gt;agent_e2e_quality -->
<g id="edge34" class="edge">
<title>cmd_test_phase&#45;&gt;agent_e2e_quality</title>
<path fill="none" stroke="black" stroke-dasharray="5,2" d="M289.37,-291.49C363.63,-291.49 555.54,-291.49 650.36,-291.49"/>
<polygon fill="black" stroke="black" points="650.6,-294.99 660.6,-291.49 650.6,-287.99 650.6,-294.99"/>
</g>
<!-- cmd_test_phase&#45;&gt;script_chain_runner -->
<!-- agent_worker_structure&#45;&gt;skill_ref_specialist_output_schema -->
<g id="edge36" class="edge">
<title>agent_worker_structure&#45;&gt;skill_ref_specialist_output_schema</title>
<path fill="none" stroke="black" stroke-dasharray="1,5" d="M767.43,-1422.99C789.2,-1418.95 812.05,-1410.51 826.96,-1393.49 963.64,-1237.48 963.51,-534.29 961.88,-383.87"/>
<polygon fill="black" stroke="black" points="965.37,-383.59 961.75,-373.63 958.37,-383.67 965.37,-383.59"/>
</g>
<!-- agent_worker_structure&#45;&gt;agent_worker_principles -->
<!-- agent_worker_structure&#45;&gt;agent_worker_principles -->
<!-- agent_worker_structure&#45;&gt;agent_worker_principles -->
<!-- agent_worker_structure&#45;&gt;agent_worker_principles -->
<!-- agent_worker_principles&#45;&gt;skill_ref_specialist_output_schema -->
<g id="edge37" class="edge">
<title>agent_worker_principles&#45;&gt;skill_ref_specialist_output_schema</title>
<path fill="none" stroke="black" stroke-dasharray="1,5" d="M769.22,-1358.57C790.41,-1354.39 812.41,-1345.97 826.96,-1329.49 955.42,-1184.09 961.79,-528.88 961.61,-383.94"/>
<polygon fill="black" stroke="black" points="965.11,-383.66 961.58,-373.67 958.11,-383.68 965.11,-383.66"/>
</g>
<!-- agent_worker_principles&#45;&gt;agent_worker_code_reviewer -->
<!-- agent_worker_principles&#45;&gt;agent_worker_code_reviewer -->
<!-- agent_worker_env_validator&#45;&gt;skill_ref_specialist_output_schema -->
<g id="edge38" class="edge">
<title>agent_worker_env_validator&#45;&gt;skill_ref_specialist_output_schema</title>
<path fill="none" stroke="black" stroke-dasharray="1,5" d="M761.94,-405.69C796.26,-397.05 841.11,-385.77 879.59,-376.09"/>
<polygon fill="black" stroke="black" points="880.9,-379.37 889.74,-373.54 879.19,-372.58 880.9,-379.37"/>
</g>
<!-- agent_worker_env_validator&#45;&gt;agent_worker_codex_reviewer -->
<!-- agent_worker_env_validator&#45;&gt;agent_worker_codex_reviewer -->
<!-- agent_worker_rls_reviewer&#45;&gt;skill_ref_specialist_output_schema -->
<g id="edge39" class="edge">
<title>agent_worker_rls_reviewer&#45;&gt;skill_ref_specialist_output_schema</title>
<path fill="none" stroke="black" stroke-dasharray="1,5" d="M773.18,-733.33C792.39,-728.71 812.15,-720.84 826.96,-707.49 925.26,-618.94 952.19,-450.62 959.16,-383.83"/>
<polygon fill="black" stroke="black" points="962.67,-383.94 960.15,-373.65 955.7,-383.26 962.67,-383.94"/>
</g>
<!-- agent_worker_rls_reviewer&#45;&gt;agent_worker_spec_reviewer -->
<!-- agent_worker_rls_reviewer&#45;&gt;agent_worker_spec_reviewer -->
<!-- agent_worker_supabase_migration_checker&#45;&gt;skill_ref_specialist_output_schema -->
<g id="edge40" class="edge">
<title>agent_worker_supabase_migration_checker&#45;&gt;skill_ref_specialist_output_schema</title>
<path fill="none" stroke="black" stroke-dasharray="1,5" d="M799.95,-982.07C810.03,-977.47 819.36,-971.43 826.96,-963.49 909.02,-877.83 949.23,-492.21 959.04,-383.88"/>
<polygon fill="black" stroke="black" points="962.54,-383.99 959.94,-373.72 955.57,-383.37 962.54,-383.99"/>
</g>
<!-- agent_worker_supabase_migration_checker&#45;&gt;agent_worker_r_reviewer -->
<!-- agent_worker_supabase_migration_checker&#45;&gt;agent_worker_r_reviewer -->
<!-- agent_worker_data_validator&#45;&gt;skill_ref_specialist_output_schema -->
<g id="edge41" class="edge">
<title>agent_worker_data_validator&#45;&gt;skill_ref_specialist_output_schema</title>
<path fill="none" stroke="black" stroke-dasharray="1,5" d="M768.63,-471.56C787.83,-466.67 808.73,-460.08 826.96,-451.49 866.77,-432.74 907.16,-401.99 933.15,-380.36"/>
<polygon fill="black" stroke="black" points="935.67,-382.8 941.06,-373.68 931.16,-377.45 935.67,-382.8"/>
</g>
<!-- agent_worker_data_validator&#45;&gt;agent_worker_env_validator -->
<!-- agent_worker_data_validator&#45;&gt;agent_worker_env_validator -->
<!-- agent_worker_e2e_reviewer&#45;&gt;skill_ref_specialist_output_schema -->
<g id="edge42" class="edge">
<title>agent_worker_e2e_reviewer&#45;&gt;skill_ref_specialist_output_schema</title>
<path fill="none" stroke="black" stroke-dasharray="1,5" d="M776.76,-861.45C795.08,-856.76 813.47,-848.82 826.96,-835.49 893.07,-770.2 942.91,-476.68 957.26,-383.78"/>
<polygon fill="black" stroke="black" points="960.74,-384.13 958.79,-373.72 953.82,-383.08 960.74,-384.13"/>
</g>
<!-- agent_worker_e2e_reviewer&#45;&gt;agent_worker_hono_reviewer -->
<!-- agent_worker_e2e_reviewer&#45;&gt;agent_worker_hono_reviewer -->
<!-- agent_worker_spec_reviewer&#45;&gt;skill_ref_specialist_output_schema -->
<g id="edge43" class="edge">
<title>agent_worker_spec_reviewer&#45;&gt;skill_ref_specialist_output_schema</title>
<path fill="none" stroke="black" stroke-dasharray="1,5" d="M777.91,-667.31C795.4,-662.56 813.08,-655.12 826.96,-643.49 910.19,-573.77 944.93,-441.1 956.56,-383.43"/>
<polygon fill="black" stroke="black" points="960,-384.05 958.46,-373.56 953.13,-382.72 960,-384.05"/>
</g>
<!-- agent_worker_spec_reviewer&#45;&gt;agent_worker_llm_output_reviewer -->
<!-- agent_worker_spec_reviewer&#45;&gt;agent_worker_llm_output_reviewer -->
<!-- agent_worker_codex_reviewer&#45;&gt;skill_ref_specialist_output_schema -->
<g id="edge44" class="edge">
<title>agent_worker_codex_reviewer&#45;&gt;skill_ref_specialist_output_schema</title>
<path fill="none" stroke="black" stroke-dasharray="1,5" d="M782,-347.9C811.1,-347.13 844.62,-347.04 874.76,-347.63"/>
<polygon fill="black" stroke="black" points="874.76,-351.13 884.84,-347.85 874.92,-344.13 874.76,-351.13"/>
</g>
<!-- agent_worker_codex_reviewer&#45;&gt;skill_ref_specialist_output_schema -->
<!-- agent_worker_code_reviewer&#45;&gt;skill_ref_specialist_output_schema -->
<g id="edge45" class="edge">
<title>agent_worker_code_reviewer&#45;&gt;skill_ref_specialist_output_schema</title>
<path fill="none" stroke="black" stroke-dasharray="1,5" d="M777.46,-1288.97C796.02,-1283.39 814.35,-1274.29 826.96,-1259.49 943.33,-1122.96 959.06,-522.3 961.15,-383.97"/>
<polygon fill="black" stroke="black" points="964.65,-383.82 961.29,-373.77 957.65,-383.72 964.65,-383.82"/>
</g>
<!-- agent_worker_code_reviewer&#45;&gt;agent_worker_security_reviewer -->
<!-- agent_worker_code_reviewer&#45;&gt;agent_worker_security_reviewer -->
<!-- agent_worker_security_reviewer&#45;&gt;skill_ref_specialist_output_schema -->
<g id="edge46" class="edge">
<title>agent_worker_security_reviewer&#45;&gt;skill_ref_specialist_output_schema</title>
<path fill="none" stroke="black" stroke-dasharray="1,5" d="M787.04,-1179.65C802.07,-1174.73 816.37,-1167.13 826.96,-1155.49 933.22,-1038.72 956.52,-512.82 960.67,-384.03"/>
<polygon fill="black" stroke="black" points="964.17,-383.9 960.98,-373.8 957.18,-383.69 964.17,-383.9"/>
</g>
<!-- agent_worker_security_reviewer&#45;&gt;agent_worker_nextjs_reviewer -->
<!-- agent_worker_security_reviewer&#45;&gt;agent_worker_nextjs_reviewer -->
<!-- agent_worker_nextjs_reviewer&#45;&gt;skill_ref_specialist_output_schema -->
<g id="edge47" class="edge">
<title>agent_worker_nextjs_reviewer&#45;&gt;skill_ref_specialist_output_schema</title>
<path fill="none" stroke="black" stroke-dasharray="1,5" d="M783.19,-1116.69C799.57,-1111.84 815.41,-1104 826.96,-1091.49 925.2,-985.06 954.35,-505.49 960.23,-383.7"/>
<polygon fill="black" stroke="black" points="963.73,-383.82 960.7,-373.66 956.73,-383.49 963.73,-383.82"/>
</g>
<!-- agent_worker_nextjs_reviewer&#45;&gt;agent_worker_fastapi_reviewer -->
<!-- agent_worker_nextjs_reviewer&#45;&gt;agent_worker_fastapi_reviewer -->
<!-- agent_worker_fastapi_reviewer&#45;&gt;skill_ref_specialist_output_schema -->
<g id="edge48" class="edge">
<title>agent_worker_fastapi_reviewer&#45;&gt;skill_ref_specialist_output_schema</title>
<path fill="none" stroke="black" stroke-dasharray="1,5" d="M784.6,-1052.09C800.43,-1047.21 815.68,-1039.51 826.96,-1027.49 917.09,-931.48 951.91,-499.07 959.69,-383.8"/>
<polygon fill="black" stroke="black" points="963.19,-383.87 960.36,-373.66 956.21,-383.41 963.19,-383.87"/>
</g>
<!-- agent_worker_fastapi_reviewer&#45;&gt;agent_worker_supabase_migration_checker -->
<!-- agent_worker_fastapi_reviewer&#45;&gt;agent_worker_supabase_migration_checker -->
<!-- agent_worker_hono_reviewer&#45;&gt;skill_ref_specialist_output_schema -->
<g id="edge49" class="edge">
<title>agent_worker_hono_reviewer&#45;&gt;skill_ref_specialist_output_schema</title>
<path fill="none" stroke="black" stroke-dasharray="1,5" d="M779.55,-796.27C796.82,-791.5 813.99,-783.81 826.96,-771.49 940.81,-663.41 958.49,-458.43 961.08,-383.68"/>
<polygon fill="black" stroke="black" points="964.58,-383.72 961.36,-373.62 957.58,-383.52 964.58,-383.72"/>
</g>
<!-- agent_worker_hono_reviewer&#45;&gt;agent_worker_rls_reviewer -->
<!-- agent_worker_hono_reviewer&#45;&gt;agent_worker_rls_reviewer -->
<!-- agent_worker_r_reviewer&#45;&gt;skill_ref_specialist_output_schema -->
<g id="edge50" class="edge">
<title>agent_worker_r_reviewer&#45;&gt;skill_ref_specialist_output_schema</title>
<path fill="none" stroke="black" stroke-dasharray="1,5" d="M770.17,-927.33C790.7,-922.95 812.01,-914.72 826.96,-899.49 901.02,-824.06 946.27,-484.64 958.25,-383.82"/>
<polygon fill="black" stroke="black" points="961.74,-384.11 959.43,-373.77 954.79,-383.3 961.74,-384.11"/>
</g>
<!-- agent_worker_r_reviewer&#45;&gt;agent_worker_e2e_reviewer -->
<!-- agent_worker_r_reviewer&#45;&gt;agent_worker_e2e_reviewer -->
<!-- agent_worker_llm_output_reviewer&#45;&gt;skill_ref_specialist_output_schema -->
<g id="edge51" class="edge">
<title>agent_worker_llm_output_reviewer&#45;&gt;skill_ref_specialist_output_schema</title>
<path fill="none" stroke="black" stroke-dasharray="1,5" d="M784.63,-600.13C799.66,-595.44 814.57,-588.83 826.96,-579.49 895.32,-528.02 935.97,-430.76 952.63,-383.16"/>
<polygon fill="black" stroke="black" points="956,-384.11 955.91,-373.52 949.37,-381.85 956,-384.11"/>
</g>
<!-- agent_worker_llm_output_reviewer&#45;&gt;agent_worker_llm_eval_runner -->
<!-- agent_worker_llm_output_reviewer&#45;&gt;agent_worker_llm_eval_runner -->
<!-- agent_worker_llm_eval_runner&#45;&gt;skill_ref_specialist_output_schema -->
<g id="edge52" class="edge">
<title>agent_worker_llm_eval_runner&#45;&gt;skill_ref_specialist_output_schema</title>
<path fill="none" stroke="black" stroke-dasharray="1,5" d="M775.39,-536.89C793.09,-532.15 811.5,-525.32 826.96,-515.49 880.79,-481.27 924.12,-418.6 945.98,-382.69"/>
<polygon fill="black" stroke="black" points="949.2,-384.13 951.32,-373.75 943.19,-380.54 949.2,-384.13"/>
</g>
<!-- agent_worker_llm_eval_runner&#45;&gt;agent_worker_data_validator -->
<!-- agent_worker_llm_eval_runner&#45;&gt;agent_worker_data_validator -->
<!-- agent_e2e_quality&#45;&gt;skill_ref_specialist_output_schema -->
<g id="edge53" class="edge">
<title>agent_e2e_quality&#45;&gt;skill_ref_specialist_output_schema</title>
<path fill="none" stroke="black" stroke-dasharray="1,5" d="M750.49,-296.03C793.42,-304.56 859.26,-320.93 905.96,-334.58"/>
<polygon fill="black" stroke="black" points="905.03,-337.96 915.61,-337.45 907.02,-331.25 905.03,-337.96"/>
</g>
<!-- agent_e2e_quality&#45;&gt;skill_ref_specialist_output_schema -->
<!-- script_state_read -->
<g id="node31" class="node">
<title>script_state_read</title>
<polygon fill="#ff9800" stroke="black" points="495.22,-1567.49 469.54,-1591.98 418.16,-1591.98 392.47,-1567.49 418.16,-1543.01 469.54,-1543.01 495.22,-1567.49"/>
<text text-anchor="middle" x="443.85" y="-1570.49" font-family="Helvetica,sans-Serif" font-size="10.00">state&#45;read</text>
<text text-anchor="middle" x="443.85" y="-1559.49" font-family="Helvetica,sans-Serif" font-size="10.00">(4,288 tok)</text>
</g>
<!-- script_state_write -->
<g id="node32" class="node">
<title>script_state_write</title>
<polygon fill="#ff9800" stroke="black" points="495.22,-1496.49 469.54,-1520.98 418.16,-1520.98 392.47,-1496.49 418.16,-1472.01 469.54,-1472.01 495.22,-1496.49"/>
<text text-anchor="middle" x="443.85" y="-1499.49" font-family="Helvetica,sans-Serif" font-size="10.00">state&#45;write</text>
<text text-anchor="middle" x="443.85" y="-1488.49" font-family="Helvetica,sans-Serif" font-size="10.00">(4,288 tok)</text>
</g>
<!-- script_state_read&#45;&gt;script_state_write -->
<!-- script_state_read&#45;&gt;script_state_write -->
<!-- script_state_read&#45;&gt;script_state_write -->
<!-- script_state_write&#45;&gt;script_checkpoint_write -->
<!-- script_tech_stack_detect&#45;&gt;script_state_write -->
<!-- script_tech_stack_detect&#45;&gt;script_checkpoint_write -->
<!-- script_autopilot_parser&#45;&gt;script_tech_stack_detect -->
<!-- script_autopilot_parser&#45;&gt;script_tech_stack_detect -->
<!-- script_chain_runner&#45;&gt;script_compaction_resume -->
<!-- script_chain_runner&#45;&gt;script_compaction_resume -->
<!-- script_chain_runner&#45;&gt;script_compaction_resume -->
<!-- script_chain_runner&#45;&gt;script_compaction_resume -->
<!-- script_worktree_create -->
<g id="node36" class="node">
<title>script_worktree_create</title>
<polygon fill="#ff9800" stroke="black" points="512.52,-1780.49 478.18,-1804.98 409.51,-1804.98 375.17,-1780.49 409.51,-1756.01 478.18,-1756.01 512.52,-1780.49"/>
<text text-anchor="middle" x="443.85" y="-1783.49" font-family="Helvetica,sans-Serif" font-size="10.00">worktree&#45;create</text>
<text text-anchor="middle" x="443.85" y="-1772.49" font-family="Helvetica,sans-Serif" font-size="10.00">(3,307 tok)</text>
</g>
<!-- script_autopilot_github -->
<g id="node37" class="node">
<title>script_autopilot_github</title>
<polygon fill="#ff9800" stroke="black" points="511.39,-1851.49 477.62,-1875.98 410.08,-1875.98 376.31,-1851.49 410.08,-1827.01 477.62,-1827.01 511.39,-1851.49"/>
<text text-anchor="middle" x="443.85" y="-1854.49" font-family="Helvetica,sans-Serif" font-size="10.00">autopilot&#45;github</text>
<text text-anchor="middle" x="443.85" y="-1843.49" font-family="Helvetica,sans-Serif" font-size="10.00">(3,666 tok)</text>
</g>
<!-- script_chain_steps -->
<g id="node38" class="node">
<title>script_chain_steps</title>
<polygon fill="#ff9800" stroke="black" points="498.76,-1922.49 471.3,-1946.98 416.39,-1946.98 388.93,-1922.49 416.39,-1898.01 471.3,-1898.01 498.76,-1922.49"/>
<text text-anchor="middle" x="443.85" y="-1925.49" font-family="Helvetica,sans-Serif" font-size="10.00">chain&#45;steps</text>
<text text-anchor="middle" x="443.85" y="-1914.49" font-family="Helvetica,sans-Serif" font-size="10.00">(7,161 tok)</text>
</g>
<!-- script_resolve_issue_num -->
<g id="node40" class="node">
<title>script_resolve_issue_num</title>
<polygon fill="#ff9800" stroke="black" points="522.11,-1993.49 482.98,-2017.98 404.71,-2017.98 365.58,-1993.49 404.71,-1969.01 482.98,-1969.01 522.11,-1993.49"/>
<text text-anchor="middle" x="443.85" y="-1996.49" font-family="Helvetica,sans-Serif" font-size="10.00">resolve&#45;issue&#45;num</text>
<text text-anchor="middle" x="443.85" y="-1985.49" font-family="Helvetica,sans-Serif" font-size="10.00">(716 tok)</text>
</g>
<!-- script_checkpoint_write&#45;&gt;agent_worker_structure -->
</g>
</svg>
