<?xml version="1.0" encoding="UTF-8" standalone="no"?>
<!DOCTYPE svg PUBLIC "-//W3C//DTD SVG 1.1//EN"
 "http://www.w3.org/Graphics/SVG/1.1/DTD/svg11.dtd">
<!-- Generated by graphviz version 2.43.0 (0)
 -->
<!-- Title: Dependencies Pages: 1 -->
<svg width="725pt" height="1426pt"
 viewBox="0.00 0.00 725.49 1425.68" xmlns="http://www.w3.org/2000/svg" xmlns:xlink="http://www.w3.org/1999/xlink">
<g id="graph0" class="graph" transform="scale(1 1) rotate(0) translate(4 1421.68)">
<title>Dependencies</title>
<polygon fill="white" stroke="transparent" points="-4,4 -4,-1421.68 721.49,-1421.68 721.49,4 -4,4"/>
<text text-anchor="middle" x="358.74" y="-1402.48" font-family="Helvetica,sans-Serif" font-size="14.00">co&#45;project</text>
<!-- skill_co_project -->
<g id="node1" class="node">
<title>skill_co_project</title>
<ellipse fill="#c8e6c9" stroke="black" cx="53.03" cy="-796.19" rx="53.07" ry="21.43"/>
<text text-anchor="middle" x="53.03" y="-799.19" font-family="Helvetica,sans-Serif" font-size="10.00">twl:co&#45;project</text>
<text text-anchor="middle" x="53.03" y="-788.19" font-family="Helvetica,sans-Serif" font-size="10.00">(1,321 tok)</text>
</g>
<!-- skill_ref_types -->
<g id="node3" class="node">
<title>skill_ref_types</title>
<polygon fill="#e1f5fe" stroke="black" points="669.49,-405.19 604.49,-405.19 604.49,-369.19 675.49,-369.19 675.49,-399.19 669.49,-405.19"/>
<polyline fill="none" stroke="black" points="669.49,-405.19 669.49,-399.19 "/>
<polyline fill="none" stroke="black" points="675.49,-399.19 669.49,-399.19 "/>
<text text-anchor="middle" x="639.99" y="-390.19" font-family="Helvetica,sans-Serif" font-size="10.00">twl:ref&#45;types</text>
<text text-anchor="middle" x="639.99" y="-379.19" font-family="Helvetica,sans-Serif" font-size="10.00">(2,168 tok)</text>
</g>
<!-- skill_co_project&#45;&gt;skill_ref_types -->
<g id="edge19" class="edge">
<title>skill_co_project&#45;&gt;skill_ref_types</title>
<path fill="none" stroke="black" d="M55.38,-817.62C61.33,-904.47 88.36,-1228.52 164.07,-1289.19 223.78,-1337.04 453.09,-1293.89 504.49,-1237.19 617.45,-1112.55 635.75,-549.57 638.52,-415.78"/>
<polygon fill="black" stroke="black" points="642.02,-415.6 638.72,-405.53 635.03,-415.46 642.02,-415.6"/>
</g>
<!-- skill_ref_practices -->
<g id="node4" class="node">
<title>skill_ref_practices</title>
<polygon fill="#e1f5fe" stroke="black" points="676.99,-106.19 596.99,-106.19 596.99,-70.19 682.99,-70.19 682.99,-100.19 676.99,-106.19"/>
<polyline fill="none" stroke="black" points="676.99,-106.19 676.99,-100.19 "/>
<polyline fill="none" stroke="black" points="682.99,-100.19 676.99,-100.19 "/>
<text text-anchor="middle" x="639.99" y="-91.19" font-family="Helvetica,sans-Serif" font-size="10.00">twl:ref&#45;practices</text>
<text text-anchor="middle" x="639.99" y="-80.19" font-family="Helvetica,sans-Serif" font-size="10.00">(6,372 tok)</text>
</g>
<!-- skill_co_project&#45;&gt;skill_ref_practices -->
<g id="edge20" class="edge">
<title>skill_co_project&#45;&gt;skill_ref_practices</title>
<path fill="none" stroke="black" d="M55.25,-774.84C60.02,-704.09 81.41,-472.16 164.07,-303.19 225.1,-178.41 237.41,-121.39 363.07,-62.19 435.28,-28.16 529.78,-49.16 587.35,-68.15"/>
<polygon fill="black" stroke="black" points="586.36,-71.51 596.96,-71.41 588.61,-64.88 586.36,-71.51"/>
</g>
<!-- skill_ref_deps_format -->
<g id="node5" class="node">
<title>skill_ref_deps_format</title>
<polygon fill="#e1f5fe" stroke="black" points="682.99,-48.19 590.99,-48.19 590.99,-12.19 688.99,-12.19 688.99,-42.19 682.99,-48.19"/>
<polyline fill="none" stroke="black" points="682.99,-48.19 682.99,-42.19 "/>
<polyline fill="none" stroke="black" points="688.99,-42.19 682.99,-42.19 "/>
<text text-anchor="middle" x="639.99" y="-33.19" font-family="Helvetica,sans-Serif" font-size="10.00">twl:ref&#45;deps&#45;format</text>
<text text-anchor="middle" x="639.99" y="-22.19" font-family="Helvetica,sans-Serif" font-size="10.00">(1,832 tok)</text>
</g>
<!-- skill_co_project&#45;&gt;skill_ref_deps_format -->
<g id="edge21" class="edge">
<title>skill_co_project&#45;&gt;skill_ref_deps_format</title>
<path fill="none" stroke="black" d="M54.32,-774.73C56.19,-667.91 69.76,-194.53 164.07,-90.19 269.66,26.65 479.14,3.39 580.86,-16.57"/>
<polygon fill="black" stroke="black" points="580.46,-20.06 590.95,-18.61 581.84,-13.2 580.46,-20.06"/>
</g>
<!-- cmd_project_create -->
<g id="node7" class="node">
<title>cmd_project_create</title>
<polygon fill="#e3f2fd" stroke="black" points="272.57,-1382.19 196.57,-1382.19 196.57,-1346.19 272.57,-1346.19 272.57,-1382.19"/>
<text text-anchor="middle" x="234.57" y="-1367.19" font-family="Helvetica,sans-Serif" font-size="10.00">project&#45;create</text>
<text text-anchor="middle" x="234.57" y="-1356.19" font-family="Helvetica,sans-Serif" font-size="10.00">(450 tok)</text>
</g>
<!-- skill_co_project&#45;&gt;cmd_project_create -->
<g id="edge1" class="edge">
<title>skill_co_project&#45;&gt;cmd_project_create</title>
<path fill="none" stroke="black" d="M55.96,-817.49C64.37,-906.25 100.27,-1245.94 164.07,-1329.19 170.17,-1337.15 178.58,-1343.43 187.44,-1348.35"/>
<polygon fill="black" stroke="black" points="185.88,-1351.48 196.39,-1352.82 189.01,-1345.22 185.88,-1351.48"/>
</g>
<!-- cmd_project_governance -->
<g id="node8" class="node">
<title>cmd_project_governance</title>
<polygon fill="#e3f2fd" stroke="black" points="284.07,-1278.19 185.07,-1278.19 185.07,-1242.19 284.07,-1242.19 284.07,-1278.19"/>
<text text-anchor="middle" x="234.57" y="-1263.19" font-family="Helvetica,sans-Serif" font-size="10.00">project&#45;governance</text>
<text text-anchor="middle" x="234.57" y="-1252.19" font-family="Helvetica,sans-Serif" font-size="10.00">(974 tok)</text>
</g>
<!-- skill_co_project&#45;&gt;cmd_project_governance -->
<g id="edge2" class="edge">
<title>skill_co_project&#45;&gt;cmd_project_governance</title>
<path fill="none" stroke="black" d="M56.88,-817.57C67.72,-896.03 108.55,-1166.81 164.07,-1231.19 167.5,-1235.17 171.57,-1238.61 175.99,-1241.6"/>
<polygon fill="black" stroke="black" points="174.45,-1244.75 184.86,-1246.77 177.99,-1238.71 174.45,-1244.75"/>
</g>
<!-- cmd_project_migrate -->
<g id="node9" class="node">
<title>cmd_project_migrate</title>
<polygon fill="#e3f2fd" stroke="black" points="275.07,-1220.19 194.07,-1220.19 194.07,-1184.19 275.07,-1184.19 275.07,-1220.19"/>
<text text-anchor="middle" x="234.57" y="-1205.19" font-family="Helvetica,sans-Serif" font-size="10.00">project&#45;migrate</text>
<text text-anchor="middle" x="234.57" y="-1194.19" font-family="Helvetica,sans-Serif" font-size="10.00">(472 tok)</text>
</g>
<!-- skill_co_project&#45;&gt;cmd_project_migrate -->
<g id="edge3" class="edge">
<title>skill_co_project&#45;&gt;cmd_project_migrate</title>
<path fill="none" stroke="black" d="M54.16,-817.54C55.66,-880.26 68.38,-1066.21 164.07,-1173.19 169.77,-1179.56 177.09,-1184.57 184.84,-1188.5"/>
<polygon fill="black" stroke="black" points="183.5,-1191.73 194.05,-1192.63 186.36,-1185.34 183.5,-1191.73"/>
</g>
<!-- cmd_container_dependency_check -->
<g id="node10" class="node">
<title>cmd_container_dependency_check</title>
<polygon fill="#e3f2fd" stroke="black" points="305.07,-1162.19 164.07,-1162.19 164.07,-1126.19 305.07,-1126.19 305.07,-1162.19"/>
<text text-anchor="middle" x="234.57" y="-1147.19" font-family="Helvetica,sans-Serif" font-size="10.00">container&#45;dependency&#45;check</text>
<text text-anchor="middle" x="234.57" y="-1136.19" font-family="Helvetica,sans-Serif" font-size="10.00">(493 tok)</text>
</g>
<!-- skill_co_project&#45;&gt;cmd_container_dependency_check -->
<g id="edge4" class="edge">
<title>skill_co_project&#45;&gt;cmd_container_dependency_check</title>
<path fill="none" stroke="black" d="M55.5,-817.46C60.45,-873.51 81.27,-1026.98 164.07,-1115.19 165.67,-1116.89 167.38,-1118.5 169.19,-1120.01"/>
<polygon fill="black" stroke="black" points="167.46,-1123.08 177.62,-1126.09 171.55,-1117.4 167.46,-1123.08"/>
</g>
<!-- cmd_setup_crg -->
<g id="node11" class="node">
<title>cmd_setup_crg</title>
<polygon fill="#e3f2fd" stroke="black" points="263.07,-1104.19 206.07,-1104.19 206.07,-1068.19 263.07,-1068.19 263.07,-1104.19"/>
<text text-anchor="middle" x="234.57" y="-1089.19" font-family="Helvetica,sans-Serif" font-size="10.00">setup&#45;crg</text>
<text text-anchor="middle" x="234.57" y="-1078.19" font-family="Helvetica,sans-Serif" font-size="10.00">(754 tok)</text>
</g>
<!-- skill_co_project&#45;&gt;cmd_setup_crg -->
<g id="edge5" class="edge">
<title>skill_co_project&#45;&gt;cmd_setup_crg</title>
<path fill="none" stroke="black" d="M57.39,-817.49C66.15,-866.31 94.05,-987.42 164.07,-1057.19 172.97,-1066.05 184.98,-1072.35 196.51,-1076.76"/>
<polygon fill="black" stroke="black" points="195.41,-1080.08 206.01,-1080.03 197.69,-1073.46 195.41,-1080.08"/>
</g>
<!-- cmd_snapshot_analyze -->
<g id="node12" class="node">
<title>cmd_snapshot_analyze</title>
<polygon fill="#e3f2fd" stroke="black" points="281.07,-1046.19 188.07,-1046.19 188.07,-1010.19 281.07,-1010.19 281.07,-1046.19"/>
<text text-anchor="middle" x="234.57" y="-1031.19" font-family="Helvetica,sans-Serif" font-size="10.00">snapshot&#45;analyze</text>
<text text-anchor="middle" x="234.57" y="-1020.19" font-family="Helvetica,sans-Serif" font-size="10.00">(600 tok)</text>
</g>
<!-- skill_co_project&#45;&gt;cmd_snapshot_analyze -->
<g id="edge6" class="edge">
<title>skill_co_project&#45;&gt;cmd_snapshot_analyze</title>
<path fill="none" stroke="black" d="M60.21,-817.28C73.1,-857.82 106.51,-947.19 164.07,-999.19 168.48,-1003.17 173.52,-1006.66 178.82,-1009.69"/>
<polygon fill="black" stroke="black" points="177.44,-1012.92 187.93,-1014.39 180.64,-1006.7 177.44,-1012.92"/>
</g>
<!-- cmd_snapshot_classify -->
<g id="node13" class="node">
<title>cmd_snapshot_classify</title>
<polygon fill="#e3f2fd" stroke="black" points="281.07,-988.19 188.07,-988.19 188.07,-952.19 281.07,-952.19 281.07,-988.19"/>
<text text-anchor="middle" x="234.57" y="-973.19" font-family="Helvetica,sans-Serif" font-size="10.00">snapshot&#45;classify</text>
<text text-anchor="middle" x="234.57" y="-962.19" font-family="Helvetica,sans-Serif" font-size="10.00">(870 tok)</text>
</g>
<!-- skill_co_project&#45;&gt;cmd_snapshot_classify -->
<g id="edge7" class="edge">
<title>skill_co_project&#45;&gt;cmd_snapshot_classify</title>
<path fill="none" stroke="black" d="M65.04,-816.96C82.35,-847.87 118.7,-906.09 164.07,-941.19 168.64,-944.72 173.7,-947.9 178.95,-950.74"/>
<polygon fill="black" stroke="black" points="177.4,-953.88 187.91,-955.21 180.52,-947.61 177.4,-953.88"/>
</g>
<!-- cmd_snapshot_generate -->
<g id="node14" class="node">
<title>cmd_snapshot_generate</title>
<polygon fill="#e3f2fd" stroke="black" points="283.07,-930.19 186.07,-930.19 186.07,-894.19 283.07,-894.19 283.07,-930.19"/>
<text text-anchor="middle" x="234.57" y="-915.19" font-family="Helvetica,sans-Serif" font-size="10.00">snapshot&#45;generate</text>
<text text-anchor="middle" x="234.57" y="-904.19" font-family="Helvetica,sans-Serif" font-size="10.00">(735 tok)</text>
</g>
<!-- skill_co_project&#45;&gt;cmd_snapshot_generate -->
<g id="edge8" class="edge">
<title>skill_co_project&#45;&gt;cmd_snapshot_generate</title>
<path fill="none" stroke="black" d="M75.08,-815.73C96.33,-834.74 130.7,-863.54 164.07,-883.19 168.15,-885.59 172.46,-887.89 176.87,-890.08"/>
<polygon fill="black" stroke="black" points="175.45,-893.28 185.99,-894.38 178.44,-886.95 175.45,-893.28"/>
</g>
<!-- cmd_plugin_interview -->
<g id="node15" class="node">
<title>cmd_plugin_interview</title>
<polygon fill="#e3f2fd" stroke="black" points="276.57,-872.19 192.57,-872.19 192.57,-836.19 276.57,-836.19 276.57,-872.19"/>
<text text-anchor="middle" x="234.57" y="-857.19" font-family="Helvetica,sans-Serif" font-size="10.00">plugin&#45;interview</text>
<text text-anchor="middle" x="234.57" y="-846.19" font-family="Helvetica,sans-Serif" font-size="10.00">(1,086 tok)</text>
</g>
<!-- skill_co_project&#45;&gt;cmd_plugin_interview -->
<g id="edge9" class="edge">
<title>skill_co_project&#45;&gt;cmd_plugin_interview</title>
<path fill="none" stroke="black" d="M94.77,-809.35C120.87,-817.78 154.94,-828.79 182.8,-837.78"/>
<polygon fill="black" stroke="black" points="181.78,-841.13 192.37,-840.88 183.93,-834.47 181.78,-841.13"/>
</g>
<!-- cmd_plugin_research -->
<g id="node16" class="node">
<title>cmd_plugin_research</title>
<polygon fill="#e3f2fd" stroke="black" points="276.07,-814.19 193.07,-814.19 193.07,-778.19 276.07,-778.19 276.07,-814.19"/>
<text text-anchor="middle" x="234.57" y="-799.19" font-family="Helvetica,sans-Serif" font-size="10.00">plugin&#45;research</text>
<text text-anchor="middle" x="234.57" y="-788.19" font-family="Helvetica,sans-Serif" font-size="10.00">(655 tok)</text>
</g>
<!-- skill_co_project&#45;&gt;cmd_plugin_research -->
<g id="edge10" class="edge">
<title>skill_co_project&#45;&gt;cmd_plugin_research</title>
<path fill="none" stroke="black" d="M106.44,-796.19C130.43,-796.19 158.74,-796.19 182.55,-796.19"/>
<polygon fill="black" stroke="black" points="182.79,-799.69 192.79,-796.19 182.79,-792.69 182.79,-799.69"/>
</g>
<!-- cmd_plugin_design -->
<g id="node17" class="node">
<title>cmd_plugin_design</title>
<polygon fill="#e3f2fd" stroke="black" points="271.57,-756.19 197.57,-756.19 197.57,-720.19 271.57,-720.19 271.57,-756.19"/>
<text text-anchor="middle" x="234.57" y="-741.19" font-family="Helvetica,sans-Serif" font-size="10.00">plugin&#45;design</text>
<text text-anchor="middle" x="234.57" y="-730.19" font-family="Helvetica,sans-Serif" font-size="10.00">(1,192 tok)</text>
</g>
<!-- skill_co_project&#45;&gt;cmd_plugin_design -->
<g id="edge11" class="edge">
<title>skill_co_project&#45;&gt;cmd_plugin_design</title>
<path fill="none" stroke="black" d="M94.77,-783.02C122.44,-774.09 159.08,-762.25 187.76,-752.98"/>
<polygon fill="black" stroke="black" points="189.11,-756.23 197.55,-749.82 186.96,-749.56 189.11,-756.23"/>
</g>
<!-- cmd_plugin_generate -->
<g id="node18" class="node">
<title>cmd_plugin_generate</title>
<polygon fill="#e3f2fd" stroke="black" points="276.07,-698.19 193.07,-698.19 193.07,-662.19 276.07,-662.19 276.07,-698.19"/>
<text text-anchor="middle" x="234.57" y="-683.19" font-family="Helvetica,sans-Serif" font-size="10.00">plugin&#45;generate</text>
<text text-anchor="middle" x="234.57" y="-672.19" font-family="Helvetica,sans-Serif" font-size="10.00">(2,082 tok)</text>
</g>
<!-- skill_co_project&#45;&gt;cmd_plugin_generate -->
<g id="edge12" class="edge">
<title>skill_co_project&#45;&gt;cmd_plugin_generate</title>
<path fill="none" stroke="black" d="M75.08,-776.64C96.33,-757.64 130.7,-728.83 164.07,-709.19 170.26,-705.54 177,-702.12 183.77,-699"/>
<polygon fill="black" stroke="black" points="185.23,-702.18 192.97,-694.93 182.4,-695.77 185.23,-702.18"/>
</g>
<!-- cmd_plugin_migrate_analyze -->
<g id="node19" class="node">
<title>cmd_plugin_migrate_analyze</title>
<polygon fill="#e3f2fd" stroke="black" points="291.57,-640.19 177.57,-640.19 177.57,-604.19 291.57,-604.19 291.57,-640.19"/>
<text text-anchor="middle" x="234.57" y="-625.19" font-family="Helvetica,sans-Serif" font-size="10.00">plugin&#45;migrate&#45;analyze</text>
<text text-anchor="middle" x="234.57" y="-614.19" font-family="Helvetica,sans-Serif" font-size="10.00">(458 tok)</text>
</g>
<!-- skill_co_project&#45;&gt;cmd_plugin_migrate_analyze -->
<g id="edge13" class="edge">
<title>skill_co_project&#45;&gt;cmd_plugin_migrate_analyze</title>
<path fill="none" stroke="black" d="M65.04,-775.41C82.35,-744.5 118.7,-686.28 164.07,-651.19 166.7,-649.15 169.5,-647.22 172.41,-645.42"/>
<polygon fill="black" stroke="black" points="174.41,-648.31 181.39,-640.34 170.96,-642.22 174.41,-648.31"/>
</g>
<!-- cmd_plugin_diagnose -->
<g id="node20" class="node">
<title>cmd_plugin_diagnose</title>
<polygon fill="#e3f2fd" stroke="black" points="276.57,-582.19 192.57,-582.19 192.57,-546.19 276.57,-546.19 276.57,-582.19"/>
<text text-anchor="middle" x="234.57" y="-567.19" font-family="Helvetica,sans-Serif" font-size="10.00">plugin&#45;diagnose</text>
<text text-anchor="middle" x="234.57" y="-556.19" font-family="Helvetica,sans-Serif" font-size="10.00">(944 tok)</text>
</g>
<!-- skill_co_project&#45;&gt;cmd_plugin_diagnose -->
<g id="edge14" class="edge">
<title>skill_co_project&#45;&gt;cmd_plugin_diagnose</title>
<path fill="none" stroke="black" d="M60.21,-775.09C73.1,-734.55 106.51,-645.18 164.07,-593.19 169.6,-588.18 176.12,-583.97 182.92,-580.44"/>
<polygon fill="black" stroke="black" points="184.71,-583.47 192.28,-576.05 181.74,-577.13 184.71,-583.47"/>
</g>
<!-- cmd_plugin_fix -->
<g id="node21" class="node">
<title>cmd_plugin_fix</title>
<polygon fill="#e3f2fd" stroke="black" points="266.07,-524.19 203.07,-524.19 203.07,-488.19 266.07,-488.19 266.07,-524.19"/>
<text text-anchor="middle" x="234.57" y="-509.19" font-family="Helvetica,sans-Serif" font-size="10.00">plugin&#45;fix</text>
<text text-anchor="middle" x="234.57" y="-498.19" font-family="Helvetica,sans-Serif" font-size="10.00">(1,074 tok)</text>
</g>
<!-- skill_co_project&#45;&gt;cmd_plugin_fix -->
<g id="edge15" class="edge">
<title>skill_co_project&#45;&gt;cmd_plugin_fix</title>
<path fill="none" stroke="black" d="M57.39,-774.88C66.15,-726.06 94.05,-604.95 164.07,-535.19 172.15,-527.13 182.8,-521.2 193.33,-516.88"/>
<polygon fill="black" stroke="black" points="194.72,-520.09 202.88,-513.34 192.29,-513.53 194.72,-520.09"/>
</g>
<!-- cmd_plugin_verify -->
<g id="node22" class="node">
<title>cmd_plugin_verify</title>
<polygon fill="#e3f2fd" stroke="black" points="269.07,-466.19 200.07,-466.19 200.07,-430.19 269.07,-430.19 269.07,-466.19"/>
<text text-anchor="middle" x="234.57" y="-451.19" font-family="Helvetica,sans-Serif" font-size="10.00">plugin&#45;verify</text>
<text text-anchor="middle" x="234.57" y="-440.19" font-family="Helvetica,sans-Serif" font-size="10.00">(518 tok)</text>
</g>
<!-- skill_co_project&#45;&gt;cmd_plugin_verify -->
<g id="edge16" class="edge">
<title>skill_co_project&#45;&gt;cmd_plugin_verify</title>
<path fill="none" stroke="black" d="M55.5,-774.91C60.45,-718.86 81.27,-565.39 164.07,-477.19 171.18,-469.61 180.58,-463.94 190.16,-459.73"/>
<polygon fill="black" stroke="black" points="191.68,-462.89 199.71,-455.98 189.13,-456.37 191.68,-462.89"/>
</g>
<!-- cmd_plugin_phase_diagnose -->
<g id="node23" class="node">
<title>cmd_plugin_phase_diagnose</title>
<polygon fill="#bbdefb" stroke="black" points="291.07,-408.19 178.07,-408.19 178.07,-372.19 291.07,-372.19 291.07,-408.19"/>
<text text-anchor="middle" x="234.57" y="-393.19" font-family="Helvetica,sans-Serif" font-size="10.00">plugin&#45;phase&#45;diagnose</text>
<text text-anchor="middle" x="234.57" y="-382.19" font-family="Helvetica,sans-Serif" font-size="10.00">(631 tok)</text>
</g>
<!-- skill_co_project&#45;&gt;cmd_plugin_phase_diagnose -->
<g id="edge17" class="edge">
<title>skill_co_project&#45;&gt;cmd_plugin_phase_diagnose</title>
<path fill="none" stroke="black" d="M54.16,-774.83C55.66,-712.11 68.38,-526.16 164.07,-419.19 165.78,-417.27 167.65,-415.47 169.62,-413.79"/>
<polygon fill="black" stroke="black" points="171.72,-416.59 177.75,-407.88 167.6,-410.93 171.72,-416.59"/>
</g>
<!-- cmd_plugin_phase_verify -->
<g id="node24" class="node">
<title>cmd_plugin_phase_verify</title>
<polygon fill="#bbdefb" stroke="black" points="283.57,-350.19 185.57,-350.19 185.57,-314.19 283.57,-314.19 283.57,-350.19"/>
<text text-anchor="middle" x="234.57" y="-335.19" font-family="Helvetica,sans-Serif" font-size="10.00">plugin&#45;phase&#45;verify</text>
<text text-anchor="middle" x="234.57" y="-324.19" font-family="Helvetica,sans-Serif" font-size="10.00">(634 tok)</text>
</g>
<!-- skill_co_project&#45;&gt;cmd_plugin_phase_verify -->
<g id="edge18" class="edge">
<title>skill_co_project&#45;&gt;cmd_plugin_phase_verify</title>
<path fill="none" stroke="black" d="M56.88,-774.8C67.72,-696.34 108.55,-425.56 164.07,-361.19 167.69,-356.98 172.03,-353.37 176.75,-350.27"/>
<polygon fill="black" stroke="black" points="178.62,-353.24 185.57,-345.24 175.15,-347.16 178.62,-353.24"/>
</g>
<!-- skill_ref_specialist_output_schema -->
<g id="node2" class="node">
<title>skill_ref_specialist_output_schema</title>
<polygon fill="#e1f5fe" stroke="black" points="711.49,-222.19 562.49,-222.19 562.49,-186.19 717.49,-186.19 717.49,-216.19 711.49,-222.19"/>
<polyline fill="none" stroke="black" points="711.49,-222.19 711.49,-216.19 "/>
<polyline fill="none" stroke="black" points="717.49,-216.19 711.49,-216.19 "/>
<text text-anchor="middle" x="639.99" y="-207.19" font-family="Helvetica,sans-Serif" font-size="10.00">twl:ref&#45;specialist&#45;output&#45;schema</text>
<text text-anchor="middle" x="639.99" y="-196.19" font-family="Helvetica,sans-Serif" font-size="10.00">(2,563 tok)</text>
</g>
<!-- skill_ref_architecture -->
<g id="node6" class="node">
<title>skill_ref_architecture</title>
<polygon fill="#e1f5fe" stroke="black" points="682.99,-164.19 590.99,-164.19 590.99,-128.19 688.99,-128.19 688.99,-158.19 682.99,-164.19"/>
<polyline fill="none" stroke="black" points="682.99,-164.19 682.99,-158.19 "/>
<polyline fill="none" stroke="black" points="688.99,-158.19 682.99,-158.19 "/>
<text text-anchor="middle" x="639.99" y="-149.19" font-family="Helvetica,sans-Serif" font-size="10.00">twl:ref&#45;architecture</text>
<text text-anchor="middle" x="639.99" y="-138.19" font-family="Helvetica,sans-Serif" font-size="10.00">(2,273 tok)</text>
</g>
<!-- skill_ref_specialist_output_schema&#45;&gt;skill_ref_architecture -->
<!-- skill_ref_specialist_output_schema&#45;&gt;skill_ref_architecture -->
<!-- skill_ref_types&#45;&gt;skill_ref_practices -->
<!-- skill_ref_practices&#45;&gt;skill_ref_deps_format -->
<!-- cmd_project_create&#45;&gt;cmd_project_governance -->
<!-- script_project_create -->
<g id="node28" class="node">
<title>script_project_create</title>
<polygon fill="#ff9800" stroke="black" points="495.88,-1370.19 464.83,-1394.68 402.72,-1394.68 371.67,-1370.19 402.72,-1345.7 464.83,-1345.7 495.88,-1370.19"/>
<text text-anchor="middle" x="433.78" y="-1373.19" font-family="Helvetica,sans-Serif" font-size="10.00">project&#45;create</text>
<text text-anchor="middle" x="433.78" y="-1362.19" font-family="Helvetica,sans-Serif" font-size="10.00">(4,935 tok)</text>
</g>
<!-- cmd_project_create&#45;&gt;script_project_create -->
<g id="edge22" class="edge">
<title>cmd_project_create&#45;&gt;script_project_create</title>
<path fill="none" stroke="black" d="M272.66,-1365.31C298.22,-1366.09 332.97,-1367.15 363.56,-1368.08"/>
<polygon fill="black" stroke="black" points="363.65,-1371.58 373.76,-1368.39 363.87,-1364.59 363.65,-1371.58"/>
</g>
<!-- cmd_project_governance&#45;&gt;cmd_project_migrate -->
<!-- cmd_project_migrate&#45;&gt;cmd_container_dependency_check -->
<!-- script_project_migrate -->
<g id="node29" class="node">
<title>script_project_migrate</title>
<polygon fill="#ff9800" stroke="black" points="500.05,-1202.19 466.91,-1226.68 400.64,-1226.68 367.5,-1202.19 400.64,-1177.7 466.91,-1177.7 500.05,-1202.19"/>
<text text-anchor="middle" x="433.78" y="-1205.19" font-family="Helvetica,sans-Serif" font-size="10.00">project&#45;migrate</text>
<text text-anchor="middle" x="433.78" y="-1194.19" font-family="Helvetica,sans-Serif" font-size="10.00">(2,333 tok)</text>
</g>
<!-- cmd_project_migrate&#45;&gt;script_project_migrate -->
<g id="edge23" class="edge">
<title>cmd_project_migrate&#45;&gt;script_project_migrate</title>
<path fill="none" stroke="black" d="M275.47,-1202.19C298.93,-1202.19 329.35,-1202.19 357.19,-1202.19"/>
<polygon fill="black" stroke="black" points="357.31,-1205.69 367.31,-1202.19 357.31,-1198.69 357.31,-1205.69"/>
</g>
<!-- cmd_container_dependency_check&#45;&gt;cmd_setup_crg -->
<!-- cmd_setup_crg&#45;&gt;cmd_snapshot_analyze -->
<!-- cmd_snapshot_analyze&#45;&gt;cmd_snapshot_classify -->
<!-- cmd_snapshot_classify&#45;&gt;cmd_snapshot_generate -->
<!-- cmd_snapshot_generate&#45;&gt;cmd_plugin_interview -->
<!-- cmd_plugin_interview&#45;&gt;cmd_plugin_research -->
<!-- cmd_plugin_research&#45;&gt;cmd_plugin_design -->
<!-- cmd_plugin_design&#45;&gt;cmd_plugin_generate -->
<!-- cmd_plugin_generate&#45;&gt;cmd_plugin_migrate_analyze -->
<!-- cmd_plugin_migrate_analyze&#45;&gt;cmd_plugin_diagnose -->
<!-- cmd_plugin_diagnose&#45;&gt;cmd_plugin_fix -->
<!-- cmd_plugin_fix&#45;&gt;cmd_plugin_verify -->
<!-- cmd_plugin_verify&#45;&gt;cmd_plugin_phase_diagnose -->
<!-- cmd_plugin_phase_diagnose&#45;&gt;skill_ref_specialist_output_schema -->
<g id="edge27" class="edge">
<title>cmd_plugin_phase_diagnose&#45;&gt;skill_ref_specialist_output_schema</title>
<path fill="none" stroke="black" d="M291.3,-396.6C348.24,-400.56 437.54,-399.39 504.49,-364.19 561.54,-334.19 604.17,-268.79 624.93,-231.56"/>
<polygon fill="black" stroke="black" points="628.26,-232.75 629.96,-222.3 622.11,-229.41 628.26,-232.75"/>
</g>
<!-- cmd_plugin_phase_diagnose&#45;&gt;skill_ref_architecture -->
<g id="edge28" class="edge">
<title>cmd_plugin_phase_diagnose&#45;&gt;skill_ref_architecture</title>
<path fill="none" stroke="black" d="M291.32,-372.44C296.4,-369.27 301.11,-365.54 305.07,-361.19 364.09,-296.1 294.94,-227.67 363.07,-172.19 423.99,-122.57 519.46,-125.67 580.62,-134.43"/>
<polygon fill="black" stroke="black" points="580.46,-137.94 590.87,-135.99 581.52,-131.02 580.46,-137.94"/>
</g>
<!-- cmd_plugin_phase_diagnose&#45;&gt;cmd_plugin_phase_verify -->
<!-- agent_worker_structure -->
<g id="node25" class="node">
<title>agent_worker_structure</title>
<ellipse fill="#ede7f6" stroke="black" cx="433.78" cy="-332.19" rx="61.54" ry="21.43"/>
<text text-anchor="middle" x="433.78" y="-335.19" font-family="Helvetica,sans-Serif" font-size="10.00">worker&#45;structure</text>
<text text-anchor="middle" x="433.78" y="-324.19" font-family="Helvetica,sans-Serif" font-size="10.00">(1,244 tok)</text>
</g>
<!-- cmd_plugin_phase_diagnose&#45;&gt;agent_worker_structure -->
<g id="edge24" class="edge">
<title>cmd_plugin_phase_diagnose&#45;&gt;agent_worker_structure</title>
<path fill="none" stroke="black" stroke-dasharray="5,2" d="M291.29,-373.8C318.07,-365.92 350.09,-356.5 376.89,-348.62"/>
<polygon fill="black" stroke="black" points="377.91,-351.97 386.51,-345.79 375.93,-345.26 377.91,-351.97"/>
</g>
<!-- agent_worker_principles -->
<g id="node26" class="node">
<title>agent_worker_principles</title>
<ellipse fill="#ede7f6" stroke="black" cx="433.78" cy="-268.19" rx="63.78" ry="21.43"/>
<text text-anchor="middle" x="433.78" y="-271.19" font-family="Helvetica,sans-Serif" font-size="10.00">worker&#45;principles</text>
<text text-anchor="middle" x="433.78" y="-260.19" font-family="Helvetica,sans-Serif" font-size="10.00">(1,154 tok)</text>
</g>
<!-- cmd_plugin_phase_diagnose&#45;&gt;agent_worker_principles -->
<g id="edge25" class="edge">
<title>cmd_plugin_phase_diagnose&#45;&gt;agent_worker_principles</title>
<path fill="none" stroke="black" stroke-dasharray="5,2" d="M285.87,-372.17C292.56,-368.93 299.14,-365.26 305.07,-361.19 335.88,-339.97 332.63,-321.94 363.07,-300.19 368.95,-295.98 375.48,-292.12 382.11,-288.65"/>
<polygon fill="black" stroke="black" points="383.76,-291.73 391.16,-284.15 380.65,-285.46 383.76,-291.73"/>
</g>
<!-- agent_worker_architecture -->
<g id="node27" class="node">
<title>agent_worker_architecture</title>
<ellipse fill="#ede7f6" stroke="black" cx="433.78" cy="-204.19" rx="70.92" ry="21.43"/>
<text text-anchor="middle" x="433.78" y="-207.19" font-family="Helvetica,sans-Serif" font-size="10.00">worker&#45;architecture</text>
<text text-anchor="middle" x="433.78" y="-196.19" font-family="Helvetica,sans-Serif" font-size="10.00">(2,186 tok)</text>
</g>
<!-- cmd_plugin_phase_diagnose&#45;&gt;agent_worker_architecture -->
<g id="edge26" class="edge">
<title>cmd_plugin_phase_diagnose&#45;&gt;agent_worker_architecture</title>
<path fill="none" stroke="black" stroke-dasharray="5,2" d="M290.39,-372.07C295.71,-368.96 300.73,-365.35 305.07,-361.19 349.21,-318.73 319.67,-279.4 363.07,-236.19 367.24,-232.03 372.05,-228.36 377.15,-225.12"/>
<polygon fill="black" stroke="black" points="379.01,-228.09 385.95,-220.09 375.53,-222.01 379.01,-228.09"/>
</g>
<!-- cmd_plugin_phase_verify&#45;&gt;skill_ref_specialist_output_schema -->
<g id="edge32" class="edge">
<title>cmd_plugin_phase_verify&#45;&gt;skill_ref_specialist_output_schema</title>
<path fill="none" stroke="black" d="M243.33,-314.11C259.56,-278.95 300.83,-202.17 363.07,-172.19 419.69,-144.9 442.06,-164.86 504.49,-172.19 524.88,-174.58 546.66,-178.95 566.63,-183.7"/>
<polygon fill="black" stroke="black" points="566.03,-187.16 576.58,-186.14 567.7,-180.36 566.03,-187.16"/>
</g>
<!-- cmd_plugin_phase_verify&#45;&gt;skill_ref_types -->
<!-- cmd_plugin_phase_verify&#45;&gt;skill_ref_architecture -->
<g id="edge33" class="edge">
<title>cmd_plugin_phase_verify&#45;&gt;skill_ref_architecture</title>
<path fill="none" stroke="black" d="M238.5,-313.94C247.28,-266.21 278.19,-137.79 363.07,-86.19 416.77,-53.53 443.52,-70.91 504.49,-86.19 532.84,-93.29 535.88,-105.09 562.49,-117.19 568.57,-119.95 575,-122.68 581.44,-125.29"/>
<polygon fill="black" stroke="black" points="580.27,-128.59 590.85,-129.02 582.85,-122.08 580.27,-128.59"/>
</g>
<!-- cmd_plugin_phase_verify&#45;&gt;agent_worker_structure -->
<g id="edge29" class="edge">
<title>cmd_plugin_phase_verify&#45;&gt;agent_worker_structure</title>
<path fill="none" stroke="black" stroke-dasharray="5,2" d="M283.81,-332.19C307.26,-332.19 335.92,-332.19 361.81,-332.19"/>
<polygon fill="black" stroke="black" points="361.95,-335.69 371.95,-332.19 361.95,-328.69 361.95,-335.69"/>
</g>
<!-- cmd_plugin_phase_verify&#45;&gt;agent_worker_principles -->
<g id="edge30" class="edge">
<title>cmd_plugin_phase_verify&#45;&gt;agent_worker_principles</title>
<path fill="none" stroke="black" stroke-dasharray="5,2" d="M283.81,-316.53C312.19,-307.32 348.17,-295.64 377.67,-286.07"/>
<polygon fill="black" stroke="black" points="378.97,-289.33 387.4,-282.91 376.81,-282.67 378.97,-289.33"/>
</g>
<!-- cmd_plugin_phase_verify&#45;&gt;agent_worker_architecture -->
<g id="edge31" class="edge">
<title>cmd_plugin_phase_verify&#45;&gt;agent_worker_architecture</title>
<path fill="none" stroke="black" stroke-dasharray="5,2" d="M256.67,-314.04C281.18,-293.52 323.33,-259.89 363.07,-236.19 369.2,-232.53 375.82,-229 382.46,-225.7"/>
<polygon fill="black" stroke="black" points="383.98,-228.85 391.48,-221.37 380.95,-222.55 383.98,-228.85"/>
</g>
<!-- agent_worker_structure&#45;&gt;skill_ref_specialist_output_schema -->
<g id="edge34" class="edge">
<title>agent_worker_structure&#45;&gt;skill_ref_specialist_output_schema</title>
<path fill="none" stroke="black" stroke-dasharray="1,5" d="M473.79,-315.85C483.98,-311.17 494.81,-305.79 504.49,-300.19 541.89,-278.51 581.87,-249.09 608.42,-228.55"/>
<polygon fill="black" stroke="black" points="610.82,-231.13 616.55,-222.22 606.51,-225.6 610.82,-231.13"/>
</g>
<!-- agent_worker_structure&#45;&gt;agent_worker_principles -->
<!-- agent_worker_structure&#45;&gt;agent_worker_principles -->
<!-- agent_worker_structure&#45;&gt;agent_worker_principles -->
<!-- agent_worker_structure&#45;&gt;agent_worker_principles -->
<!-- agent_worker_principles&#45;&gt;skill_ref_specialist_output_schema -->
<g id="edge35" class="edge">
<title>agent_worker_principles&#45;&gt;skill_ref_specialist_output_schema</title>
<path fill="none" stroke="black" stroke-dasharray="1,5" d="M480.86,-253.74C507.6,-245.36 541.76,-234.66 571.49,-225.34"/>
<polygon fill="black" stroke="black" points="572.89,-228.57 581.38,-222.24 570.79,-221.89 572.89,-228.57"/>
</g>
<!-- agent_worker_principles&#45;&gt;agent_worker_architecture -->
<!-- agent_worker_principles&#45;&gt;agent_worker_architecture -->
<!-- agent_worker_architecture&#45;&gt;skill_ref_specialist_output_schema -->
<g id="edge36" class="edge">
<title>agent_worker_architecture&#45;&gt;skill_ref_specialist_output_schema</title>
<path fill="none" stroke="black" stroke-dasharray="1,5" d="M467.59,-185.43C503.45,-177.9 560.91,-177.46 599.29,-184.12"/>
<polygon fill="black" stroke="black" points="599.08,-187.64 609.57,-186.18 600.46,-180.78 599.08,-187.64"/>
</g>
<!-- agent_worker_architecture&#45;&gt;skill_ref_specialist_output_schema -->
<!-- agent_worker_architecture&#45;&gt;skill_ref_specialist_output_schema -->
<!-- agent_worker_architecture&#45;&gt;skill_ref_specialist_output_schema -->
<!-- agent_worker_architecture&#45;&gt;skill_ref_architecture -->
<g id="edge37" class="edge">
<title>agent_worker_architecture&#45;&gt;skill_ref_architecture</title>
<path fill="none" stroke="black" stroke-dasharray="1,5" d="M485.78,-189.7C514.65,-181.5 550.86,-171.21 580.83,-162.7"/>
<polygon fill="black" stroke="black" points="582.07,-165.99 590.74,-159.89 580.16,-159.25 582.07,-165.99"/>
</g>
</g>
</svg>
