<?xml version="1.0" encoding="UTF-8" standalone="no"?>
<!DOCTYPE svg PUBLIC "-//W3C//DTD SVG 1.1//EN"
 "http://www.w3.org/Graphics/SVG/1.1/DTD/svg11.dtd">
<!-- Generated by graphviz version 2.43.0 (0)
 -->
<!-- Title: Dependencies Pages: 1 -->
<svg width="1136pt" height="756pt"
 viewBox="0.00 0.00 1135.58 756.08" xmlns="http://www.w3.org/2000/svg" xmlns:xlink="http://www.w3.org/1999/xlink">
<g id="graph0" class="graph" transform="scale(1 1) rotate(0) translate(4 752.08)">
<title>Dependencies</title>
<polygon fill="white" stroke="transparent" points="-4,4 -4,-752.08 1131.58,-752.08 1131.58,4 -4,4"/>
<text text-anchor="middle" x="563.79" y="-732.88" font-family="Helvetica,sans-Serif" font-size="14.00">co&#45;self&#45;improve</text>
<!-- skill_co_self_improve -->
<g id="node1" class="node">
<title>skill_co_self_improve</title>
<ellipse fill="#c8e6c9" stroke="black" cx="78.49" cy="-310.64" rx="78.48" ry="21.43"/>
<text text-anchor="middle" x="78.49" y="-313.64" font-family="Helvetica,sans-Serif" font-size="10.00">twl:co&#45;self&#45;improve</text>
<text text-anchor="middle" x="78.49" y="-302.64" font-family="Helvetica,sans-Serif" font-size="10.00">(1,171 tok)</text>
</g>
<!-- skill_workflow_observe_loop -->
<g id="node2" class="node">
<title>skill_workflow_observe_loop</title>
<ellipse fill="#e8f5e9" stroke="black" cx="318.22" cy="-575.64" rx="103.48" ry="21.43"/>
<text text-anchor="middle" x="318.22" y="-578.64" font-family="Helvetica,sans-Serif" font-size="10.00">twl:workflow&#45;observe&#45;loop</text>
<text text-anchor="middle" x="318.22" y="-567.64" font-family="Helvetica,sans-Serif" font-size="10.00">(1,503 tok)</text>
</g>
<!-- skill_co_self_improve&#45;&gt;skill_workflow_observe_loop -->
<g id="edge1" class="edge">
<title>skill_co_self_improve&#45;&gt;skill_workflow_observe_loop</title>
<path fill="none" stroke="black" d="M86.69,-332.04C102.72,-376.55 145.49,-479.79 214.98,-537.64 223.33,-544.6 233.09,-550.35 243.19,-555.08"/>
<polygon fill="black" stroke="black" points="241.96,-558.36 252.53,-559.14 244.76,-551.94 241.96,-558.36"/>
</g>
<!-- skill_test_scenario_catalog -->
<g id="node3" class="node">
<title>skill_test_scenario_catalog</title>
<polygon fill="#e1f5fe" stroke="black" points="1105.08,-240.64 973.08,-240.64 973.08,-204.64 1111.08,-204.64 1111.08,-234.64 1105.08,-240.64"/>
<polyline fill="none" stroke="black" points="1105.08,-240.64 1105.08,-234.64 "/>
<polyline fill="none" stroke="black" points="1111.08,-234.64 1105.08,-234.64 "/>
<text text-anchor="middle" x="1042.08" y="-225.64" font-family="Helvetica,sans-Serif" font-size="10.00">twl:test&#45;scenario&#45;catalog</text>
<text text-anchor="middle" x="1042.08" y="-214.64" font-family="Helvetica,sans-Serif" font-size="10.00">(1,714 tok)</text>
</g>
<!-- skill_co_self_improve&#45;&gt;skill_test_scenario_catalog -->
<g id="edge10" class="edge">
<title>skill_co_self_improve&#45;&gt;skill_test_scenario_catalog</title>
<path fill="none" stroke="black" d="M95.04,-289.64C117.7,-260.98 162.83,-210.87 214.98,-190.64 478.4,-88.48 825.16,-162.35 971.34,-201.95"/>
<polygon fill="black" stroke="black" points="970.53,-205.35 981.1,-204.62 972.38,-198.6 970.53,-205.35"/>
</g>
<!-- skill_observation_pattern_catalog -->
<g id="node4" class="node">
<title>skill_observation_pattern_catalog</title>
<polygon fill="#e1f5fe" stroke="black" points="1121.58,-182.64 956.58,-182.64 956.58,-146.64 1127.58,-146.64 1127.58,-176.64 1121.58,-182.64"/>
<polyline fill="none" stroke="black" points="1121.58,-182.64 1121.58,-176.64 "/>
<polyline fill="none" stroke="black" points="1127.58,-176.64 1121.58,-176.64 "/>
<text text-anchor="middle" x="1042.08" y="-167.64" font-family="Helvetica,sans-Serif" font-size="10.00">twl:observation&#45;pattern&#45;catalog</text>
<text text-anchor="middle" x="1042.08" y="-156.64" font-family="Helvetica,sans-Serif" font-size="10.00">(725 tok)</text>
</g>
<!-- skill_co_self_improve&#45;&gt;skill_observation_pattern_catalog -->
<g id="edge11" class="edge">
<title>skill_co_self_improve&#45;&gt;skill_observation_pattern_catalog</title>
<path fill="none" stroke="black" d="M88.72,-289.38C106.64,-251.13 150.15,-171.75 214.98,-139.64 472.65,-12.03 833.12,-99.53 977.56,-143.56"/>
<polygon fill="black" stroke="black" points="976.58,-146.92 987.17,-146.52 978.64,-140.23 976.58,-146.92"/>
</g>
<!-- skill_load_test_baselines -->
<g id="node5" class="node">
<title>skill_load_test_baselines</title>
<polygon fill="#e1f5fe" stroke="black" points="1100.08,-124.64 978.08,-124.64 978.08,-88.64 1106.08,-88.64 1106.08,-118.64 1100.08,-124.64"/>
<polyline fill="none" stroke="black" points="1100.08,-124.64 1100.08,-118.64 "/>
<polyline fill="none" stroke="black" points="1106.08,-118.64 1100.08,-118.64 "/>
<text text-anchor="middle" x="1042.08" y="-109.64" font-family="Helvetica,sans-Serif" font-size="10.00">twl:load&#45;test&#45;baselines</text>
<text text-anchor="middle" x="1042.08" y="-98.64" font-family="Helvetica,sans-Serif" font-size="10.00">(670 tok)</text>
</g>
<!-- skill_co_self_improve&#45;&gt;skill_load_test_baselines -->
<g id="edge12" class="edge">
<title>skill_co_self_improve&#45;&gt;skill_load_test_baselines</title>
<path fill="none" stroke="black" d="M84.44,-289.22C96.82,-241.1 134.16,-124.88 214.98,-76.64 466.8,73.66 842.96,-35.1 984.51,-85.11"/>
<polygon fill="black" stroke="black" points="983.69,-88.54 994.29,-88.61 986.05,-81.95 983.69,-88.54"/>
</g>
<!-- cmd_observe_once -->
<g id="node6" class="node">
<title>cmd_observe_once</title>
<polygon fill="#e3f2fd" stroke="black" points="599.45,-419.64 516.45,-419.64 516.45,-383.64 599.45,-383.64 599.45,-419.64"/>
<text text-anchor="middle" x="557.95" y="-404.64" font-family="Helvetica,sans-Serif" font-size="10.00">observe&#45;once</text>
<text text-anchor="middle" x="557.95" y="-393.64" font-family="Helvetica,sans-Serif" font-size="10.00">(436 tok)</text>
</g>
<!-- skill_co_self_improve&#45;&gt;cmd_observe_once -->
<g id="edge5" class="edge">
<title>skill_co_self_improve&#45;&gt;cmd_observe_once</title>
<path fill="none" stroke="black" d="M135.65,-325.27C159.95,-331.35 188.78,-338.24 214.98,-343.64 317.7,-364.84 438.95,-384.04 505.97,-394.15"/>
<polygon fill="black" stroke="black" points="505.84,-397.67 516.24,-395.69 506.87,-390.75 505.84,-397.67"/>
</g>
<!-- cmd_problem_detect -->
<g id="node7" class="node">
<title>cmd_problem_detect</title>
<polygon fill="#e3f2fd" stroke="black" points="603.95,-361.64 511.95,-361.64 511.95,-325.64 603.95,-325.64 603.95,-361.64"/>
<text text-anchor="middle" x="557.95" y="-346.64" font-family="Helvetica,sans-Serif" font-size="10.00">problem&#45;detect</text>
<text text-anchor="middle" x="557.95" y="-335.64" font-family="Helvetica,sans-Serif" font-size="10.00">(678 tok)</text>
</g>
<!-- skill_co_self_improve&#45;&gt;cmd_problem_detect -->
<g id="edge6" class="edge">
<title>skill_co_self_improve&#45;&gt;cmd_problem_detect</title>
<path fill="none" stroke="black" d="M154.62,-315.83C251.02,-322.5 416,-333.9 501.67,-339.82"/>
<polygon fill="black" stroke="black" points="501.5,-343.32 511.71,-340.52 501.98,-336.33 501.5,-343.32"/>
</g>
<!-- cmd_issue_draft_from_observation -->
<g id="node8" class="node">
<title>cmd_issue_draft_from_observation</title>
<polygon fill="#e3f2fd" stroke="black" points="636.45,-303.64 479.45,-303.64 479.45,-267.64 636.45,-267.64 636.45,-303.64"/>
<text text-anchor="middle" x="557.95" y="-288.64" font-family="Helvetica,sans-Serif" font-size="10.00">issue&#45;draft&#45;from&#45;observation</text>
<text text-anchor="middle" x="557.95" y="-277.64" font-family="Helvetica,sans-Serif" font-size="10.00">(591 tok)</text>
</g>
<!-- skill_co_self_improve&#45;&gt;cmd_issue_draft_from_observation -->
<g id="edge7" class="edge">
<title>skill_co_self_improve&#45;&gt;cmd_issue_draft_from_observation</title>
<path fill="none" stroke="black" d="M155.67,-306.65C240.98,-302.19 379.02,-294.96 468.89,-290.25"/>
<polygon fill="black" stroke="black" points="469.26,-293.74 479.06,-289.72 468.89,-286.75 469.26,-293.74"/>
</g>
<!-- cmd_observe_retrospective -->
<g id="node10" class="node">
<title>cmd_observe_retrospective</title>
<polygon fill="#e3f2fd" stroke="black" points="619.95,-245.64 495.95,-245.64 495.95,-209.64 619.95,-209.64 619.95,-245.64"/>
<text text-anchor="middle" x="557.95" y="-230.64" font-family="Helvetica,sans-Serif" font-size="10.00">observe&#45;retrospective</text>
<text text-anchor="middle" x="557.95" y="-219.64" font-family="Helvetica,sans-Serif" font-size="10.00">(521 tok)</text>
</g>
<!-- skill_co_self_improve&#45;&gt;cmd_observe_retrospective -->
<g id="edge8" class="edge">
<title>skill_co_self_improve&#45;&gt;cmd_observe_retrospective</title>
<path fill="none" stroke="black" d="M144.88,-299.28C234.11,-283.76 393.46,-256.06 485.67,-240.03"/>
<polygon fill="black" stroke="black" points="486.5,-243.44 495.75,-238.28 485.3,-236.55 486.5,-243.44"/>
</g>
<!-- cmd_test_project_init -->
<g id="node11" class="node">
<title>cmd_test_project_init</title>
<polygon fill="#e3f2fd" stroke="black" points="603.95,-593.64 511.95,-593.64 511.95,-557.64 603.95,-557.64 603.95,-593.64"/>
<text text-anchor="middle" x="557.95" y="-578.64" font-family="Helvetica,sans-Serif" font-size="10.00">test&#45;project&#45;init</text>
<text text-anchor="middle" x="557.95" y="-567.64" font-family="Helvetica,sans-Serif" font-size="10.00">(847 tok)</text>
</g>
<!-- skill_co_self_improve&#45;&gt;cmd_test_project_init -->
<g id="edge2" class="edge">
<title>skill_co_self_improve&#45;&gt;cmd_test_project_init</title>
<path fill="none" stroke="black" d="M91.36,-331.8C111.97,-366.6 157.71,-435.83 214.98,-473.64 239.24,-489.66 411.79,-537.03 502.12,-561.16"/>
<polygon fill="black" stroke="black" points="501.35,-564.58 511.91,-563.77 503.15,-557.82 501.35,-564.58"/>
</g>
<!-- cmd_test_project_reset -->
<g id="node12" class="node">
<title>cmd_test_project_reset</title>
<polygon fill="#e3f2fd" stroke="black" points="608.45,-535.64 507.45,-535.64 507.45,-499.64 608.45,-499.64 608.45,-535.64"/>
<text text-anchor="middle" x="557.95" y="-520.64" font-family="Helvetica,sans-Serif" font-size="10.00">test&#45;project&#45;reset</text>
<text text-anchor="middle" x="557.95" y="-509.64" font-family="Helvetica,sans-Serif" font-size="10.00">(443 tok)</text>
</g>
<!-- skill_co_self_improve&#45;&gt;cmd_test_project_reset -->
<g id="edge3" class="edge">
<title>skill_co_self_improve&#45;&gt;cmd_test_project_reset</title>
<path fill="none" stroke="black" d="M99.08,-331.5C123.8,-356.64 168.71,-398.5 214.98,-422.64 307.27,-470.79 426.68,-496.77 497.23,-508.86"/>
<polygon fill="black" stroke="black" points="496.83,-512.34 507.27,-510.55 497.99,-505.44 496.83,-512.34"/>
</g>
<!-- cmd_test_project_scenario_load -->
<g id="node13" class="node">
<title>cmd_test_project_scenario_load</title>
<polygon fill="#e3f2fd" stroke="black" points="629.45,-477.64 486.45,-477.64 486.45,-441.64 629.45,-441.64 629.45,-477.64"/>
<text text-anchor="middle" x="557.95" y="-462.64" font-family="Helvetica,sans-Serif" font-size="10.00">test&#45;project&#45;scenario&#45;load</text>
<text text-anchor="middle" x="557.95" y="-451.64" font-family="Helvetica,sans-Serif" font-size="10.00">(861 tok)</text>
</g>
<!-- skill_co_self_improve&#45;&gt;cmd_test_project_scenario_load -->
<g id="edge4" class="edge">
<title>skill_co_self_improve&#45;&gt;cmd_test_project_scenario_load</title>
<path fill="none" stroke="black" d="M112.49,-329.93C139.34,-344.96 178.62,-365.42 214.98,-378.64 301.87,-410.25 405.73,-432.82 476.01,-445.98"/>
<polygon fill="black" stroke="black" points="475.66,-449.47 486.13,-447.85 476.94,-442.59 475.66,-449.47"/>
</g>
<!-- agent_observer_evaluator -->
<g id="node14" class="node">
<title>agent_observer_evaluator</title>
<ellipse fill="#ede7f6" stroke="black" cx="796.51" cy="-222.64" rx="77.56" ry="21.43"/>
<text text-anchor="middle" x="796.51" y="-225.64" font-family="Helvetica,sans-Serif" font-size="10.00">observer&#45;evaluator</text>
<text text-anchor="middle" x="796.51" y="-214.64" font-family="Helvetica,sans-Serif" font-size="10.00">(1,469 tok)</text>
</g>
<!-- skill_co_self_improve&#45;&gt;agent_observer_evaluator -->
<g id="edge9" class="edge">
<title>skill_co_self_improve&#45;&gt;agent_observer_evaluator</title>
<path fill="none" stroke="black" stroke-dasharray="5,2" d="M113.28,-291.63C140.1,-277.3 178.94,-258.2 214.98,-246.64 394.5,-189.05 448.45,-184.54 636.45,-198.64 664.48,-200.74 695.06,-204.9 721.84,-209.18"/>
<polygon fill="black" stroke="black" points="721.48,-212.66 731.91,-210.82 722.6,-205.75 721.48,-212.66"/>
</g>
<!-- cmd_observe_and_detect -->
<g id="node9" class="node">
<title>cmd_observe_and_detect</title>
<polygon fill="#bbdefb" stroke="black" points="613.95,-651.64 501.95,-651.64 501.95,-615.64 613.95,-615.64 613.95,-651.64"/>
<text text-anchor="middle" x="557.95" y="-636.64" font-family="Helvetica,sans-Serif" font-size="10.00">observe&#45;and&#45;detect</text>
<text text-anchor="middle" x="557.95" y="-625.64" font-family="Helvetica,sans-Serif" font-size="10.00">(460 tok)</text>
</g>
<!-- skill_workflow_observe_loop&#45;&gt;cmd_observe_and_detect -->
<g id="edge13" class="edge">
<title>skill_workflow_observe_loop&#45;&gt;cmd_observe_and_detect</title>
<path fill="none" stroke="black" d="M385.44,-591.8C418.68,-599.91 458.81,-609.7 491.89,-617.77"/>
<polygon fill="black" stroke="black" points="491.37,-621.25 501.92,-620.22 493.03,-614.45 491.37,-621.25"/>
</g>
<!-- skill_workflow_observe_loop&#45;&gt;cmd_observe_retrospective -->
<g id="edge14" class="edge">
<title>skill_workflow_observe_loop&#45;&gt;cmd_observe_retrospective</title>
<path fill="none" stroke="black" d="M324.19,-554.07C338.37,-497.27 384.23,-342.15 479.45,-256.64 481.78,-254.55 484.28,-252.6 486.89,-250.79"/>
<polygon fill="black" stroke="black" points="488.9,-253.67 495.6,-245.47 485.24,-247.7 488.9,-253.67"/>
</g>
<!-- skill_workflow_observe_loop&#45;&gt;cmd_test_project_init -->
<!-- script_observe_wrapper -->
<g id="node15" class="node">
<title>script_observe_wrapper</title>
<polygon fill="#ff9800" stroke="black" points="877.18,-406.64 836.85,-431.13 756.18,-431.13 715.85,-406.64 756.18,-382.15 836.85,-382.15 877.18,-406.64"/>
<text text-anchor="middle" x="796.51" y="-409.64" font-family="Helvetica,sans-Serif" font-size="10.00">observe&#45;wrapper</text>
<text text-anchor="middle" x="796.51" y="-398.64" font-family="Helvetica,sans-Serif" font-size="10.00">(122 tok)</text>
</g>
<!-- skill_workflow_observe_loop&#45;&gt;script_observe_wrapper -->
<g id="edge15" class="edge">
<title>skill_workflow_observe_loop&#45;&gt;script_observe_wrapper</title>
<path fill="none" stroke="black" d="M336.79,-596.52C363.8,-626.78 418.78,-681.51 479.45,-702.64 545.35,-725.59 576.56,-738.45 636.45,-702.64 732.98,-644.93 774.33,-506.3 788.86,-441.33"/>
<polygon fill="black" stroke="black" points="792.36,-441.71 791.05,-431.2 785.52,-440.24 792.36,-441.71"/>
</g>
<!-- script_session_state_wrapper -->
<g id="node16" class="node">
<title>script_session_state_wrapper</title>
<polygon fill="#ff9800" stroke="black" points="898.64,-335.64 847.58,-360.13 745.45,-360.13 694.39,-335.64 745.45,-311.15 847.58,-311.15 898.64,-335.64"/>
<text text-anchor="middle" x="796.51" y="-338.64" font-family="Helvetica,sans-Serif" font-size="10.00">session&#45;state&#45;wrapper</text>
<text text-anchor="middle" x="796.51" y="-327.64" font-family="Helvetica,sans-Serif" font-size="10.00">(126 tok)</text>
</g>
<!-- skill_workflow_observe_loop&#45;&gt;script_session_state_wrapper -->
<g id="edge16" class="edge">
<title>skill_workflow_observe_loop&#45;&gt;script_session_state_wrapper</title>
<path fill="none" stroke="black" d="M345,-596.38C403.47,-640.77 547.93,-735.27 636.45,-662.64 738.41,-579 608.22,-471.42 694.45,-371.64 700.34,-364.83 707.6,-359.31 715.51,-354.84"/>
<polygon fill="black" stroke="black" points="717.33,-357.84 724.68,-350.21 714.18,-351.59 717.33,-357.84"/>
</g>
<!-- skill_test_scenario_catalog&#45;&gt;skill_observation_pattern_catalog -->
<!-- skill_observation_pattern_catalog&#45;&gt;skill_load_test_baselines -->
<!-- cmd_observe_once&#45;&gt;cmd_problem_detect -->
<!-- cmd_observe_once&#45;&gt;script_observe_wrapper -->
<g id="edge17" class="edge">
<title>cmd_observe_once&#45;&gt;script_observe_wrapper</title>
<path fill="none" stroke="black" d="M599.62,-402.5C629.32,-403.13 670.72,-404 707.81,-404.79"/>
<polygon fill="black" stroke="black" points="708.07,-408.29 718.15,-405.01 708.22,-401.3 708.07,-408.29"/>
</g>
<!-- cmd_observe_once&#45;&gt;script_session_state_wrapper -->
<g id="edge18" class="edge">
<title>cmd_observe_once&#45;&gt;script_session_state_wrapper</title>
<path fill="none" stroke="black" d="M599.62,-390.3C633.06,-380.97 681.31,-367.5 721.56,-356.27"/>
<polygon fill="black" stroke="black" points="722.65,-359.6 731.34,-353.55 720.77,-352.86 722.65,-359.6"/>
</g>
<!-- cmd_problem_detect&#45;&gt;skill_observation_pattern_catalog -->
<g id="edge19" class="edge">
<title>cmd_problem_detect&#45;&gt;skill_observation_pattern_catalog</title>
<path fill="none" stroke="black" d="M604.14,-328.23C630.35,-319.57 664.08,-308.87 694.45,-300.64 784.22,-276.33 817.69,-300.54 898.58,-254.64 931.11,-236.18 925.09,-213.85 956.58,-193.64 960.17,-191.33 963.98,-189.19 967.9,-187.19"/>
<polygon fill="black" stroke="black" points="969.66,-190.23 977.22,-182.81 966.69,-183.89 969.66,-190.23"/>
</g>
<!-- cmd_problem_detect&#45;&gt;cmd_issue_draft_from_observation -->
<!-- cmd_issue_draft_from_observation&#45;&gt;cmd_observe_retrospective -->
<!-- cmd_observe_and_detect&#45;&gt;cmd_observe_retrospective -->
<!-- cmd_observe_and_detect&#45;&gt;agent_observer_evaluator -->
<g id="edge20" class="edge">
<title>cmd_observe_and_detect&#45;&gt;agent_observer_evaluator</title>
<path fill="none" stroke="black" stroke-dasharray="5,2" d="M614.34,-621.03C622.72,-617 630.53,-611.67 636.45,-604.64 725.13,-499.5 622.44,-417.83 694.45,-300.64 708.16,-278.34 730.73,-260.01 751.08,-246.74"/>
<polygon fill="black" stroke="black" points="753.02,-249.65 759.62,-241.36 749.3,-243.72 753.02,-249.65"/>
</g>
<!-- cmd_observe_retrospective&#45;&gt;agent_observer_evaluator -->
<!-- cmd_observe_retrospective&#45;&gt;script_observe_wrapper -->
<!-- cmd_test_project_init&#45;&gt;cmd_test_project_reset -->
<!-- cmd_test_project_reset&#45;&gt;cmd_test_project_scenario_load -->
<!-- cmd_test_project_scenario_load&#45;&gt;cmd_observe_once -->
<!-- agent_observer_evaluator&#45;&gt;skill_test_scenario_catalog -->
<!-- script_observe_wrapper&#45;&gt;script_session_state_wrapper -->
<!-- script_observe_wrapper&#45;&gt;script_session_state_wrapper -->
</g>
</svg>
