<?xml version="1.0" encoding="UTF-8" standalone="no"?>
<!DOCTYPE svg PUBLIC "-//W3C//DTD SVG 1.1//EN"
 "http://www.w3.org/Graphics/SVG/1.1/DTD/svg11.dtd">
<!-- Generated by graphviz version 2.43.0 (0)
 -->
<!-- Title: Dependencies Pages: 1 -->
<svg width="1634pt" height="853pt"
 viewBox="0.00 0.00 1633.92 852.62" xmlns="http://www.w3.org/2000/svg" xmlns:xlink="http://www.w3.org/1999/xlink">
<g id="graph0" class="graph" transform="scale(1 1) rotate(0) translate(4 848.62)">
<title>Dependencies</title>
<polygon fill="white" stroke="transparent" points="-4,4 -4,-848.62 1629.92,-848.62 1629.92,4 -4,4"/>
<text text-anchor="middle" x="812.96" y="-829.42" font-family="Helvetica,sans-Serif" font-size="14.00">co&#45;self&#45;improve</text>
<!-- skill_co_self_improve -->
<g id="node1" class="node">
<title>skill_co_self_improve</title>
<ellipse fill="#c8e6c9" stroke="black" cx="78.49" cy="-548.16" rx="78.48" ry="21.43"/>
<text text-anchor="middle" x="78.49" y="-551.16" font-family="Helvetica,sans-Serif" font-size="10.00">twl:co&#45;self&#45;improve</text>
<text text-anchor="middle" x="78.49" y="-540.16" font-family="Helvetica,sans-Serif" font-size="10.00">(1,171 tok)</text>
</g>
<!-- skill_workflow_observe_loop -->
<g id="node2" class="node">
<title>skill_workflow_observe_loop</title>
<ellipse fill="#e8f5e9" stroke="black" cx="318.22" cy="-576.16" rx="103.48" ry="21.43"/>
<text text-anchor="middle" x="318.22" y="-579.16" font-family="Helvetica,sans-Serif" font-size="10.00">twl:workflow&#45;observe&#45;loop</text>
<text text-anchor="middle" x="318.22" y="-568.16" font-family="Helvetica,sans-Serif" font-size="10.00">(1,151 tok)</text>
</g>
<!-- skill_co_self_improve&#45;&gt;skill_workflow_observe_loop -->
<g id="edge1" class="edge">
<title>skill_co_self_improve&#45;&gt;skill_workflow_observe_loop</title>
<path fill="none" stroke="black" d="M150.81,-556.56C172.02,-559.06 195.64,-561.84 218.27,-564.5"/>
<polygon fill="black" stroke="black" points="217.9,-567.98 228.25,-565.68 218.72,-561.03 217.9,-567.98"/>
</g>
<!-- cmd_observe_once -->
<g id="node3" class="node">
<title>cmd_observe_once</title>
<polygon fill="#e3f2fd" stroke="black" points="599.45,-411.16 516.45,-411.16 516.45,-375.16 599.45,-375.16 599.45,-411.16"/>
<text text-anchor="middle" x="557.95" y="-396.16" font-family="Helvetica,sans-Serif" font-size="10.00">observe&#45;once</text>
<text text-anchor="middle" x="557.95" y="-385.16" font-family="Helvetica,sans-Serif" font-size="10.00">(436 tok)</text>
</g>
<!-- skill_co_self_improve&#45;&gt;cmd_observe_once -->
<g id="edge5" class="edge">
<title>skill_co_self_improve&#45;&gt;cmd_observe_once</title>
<path fill="none" stroke="black" d="M108.38,-528.41C135,-511.04 176.14,-486.24 214.98,-471.16 314.59,-432.46 438.34,-410.16 506.32,-399.97"/>
<polygon fill="black" stroke="black" points="506.95,-403.41 516.33,-398.49 505.93,-396.49 506.95,-403.41"/>
</g>
<!-- cmd_problem_detect -->
<g id="node4" class="node">
<title>cmd_problem_detect</title>
<polygon fill="#e3f2fd" stroke="black" points="603.95,-353.16 511.95,-353.16 511.95,-317.16 603.95,-317.16 603.95,-353.16"/>
<text text-anchor="middle" x="557.95" y="-338.16" font-family="Helvetica,sans-Serif" font-size="10.00">problem&#45;detect</text>
<text text-anchor="middle" x="557.95" y="-327.16" font-family="Helvetica,sans-Serif" font-size="10.00">(678 tok)</text>
</g>
<!-- skill_co_self_improve&#45;&gt;cmd_problem_detect -->
<g id="edge6" class="edge">
<title>skill_co_self_improve&#45;&gt;cmd_problem_detect</title>
<path fill="none" stroke="black" d="M93.92,-527.31C116.2,-496.8 161.98,-440.44 214.98,-411.16 307.19,-360.2 431.2,-343.41 501.74,-337.87"/>
<polygon fill="black" stroke="black" points="502.04,-341.36 511.75,-337.14 501.52,-334.38 502.04,-341.36"/>
</g>
<!-- cmd_issue_draft_from_observation -->
<g id="node5" class="node">
<title>cmd_issue_draft_from_observation</title>
<polygon fill="#e3f2fd" stroke="black" points="636.45,-295.16 479.45,-295.16 479.45,-259.16 636.45,-259.16 636.45,-295.16"/>
<text text-anchor="middle" x="557.95" y="-280.16" font-family="Helvetica,sans-Serif" font-size="10.00">issue&#45;draft&#45;from&#45;observation</text>
<text text-anchor="middle" x="557.95" y="-269.16" font-family="Helvetica,sans-Serif" font-size="10.00">(591 tok)</text>
</g>
<!-- skill_co_self_improve&#45;&gt;cmd_issue_draft_from_observation -->
<g id="edge7" class="edge">
<title>skill_co_self_improve&#45;&gt;cmd_issue_draft_from_observation</title>
<path fill="none" stroke="black" d="M86.99,-526.98C103.18,-484.6 145.62,-389.47 214.98,-343.16 290.62,-292.65 395.44,-278.71 469.04,-275.8"/>
<polygon fill="black" stroke="black" points="469.33,-279.3 479.21,-275.46 469.09,-272.3 469.33,-279.3"/>
</g>
<!-- cmd_observe_retrospective -->
<g id="node7" class="node">
<title>cmd_observe_retrospective</title>
<polygon fill="#e3f2fd" stroke="black" points="619.95,-237.16 495.95,-237.16 495.95,-201.16 619.95,-201.16 619.95,-237.16"/>
<text text-anchor="middle" x="557.95" y="-222.16" font-family="Helvetica,sans-Serif" font-size="10.00">observe&#45;retrospective</text>
<text text-anchor="middle" x="557.95" y="-211.16" font-family="Helvetica,sans-Serif" font-size="10.00">(521 tok)</text>
</g>
<!-- skill_co_self_improve&#45;&gt;cmd_observe_retrospective -->
<g id="edge8" class="edge">
<title>skill_co_self_improve&#45;&gt;cmd_observe_retrospective</title>
<path fill="none" stroke="black" d="M83.24,-526.88C93.67,-474.57 128.16,-339.29 214.98,-275.16 293.89,-216.86 411.04,-210.11 485.69,-212.89"/>
<polygon fill="black" stroke="black" points="485.79,-216.4 495.93,-213.35 486.09,-209.41 485.79,-216.4"/>
</g>
<!-- cmd_test_project_init -->
<g id="node8" class="node">
<title>cmd_test_project_init</title>
<polygon fill="#e3f2fd" stroke="black" points="603.95,-643.16 511.95,-643.16 511.95,-607.16 603.95,-607.16 603.95,-643.16"/>
<text text-anchor="middle" x="557.95" y="-628.16" font-family="Helvetica,sans-Serif" font-size="10.00">test&#45;project&#45;init</text>
<text text-anchor="middle" x="557.95" y="-617.16" font-family="Helvetica,sans-Serif" font-size="10.00">(847 tok)</text>
</g>
<!-- skill_co_self_improve&#45;&gt;cmd_test_project_init -->
<g id="edge2" class="edge">
<title>skill_co_self_improve&#45;&gt;cmd_test_project_init</title>
<path fill="none" stroke="black" d="M113.07,-567.21C139.77,-581.31 178.56,-599.5 214.98,-608.16 313.86,-631.65 433.2,-631.35 501.56,-628.55"/>
<polygon fill="black" stroke="black" points="501.84,-632.04 511.68,-628.1 501.53,-625.05 501.84,-632.04"/>
</g>
<!-- cmd_test_project_reset -->
<g id="node9" class="node">
<title>cmd_test_project_reset</title>
<polygon fill="#e3f2fd" stroke="black" points="608.45,-527.16 507.45,-527.16 507.45,-491.16 608.45,-491.16 608.45,-527.16"/>
<text text-anchor="middle" x="557.95" y="-512.16" font-family="Helvetica,sans-Serif" font-size="10.00">test&#45;project&#45;reset</text>
<text text-anchor="middle" x="557.95" y="-501.16" font-family="Helvetica,sans-Serif" font-size="10.00">(443 tok)</text>
</g>
<!-- skill_co_self_improve&#45;&gt;cmd_test_project_reset -->
<g id="edge3" class="edge">
<title>skill_co_self_improve&#45;&gt;cmd_test_project_reset</title>
<path fill="none" stroke="black" d="M153.83,-542.08C248.5,-534.35 410.23,-521.14 497.28,-514.03"/>
<polygon fill="black" stroke="black" points="497.58,-517.52 507.26,-513.22 497.01,-510.54 497.58,-517.52"/>
</g>
<!-- cmd_test_project_scenario_load -->
<g id="node10" class="node">
<title>cmd_test_project_scenario_load</title>
<polygon fill="#e3f2fd" stroke="black" points="629.45,-469.16 486.45,-469.16 486.45,-433.16 629.45,-433.16 629.45,-469.16"/>
<text text-anchor="middle" x="557.95" y="-454.16" font-family="Helvetica,sans-Serif" font-size="10.00">test&#45;project&#45;scenario&#45;load</text>
<text text-anchor="middle" x="557.95" y="-443.16" font-family="Helvetica,sans-Serif" font-size="10.00">(861 tok)</text>
</g>
<!-- skill_co_self_improve&#45;&gt;cmd_test_project_scenario_load -->
<g id="edge4" class="edge">
<title>skill_co_self_improve&#45;&gt;cmd_test_project_scenario_load</title>
<path fill="none" stroke="black" d="M137.05,-533.97C161.08,-528.2 189.33,-521.62 214.98,-516.16 304.13,-497.17 406.94,-477.99 476.37,-465.44"/>
<polygon fill="black" stroke="black" points="477.14,-468.85 486.36,-463.64 475.9,-461.97 477.14,-468.85"/>
</g>
<!-- agent_observer_evaluator -->
<g id="node13" class="node">
<title>agent_observer_evaluator</title>
<ellipse fill="none" stroke="black" cx="796.51" cy="-219.16" rx="84.54" ry="18"/>
<text text-anchor="middle" x="796.51" y="-216.66" font-family="Helvetica,sans-Serif" font-size="10.00">agent_observer_evaluator</text>
</g>
<!-- skill_co_self_improve&#45;&gt;agent_observer_evaluator -->
<g id="edge9" class="edge">
<title>skill_co_self_improve&#45;&gt;agent_observer_evaluator</title>
<path fill="none" stroke="black" stroke-dasharray="5,2" d="M103.02,-568.56C128.64,-589.43 171.74,-620.77 214.98,-635.16 303.94,-664.76 559.61,-707.88 636.45,-654.16 774.3,-557.79 793.08,-328.51 795.33,-247.84"/>
<polygon fill="black" stroke="black" points="798.84,-247.54 795.55,-237.47 791.84,-247.39 798.84,-247.54"/>
</g>
<!-- skill_test_scenario_catalog -->
<g id="node14" class="node">
<title>skill_test_scenario_catalog</title>
<ellipse fill="none" stroke="black" cx="1044.29" cy="-219.16" rx="87.92" ry="18"/>
<text text-anchor="middle" x="1044.29" y="-216.66" font-family="Helvetica,sans-Serif" font-size="10.00">skill_test_scenario_catalog</text>
</g>
<!-- skill_co_self_improve&#45;&gt;skill_test_scenario_catalog -->
<g id="edge10" class="edge">
<title>skill_co_self_improve&#45;&gt;skill_test_scenario_catalog</title>
<path fill="none" stroke="black" d="M94.62,-568.96C117.11,-597.98 162.41,-649.47 214.98,-671.16 388.22,-742.62 465.76,-760.51 636.45,-683.16 844.11,-589.06 987.65,-330.79 1030.18,-246.3"/>
<polygon fill="black" stroke="black" points="1033.33,-247.84 1034.65,-237.32 1027.06,-244.72 1033.33,-247.84"/>
</g>
<!-- skill_observation_pattern_catalog -->
<g id="node15" class="node">
<title>skill_observation_pattern_catalog</title>
<ellipse fill="none" stroke="black" cx="1297.14" cy="-219.16" rx="107.27" ry="18"/>
<text text-anchor="middle" x="1297.14" y="-216.66" font-family="Helvetica,sans-Serif" font-size="10.00">skill_observation_pattern_catalog</text>
</g>
<!-- skill_co_self_improve&#45;&gt;skill_observation_pattern_catalog -->
<g id="edge11" class="edge">
<title>skill_co_self_improve&#45;&gt;skill_observation_pattern_catalog</title>
<path fill="none" stroke="black" d="M89.62,-569.38C108.55,-606.45 153.02,-682.44 214.98,-718.16 348.11,-794.91 403.28,-769.16 556.95,-769.16 556.95,-769.16 556.95,-769.16 797.51,-769.16 1082.79,-769.16 1247.51,-358 1286.88,-246.67"/>
<polygon fill="black" stroke="black" points="1290.21,-247.74 1290.2,-237.14 1283.6,-245.43 1290.21,-247.74"/>
</g>
<!-- skill_load_test_baselines -->
<g id="node16" class="node">
<title>skill_load_test_baselines</title>
<ellipse fill="none" stroke="black" cx="1544.1" cy="-219.16" rx="81.65" ry="18"/>
<text text-anchor="middle" x="1544.1" y="-216.66" font-family="Helvetica,sans-Serif" font-size="10.00">skill_load_test_baselines</text>
</g>
<!-- skill_co_self_improve&#45;&gt;skill_load_test_baselines -->
<g id="edge12" class="edge">
<title>skill_co_self_improve&#45;&gt;skill_load_test_baselines</title>
<path fill="none" stroke="black" d="M86.22,-569.45C101.35,-613.55 142.52,-714.68 214.98,-762.16 343.62,-846.45 403.15,-815.16 556.95,-815.16 556.95,-815.16 556.95,-815.16 1045.29,-815.16 1345.3,-815.16 1499.89,-364.8 1535.18,-247.05"/>
<polygon fill="black" stroke="black" points="1538.58,-247.9 1538.05,-237.32 1531.86,-245.92 1538.58,-247.9"/>
</g>
<!-- cmd_observe_and_detect -->
<g id="node6" class="node">
<title>cmd_observe_and_detect</title>
<polygon fill="#bbdefb" stroke="black" points="613.95,-585.16 501.95,-585.16 501.95,-549.16 613.95,-549.16 613.95,-585.16"/>
<text text-anchor="middle" x="557.95" y="-570.16" font-family="Helvetica,sans-Serif" font-size="10.00">observe&#45;and&#45;detect</text>
<text text-anchor="middle" x="557.95" y="-559.16" font-family="Helvetica,sans-Serif" font-size="10.00">(461 tok)</text>
</g>
<!-- skill_workflow_observe_loop&#45;&gt;cmd_observe_and_detect -->
<g id="edge13" class="edge">
<title>skill_workflow_observe_loop&#45;&gt;cmd_observe_and_detect</title>
<path fill="none" stroke="black" d="M420.04,-572.34C444.18,-571.43 469.34,-570.47 491.41,-569.64"/>
<polygon fill="black" stroke="black" points="491.79,-573.13 501.65,-569.25 491.52,-566.13 491.79,-573.13"/>
</g>
<!-- skill_workflow_observe_loop&#45;&gt;cmd_observe_retrospective -->
<g id="edge14" class="edge">
<title>skill_workflow_observe_loop&#45;&gt;cmd_observe_retrospective</title>
<path fill="none" stroke="black" d="M323.81,-554.82C337.29,-497.14 382.09,-336.56 479.45,-248.16 481.9,-245.94 484.53,-243.88 487.3,-241.98"/>
<polygon fill="black" stroke="black" points="489.22,-244.91 495.94,-236.72 485.58,-238.93 489.22,-244.91"/>
</g>
<!-- skill_workflow_observe_loop&#45;&gt;cmd_test_project_init -->
<!-- cmd_observe_once&#45;&gt;cmd_problem_detect -->
<!-- script_observe_wrapper -->
<g id="node11" class="node">
<title>script_observe_wrapper</title>
<polygon fill="#ff9800" stroke="black" points="877.18,-155.16 836.85,-179.65 756.18,-179.65 715.85,-155.16 756.18,-130.67 836.85,-130.67 877.18,-155.16"/>
<text text-anchor="middle" x="796.51" y="-158.16" font-family="Helvetica,sans-Serif" font-size="10.00">observe&#45;wrapper</text>
<text text-anchor="middle" x="796.51" y="-147.16" font-family="Helvetica,sans-Serif" font-size="10.00">(122 tok)</text>
</g>
<!-- cmd_observe_once&#45;&gt;script_observe_wrapper -->
<g id="edge15" class="edge">
<title>cmd_observe_once&#45;&gt;script_observe_wrapper</title>
<path fill="none" stroke="black" d="M599.51,-385.37C612.75,-381.05 626.58,-374.39 636.45,-364.16 693.04,-305.48 637.15,-248.13 694.45,-190.16 702.92,-181.59 713.58,-175.12 724.78,-170.23"/>
<polygon fill="black" stroke="black" points="726.26,-173.41 734.28,-166.49 723.69,-166.9 726.26,-173.41"/>
</g>
<!-- script_session_state_wrapper -->
<g id="node12" class="node">
<title>script_session_state_wrapper</title>
<polygon fill="#ff9800" stroke="black" points="898.64,-84.16 847.58,-108.65 745.45,-108.65 694.39,-84.16 745.45,-59.67 847.58,-59.67 898.64,-84.16"/>
<text text-anchor="middle" x="796.51" y="-87.16" font-family="Helvetica,sans-Serif" font-size="10.00">session&#45;state&#45;wrapper</text>
<text text-anchor="middle" x="796.51" y="-76.16" font-family="Helvetica,sans-Serif" font-size="10.00">(126 tok)</text>
</g>
<!-- cmd_observe_once&#45;&gt;script_session_state_wrapper -->
<g id="edge16" class="edge">
<title>cmd_observe_once&#45;&gt;script_session_state_wrapper</title>
<path fill="none" stroke="black" d="M599.63,-385.97C613.04,-381.71 626.95,-374.93 636.45,-364.16 710.21,-280.58 620.04,-203.15 694.45,-120.16 700.46,-113.46 707.8,-108 715.76,-103.57"/>
<polygon fill="black" stroke="black" points="717.58,-106.57 724.96,-98.97 714.45,-100.31 717.58,-106.57"/>
</g>
<!-- cmd_problem_detect&#45;&gt;cmd_issue_draft_from_observation -->
<!-- cmd_problem_detect&#45;&gt;skill_observation_pattern_catalog -->
<g id="edge17" class="edge">
<title>cmd_problem_detect&#45;&gt;skill_observation_pattern_catalog</title>
<path fill="none" stroke="black" d="M604.13,-326.54C616.12,-322.23 628.05,-315.79 636.45,-306.16 713.43,-217.92 602.99,-122.28 694.45,-49.16 875.72,95.76 1173.87,-119.95 1267.25,-195"/>
<polygon fill="black" stroke="black" points="1265.17,-197.82 1275.14,-201.4 1269.58,-192.38 1265.17,-197.82"/>
</g>
<!-- cmd_issue_draft_from_observation&#45;&gt;cmd_observe_retrospective -->
<!-- cmd_observe_and_detect&#45;&gt;cmd_observe_retrospective -->
<!-- cmd_observe_and_detect&#45;&gt;agent_observer_evaluator -->
<g id="edge18" class="edge">
<title>cmd_observe_and_detect&#45;&gt;agent_observer_evaluator</title>
<path fill="none" stroke="black" stroke-dasharray="5,2" d="M614.01,-552.52C622.13,-548.74 629.94,-544.02 636.45,-538.16 728.17,-455.55 773.53,-308.02 789.09,-246.88"/>
<polygon fill="black" stroke="black" points="792.49,-247.71 791.49,-237.16 785.69,-246.03 792.49,-247.71"/>
</g>
<!-- cmd_observe_retrospective&#45;&gt;agent_observer_evaluator -->
<!-- cmd_test_project_init&#45;&gt;cmd_test_project_reset -->
<!-- cmd_test_project_reset&#45;&gt;cmd_test_project_scenario_load -->
<!-- cmd_test_project_scenario_load&#45;&gt;cmd_observe_once -->
<!-- script_observe_wrapper&#45;&gt;script_session_state_wrapper -->
<!-- agent_observer_evaluator&#45;&gt;skill_test_scenario_catalog -->
<!-- skill_test_scenario_catalog&#45;&gt;skill_observation_pattern_catalog -->
<!-- skill_observation_pattern_catalog&#45;&gt;skill_load_test_baselines -->
</g>
</svg>
