<?xml version="1.0" encoding="UTF-8" standalone="no"?>
<!DOCTYPE svg PUBLIC "-//W3C//DTD SVG 1.1//EN"
 "http://www.w3.org/Graphics/SVG/1.1/DTD/svg11.dtd">
<!-- Generated by graphviz version 2.43.0 (0)
 -->
<!-- Title: Dependencies Pages: 1 -->
<svg width="535pt" height="363pt"
 viewBox="0.00 0.00 534.76 363.49" xmlns="http://www.w3.org/2000/svg" xmlns:xlink="http://www.w3.org/1999/xlink">
<g id="graph0" class="graph" transform="scale(1 1) rotate(0) translate(4 359.49)">
<title>Dependencies</title>
<polygon fill="white" stroke="transparent" points="-4,4 -4,-359.49 530.76,-359.49 530.76,4 -4,4"/>
<text text-anchor="middle" x="263.38" y="-340.29" font-family="Helvetica,sans-Serif" font-size="14.00">workflow&#45;setup</text>
<!-- skill_workflow_setup -->
<g id="node1" class="node">
<title>skill_workflow_setup</title>
<ellipse fill="#e8f5e9" stroke="black" cx="69.3" cy="-169.49" rx="69.09" ry="21.43"/>
<text text-anchor="middle" x="69.3" y="-172.49" font-family="Helvetica,sans-Serif" font-size="10.00">twl:workflow&#45;setup</text>
<text text-anchor="middle" x="69.3" y="-161.49" font-family="Helvetica,sans-Serif" font-size="10.00">(2,024 tok)</text>
</g>
<!-- cmd_init -->
<g id="node2" class="node">
<title>cmd_init</title>
<polygon fill="#e3f2fd" stroke="black" points="291.59,-332.49 236.59,-332.49 236.59,-296.49 291.59,-296.49 291.59,-332.49"/>
<text text-anchor="middle" x="264.09" y="-317.49" font-family="Helvetica,sans-Serif" font-size="10.00">init</text>
<text text-anchor="middle" x="264.09" y="-306.49" font-family="Helvetica,sans-Serif" font-size="10.00">(621 tok)</text>
</g>
<!-- skill_workflow_setup&#45;&gt;cmd_init -->
<g id="edge1" class="edge">
<title>skill_workflow_setup&#45;&gt;cmd_init</title>
<path fill="none" stroke="black" d="M88.71,-190.18C111.91,-215.29 153.93,-257.72 196.59,-285.49 205.95,-291.59 216.8,-296.94 226.99,-301.33"/>
<polygon fill="black" stroke="black" points="225.91,-304.67 236.49,-305.24 228.58,-298.2 225.91,-304.67"/>
</g>
<!-- cmd_worktree_create -->
<g id="node3" class="node">
<title>cmd_worktree_create</title>
<polygon fill="#e3f2fd" stroke="black" points="306.09,-274.49 222.09,-274.49 222.09,-238.49 306.09,-238.49 306.09,-274.49"/>
<text text-anchor="middle" x="264.09" y="-259.49" font-family="Helvetica,sans-Serif" font-size="10.00">worktree&#45;create</text>
<text text-anchor="middle" x="264.09" y="-248.49" font-family="Helvetica,sans-Serif" font-size="10.00">(461 tok)</text>
</g>
<!-- skill_workflow_setup&#45;&gt;cmd_worktree_create -->
<g id="edge2" class="edge">
<title>skill_workflow_setup&#45;&gt;cmd_worktree_create</title>
<path fill="none" stroke="black" d="M108.34,-187.2C133.37,-198.79 166.86,-214.19 196.59,-227.49 201.69,-229.78 207.03,-232.14 212.35,-234.49"/>
<polygon fill="black" stroke="black" points="211.33,-237.86 221.89,-238.67 214.14,-231.45 211.33,-237.86"/>
</g>
<!-- cmd_project_board_status_update -->
<g id="node4" class="node">
<title>cmd_project_board_status_update</title>
<polygon fill="#e3f2fd" stroke="black" points="331.59,-216.49 196.59,-216.49 196.59,-180.49 331.59,-180.49 331.59,-216.49"/>
<text text-anchor="middle" x="264.09" y="-201.49" font-family="Helvetica,sans-Serif" font-size="10.00">project&#45;board&#45;status&#45;update</text>
<text text-anchor="middle" x="264.09" y="-190.49" font-family="Helvetica,sans-Serif" font-size="10.00">(1,203 tok)</text>
</g>
<!-- skill_workflow_setup&#45;&gt;cmd_project_board_status_update -->
<g id="edge3" class="edge">
<title>skill_workflow_setup&#45;&gt;cmd_project_board_status_update</title>
<path fill="none" stroke="black" d="M131.83,-178.75C149.22,-181.37 168.35,-184.24 186.51,-186.98"/>
<polygon fill="black" stroke="black" points="186.07,-190.45 196.48,-188.47 187.11,-183.53 186.07,-190.45"/>
</g>
<!-- cmd_crg_auto_build -->
<g id="node5" class="node">
<title>cmd_crg_auto_build</title>
<polygon fill="#e3f2fd" stroke="black" points="301.59,-158.49 226.59,-158.49 226.59,-122.49 301.59,-122.49 301.59,-158.49"/>
<text text-anchor="middle" x="264.09" y="-143.49" font-family="Helvetica,sans-Serif" font-size="10.00">crg&#45;auto&#45;build</text>
<text text-anchor="middle" x="264.09" y="-132.49" font-family="Helvetica,sans-Serif" font-size="10.00">(312 tok)</text>
</g>
<!-- skill_workflow_setup&#45;&gt;cmd_crg_auto_build -->
<g id="edge4" class="edge">
<title>skill_workflow_setup&#45;&gt;cmd_crg_auto_build</title>
<path fill="none" stroke="black" d="M131.83,-160.24C159.24,-156.12 191,-151.34 216.41,-147.52"/>
<polygon fill="black" stroke="black" points="217.15,-150.94 226.52,-146 216.11,-144.02 217.15,-150.94"/>
</g>
<!-- cmd_opsx_propose -->
<g id="node6" class="node">
<title>cmd_opsx_propose</title>
<polygon fill="#e3f2fd" stroke="black" points="301.59,-100.49 226.59,-100.49 226.59,-64.49 301.59,-64.49 301.59,-100.49"/>
<text text-anchor="middle" x="264.09" y="-85.49" font-family="Helvetica,sans-Serif" font-size="10.00">opsx&#45;propose</text>
<text text-anchor="middle" x="264.09" y="-74.49" font-family="Helvetica,sans-Serif" font-size="10.00">(406 tok)</text>
</g>
<!-- skill_workflow_setup&#45;&gt;cmd_opsx_propose -->
<g id="edge5" class="edge">
<title>skill_workflow_setup&#45;&gt;cmd_opsx_propose</title>
<path fill="none" stroke="black" d="M108.34,-151.79C133.37,-140.2 166.86,-124.8 196.59,-111.49 203.23,-108.52 210.26,-105.42 217.16,-102.39"/>
<polygon fill="black" stroke="black" points="218.69,-105.54 226.45,-98.32 215.89,-99.12 218.69,-105.54"/>
</g>
<!-- cmd_ac_extract -->
<g id="node7" class="node">
<title>cmd_ac_extract</title>
<polygon fill="#e3f2fd" stroke="black" points="294.09,-42.49 234.09,-42.49 234.09,-6.49 294.09,-6.49 294.09,-42.49"/>
<text text-anchor="middle" x="264.09" y="-27.49" font-family="Helvetica,sans-Serif" font-size="10.00">ac&#45;extract</text>
<text text-anchor="middle" x="264.09" y="-16.49" font-family="Helvetica,sans-Serif" font-size="10.00">(366 tok)</text>
</g>
<!-- skill_workflow_setup&#45;&gt;cmd_ac_extract -->
<g id="edge6" class="edge">
<title>skill_workflow_setup&#45;&gt;cmd_ac_extract</title>
<path fill="none" stroke="black" d="M88.71,-148.81C111.91,-123.7 153.93,-81.27 196.59,-53.49 205.22,-47.88 215.12,-42.89 224.6,-38.7"/>
<polygon fill="black" stroke="black" points="226.02,-41.9 233.88,-34.79 223.3,-35.45 226.02,-41.9"/>
</g>
<!-- cmd_init&#45;&gt;cmd_worktree_create -->
<!-- cmd_worktree_create&#45;&gt;cmd_project_board_status_update -->
<!-- script_worktree_create -->
<g id="node8" class="node">
<title>script_worktree_create</title>
<polygon fill="#ff9800" stroke="black" points="526.85,-256.49 492.51,-280.98 423.84,-280.98 389.51,-256.49 423.84,-232.01 492.51,-232.01 526.85,-256.49"/>
<text text-anchor="middle" x="458.18" y="-259.49" font-family="Helvetica,sans-Serif" font-size="10.00">worktree&#45;create</text>
<text text-anchor="middle" x="458.18" y="-248.49" font-family="Helvetica,sans-Serif" font-size="10.00">(2,126 tok)</text>
</g>
<!-- cmd_worktree_create&#45;&gt;script_worktree_create -->
<g id="edge7" class="edge">
<title>cmd_worktree_create&#45;&gt;script_worktree_create</title>
<path fill="none" stroke="black" d="M306.3,-256.49C327.52,-256.49 354.11,-256.49 379.03,-256.49"/>
<polygon fill="black" stroke="black" points="379.22,-259.99 389.22,-256.49 379.22,-252.99 379.22,-259.99"/>
</g>
<!-- cmd_project_board_status_update&#45;&gt;cmd_crg_auto_build -->
<!-- cmd_crg_auto_build&#45;&gt;cmd_opsx_propose -->
<!-- cmd_opsx_propose&#45;&gt;cmd_ac_extract -->
<!-- script_parse_issue_ac -->
<g id="node9" class="node">
<title>script_parse_issue_ac</title>
<polygon fill="#ff9800" stroke="black" points="523.32,-24.49 490.75,-48.98 425.61,-48.98 393.04,-24.49 425.61,-0.01 490.75,-0.01 523.32,-24.49"/>
<text text-anchor="middle" x="458.18" y="-27.49" font-family="Helvetica,sans-Serif" font-size="10.00">parse&#45;issue&#45;ac</text>
<text text-anchor="middle" x="458.18" y="-16.49" font-family="Helvetica,sans-Serif" font-size="10.00">(1,224 tok)</text>
</g>
<!-- cmd_ac_extract&#45;&gt;script_parse_issue_ac -->
<g id="edge8" class="edge">
<title>cmd_ac_extract&#45;&gt;script_parse_issue_ac</title>
<path fill="none" stroke="black" d="M294.27,-24.49C317.65,-24.49 351.54,-24.49 382.35,-24.49"/>
<polygon fill="black" stroke="black" points="382.67,-27.99 392.67,-24.49 382.67,-20.99 382.67,-27.99"/>
</g>
</g>
</svg>
